<svg width="25" height="25" viewBox="0 0 25 25" fill="none" xmlns="http://www.w3.org/2000/svg">
<path d="M12.5 17.8C12.5 20.5615 14.7386 22.8 17.5 22.8C20.2614 22.8 22.5 20.5615 22.5 17.8C22.5 15.0386 20.2614 12.8 17.5 12.8C14.7386 12.8 12.5 15.0386 12.5 17.8ZM12.5 17.8C12.5 16.6742 12.8721 15.6353 13.5 14.7996V5.80005M12.5 17.8C12.5 18.6254 12.7 19.404 13.0541 20.0902C12.2117 20.8018 10.2658 21.3 8 21.3C4.96243 21.3 2.5 20.4046 2.5 19.3V5.80005M13.5 5.80005C13.5 6.90462 11.0376 7.80005 8 7.80005C4.96243 7.80005 2.5 6.90462 2.5 5.80005M13.5 5.80005C13.5 4.69548 11.0376 3.80005 8 3.80005C4.96243 3.80005 2.5 4.69548 2.5 5.80005M2.5 14.8C2.5 15.9046 4.96243 16.8 8 16.8C10.189 16.8 12.0793 16.335 12.9646 15.6618M13.5 10.3C13.5 11.4046 11.0376 12.3 8 12.3C4.96243 12.3 2.5 11.4046 2.5 10.3" stroke="#006C70" stroke-width="2" stroke-linecap="round" stroke-linejoin="round"/>
</svg>
