<svg width="24" height="25" viewBox="0 0 24 25" fill="none" xmlns="http://www.w3.org/2000/svg">
<path d="M15 9.80005H15.01M15 15.8C18.3137 15.8 21 13.1138 21 9.80005C21 6.48634 18.3137 3.80005 15 3.80005C11.6863 3.80005 9 6.48634 9 9.80005C9 10.0737 9.01832 10.3431 9.05381 10.6071C9.11218 11.0412 9.14136 11.2583 9.12172 11.3956C9.10125 11.5387 9.0752 11.6158 9.00469 11.7419C8.937 11.8631 8.81771 11.9823 8.57913 12.2209L3.46863 17.3314C3.29568 17.5044 3.2092 17.5908 3.14736 17.6918C3.09253 17.7812 3.05213 17.8788 3.02763 17.9808C3 18.0959 3 18.2182 3 18.4628V20.2C3 20.7601 3 21.0401 3.10899 21.254C3.20487 21.4422 3.35785 21.5952 3.54601 21.6911C3.75992 21.8 4.03995 21.8 4.6 21.8H6.33726C6.58185 21.8 6.70414 21.8 6.81923 21.7724C6.92127 21.7479 7.01881 21.7075 7.10828 21.6527C7.2092 21.5908 7.29568 21.5044 7.46863 21.3314L12.5791 16.2209C12.8177 15.9823 12.937 15.863 13.0581 15.7954C13.1843 15.7248 13.2613 15.6988 13.4044 15.6783C13.5417 15.6587 13.7588 15.6879 14.193 15.7462C14.4569 15.7817 14.7263 15.8 15 15.8Z" stroke="#00AEB5" stroke-width="2" stroke-linecap="round" stroke-linejoin="round"/>
</svg>
