<svg width="24" height="25" viewBox="0 0 24 25" fill="none" xmlns="http://www.w3.org/2000/svg">
<path d="M5 13.8H8M2 9.80005L4 10.8L5.27064 6.98812C5.53292 6.2013 5.66405 5.80789 5.90729 5.51703C6.12208 5.26018 6.39792 5.06137 6.70951 4.93882C7.06236 4.80005 7.47705 4.80005 8.30643 4.80005H15.6936C16.523 4.80005 16.9376 4.80005 17.2905 4.93882C17.6021 5.06137 17.8779 5.26018 18.0927 5.51703C18.3359 5.80789 18.4671 6.2013 18.7294 6.98812L20 10.8L22 9.80005M16 13.8H19M6.8 10.8H17.2C18.8802 10.8 19.7202 10.8 20.362 11.127C20.9265 11.4146 21.3854 11.8736 21.673 12.4381C22 13.0798 22 13.9199 22 15.6V18.3C22 18.7647 22 18.997 21.9616 19.1902C21.8038 19.9836 21.1836 20.6038 20.3902 20.7616C20.197 20.8 19.9647 20.8 19.5 20.8H19C17.8954 20.8 17 19.9046 17 18.8C17 18.5239 16.7761 18.3 16.5 18.3H7.5C7.22386 18.3 7 18.5239 7 18.8C7 19.9046 6.10457 20.8 5 20.8H4.5C4.03534 20.8 3.80302 20.8 3.60982 20.7616C2.81644 20.6038 2.19624 19.9836 2.03843 19.1902C2 18.997 2 18.7647 2 18.3V15.6C2 13.9199 2 13.0798 2.32698 12.4381C2.6146 11.8736 3.07354 11.4146 3.63803 11.127C4.27976 10.8 5.11984 10.8 6.8 10.8Z" stroke="#006C70" stroke-width="2" stroke-linecap="round" stroke-linejoin="round"/>
</svg>
