<svg width="24" height="25" viewBox="0 0 24 25" fill="none" xmlns="http://www.w3.org/2000/svg">
<path d="M7 18.8V16.3M7 16.3V14.8C7 14.3286 7 14.0929 7.15377 13.9465C7.30754 13.8 7.55503 13.8 8.05 13.8H8.75C9.47487 13.8 10.0625 14.3597 10.0625 15.05C10.0625 15.7404 9.47487 16.3 8.75 16.3H7ZM21 13.8H19.6875C18.8625 13.8 18.4501 13.8 18.1938 14.0441C17.9375 14.2882 17.9375 14.681 17.9375 15.4667V16.3M17.9375 18.8V16.3M17.9375 16.3H20.125M15.75 16.3C15.75 17.6808 14.5747 18.8 13.125 18.8C12.7979 18.8 12.6343 18.8 12.5125 18.7331C12.2208 18.5727 12.25 18.248 12.25 17.9667V14.6334C12.25 14.3521 12.2208 14.0274 12.5125 13.867C12.6343 13.8 12.7979 13.8 13.125 13.8C14.5747 13.8 15.75 14.9193 15.75 16.3Z" stroke="#00AEB5" stroke-width="1.5" stroke-linecap="round" stroke-linejoin="round"/>
<path d="M15 22.8H10.7273C7.46607 22.8 5.83546 22.8 4.70307 22.0022C4.37862 21.7736 4.09058 21.5025 3.8477 21.1972C3 20.1314 3 18.5967 3 15.5273V12.9819C3 10.0187 3 8.53711 3.46894 7.3538C4.22281 5.45147 5.81714 3.95093 7.83836 3.2414C9.09563 2.80005 10.6698 2.80005 13.8182 2.80005C15.6173 2.80005 16.5168 2.80005 17.2352 3.05225C18.3902 3.4577 19.3012 4.31515 19.732 5.40219C20 6.07837 20 6.92499 20 8.61823V10.8" stroke="#00AEB5" stroke-width="1.5" stroke-linecap="round" stroke-linejoin="round"/>
<path d="M3 12.8C3 10.9591 4.49238 9.46672 6.33333 9.46672C6.99912 9.46672 7.78404 9.58338 8.43137 9.40992C9.00652 9.25581 9.45576 8.80657 9.60988 8.23141C9.78333 7.58409 9.66667 6.79917 9.66667 6.13338C9.66667 4.29243 11.1591 2.80005 13 2.80005" stroke="#00AEB5" stroke-width="1.5" stroke-linecap="round" stroke-linejoin="round"/>
</svg>
