<svg width="24" height="25" viewBox="0 0 24 25" fill="none" xmlns="http://www.w3.org/2000/svg">
<path d="M6.5 20.8H5C3.89543 20.8 3 19.9046 3 18.8V4.80005C3 3.69548 3.89543 2.80005 5 2.80005H19C20.1046 2.80005 21 3.69548 21 4.80005V18.8C21 19.9046 20.1046 20.8 19 20.8H17.5M12 19.8C13.6569 19.8 15 18.4569 15 16.8C15 15.1432 13.6569 13.8 12 13.8C10.3431 13.8 9 15.1432 9 16.8C9 18.4569 10.3431 19.8 12 19.8ZM12 19.8L12.0214 19.7998L8.82867 22.9926L6.00024 20.1642L9.01965 17.1448M12 19.8L15.1928 22.9926L18.0212 20.1642L15.0018 17.1448M9 6.80005H15M7 10.3H17" stroke="#006C70" stroke-width="2" stroke-linecap="round" stroke-linejoin="round"/>
</svg>
