<svg width="24" height="25" viewBox="0 0 24 25" fill="none" xmlns="http://www.w3.org/2000/svg">
<path d="M6 6.80005L10.5 11.3M6 6.80005H3L2 3.80005L3 2.80005L6 3.80005V6.80005ZM19.259 3.54106L16.6314 6.16868C16.2354 6.56469 16.0373 6.7627 15.9632 6.99103C15.8979 7.19188 15.8979 7.40822 15.9632 7.60907C16.0373 7.83739 16.2354 8.0354 16.6314 8.43142L16.8686 8.66868C17.2646 9.06469 17.4627 9.2627 17.691 9.33689C17.8918 9.40215 18.1082 9.40215 18.309 9.33689C18.5373 9.2627 18.7354 9.0647 19.1314 8.66868L21.5893 6.21077C21.854 6.85493 22 7.56044 22 8.30005C22 11.3376 19.5376 13.8 16.5 13.8C16.1338 13.8 15.7759 13.7643 15.4298 13.696C14.9436 13.6001 14.7005 13.5522 14.5532 13.5669C14.3965 13.5825 14.3193 13.6059 14.1805 13.6802C14.0499 13.7501 13.919 13.8811 13.657 14.143L6.5 21.3C5.67157 22.1285 4.32843 22.1285 3.5 21.3C2.67157 20.4716 2.67157 19.1285 3.5 18.3L10.657 11.143C10.919 10.8811 11.0499 10.7501 11.1198 10.6195C11.1941 10.4807 11.2176 10.4035 11.2332 10.2469C11.2479 10.0995 11.1999 9.85643 11.1041 9.37029C11.0358 9.02411 11 8.66626 11 8.30005C11 5.26248 13.4624 2.80005 16.5 2.80005C17.5055 2.80005 18.448 3.06987 19.259 3.54106ZM12.0001 15.8L17.5 21.2999C18.3284 22.1284 19.6716 22.1284 20.5 21.2999C21.3284 20.4715 21.3284 19.1284 20.5 18.2999L15.9753 13.7753C15.655 13.745 15.3427 13.6873 15.0408 13.6044C14.6517 13.4976 14.2249 13.5751 13.9397 13.8604L12.0001 15.8Z" stroke="#006C70" stroke-width="2" stroke-linecap="round" stroke-linejoin="round"/>
</svg>
