<svg width="40" height="41" viewBox="0 0 40 41" fill="none" xmlns="http://www.w3.org/2000/svg">
<path d="M36.6668 20.8001C36.6668 30.0048 29.2049 37.4668 20.0002 37.4668C10.7954 37.4668 3.3335 30.0048 3.3335 20.8001M36.6668 20.8001C36.6668 11.5953 29.2049 4.13342 20.0002 4.13342M36.6668 20.8001H32.5002M3.3335 20.8001C3.3335 11.5953 10.7954 4.13342 20.0002 4.13342M3.3335 20.8001H7.50016M20.0002 4.13342V8.30009M31.7975 9.13342L22.5 18.3001M31.7975 32.5975L31.4577 32.2576C30.3047 31.1046 29.7282 30.5281 29.0554 30.1158C28.4589 29.7503 27.8086 29.4809 27.1284 29.3176C26.3611 29.1334 25.5458 29.1334 23.9152 29.1334L16.0851 29.1335C14.4545 29.1335 13.6392 29.1335 12.8719 29.3177C12.1917 29.481 11.5414 29.7504 10.9449 30.1159C10.2722 30.5282 9.69566 31.1047 8.54265 32.2577L8.20288 32.5975M8.20288 9.13342L11.097 12.0275M23.3335 20.8001C23.3335 22.641 21.8411 24.1334 20.0002 24.1334C18.1592 24.1334 16.6668 22.641 16.6668 20.8001C16.6668 18.9591 18.1592 17.4668 20.0002 17.4668C21.8411 17.4668 23.3335 18.9591 23.3335 20.8001Z" stroke="#00AEB5" stroke-width="2" stroke-linecap="round" stroke-linejoin="round"/>
</svg>
