<svg width="50" height="51" viewBox="0 0 50 51" fill="none" xmlns="http://www.w3.org/2000/svg">
<g clip-path="url(#clip0_109_5286)" filter="url(#filter0_d_109_5286)">
<path d="M18.1008 0.596477C17.8788 0.226425 17.4789 0 17.0473 0H5.16998C4.21502 0 3.62517 1.04179 4.1165 1.86067L17.3851 23.975C17.6071 24.345 18.007 24.5714 18.4386 24.5714H30.3159C31.2709 24.5714 31.8607 23.5296 31.3694 22.7108L18.1008 0.596477Z" fill="#006C70"/>
<path fill-rule="evenodd" clip-rule="evenodd" d="M17.0473 -1.22852H5.16998C3.26006 -1.22852 2.08036 0.855072 3.063 2.49282L16.3316 24.6071C16.7756 25.3472 17.5755 25.8001 18.4386 25.8001H30.3159C32.2258 25.8001 33.4055 23.7165 32.4229 22.0787L19.1543 -0.0355616C18.7103 -0.775665 17.9105 -1.22852 17.0473 -1.22852ZM17.0473 5.57899e-05C17.4789 5.57899e-05 17.8788 0.226481 18.1008 0.596533L31.3694 22.7108C31.8607 23.5297 31.2709 24.5715 30.3159 24.5715H18.4386C18.007 24.5715 17.6071 24.3451 17.3851 23.975L4.1165 1.86072C3.62517 1.04185 4.21502 5.57899e-05 5.16998 5.57899e-05H17.0473Z" fill="#29D7DE"/>
<path d="M30.8994 0.596477C31.1214 0.226425 31.5213 0 31.9529 0H43.8303C44.7852 0 45.3751 1.04179 44.8837 1.86067L31.6152 23.975C31.3931 24.345 30.9932 24.5714 30.5617 24.5714H18.6843C17.7294 24.5714 17.1395 23.5296 17.6308 22.7108L30.8994 0.596477Z" fill="#29D7DE"/>
<path fill-rule="evenodd" clip-rule="evenodd" d="M31.9529 -1.22852H43.8303C45.7402 -1.22852 46.9199 0.855072 45.9372 2.49282L32.6687 24.6071C32.2246 25.3472 31.4248 25.8001 30.5617 25.8001H18.6843C16.7744 25.8001 15.5947 23.7165 16.5773 22.0787L29.8459 -0.0355616C30.29 -0.775665 31.0898 -1.22852 31.9529 -1.22852ZM31.9529 5.57899e-05C31.5213 5.57899e-05 31.1214 0.226481 30.8994 0.596533L17.6308 22.7108C17.1395 23.5297 17.7294 24.5715 18.6843 24.5715H30.5617C30.9932 24.5715 31.3931 24.3451 31.6152 23.975L44.8837 1.86072C45.3751 1.04185 44.7852 5.57899e-05 43.8303 5.57899e-05H31.9529Z" fill="#29D7DE"/>
<path fill-rule="evenodd" clip-rule="evenodd" d="M32.1799 0.697295C32.4733 0.86765 32.5731 1.24359 32.4027 1.53698L26.8741 11.0584C26.7038 11.3518 26.3278 11.4515 26.0344 11.2812C25.7411 11.1108 25.6413 10.7349 25.8117 10.4415L31.3402 0.920068C31.5106 0.626679 31.8865 0.52694 32.1799 0.697295Z" fill="#00AEB5"/>
<path fill-rule="evenodd" clip-rule="evenodd" d="M5.14868 0.697295C4.8553 0.86765 4.75556 1.24359 4.92591 1.53698L10.4545 11.0584C10.6248 11.3518 11.0008 11.4515 11.2942 11.2812C11.5876 11.1108 11.6873 10.7349 11.5169 10.4415L5.98837 0.920068C5.81801 0.626679 5.44207 0.52694 5.14868 0.697295Z" fill="#00232A"/>
<path d="M16.8214 2.01569C16.8214 2.45037 16.4776 2.80274 16.0535 2.80274C15.6294 2.80274 15.2856 2.45037 15.2856 2.01569C15.2856 1.58101 15.6294 1.22864 16.0535 1.22864C16.4776 1.22864 16.8214 1.58101 16.8214 2.01569Z" fill="#00AEB5"/>
<path d="M14.1244 2.20766C14.1244 2.74835 13.6968 3.18667 13.1693 3.18667C12.6417 3.18667 12.2141 2.74835 12.2141 2.20766C12.2141 1.66696 12.6417 1.22864 13.1693 1.22864C13.6968 1.22864 14.1244 1.66696 14.1244 2.20766Z" fill="#00AEB5"/>
<path d="M16.5143 5.01027C16.5143 5.55096 16.0867 5.98929 15.5591 5.98929C15.0316 5.98929 14.604 5.55096 14.604 5.01027C14.604 4.46957 15.0316 4.03125 15.5591 4.03125C16.0867 4.03125 16.5143 4.46957 16.5143 5.01027Z" fill="#00AEB5"/>
<path d="M18.6978 3.67615C18.6978 3.9465 18.484 4.16566 18.2202 4.16566C17.9565 4.16566 17.7427 3.9465 17.7427 3.67615C17.7427 3.40581 17.9565 3.18665 18.2202 3.18665C18.484 3.18665 18.6978 3.40581 18.6978 3.67615Z" fill="#00AEB5"/>
<path d="M13.647 4.52076C13.647 4.79111 13.4332 5.01027 13.1695 5.01027C12.9057 5.01027 12.6919 4.79111 12.6919 4.52076C12.6919 4.25041 12.9057 4.03125 13.1695 4.03125C13.4332 4.03125 13.647 4.25041 13.647 4.52076Z" fill="#00AEB5"/>
<path d="M10.9857 1.52613C10.9857 1.79648 10.7718 2.01564 10.5081 2.01564C10.2443 2.01564 10.0305 1.79648 10.0305 1.52613C10.0305 1.25578 10.2443 1.03662 10.5081 1.03662C10.7718 1.03662 10.9857 1.25578 10.9857 1.52613Z" fill="#00AEB5"/>
<path d="M18.2203 7.09315C18.2203 7.36349 18.0065 7.58266 17.7427 7.58266C17.479 7.58266 17.2651 7.36349 17.2651 7.09315C17.2651 6.8228 17.479 6.60364 17.7427 6.60364C18.0065 6.60364 18.2203 6.8228 18.2203 7.09315Z" fill="#00AEB5"/>
<path d="M15.7632 7.58265C15.7632 7.853 15.5494 8.07216 15.2857 8.07216C15.0219 8.07216 14.8081 7.853 14.8081 7.58265C14.8081 7.3123 15.0219 7.09314 15.2857 7.09314C15.5494 7.09314 15.7632 7.3123 15.7632 7.58265Z" fill="#00AEB5"/>
<path d="M20.5259 5.80691C20.5259 6.24688 20.1779 6.60356 19.7487 6.60356C19.3194 6.60356 18.9714 6.24688 18.9714 5.80691C18.9714 5.36693 19.3194 5.01025 19.7487 5.01025C20.1779 5.01025 20.5259 5.36693 20.5259 5.80691Z" fill="#00AEB5"/>
<path d="M21.5391 8.07215C21.5391 8.3425 21.3253 8.56166 21.0616 8.56166C20.7978 8.56166 20.584 8.3425 20.584 8.07215C20.584 7.8018 20.7978 7.58264 21.0616 7.58264C21.3253 7.58264 21.5391 7.8018 21.5391 8.07215Z" fill="#00AEB5"/>
<path d="M41.0852 32.5567C41.0852 41.7167 33.6596 49.1424 24.4995 49.1424C15.3395 49.1424 7.91382 41.7167 7.91382 32.5567C7.91382 23.3966 15.3395 15.9709 24.4995 15.9709C33.6596 15.9709 41.0852 23.3966 41.0852 32.5567Z" fill="#FFBB0D"/>
<path fill-rule="evenodd" clip-rule="evenodd" d="M42.3139 32.5567C42.3139 42.3953 34.3382 50.371 24.4996 50.371C14.661 50.371 6.6853 42.3953 6.6853 32.5567C6.6853 22.7182 14.661 14.7424 24.4996 14.7424C34.3382 14.7424 42.3139 22.7182 42.3139 32.5567ZM24.4996 49.1424C33.6596 49.1424 41.0853 41.7168 41.0853 32.5567C41.0853 23.3967 33.6596 15.971 24.4996 15.971C15.3396 15.971 7.91387 23.3967 7.91387 32.5567C7.91387 41.7168 15.3396 49.1424 24.4996 49.1424Z" fill="#E89B05"/>
<path fill-rule="evenodd" clip-rule="evenodd" d="M9.14234 33.171C8.80308 33.171 8.52806 32.896 8.52806 32.5567C8.52806 23.736 15.6787 16.5853 24.4995 16.5853C24.8387 16.5853 25.1138 16.8603 25.1138 17.1996C25.1138 17.5389 24.8387 17.8139 24.4995 17.8139C16.3572 17.8139 9.75663 24.4145 9.75663 32.5567C9.75663 32.896 9.4816 33.171 9.14234 33.171Z" fill="#E8AA0A"/>
<path fill-rule="evenodd" clip-rule="evenodd" d="M39.8567 31.9424C40.1959 31.9424 40.471 32.2174 40.471 32.5567C40.471 41.3774 33.3203 48.5281 24.4995 48.5281C24.1603 48.5281 23.8853 48.2531 23.8853 47.9138C23.8853 47.5745 24.1603 47.2995 24.4995 47.2995C32.6418 47.2995 39.2424 40.6989 39.2424 32.5567C39.2424 32.2174 39.5174 31.9424 39.8567 31.9424Z" fill="#E8AA0A"/>
<path d="M36.7853 32.5567C36.7853 39.3419 31.2848 44.8424 24.4996 44.8424C17.7144 44.8424 12.2139 39.3419 12.2139 32.5567C12.2139 25.7715 17.7144 20.271 24.4996 20.271C31.2848 20.271 36.7853 25.7715 36.7853 32.5567Z" fill="#FFDD28"/>
<path fill-rule="evenodd" clip-rule="evenodd" d="M38.0139 32.5568C38.0139 40.0205 31.9634 46.071 24.4996 46.071C17.0359 46.071 10.9854 40.0205 10.9854 32.5568C10.9854 25.093 17.0359 19.0425 24.4996 19.0425C31.9634 19.0425 38.0139 25.093 38.0139 32.5568ZM24.4996 44.8425C31.2848 44.8425 36.7854 39.342 36.7854 32.5568C36.7854 25.7716 31.2848 20.2711 24.4996 20.2711C17.7144 20.2711 12.2139 25.7716 12.2139 32.5568C12.2139 39.342 17.7144 44.8425 24.4996 44.8425Z" fill="#E89B05"/>
<path fill-rule="evenodd" clip-rule="evenodd" d="M24.4995 42.9996C30.2669 42.9996 34.9423 38.3242 34.9423 32.5567C34.9423 32.2175 35.2174 31.9424 35.5566 31.9424C35.8959 31.9424 36.1709 32.2175 36.1709 32.5567C36.1709 39.0027 30.9454 44.2281 24.4995 44.2281C24.1602 44.2281 23.8852 43.9531 23.8852 43.6139C23.8852 43.2746 24.1602 42.9996 24.4995 42.9996Z" fill="#ECC704"/>
<path fill-rule="evenodd" clip-rule="evenodd" d="M24.4996 22.1138C18.7321 22.1138 14.0567 26.7893 14.0567 32.5567C14.0567 32.8959 13.7817 33.171 13.4424 33.171C13.1032 33.171 12.8281 32.8959 12.8281 32.5567C12.8281 26.1107 18.0536 20.8853 24.4996 20.8853C24.8388 20.8853 25.1138 21.1603 25.1138 21.4995C25.1138 21.8388 24.8388 22.1138 24.4996 22.1138Z" fill="#FFEF9C"/>
<path d="M17.7424 30.9594L21.9656 30.0994L23.2326 27.9494L24.4996 25.7994L27.0335 30.0994L31.2567 30.9594L27.8781 34.3994L28.7228 38.6994L24.4996 36.5494L20.2764 38.6994L21.121 34.3994L17.7424 30.9594Z" fill="#FFEF9C"/>
<path fill-rule="evenodd" clip-rule="evenodd" d="M21.9657 30.0995L24.4997 25.7995L27.0336 30.0995L31.2568 30.9595L27.8782 34.3995L28.7229 38.6995L24.4997 36.5495L20.2764 38.6995L21.1211 34.3995L17.7425 30.9595L21.9657 30.0995ZM19.7907 34.7983L16.866 31.8204C16.5504 31.4991 16.436 31.0309 16.5676 30.6002C16.6993 30.1696 17.0561 29.8455 17.4974 29.7556L21.1848 29.0047L23.4412 25.1758C23.6621 24.801 24.0646 24.5709 24.4997 24.5709C24.9347 24.5709 25.3373 24.801 25.5581 25.1758L27.8145 29.0047L31.502 29.7556C31.9432 29.8455 32.3 30.1696 32.4317 30.6002C32.5634 31.0309 32.4489 31.4991 32.1333 31.8204L29.2086 34.7983L29.9284 38.4627C30.019 38.924 29.8385 39.3965 29.4634 39.6798C29.0883 39.9632 28.5844 40.0076 28.1655 39.7943L24.4997 37.9281L20.8338 39.7943C20.4149 40.0076 19.911 39.9632 19.5359 39.6798C19.1608 39.3965 18.9803 38.924 19.0709 38.4627L19.7907 34.7983Z" fill="#E89B05"/>
</g>
<defs>
<filter id="filter0_d_109_5286" x="0" y="0" width="52" height="52" filterUnits="userSpaceOnUse" color-interpolation-filters="sRGB">
<feFlood flood-opacity="0" result="BackgroundImageFix"/>
<feColorMatrix in="SourceAlpha" type="matrix" values="0 0 0 0 0 0 0 0 0 0 0 0 0 0 0 0 0 0 127 0" result="hardAlpha"/>
<feOffset dx="2" dy="2"/>
<feColorMatrix type="matrix" values="0 0 0 0 0.637788 0 0 0 0 0.545996 0 0 0 0 0.47948 0 0 0 0.2 0"/>
<feBlend mode="normal" in2="BackgroundImageFix" result="effect1_dropShadow_109_5286"/>
<feBlend mode="normal" in="SourceGraphic" in2="effect1_dropShadow_109_5286" result="shape"/>
</filter>
<clipPath id="clip0_109_5286">
<rect width="50" height="50" fill="white"/>
</clipPath>
</defs>
</svg>
