<svg width="25" height="25" viewBox="0 0 25 25" fill="none" xmlns="http://www.w3.org/2000/svg">
<path d="M10.5 8.80005V7.80005M10.5 13.3V12.3M10.5 17.8V16.8M5.7 4.80005H19.3C20.4201 4.80005 20.9802 4.80005 21.408 5.01804C21.7843 5.20978 22.0903 5.51574 22.282 5.89207C22.5 6.31989 22.5 6.87994 22.5 8.00005V9.30005C20.567 9.30005 19 10.8671 19 12.8C19 14.733 20.567 16.3 22.5 16.3V17.6C22.5 18.7202 22.5 19.2802 22.282 19.708C22.0903 20.0844 21.7843 20.3903 21.408 20.5821C20.9802 20.8 20.4201 20.8 19.3 20.8H5.7C4.5799 20.8 4.01984 20.8 3.59202 20.5821C3.21569 20.3903 2.90973 20.0844 2.71799 19.708C2.5 19.2802 2.5 18.7202 2.5 17.6V16.3C4.433 16.3 6 14.733 6 12.8C6 10.8671 4.433 9.30005 2.5 9.30005V8.00005C2.5 6.87994 2.5 6.31989 2.71799 5.89207C2.90973 5.51574 3.21569 5.20978 3.59202 5.01804C4.01984 4.80005 4.5799 4.80005 5.7 4.80005Z" stroke="#006C70" stroke-width="2" stroke-linecap="round" stroke-linejoin="round"/>
</svg>
