<svg width="25" height="25" viewBox="0 0 25 25" fill="none" xmlns="http://www.w3.org/2000/svg">
<path d="M8.5 21.8V7.80005C8.5 6.87008 8.5 6.40509 8.60222 6.02359C8.87962 4.98832 9.68827 4.17967 10.7235 3.90227C11.105 3.80005 11.57 3.80005 12.5 3.80005C13.43 3.80005 13.895 3.80005 14.2765 3.90227C15.3117 4.17967 16.1204 4.98832 16.3978 6.02359C16.5 6.40509 16.5 6.87008 16.5 7.80005V14.3M16.5 18.3V21.8M7.3 21.8H17.7C19.3802 21.8 20.2202 21.8 20.862 21.4731C21.4265 21.1854 21.8854 20.7265 22.173 20.162C22.5 19.5203 22.5 18.6802 22.5 17V12.6C22.5 10.9199 22.5 10.0798 22.173 9.43808C21.8854 8.87359 21.4265 8.41465 20.862 8.12703C20.2202 7.80005 19.3802 7.80005 17.7 7.80005H7.3C5.61984 7.80005 4.77976 7.80005 4.13803 8.12703C3.57354 8.41465 3.1146 8.87359 2.82698 9.43808C2.5 10.0798 2.5 10.9199 2.5 12.6V17C2.5 18.6802 2.5 19.5203 2.82698 20.162C3.1146 20.7265 3.57354 21.1854 4.13803 21.4731C4.77976 21.8 5.61984 21.8 7.3 21.8ZM13.3 18.3H18.2C18.48 18.3 18.62 18.3 18.727 18.2456C18.8211 18.1976 18.8976 18.1211 18.9455 18.027C19 17.9201 19 17.7801 19 17.5V15.1C19 14.82 19 14.68 18.9455 14.5731C18.8976 14.479 18.8211 14.4025 18.727 14.3545C18.62 14.3 18.48 14.3 18.2 14.3H13.3C13.02 14.3 12.88 14.3 12.773 14.3545C12.6789 14.4025 12.6024 14.479 12.5545 14.5731C12.5 14.68 12.5 14.82 12.5 15.1V17.5C12.5 17.7801 12.5 17.9201 12.5545 18.027C12.6024 18.1211 12.6789 18.1976 12.773 18.2456C12.88 18.3 13.02 18.3 13.3 18.3Z" stroke="#006C70" stroke-width="2" stroke-linecap="round" stroke-linejoin="round"/>
</svg>
