<svg width="25" height="24" viewBox="0 0 25 24" fill="none" xmlns="http://www.w3.org/2000/svg">
<path d="M5.65837 11.491C5.58489 12.887 5.66936 14.373 4.42213 15.3084C3.84164 15.7438 3.5 16.427 3.5 17.1527C3.5 18.1508 4.2818 19 5.3 19H19.7C20.7182 19 21.5 18.1508 21.5 17.1527C21.5 16.427 21.1584 15.7438 20.5779 15.3084C19.3306 14.373 19.4151 12.887 19.3416 11.491C19.1501 7.85223 16.1438 5 12.5 5C8.85617 5 5.84988 7.85222 5.65837 11.491Z" stroke="#00AEB5" stroke-width="1.5" stroke-linecap="round" stroke-linejoin="round"/>
<path d="M11 3.125C11 3.95343 11.6716 5 12.5 5C13.3284 5 14 3.95343 14 3.125C14 2.29657 13.3284 2 12.5 2C11.6716 2 11 2.29657 11 3.125Z" stroke="#00AEB5" stroke-width="1.5"/>
<path d="M15.5 19C15.5 20.6569 14.1569 22 12.5 22C10.8431 22 9.5 20.6569 9.5 19" stroke="#00AEB5" stroke-width="1.5" stroke-linecap="round" stroke-linejoin="round"/>
</svg>
