<svg width="15" height="15" viewBox="0 0 15 15" fill="none" xmlns="http://www.w3.org/2000/svg">
<g clip-path="url(#clip0_644_7481)">
<path d="M1.66602 5.55635C1.66602 5.352 1.66602 5.24982 1.67454 5.16376C1.75678 4.33371 2.41342 3.67707 3.24347 3.59483C3.32953 3.5863 3.43722 3.5863 3.65261 3.5863C3.7356 3.5863 3.77709 3.5863 3.81232 3.58417C4.26221 3.55692 4.65615 3.27298 4.82427 2.8548C4.83743 2.82205 4.84974 2.78514 4.87435 2.7113C4.89896 2.63747 4.91127 2.60055 4.92443 2.5678C5.09254 2.14963 5.48649 1.86568 5.93637 1.83844C5.97161 1.8363 6.01052 1.8363 6.08835 1.8363H8.91035C8.98818 1.8363 9.02709 1.8363 9.06232 1.83844C9.51221 1.86568 9.90615 2.14963 10.0743 2.5678C10.0874 2.60055 10.0997 2.63747 10.1243 2.7113C10.149 2.78514 10.1613 2.82205 10.1744 2.8548C10.3425 3.27298 10.7365 3.55692 11.1864 3.58417C11.2216 3.5863 11.2631 3.5863 11.3461 3.5863C11.5615 3.5863 11.6692 3.5863 11.7552 3.59483C12.5853 3.67707 13.2419 4.33371 13.3242 5.16376C13.3327 5.24982 13.3327 5.352 13.3327 5.55635V10.1196C13.3327 11.0997 13.3327 11.5898 13.1419 11.9641C12.9742 12.2934 12.7064 12.5611 12.3772 12.7289C12.0028 12.9196 11.5128 12.9196 10.5327 12.9196H4.46602C3.48592 12.9196 2.99588 12.9196 2.62153 12.7289C2.29225 12.5611 2.02453 12.2934 1.85675 11.9641C1.66602 11.5898 1.66602 11.0997 1.66602 10.1196V5.55635Z" stroke="#00AEB5" stroke-width="1.5" stroke-linecap="round" stroke-linejoin="round"/>
<path d="M7.49935 10.2946C8.78801 10.2946 9.83268 9.24997 9.83268 7.9613C9.83268 6.67264 8.78801 5.62797 7.49935 5.62797C6.21068 5.62797 5.16602 6.67264 5.16602 7.9613C5.16602 9.24997 6.21068 10.2946 7.49935 10.2946Z" stroke="#00AEB5" stroke-width="1.5" stroke-linecap="round" stroke-linejoin="round"/>
</g>
<defs>
<clipPath id="clip0_644_7481">
<rect width="14" height="14" fill="white" transform="translate(0.5 0.669678)"/>
</clipPath>
</defs>
</svg>
