<svg width="14" height="16" viewBox="0 0 14 16" fill="none" xmlns="http://www.w3.org/2000/svg">
<path d="M0.75 4.00004H2.08333M2.08333 4.00004H12.75M2.08333 4.00004V13.3334C2.08333 13.687 2.22381 14.0261 2.47386 14.2762C2.72391 14.5262 3.06304 14.6667 3.41667 14.6667H10.0833C10.437 14.6667 10.7761 14.5262 11.0261 14.2762C11.2762 14.0261 11.4167 13.687 11.4167 13.3334V4.00004H2.08333ZM4.08333 4.00004V2.66671C4.08333 2.31309 4.22381 1.97395 4.47386 1.7239C4.72391 1.47385 5.06304 1.33337 5.41667 1.33337H8.08333C8.43696 1.33337 8.77609 1.47385 9.02614 1.7239C9.27619 1.97395 9.41667 2.31309 9.41667 2.66671V4.00004M5.41667 7.33337V11.3334M8.08333 7.33337V11.3334" stroke="#00AEB5" stroke-linecap="round" stroke-linejoin="round"/>
</svg>
