<svg width="21" height="20" viewBox="0 0 21 20" fill="none" xmlns="http://www.w3.org/2000/svg">
<g clip-path="url(#clip0_203_5084)">
<path fill-rule="evenodd" clip-rule="evenodd" d="M20.1 10.2273C20.1 9.51819 20.0364 8.83637 19.9182 8.18182H10.5V12.05H15.8818C15.65 13.3 14.9455 14.3591 13.8864 15.0682V17.5773H17.1182C19.0091 15.8364 20.1 13.2727 20.1 10.2273Z" fill="#4285F4"/>
<path fill-rule="evenodd" clip-rule="evenodd" d="M10.5008 20C13.2008 20 15.4645 19.1045 17.119 17.5772L13.8872 15.0681C12.9917 15.6681 11.8463 16.0227 10.5008 16.0227C7.89627 16.0227 5.69173 14.2636 4.90536 11.9H1.56445V14.4909C3.20991 17.7591 6.59173 20 10.5008 20Z" fill="#34A853"/>
<path fill-rule="evenodd" clip-rule="evenodd" d="M4.90455 11.9C4.70455 11.3 4.59091 10.6591 4.59091 10C4.59091 9.34091 4.70455 8.7 4.90455 8.1V5.50909H1.56364C0.886364 6.85909 0.5 8.38637 0.5 10C0.5 11.6136 0.886364 13.1409 1.56364 14.4909L4.90455 11.9Z" fill="#FBBC05"/>
<path fill-rule="evenodd" clip-rule="evenodd" d="M10.5008 3.97727C11.969 3.97727 13.2872 4.48182 14.3235 5.47273L17.1917 2.60455C15.4599 0.990909 13.1963 0 10.5008 0C6.59173 0 3.20991 2.24091 1.56445 5.50909L4.90536 8.1C5.69173 5.73636 7.89627 3.97727 10.5008 3.97727Z" fill="#EA4335"/>
</g>
<defs>
<clipPath id="clip0_203_5084">
<rect width="20" height="20" fill="white" transform="translate(0.5)"/>
</clipPath>
</defs>
</svg>
