<svg width="25" height="25" viewBox="0 0 25 25" fill="none" xmlns="http://www.w3.org/2000/svg">
<path d="M12.5 18.5V22.5" stroke="#00AEB5" stroke-width="1.5" stroke-linecap="round" stroke-linejoin="round"/>
<path d="M9 22.5L9.32821 22.1717C9.90628 21.5936 10.1953 21.3045 10.5629 21.1523C10.9305 21 11.3392 21 12.1568 21H12.843C13.6605 21 14.0692 21 14.4368 21.1522C14.8043 21.3045 15.0933 21.5935 15.6714 22.1716L15.9998 22.5" stroke="#00AEB5" stroke-width="1.5" stroke-linecap="round" stroke-linejoin="round"/>
<path d="M3 12.5C3 15.3284 3 16.7426 3.87868 17.6213C4.75736 18.5 6.17157 18.5 9 18.5H16C18.8284 18.5 20.2426 18.5 21.1213 17.6213C22 16.7426 22 15.3284 22 12.5V8.5C22 5.67157 22 4.25736 21.1213 3.37868C20.2426 2.5 18.8284 2.5 16 2.5H9C6.17157 2.5 4.75736 2.5 3.87868 3.37868C3 4.25736 3 5.67157 3 8.5V12.5Z" stroke="#00AEB5" stroke-width="1.5"/>
<path d="M8.5 13.5V10.5M12.5 13.5V7.5M16.5 13.5V11.5" stroke="#00AEB5" stroke-width="1.5" stroke-linecap="round"/>
</svg>
