<svg width="44" height="58" viewBox="0 0 44 58" fill="none" xmlns="http://www.w3.org/2000/svg">
<path d="M16.04 39V31.59H14.3V29.37H16.04V27.21H14.3V24.99H16.04V17.58H20.75L23.09 24.99H25.82V17.58H29.15V24.99H30.86V27.21H29.15V29.37H30.86V31.59H29.15V39H24.41L22.01 31.59H19.37V39H16.04ZM19.37 29.37H21.35L20.69 27.21H19.31L19.37 29.37ZM25.91 34.32H26.06L25.94 31.59H25.13L25.91 34.32ZM19.25 24.99H20.09L19.22 22.11H19.1L19.25 24.99ZM24.5 29.37H25.88L25.82 27.21H23.81L24.5 29.37Z" fill="#002D36"/>
</svg>
