<svg width="25" height="25" viewBox="0 0 25 25" fill="none" xmlns="http://www.w3.org/2000/svg">
<path d="M9.34 13.6204L16.17 17.6004M16.16 6.62035L9.34 10.6004M21.75 5.11035C21.75 6.76721 20.4069 8.11035 18.75 8.11035C17.0931 8.11035 15.75 6.76721 15.75 5.11035C15.75 3.4535 17.0931 2.11035 18.75 2.11035C20.4069 2.11035 21.75 3.4535 21.75 5.11035ZM9.75 12.1104C9.75 13.7672 8.40685 15.1104 6.75 15.1104C5.09315 15.1104 3.75 13.7672 3.75 12.1104C3.75 10.4535 5.09315 9.11035 6.75 9.11035C8.40685 9.11035 9.75 10.4535 9.75 12.1104ZM21.75 19.1104C21.75 20.7672 20.4069 22.1104 18.75 22.1104C17.0931 22.1104 15.75 20.7672 15.75 19.1104C15.75 17.4535 17.0931 16.1104 18.75 16.1104C20.4069 16.1104 21.75 17.4535 21.75 19.1104Z" stroke="#00232A" stroke-width="2" stroke-linecap="round" stroke-linejoin="round"/>
</svg>
