<svg width="25" height="24" viewBox="0 0 25 24" fill="none" xmlns="http://www.w3.org/2000/svg">
<ellipse cx="16" cy="11" rx="6.5" ry="2" stroke="#00AEB5" stroke-width="1.5"/>
<path d="M22.5 15.5C22.5 16.6046 19.5899 17.5 16 17.5C12.4101 17.5 9.5 16.6046 9.5 15.5" stroke="#00AEB5" stroke-width="1.5"/>
<path d="M22.5 11V19.8C22.5 21.015 19.5899 22 16 22C12.4101 22 9.5 21.015 9.5 19.8V11" stroke="#00AEB5" stroke-width="1.5"/>
<ellipse cx="9" cy="4" rx="6.5" ry="2" stroke="#00AEB5" stroke-width="1.5"/>
<path d="M6.5 11C4.60819 10.7698 2.86991 10.1745 2.5 9M6.5 16C4.60819 15.7698 2.86991 15.1745 2.5 14" stroke="#00AEB5" stroke-width="1.5" stroke-linecap="round"/>
<path d="M6.5 21C4.60819 20.7698 2.86991 20.1745 2.5 19L2.5 4" stroke="#00AEB5" stroke-width="1.5" stroke-linecap="round"/>
<path d="M15.5 6V4" stroke="#00AEB5" stroke-width="1.5" stroke-linecap="round"/>
</svg>
