<svg width="25" height="24" viewBox="0 0 25 24" fill="none" xmlns="http://www.w3.org/2000/svg">
<path d="M8.5 2V10" stroke="#00AEB5" stroke-width="1.5" stroke-linecap="round"/>
<path d="M16.5 2V10" stroke="#00AEB5" stroke-width="1.5" stroke-linecap="round"/>
<path d="M2.5 5.92586C2.5 4.86687 2.5 4.33738 2.65278 3.90965C2.95111 3.07449 3.65617 2.41924 4.55482 2.14199C5.01506 2 5.58481 2 6.7243 2H18.2757C19.4152 2 19.9849 2 20.4452 2.14199C21.3438 2.41924 22.0489 3.07449 22.3472 3.90965C22.5 4.33738 22.5 4.86687 22.5 5.92586C22.5 6.37737 22.5 6.60312 22.4495 6.80803C22.3513 7.20614 22.1148 7.56313 21.7765 7.82381C21.6023 7.95798 21.3854 8.05961 20.9516 8.26288L14.3007 11.3791C13.4174 11.793 12.9757 12 12.5 12C12.0243 12 11.5827 11.793 10.6993 11.3791L4.04838 8.26288C3.61456 8.05961 3.39765 7.95798 3.22352 7.82381C2.88519 7.56313 2.64867 7.20614 2.55052 6.80803C2.5 6.60312 2.5 6.37737 2.5 5.92586Z" stroke="#00AEB5" stroke-width="1.5" stroke-linecap="round"/>
<path d="M11.0292 13.6376C11.7478 13.2125 12.1071 13 12.5 13C12.8929 13 13.2522 13.2125 13.9708 13.6376L14.9708 14.2292C15.7167 14.6704 16.0896 14.891 16.2948 15.26C16.5 15.6289 16.5 16.0789 16.5 16.979V18.021C16.5 18.9211 16.5 19.3711 16.2948 19.74C16.0896 20.109 15.7167 20.3296 14.9708 20.7708L13.9708 21.3624C13.2522 21.7875 12.8929 22 12.5 22C12.1071 22 11.7478 21.7875 11.0292 21.3624L10.0292 20.7708C9.28332 20.3296 8.91037 20.109 8.70519 19.74C8.5 19.3711 8.5 18.9211 8.5 18.021V16.979C8.5 16.0789 8.5 15.6289 8.70519 15.26C8.91037 14.891 9.28332 14.6704 10.0292 14.2292L11.0292 13.6376Z" stroke="#00AEB5" stroke-width="1.5" stroke-linejoin="round"/>
</svg>
