<svg width="25" height="24" viewBox="0 0 25 24" fill="none" xmlns="http://www.w3.org/2000/svg">
<path d="M21.8 10H3.8M16.8 2V6M8.8 2V6M8.6 22H17C18.6802 22 19.5202 22 20.162 21.673C20.7265 21.3854 21.1854 20.9265 21.473 20.362C21.8 19.7202 21.8 18.8802 21.8 17.2V8.8C21.8 7.11984 21.8 6.27976 21.473 5.63803C21.1854 5.07354 20.7265 4.6146 20.162 4.32698C19.5202 4 18.6802 4 17 4H8.6C6.91984 4 6.07976 4 5.43803 4.32698C4.87354 4.6146 4.4146 5.07354 4.12698 5.63803C3.8 6.27976 3.8 7.11984 3.8 8.8V17.2C3.8 18.8802 3.8 19.7202 4.12698 20.362C4.4146 20.9265 4.87354 21.3854 5.43803 21.673C6.07976 22 6.91984 22 8.6 22Z" stroke="#00343F" stroke-width="2" stroke-linecap="round" stroke-linejoin="round"/>
</svg>
