<svg width="25" height="24" viewBox="0 0 25 24" fill="none" xmlns="http://www.w3.org/2000/svg">
<path d="M8.39999 13V17M16.4 11V17M12.4 7V17M8.19999 21H16.6C18.2802 21 19.1202 21 19.762 20.673C20.3265 20.3854 20.7854 19.9265 21.073 19.362C21.4 18.7202 21.4 17.8802 21.4 16.2V7.8C21.4 6.11984 21.4 5.27976 21.073 4.63803C20.7854 4.07354 20.3265 3.6146 19.762 3.32698C19.1202 3 18.2802 3 16.6 3H8.19999C6.51984 3 5.67976 3 5.03802 3.32698C4.47354 3.6146 4.01459 4.07354 3.72697 4.63803C3.39999 5.27976 3.39999 6.11984 3.39999 7.8V16.2C3.39999 17.8802 3.39999 18.7202 3.72697 19.362C4.01459 19.9265 4.47354 20.3854 5.03802 20.673C5.67976 21 6.51984 21 8.19999 21Z" stroke="#00343F" stroke-width="2" stroke-linecap="round" stroke-linejoin="round"/>
</svg>
