<svg width="25" height="24" viewBox="0 0 25 24" fill="none" xmlns="http://www.w3.org/2000/svg">
<path d="M12.2 13C12.7523 13 13.2 12.5523 13.2 12C13.2 11.4477 12.7523 11 12.2 11C11.6477 11 11.2 11.4477 11.2 12C11.2 12.5523 11.6477 13 12.2 13Z" stroke="#00343F" stroke-width="2" stroke-linecap="round" stroke-linejoin="round"/>
<path d="M12.2 6C12.7523 6 13.2 5.55228 13.2 5C13.2 4.44772 12.7523 4 12.2 4C11.6477 4 11.2 4.44772 11.2 5C11.2 5.55228 11.6477 6 12.2 6Z" stroke="#00343F" stroke-width="2" stroke-linecap="round" stroke-linejoin="round"/>
<path d="M12.2 20C12.7523 20 13.2 19.5523 13.2 19C13.2 18.4477 12.7523 18 12.2 18C11.6477 18 11.2 18.4477 11.2 19C11.2 19.5523 11.6477 20 12.2 20Z" stroke="#00343F" stroke-width="2" stroke-linecap="round" stroke-linejoin="round"/>
</svg>
