<svg width="24" height="24" viewBox="0 0 24 24" fill="none" xmlns="http://www.w3.org/2000/svg">
<rect width="24" height="24" fill="#1E1E1E"/>
<path d="M-158 -1079C-158 -1081.21 -156.209 -1083 -154 -1083H4315C4317.21 -1083 4319 -1081.21 4319 -1079V1520C4319 1522.21 4317.21 1524 4315 1524H-154C-156.209 1524 -158 1522.21 -158 1520V-1079Z" fill="#404040"/>
<path d="M-154 -1082H4315V-1084H-154V-1082ZM4318 -1079V1520H4320V-1079H4318ZM4315 1523H-154V1525H4315V1523ZM-157 1520V-1079H-159V1520H-157ZM-154 1523C-155.657 1523 -157 1521.66 -157 1520H-159C-159 1522.76 -156.761 1525 -154 1525V1523ZM4318 1520C4318 1521.66 4316.66 1523 4315 1523V1525C4317.76 1525 4320 1522.76 4320 1520H4318ZM4315 -1082C4316.66 -1082 4318 -1080.66 4318 -1079H4320C4320 -1081.76 4317.76 -1084 4315 -1084V-1082ZM-154 -1084C-156.761 -1084 -159 -1081.76 -159 -1079H-157C-157 -1080.66 -155.657 -1082 -154 -1082V-1084Z" fill="white" fill-opacity="0.1"/>
<g clip-path="url(#clip0_0_1)">
<rect x="-20" y="-884" width="375" height="1182" rx="8" fill="#EEF5F5"/>
<rect width="375" height="1083" transform="translate(-20 -884)" fill="#EEF5F5"/>
<mask id="path-4-inside-1_0_1" fill="white">
<path d="M0 -16H335V40H0V-16Z"/>
</mask>
<path d="M335 39.5H0V40.5H335V39.5Z" fill="#7BA0A3" mask="url(#path-4-inside-1_0_1)"/>
<path d="M18 8H19C20.0609 8 21.0783 8.42143 21.8284 9.17157C22.5786 9.92172 23 10.9391 23 12C23 13.0609 22.5786 14.0783 21.8284 14.8284C21.0783 15.5786 20.0609 16 19 16H18M18 8H2V17C2 18.0609 2.42143 19.0783 3.17157 19.8284C3.92172 20.5786 4.93913 21 6 21H14C15.0609 21 16.0783 20.5786 16.8284 19.8284C17.5786 19.0783 18 18.0609 18 17V8ZM6 1V4M10 1V4M14 1V4" stroke="#00AEB5" stroke-width="2" stroke-linecap="round" stroke-linejoin="round"/>
</g>
<defs>
<clipPath id="clip0_0_1">
<rect x="-20" y="-884" width="375" height="1182" rx="8" fill="white"/>
</clipPath>
</defs>
</svg>
