<svg width="24" height="24" viewBox="0 0 24 24" fill="none" xmlns="http://www.w3.org/2000/svg">
<rect width="24" height="24" fill="#1E1E1E"/>
<path d="M-158 -1151C-158 -1153.21 -156.209 -1155 -154 -1155H4315C4317.21 -1155 4319 -1153.21 4319 -1151V1448C4319 1450.21 4317.21 1452 4315 1452H-154C-156.209 1452 -158 1450.21 -158 1448V-1151Z" fill="#404040"/>
<path d="M-154 -1154H4315V-1156H-154V-1154ZM4318 -1151V1448H4320V-1151H4318ZM4315 1451H-154V1453H4315V1451ZM-157 1448V-1151H-159V1448H-157ZM-154 1451C-155.657 1451 -157 1449.66 -157 1448H-159C-159 1450.76 -156.761 1453 -154 1453V1451ZM4318 1448C4318 1449.66 4316.66 1451 4315 1451V1453C4317.76 1453 4320 1450.76 4320 1448H4318ZM4315 -1154C4316.66 -1154 4318 -1152.66 4318 -1151H4320C4320 -1153.76 4317.76 -1156 4315 -1156V-1154ZM-154 -1156C-156.761 -1156 -159 -1153.76 -159 -1151H-157C-157 -1152.66 -155.657 -1154 -154 -1154V-1156Z" fill="white" fill-opacity="0.1"/>
<g clip-path="url(#clip0_0_1)">
<rect x="-20" y="-956" width="375" height="1182" rx="8" fill="#EEF5F5"/>
<rect width="375" height="1083" transform="translate(-20 -956)" fill="#EEF5F5"/>
<mask id="path-4-inside-1_0_1" fill="white">
<path d="M0 -16H335V40H0V-16Z"/>
</mask>
<path d="M335 39.5H0V40.5H335V39.5Z" fill="#7BA0A3" mask="url(#path-4-inside-1_0_1)"/>
<path d="M21 15V19C21 19.5304 20.7893 20.0391 20.4142 20.4142C20.0391 20.7893 19.5304 21 19 21H5C4.46957 21 3.96086 20.7893 3.58579 20.4142C3.21071 20.0391 3 19.5304 3 19V15M7 10L12 15M12 15L17 10M12 15V3" stroke="#00AEB5" stroke-width="2" stroke-linecap="round" stroke-linejoin="round"/>
</g>
<defs>
<clipPath id="clip0_0_1">
<rect x="-20" y="-956" width="375" height="1182" rx="8" fill="white"/>
</clipPath>
</defs>
</svg>
