<svg width="24" height="24" viewBox="0 0 24 24" fill="none" xmlns="http://www.w3.org/2000/svg">
<rect width="24" height="24" fill="#1E1E1E"/>
<path d="M-158 -611C-158 -613.209 -156.209 -615 -154 -615H4315C4317.21 -615 4319 -613.209 4319 -611V1988C4319 1990.21 4317.21 1992 4315 1992H-154C-156.209 1992 -158 1990.21 -158 1988V-611Z" fill="#404040"/>
<path d="M-154 -614H4315V-616H-154V-614ZM4318 -611V1988H4320V-611H4318ZM4315 1991H-154V1993H4315V1991ZM-157 1988V-611H-159V1988H-157ZM-154 1991C-155.657 1991 -157 1989.66 -157 1988H-159C-159 1990.76 -156.761 1993 -154 1993V1991ZM4318 1988C4318 1989.66 4316.66 1991 4315 1991V1993C4317.76 1993 4320 1990.76 4320 1988H4318ZM4315 -614C4316.66 -614 4318 -612.657 4318 -611H4320C4320 -613.761 4317.76 -616 4315 -616V-614ZM-154 -616C-156.761 -616 -159 -613.761 -159 -611H-157C-157 -612.657 -155.657 -614 -154 -614V-616Z" fill="white" fill-opacity="0.1"/>
<g clip-path="url(#clip0_0_1)">
<rect x="-20" y="-416" width="375" height="1182" rx="8" fill="#EEF5F5"/>
<rect width="375" height="1083" transform="translate(-20 -416)" fill="#EEF5F5"/>
<mask id="path-4-inside-1_0_1" fill="white">
<path d="M0 -16H335V161H0V-16Z"/>
</mask>
<path d="M335 160.5H0V161.5H335V160.5Z" fill="#7BA0A3" mask="url(#path-4-inside-1_0_1)"/>
<path d="M20 12V22H4V12M12 22V7M12 7H7.5C6.83696 7 6.20107 6.73661 5.73223 6.26777C5.26339 5.79893 5 5.16304 5 4.5C5 3.83696 5.26339 3.20107 5.73223 2.73223C6.20107 2.26339 6.83696 2 7.5 2C11 2 12 7 12 7ZM12 7H16.5C17.163 7 17.7989 6.73661 18.2678 6.26777C18.7366 5.79893 19 5.16304 19 4.5C19 3.83696 18.7366 3.20107 18.2678 2.73223C17.7989 2.26339 17.163 2 16.5 2C13 2 12 7 12 7ZM2 7H22V12H2V7Z" stroke="#00AEB5" stroke-width="2" stroke-linecap="round" stroke-linejoin="round"/>
</g>
<defs>
<clipPath id="clip0_0_1">
<rect x="-20" y="-416" width="375" height="1182" rx="8" fill="white"/>
</clipPath>
</defs>
</svg>
