<svg width="24" height="24" viewBox="0 0 24 24" fill="none" xmlns="http://www.w3.org/2000/svg">
<rect width="24" height="24" fill="#1E1E1E"/>
<path d="M-158 -539C-158 -541.209 -156.209 -543 -154 -543H4315C4317.21 -543 4319 -541.209 4319 -539V2060C4319 2062.21 4317.21 2064 4315 2064H-154C-156.209 2064 -158 2062.21 -158 2060V-539Z" fill="#404040"/>
<path d="M-154 -542H4315V-544H-154V-542ZM4318 -539V2060H4320V-539H4318ZM4315 2063H-154V2065H4315V2063ZM-157 2060V-539H-159V2060H-157ZM-154 2063C-155.657 2063 -157 2061.66 -157 2060H-159C-159 2062.76 -156.761 2065 -154 2065V2063ZM4318 2060C4318 2061.66 4316.66 2063 4315 2063V2065C4317.76 2065 4320 2062.76 4320 2060H4318ZM4315 -542C4316.66 -542 4318 -540.657 4318 -539H4320C4320 -541.761 4317.76 -544 4315 -544V-542ZM-154 -544C-156.761 -544 -159 -541.761 -159 -539H-157C-157 -540.657 -155.657 -542 -154 -542V-544Z" fill="white" fill-opacity="0.1"/>
<g clip-path="url(#clip0_0_1)">
<rect x="-20" y="-344" width="375" height="1182" rx="8" fill="#EEF5F5"/>
<rect width="375" height="1083" transform="translate(-20 -344)" fill="#EEF5F5"/>
<mask id="path-4-inside-1_0_1" fill="white">
<path d="M0 -16H335V40H0V-16Z"/>
</mask>
<path d="M335 39.5H0V40.5H335V39.5Z" fill="#7BA0A3" mask="url(#path-4-inside-1_0_1)"/>
<path d="M22 12H16L14 15H10L8 12H2M22 12V18C22 18.5304 21.7893 19.0391 21.4142 19.4142C21.0391 19.7893 20.5304 20 20 20H4C3.46957 20 2.96086 19.7893 2.58579 19.4142C2.21071 19.0391 2 18.5304 2 18V12M22 12L18.55 5.11C18.3844 4.77679 18.1292 4.49637 17.813 4.30028C17.4967 4.10419 17.1321 4.0002 16.76 4H7.24C6.86792 4.0002 6.50326 4.10419 6.18704 4.30028C5.87083 4.49637 5.61558 4.77679 5.45 5.11L2 12" stroke="#00AEB5" stroke-width="2" stroke-linecap="round" stroke-linejoin="round"/>
</g>
<defs>
<clipPath id="clip0_0_1">
<rect x="-20" y="-344" width="375" height="1182" rx="8" fill="white"/>
</clipPath>
</defs>
</svg>
