<svg width="24" height="24" viewBox="0 0 24 24" fill="none" xmlns="http://www.w3.org/2000/svg">
<rect width="24" height="24" fill="#1E1E1E"/>
<path d="M-158 -395C-158 -397.209 -156.209 -399 -154 -399H4315C4317.21 -399 4319 -397.209 4319 -395V2204C4319 2206.21 4317.21 2208 4315 2208H-154C-156.209 2208 -158 2206.21 -158 2204V-395Z" fill="#404040"/>
<path d="M-154 -398H4315V-400H-154V-398ZM4318 -395V2204H4320V-395H4318ZM4315 2207H-154V2209H4315V2207ZM-157 2204V-395H-159V2204H-157ZM-154 2207C-155.657 2207 -157 2205.66 -157 2204H-159C-159 2206.76 -156.761 2209 -154 2209V2207ZM4318 2204C4318 2205.66 4316.66 2207 4315 2207V2209C4317.76 2209 4320 2206.76 4320 2204H4318ZM4315 -398C4316.66 -398 4318 -396.657 4318 -395H4320C4320 -397.761 4317.76 -400 4315 -400V-398ZM-154 -400C-156.761 -400 -159 -397.761 -159 -395H-157C-157 -396.657 -155.657 -398 -154 -398V-400Z" fill="white" fill-opacity="0.1"/>
<g clip-path="url(#clip0_0_1)">
<rect x="-20" y="-200" width="375" height="1182" rx="8" fill="#EEF5F5"/>
<rect width="375" height="1083" transform="translate(-20 -200)" fill="#EEF5F5"/>
<mask id="path-4-inside-1_0_1" fill="white">
<path d="M0 -16H335V40H0V-16Z"/>
</mask>
<path d="M335 39.5H0V40.5H335V39.5Z" fill="#7BA0A3" mask="url(#path-4-inside-1_0_1)"/>
<path d="M15.5 7.5L19 4M21 2L19 4L21 2ZM11.39 11.61C11.9064 12.1195 12.3168 12.726 12.5978 13.3948C12.8787 14.0635 13.0246 14.7813 13.0271 15.5066C13.0295 16.232 12.8884 16.9507 12.6119 17.6213C12.3355 18.2919 11.9291 18.9012 11.4162 19.4141C10.9033 19.9271 10.294 20.3334 9.62333 20.6099C8.95271 20.8864 8.23403 21.0275 7.50866 21.025C6.7833 21.0226 6.06557 20.8767 5.39682 20.5958C4.72807 20.3148 4.1215 19.9043 3.61203 19.388C2.61016 18.3507 2.05579 16.9614 2.06832 15.5193C2.08085 14.0772 2.65928 12.6977 3.67903 11.678C4.69877 10.6583 6.07824 10.0798 7.52032 10.0673C8.96241 10.0548 10.3517 10.6091 11.389 11.611L11.39 11.61ZM11.39 11.61L15.5 7.5L11.39 11.61ZM15.5 7.5L18.5 10.5L22 7L19 4L15.5 7.5Z" stroke="#00AEB5" stroke-width="2" stroke-linecap="round" stroke-linejoin="round"/>
</g>
<defs>
<clipPath id="clip0_0_1">
<rect x="-20" y="-200" width="375" height="1182" rx="8" fill="white"/>
</clipPath>
</defs>
</svg>
