<svg width="24" height="24" viewBox="0 0 24 24" fill="none" xmlns="http://www.w3.org/2000/svg">
<rect width="24" height="24" fill="#1E1E1E"/>
<path d="M-158 -1223C-158 -1225.21 -156.209 -1227 -154 -1227H4315C4317.21 -1227 4319 -1225.21 4319 -1223V1376C4319 1378.21 4317.21 1380 4315 1380H-154C-156.209 1380 -158 1378.21 -158 1376V-1223Z" fill="#404040"/>
<path d="M-154 -1226H4315V-1228H-154V-1226ZM4318 -1223V1376H4320V-1223H4318ZM4315 1379H-154V1381H4315V1379ZM-157 1376V-1223H-159V1376H-157ZM-154 1379C-155.657 1379 -157 1377.66 -157 1376H-159C-159 1378.76 -156.761 1381 -154 1381V1379ZM4318 1376C4318 1377.66 4316.66 1379 4315 1379V1381C4317.76 1381 4320 1378.76 4320 1376H4318ZM4315 -1226C4316.66 -1226 4318 -1224.66 4318 -1223H4320C4320 -1225.76 4317.76 -1228 4315 -1228V-1226ZM-154 -1228C-156.761 -1228 -159 -1225.76 -159 -1223H-157C-157 -1224.66 -155.657 -1226 -154 -1226V-1228Z" fill="white" fill-opacity="0.1"/>
<g clip-path="url(#clip0_0_1)">
<rect x="-20" y="-1028" width="375" height="1182" rx="8" fill="#EEF5F5"/>
<rect width="375" height="1083" transform="translate(-20 -1028)" fill="#EEF5F5"/>
<mask id="path-4-inside-1_0_1" fill="white">
<path d="M0 -16H335V40H0V-16Z"/>
</mask>
<path d="M335 39.5H0V40.5H335V39.5Z" fill="#7BA0A3" mask="url(#path-4-inside-1_0_1)"/>
<path d="M9 21H5C4.46957 21 3.96086 20.7893 3.58579 20.4142C3.21071 20.0391 3 19.5304 3 19V5C3 4.46957 3.21071 3.96086 3.58579 3.58579C3.96086 3.21071 4.46957 3 5 3H9M16 17L21 12M21 12L16 7M21 12H9" stroke="#00AEB5" stroke-width="2" stroke-linecap="round" stroke-linejoin="round"/>
</g>
<defs>
<clipPath id="clip0_0_1">
<rect x="-20" y="-1028" width="375" height="1182" rx="8" fill="white"/>
</clipPath>
</defs>
</svg>
