<svg width="24" height="24" viewBox="0 0 24 24" fill="none" xmlns="http://www.w3.org/2000/svg">
<rect width="24" height="24" fill="#1E1E1E"/>
<path d="M-158 -804C-158 -806.209 -156.209 -808 -154 -808H4315C4317.21 -808 4319 -806.209 4319 -804V1795C4319 1797.21 4317.21 1799 4315 1799H-154C-156.209 1799 -158 1797.21 -158 1795V-804Z" fill="#404040"/>
<path d="M-154 -807H4315V-809H-154V-807ZM4318 -804V1795H4320V-804H4318ZM4315 1798H-154V1800H4315V1798ZM-157 1795V-804H-159V1795H-157ZM-154 1798C-155.657 1798 -157 1796.66 -157 1795H-159C-159 1797.76 -156.761 1800 -154 1800V1798ZM4318 1795C4318 1796.66 4316.66 1798 4315 1798V1800C4317.76 1800 4320 1797.76 4320 1795H4318ZM4315 -807C4316.66 -807 4318 -805.657 4318 -804H4320C4320 -806.761 4317.76 -809 4315 -809V-807ZM-154 -809C-156.761 -809 -159 -806.761 -159 -804H-157C-157 -805.657 -155.657 -807 -154 -807V-809Z" fill="white" fill-opacity="0.1"/>
<g clip-path="url(#clip0_0_1)">
<rect x="-20" y="-609" width="375" height="1182" rx="8" fill="#EEF5F5"/>
<rect width="375" height="1083" transform="translate(-20 -609)" fill="#EEF5F5"/>
<mask id="path-4-inside-1_0_1" fill="white">
<path d="M0 -16H335V243H0V-16Z"/>
</mask>
<path d="M335 242.5H0V243.5H335V242.5Z" fill="#7BA0A3" mask="url(#path-4-inside-1_0_1)"/>
<path d="M17 21V19C17 17.9391 16.5786 16.9217 15.8284 16.1716C15.0783 15.4214 14.0609 15 13 15H5C3.93913 15 2.92172 15.4214 2.17157 16.1716C1.42143 16.9217 1 17.9391 1 19V21M23 21V19C22.9993 18.1137 22.7044 17.2528 22.1614 16.5523C21.6184 15.8519 20.8581 15.3516 20 15.13M16 3.13C16.8604 3.3503 17.623 3.8507 18.1676 4.55231C18.7122 5.25392 19.0078 6.11683 19.0078 7.005C19.0078 7.89317 18.7122 8.75608 18.1676 9.45769C17.623 10.1593 16.8604 10.6597 16 10.88M13 7C13 9.20914 11.2091 11 9 11C6.79086 11 5 9.20914 5 7C5 4.79086 6.79086 3 9 3C11.2091 3 13 4.79086 13 7Z" stroke="#00AEB5" stroke-width="2" stroke-linecap="round" stroke-linejoin="round"/>
</g>
<defs>
<clipPath id="clip0_0_1">
<rect x="-20" y="-609" width="375" height="1182" rx="8" fill="white"/>
</clipPath>
</defs>
</svg>
