<svg width="24" height="24" viewBox="0 0 24 24" fill="none" xmlns="http://www.w3.org/2000/svg">
<g clip-path="url(#clip0_53_6391)">
<path d="M23.8904 4.84614C23.8904 5.60174 23.939 6.3634 23.8783 7.11596C23.763 8.54825 23.0499 9.28261 21.6267 9.4313C20.953 9.50109 20.2611 9.5102 19.5875 9.4404C18.049 9.27654 17.1993 8.47239 17.0142 6.83982C16.9262 6.07209 16.7077 5.72919 15.9339 5.79898C15.7094 5.82022 15.4787 5.79291 15.2542 5.80505C14.5836 5.83843 13.7915 5.6867 13.2848 5.99319C12.9571 6.19347 13.0542 7.07651 12.9328 7.647C12.8873 7.86245 12.7993 8.08397 12.6748 8.26301C12.514 8.4997 12.1954 8.9124 12.1195 8.87902C11.81 8.73336 11.4701 8.49667 11.3275 8.20232C11.1424 7.81694 11.1212 7.34659 11.0483 6.90962C11.0119 6.6881 11.106 6.37251 10.9846 6.24506C10.1167 5.32863 9.00005 5.98712 8.00472 5.8354C7.53134 5.76257 7.03671 5.87484 7.06402 6.49389C7.12168 7.77142 6.65133 8.69695 5.41325 9.12785C4.02344 9.61034 2.62452 9.6862 1.24078 9.07019C0.44574 8.71515 0.178702 7.99294 0.148357 7.24038C0.0846319 5.65333 0.0573212 4.0602 0.154426 2.47619C0.242427 1.053 1.18313 0.0819505 2.62756 0.0151912C3.65626 -0.0333611 4.76386 0.106227 5.71973 0.470369C6.69685 0.84058 7.05795 1.82073 7.04885 2.89798C7.04278 3.49578 7.50403 3.61413 7.99259 3.59289C9.63729 3.51399 11.2699 4.14214 12.9297 3.6293C13.3455 3.50185 13.831 3.59289 14.2862 3.61109C15.0296 3.64447 15.9461 3.98131 16.4589 3.66268C16.9262 3.37137 16.911 2.35784 17.1902 1.69935C17.4937 0.986237 17.9488 0.37023 18.8076 0.267056C19.6998 0.157813 20.6071 -0.0576373 21.4871 0.0212602C22.9012 0.151744 23.766 1.15314 23.8783 2.58239C23.9359 3.33495 23.8874 4.09358 23.8904 4.85221V4.84614ZM21.9726 4.68228C21.9726 4.68228 21.9665 4.68228 21.9635 4.68228C21.9635 4.07538 22.009 3.46544 21.9392 2.86764C21.9119 2.63398 21.6661 2.30929 21.4507 2.23646C19.7635 1.669 18.9169 2.2668 18.8956 3.99951C18.8865 4.83401 18.8471 5.67153 18.9199 6.49996C18.9472 6.81858 19.1748 7.26162 19.4358 7.3921C20.8225 8.0779 21.9332 7.36479 21.9726 5.82326C21.9817 5.44394 21.9726 5.06463 21.9726 4.68531V4.68228ZM5.10979 4.89166H5.11586C5.11586 4.51538 5.1189 4.1391 5.11586 3.76282C5.1017 2.69062 4.55953 2.15453 3.48936 2.15453C2.08438 2.15453 2.07224 2.15453 2.03886 3.48364C2.01459 4.3849 2.051 5.28918 2.03279 6.19043C2.02065 6.79127 2.20576 7.10382 2.86122 7.27983C4.74262 7.78963 5.09159 7.56204 5.11586 5.56532C5.11586 5.34077 5.11586 5.11318 5.11586 4.88863L5.10979 4.89166Z" fill="#002D36"/>
<path d="M0.139735 19.4543C0.139735 18.6229 0.0638724 17.7823 0.154908 16.9599C0.312703 15.5398 1.11988 14.8024 2.5279 14.6932C3.04377 14.6537 3.56874 14.7326 4.09068 14.7356C5.96601 14.7417 6.64878 15.2212 6.98864 17.1268C7.12216 17.8855 7.33154 18.2162 8.09017 18.1677C8.46645 18.1434 8.84577 18.1555 9.22508 18.1737C10.269 18.2243 10.8748 17.7287 11.0428 16.6868C11.0792 16.4653 11.0549 16.1649 11.1884 16.0435C11.4949 15.7643 11.8621 15.4609 12.2414 15.4002C12.4204 15.3698 12.7997 15.8402 12.8877 16.1406C13.0091 16.5624 12.9302 17.0419 12.9666 17.494C13.0182 18.1343 13.3004 18.4681 14.0075 18.2708C14.2927 18.1919 14.6022 18.1798 14.9027 18.1798C15.4883 18.1768 16.247 18.4256 16.6141 18.1495C16.9752 17.8733 16.8903 17.0601 17.0875 16.5139C17.4456 15.5307 18.0495 14.8752 19.2208 14.7903C22.7135 14.5384 24.0578 14.7326 23.8879 18.723C23.8454 19.7062 23.9304 20.6924 23.8636 21.6725C23.7726 23.0229 23.3538 23.5175 22.0216 23.8088C21.2964 23.9666 20.5256 24.0334 19.7852 23.9939C18.0616 23.8999 17.2332 23.1534 17.0117 21.3812C16.9146 20.5983 16.6505 20.3525 15.898 20.3616C13.3247 20.395 10.7514 20.4163 8.18121 20.3738C7.27389 20.3586 6.99168 20.6954 7.01292 21.5603C7.04933 22.9379 6.10256 23.5509 4.94338 23.8695C4.44572 24.0061 3.8995 23.997 3.37757 24.0031C0.661672 24.0243 -0.0635774 22.8317 0.115459 20.8198C0.154908 20.3707 0.121528 19.9125 0.121528 19.4573H0.136701L0.139735 19.4543ZM21.9701 19.248H21.9761C21.9761 19.0204 21.9761 18.7928 21.9761 18.5652C21.961 16.6747 21.961 16.7081 20.0917 16.7354C19.2633 16.7475 18.8202 16.9296 18.8809 17.8824C18.9507 18.9384 18.8748 20.0036 18.8961 21.0656C18.9082 21.6786 19.1722 21.9214 19.8732 21.9851C21.8396 22.1702 21.9397 22.1429 21.967 20.1583C21.9731 19.8549 21.967 19.5514 21.967 19.248H21.9701ZM5.11028 19.3208C5.11028 19.3208 5.11028 19.3208 5.11331 19.3208C5.11331 18.7958 5.08297 18.2708 5.11938 17.7489C5.18007 16.9296 4.7431 16.705 4.02999 16.7414C3.7326 16.7566 3.42915 16.7566 3.13177 16.7323C2.40349 16.6717 2.00293 16.9266 2.02417 17.7277C2.05452 18.7746 2.03327 19.8245 2.03327 20.8714C2.03327 21.3752 2.20017 21.6574 2.75852 21.797C4.822 22.3128 5.09207 22.1247 5.11028 19.9945C5.11028 19.7699 5.11028 19.5453 5.11028 19.3208Z" fill="#002D36"/>
<path d="M13.2641 14.5232C12.9788 14.3199 12.5297 13.7646 12.0563 13.7403C11.586 13.716 11.1217 14.3563 10.5998 14.4777C9.89273 14.6416 9.3101 13.798 9.76831 13.1304C10.2599 12.4112 10.6908 11.9591 9.79866 11.2429C9.62266 11.1003 9.74707 10.1596 9.95038 10.0716C10.3479 9.89559 11.1065 9.85918 11.3402 10.1141C11.853 10.6664 12.0594 10.9486 12.6208 10.1505C12.8028 9.88952 13.6889 9.81062 14.0075 10.02C14.5689 10.3933 14.5264 11.1822 14.0166 11.5615C13.1821 12.1775 13.7344 12.3384 14.1259 12.8451C14.6994 13.5916 14.2715 14.5232 13.2671 14.5263L13.2641 14.5232Z" fill="#002D36"/>
</g>
<defs>
<clipPath id="clip0_53_6391">
<rect width="23.8179" height="24" fill="white" transform="translate(0.0908203)"/>
</clipPath>
</defs>
</svg>
