<svg width="24" height="24" viewBox="0 0 24 24" fill="none" xmlns="http://www.w3.org/2000/svg">
<g clip-path="url(#clip0_53_6397)">
<path d="M23.8522 8.09656C23.7039 9.30754 24.3273 10.6833 23.2646 11.7927C22.99 12.0782 22.8883 12.589 22.3968 12.5808C20.8453 12.5533 19.5767 13.3551 18.2257 13.9263C17.4266 14.2641 16.7181 13.8494 16.1332 13.3991C15.4192 12.8526 14.6888 12.7757 13.8348 12.8307C12.676 12.9075 11.5062 12.8773 10.3446 12.8444C9.31489 12.8142 8.32359 12.7785 7.44487 13.4952C6.90666 13.9345 6.20917 14.1927 5.51718 13.9126C4.21833 13.3853 3.04304 12.5258 1.5602 12.5011C1.44762 12.5011 1.33229 12.3611 1.22794 12.2732C-0.188995 11.0512 -0.482817 6.89381 0.892927 5.68008C2.04625 4.66132 3.6197 4.35926 5.09155 4.3318C6.67874 4.30159 7.90071 3.79907 9.20231 2.9231C12.838 0.479165 16.6192 0.786717 20.3538 2.8215C20.5323 2.91761 20.6668 3.13454 20.8508 3.17848C23.5007 3.79358 24.3904 5.49061 23.8522 8.09656ZM22.0948 8.03065C22.5176 6.46818 21.9437 5.18031 19.9694 4.69976C19.7112 4.6366 19.4696 4.48832 19.2334 4.35651C15.6087 2.30525 12.1845 2.73363 8.9689 5.24072C8.22474 5.82287 7.48881 6.13317 6.54144 6.03706C5.21787 5.90525 3.97119 6.26772 2.73824 6.72081C2.09018 6.95971 1.5959 7.32493 1.68927 8.03889C1.79636 8.84347 1.99956 9.64804 2.27965 10.4087C2.42519 10.8069 2.82611 11.0567 3.16936 10.4746C3.34236 10.1808 3.49064 9.86498 3.69933 9.60136C5.10254 7.83294 7.0824 7.79724 8.23572 9.70846C8.8975 10.8069 9.69659 11.0046 10.7758 10.9661C11.5282 10.9387 12.2833 10.9194 13.0357 10.9551C14.1204 11.0073 14.892 10.8233 15.5401 9.69747C16.6275 7.80548 18.7419 7.84392 20.0874 9.59038C20.2522 9.80456 20.4115 10.0435 20.4993 10.2961C20.6613 10.7657 20.9579 10.9359 21.433 10.8645C21.9465 10.7876 22.0865 10.4361 22.092 9.98855C22.0975 9.43935 22.092 8.89289 22.092 8.03065H22.0948ZM18.7968 11.1638C18.7694 10.5734 18.4563 10.2604 17.9291 10.189C17.2289 10.0929 16.9186 10.5899 16.8581 11.1364C16.8005 11.6499 17.1932 12.0563 17.7067 12.081C18.2943 12.1085 18.7117 11.7707 18.7996 11.1638H18.7968ZM6.97805 11.1666C6.82153 10.708 6.6348 10.1835 5.95654 10.1835C5.42107 10.1835 5.04213 10.4938 4.98721 11.0403C4.91856 11.7185 5.3689 12.059 5.95654 12.1085C6.49201 12.1551 6.80506 11.7707 6.97531 11.1693L6.97805 11.1666Z" fill="#002D36"/>
<path d="M12.4065 22.7601C10.0093 22.7601 7.61476 22.7683 5.2175 22.7546C4.47608 22.7491 3.41613 22.8178 3.34199 21.9583C3.24313 20.8297 4.37723 20.923 5.16807 20.8928C6.26098 20.8489 7.35938 20.8461 8.45503 20.8873C9.4024 20.9258 9.8802 20.5935 9.77586 19.5885C9.73192 19.1821 9.7429 18.7674 9.77036 18.3583C9.81979 17.6086 9.60286 17.1967 8.73512 17.2818C8.12826 17.3423 7.50492 17.2709 6.88981 17.2352C6.34611 17.205 5.71453 17.2407 5.67608 16.4635C5.63215 15.5711 6.34336 15.5711 6.94748 15.4942C7.21659 15.4612 7.49393 15.4805 7.76853 15.4777C10.3031 15.4722 12.8349 15.4667 15.3694 15.4667C15.8473 15.4667 16.3333 15.4475 16.8056 15.5107C17.4015 15.5903 18.1209 15.6095 18.0825 16.4937C18.0468 17.2681 17.3713 17.1336 16.877 17.3066C16.2427 17.529 15.3475 16.8178 15.007 17.6086C14.7296 18.2539 14.8779 19.0805 14.834 19.8274C14.7846 20.6622 15.2761 20.8818 15.9928 20.8736C17.0198 20.8626 18.0523 20.805 19.071 20.8791C19.9251 20.9423 21.3612 20.4205 21.309 21.8512C21.2596 23.2242 19.8372 22.6997 18.9832 22.7244C16.7946 22.7931 14.6006 22.7464 12.412 22.7464V22.7546L12.4065 22.7601ZM11.5443 18.9844C11.5443 18.9844 11.558 18.9844 11.5662 18.9844C11.5662 19.3935 11.5388 19.8054 11.5717 20.2118C11.6157 20.7418 12.0111 20.8544 12.4505 20.8269C12.8541 20.7995 13.0381 20.5194 13.0463 20.1377C13.0628 19.4539 13.0628 18.7729 13.0601 18.0892C13.0601 17.6361 12.9228 17.2901 12.3791 17.2709C11.742 17.2461 11.547 17.6114 11.5443 18.1661C11.5443 18.4379 11.5443 18.7125 11.5443 18.9871V18.9844Z" fill="#002D36"/>
</g>
<defs>
<clipPath id="clip0_53_6397">
<rect width="24" height="21.6137" fill="white" transform="translate(0 1.19312)"/>
</clipPath>
</defs>
</svg>
