<svg width="24" height="24" viewBox="0 0 24 24" fill="none" xmlns="http://www.w3.org/2000/svg">
<g clip-path="url(#clip0_53_6386)">
<path d="M11.9219 24C11.2359 24 10.5468 24.0061 9.86069 24C6.75502 23.9632 4.92654 22.2389 4.70908 19.1332C4.67845 18.6768 4.7152 18.2174 4.70908 17.758C4.69376 15.8713 4.93572 13.9571 3.30326 12.4471C2.73971 11.9265 2.0904 10.8606 2.98473 10.2726C4.08121 9.54668 4.4028 10.8239 4.98779 11.4824C6.55288 13.2404 7.20219 15.2251 6.93879 17.5528C6.86222 18.2297 6.89285 18.9311 6.96635 19.611C7.15012 21.3568 7.85762 22.0092 9.61566 22.0428C11.2175 22.0735 12.8224 22.0796 14.4273 22.0428C16.1578 22 16.9173 21.3139 17.0827 19.5773C17.1838 18.5176 17.1654 17.4395 17.1226 16.3736C17.0644 14.9494 17.3094 13.6784 18.3293 12.5727C18.8806 11.9755 19.1869 11.1546 19.6677 10.4808C20.0291 9.9724 20.6141 9.9479 21.1042 10.2327C21.5881 10.5084 21.4932 11.0352 21.3002 11.4579C21.0154 12.0765 20.7826 12.7963 20.3109 13.2373C19.2757 14.2021 19.3339 15.3843 19.3308 16.6003C19.3247 18.2664 19.4595 19.9173 18.6049 21.5069C17.7749 23.0474 16.7397 24.0367 14.9051 23.9877C13.9128 23.9602 12.9204 23.9816 11.9281 23.9816C11.9281 23.9877 11.9281 23.9969 11.9281 24.003L11.9219 24Z" fill="#002D36"/>
<path d="M6.97867 6.17461C6.9266 6.93418 6.91742 7.69988 6.81022 8.45332C6.73977 8.93724 6.41512 9.2619 5.85769 9.25884C5.33089 9.25577 4.88985 8.99237 4.84085 8.51458C4.60807 6.23893 4.31711 3.92959 5.73212 1.88671C6.06596 1.40279 6.5652 1.09038 7.18694 0.863738C10.4856 -0.352189 13.7536 -0.23274 17.0216 0.912742C18.3232 1.3691 18.8194 2.50845 19.1349 3.69682C19.53 5.19146 19.3033 6.73816 19.2574 8.25731C19.239 8.82698 18.8653 9.2374 18.2099 9.25271C17.5147 9.27109 17.2421 8.79329 17.1992 8.24199C17.1196 7.17614 17.1379 6.10417 17.1165 5.03525C17.0767 3.19758 16.9205 3.02607 15.1686 2.47783C13.0614 1.81933 10.9725 1.83158 8.86841 2.48395C7.08587 3.03525 6.96336 3.16083 6.9266 5.02913C6.91742 5.41198 6.9266 5.79483 6.9266 6.17767C6.94498 6.17767 6.9603 6.17767 6.97867 6.18074V6.17461Z" fill="#002D36"/>
<path d="M11.8881 16.2144C10.859 16.389 9.95544 15.8561 8.99372 15.6876C8.18208 15.5467 8.09939 14.9311 8.19434 14.3155C8.28316 13.7274 8.82527 13.7213 9.27856 13.7673C9.72573 13.8132 10.1668 13.9235 10.6017 14.0399C11.5787 14.3002 12.5374 14.3124 13.5144 14.0123C14.3597 13.755 15.3306 13.268 15.8972 14.3829C16.2219 15.023 15.3919 15.6999 13.9156 16.0092C13.2541 16.1471 12.5619 16.1471 11.885 16.2114L11.8881 16.2144Z" fill="#002D36"/>
<path d="M12.0297 6.41347C13.0251 6.41347 14.0205 6.41347 15.0129 6.41347C15.5519 6.41347 15.9194 6.683 15.8949 7.22511C15.8674 7.76723 15.7112 8.32465 14.9914 8.32772C13.0006 8.33384 11.0129 8.33078 9.02205 8.32159C8.27473 8.31853 8.18897 7.68759 8.14609 7.19142C8.10015 6.65543 8.51056 6.40735 9.04349 6.40735C10.0389 6.40735 11.0343 6.40735 12.0266 6.40735C12.0266 6.40735 12.0266 6.41041 12.0266 6.41347H12.0297Z" fill="#002D36"/>
</g>
<defs>
<clipPath id="clip0_53_6386">
<rect width="18.9127" height="24" fill="white" transform="translate(2.54395)"/>
</clipPath>
</defs>
</svg>
