<svg width="24" height="24" viewBox="0 0 24 24" fill="none" xmlns="http://www.w3.org/2000/svg">
<g clip-path="url(#clip0_53_6399)">
<path d="M2.17952 19.0238C2.22383 17.5867 1.96076 16.1107 2.68627 14.7594C2.91334 14.3357 2.91057 14.0117 2.4952 13.6988C2.07983 13.3887 2.16014 13.0093 2.43705 12.6216C2.72781 12.2146 3.11272 12.0955 3.51147 12.342C4.68004 13.0702 4.92372 12.3641 5.0871 11.4088C5.56339 8.59533 6.52982 7.76459 9.28509 7.76182C11.2207 7.76182 13.1536 7.7452 15.0892 7.75905C17.2712 7.77566 18.0023 8.35441 18.5727 10.4423C18.6807 10.8411 18.8164 11.2315 18.9604 11.622C19.193 12.2589 19.2982 13.0675 20.3173 12.3336C20.7659 12.0097 21.256 12.2921 21.5745 12.7186C21.8985 13.1478 21.7129 13.4662 21.3086 13.7348C20.9708 13.9591 20.8794 14.3579 21.0954 14.6376C22.2363 16.1163 21.688 17.8276 21.796 19.442C21.8458 20.198 21.7683 20.9622 21.8098 21.721C21.8514 22.4299 21.4831 22.9145 21.0096 23.3243C19.7192 24.4458 16.6399 24.1135 15.7012 22.6486C15.2747 21.984 14.7957 21.9037 14.1643 21.901C12.921 21.8954 11.6748 21.9204 10.4343 21.8733C9.42632 21.8345 8.66204 22.02 8.00299 22.9588C7.20825 24.0886 4.15391 24.3461 3.03241 23.5237C2.4509 23.0972 2.18229 22.4603 2.18506 21.7237C2.18506 20.8265 2.18506 19.9266 2.18506 19.0294L2.17952 19.0238ZM12.0044 15.3049C12.0044 15.3049 12.0044 15.3188 12.0044 15.3243C9.86938 15.3243 7.73162 15.3603 5.59662 15.3077C4.53328 15.2828 4.0376 15.82 3.99053 16.7504C3.91853 18.1931 3.96838 19.6441 3.96284 21.0896C3.9573 22.1807 4.83788 21.9342 5.44986 22.0643C6.12552 22.2083 6.77904 22.153 6.72642 21.2447C6.6655 20.1509 7.31071 19.9847 8.14975 19.982C10.6281 19.9764 13.1093 19.8352 15.5876 20.0401C16.446 20.1121 17.1245 20.1703 17.3211 21.3361C17.5094 22.4576 18.678 22.0256 19.4062 22.0339C20.1761 22.0422 20.0155 21.2696 20.0238 20.7435C20.0404 19.6414 20.057 18.5365 20.0293 17.4344C19.9822 15.6123 19.7053 15.3381 17.7946 15.3049C15.8645 15.2717 13.9345 15.2966 12.0071 15.2966L12.0044 15.3049ZM11.8272 13.4939C11.8272 13.4939 11.8272 13.5078 11.8272 13.5161C12.8628 13.5161 13.8957 13.5188 14.9313 13.5161C17.6922 13.505 17.6063 13.5271 16.8919 10.9463C16.5873 9.84143 16.0722 9.49252 15.0255 9.51467C12.957 9.55344 10.8856 9.51467 8.81711 9.55067C7.54332 9.57283 7.10856 9.97435 6.8898 11.1955C6.82888 11.5334 6.8538 11.885 6.80119 12.2229C6.60735 13.469 6.60181 13.4773 7.89499 13.4911C9.20479 13.505 10.5146 13.4939 11.8272 13.4939Z" fill="#002D36"/>
<path d="M11.9982 1.90243C10.2121 1.90243 8.42323 1.90797 6.63714 1.89689C6.22731 1.89689 5.80917 1.86366 5.41042 1.78336C4.92028 1.68644 4.42461 1.43999 4.372 0.911084C4.30554 0.263109 4.94244 0.246494 5.37719 0.0969611C5.56549 0.0360404 5.77871 0.00281091 5.98363 0.00281091C9.97394 -0.00272734 13.9642 -0.00272734 17.9573 0.00281091C18.1595 0.00281091 18.3672 0.0554243 18.5638 0.102499C18.993 0.207726 19.3197 0.412641 19.3142 0.927698C19.3087 1.4206 19.0345 1.73628 18.5887 1.77505C17.4949 1.87197 16.3983 1.92181 15.3017 1.94951C14.2024 1.9772 13.1003 1.95504 12.0009 1.95504C12.0009 1.93566 12.0009 1.91904 12.0009 1.89966L11.9982 1.90243Z" fill="#002D36"/>
<path d="M9.25995 3.56941C9.3181 4.08724 8.38213 5.30565 7.86154 5.35273C7.33817 5.3998 6.90065 5.24473 6.81204 4.6466C6.74281 4.17031 7.73416 2.90759 8.20768 2.82729C8.68674 2.74698 9.2101 3.11251 9.25995 3.56664V3.56941Z" fill="#002D36"/>
<path d="M12.677 4.90132C12.605 5.39977 12.8431 6.12251 12.0179 6.16958C11.0654 6.22497 10.9546 5.52992 10.9241 4.77671C10.8937 4.05397 11.0681 3.51399 11.8961 3.52507C12.8764 3.53892 12.6244 4.31704 12.677 4.90132Z" fill="#002D36"/>
<path d="M16.8221 4.63002C16.8221 5.13954 16.5618 5.36938 16.0662 5.34446C15.421 5.31123 14.6622 4.32542 14.7287 3.57499C14.7702 3.11254 15.061 2.83563 15.529 2.8384C16.1908 2.8384 16.8803 3.8159 16.8221 4.63002Z" fill="#002D36"/>
<path d="M15.859 16.7891C16.5042 16.7891 16.7146 16.7642 16.9168 16.7947C17.4346 16.8722 18.2155 16.7338 18.2515 17.4316C18.2847 18.0934 17.6589 18.4728 16.9833 18.5254C16.2993 18.5808 15.6098 18.5946 14.9563 18.3122C14.5492 18.1349 14.2612 17.8636 14.3138 17.3817C14.3609 16.9414 14.732 16.8833 15.067 16.8418C15.4741 16.7891 15.8867 16.7891 15.859 16.7919V16.7891Z" fill="#002D36"/>
<path d="M7.65403 16.7366C7.85895 16.7366 8.0694 16.709 8.26878 16.7422C8.72015 16.817 9.2712 16.756 9.32935 17.4428C9.38751 18.1683 8.91399 18.4203 8.33247 18.4812C7.59311 18.5587 6.80945 18.7055 6.12825 18.2984C5.79595 18.0991 5.48304 17.7474 5.61319 17.2711C5.72118 16.8779 6.08948 16.8253 6.42731 16.7948C6.83437 16.756 7.24697 16.7505 7.6568 16.7339L7.65403 16.7366Z" fill="#002D36"/>
</g>
<defs>
<clipPath id="clip0_53_6399">
<rect width="19.6636" height="24" fill="white" transform="translate(2.16797)"/>
</clipPath>
</defs>
</svg>
