<svg width="24" height="24" viewBox="0 0 24 24" fill="none" xmlns="http://www.w3.org/2000/svg">
<g clip-path="url(#clip0_53_6388)">
<path d="M0.157879 13.2143C0.127785 11.6464 -0.088892 9.50972 1.74985 7.92075C1.81606 7.86357 1.73782 7.47536 1.63249 7.41517C1.3165 7.24062 0.874117 7.23762 0.633365 7.0089C0.398632 6.78621 0.15186 6.24451 0.266218 6.05793C0.45581 5.75097 0.91023 5.57643 1.28641 5.42295C1.46998 5.34771 1.74985 5.39586 1.94547 5.48012C2.35173 5.65768 2.73393 5.89843 3.12515 6.1121C3.32678 5.55235 3.5555 5.00163 3.718 4.43285C3.79926 4.15298 3.72703 3.83097 3.77518 3.53605C4.08515 1.63711 5.638 0.138431 7.57907 0.0782433C10.2063 -0.00301059 12.8455 -0.051161 15.4697 0.0993092C17.173 0.19561 18.9305 1.19473 19.2164 3.54207C19.2616 3.90922 19.3338 4.27636 19.4391 4.62846C19.8063 5.82922 19.8153 5.82921 21.0462 5.54332C21.1906 5.51022 21.3471 5.40489 21.4735 5.43498C21.8828 5.54031 22.4425 5.57342 22.6441 5.85329C23.0023 6.34683 22.7043 6.85542 22.2018 7.1684C22.0152 7.28276 21.7654 7.2978 21.5818 7.41216C21.2297 7.63185 21.0883 7.74019 21.5246 8.1916C22.4124 9.10345 22.9962 10.2139 22.8368 11.6073C22.7585 12.2934 22.6532 12.7629 21.8346 12.7569C21.1575 12.7539 20.986 12.4138 20.8957 11.7939C20.5255 9.19975 19.8996 8.67611 17.2362 8.67009C13.4023 8.65805 9.56829 8.65805 5.73431 8.67009C3.02584 8.67912 2.09293 9.60903 2.06885 12.2844C2.05681 13.5634 2.10195 14.8424 2.0538 16.1184C2.02371 16.9189 2.35474 17.2018 3.11311 17.1476C3.56152 17.1145 4.01594 17.1235 4.46434 17.1536C5.17456 17.1987 5.65004 17.0212 5.56277 16.1786C5.53869 15.9559 5.57481 15.7271 5.55675 15.5014C5.49957 14.7521 5.79449 14.415 6.58898 14.4331C8.31637 14.4692 10.0468 14.4542 11.7742 14.4331C12.4724 14.4241 12.9268 14.5625 12.8937 15.4112C12.8606 16.2688 12.3369 16.3501 11.6809 16.335C11.079 16.32 10.4771 16.3441 9.87825 16.323C8.62032 16.2809 7.4617 16.1996 7.01631 17.8789C6.7876 18.7365 5.9239 19.2241 4.85857 19.0676C4.1965 18.9713 3.50735 19.0616 2.83023 19.0495C1.1871 19.0194 0.25418 18.1256 0.166908 16.4494C0.118757 15.5496 0.157879 14.6468 0.157879 13.2233V13.2143ZM11.3499 6.7531V6.76213C12.7733 6.76213 14.1998 6.79523 15.6232 6.74708C16.3394 6.72301 17.0527 6.55448 17.7659 6.44915C17.6245 5.88037 17.48 5.30859 17.3476 4.7368C17.3145 4.59235 17.3295 4.43887 17.3085 4.2884C17.0948 2.75661 16.7006 2.28113 15.3042 2.25404C12.7552 2.20288 10.2033 2.2089 7.65431 2.26307C6.35725 2.29016 5.90283 2.82282 5.66509 4.1921C5.57782 4.69768 5.42133 5.19423 5.30095 5.6968C5.10233 6.5274 5.23775 6.72602 6.17368 6.74106C7.89807 6.76815 9.62245 6.75009 11.3468 6.75009L11.3499 6.7531Z" fill="#002D36"/>
<path d="M18.4008 24C17.7056 23.9097 16.6523 23.8916 15.6652 23.6178C13.6158 23.049 13.1644 21.6436 14.305 19.7989C15.0032 18.6733 15.6532 17.5207 16.3423 16.3922C17.8561 13.9094 19.6677 14.3037 21.031 16.0341C21.9729 17.2288 22.7584 18.562 23.4776 19.9072C24.4166 21.6647 23.583 23.4162 21.6359 23.8014C20.6969 23.9879 19.7099 23.9308 18.3978 24.006L18.4008 24ZM19.1682 21.7309C19.1682 21.7309 19.1682 21.7399 19.1682 21.7459C19.767 21.7459 20.3659 21.77 20.9648 21.7399C21.7352 21.7008 21.9639 21.3938 21.6509 20.7799C21.0791 19.6634 20.5043 18.5409 19.8423 17.4756C19.2946 16.5938 18.476 16.5878 17.8892 17.4515C17.1458 18.5469 16.4928 19.7025 15.8067 20.8371C15.4606 21.4119 15.7675 21.6948 16.3032 21.7188C17.2572 21.764 18.2142 21.7309 19.1682 21.7309Z" fill="#002D36"/>
<path d="M6.70317 10.4005C6.85063 10.4005 7.0011 10.4005 7.14856 10.4005C7.79257 10.3884 8.3463 10.4998 8.38543 11.3123C8.42154 12.0587 7.98217 12.6425 7.1937 12.5853C6.33301 12.5251 5.45427 12.3175 4.65376 11.9955C4.03684 11.7457 4.11207 10.8128 4.74405 10.6141C5.36398 10.4215 6.0411 10.4155 6.69414 10.3282C6.69715 10.3523 6.70016 10.3794 6.70317 10.4035V10.4005Z" fill="#002D36"/>
<path d="M16.8779 12.3476C16.1406 12.3115 15.6681 12.3747 15.2679 12.2363C14.997 12.143 14.6359 11.7487 14.654 11.514C14.6811 11.1559 14.9489 10.566 15.1987 10.5179C15.9841 10.3704 16.8117 10.3795 17.6152 10.4246C18.2622 10.4607 18.8039 10.864 18.7498 11.5351C18.6986 12.2122 18.0877 12.4559 17.4497 12.4529C17.1608 12.4529 16.8749 12.3476 16.8749 12.3476H16.8779Z" fill="#002D36"/>
</g>
<defs>
<clipPath id="clip0_53_6388">
<rect width="23.7322" height="24" fill="white" transform="translate(0.133789)"/>
</clipPath>
</defs>
</svg>
