<svg width="24" height="24" viewBox="0 0 24 24" fill="none" xmlns="http://www.w3.org/2000/svg">
<g clip-path="url(#clip0_53_6385)">
<path d="M11.9886 1.04184C12.6092 1.04184 13.2326 1.02799 13.8533 1.04461C15.4298 1.08895 16.2776 1.72344 16.128 3.27782C15.9562 5.04831 16.8096 6.18153 17.735 7.47823C20.6055 11.493 18.6023 15.9151 14.8507 17.7077C11.0909 19.5032 7.97656 17.68 6.12849 15.1116C5.33329 14.0061 4.7459 12.5847 4.88998 11.0746C5.02851 9.60892 5.49677 8.2097 6.50254 7.16514C7.48614 6.14274 8.01258 5.10926 7.81309 3.68234C7.74936 3.23349 7.90452 2.73198 8.04306 2.28036C8.28965 1.47962 8.7967 0.99197 9.71103 1.02799C10.4702 1.05847 11.2294 1.03353 11.9913 1.03353V1.03907L11.9886 1.04184ZM11.9886 6.11227C9.0045 6.03469 6.66601 8.83866 6.69095 11.3378C6.71311 13.6736 8.78007 16.5246 11.9775 16.5163C15.1444 16.5108 17.2363 13.7428 17.2834 11.3406C17.3305 8.88576 14.9948 6.03192 11.9886 6.1095V6.11227ZM12.1908 2.80125V2.81234C11.5037 2.81234 10.8138 2.76523 10.135 2.82342C9.28711 2.89546 9.53925 3.59368 9.52817 4.09518C9.51154 4.82111 9.941 4.472 10.3317 4.45537C11.4898 4.41104 12.6563 4.41104 13.8062 4.53295C14.2827 4.58283 14.4268 4.50248 14.4407 4.09241C14.4767 3.01183 14.4102 2.67103 13.2215 2.79848C12.8835 2.8345 12.5372 2.80402 12.1936 2.80402L12.1908 2.80125Z" fill="#002D36"/>
<path d="M20.8054 3.37203C20.5699 3.67681 20.3178 4.18939 19.9049 4.472C19.5586 4.70752 19.0294 4.67704 18.5778 4.75185C18.5334 4.76016 18.4475 4.67981 18.4282 4.62439C18.345 4.37503 18.14 3.9899 18.2342 3.88738C18.7302 3.3554 19.2788 2.85667 19.8772 2.44106C19.977 2.3718 20.4064 2.76524 20.678 2.95642C20.7223 2.9869 20.7195 3.0811 20.8054 3.37203Z" fill="#002D36"/>
<path d="M22.7231 11.9197C21.7062 11.9474 21.1742 11.6565 21.1548 11.0774C21.1327 10.418 21.8032 10.0689 22.8893 10.2074C23.147 10.2407 23.4767 10.2767 23.6319 10.4429C23.8397 10.6674 24.0419 11.0414 23.992 11.3074C23.9505 11.5457 23.5875 11.7618 23.3215 11.9059C23.1664 11.9918 22.9253 11.9225 22.7203 11.9225L22.7231 11.9197Z" fill="#002D36"/>
<path d="M12.9257 21.5479C12.8315 21.9413 12.8371 22.332 12.6514 22.5731C12.4797 22.7947 11.9227 23.0358 11.8424 22.9554C11.5348 22.6534 11.2273 22.2461 11.1525 21.8361C11.0472 21.2376 11.0777 20.5477 11.787 20.2567C11.9726 20.1819 12.3799 20.3011 12.4907 20.4645C12.7124 20.7832 12.7955 21.1988 12.9285 21.5451L12.9257 21.5479Z" fill="#002D36"/>
<path d="M18.8878 17.0289C19.5777 17.6579 20.2205 18.1289 20.7027 18.7274C20.9714 19.0626 20.2039 19.8384 19.7384 19.747C19.2148 19.6445 18.1397 18.4669 18.2201 17.9737C18.2644 17.7022 18.5581 17.475 18.8878 17.0289Z" fill="#002D36"/>
<path d="M4.13163 19.8273C3.87673 19.661 3.5858 19.564 3.45004 19.3618C2.93745 18.5971 3.67169 18.2729 4.06237 17.86C4.4475 17.4555 4.90467 17.0704 5.46158 17.6107C5.96585 18.1011 5.83563 18.6192 5.36738 19.0293C5.01827 19.3341 4.58049 19.5419 4.13163 19.8245V19.8273Z" fill="#002D36"/>
<path d="M1.14433 11.928C1.11939 11.9253 0.80353 11.9696 0.598496 11.8394C0.338048 11.6759 -0.0359994 11.3268 0.00279073 11.1328C0.0720588 10.8031 0.368526 10.4069 0.673306 10.2684C1.0141 10.116 1.47404 10.1963 1.87857 10.2185C2.43549 10.2462 2.79568 10.5787 2.78183 11.1162C2.7652 11.6759 2.33574 11.9086 1.80099 11.928C1.66522 11.9336 1.52946 11.928 1.1471 11.928H1.14433Z" fill="#002D36"/>
<path d="M5.04804 4.83215C4.52714 4.80444 3.36621 3.85963 3.28586 3.31102C3.25538 3.10322 3.42162 2.78736 3.59895 2.64605C3.77905 2.4992 4.18912 2.37175 4.3138 2.47149C4.83469 2.88156 5.35282 3.33319 5.74072 3.86517C6.02056 4.24753 5.53292 4.85709 5.04804 4.83492V4.83215Z" fill="#002D36"/>
</g>
<defs>
<clipPath id="clip0_53_6385">
<rect width="24" height="21.9441" fill="white" transform="translate(0 1.02795)"/>
</clipPath>
</defs>
</svg>
