<svg width="24" height="24" viewBox="0 0 24 24" fill="none" xmlns="http://www.w3.org/2000/svg">
<g clip-path="url(#clip0_53_6392)">
<path d="M22.0596 9.98664C22.0596 8.06003 22.0403 6.13343 22.0678 4.20957C22.0788 3.47471 22.0458 2.61049 22.9018 2.31324C23.4192 2.13434 23.9779 3.09765 23.9862 4.25361C24.0082 8.10407 23.9999 11.9573 23.9889 15.8077C23.9889 16.716 23.7027 17.572 23.2843 18.3646C22.6073 19.6499 21.6385 20.5169 20.0614 20.4509C19.3761 20.4233 18.6852 20.4591 17.9972 20.4564C17.3779 20.4564 16.8164 20.4784 16.2605 20.905C15.4265 21.5463 14.4219 21.7252 13.3513 21.7004C11.221 21.6536 9.08524 21.6509 6.95496 21.7059C6.09074 21.7279 5.20451 21.6123 4.61827 21.0949C3.96597 20.5169 3.32469 20.4536 2.5623 20.4509C0.732028 20.4454 0.286157 20.2114 0.0742299 19.2481C-0.253293 17.7536 0.462303 16.1545 1.73662 15.6041C2.04212 15.472 2.39717 15.4362 2.73295 15.4004C3.2779 15.3398 3.36873 14.9931 3.36047 14.5362C3.34946 13.9885 3.01093 13.8481 2.54854 13.8454C2.47973 13.8454 2.41093 13.8454 2.34212 13.8426C0.371478 13.6692 0.151294 13.5123 0.0577162 12.216C-0.0661371 10.5096 0.737533 8.96003 2.1357 8.91049C4.25221 8.83618 6.11001 7.61416 8.32836 7.9059C10.4256 8.18113 12.5862 7.96645 14.7164 7.96921C15.0632 7.96921 15.4596 7.96645 15.6687 8.25545C16.2247 9.02884 17.0229 8.74811 17.7467 8.80866C18.4265 8.86645 18.7596 8.59122 18.7403 7.86462C18.71 6.83526 18.7348 5.8004 18.7458 4.77104C18.7513 4.22334 18.688 3.67012 18.9192 3.14444C19.0788 2.78389 19.0953 2.2637 19.6458 2.29948C19.9981 2.3215 20.2623 2.61324 20.3972 2.93801C20.5265 3.24902 20.6614 3.58756 20.6641 3.91508C20.6889 5.70407 20.7137 7.49306 20.6641 9.2793C20.6339 10.3252 20.3807 10.4958 19.2412 10.5591C18.8284 10.5811 18.4155 10.5509 18.0027 10.5756C17.3614 10.6142 17.2513 11.1206 17.2403 11.6022C17.2293 12.0564 17.6394 12.0784 17.9834 12.1032C18.121 12.1114 18.2586 12.1169 18.3962 12.1087C19.3348 12.0536 20.199 12.1197 20.5733 13.2041C20.9036 14.1646 20.4935 16.3775 19.8385 16.9197C19.3678 17.3077 18.7816 17.1564 18.2476 17.1564C17.6559 17.1564 17.3284 17.4096 17.2898 17.9765C17.243 18.6756 17.7605 18.6784 18.2614 18.7197C21.2917 18.9674 22.0375 18.2765 22.0623 15.1582C22.0678 14.2637 22.054 13.3692 22.0513 12.4747C22.0513 11.649 22.0513 10.8233 22.0513 9.99765H22.0568L22.0596 9.98664ZM10.4449 9.69489C9.20909 9.69765 7.97331 9.67012 6.73753 9.7059C5.42744 9.74444 5.15772 9.98939 5.13845 11.2747C5.10542 13.5398 5.12194 15.805 5.13845 18.0701C5.14946 19.5288 5.45221 19.9004 6.91093 19.9362C9.24212 19.994 11.5788 19.9885 13.9128 19.9389C15.0302 19.9169 15.3852 19.5646 15.4155 18.4169C15.4788 16.0169 15.4871 13.6114 15.4458 11.2114C15.4265 10.0444 15.0137 9.72792 13.7394 9.69765C12.6412 9.67288 11.543 9.69214 10.4449 9.69214V9.69489ZM18.0742 15.3894C18.6632 15.4142 18.9605 15.1059 18.9302 14.5307C18.9054 14.0298 18.5531 13.8674 18.0962 13.8564C17.5018 13.8426 17.2045 14.1481 17.2293 14.7151C17.2513 15.216 17.6118 15.3839 18.0742 15.3866V15.3894ZM3.36047 11.2637C3.36873 10.7435 3.11551 10.5123 2.60634 10.5839C2.02285 10.6637 1.82194 11.06 1.84946 11.5885C1.87423 12.0233 2.20726 12.0839 2.56506 12.1142C3.20084 12.1665 3.40726 11.8362 3.36047 11.2665V11.2637ZM2.74946 17.1701C2.17973 17.1811 1.87973 17.4756 1.83845 18.0399C1.79717 18.6041 2.16597 18.7059 2.6146 18.7197C3.10726 18.7362 3.37423 18.527 3.36873 18.0096C3.36322 17.5775 3.32744 17.1784 2.74946 17.1674V17.1701Z" fill="#002D36"/>
<path d="M10.3188 17.1398C9.3665 17.1398 8.4142 17.1481 7.46191 17.1343C7.10686 17.1288 6.79035 17.0215 6.72154 16.6004C6.64998 16.1518 6.78209 15.7774 7.20319 15.5875C7.44264 15.4774 7.72338 15.4224 7.9876 15.4196C9.48485 15.4031 10.9793 15.4086 12.4766 15.4059C12.8949 15.4059 13.2913 15.4637 13.572 15.8242C13.7812 16.094 14.0096 16.3637 13.8335 16.7325C13.7069 16.9995 13.4592 17.1206 13.1729 17.1233C12.2206 17.1316 11.2683 17.1261 10.316 17.1261C10.316 17.1316 10.316 17.1343 10.316 17.1398H10.3188Z" fill="#002D36"/>
<path d="M10.3598 13.8288C9.40748 13.8288 8.45518 13.8371 7.50289 13.8261C7.05702 13.8206 6.70197 13.6692 6.69922 13.1297C6.69922 12.6508 6.96069 12.3701 7.39004 12.249C7.64601 12.1747 7.92399 12.1444 8.19096 12.1417C9.5506 12.1279 10.913 12.1169 12.2726 12.1334C12.6029 12.1362 12.9662 12.1802 13.2524 12.3233C13.6267 12.5105 13.8579 12.871 13.7781 13.3279C13.7038 13.7463 13.3625 13.8288 13.0102 13.8343C12.1267 13.8481 11.2405 13.8398 10.357 13.8398V13.8343L10.3598 13.8288Z" fill="#002D36"/>
</g>
<defs>
<clipPath id="clip0_53_6392">
<rect width="24" height="19.4174" fill="white" transform="translate(0 2.29126)"/>
</clipPath>
</defs>
</svg>
