<svg width="24" height="24" viewBox="0 0 24 24" fill="none" xmlns="http://www.w3.org/2000/svg">
<g clip-path="url(#clip0_53_6403)">
<path d="M16.6028 11.0657C16.6028 13.6399 16.5782 16.214 16.6151 18.7851C16.6304 19.8329 16.185 20.3477 15.1437 20.3538C11.4575 20.3689 7.7744 20.3811 4.08824 20.3841C3.04075 20.3841 2.59841 19.8541 2.60456 18.8154C2.6322 13.5914 2.60763 8.37046 2.65063 3.14648C2.66292 1.6444 3.78106 0.436074 5.57499 0.2362C8.24131 -0.060582 10.9476 -0.106008 13.6108 0.257399C15.758 0.551153 16.5813 1.65349 16.6028 3.79759C16.6243 6.2203 16.6089 8.64301 16.6089 11.0657H16.6058H16.6028ZM4.62273 10.4812H4.61352C4.61352 12.592 4.67188 14.7089 4.59201 16.8166C4.54594 18.0038 4.97292 18.4277 6.16785 18.3975C8.613 18.3308 11.0612 18.3429 13.5064 18.3702C14.4801 18.3823 14.6245 17.8614 14.6215 17.0771C14.6061 12.7768 14.6337 8.47645 14.603 4.17917C14.5938 2.70737 14.1945 2.27431 12.72 2.22888C10.6558 2.16226 8.58536 2.16529 6.52418 2.23797C4.89919 2.29551 4.6473 2.63166 4.6258 4.37298C4.60123 6.40806 4.61966 8.44617 4.61966 10.4843L4.62273 10.4812Z" fill="#002D36"/>
<path d="M12.1524 23.9909C9.00377 23.9909 5.85517 23.9909 2.70658 23.9909C2.02156 23.9909 1.33041 24.0878 0.679186 23.7365C0.329 23.5457 -0.0457599 23.361 0.00338891 22.931C0.049466 22.5403 0.36279 22.2253 0.752909 22.1557C1.50243 22.0255 2.27038 21.9013 3.02912 21.9013C9.16965 21.8862 15.3102 21.9013 21.4507 21.9074C21.9115 21.9074 22.3753 21.9043 22.83 21.9467C23.3982 22.0012 23.8774 22.2011 23.9358 22.8734C23.9942 23.5639 23.5088 23.8274 22.9713 23.9303C22.4521 24.0303 21.9023 24 21.3647 24.003C18.2929 24.0091 15.2211 24.003 12.1493 24.003V23.9939L12.1524 23.9909Z" fill="#002D36"/>
<path d="M23.9751 12.3498C23.9751 13.6369 23.9936 14.9239 23.9721 16.208C23.9413 18.0371 23.112 18.9971 21.5208 19.1031C20.0279 19.2061 18.6025 18.2188 18.409 16.6774C18.2309 15.2601 18.3384 13.8065 18.366 12.371C18.3783 11.6502 18.8483 11.2354 19.5548 11.2717C20.292 11.308 20.2736 11.9379 20.2859 12.4649C20.3074 13.3734 20.2828 14.2819 20.3135 15.1874C20.3289 15.6326 20.3627 16.0959 20.4979 16.5169C20.6177 16.8833 20.9556 17.1316 21.3856 17.1044C21.8709 17.0711 21.9815 16.6986 22.003 16.3079C22.0276 15.8536 22.0153 15.3994 22.0153 14.9451C22.0153 14.0366 21.9232 13.119 22.0245 12.2226C22.3624 9.21844 21.8955 6.5474 19.1309 4.71825C19.005 4.63649 18.9159 4.50324 18.8084 4.39725C18.3844 3.9763 18.1602 3.48873 18.6394 3.01327C19.1278 2.52873 19.6992 2.47422 20.2367 3.01327C21.1798 3.96116 22.1198 4.9151 23.0843 5.84482C23.714 6.45352 24.0489 7.11977 24.0059 8.03131C23.9352 9.46677 23.9874 10.9053 23.9874 12.3437H23.9813L23.9751 12.3498Z" fill="#002D36"/>
<path d="M9.42766 7.60425C10.0236 7.66784 10.1372 8.08273 10.1434 8.56728C10.1526 9.15478 9.98366 9.85131 10.9236 9.88766C12.2844 9.93914 12.0878 10.8749 11.8728 11.6593C11.7008 12.2922 11.2984 12.8767 10.9451 13.449C10.6656 13.9003 10.2786 14.3606 9.68877 14.2516C8.99454 14.1244 9.0314 13.4763 9.07133 12.9675C9.13277 12.2044 8.85016 11.844 8.06685 11.8319C7.64602 11.8258 7.38184 11.6017 7.28969 11.1656C7.11459 10.354 8.24195 7.99794 8.98532 7.6951C9.12355 7.64059 9.28022 7.6315 9.42766 7.60425Z" fill="#002D36"/>
</g>
<defs>
<clipPath id="clip0_53_6403">
<rect width="24" height="24" fill="white"/>
</clipPath>
</defs>
</svg>
