<svg width="24" height="24" viewBox="0 0 24 24" fill="none" xmlns="http://www.w3.org/2000/svg">
<g clip-path="url(#clip0_53_6395)">
<path d="M11.9866 0.199443C13.5681 0.199443 15.1579 0.31771 16.7256 0.17744C20.9942 -0.204866 23.7391 2.89484 23.8959 6.83891C24.0306 10.2687 24.0416 13.7149 23.8849 17.1419C23.7804 19.4275 22.9662 21.4985 20.8237 22.8022C19.806 23.4211 18.7554 23.8226 17.57 23.8254C13.7909 23.8336 10.0091 23.8969 6.2328 23.8116C2.60502 23.7291 0.0223933 20.9622 0.0113917 17.3069C0.000390127 13.6654 -0.00511067 10.0239 0.0113917 6.38234C0.0278941 2.95534 2.8003 0.207694 6.21355 0.202193C8.13883 0.202193 10.0614 0.202193 11.9866 0.199443ZM1.77715 11.8061C1.77715 13.5939 1.77165 15.3817 1.77715 17.1694C1.7854 20.0848 3.5044 21.9936 6.38682 22.0596C10.0284 22.1421 13.6726 22.0926 17.3169 22.0734C18.5106 22.0651 19.5777 21.6691 20.4854 20.8495C21.5855 19.8566 21.9678 18.5914 21.9733 17.1694C21.9871 14.144 21.9926 11.1213 21.9898 8.09584C21.9898 7.40824 22.0091 6.71514 21.9238 6.03579C21.58 3.3569 19.9655 1.9432 17.2784 1.9377C13.6341 1.9322 9.9926 1.9377 6.34832 1.94595C5.60021 1.94595 4.90711 1.97895 4.1975 2.43552C2.55001 3.49442 1.71939 4.89713 1.7689 6.86091C1.81015 8.51115 1.77715 10.1614 1.77715 11.8116V11.8061Z" fill="#002D36"/>
<path d="M11.9338 6.8801C13.5098 6.90486 15.0527 6.91861 16.3949 5.8432C16.967 5.38389 17.7234 5.52416 18.3862 5.62867C19.4011 5.79095 19.8769 6.39053 19.9072 7.46869C19.9402 8.63211 19.9485 9.79828 19.9127 10.9617C19.8769 12.2076 19.7009 12.4909 18.378 12.6477C17.5776 12.744 17.3548 13.0988 17.1815 13.7616C16.9588 14.6142 16.7855 15.5329 16.3317 16.2617C15.1628 18.1347 13.551 19.2707 11.1802 19.3339C8.80933 19.3944 6.8923 18.7316 5.5666 16.7375C3.04724 12.953 4.80474 8.42858 8.87534 6.92686C9.77747 6.59406 10.9079 6.87735 11.9338 6.87735V6.8801ZM11.6917 8.57435C10.9986 8.69812 9.96725 8.34332 8.96885 8.81639C6.99681 9.75152 5.88015 11.8913 6.29546 14.0284C6.71352 16.1875 8.6388 17.6452 10.7951 17.6149C13.3557 17.5792 15.38 15.7749 15.3828 12.7302C15.3828 11.9738 14.9427 11.8006 14.3129 11.8473C13.7133 11.8941 13.8481 12.2571 13.8453 12.711C13.8398 15.3733 11.3397 17.0126 9.23564 15.7832C8.295 15.2331 7.48914 13.5443 7.73392 12.6394C8.17674 11.003 9.19163 10.1228 10.7154 10.0981C11.8815 10.0788 13.0504 10.0981 14.2166 10.0871C14.7584 10.0816 14.8795 9.72127 14.863 9.25645C14.8492 8.86039 14.6842 8.5881 14.2689 8.57985C13.5153 8.5606 12.7589 8.57435 11.6917 8.57435ZM18.1607 9.12168H18.1552C18.1552 8.71737 18.1717 8.31031 18.1497 7.906C18.1304 7.49619 17.8719 7.33942 17.4758 7.33392C17.0248 7.32842 16.6535 7.42193 16.6425 7.96101C16.626 8.77238 16.6205 9.58375 16.6507 10.3924C16.6727 10.9562 17.1265 10.9562 17.5363 10.9589C17.9434 10.9589 18.1469 10.7307 18.1579 10.3374C18.1689 9.93305 18.1579 9.52599 18.1579 9.12168H18.1607ZM10.7071 11.8583C10.025 11.8721 9.44192 12.5019 9.54643 13.1895C9.6482 13.8579 10.0305 14.2677 10.7759 14.2567C11.5515 14.2429 12.0961 13.7451 12.0576 13.0383C12.019 12.3286 11.4635 11.8418 10.7071 11.8583Z" fill="#002D36"/>
</g>
<defs>
<clipPath id="clip0_53_6395">
<rect width="24" height="23.7112" fill="white" transform="translate(0 0.144409)"/>
</clipPath>
</defs>
</svg>
