<svg width="24" height="24" viewBox="0 0 24 24" fill="none" xmlns="http://www.w3.org/2000/svg">
<g clip-path="url(#clip0_53_6384)">
<path d="M12.1544 21.8237C11.4606 21.8237 10.7612 21.8655 10.0701 21.8125C9.06977 21.7373 8.14744 21.8989 7.30593 22.4646C6.41982 23.0609 5.57273 23.1055 4.62254 22.4897C4.00115 22.0884 3.23487 21.9101 2.5271 21.6453C2.02275 21.4559 1.30662 21.4447 1.04469 21.0881C0.570991 20.4444 0.233826 19.6279 0.0889286 18.8394C-0.0726875 17.9644 0.0248395 17.0393 0.0527043 16.1365C0.0861421 14.9856 0.651799 14.2277 1.74967 13.9017C3.26831 13.4475 4.76465 12.8596 6.4031 13.0574C6.97991 13.1271 7.41739 12.8874 7.91338 12.5614C9.05863 11.8118 10.2624 11.1152 11.5191 10.5774C14.3139 9.38202 16.9973 9.87523 19.5971 11.2963C20.4888 11.784 21.4641 12.1267 22.4031 12.528C23.462 12.9794 24.0527 13.6983 23.9914 14.9299C23.9245 16.2479 23.9998 17.5715 23.9635 18.8895C23.9078 20.776 23.4425 21.3723 21.5616 21.5868C20.6142 21.6927 19.9371 22.2138 19.1624 22.6011C18.4519 22.9578 17.6549 23.2699 17.0391 22.6708C15.8939 21.559 14.548 21.7652 13.1938 21.8293C12.8482 21.846 12.4999 21.8293 12.1516 21.8293V21.8237H12.1544ZM22.208 17.1006C22.208 16.4068 22.2554 15.7073 22.1858 15.0191C22.1551 14.7154 21.9601 14.2946 21.7148 14.172C20.3857 13.506 19.0482 12.8289 17.6577 12.3134C14.5313 11.157 11.6612 11.9289 9.17566 13.9379C8.26448 14.6736 7.40903 14.877 6.37524 14.7962C4.94299 14.6847 3.65006 15.1835 2.34598 15.6349C2.16486 15.6962 1.87228 15.855 1.87507 15.9609C1.91129 17.1201 1.97538 18.2821 2.10077 19.4357C2.1147 19.5722 2.56611 19.7645 2.79739 19.745C2.99802 19.7255 3.31011 19.4635 3.34076 19.2685C3.57204 17.8641 4.50829 17.3124 5.7845 17.2343C7.06072 17.1563 8.07221 17.6607 8.49576 18.9369C8.71031 19.5861 9.10042 19.8118 9.71902 19.8118C10.9005 19.8118 12.082 19.7728 13.2606 19.8313C14.2944 19.8815 14.9493 19.6586 15.54 18.622C16.7047 16.5712 19.0426 16.7105 20.3132 18.7585C20.4581 18.9926 20.525 19.327 20.7284 19.4635C20.9848 19.6363 21.386 19.7868 21.6508 19.706C21.8876 19.6335 22.1412 19.249 22.1774 18.9731C22.2554 18.3573 22.2025 17.7248 22.2053 17.1006H22.208ZM18.9061 20.0403C18.9005 19.5165 18.3543 18.9675 17.85 18.9843C17.2927 19.001 16.7298 19.5611 16.9137 20.0793C17.0475 20.4555 17.4487 20.8512 17.8249 20.9961C18.3098 21.18 18.9116 20.567 18.9061 20.0431V20.0403ZM6.80993 20.0013C6.80993 19.2378 6.53686 18.9815 5.85138 18.9843C5.11575 18.9898 5.14361 19.5137 5.12132 19.9846C5.09624 20.4917 5.17148 20.9627 5.84302 21.0184C6.48113 21.0713 6.80993 20.737 6.80993 19.9985V20.0013Z" fill="#002D36"/>
<path d="M0.766298 5.21631C0.913982 4.48625 0.952993 3.70883 1.23164 3.03171C1.90318 1.40719 3.31872 0.863823 4.9321 1.01987C5.97424 1.12018 7.08048 1.18706 7.93871 2.08152C8.38734 2.54965 9.10347 2.7447 9.84467 2.67225C10.5329 2.60538 11.2351 2.61095 11.9234 2.67225C12.3971 2.71405 12.8708 2.86731 13.3222 3.0345C14.3058 3.40231 14.9495 4.19089 15.1195 5.15223C15.2895 6.12192 14.4953 6.81297 13.7625 7.26159C13.0854 7.67399 12.2327 8.00559 11.458 8.00559C9.70535 8.00559 8.08361 8.15048 6.58169 9.23164C5.66494 9.89204 4.54199 9.90597 3.40231 9.51029C1.67191 8.90841 0.643693 7.25045 0.769085 5.2191L0.766298 5.21631ZM4.57821 3.00384C4.41381 3.04286 3.70325 3.08465 3.1376 3.39395C2.61374 3.68096 2.41311 6.11914 2.78371 6.74052C3.30757 7.61827 4.16581 7.75759 5.11322 7.68793C6.73774 7.56811 7.61827 6.63742 7.56532 5.04077C7.51795 3.6308 6.82412 3.06236 4.57821 2.99827V3.00384ZM10.9342 4.68131C10.7893 4.65623 10.4521 4.59214 10.1122 4.54477C9.55766 4.46954 9.33753 4.83178 9.39047 5.27483C9.42112 5.53397 9.67191 5.89622 9.90319 5.97145C10.2794 6.09406 10.7224 6.02997 11.1348 6.02997C12.3024 6.02439 13.3919 5.57856 13.1996 5.2191C12.79 4.45282 11.9931 4.75654 11.3354 4.6841C11.2686 4.67574 11.1961 4.6841 10.9314 4.6841L10.9342 4.68131Z" fill="#002D36"/>
</g>
<defs>
<clipPath id="clip0_53_6384">
<rect width="24" height="22.0105" fill="white" transform="translate(0 0.994751)"/>
</clipPath>
</defs>
</svg>
