<svg width="24" height="24" viewBox="0 0 24 24" fill="none" xmlns="http://www.w3.org/2000/svg">
<g clip-path="url(#clip0_53_6396)">
<path d="M11.9652 23.9755C10.1345 23.9755 8.30389 24.0092 6.47631 23.9694C3.15121 23.89 0.101165 20.8888 0.04921 17.5851C-0.00580087 14.0033 -0.027194 10.4154 0.0583784 6.83355C0.116445 4.40085 1.33891 2.47242 3.39876 1.25301C4.74958 0.455353 6.25015 -0.0519691 7.94021 0.0183226C10.6052 0.1314 13.2793 -0.0214075 15.9443 0.0580526C20.3176 0.186411 22.2369 1.88869 23.7711 5.16183C24.0431 5.74556 23.985 6.35374 23.9881 6.95885C23.9942 10.4673 24.0156 13.9758 23.985 17.4812C23.9545 20.9285 20.9228 23.9175 17.454 23.9633C15.6234 23.9878 13.7927 23.9664 11.9652 23.9664V23.9725V23.9755ZM1.99293 11.974C1.99293 13.5021 2.05405 15.0302 1.97764 16.5552C1.87374 18.6609 2.82114 20.1217 4.42257 21.3992C5.54724 22.2977 6.70858 21.9738 7.8852 21.9615C8.03495 21.9615 8.31917 21.6681 8.31 21.5184C8.21526 19.5624 8.97319 17.527 7.20062 15.785C4.5876 13.2209 5.11632 9.52908 7.43594 7.01692C8.13886 6.25594 8.98847 6.28344 9.7464 6.51571C10.5288 6.75715 11.1767 7.36838 11.1583 8.36469C11.1461 8.89951 11.1675 9.43434 11.195 9.96611C11.2286 10.5957 11.6809 10.6446 12.1638 10.6385C12.6375 10.6293 12.827 10.3481 12.8453 9.91416C12.8698 9.30293 12.8056 8.67947 12.9126 8.08658C13.1876 6.57683 15.1283 5.81891 16.2866 6.82133C17.5151 7.88793 18.3159 9.24792 18.4992 10.9257C18.7315 13.0345 18.0072 14.7887 16.5494 16.2587C16.1307 16.6805 15.5623 16.9219 15.6081 17.689C15.6753 18.832 15.6326 19.9781 15.6448 21.1241C15.6478 21.5276 15.764 21.9371 16.2132 21.9707C17.1912 22.041 18.27 22.3252 19.1166 21.7384C20.8525 20.5343 22.1513 19.0521 22.0688 16.6805C21.9649 13.6304 21.9741 10.5712 22.0566 7.51813C22.1422 4.23887 19.5842 2.13013 16.6747 1.99566C13.5513 1.85202 10.4065 1.84285 7.28619 2.00482C4.17197 2.17903 1.71482 4.66062 1.97153 7.6251C2.09684 9.06455 1.99293 10.5254 1.99293 11.9771V11.974ZM16.5097 11.7173C16.5097 11.3353 16.6319 10.8952 16.4852 10.5835C16.1399 9.85303 15.6662 9.18374 15.2414 8.48999C14.3948 9.02482 14.9908 9.85303 14.838 10.5284C14.7707 10.8188 14.8227 11.1366 14.8196 11.4422C14.8135 11.9465 14.6087 12.3346 14.1289 12.518C12.8056 13.0314 11.4548 13.0345 10.1315 12.5669C9.51413 12.3499 9.18406 11.8395 9.2024 11.1366C9.22074 10.449 9.21768 9.76135 9.18101 9.07677C9.17184 8.87812 9.07404 8.60307 8.92429 8.51444C8.66452 8.36163 8.54533 8.63668 8.44142 8.83533C8.12969 9.4374 7.66515 10.015 7.54902 10.6537C7.22812 12.4324 7.84547 13.9238 9.23602 15.0974C10.5196 16.1793 12.7261 16.4574 14.3429 15.4641C15.6692 14.6481 16.5036 13.3737 16.5066 11.7142L16.5097 11.7173ZM13.4321 19.9689H13.4474C13.4474 19.8161 13.4474 19.6633 13.4474 19.5105C13.426 17.9763 13.426 18.016 11.9377 17.9855C11.03 17.9671 10.4646 18.1352 10.5899 19.2293C10.6663 19.9047 10.5716 20.6015 10.6021 21.2831C10.6113 21.4787 10.7335 21.7629 10.8894 21.8454C11.522 22.1877 12.2341 22.096 12.8912 21.9646C13.6155 21.8179 13.3893 21.1455 13.4321 20.6474C13.4505 20.4212 13.4352 20.189 13.4352 19.9628L13.4321 19.9689Z" fill="#002D36"/>
</g>
<defs>
<clipPath id="clip0_53_6396">
<rect width="24" height="23.9755" fill="white" transform="translate(0 0.012207)"/>
</clipPath>
</defs>
</svg>
