<svg width="24" height="24" viewBox="0 0 24 24" fill="none" xmlns="http://www.w3.org/2000/svg">
<g clip-path="url(#clip0_53_6398)">
<path d="M17.1416 22.4598C16.1668 22.4598 15.192 22.4821 14.22 22.4542C13.2953 22.4264 12.56 22.6158 11.7578 23.2424C10.4794 24.2451 8.91416 24.2367 7.53271 23.3093C6.76399 22.7912 6.04263 22.4737 5.08452 22.4208C3.15438 22.3205 2.20185 21.2343 1.95397 19.2457C1.85091 18.4268 1.66152 17.6191 1.52226 16.8031C1.0822 14.1655 2.13779 12.7367 4.5804 11.8426C6.41584 11.1714 8.23179 11.0795 10.1034 11.1213C11.0281 11.1408 11.7578 10.9709 12.5182 10.3108C13.9721 9.04909 15.6042 7.96565 17.4786 7.41975C18.7877 7.03818 20.1552 6.83207 21.506 6.61761C21.804 6.57027 22.1577 6.80701 22.4753 6.9407C22.9989 7.16351 23.049 7.62307 22.6647 7.8988C22.1884 8.24417 21.5784 8.58953 21.0186 8.60067C17.9521 8.66194 15.4956 10.1214 13.2284 11.9513C12.4096 12.6113 11.6353 12.9456 10.602 12.8704C8.64957 12.7283 6.73614 12.9344 4.88399 13.6419C3.71978 14.0847 3.2073 14.5471 3.26858 15.6918C3.34378 17.0677 3.56659 18.4352 3.77548 19.7999C3.8479 20.2818 4.82271 20.7497 5.48002 20.7023C6.18467 20.6494 6.07884 20.1063 6.16518 19.6356C6.46041 18.0035 7.6664 16.9869 9.29852 16.9451C11.4153 16.8922 12.5516 17.6219 12.9053 19.5158C13.092 20.5157 13.5571 20.7469 14.4511 20.733C16.6765 20.6995 18.9019 20.719 21.1272 20.7218C21.5561 20.7218 21.96 20.7552 22.1048 21.2789C22.2719 21.8888 21.9711 22.4124 21.3138 22.4319C19.924 22.4737 18.5314 22.4459 17.1416 22.4459V22.457V22.4598ZM9.5659 18.697C8.44625 18.736 7.8725 19.3738 7.892 20.5631C7.90871 21.6883 8.35155 22.0699 9.61603 22.0476C10.9446 22.0253 11.2509 21.6771 11.2008 20.2539C11.1562 19.0201 10.7747 18.6552 9.5659 18.697Z" fill="#002D36"/>
<path d="M10.3989 4.99938C10.7916 6.31399 9.95044 7.25539 9.06196 8.12437C8.16513 8.99892 7.15689 9.59773 5.77544 9.55039C3.14622 9.46126 1.22165 7.38351 1.08796 4.66237C0.979336 2.45929 2.66159 -0.0167491 5.78658 -3.79433e-05C8.82244 0.013888 10.8556 2.46486 10.3989 4.99938ZM8.65533 4.78492C8.65533 2.79351 7.77521 1.9301 5.74759 1.92731C3.82859 1.92731 2.91226 2.79351 2.89555 4.62895C2.88162 6.32235 4.16281 7.75394 5.70859 7.76786C7.37692 7.78457 8.65533 6.48667 8.65533 4.78214V4.78492Z" fill="#002D36"/>
<path d="M7.89463 4.28362C7.76094 5.05234 7.01451 5.52582 6.37948 5.98538C5.82523 6.38366 5.09272 6.44772 4.51619 5.82384C4.33794 5.63166 4.08448 5.49797 3.94522 5.28351C3.81154 5.0774 3.64442 4.72926 3.73076 4.58164C3.87838 4.3254 4.27109 3.96333 4.4577 4.01625C5.30718 4.25577 5.93942 4.05524 6.61622 3.49542C7.00894 3.16955 7.85006 3.67645 7.89463 4.28362Z" fill="#002D36"/>
</g>
<defs>
<clipPath id="clip0_53_6398">
<rect width="21.8359" height="24" fill="white" transform="translate(1.08203)"/>
</clipPath>
</defs>
</svg>
