<svg width="24" height="24" viewBox="0 0 24 24" fill="none" xmlns="http://www.w3.org/2000/svg">
<g clip-path="url(#clip0_53_6400)">
<path d="M17.4479 8.62471C17.4479 9.07595 17.4599 9.52418 17.4449 9.97542C17.4268 10.5049 17.6194 10.7516 18.1789 10.8839C18.5459 10.9682 19.0784 11.3652 19.0964 11.648C19.1145 11.9669 18.6843 12.5475 18.3684 12.6047C17.5772 12.7551 17.4118 13.1582 17.4629 13.8531C17.505 14.4517 17.475 15.0534 17.472 15.652C17.4539 18.1489 16.2265 19.5688 13.8199 20.1374C12.2947 20.4984 10.8417 20.2216 9.39475 19.9027C8.1433 19.626 7.09041 18.0105 6.99715 16.4432C6.95203 15.6972 6.99114 14.9421 6.99715 14.193C7.00016 13.45 7.06634 12.8874 6.00141 12.5625C5.03576 12.2677 5.22227 11.1817 6.28118 10.8448C6.82568 10.6703 6.99715 10.4267 6.98813 9.91826C6.97609 9.1692 6.99715 8.41714 6.99414 7.66808C6.98813 5.81799 7.75824 4.45825 9.5963 3.97692C11.4193 3.49861 13.2935 3.39633 15.0924 4.10026C16.7048 4.72899 17.5532 5.94133 17.475 7.72222C17.4629 8.02305 17.475 8.32388 17.475 8.6217H17.4539L17.4479 8.62471ZM12.3068 9.13912V9.12709C11.7081 9.12709 11.1095 9.11806 10.5138 9.12709C8.82618 9.15416 8.54641 9.51215 8.95253 11.1095C9.3045 12.5054 9.9964 13.089 11.4253 13.1702C11.8736 13.1973 12.3218 13.1943 12.77 13.1792C14.593 13.11 15.7091 11.7984 15.5587 9.9664C15.5166 9.43393 15.3511 9.12709 14.7735 9.13611C13.9523 9.14815 13.128 9.13611 12.3068 9.13611V9.13912ZM12.1142 18.1339V18.1429C12.4151 18.1429 12.7159 18.1218 13.0137 18.1459C14.924 18.2993 15.8024 17.1832 15.5467 15.1466C15.4895 14.6834 15.3 14.4938 14.8126 14.7375C13.0408 15.6189 11.2689 15.8145 9.49402 14.7074C9.38572 14.6382 9.02473 14.7435 8.96757 14.8578C8.27868 16.2717 9.25636 18.0376 10.7635 18.1278C11.2117 18.1549 11.663 18.1308 12.1142 18.1308V18.1339ZM12.2225 7.21082V7.21984C13.1852 7.21984 14.1508 7.22887 15.1135 7.20781C15.2308 7.20781 15.4053 7.07845 15.4444 6.97016C15.4805 6.86788 15.4053 6.68136 15.318 6.58811C14.0786 5.24942 10.5439 5.12007 9.22628 6.37151C9.0879 6.50087 8.96456 6.79267 9.01871 6.94007C9.06985 7.07845 9.36466 7.19277 9.55719 7.19879C10.4446 7.22586 11.3351 7.21082 12.2255 7.21082H12.2225Z" fill="#002D36"/>
<path d="M0.192383 5.02982C0.237507 4.36198 0.1623 3.65805 0.351821 3.03232C0.812087 1.51014 1.86799 0.451226 3.44132 0.162432C4.4521 -0.0240808 5.52605 0.0631591 6.56691 0.126333C7.12043 0.159424 7.5085 0.526433 7.53858 1.15817C7.56867 1.83202 7.1084 2.12082 6.59098 2.20204C5.93217 2.30733 5.2523 2.25017 4.57844 2.26822C2.68323 2.31936 2.18085 2.79768 2.12971 4.62972C2.11467 5.22836 2.12069 5.824 2.12971 6.42265C2.13874 7.06642 1.86197 7.37627 1.19113 7.34318C0.553376 7.3131 0.234499 7.01829 0.237507 6.37752C0.237507 5.92929 0.237507 5.48106 0.237507 5.03283C0.222466 5.03283 0.207424 5.03283 0.192383 5.03283L0.192383 5.02982Z" fill="#002D36"/>
<path d="M23.7922 19.3853C23.7922 19.9087 23.7591 20.4352 23.7982 20.9556C23.8915 22.21 23.0612 23.0193 22.1527 23.3923C20.5673 24.0421 18.8346 24.2737 17.156 23.5758C16.8852 23.4645 16.6295 23.0794 16.5663 22.7816C16.5302 22.6011 16.8431 22.21 17.0657 22.1409C17.6944 21.9483 18.3563 21.7919 19.0091 21.7708C21.8609 21.6866 21.8639 21.7047 21.894 18.8739C21.9 18.4256 21.7707 17.9142 21.9451 17.5442C22.1407 17.1291 22.5648 16.6267 22.9619 16.5485C23.6027 16.4221 23.7772 17.0238 23.7832 17.5893C23.7892 18.188 23.7832 18.7866 23.7832 19.3853H23.7892H23.7922Z" fill="#002D36"/>
<path d="M23.7888 4.62371C23.7888 5.15016 23.7768 5.67661 23.7888 6.20005C23.8069 6.87089 23.7016 7.39132 22.8322 7.34018C22.0109 7.29205 21.8756 6.78365 21.8876 6.11582C21.8996 5.51416 21.8966 4.91251 21.8876 4.31386C21.8485 2.50589 21.6409 2.32539 19.7607 2.25319C18.9485 2.22311 18.1273 2.15693 17.3331 2.0005C17.0322 1.94033 16.5449 1.51316 16.581 1.35071C16.6652 0.983703 16.948 0.53547 17.2759 0.370015C18.9064 -0.451244 21.7793 0.159436 23.109 1.48007C23.5662 1.93432 23.849 2.38556 23.7978 3.04738C23.7587 3.57082 23.7888 4.09727 23.7888 4.62371Z" fill="#002D36"/>
<path d="M0.219265 18.8228C0.240322 18.4648 0.129016 17.806 0.354637 17.2976C0.511067 16.9396 1.10971 16.729 1.55193 16.5876C1.64218 16.5575 2.06033 17.102 2.09342 17.4059C2.17464 18.2181 2.09342 19.0454 2.14155 19.8636C2.22578 21.3287 2.58076 21.6746 4.03375 21.7468C4.7768 21.7829 5.52586 21.7348 6.27191 21.7679C6.91267 21.7949 7.46018 22.0145 7.52034 22.7696C7.58051 23.5518 7.02699 23.8707 6.41029 23.8827C4.42483 23.9188 2.40628 24.1685 0.926209 22.2372C0.138041 21.2113 0.270405 20.1554 0.219265 18.8228Z" fill="#002D36"/>
</g>
<defs>
<clipPath id="clip0_53_6400">
<rect width="23.6149" height="24" fill="white" transform="translate(0.192383)"/>
</clipPath>
</defs>
</svg>
