<svg width="24" height="24" viewBox="0 0 24 24" fill="none" xmlns="http://www.w3.org/2000/svg">
<g clip-path="url(#clip0_53_6402)">
<path d="M21.1776 6.52801C21.1594 6.64382 21.0862 7.08878 21.007 7.53373C20.8729 8.28649 21.0771 8.68268 21.8725 9.06668C24.4142 10.2949 24.6733 12.8823 22.546 14.7078C22.2595 14.9547 21.9731 15.2381 21.6348 15.3813C20.9094 15.6892 20.7784 16.1219 21.1014 16.8198C21.2203 17.0758 21.1624 17.4202 21.1776 17.7219C21.266 19.584 20.3121 21.12 18.5902 21.6625C18.1574 21.7996 17.5693 21.6076 17.0999 21.437C15.6371 20.9036 15.5182 20.8366 14.8234 22.2172C14.3205 23.2198 13.6074 23.6617 12.5925 23.8873C11.023 24.2347 9.92888 23.805 9.0024 22.3939C8.83478 22.141 8.61535 21.9154 8.48126 21.6442C8.13688 20.9493 7.56392 20.7208 7.01231 21.2145C5.73535 22.3634 4.72659 21.5802 3.79402 20.8153C2.77307 19.9772 2.01421 18.9714 2.45002 17.4598C2.90107 15.8903 2.90411 15.7593 1.49611 15.0492C-0.314171 14.1379 0.0545909 12.5775 0.0484956 11.0964C0.0424004 9.79811 0.974972 9.29525 2.00811 9.01487C3.19973 8.69182 2.87364 7.88116 2.59631 7.22287C2.00811 5.83011 2.46831 4.73297 3.31554 3.6602C4.25726 2.46859 5.47021 2.41373 6.80812 2.73373C8.18869 3.06592 8.27097 3.09335 8.88354 1.8682C9.29192 1.05449 9.8984 0.60649 10.6664 0.2743C12.2146 -0.396177 13.9274 0.192014 14.7258 1.67011C15.2033 2.54986 15.9073 2.89017 16.8378 2.69106C19.2973 2.16382 21.2264 3.71811 21.1746 6.53106L21.1776 6.52801ZM7.31097 19.0751C9.09992 18.9989 9.76735 19.84 10.3494 20.8671C10.8401 21.7326 11.6965 22.1532 12.3609 21.7935C12.7845 21.5619 13.0954 21.0773 13.391 20.6568C14.3754 19.2549 15.5792 18.6911 17.3102 19.261C18.7548 19.7364 19.4618 19.0141 19.1845 17.5482C19.0748 16.9661 18.8035 16.3413 18.9194 15.8019C19.1418 14.7657 19.6051 13.8484 20.8058 13.4857C21.455 13.2907 21.9792 12.7665 21.967 11.9558C21.9578 11.1573 21.3026 11.1208 20.7693 10.8282C19.1906 9.97182 18.77 8.81678 19.151 6.90897C19.2089 6.61335 19.2454 6.30859 19.2424 6.00687C19.2363 4.85792 18.5872 4.27582 17.4839 4.6903C15.3567 5.49182 14.0554 4.66287 12.9734 2.88306C12.2298 1.65792 11.6203 1.67925 10.7274 2.73678C10.5811 2.91049 10.45 3.09639 10.319 3.28535C9.18526 4.92801 8.39897 5.23582 6.52469 4.76649C4.74488 4.32154 4.31516 4.80306 4.59554 6.62554C4.94907 8.92344 4.91554 9.63049 2.64507 10.8953C1.70945 11.4164 1.69726 12.8244 2.60545 13.4156C5.00392 14.976 5.05573 15.0949 4.51326 17.6945C4.25116 18.9501 5.02221 19.712 6.24735 19.3981C6.75021 19.2701 7.23783 19.0933 7.30488 19.072L7.31097 19.0751Z" fill="#002D36"/>
<path d="M11.0146 10.0601C11.0146 9.53595 10.9354 8.99348 11.0421 8.49062C11.1213 8.10967 11.4413 7.78053 11.6546 7.427C12.0661 7.6891 12.8036 7.92072 12.831 8.21633C12.9468 9.47195 12.9194 10.755 12.8005 12.0137C12.7457 12.5744 12.1727 12.9036 11.5998 12.678C11.3407 12.5775 11.0939 12.163 11.0512 11.8582C10.9659 11.27 11.0268 10.6605 11.0268 10.0601C11.0268 10.0601 11.0238 10.0601 11.0207 10.0601H11.0146Z" fill="#002D36"/>
<path d="M11.9221 14.4853C12.6505 14.4975 12.9461 14.8389 12.937 15.485C12.9278 16.1006 12.3396 16.7863 11.8185 16.5912C11.4132 16.4419 10.9682 15.9604 10.8646 15.549C10.7092 14.9211 11.3126 14.4518 11.9221 14.4853Z" fill="#002D36"/>
</g>
<defs>
<clipPath id="clip0_53_6402">
<rect width="23.9573" height="24" fill="white" transform="translate(0.0214844)"/>
</clipPath>
</defs>
</svg>
