<svg width="24" height="24" viewBox="0 0 24 24" fill="none" xmlns="http://www.w3.org/2000/svg">
<g clip-path="url(#clip0_53_6401)">
<path d="M12.1244 3.8671C16.5699 3.88382 20.2879 7.63809 20.1681 12.0836C20.0427 16.805 16.6229 20.1189 11.9377 20.0966C6.801 20.0743 3.80205 15.9549 3.82434 11.908C3.84943 7.56284 7.48942 3.71381 12.1244 3.8671ZM11.9098 18.1902C15.9094 18.363 18.1251 15.6706 18.3676 12.1198C18.5961 8.78081 15.5192 5.70939 12.1467 5.64529C8.31163 5.57282 5.75304 8.66933 5.63598 11.8857C5.53564 14.6895 7.90749 18.4215 11.907 18.1874L11.9098 18.1902Z" fill="#002D36"/>
<path d="M23.9223 11.9276C24.2206 15.2248 22.9608 17.7555 20.9736 20.013C20.6057 20.4311 20.1792 20.9662 19.58 20.5565C18.8916 20.0883 19.1926 19.4668 19.5856 18.9233C20.1123 18.1958 20.7924 17.5381 21.1519 16.7354C22.8939 12.8306 22.6347 9.08749 20.0315 5.598C19.8671 5.37781 19.7249 5.13254 19.527 4.94859C19.0226 4.48036 18.9473 4.03999 19.4936 3.54945C20.1179 2.98924 20.4914 3.47699 20.8816 3.8644C21.8654 4.84268 22.5706 5.99656 23.1336 7.26191C23.8276 8.81992 24.162 10.4169 23.9223 11.9276Z" fill="#002D36"/>
<path d="M0.00039984 11.5512C0.0784396 8.93968 1.02606 6.27239 3.0105 4.00645C3.36726 3.59674 3.83271 3.05325 4.40128 3.43509C5.01445 3.8448 4.90018 4.51928 4.50719 5.09343C4.04174 5.77349 3.45644 6.38945 3.09133 7.11689C1.25461 10.7987 1.37446 14.3969 3.71007 17.8501C3.98043 18.2487 4.32046 18.6055 4.549 19.0263C4.82771 19.5336 4.95592 20.1746 4.44588 20.5453C3.89402 20.9466 3.42021 20.5202 3.04952 20.0603C1.13198 17.6885 -0.0246844 15.0323 0.00039984 11.5512Z" fill="#002D36"/>
<path d="M11.2905 10.1242C11.2905 9.70892 11.285 9.29642 11.2905 8.88114C11.2989 8.32371 11.4996 7.95302 12.1462 8.00319C12.7092 8.04779 13.0548 8.3042 13.0604 8.89786C13.0687 9.79532 13.0743 10.6928 13.0492 11.5902C13.0325 12.2201 12.5865 12.3734 12.0514 12.3595C11.5525 12.3455 11.3072 12.0557 11.2933 11.5735C11.2794 11.0913 11.2905 10.6064 11.2877 10.1242H11.2905Z" fill="#002D36"/>
<path d="M12.0794 16.2392C11.4719 16.2475 11.1931 15.8434 11.1513 15.3389C11.104 14.7648 11.2963 14.16 11.9763 14.1321C12.5616 14.107 13.0187 14.4665 13.0577 15.1355C13.0995 15.8183 12.6759 16.1137 12.0794 16.2392Z" fill="#002D36"/>
</g>
<defs>
<clipPath id="clip0_53_6401">
<rect width="24" height="17.4084" fill="white" transform="translate(0 3.29578)"/>
</clipPath>
</defs>
</svg>
