<svg width="24" height="24" viewBox="0 0 24 24" fill="none" xmlns="http://www.w3.org/2000/svg">
<g clip-path="url(#clip0_53_6383)">
<path d="M6.97055 12.8091C7.62954 12.8091 8.29147 12.7738 8.94751 12.8149C10.1772 12.8914 11.1686 13.3945 11.7247 14.5536C12.063 15.2567 12.263 15.9392 13.3456 15.9893C14.1017 16.0246 13.984 16.8807 13.5898 17.3455C13.1397 17.878 13.2133 18.0604 13.5722 18.7252C14.2253 19.9314 13.9605 21.4347 13.7075 22.788C13.6104 23.3058 13.0632 23.8529 12.4601 23.8912C11.0451 23.9824 9.56531 24.3678 8.51211 22.7997C7.82959 21.7848 6.23802 21.9172 5.37016 22.8851C5.00243 23.294 4.89357 23.9677 4.11986 23.95C3.17256 23.9294 2.21645 24.0618 1.28387 23.8206C0.910246 23.7235 0.689603 23.4058 0.566044 23.0469C0.257144 22.1378 0.0276763 21.1994 0.186539 20.2462C0.383646 19.0606 0.945548 17.9368 0.401297 16.6718C0.215958 16.2393 0.695487 15.9069 1.21032 15.8981C1.74869 15.8892 2.23704 15.8628 2.27823 15.1273C2.37531 13.4269 3.67563 13.065 4.9936 12.8267C5.63199 12.712 6.30863 12.8061 6.96761 12.8061L6.97055 12.8091ZM7.15295 18.6576V18.6458C6.27038 18.6458 5.39076 18.6664 4.50819 18.6428C2.02228 18.5693 2.27234 19.596 2.26058 21.1876C2.25763 21.5671 2.34295 21.9319 2.78718 22.026C3.252 22.1261 3.79036 22.0643 3.85508 21.5465C4.0316 20.1285 5.02596 20.2962 5.98502 20.3109C6.79404 20.3227 7.60012 20.3109 8.40914 20.3109C9.32113 20.308 10.2243 20.2991 10.339 21.5553C10.3832 22.0231 10.7627 22.0819 11.148 22.1025C11.454 22.1172 11.7482 22.0849 11.8982 21.7848C12.569 20.4521 11.7041 18.7841 10.239 18.6752C9.21522 18.5987 8.18262 18.6605 7.15589 18.6605L7.15295 18.6576ZM7.12647 16.8012C7.85312 16.8012 8.57683 16.8012 9.30348 16.8042C9.77124 16.8042 10.1713 16.7159 10.2037 16.1305C10.2302 15.6686 10.1537 15.2567 9.66533 15.0596C8.05317 14.4095 6.38806 14.6272 4.75236 14.8625C4.06396 14.9625 4.04925 15.7304 4.12574 16.307C4.20517 16.9101 4.76413 16.7747 5.16717 16.7924C5.81733 16.8218 6.47337 16.8012 7.12647 16.8012Z" fill="#002D36"/>
<path d="M18.3708 5.98576e-05C21.4392 0.023595 23.9515 2.38594 23.8633 5.49552C23.7633 9.03168 21.445 11.1822 18.1736 11.1322C14.8317 11.0822 12.637 8.89342 12.5723 5.40433C12.5134 2.23884 15.0964 -0.0234753 18.3708 5.98576e-05ZM21.7245 5.52494C21.7392 3.30087 20.436 1.88582 18.3649 1.87993C16.0408 1.87111 14.7522 3.17143 14.6463 5.43374C14.5139 8.26091 16.3614 9.19349 18.1531 9.21997C19.8917 9.24644 21.9658 8.30798 21.7216 5.52494H21.7245Z" fill="#002D36"/>
<path d="M7.84145 0.903124C8.45043 0.953136 9.12706 0.78839 9.7478 1.08846C10.1979 1.30616 10.345 1.69744 10.2921 2.17697C10.242 2.64179 9.90078 2.75358 9.52128 2.76535C8.86229 2.78888 8.19742 2.73593 7.54432 2.80359C5.6821 2.99776 4.02581 3.50965 2.93437 5.27184C2.56075 5.87787 2.38424 6.43095 2.35187 7.08405C2.30775 8.03428 2.30775 8.98746 2.25773 9.93769C2.22243 10.6202 1.79291 11.035 1.14864 11.0821C0.507305 11.1292 0.260185 10.5879 0.210173 10.0701C-0.281124 5.02178 2.0518 1.12965 7.84145 0.903124Z" fill="#002D36"/>
<path d="M23.4598 15.5921C23.5569 17.8868 23.0862 19.8637 21.8035 21.5465C20.4973 23.2616 18.738 24.1589 16.5169 23.9618C16.0697 23.9206 15.6255 23.8941 15.549 23.3116C15.4696 22.6909 15.7932 22.3438 16.3433 22.1761C16.5493 22.1143 16.7787 22.1202 16.9964 22.0996C19.6412 21.8436 21.0621 20.1609 21.3063 17.5073C21.4063 16.4158 21.324 15.3067 21.3652 14.2065C21.3858 13.6063 21.5152 12.9032 22.2566 12.9297C22.9508 12.9532 23.4568 13.4327 23.4598 14.2359C23.4598 14.7507 23.4598 15.2626 23.4598 15.5892V15.5921Z" fill="#002D36"/>
<path d="M18.6733 7.20475C17.6348 7.36655 17.1758 6.7664 16.9964 5.89854C16.8934 5.41019 16.8846 4.88653 16.9317 4.38935C16.9875 3.80685 17.167 3.15375 17.8672 3.12433C18.4997 3.1008 18.991 3.53032 18.9116 4.22166C18.8204 5.0248 19.2175 5.25133 19.8883 5.30134C20.2972 5.3337 20.6237 5.58082 20.6414 5.9515C20.662 6.40455 20.3119 6.77817 19.9265 6.95763C19.5499 7.1312 19.0939 7.12826 18.6703 7.20475H18.6733Z" fill="#002D36"/>
</g>
<defs>
<clipPath id="clip0_53_6383">
<rect width="23.7264" height="24" fill="white" transform="translate(0.136719)"/>
</clipPath>
</defs>
</svg>
