<svg width="24" height="24" viewBox="0 0 24 24" fill="none" xmlns="http://www.w3.org/2000/svg">
<g clip-path="url(#clip0_53_6389)">
<path d="M0.00913235 11.7577C0.00913235 9.14777 -0.0140925 6.53497 0.0178417 3.92508C0.0439697 1.77387 1.24295 0.592308 3.37093 0.586502C7.94043 0.574889 12.5099 0.574889 17.0823 0.589405C19.0303 0.595211 19.7938 1.21648 20.2525 3.09769C20.7547 5.17051 20.4586 7.27526 20.4267 9.36841C20.418 9.90258 20.0522 10.2974 19.4164 10.2713C18.801 10.2451 18.4439 9.87355 18.4265 9.32196C18.3742 7.87331 18.4265 6.42175 18.3945 4.9702C18.3336 2.01773 18.4613 2.43288 15.7614 2.41836C13.1515 2.40385 10.5387 2.40094 7.92591 2.42998C6.6137 2.44449 6.57306 2.48513 6.56435 3.75379C6.54113 6.87173 6.56435 9.99257 6.55855 13.1105C6.55855 13.9089 6.6137 14.7188 6.48307 15.4969C6.33791 16.3649 6.59919 16.7249 7.46722 16.722C7.74592 16.722 8.04203 16.8062 8.29751 16.9194C8.65459 17.0791 8.84329 17.3955 8.79684 17.7932C8.75039 18.1968 8.49492 18.4784 8.09719 18.4958C7.01143 18.5451 5.92276 18.5422 4.837 18.5655C4.25928 18.5771 3.64673 18.4842 3.10965 18.6438C2.52613 18.818 1.82648 19.0387 1.88164 19.9241C1.93389 20.7805 2.45645 21.2741 3.20255 21.4163C3.9051 21.5528 4.6483 21.4715 5.37408 21.4802C6.24501 21.4918 7.11594 21.4918 7.98397 21.5034C8.49202 21.5121 8.79394 21.7473 8.80265 22.2901C8.80846 22.7837 8.60814 23.2133 8.11751 23.2424C6.2392 23.3498 4.33186 23.5298 2.48548 23.1785C1.08038 22.9259 0.0207448 21.2828 0.0120355 19.8109C-0.0053832 17.1284 0.00622924 14.443 0.00622924 11.7577H0.00913235ZM4.4654 9.56291H4.4596C4.4596 7.53945 4.4596 5.51888 4.4596 3.49542C4.4596 2.95834 4.38992 2.49965 3.69318 2.42707C2.7845 2.33127 2.11969 2.61287 1.9397 3.30671C1.85261 3.64928 1.87293 4.02378 1.87293 4.38377C1.87003 8.14039 1.86712 11.8941 1.87583 15.6507C1.87873 16.87 1.89906 16.87 3.09223 16.7162C4.43057 16.542 4.44799 16.5449 4.4596 15.1978C4.47702 13.3195 4.4654 11.4412 4.4654 9.56582V9.56291Z" fill="#002D36"/>
<path d="M10.46 20.0025C10.5529 19.1809 10.19 18.1851 10.9942 17.4158C11.3803 17.0471 10.9942 16.8323 10.8316 16.5246C10.3323 15.5811 10.4658 15.1775 11.4674 15.1137C12.0161 15.0788 12.0887 15.0237 12.2628 14.5214C12.9248 12.6228 13.9612 11.9493 15.973 11.9347C16.9136 11.926 17.8542 11.897 18.7919 11.9231C20.618 11.9754 21.5383 12.7186 21.8808 14.5301C22.0115 15.224 22.1944 15.2414 22.8563 15.134C23.6779 15.0033 24.1627 15.6623 23.7098 16.2662C23.1872 16.96 23.4863 17.471 23.6605 18.0458C23.9595 19.0299 24.0988 20.0286 23.9246 21.036C23.7621 21.9853 23.3498 22.9491 22.3773 23.2046C21.2799 23.492 19.9358 23.6865 19.2129 22.5253C18.5655 21.4831 17.6946 21.6718 16.7772 21.5644C15.8337 21.454 15.584 22.2611 15.0614 22.6704C13.7638 23.6865 11.8738 23.5878 10.8548 22.3511C10.5916 22.0318 10.459 21.2489 10.4571 20.0025H10.46ZM17.4913 18.098C16.2633 18.101 15.0353 18.0719 13.8102 18.1097C12.4806 18.1503 12.3819 18.278 12.3209 19.6454C12.3093 19.9328 12.3151 20.2231 12.3122 20.5105C12.3064 20.9547 12.3122 21.4047 12.8986 21.4773C13.4386 21.544 13.9554 21.5005 13.9467 20.7718C13.9379 20.0344 14.2747 19.747 14.9976 19.7586C16.3678 19.7819 17.741 19.7673 19.1113 19.7557C19.66 19.7499 20.0751 19.8602 20.2493 20.4844C20.4061 21.0389 20.6441 21.6863 21.4163 21.425C22.1654 21.1724 21.8315 20.4641 21.8692 19.9328C21.8896 19.6454 21.8344 19.3551 21.8373 19.0677C21.846 18.3129 21.4338 18.0777 20.7399 18.0922C19.6571 18.1155 18.5742 18.098 17.4913 18.098ZM17.2417 16.2662C17.8165 16.2691 18.3942 16.3039 18.9632 16.2575C19.4277 16.2197 20.1825 16.5071 20.2696 15.9207C20.3538 15.3575 20.0141 14.7014 19.7587 14.1295C19.6745 13.9408 19.2739 13.8073 19.0126 13.7985C17.8658 13.7579 16.7162 13.7492 15.5695 13.7782C14.7421 13.8014 14.2573 14.3269 14.0918 15.0933C13.9641 15.6914 14.0047 16.2749 14.8727 16.2662C15.6624 16.2575 16.452 16.2662 17.2417 16.2662Z" fill="#002D36"/>
</g>
<defs>
<clipPath id="clip0_53_6389">
<rect width="24" height="22.8446" fill="white" transform="translate(0 0.577759)"/>
</clipPath>
</defs>
</svg>
