<svg width="24" height="24" viewBox="0 0 24 24" fill="none" xmlns="http://www.w3.org/2000/svg">
<g clip-path="url(#clip0_53_6394)">
<path d="M0.0080544 11.8255C-0.252363 6.34287 5.14715 -0.475096 12.5968 0.0928367C19.4175 0.610902 24.0081 5.61979 23.997 12.0388C23.9859 18.8125 18.6446 23.9072 11.8792 23.9405C5.14161 23.9765 -0.174792 18.239 0.0080544 11.8255ZM1.78665 11.8532C1.70631 17.4217 6.11402 22.1785 12.0399 22.1619C17.6057 22.1452 22.0549 17.6766 22.1186 12.1108C22.1824 6.37888 17.5447 2.08199 12.3613 1.82434C6.41877 1.52791 1.6509 6.92742 1.78942 11.856L1.78665 11.8532Z" fill="#002D36"/>
<path d="M3.34155 12.9724C3.2335 12.2438 3.4773 11.5844 4.00367 10.95C4.7877 10.0081 5.88755 9.76984 6.83225 10.4929C7.15639 10.7422 7.41404 11.0802 7.71324 11.3628C7.80744 11.4515 7.94042 11.5567 8.05677 11.554C8.33381 11.554 8.2978 11.2991 8.31996 11.119C8.41416 10.4237 8.27564 9.88065 7.83237 9.23238C6.3696 7.09086 7.45283 4.82467 9.03473 3.87442C10.1373 3.21229 11.3369 3.24277 12.4202 3.64724C14.0021 4.24288 14.304 5.81093 13.2651 7.16843C13.1405 7.33188 12.9576 7.45655 12.8468 7.62831C12.7443 7.789 12.6002 8.02725 12.6529 8.16577C12.7581 8.45389 13.0878 8.41511 13.351 8.45943C13.8192 8.53701 14.0879 8.20733 14.4453 8.00232C15.7391 7.25708 17.0606 6.87753 18.5538 7.5923C20.5208 8.53424 21.3409 11.5817 19.9363 13.2162C19.4875 13.7371 18.7921 14.0473 18.069 13.9033C17.4761 13.7869 16.8999 13.5708 16.5508 12.9586C16.3763 12.6538 15.9441 12.507 15.6698 12.8117C15.3734 13.1414 14.9689 13.5487 15.4427 14.0584C15.584 14.2108 15.7557 14.3327 15.8887 14.4906C17.044 15.8703 17.1021 17.8123 16.0328 19.2031C14.9772 20.5772 12.6612 21.0232 11.1652 20.1395C9.74118 19.2973 9.59435 17.9619 10.7219 16.7125C10.9906 16.416 11.8827 16.3218 11.3979 15.7179C10.938 15.1444 10.4282 15.2691 9.72456 15.837C7.61351 17.5436 5.23096 17.0948 3.82637 15.0031C3.40804 14.3798 3.31107 13.7426 3.34155 12.9697V12.9724ZM11.927 10.2048C10.8383 10.227 10.1263 10.9002 10.1041 11.9307C10.0819 12.9724 11.0377 13.9088 12.0545 13.8396C12.9438 13.7786 13.8248 12.7757 13.7832 11.8726C13.7361 10.8198 13.0296 10.1854 11.927 10.2076V10.2048ZM14.9523 16.959C14.9523 16.754 14.9828 16.5435 14.9468 16.3468C14.8526 15.8592 14.6282 15.3771 14.1156 15.3079C13.5976 15.2386 13.4812 15.7373 13.4369 16.1418C13.3704 16.7596 12.808 17.0034 12.5254 17.4549C12.337 17.7569 11.6389 17.7652 11.9381 18.3359C12.1902 18.8124 12.6944 18.8817 13.1903 18.8263C14.2348 18.7099 14.9523 17.9481 14.9551 16.9618L14.9523 16.959ZM5.02872 13.6816C4.89851 14.2302 5.80444 14.5072 6.34743 14.9145C6.82117 15.2691 7.53871 15.2386 8.07062 14.8203C8.3255 14.6208 8.61085 14.3105 8.65518 14.0196C8.72167 13.5625 8.23408 13.6401 7.94042 13.5154C7.1841 13.1996 6.54136 12.7092 5.94296 12.1413C5.59389 11.8089 5.31962 12.0443 5.19772 12.4156C5.11461 12.6704 5.12015 12.953 5.02872 13.6816ZM11.2871 5.26516C10.2315 5.15711 9.62482 5.43693 9.20649 6.22926C8.79093 7.01605 8.95161 7.68926 9.39765 8.35139C9.7107 8.81405 10.0487 8.7808 10.3202 8.2849C10.708 7.57291 11.035 6.82767 11.6721 6.27359C11.8578 6.1129 12.0933 5.85803 11.9658 5.55328C11.794 5.14326 11.3923 5.28178 11.2871 5.26793V5.26516ZM18.7949 11.0719C18.8032 10.3184 18.4569 9.73936 17.7643 9.25731C16.8916 8.65336 16.1851 9.14926 15.4399 9.44847C15.1213 9.57591 15.1102 9.87511 15.3762 10.0857C16.1325 10.6758 17.08 10.9916 17.7366 11.7313C17.9166 11.9335 18.1632 12.0804 18.4486 11.8698C18.6923 11.6897 18.7339 11.4127 18.7921 11.0692L18.7949 11.0719Z" fill="#002D36"/>
</g>
<defs>
<clipPath id="clip0_53_6394">
<rect width="24" height="23.8809" fill="white" transform="translate(0 0.0595703)"/>
</clipPath>
</defs>
</svg>
