<svg width="24" height="24" viewBox="0 0 24 24" fill="none" xmlns="http://www.w3.org/2000/svg">
<g clip-path="url(#clip0_53_6387)">
<path d="M23.9835 12.2492C23.9835 13.6975 23.956 15.1488 23.9896 16.597C24.0538 19.4294 22.8499 21.5529 20.4698 23.0439C19.3454 23.7497 18.0897 23.9788 16.8003 23.988C13.5952 24.0155 10.3932 23.9819 7.18807 23.9972C2.66 24.0216 -0.0990106 20.1596 0.010983 16.7743C0.114866 13.6486 0.0232046 10.5199 0.0354261 7.39119C0.0537583 3.27865 2.95942 0.214109 7.12085 0.0796724C10.3962 -0.0242104 13.6838 -0.0272658 16.9592 0.0796724C21.0503 0.217164 23.9743 3.3642 23.9804 7.44008C23.9804 9.0411 23.9804 10.6452 23.9804 12.2462L23.9835 12.2492ZM1.99698 11.8734C1.99698 13.4745 1.99087 15.0724 1.99698 16.6734C2.0092 19.7777 3.88826 21.9226 6.93753 22.0326C10.2862 22.1517 13.6441 22.1395 16.9928 22.0448C20.0084 21.9562 22.1472 19.4355 22.0555 16.7132C21.9517 13.5936 22.0311 10.468 22.028 7.34231C22.028 6.58457 21.9486 5.88184 21.6247 5.13938C20.6715 2.93951 18.7955 2.17872 16.7056 2.06261C13.5921 1.89151 10.4543 1.89762 7.34084 2.04734C3.9402 2.20927 1.73116 4.45803 1.97865 7.98699C2.07031 9.27636 1.99392 10.5749 1.99698 11.8704V11.8734Z" fill="#002D36"/>
<path d="M11.9237 20.8132C6.04205 20.9079 3.3747 16.551 2.95917 12.1665C2.7453 9.92078 3.84218 7.55898 5.56847 5.8663C7.22143 4.24694 9.18604 3.33644 11.6578 3.24478C17.7839 3.02174 21.0928 7.8309 21.0531 12.1573C21.0165 16.3462 17.7411 21.1096 11.9237 20.8163V20.8132ZM12.0061 18.8761C16.247 19.2489 18.9541 15.451 18.9082 11.8946C18.8624 8.38087 15.9018 5.0444 11.8778 5.12995C7.92111 5.21244 5.03683 8.50309 5.09183 12.142C5.14682 15.6771 7.9761 19.2825 12.0031 18.8761H12.0061Z" fill="#002D36"/>
<path d="M16.6137 10.2508C16.6289 10.8099 16.2378 10.9566 15.8132 11.1949C14.6093 11.8701 14.5727 12.1971 15.5901 12.857C16.1767 13.239 16.9925 13.517 16.4823 14.3481C15.9781 15.17 15.2021 14.7636 14.4657 14.4703C13.928 14.2564 13.6438 13.8164 13.2252 13.5048C12.2964 12.8112 11.6701 12.7684 10.7993 13.5262C10.2218 14.0303 9.66573 14.5375 8.92022 14.7422C8.39164 14.8889 7.82639 14.9041 7.52085 14.3236C7.20004 13.7217 7.50863 13.3184 8.05249 13.0465C8.2572 12.9456 8.48941 12.8906 8.66968 12.7593C9.33269 12.2826 9.32047 11.8793 8.60246 11.3813C8.35803 11.2102 8.0311 11.1582 7.78667 10.9902C7.44753 10.758 7.31003 10.3883 7.4353 9.99415C7.59418 9.49612 8.06166 9.20586 8.49247 9.32196C9.11271 9.48695 9.73906 9.60917 10.2921 10.1286C11.6823 11.4363 12.162 11.4363 13.5369 10.2294C14.0808 9.75277 14.6827 9.49306 15.3212 9.3128C15.9568 9.13253 16.5739 9.64889 16.6076 10.2539L16.6137 10.2508Z" fill="#002D36"/>
</g>
<defs>
<clipPath id="clip0_53_6387">
<rect width="23.9847" height="24" fill="white" transform="translate(0.0078125)"/>
</clipPath>
</defs>
</svg>
