<svg width="24" height="24" viewBox="0 0 24 24" fill="none" xmlns="http://www.w3.org/2000/svg">
<g clip-path="url(#clip0_53_6390)">
<path d="M23.8417 11.9862C24.0575 19.444 18.0658 24.0387 11.9828 24C5.44059 23.9585 0.22067 18.8824 0.112786 12.1051C0.00766816 5.32225 5.6038 0.190854 11.8251 0.00551528C18.1128 -0.185356 24.4973 5.67356 23.8445 11.9862H23.8417ZM22.0879 11.9972C22.6633 6.81879 17.3742 1.6874 12.2262 1.78698C6.4558 1.89763 1.86936 6.06084 1.87212 12.0387C1.87212 17.8091 6.55262 22.1189 12.0464 22.1494C17.6287 22.1798 22.4669 17.4301 22.0907 11.9972H22.0879Z" fill="#002D36"/>
<path d="M20.5271 12.1189C20.9309 16.6141 16.7677 20.8077 11.9655 20.6611C7.15222 20.5145 3.5561 17.4661 3.45098 12.0027C3.34863 6.75517 7.73037 3.47716 11.9793 3.30842C15.9323 3.15074 21.1854 7.19224 20.5243 12.1189H20.5271ZM11.9129 5.10095C11.0554 5.05946 11.0582 5.30842 11.2352 6.07467C11.7304 8.20468 9.5561 10.1521 7.43991 9.59057C7.0471 9.48546 6.69856 9.20607 6.30298 9.11201C6.12594 9.07052 5.7276 9.26139 5.70271 9.39417C5.60312 9.93636 5.16052 10.6196 6.16744 10.8686C6.54641 10.9626 6.89219 11.2393 7.22414 11.4716C9.46757 13.0318 9.25181 14.5283 8.02636 16.0996C7.89911 16.26 7.72207 16.3817 7.58099 16.5311C7.0637 17.0871 7.34309 17.2835 7.93231 17.5159C8.50492 17.74 8.89496 17.881 9.31266 17.2393C9.63632 16.7413 10.0789 16.2268 10.5934 15.9585C12.1176 15.1646 13.6972 15.6929 14.7456 17.2669C14.9945 17.6376 15.1246 17.9391 15.6778 17.657C16.7124 17.1258 16.7843 16.9488 16.0844 16C14.9586 14.473 15.1633 12.6639 16.646 11.5491C17.0692 11.231 17.6225 11.0899 18.0872 10.816C18.3389 10.6694 18.7013 10.4287 18.7124 10.2157C18.74 9.69846 18.4385 9.25309 17.8548 9.27799C17.4593 9.29459 17.0775 9.52142 16.682 9.60994C15.2573 9.92806 14.054 9.45226 13.3182 8.26277C12.9614 7.68463 12.9475 6.82156 12.9779 6.0968C13.0167 5.18394 12.5768 5.03456 11.9102 5.09818L11.9129 5.10095ZM7.55333 7.89763C8.81751 7.92806 9.26564 7.44673 9.54226 6.80496C9.62525 6.61685 9.54226 6.20192 9.39289 6.0968C8.82304 5.70399 8.40533 6.0968 8.01253 6.48684C7.91847 6.57813 7.7691 6.61962 7.68611 6.71644C7.53397 6.89901 7.28224 7.12308 7.30437 7.29735C7.34586 7.61547 7.55886 7.91146 7.55333 7.89486V7.89763ZM7.13839 14.3983C7.13839 13.7012 6.29745 12.6556 5.82166 12.6445C5.67228 12.6418 5.37629 12.8769 5.38459 12.9765C5.44821 13.5684 5.52013 14.1743 5.7276 14.722C5.79123 14.8907 6.33065 15.0041 6.59621 14.9322C6.84517 14.8658 7.02221 14.5228 7.13562 14.3983H7.13839ZM18.7539 13.3029C18.7152 13.2171 18.6432 12.8741 18.433 12.686C18.3389 12.6003 17.9544 12.7911 17.7276 12.9101C16.9392 13.3222 17.1467 14.0387 17.2767 14.6805C17.3044 14.816 17.7359 15.0014 17.9212 14.946C18.6045 14.7496 18.812 14.1992 18.7539 13.3029ZM14.942 6.14383C14.4468 7.28905 15.0084 7.51035 15.4814 7.78145C16.0789 8.1217 16.4939 7.69846 16.9254 7.40524C17.0001 7.35268 17.0416 7.08435 17.0084 7.06222C16.3832 6.68601 15.7553 6.31533 15.0997 6.00275C15.0305 5.96955 14.7843 6.30427 14.9448 6.14383H14.942ZM11.8327 19.0429C12.1481 18.946 12.2919 18.9267 12.4081 18.8603C12.6737 18.7137 12.9254 18.5449 13.1827 18.3845C12.9254 18.0996 12.6847 17.798 12.4053 17.5352C12.3279 17.4606 12.1398 17.4993 12.0042 17.491C11.3735 17.4467 10.8092 17.7289 10.8064 18.3181C10.8064 18.5809 11.5367 18.8465 11.8327 19.0429Z" fill="#002D36"/>
<path d="M9.63363 12.1134C9.62533 10.3762 10.3307 9.55188 11.8411 9.53252C13.2381 9.51592 14.6848 10.7275 14.6903 11.9226C14.6986 13.1674 13.3459 14.5422 12.0624 14.592C10.8314 14.639 9.63639 13.4219 9.63086 12.1134H9.63363ZM12.0126 11.101C11.747 11.4412 11.4179 11.6819 11.44 11.8866C11.4649 12.1245 11.7636 12.4564 12.0043 12.5173C12.3667 12.6114 12.931 12.5809 12.8729 12.0304C12.8425 11.7372 12.3916 11.4883 12.0126 11.101Z" fill="#002D36"/>
</g>
<defs>
<clipPath id="clip0_53_6390">
<rect width="23.7759" height="24" fill="white" transform="translate(0.112305)"/>
</clipPath>
</defs>
</svg>
