<svg width="24" height="24" viewBox="0 0 24 24" fill="none" xmlns="http://www.w3.org/2000/svg">
<g clip-path="url(#clip0_53_6393)">
<path d="M0.00800473 12.0054C0.00800473 9.72403 -0.0169433 7.4399 0.0163207 5.15854C0.0468128 2.79125 1.69615 1.16963 4.05513 1.14191C5.64626 1.12528 7.23739 1.12528 8.82852 1.14468C10.9214 1.16963 12.1882 2.30338 12.6483 4.32694C12.8507 5.21675 12.9172 6.09271 12.9172 6.99083C12.9172 9.61869 12.9172 12.2493 12.9255 14.8772C12.9255 15.3623 12.9366 15.8446 12.9643 16.3297C12.9948 16.837 13.2471 17.2694 13.6185 17.5799C14.1591 18.0345 17.2526 17.8044 17.7876 17.3221C18.5194 16.6596 18.5887 15.4288 17.7571 14.8467C16.8313 14.2008 16.5513 13.4136 16.6372 12.3685C16.7232 11.3152 16.4183 10.4586 15.7973 9.51336C13.8181 6.49742 14.999 3.02964 18.8549 2.05113C20.1965 1.71294 22.5222 2.93817 23.2568 4.24932C24.4266 6.33387 24.2547 8.34912 22.4889 10.0262C21.7571 10.722 21.6989 11.4177 21.7516 12.2271C21.8237 13.3332 21.6962 14.3145 20.5735 14.855C19.8999 15.1793 20.1217 15.7864 20.0856 16.3048C19.9581 18.162 18.647 19.4759 16.823 19.5341C16.2713 19.5508 15.7169 19.5341 15.1625 19.5286C13.1722 19.5147 13.1972 19.5341 12.069 20.9839C11.1404 22.1759 9.95118 22.9104 8.36282 22.8661C7.11819 22.8328 5.87356 22.8716 4.62616 22.8578C1.79872 22.8273 0.0246367 21.0504 0.0107767 18.2313C-0.000311282 16.1551 0.0107767 14.0816 0.0107767 12.0054H0.00800473ZM5.50766 11.9915C5.50766 11.9915 5.50211 11.9915 5.49657 11.9915C5.49657 11.7143 5.49657 11.4399 5.49657 11.1627C5.49934 8.81204 5.5132 6.46415 5.50211 4.1135C5.50211 3.66166 5.64626 3.03519 4.96712 2.95757C4.23254 2.87441 3.46746 2.75521 2.78832 3.29853C1.69893 4.17448 1.71279 4.59028 2.93524 5.31654C3.16809 5.45514 3.42866 5.56602 3.61992 5.7462C3.86386 5.97905 4.10502 6.2618 3.92484 6.64711C3.79733 6.91876 3.55062 7.00469 3.26511 7.06845C1.78209 7.40109 1.89019 7.41772 1.75437 8.73997C1.61854 10.0511 2.4141 10.5723 3.32886 11.0712C3.79456 11.3262 4.16601 11.584 3.90267 12.1856C3.63933 12.7843 3.2069 13.0671 2.58874 12.7122C2.05374 12.4046 1.82367 12.5653 1.80703 13.1225C1.76823 14.5057 1.37183 16.0525 3.2956 16.6097C3.4148 16.6429 3.50627 16.7843 3.60329 16.8841C3.83891 17.1225 4.16878 17.3526 3.93593 17.7462C3.75575 18.0539 3.45638 18.2563 3.0877 18.2452C2.89366 18.2396 2.69408 18.1426 2.51112 18.0567C1.87911 17.7628 1.80149 18.1814 1.80426 18.6277C1.81258 19.6201 2.9297 20.8758 3.96365 21.0837C5.08077 21.3082 5.4938 21.0144 5.50211 19.8668C5.52429 17.2417 5.51043 14.6138 5.51043 11.9888L5.50766 11.9915ZM10.8687 14.4198C10.8687 13.8321 10.8909 13.4163 10.8632 13.0033C10.841 12.6596 10.6303 12.5376 10.306 12.6818C9.80426 12.9063 9.3552 12.9673 9.18888 12.2854C9.06968 11.7919 9.06137 11.3235 9.6518 11.0795C11.0406 10.5057 10.938 9.311 10.9103 8.12181C10.8937 7.48979 10.7994 7.02687 10.0233 7.06845C9.57141 7.0934 9.18611 6.95757 9.15284 6.42812C9.11958 5.91807 9.22214 5.45237 9.83753 5.32763C10.4501 5.20566 10.9352 4.88966 10.7745 4.21883C10.6275 3.60899 10.0898 3.19319 9.52706 2.96589C9.16393 2.82174 8.70932 2.9049 8.29352 2.89936C7.58389 2.8855 7.39816 3.20982 7.40648 3.93332C7.46469 8.90906 7.46469 13.8876 7.4841 18.8633C7.4841 19.3484 7.48964 19.8308 7.5035 20.3159C7.51736 20.7982 7.74189 21.056 8.25749 21.0976C9.81535 21.2195 11.1016 19.9222 10.8715 18.442C10.8188 18.1093 10.6664 17.943 10.3365 18.1121C9.71556 18.4281 9.24155 18.2978 9.0281 17.6326C8.84792 17.0726 9.19719 16.6818 9.68507 16.5099C10.7994 16.1135 11.0849 15.3235 10.8743 14.4253L10.8687 14.4198ZM16.7481 6.45307C16.6539 8.36852 17.5187 9.39693 19.2651 9.45237C20.7814 9.50227 22.0399 8.36852 22.1175 6.8855C22.1951 5.39693 20.8063 3.80857 19.4314 3.80857C18.2866 3.80857 16.8063 5.26665 16.7481 6.45307ZM18.4335 12.2133C18.4086 12.7344 18.4529 13.1724 19.1515 13.1835C19.9775 13.1973 19.9498 12.654 19.9692 12.0858C19.9914 11.4676 19.692 11.2431 19.1099 11.2348C18.3614 11.2237 18.4446 11.7476 18.4363 12.2133H18.4335Z" fill="#002D36"/>
<path d="M20.0775 6.5225C20.0498 6.85237 20.2105 7.72 19.3762 7.6507C18.722 7.59526 18.248 6.93553 18.3394 6.12887C18.3699 5.86553 18.381 5.5717 18.5085 5.34994C18.7137 4.99235 19.0518 4.68743 19.487 4.74287C19.9749 4.80663 20.0775 5.23075 20.0803 5.66595C20.0803 5.86831 20.0803 6.07343 20.0803 6.5225H20.0775Z" fill="#002D36"/>
</g>
<defs>
<clipPath id="clip0_53_6393">
<rect width="24" height="21.738" fill="white" transform="translate(0 1.13098)"/>
</clipPath>
</defs>
</svg>
