<svg width="48" height="48" viewBox="0 0 48 48" fill="none" xmlns="http://www.w3.org/2000/svg">
<path d="M24.1765 7.84868C25.9429 7.84593 27.686 8.01393 29.3817 8.54262C32.5388 9.52731 34.5644 11.6194 35.3948 14.8114C36.1271 17.6256 36.1285 20.4727 35.4071 23.2875C34.5445 26.6537 32.3797 28.8096 29.0265 29.6921C25.7152 30.5636 22.3744 30.565 19.0734 29.6352C15.7724 28.7054 13.6741 26.531 12.8684 23.1936C12.1196 20.0914 12.1326 16.981 13.1763 13.9399C14.1925 10.9776 16.3607 9.23725 19.3278 8.41851C20.9145 7.98033 22.5369 7.84113 24.1765 7.84868ZM18.2889 28.2713C18.4 27.5239 18.5029 26.8361 18.6044 26.149C18.8725 24.3326 19.1283 22.514 19.4128 20.7003C19.552 19.813 19.6432 18.8996 19.9278 18.0562C20.9036 15.1625 21.9561 12.2942 22.9779 9.41622C23.067 9.16593 23.1486 8.91359 23.2473 8.62353C22.9518 8.64753 22.7138 8.66399 22.4773 8.68662C21.1154 8.81553 19.7961 9.11108 18.5632 9.71999C16.3395 10.8178 15.0236 12.6459 14.39 14.9972C13.8051 17.1675 13.768 19.3742 14.0663 21.5883C14.2645 23.0599 14.6958 24.4601 15.5097 25.7204C16.2037 26.7936 17.1033 27.6439 18.2889 28.2727V28.2713ZM30.0009 28.2569C30.1175 28.1993 30.1977 28.165 30.2725 28.1218C31.8551 27.1961 32.9522 25.85 33.5687 24.1412C34.6274 21.2071 34.6357 18.2098 33.9438 15.2002C33.5337 13.4187 32.68 11.8786 31.2469 10.6992C29.8336 9.53622 28.1694 8.99382 26.3865 8.75588C25.9545 8.69828 25.5191 8.66536 25.0446 8.61668C25.0782 8.73942 25.0892 8.79359 25.1077 8.84571C25.9093 11.1024 26.7321 13.3522 27.5049 15.6185C27.9301 16.8651 28.504 18.0617 28.6816 19.3954C28.9827 21.6576 29.3468 23.9115 29.6848 26.1682C29.7877 26.8526 29.8926 27.5369 30.0016 28.2562L30.0009 28.2569ZM29.7342 28.3783C29.715 28.3282 29.6985 28.2747 29.6739 28.2247C28.2126 25.1945 26.7164 22.1794 25.3127 19.1225C24.963 18.3614 24.5557 18.074 23.7623 18.1927C23.5319 18.2276 23.4057 18.2784 23.3029 18.4937C22.022 21.168 20.7308 23.8368 19.4437 26.5083C19.1433 27.1316 18.8464 27.757 18.5495 28.3783C21.3047 29.9424 27.1148 29.9026 29.7342 28.3783ZM24.7196 16.7006C24.6764 13.9803 24.6345 11.304 24.592 8.62902H23.6992C23.654 11.328 23.6087 14.005 23.5628 16.7006H24.7196Z" fill="black"/>
<path d="M32.698 36.9614H31.6688C31.6688 36.6076 31.6708 36.2777 31.6688 35.9486C31.6653 35.5543 31.5824 35.4727 31.1792 35.47C30.5394 35.4652 29.8989 35.448 29.2599 35.4659C28.9897 35.4734 28.8649 35.3884 28.8292 35.1237C28.8073 34.9584 28.7449 34.798 28.6893 34.5943C29.5191 34.5943 30.3056 34.595 31.0914 34.5943C31.5858 34.5936 31.6674 34.5107 31.6681 34.0197C31.6681 33.8942 31.7106 33.7447 31.6571 33.648C31.5817 33.5102 31.4384 33.3134 31.3204 33.3107C30.3172 33.2839 29.3133 33.2956 28.2765 33.2956V36.9621H27.2109V32.4302C27.3207 32.424 27.4201 32.4137 27.5195 32.4137C28.845 32.4137 30.1698 32.4131 31.4953 32.4144C32.3188 32.4158 32.7591 32.8608 32.7618 33.6885C32.7618 33.803 32.7618 33.9168 32.7618 34.0313C32.7625 34.6286 32.7323 34.6862 32.2187 35.0297C32.9456 35.5303 32.6151 36.275 32.6987 36.9621L32.698 36.9614Z" fill="black"/>
<path d="M39.7917 36.9813C39.3988 36.9813 39.047 37.004 38.7014 36.9683C38.5917 36.9573 38.4655 36.8099 38.4004 36.6954C37.8409 35.7011 37.2964 34.6979 36.7396 33.7016C36.6841 33.6021 36.5785 33.5315 36.4962 33.4472C36.4249 33.5295 36.3364 33.6028 36.285 33.6961C35.9785 34.2529 35.6795 34.8145 35.3476 35.4323C35.8399 35.4323 36.2809 35.4584 36.717 35.4241C37.0537 35.398 37.2532 35.5098 37.3746 35.8163C37.4363 35.972 37.533 36.1132 37.6454 36.3176C36.9378 36.3176 36.2822 36.3176 35.626 36.3176C35.4662 36.3176 35.3044 36.332 35.1467 36.3141C34.9094 36.2881 34.7524 36.369 34.6701 36.596C34.5508 36.9237 34.3163 37.0293 33.9748 36.9909C33.719 36.9621 33.4571 36.9855 33.1245 36.9855C33.4105 36.5055 33.6621 36.0796 33.9172 35.6552C34.522 34.6472 35.1234 33.6371 35.7419 32.6373C35.8091 32.529 35.9771 32.4303 36.1046 32.4213C36.4797 32.3953 36.9268 32.2938 37.2148 32.4556C37.498 32.6147 37.6303 33.0543 37.8134 33.38C38.434 34.484 39.0484 35.5914 39.6635 36.6988C39.7053 36.7743 39.7355 36.8552 39.7924 36.982L39.7917 36.9813Z" fill="black"/>
<path d="M14.8555 36.984C14.4633 36.984 14.1293 37.0121 13.805 36.9703C13.672 36.9531 13.5163 36.8084 13.4436 36.6809C12.8807 35.6894 12.3376 34.6862 11.7821 33.6898C11.7307 33.5979 11.6395 33.5287 11.5661 33.4484C11.4921 33.5246 11.3968 33.589 11.3467 33.6788C11.0361 34.2363 10.7357 34.7993 10.3929 35.4322C10.7975 35.4322 11.1595 35.4747 11.5072 35.4226C12.0496 35.3403 12.3657 35.5563 12.544 36.0452C12.5707 36.1186 12.6153 36.1858 12.6845 36.3182C12.4171 36.3182 12.1867 36.3182 11.9556 36.3182C11.3618 36.3182 10.7673 36.3305 10.1735 36.312C9.94512 36.3051 9.80112 36.3744 9.72363 36.5815C9.59678 36.9209 9.35541 37.032 9.00295 36.9922C8.75609 36.9641 8.50375 36.9867 8.20752 36.9867C8.25552 36.8763 8.28089 36.7954 8.32341 36.7255C9.13803 35.3643 9.95746 34.0059 10.7687 32.6434C10.8653 32.4809 10.9675 32.3938 11.1705 32.4055C11.5456 32.4281 11.9899 32.3026 12.28 32.4638C12.5543 32.616 12.6743 33.0548 12.8525 33.3723C13.4724 34.477 14.0882 35.5838 14.7047 36.6898C14.7479 36.7673 14.7856 36.8475 14.8548 36.9847L14.8555 36.984Z" fill="black"/>
<path d="M25.2126 32.4233H26.3076C26.3076 32.5413 26.3076 32.6503 26.3076 32.7593C26.3076 33.6727 26.309 34.5854 26.3076 35.4988C26.3063 36.4231 25.7666 36.9744 24.845 36.982C24.0119 36.9888 23.1787 36.9888 22.3456 36.982C21.5028 36.9744 20.9495 36.4259 20.9426 35.5879C20.9351 34.6293 20.9412 33.6707 20.9433 32.712C20.9433 32.6243 20.9577 32.5358 20.9673 32.4323H22.037C22.037 32.5934 22.037 32.7388 22.037 32.8848C22.037 33.7982 22.0322 34.7109 22.037 35.6243C22.0391 36.0288 22.1707 36.1598 22.5712 36.1632C23.2672 36.1687 23.9639 36.1694 24.6599 36.1632C25.0768 36.1591 25.2112 36.0192 25.2126 35.6009C25.216 34.6766 25.2139 33.7523 25.2139 32.8272C25.2139 32.7038 25.2139 32.5804 25.2139 32.4247L25.2126 32.4233Z" fill="black"/>
<path d="M20.1364 32.4137V33.2949C19.9918 33.2949 19.8594 33.2949 19.7271 33.2949C18.7102 33.2949 17.6932 33.2949 16.677 33.2976C16.2608 33.299 16.1518 33.4087 16.149 33.8263C16.1456 34.3975 16.1463 34.9687 16.149 35.5399C16.1511 36.0076 16.2491 36.1077 16.7092 36.1084C17.7145 36.1104 18.7198 36.1084 19.725 36.1084C19.8491 36.1084 19.9739 36.1084 20.1234 36.1084V36.984C19.9945 36.984 19.8615 36.984 19.7284 36.984C18.6663 36.984 17.6034 36.9868 16.5412 36.9827C15.5874 36.9792 15.0512 36.4471 15.045 35.5015C15.0416 34.9303 15.0388 34.3591 15.0498 33.7879C15.0656 32.9719 15.6265 32.4179 16.4411 32.4137C17.6617 32.4083 18.8823 32.4124 20.1371 32.4124L20.1364 32.4137Z" fill="black"/>
</svg>
