<svg width="48" height="48" viewBox="0 0 48 48" fill="none" xmlns="http://www.w3.org/2000/svg">
<g clip-path="url(#clip0_26_73004)">
<path fill-rule="evenodd" clip-rule="evenodd" d="M23.9999 22.8884C23.9414 22.8884 23.8984 22.9323 23.898 22.9332C23.8954 22.9352 22.8599 23.9233 22.8599 23.9233C22.4781 24.2919 21.9712 24.1376 21.917 24.1196C21.917 24.1196 17.4909 22.9122 17.4903 22.9118C16.6456 22.657 16.4778 22.3822 16.3486 22.0484C16.3486 22.0484 16.2735 21.8407 16.0896 21.7864C16.0896 21.7864 10.6791 20.1981 10.6787 20.1981C10.4579 20.1299 10.3364 20.0676 10.2496 19.8995C10.2496 19.8995 9.95262 19.3765 9.95164 19.3751C9.88571 19.2498 9.76641 19.2365 9.7595 19.2355C9.35031 19.1802 9.23032 18.9521 9.17957 18.8549L8.93822 18.4311C8.86273 18.2998 8.75478 18.2887 8.75146 18.2883C8.5188 18.2735 8.40806 18.2149 8.31187 18.0568C8.31187 18.0568 8.07589 17.6644 8.07492 17.6624C7.95894 17.4482 7.99904 17.2947 8.05254 17.2038C8.1652 17.0171 8.37147 17.0029 8.45426 17H21.3919C21.7582 17 22.0542 17.111 22.2731 17.3305C22.4303 17.4872 22.5385 17.6915 22.5945 17.9377C22.5955 17.9435 22.6107 17.9949 22.7214 17.9949H25.2786C25.3893 17.9949 25.4045 17.9435 25.4055 17.9377C25.4615 17.6915 25.5697 17.4871 25.7269 17.3305C25.9457 17.111 26.2417 17 26.6081 17H39.5457C39.6285 17.0029 39.8348 17.0171 39.9474 17.2038C40.0009 17.2947 40.041 17.4482 39.925 17.6624C39.9241 17.6644 39.6881 18.0568 39.6881 18.0568C39.5919 18.2148 39.4812 18.2735 39.2485 18.2883C39.2452 18.2887 39.1372 18.2998 39.0617 18.4311L38.8204 18.8549C38.7696 18.9521 38.6496 19.1802 38.2405 19.2355C38.2335 19.2365 38.1142 19.2498 38.0483 19.3751C38.0473 19.3765 37.7504 19.8995 37.7504 19.8995C37.6636 20.0676 37.5421 20.13 37.3213 20.1981C37.3209 20.1981 31.9103 21.7864 31.9103 21.7864C31.7265 21.8407 31.6514 22.0484 31.6514 22.0484C31.5222 22.3822 31.3543 22.657 30.5097 22.9118C30.5091 22.9122 26.083 24.1196 26.083 24.1196C26.0288 24.1376 25.5218 24.2919 25.14 23.9233C25.14 23.9233 24.1046 22.9352 24.102 22.9332C24.1015 22.9323 24.0585 22.8884 24.0001 22.8884H23.9999H23.9999Z" fill="black"/>
<path fill-rule="evenodd" clip-rule="evenodd" d="M25.6407 17.9902C25.6859 17.7897 25.7724 17.6253 25.8967 17.501C26.0688 17.3287 26.3084 17.241 26.6077 17.241C26.6077 17.241 29.5017 17.241 32.5512 17.241C32.3468 17.3939 32.2396 17.5873 32.2324 17.6002C32.1635 17.7292 32.0775 17.8801 31.9752 18.0492H25.6197C25.6328 18.026 25.6407 17.9902 25.6407 17.9902L25.6407 17.9902L25.6407 17.9902ZM39.7134 17.5472C39.71 17.5525 39.4813 17.9331 39.4813 17.9331C39.4378 18.0045 39.411 18.0369 39.2327 18.0482C39.2317 18.0482 32.1942 18.0492 32.1942 18.0492C32.2729 17.9159 32.3405 17.795 32.3972 17.6896C32.3991 17.6859 32.6484 17.2416 33.091 17.2416L39.5389 17.241C39.6065 17.2439 39.6944 17.2515 39.7409 17.3282C39.7466 17.3386 39.7598 17.36 39.7598 17.3986C39.7598 17.4329 39.7489 17.4815 39.7134 17.5472H39.7134L39.7134 17.5472ZM38.8525 18.3121L38.6068 18.7436C38.5733 18.8075 38.5215 18.906 38.3573 18.9627C38.2201 18.997 37.947 18.9751 37.8525 18.9637L31.8656 18.5659C31.943 18.4512 32.0148 18.3407 32.0801 18.2359H38.9042C38.8864 18.2587 38.8688 18.2835 38.8525 18.3121V18.3121L38.8525 18.3121ZM37.8348 19.2627C37.8363 19.2609 37.5994 19.6781 37.55 19.7648C37.5378 19.781 37.4705 19.8542 37.2511 19.8252L31.5144 19.0556C31.593 18.9528 31.6675 18.8507 31.7373 18.7522L37.8315 19.1565C37.8404 19.1575 37.8661 19.1604 37.9027 19.1637C37.8777 19.1923 37.8549 19.2247 37.8348 19.2627L37.8348 19.2627L37.8348 19.2627ZM35.8617 20.3762C35.6457 20.4334 35.2233 20.3686 35.0766 20.3382C35.0766 20.3382 32.3781 19.7837 31.1346 19.5279C31.2208 19.4266 31.3036 19.3261 31.3822 19.2266L37.1433 19.9999L35.8616 20.3762H35.8616L35.8617 20.3762ZM33.9076 20.9496C33.6304 21.0239 33.2686 20.9039 33.2652 20.9029L33.2609 20.9015C33.2609 20.9015 33.2603 20.9011 33.2599 20.9011L30.6214 20.0871C30.7522 19.9543 30.8764 19.8223 30.9935 19.69L35.0389 20.5215C35.0478 20.5229 35.1306 20.54 35.247 20.5562L33.9075 20.9496H33.9076L33.9076 20.9496ZM31.8465 21.555C31.6592 21.6059 31.3831 21.4978 31.2915 21.4516C31.2915 21.4516 30.5855 21.1211 29.8605 20.782C30.0783 20.6033 30.2816 20.421 30.4711 20.2367L33.2073 21.0811C33.2125 21.083 33.2623 21.0992 33.3385 21.1164L31.8465 21.555L31.8465 21.555ZM31.4242 21.9679C31.3445 22.1723 31.2612 22.3827 30.6999 22.5936C30.4682 22.6656 30.1927 22.4608 30.1904 22.4584C30.1894 22.4575 29.5645 22.0102 28.853 21.5011C29.1421 21.3226 29.4241 21.1263 29.6977 20.912L31.2096 21.6197C31.2179 21.624 31.3738 21.7027 31.5627 21.7379C31.4724 21.8408 31.4315 21.9469 31.4242 21.9679H31.4242L31.4242 21.9679ZM29.3095 22.99L29.0988 23.0471C28.9214 23.0895 28.7049 22.9138 28.6357 22.8408C28.6357 22.8408 28.2956 22.487 27.8586 22.0307C28.1382 21.9041 28.4113 21.7626 28.678 21.6064L30.0792 22.609C30.0849 22.6137 30.1649 22.6737 30.2825 22.7247C29.9712 22.8094 29.3095 22.9899 29.3095 22.9899V22.99L29.3095 22.99ZM27.4569 23.4952C27.309 23.5186 27.1373 23.2757 27.0875 23.1852L26.6649 22.4699C27.0101 22.3704 27.3475 22.2512 27.6757 22.1107L28.4999 22.9709C28.5073 22.978 28.5985 23.0727 28.7307 23.1475L27.4569 23.4952L27.4569 23.4953L27.4569 23.4952ZM26.0539 23.8776C25.9543 23.9006 25.8703 23.8905 25.7981 23.8468C25.643 23.752 25.5915 23.5338 25.5885 23.521L25.373 22.7432C25.75 22.6908 26.1181 22.617 26.478 22.5218L26.925 23.2786C26.9404 23.3057 27.0311 23.4639 27.1671 23.5744L26.0539 23.8777L26.0539 23.8776L26.0539 23.8776ZM25.1447 23.5953C25.1447 23.5953 24.5452 23.0233 24.3419 22.8299C24.6272 22.82 24.9087 22.799 25.1851 22.7666L25.4057 23.5619C25.4119 23.5896 25.4558 23.7639 25.5783 23.9025C25.4094 23.8544 25.3582 23.8044 25.1447 23.5954V23.5953V23.5953ZM24.0937 22.648V20.2249H24.4805L25.1344 22.5842C24.7941 22.6232 24.4472 22.6447 24.0937 22.648V22.648ZM22.8653 22.5842L23.5196 20.2249H23.9064V22.6476C23.5522 22.6447 23.2055 22.6228 22.8653 22.5843V22.5842L22.8653 22.5842ZM22.6936 23.7491C22.6089 23.8315 22.5136 23.8776 22.4214 23.9025C22.5447 23.7634 22.5876 23.5885 22.5941 23.5615L22.8146 22.7675C23.0911 22.7995 23.3725 22.8203 23.6577 22.8299C23.4294 23.0471 22.6936 23.7491 22.6936 23.7491L22.6936 23.7491ZM22.4112 23.5196C22.4112 23.5219 22.3605 23.7496 22.2013 23.8468C22.1292 23.8905 22.0454 23.9006 21.9459 23.8776L20.8326 23.5743C20.9686 23.4633 21.0603 23.3052 21.076 23.2761C21.0755 23.2767 21.2646 22.9571 21.521 22.5223C21.881 22.6176 22.2497 22.6914 22.6267 22.7432L22.4112 23.5196H22.4112V23.5196ZM20.5428 23.4952L19.2691 23.1476C19.4012 23.0723 19.4929 22.9775 19.4998 22.9705C19.4998 22.9705 19.8639 22.5903 20.324 22.1107C20.6526 22.2508 20.9891 22.3707 21.3344 22.4703L20.9136 23.1833C20.8623 23.2757 20.6906 23.5186 20.5429 23.4952L20.5428 23.4952L20.5428 23.4952ZM18.9007 23.0471L17.7172 22.7247C17.8352 22.6733 17.9158 22.6127 17.9225 22.6075C17.9215 22.6084 18.5837 22.1345 19.3217 21.6065C19.5884 21.7621 19.8616 21.9041 20.1415 22.0307L19.364 22.8408C19.2948 22.9138 19.0783 23.0895 18.9007 23.0471V23.0471L18.9007 23.0471ZM17.2983 22.5936C16.7394 22.3827 16.6556 22.1727 16.5761 21.9689C16.5696 21.9508 16.5287 21.8422 16.4371 21.7379C16.6263 21.7021 16.7828 21.6236 16.793 21.6183C16.7915 21.6187 17.5491 21.265 18.3025 20.9121C18.5754 21.1263 18.8574 21.323 19.1466 21.5011L17.8112 22.4565C17.8069 22.4608 17.53 22.6666 17.2983 22.5936L17.2983 22.5936ZM16.1536 21.555C16.0972 21.5383 15.4699 21.354 14.6613 21.1164C14.7384 21.0992 14.7892 21.0821 14.7948 21.0801C14.7925 21.0811 17.0121 20.3962 17.529 20.2367C17.7185 20.4206 17.9219 20.6033 18.1396 20.7816L16.711 21.4502C16.6164 21.4978 16.3409 21.6059 16.1536 21.555H16.1536L16.1536 21.555ZM14.0936 20.9501C13.6537 20.8211 13.1899 20.6849 12.7525 20.5562C12.8691 20.54 12.9525 20.5229 12.9612 20.5209C12.9608 20.5215 15.8172 19.9342 17.0066 19.69C17.1242 19.8218 17.2475 19.9543 17.3783 20.0871L14.7369 20.9021C14.7309 20.9039 14.3707 21.0235 14.0935 20.9501H14.0935L14.0936 20.9501ZM12.1399 20.3768C11.5456 20.2015 11.0626 20.0601 10.8564 19.9999L16.6184 19.2266C16.6971 19.3256 16.7795 19.4261 16.8656 19.5276L12.9232 20.3382C12.7769 20.3686 12.3564 20.4335 12.1399 20.3768L12.1399 20.3768L12.1399 20.3768ZM10.749 19.8252C10.5312 19.8542 10.4627 19.7823 10.4502 19.7652L10.1635 19.2603C10.144 19.2227 10.1209 19.1913 10.097 19.1637C10.1337 19.1604 16.2634 18.7521 16.2634 18.7521C16.3333 18.8507 16.4072 18.9521 16.4859 19.0556L10.7491 19.8251L10.749 19.8252L10.749 19.8252ZM9.64297 18.9627C9.47859 18.906 9.42648 18.8074 9.3929 18.7436C9.29238 18.5727 9.16021 18.3174 9.09525 18.2359H15.9204C15.9859 18.3407 16.0571 18.4512 16.135 18.5659L10.1473 18.9637C10.0533 18.9752 9.78009 18.997 9.64295 18.9627V18.9627L9.64297 18.9627ZM8.76899 18.0492C8.60461 18.0369 8.56964 18.0174 8.51794 17.9325C8.5185 17.933 8.3034 17.5754 8.28626 17.5472C8.25059 17.4815 8.23883 17.4329 8.24036 17.3986C8.24438 17.3109 8.30396 17.2433 8.46087 17.241L14.9092 17.2415C15.3456 17.2415 15.603 17.6896 15.603 17.6896C15.6597 17.7949 15.7273 17.9159 15.8064 18.0491H8.76904L8.76899 18.0492L8.76899 18.0492ZM21.3919 17.241C21.6917 17.241 21.9308 17.3286 22.103 17.501C22.2273 17.6253 22.3136 17.7897 22.3595 17.9901C22.3595 17.9901 22.3687 18.0244 22.3805 18.0492H16.0251C15.9279 17.8896 15.7678 17.6001 15.7678 17.6001C15.7607 17.5873 15.6533 17.3939 15.449 17.241C18.4985 17.241 21.3919 17.241 21.3919 17.241L21.3919 17.241L21.3919 17.241ZM30.5952 18.4821V18.2359H31.8587C31.7944 18.3368 31.7242 18.4426 31.649 18.5517L30.5952 18.4821L30.5952 18.4821ZM30.5952 18.9327V18.6765L31.5178 18.7375C31.4497 18.8321 31.3768 18.9288 31.3008 19.0275L30.5952 18.9327H30.5952ZM30.5952 19.4175V19.1213L31.1658 19.198C31.0891 19.2928 31.0087 19.3885 30.9248 19.4851C30.7777 19.4547 30.6643 19.4317 30.5952 19.4175L30.5952 19.4175ZM30.5952 19.6085L30.7814 19.6465C30.7214 19.7128 30.6591 19.7799 30.5952 19.8462V19.6085ZM28.6701 20.2248H30.2124C30.0552 20.3811 29.6842 20.6834 29.672 20.6935C29.2969 20.5176 28.9312 20.3472 28.6702 20.2248H28.6701ZM27.0694 20.2248H28.2285L29.5069 20.823C29.2412 21.0264 28.968 21.213 28.6873 21.383C28.0703 20.9411 27.4203 20.4758 27.0694 20.2249V20.2248L27.0694 20.2248ZM26.1265 20.2248H26.7483L28.5106 21.4869C28.2538 21.6341 27.9899 21.7679 27.7208 21.8869C27.1405 21.2821 26.4415 20.5529 26.1265 20.2248V20.2248ZM25.3388 20.2248H25.8668L27.5367 21.966C27.2213 22.0975 26.8976 22.2093 26.5663 22.3032L25.3387 20.2248H25.3388ZM25.1213 20.2248L26.3792 22.3536C26.0348 22.4432 25.6821 22.5118 25.3223 22.5609L24.6746 20.2248H25.1213V20.2248ZM22.8785 20.2248H23.3251L22.6775 22.5609C22.3171 22.5118 21.9649 22.4432 21.6206 22.3542C22.0919 21.5569 22.7207 20.4919 22.8785 20.2248V20.2248ZM22.1328 20.2248H22.661L21.4334 22.3032C21.1022 22.2099 20.7788 22.0975 20.4628 21.9655C21.1325 21.2678 21.9383 20.4276 22.1328 20.2249L22.1328 20.2248V20.2248ZM21.2515 20.2248H21.8733L20.2795 21.8869C20.0099 21.7679 19.7466 21.6341 19.4889 21.4869C20.2538 20.9391 21.0511 20.3682 21.2515 20.2248V20.2248ZM18.3278 20.6935C18.3137 20.682 17.9443 20.3715 17.7874 20.2248H19.3295L18.3278 20.6935ZM19.7713 20.2248H20.9301L19.3124 21.3826C19.0314 21.213 18.7583 21.0264 18.493 20.823C19.1003 20.5386 19.6627 20.2757 19.7713 20.2248V20.2248V20.2248ZM17.4031 19.6085V19.8442C17.3398 19.7786 17.2783 19.7123 17.2188 19.6465C17.2928 19.6309 17.3547 19.6185 17.4031 19.6085ZM17.4031 19.1212V19.4175L17.0749 19.4851C16.9912 19.388 16.9111 19.2928 16.8345 19.198L17.4031 19.1212L17.4031 19.1212ZM17.4031 18.6765V18.9327L16.6994 19.0275C16.6233 18.9288 16.5511 18.8321 16.483 18.7375L17.4031 18.6765H17.4031H17.4031ZM17.4031 18.4821L16.3518 18.5517C16.276 18.4426 16.2062 18.3368 16.1419 18.2359H17.4031V18.4821H17.4031L17.4031 18.4821Z" fill="white"/>
<path fill-rule="evenodd" clip-rule="evenodd" d="M17.5931 20.0376C17.5921 20.0366 17.5913 20.0356 17.5903 20.0347V18.2368H30.4081V20.0356C30.4077 20.0366 30.4071 20.0366 30.4067 20.037L17.5931 20.0376L17.5931 20.0376L17.5931 20.0376Z" fill="url(#paint0_linear_26_73004)"/>
<path fill-rule="evenodd" clip-rule="evenodd" d="M18.442 18.524H18.3885L17.8408 19.7493H17.9892L17.9915 19.7423C18.0359 19.5931 18.093 19.4503 18.1484 19.3132C18.1484 19.3132 18.1563 19.2935 18.1599 19.2841C18.1734 19.2841 18.5699 19.2841 18.5835 19.2841C18.6407 19.4145 18.6993 19.5641 18.7621 19.7427L18.7646 19.7493H18.9693L18.442 18.5239V18.524L18.442 18.524ZM18.2014 19.1907C18.2126 19.1636 18.3563 18.8269 18.3735 18.7869C18.3903 18.8269 18.5369 19.1636 18.5485 19.1907C18.5197 19.1907 18.2294 19.1907 18.2013 19.1907H18.2014Z" fill="white"/>
<path fill-rule="evenodd" clip-rule="evenodd" d="M19.0283 19.6622L19.0329 19.6669C19.0976 19.7374 19.2434 19.7703 19.322 19.7703C19.579 19.7703 19.7589 19.6046 19.7589 19.3665C19.7589 19.1693 19.6096 19.1112 19.4653 19.0541C19.3371 19.0031 19.2152 18.9559 19.2152 18.8102C19.2152 18.6996 19.3024 18.6197 19.4219 18.6197C19.5174 18.6197 19.5896 18.6702 19.6262 18.7625L19.6287 18.7692H19.6613L19.7124 18.6145L19.7068 18.6092C19.637 18.5463 19.5296 18.5239 19.4531 18.5239C19.2136 18.5239 19.059 18.6577 19.059 18.8654C19.059 19.0769 19.2167 19.1383 19.3555 19.1936C19.4811 19.2421 19.5988 19.2888 19.5988 19.4341C19.5988 19.5689 19.4983 19.6751 19.3703 19.6751C19.2531 19.6751 19.1753 19.6246 19.0995 19.5008L19.0966 19.496H19.064L19.0283 19.6622V19.6622L19.0283 19.6622Z" fill="white"/>
<path fill-rule="evenodd" clip-rule="evenodd" d="M20.7258 18.5493H19.8247V18.6755L19.8363 18.6745C19.9397 18.6636 20.0397 18.6541 20.2027 18.6535C20.2027 18.675 20.2027 19.7533 20.2027 19.7533H20.3757C20.3757 19.7533 20.3757 18.6755 20.3757 18.6541C20.4981 18.6541 20.615 18.6611 20.7244 18.6745L20.7366 18.6759V18.5493H20.7258V18.5493Z" fill="white"/>
<path fill-rule="evenodd" clip-rule="evenodd" d="M21.3469 18.5239C20.9646 18.5239 20.6973 18.7816 20.6973 19.1498C20.6973 19.5212 20.9573 19.7703 21.3435 19.7703C21.7428 19.7703 22.0117 19.5103 22.0117 19.1236C22.0117 18.7092 21.6776 18.5239 21.3469 18.5239V18.5239ZM21.6669 19.5565C21.5819 19.6464 21.4751 19.6922 21.3482 19.6922C21.0684 19.6922 20.8875 19.4875 20.8875 19.1708C20.8875 18.8198 21.0703 18.6021 21.364 18.6021C21.5025 18.6021 21.6333 18.663 21.714 18.7649C21.8028 18.8783 21.8209 18.9965 21.8209 19.1379C21.8214 19.1455 21.8218 19.1541 21.8218 19.1622C21.8218 19.2774 21.775 19.4408 21.6669 19.5565L21.6669 19.5565L21.6669 19.5565Z" fill="white"/>
<path fill-rule="evenodd" clip-rule="evenodd" d="M23.2118 18.5493H23.1044C23.1044 18.5493 23.1044 19.4165 23.1044 19.4375C23.1034 19.4375 23.103 19.4375 23.1024 19.4375C23.0962 19.4303 22.2825 18.5493 22.2825 18.5493H22.1997V19.7494H22.3178C22.3178 19.7494 22.3178 18.8421 22.3178 18.8207C22.3188 18.8207 22.3193 18.8207 22.3203 18.8207C22.3266 18.8279 23.0619 19.6419 23.0619 19.6419L23.1541 19.7494H23.1597H23.2224V18.5493H23.2118H23.2118L23.2118 18.5493Z" fill="white"/>
<path fill-rule="evenodd" clip-rule="evenodd" d="M25.1509 18.5493H25.1085L24.8178 19.0764C24.8178 19.0764 24.6339 19.4118 24.6172 19.4418C24.4379 19.1427 24.2764 18.8279 24.1389 18.555L24.136 18.5493H24.075L24.0741 18.5593C24.0569 18.7365 23.9537 19.4589 23.9086 19.7375L23.9062 19.7494H24.0517V19.739C24.0517 19.57 24.0817 19.3179 24.1136 19.0507C24.1136 19.0507 24.1271 18.9326 24.1327 18.8855C24.1531 18.9245 24.3789 19.3532 24.4652 19.5299L24.5628 19.7309H24.5954L24.5981 19.7242C24.6986 19.4936 24.8402 19.2303 25.0342 18.8836C25.0617 19.0902 25.098 19.5032 25.1181 19.7399L25.1192 19.7494H25.3031L25.3014 19.7375C25.26 19.4465 25.2147 19.0612 25.1616 18.5593L25.1607 18.5493H25.151H25.1509V18.5493Z" fill="white"/>
<path fill-rule="evenodd" clip-rule="evenodd" d="M25.9738 18.524H25.9201L25.3721 19.7493H25.5212L25.5232 19.7423C25.5677 19.5917 25.625 19.4484 25.6808 19.3103C25.6808 19.3103 25.6877 19.2931 25.691 19.2841C25.7045 19.2841 26.101 19.2841 26.1149 19.2841C26.1732 19.4174 26.2332 19.5707 26.2932 19.7427L26.2957 19.7493H26.5007L25.9738 18.5239V18.524V18.524ZM25.7329 19.1907C25.7441 19.1636 25.888 18.8269 25.9051 18.7869C25.9223 18.8269 26.0684 19.1636 26.0802 19.1907C26.0513 19.1907 25.7612 19.1907 25.7329 19.1907Z" fill="white"/>
<path fill-rule="evenodd" clip-rule="evenodd" d="M27.0277 19.1565C27.2443 19.1127 27.3739 18.9894 27.3739 18.8226C27.3739 18.6393 27.2453 18.5493 26.98 18.5493H26.604V19.7494H26.7767C26.7767 19.7494 26.7767 19.1951 26.7767 19.1742C26.7902 19.1742 26.8195 19.1742 26.827 19.1742C26.8326 19.1812 26.9615 19.3328 26.9615 19.3328C26.9609 19.3322 27.1649 19.5961 27.1649 19.5961L27.2766 19.7494H27.2825H27.5027C27.5027 19.7494 27.0482 19.1818 27.0277 19.1565H27.0277L27.0277 19.1565ZM26.7766 19.0879C26.7766 19.0688 26.7766 18.6536 26.7766 18.6345C26.8478 18.6312 26.9582 18.6265 27.0182 18.636C27.1379 18.6555 27.1988 18.7255 27.1988 18.8431C27.1988 18.9636 27.1196 19.0517 26.9862 19.0784C26.9111 19.0936 26.8205 19.0908 26.7766 19.0879V19.0879Z" fill="white"/>
<path fill-rule="evenodd" clip-rule="evenodd" d="M28.373 18.5493H27.4717V18.6755L27.4834 18.6745C27.587 18.6636 27.6868 18.6541 27.8492 18.6535C27.8492 18.675 27.8492 19.7533 27.8492 19.7533H28.0233C28.0233 19.7533 28.0233 18.6755 28.0233 18.6541C28.1452 18.6541 28.2623 18.6611 28.3717 18.6745L28.3839 18.6759V18.5493H28.3731H28.373L28.373 18.5493Z" fill="white"/>
<path fill-rule="evenodd" clip-rule="evenodd" d="M28.5264 19.7495H28.6897V18.5493H28.5264V19.7495Z" fill="white"/>
<path fill-rule="evenodd" clip-rule="evenodd" d="M29.8486 18.5493C29.8486 18.5493 29.8486 19.4165 29.8486 19.4375C29.848 19.4375 29.8476 19.4375 29.8472 19.4375C29.8407 19.4303 29.0273 18.5493 29.0273 18.5493H28.9443V19.7494H29.0625C29.0625 19.7494 29.0625 18.8421 29.0625 18.8207C29.0635 18.8207 29.0639 18.8207 29.0645 18.8207C29.0708 18.8279 29.8071 19.6419 29.8071 19.6419L29.8993 19.7494H29.9667V18.5493H29.8486V18.5493Z" fill="white"/>
<path fill-rule="evenodd" clip-rule="evenodd" d="M14.1648 31.2675C14.1001 31.2636 14.0451 31.257 13.9864 31.257C13.9215 31.257 13.8631 31.2636 13.8045 31.2675C13.7054 30.9826 13.5817 30.6539 13.4443 30.3421H12.5732C12.453 30.6434 12.3293 30.9449 12.2335 31.2675C12.1854 31.2636 12.1478 31.257 12.1063 31.257C12.0618 31.257 12.0239 31.2636 11.9863 31.2675L13.0567 28.8728H13.1358L14.1648 31.2675H14.1648ZM35.893 31.2675H35.7896C35.752 31.2198 35.6831 31.1374 35.6115 31.0583L34.1288 29.42H34.0952V31.2674C34.0608 31.2636 34.03 31.2569 33.9986 31.2569C33.9646 31.2569 33.9333 31.2636 33.9027 31.2674V28.9237H34.0367L35.6662 30.6882H35.7008V28.9237C35.7315 28.9266 35.7622 28.9337 35.797 28.9337C35.8281 28.9337 35.8589 28.9266 35.8929 28.9237V31.2674L35.893 31.2675ZM33.1151 28.9237C33.1633 28.9266 33.2149 28.9338 33.2661 28.9338C33.3141 28.9338 33.3623 28.9266 33.4169 28.9237V31.2675C33.3623 31.2636 33.314 31.257 33.2661 31.257C33.2149 31.257 33.1632 31.2636 33.1151 31.2675V28.9237ZM32.0157 31.2741C31.9606 31.2708 31.9124 31.2636 31.864 31.2636C31.8129 31.2636 31.7616 31.2708 31.7135 31.2741V29.088C31.3673 29.088 31.158 29.1085 30.9616 29.129C30.9659 29.0947 30.9722 29.0604 30.9722 29.0265C30.9722 28.9919 30.9659 28.9613 30.9616 28.9237H32.7324C32.7289 28.9613 32.7225 28.9919 32.7225 29.0265C32.7225 29.0604 32.7289 29.0947 32.7324 29.129C32.5611 29.1085 32.3205 29.088 32.0157 29.088V31.2741H32.0157H32.0157ZM29.2361 28.9237H29.9635C30.4923 28.9237 30.7253 29.098 30.7253 29.4443C30.7253 29.8415 30.3688 30.0339 30.0221 30.0953L30.7289 30.9897L30.8937 31.1816L30.9584 31.2675C30.8868 31.2636 30.8249 31.257 30.7596 31.257C30.6946 31.257 30.6261 31.2636 30.5634 31.2675C30.4884 31.1611 30.4201 31.0645 30.3474 30.9687L29.943 30.4449L29.6685 30.1234H29.5385V31.2675C29.4832 31.2636 29.4354 31.257 29.3873 31.257C29.3356 31.257 29.2842 31.2636 29.2361 31.2675V28.9237L29.2361 28.9237ZM29.5385 29.9924C29.5861 29.9957 29.8056 30.0096 29.9808 29.9753C30.232 29.9243 30.4201 29.7524 30.4201 29.4856C30.4201 29.2489 30.2996 29.0947 30.0426 29.0532C29.916 29.0333 29.6819 29.0433 29.5386 29.0505V29.9925L29.5385 29.9924H29.5385ZM28.9984 31.2675C28.9328 31.2636 28.8787 31.257 28.8195 31.257C28.7546 31.257 28.6962 31.2636 28.6386 31.2675C28.5386 30.9826 28.4148 30.6539 28.2776 30.3421H27.4067C27.2863 30.6434 27.1624 30.9449 27.0667 31.2675C27.0186 31.2636 26.981 31.257 26.94 31.257C26.8955 31.257 26.8572 31.2636 26.82 31.2675L27.89 28.8728H27.9689L28.9984 31.2675ZM27.8456 29.3214L27.4715 30.1981H28.2264L27.8456 29.3214H27.8456ZM26.3845 28.9237C26.4739 29.7696 26.5702 30.613 26.6624 31.2675C26.6004 31.2636 26.5523 31.257 26.5012 31.257C26.4459 31.257 26.3914 31.2636 26.3402 31.2675C26.2821 30.5783 26.2123 29.8386 26.1645 29.4995C25.7666 30.2086 25.4715 30.7564 25.2658 31.2297H25.2282L25.0396 30.8421C24.8195 30.3906 24.5795 29.9449 24.3463 29.4995C24.2708 30.1672 24.1782 30.8454 24.1782 31.2675C24.134 31.2636 24.0958 31.257 24.0586 31.257C24.014 31.257 23.9758 31.2636 23.9349 31.2675C24.0237 30.7159 24.2295 29.2832 24.2639 28.9237H24.3532C24.6278 29.4691 24.9572 30.1124 25.3238 30.7192C25.6506 30.1325 25.9661 29.5372 26.3124 28.9237H26.3846H26.3845ZM22.5181 31.2675H22.4146C22.3773 31.2198 22.3084 31.1374 22.2367 31.0583L20.7542 29.42H20.72V31.2674C20.6858 31.2636 20.6546 31.2569 20.6238 31.2569C20.5898 31.2569 20.5591 31.2636 20.5279 31.2674V28.9237H20.662L22.2913 30.6882H22.326V28.9237C22.3567 28.9266 22.3875 28.9337 22.4215 28.9337C22.4522 28.9337 22.4835 28.9266 22.5181 28.9237V31.2674V31.2675H22.5181ZM17.5973 30.0953C17.5973 29.3448 18.1562 28.8728 18.8668 28.8728C19.5121 28.8728 20.1669 29.2213 20.1669 30.0438C20.1669 30.8078 19.6252 31.3088 18.8606 31.3088C18.1022 31.3088 17.5973 30.8288 17.5973 30.0953L17.5973 30.0953L17.5973 30.0953ZM19.6149 29.3175C19.4437 29.1019 19.176 28.9852 18.9008 28.9852C18.2976 28.9852 17.9338 29.441 17.9338 30.1362C17.9338 30.8325 18.359 31.195 18.8704 31.195C19.5945 31.195 19.8552 30.4482 19.8309 30.0715C19.8309 29.7877 19.7933 29.5471 19.6149 29.3175V29.3175L19.6149 29.3175ZM16.9204 31.2741C16.8653 31.2708 16.8176 31.2636 16.7693 31.2636C16.7176 31.2636 16.6659 31.2708 16.6185 31.2741V29.088C16.2718 29.088 16.0621 29.1085 15.867 29.129C15.8703 29.0947 15.8773 29.0604 15.8773 29.0265C15.8773 28.9919 15.8703 28.9613 15.867 28.9237H17.6372C17.6335 28.9613 17.627 28.9919 17.627 29.0265C17.627 29.0604 17.6335 29.0947 17.6372 29.129C17.4655 29.1085 17.2258 29.088 16.9204 29.088V31.2741ZM14.4054 30.8045C14.5389 31.024 14.6931 31.1611 14.9614 31.1611C15.2389 31.1611 15.4379 30.9311 15.4379 30.6607C15.4379 30.0234 14.3639 30.3049 14.3639 29.53C14.3639 29.0881 14.714 28.8728 15.1258 28.8728C15.29 28.8728 15.4897 28.9237 15.6159 29.0366C15.5748 29.1257 15.551 29.2213 15.5237 29.3176H15.4897C15.4175 29.1323 15.2667 29.0195 15.0643 29.0195C14.8273 29.0195 14.6321 29.1775 14.6321 29.42C14.6321 30.0511 15.7125 29.7973 15.7125 30.5273C15.7125 31.0174 15.3309 31.3088 14.8648 31.3088C14.6971 31.3088 14.4225 31.2369 14.3059 31.1097C14.3396 31.0102 14.357 30.9073 14.3708 30.8045H14.4054L14.4054 30.8045ZM13.012 29.3214L12.6385 30.1981H13.3929L13.0121 29.3214H13.012H13.012Z" fill="black"/>
</g>
<defs>
<linearGradient id="paint0_linear_26_73004" x1="21.2947" y1="16.4328" x2="26.7036" y2="21.8417" gradientUnits="userSpaceOnUse">
<stop stop-color="#339966"/>
<stop offset="1" stop-color="#004F32"/>
</linearGradient>
<clipPath id="clip0_26_73004">
<rect width="32" height="14.3087" fill="white" transform="translate(8 17)"/>
</clipPath>
</defs>
</svg>
