<svg width="48" height="48" viewBox="0 0 48 48" fill="none" xmlns="http://www.w3.org/2000/svg">
<g clip-path="url(#clip0_771_40401)">
<path d="M17.2954 26.1639C16.9201 26.275 16.6681 26.1281 16.5394 25.7252C16.4207 25.3533 16.4101 24.8782 16.5074 24.2999C16.5967 23.7766 16.7307 23.1658 16.9101 22.4671C16.3774 23.7733 16.0567 24.4435 15.9481 24.4786C15.7847 24.5309 15.6774 24.4753 15.6254 24.3119C15.5834 24.1802 15.6214 23.9923 15.7407 23.7488C16.1341 22.784 16.6101 21.648 17.1674 20.3398C17.2281 20.2095 17.3014 20.1301 17.3867 20.1029C17.5421 20.0533 17.8094 20.1949 18.1901 20.5277C18.4021 20.709 18.5267 20.8573 18.5634 20.9737C18.5907 21.0597 18.5961 21.1689 18.5787 21.3026C18.5427 21.6738 18.4747 22.2097 18.3734 22.9098C18.3461 23.0388 18.3447 23.1414 18.3694 23.2194C18.4041 23.3279 18.4707 23.3491 18.5694 23.2843C18.6867 23.1956 18.8154 23.0097 18.9561 22.7252C19.2474 22.1376 19.5827 21.2999 19.9641 20.2134C20.0201 20.0421 20.1921 19.8231 20.4794 19.5557C20.7667 19.2891 21.0054 19.1336 21.1967 19.0893C21.4581 19.0231 21.6161 19.0754 21.6701 19.2454C21.7174 19.393 21.7121 19.6848 21.6554 20.1215C21.5381 20.7997 21.4141 21.5778 21.2841 22.4559C21.2741 22.8257 21.3734 22.9779 21.5834 22.9111C21.6841 22.8787 21.7867 22.7695 21.8894 22.5829C22.0141 22.3553 22.1367 22.1111 22.2587 21.8504C22.3194 21.7201 22.4121 21.6347 22.5367 21.595C22.6994 21.5427 22.8047 21.5911 22.8521 21.7379C22.8747 21.8081 22.8414 21.9464 22.7534 22.1541C22.2667 23.3094 21.6981 24.1954 21.0481 24.8127C20.8914 24.9649 20.7314 25.0675 20.5687 25.1198C20.3281 25.1965 20.0987 25.1628 19.8821 25.0185C19.6954 24.8902 19.5654 24.7095 19.4907 24.4766C19.4534 24.3602 19.4381 24.2457 19.4454 24.1325C19.4861 23.7521 19.5561 23.2088 19.6561 22.5022C18.6441 24.773 17.8574 25.9938 17.2961 26.1645L17.2954 26.1639Z" fill="#231F20"/>
<path d="M33.6773 12.0517C33.8486 12.1086 33.976 12.2648 34.058 12.5209C34.182 12.9093 34.1626 13.2897 33.9986 13.6629C33.8353 14.0361 33.5713 14.2802 33.206 14.3967C32.9813 14.4682 32.7726 14.4735 32.5813 14.4099C32.3906 14.3464 32.2513 14.1797 32.164 13.9071C32.0573 13.5736 32.0766 13.2037 32.2213 12.7988C32.3573 12.4216 32.604 12.1761 32.962 12.0617C33.21 11.9823 33.448 11.9789 33.6773 12.0517Z" fill="#231F20"/>
<path d="M15.6373 24.0206C15.6293 24.0398 15.6247 24.0564 15.6233 24.0703C15.64 24.0233 15.646 24.0021 15.6373 24.0206ZM15.6533 20.8168C16.6613 17.9074 18.1507 14.6699 17.6947 14.5779C15.8147 14.1988 11.4387 20.2359 10.9093 21.6327C10.232 21.8417 9.49667 21.7848 8.98867 21.7848C8.608 21.7848 8.79467 22.8131 8.79467 22.8131C8.88267 23.2842 9.66334 23.1757 10.2973 22.9282C9.60334 24.4845 6.04134 28.7496 4.422 28.7496C4.30067 28.7496 4.494 31.307 3.44134 33.1557C1.872 35.9116 4.71534 31.3441 8.38334 27.7029C9.42334 26.6706 11.8913 22.8554 12.1133 22.5934C12.6007 22.4492 13.6493 22.1415 13.674 22.2189C13.674 22.2189 12.162 25.1892 12.6853 26.355C13.914 29.0937 15.9473 24.5328 16.0207 24.4057C16.256 23.9988 15.6033 24.2754 15.6233 24.0689C15.5213 24.3561 15.0093 25.6173 14.8227 24.9417C14.658 24.3468 14.8347 23.1347 15.2987 21.7147C15.3233 21.6386 16.3033 21.5361 16.3293 21.4593C16.3493 21.3984 16.5153 20.7718 16.5367 20.7103C16.5673 20.619 15.6227 20.9081 15.6547 20.8155L15.6533 20.8168ZM14.1033 21.196C13.4533 21.4037 13.2373 21.4368 12.448 21.5678C12.6713 20.8731 14.776 17.1869 15.39 16.8024C15.5327 16.7144 15.6507 16.6555 15.744 16.6258C15.9147 16.5715 16.0187 16.602 16.056 16.7184C16.0907 16.8269 16.0647 17.0016 15.9793 17.2425C15.7633 17.8499 14.1967 20.7771 14.1027 21.196H14.1033Z" fill="#231F20"/>
<path d="M40.0108 19.2017C39.1795 18.454 38.6475 17.1975 39.8668 15.2006C40.2975 14.4952 40.0508 13.8891 39.9915 13.7032C39.9695 13.6337 39.9348 13.5801 39.8895 13.5437C39.6108 13.3432 39.3675 13.2758 39.1575 13.3426C39.0255 13.3849 38.8875 13.4882 38.7435 13.6536C38.5995 13.819 38.4595 13.9824 38.3228 14.1452C38.1081 14.3841 37.8055 14.8426 37.4135 15.5208C37.2475 15.8034 37.0701 16.1196 36.8828 16.469C37.0148 16.027 37.0548 15.7286 37.0728 15.5777C37.2528 14.0142 36.1588 14.1889 36.0101 14.2888C35.8295 14.4099 35.6455 14.6368 35.1395 15.9145C34.8861 16.6225 34.1208 18.1305 33.9415 18.5063C33.7395 18.9212 33.5961 19.1415 33.5108 19.1693C33.4408 19.1918 33.3928 19.16 33.3648 19.0747C33.3055 18.8881 33.3195 18.4229 33.4061 17.6779C33.5021 16.8786 33.4708 16.3843 33.4495 16.1653C33.3048 14.705 32.3175 15.1774 32.0455 15.5883C31.9535 15.7279 31.8015 15.9681 31.5935 16.463C31.4115 16.8945 30.1241 20.0195 29.9035 20.3464C29.8608 20.4285 29.7875 20.5052 29.6815 20.5767C29.5768 20.6488 29.5001 20.6799 29.4541 20.6686C29.3075 20.6389 29.2428 20.4761 29.2595 20.1797C29.2615 20.0771 29.7121 17.6693 29.8441 17.0652C29.9521 17.0308 30.0901 16.9864 30.2575 16.9335C30.4248 16.8806 30.5348 16.8448 30.5901 16.827C30.7608 16.7727 30.8661 16.7138 30.9055 16.6503L31.0195 16.2824C31.0388 16.2083 31.0415 16.1521 31.0295 16.1137C30.9881 15.982 30.6408 16.021 29.9881 16.2295C30.0188 16.0316 30.0355 15.9363 30.0381 15.9443C30.0728 15.677 30.0601 15.4507 30.0008 15.2647C29.9461 15.0947 29.8401 14.9485 29.6815 14.828C29.5508 14.7414 29.4175 14.6567 29.2788 14.5726C29.1101 14.4727 28.9788 14.4377 28.8855 14.4668C28.7841 14.4992 28.7135 14.5984 28.6721 14.7652C28.4268 15.7928 28.2921 16.3611 28.2675 16.4716C28.2408 16.5484 28.1981 16.6562 28.1401 16.7945C27.6268 16.958 27.3521 17.1274 27.3135 17.302C27.2988 17.392 27.3021 17.4681 27.3221 17.5297C27.3841 17.7235 27.5388 17.7811 27.7881 17.7017C27.3815 18.6717 26.4075 20.8221 26.2748 20.9412C26.2101 20.7401 26.0941 20.5376 25.9261 20.3345C25.6468 19.9964 25.4935 19.8104 25.4661 19.7767C25.2715 19.4889 25.1568 19.2904 25.1215 19.1819C25.0875 19.0733 25.0988 18.9628 25.1561 18.8504C25.2141 18.7379 25.3701 18.6757 25.6228 18.6631C25.6641 18.6585 25.7035 18.6499 25.7428 18.638C25.8908 18.591 26.0108 18.4845 26.1035 18.319C26.1955 18.1536 26.2161 17.9902 26.1648 17.8281C26.0241 17.3887 25.6941 17.2518 25.1735 17.4178C24.8781 17.5125 24.5621 17.7414 24.2248 18.1047C23.8875 18.4679 23.6028 18.8914 23.3728 19.3744C22.8248 20.6064 22.4368 21.4937 22.2081 22.0363C22.1208 22.2262 22.1588 22.346 22.3228 22.3956C22.4921 22.4439 22.6241 22.3764 22.7201 22.1918C22.7461 22.1409 22.9568 21.6598 23.3501 20.748C23.6555 20.044 23.9001 19.5901 24.0835 19.3863C24.0875 19.6411 24.1635 19.9845 24.3095 20.4159C24.4808 20.8996 24.5781 21.245 24.6015 21.4501C24.1801 21.5248 23.8955 21.5857 23.7488 21.6327C23.4921 21.7147 23.2581 21.8537 23.0468 22.0496C22.7908 22.293 22.7255 22.6093 22.8495 22.9971C22.9241 23.23 23.0641 23.4411 23.2701 23.6316C23.6015 23.9446 24.1121 23.8923 24.8735 23.7481C26.4121 23.4563 27.6015 19.4247 27.7288 19.0819C27.4361 20.3888 27.3401 21.321 27.4408 21.8775C27.4788 22.1051 27.6148 22.2878 27.8475 22.4267C28.1055 22.5928 28.4128 22.6874 28.6888 22.5306C30.0188 21.7743 31.6415 18.2178 31.7815 17.8526C31.6215 18.9357 31.5341 19.5855 31.5188 19.8038C31.4848 20.2068 31.5135 20.5515 31.6048 20.8374C31.6495 20.977 31.7535 21.1014 31.9168 21.2112C32.1228 21.3502 32.3428 21.3826 32.5761 21.3078C32.9261 21.1967 33.3728 20.7341 33.9168 19.9209C34.4221 19.1719 35.2135 17.1856 35.4735 16.5616C35.2741 17.8129 35.1508 18.6036 35.1021 18.9351C35.1021 18.9602 35.0548 19.1633 34.9621 19.5431C34.9021 19.784 34.8935 19.9706 34.9355 20.1022C35.0261 20.3888 35.2121 20.488 35.4915 20.3987C35.7015 20.3318 35.9141 20.1552 36.1308 19.868C36.3475 19.5815 36.5068 19.2765 36.6088 18.9536C36.7115 18.6307 36.9161 18.1086 37.2248 17.3861C37.4935 16.7535 37.6795 16.338 37.7821 16.1388C37.8848 15.939 38.0035 15.8179 38.1355 15.7762C38.1895 15.759 38.2228 15.7696 38.2355 15.8086C38.2481 15.8477 38.2468 15.8993 38.2335 15.9635C37.9255 17.6256 38.5235 19.0674 38.8368 19.4895C38.4601 19.6067 38.0921 19.7469 37.7501 19.9071C36.1828 20.6442 8.45013 30.0088 12.6801 28.6967C18.0215 27.0406 16.9528 30.6659 17.8795 29.7461C19.8181 27.822 35.9375 21.1788 39.0821 19.8038C39.1081 19.7926 39.1348 19.7827 39.1608 19.7721C40.1755 20.4973 42.9981 21.7776 42.9981 19.9117C42.9981 19.0972 41.5815 18.9258 40.0088 19.2044L40.0108 19.2017ZM24.1141 22.8978C24.0601 22.915 24.0021 22.921 23.9401 22.915C23.7675 22.8846 23.6595 22.7999 23.6141 22.6596C23.5795 22.5511 23.6121 22.4386 23.7121 22.3215C23.7675 22.2527 24.0648 22.166 24.6048 22.0621C24.5335 22.5379 24.3701 22.8158 24.1141 22.8978ZM41.9421 20.1572C41.8701 20.1618 41.1561 19.9944 40.4681 19.5491C41.5248 19.5961 42.2695 20.1367 41.9421 20.1572Z" fill="#231F20"/>
</g>
<defs>
<clipPath id="clip0_771_40401">
<rect width="40" height="22" fill="white" transform="translate(3 12)"/>
</clipPath>
</defs>
</svg>
