<svg width="48" height="48" viewBox="0 0 48 48" fill="none" xmlns="http://www.w3.org/2000/svg">
<g clip-path="url(#clip0_26_72994)">
<path fill-rule="evenodd" clip-rule="evenodd" d="M8 23.8674C8 19.5224 15.1634 16 24 16C32.8366 16 40 19.5224 40 23.8674C40 28.2125 32.8366 31.7349 24 31.7349C15.1634 31.7349 8 28.2125 8 23.8674Z" fill="#DB1C30"/>
<path fill-rule="evenodd" clip-rule="evenodd" d="M25.0917 30.4682C24.8557 30.4682 24.6644 30.6595 24.6644 30.8954C24.6644 31.1314 24.8557 31.3227 25.0917 31.3227C25.3278 31.3227 25.5191 31.1314 25.5191 30.8954C25.5191 30.6595 25.3278 30.4682 25.0917 30.4682ZM24.0011 30.4682C23.7652 30.4682 23.5739 30.6595 23.5739 30.8954C23.5739 31.1314 23.7652 31.3227 24.0011 31.3227C24.2371 31.3227 24.4284 31.1314 24.4284 30.8954C24.4284 30.6595 24.2371 30.4682 24.0011 30.4682ZM22.895 30.4682C22.6591 30.4682 22.4678 30.6595 22.4678 30.8954C22.4678 31.1314 22.6591 31.3227 22.895 31.3227C23.131 31.3227 23.3224 31.1314 23.3224 30.8954C23.3224 30.6595 23.131 30.4682 22.895 30.4682ZM26.1824 30.4071C25.9464 30.4071 25.7552 30.5984 25.7552 30.8343C25.7552 31.0703 25.9464 31.2616 26.1824 31.2616C26.4183 31.2616 26.6096 31.0703 26.6096 30.8343C26.6096 30.5984 26.4183 30.4071 26.1824 30.4071ZM21.8045 30.4071C21.5685 30.4071 21.3772 30.5984 21.3772 30.8343C21.3772 31.0703 21.5685 31.2616 21.8045 31.2616C22.0404 31.2616 22.2317 31.0703 22.2317 30.8343C22.2317 30.5984 22.0404 30.4071 21.8045 30.4071ZM27.294 30.2984C27.0581 30.2984 26.8668 30.4897 26.8668 30.7256C26.8668 30.9616 27.0581 31.1529 27.294 31.1529C27.53 31.1529 27.7213 30.9616 27.7213 30.7256C27.7213 30.4897 27.53 30.2984 27.294 30.2984ZM20.6928 30.2984C20.4569 30.2984 20.2656 30.4897 20.2656 30.7256C20.2656 30.9616 20.4569 31.1529 20.6928 31.1529C20.9288 31.1529 21.1201 30.9616 21.1201 30.7256C21.1201 30.4897 20.9288 30.2984 20.6928 30.2984ZM28.4461 30.1699C28.2102 30.1699 28.0189 30.3612 28.0189 30.5972C28.0189 30.8331 28.2102 31.0244 28.4461 31.0244C28.6821 31.0244 28.8734 30.8331 28.8734 30.5972C28.8734 30.3612 28.6821 30.1699 28.4461 30.1699ZM19.5408 30.1699C19.3048 30.1699 19.1135 30.3612 19.1135 30.5972C19.1135 30.8331 19.3048 31.0244 19.5408 31.0244C19.7767 31.0244 19.968 30.8331 19.968 30.5972C19.968 30.3612 19.7767 30.1699 19.5408 30.1699ZM29.5982 29.9798C29.3622 29.9798 29.171 30.1711 29.171 30.4071C29.171 30.643 29.3622 30.8343 29.5982 30.8343C29.8342 30.8343 30.0254 30.643 30.0254 30.4071C30.0254 30.1711 29.8342 29.9798 29.5982 29.9798ZM18.3887 29.9798C18.1527 29.9798 17.9614 30.1711 17.9614 30.4071C17.9614 30.643 18.1527 30.8343 18.3887 30.8343C18.6247 30.8343 18.816 30.643 18.816 30.4071C18.816 30.1711 18.6247 29.9798 18.3887 29.9798ZM30.7474 29.7278C30.5113 29.7278 30.32 29.9191 30.32 30.1551C30.32 30.391 30.5113 30.5823 30.7474 30.5823C30.9833 30.5823 31.1746 30.391 31.1746 30.1551C31.1746 29.9191 30.9833 29.7278 30.7474 29.7278ZM17.2395 29.7278C17.0036 29.7278 16.8123 29.9191 16.8123 30.1551C16.8123 30.391 17.0036 30.5823 17.2395 30.5823C17.4755 30.5823 17.6668 30.391 17.6668 30.1551C17.6668 29.9191 17.4755 29.7278 17.2395 29.7278ZM31.9314 29.4439C31.6953 29.4439 31.504 29.6352 31.504 29.8711C31.504 30.1071 31.6953 30.2984 31.9314 30.2984C32.1673 30.2984 32.3586 30.1071 32.3586 29.8711C32.3586 29.6352 32.1673 29.4439 31.9314 29.4439ZM16.0555 29.4439C15.8195 29.4439 15.6283 29.6352 15.6283 29.8711C15.6283 30.1071 15.8195 30.2984 16.0555 30.2984C16.2915 30.2984 16.4828 30.1071 16.4828 29.8711C16.4828 29.6352 16.2915 29.4439 16.0555 29.4439ZM33.0428 29.0882C32.8068 29.0882 32.6155 29.2795 32.6155 29.5155C32.6155 29.7514 32.8068 29.9427 33.0428 29.9427C33.2787 29.9427 33.47 29.7514 33.47 29.5155C33.47 29.2795 33.2787 29.0882 33.0428 29.0882ZM14.9441 29.0882C14.7081 29.0882 14.5169 29.2795 14.5169 29.5155C14.5169 29.7514 14.7081 29.9427 14.9441 29.9427C15.1801 29.9427 15.3714 29.7514 15.3714 29.5155C15.3714 29.2795 15.1801 29.0882 14.9441 29.0882ZM34.196 28.6401C33.9601 28.6401 33.7688 28.8313 33.7688 29.0673C33.7688 29.3033 33.9601 29.4945 34.196 29.4945C34.432 29.4945 34.6233 29.3033 34.6233 29.0673C34.6233 28.8313 34.432 28.6401 34.196 28.6401ZM13.7908 28.6401C13.5548 28.6401 13.3635 28.8313 13.3635 29.0673C13.3635 29.3033 13.5548 29.4945 13.7908 29.4945C14.0267 29.4945 14.218 29.3033 14.218 29.0673C14.218 28.8313 14.0267 28.6401 13.7908 28.6401ZM35.3146 28.1142C35.0786 28.1142 34.8873 28.3055 34.8873 28.5414C34.8873 28.7774 35.0786 28.9687 35.3146 28.9687C35.5507 28.9687 35.742 28.7774 35.742 28.5414C35.742 28.3055 35.5507 28.1142 35.3146 28.1142ZM12.6722 28.1142C12.4362 28.1142 12.2449 28.3055 12.2449 28.5414C12.2449 28.7774 12.4362 28.9687 12.6722 28.9687C12.9082 28.9687 13.0994 28.7774 13.0994 28.5414C13.0994 28.3055 12.9082 28.1142 12.6722 28.1142ZM36.4233 27.4661C36.1874 27.4661 35.9961 27.6574 35.9961 27.8933C35.9961 28.1293 36.1874 28.3206 36.4233 28.3206C36.6593 28.3206 36.8506 28.1293 36.8506 27.8933C36.8506 27.6574 36.6593 27.4661 36.4233 27.4661ZM11.5635 27.4661C11.3276 27.4661 11.1363 27.6574 11.1363 27.8933C11.1363 28.1293 11.3276 28.3206 11.5635 28.3206C11.7995 28.3206 11.9908 28.1293 11.9908 27.8933C11.9908 27.6574 11.7995 27.4661 11.5635 27.4661ZM37.478 26.6748C37.242 26.6748 37.0507 26.8661 37.0507 27.102C37.0507 27.338 37.242 27.5293 37.478 27.5293C37.7139 27.5293 37.9052 27.338 37.9052 27.102C37.9052 26.8661 37.7139 26.6748 37.478 26.6748ZM10.5088 26.6748C10.2729 26.6748 10.0816 26.8661 10.0816 27.102C10.0816 27.338 10.2729 27.5293 10.5088 27.5293C10.7448 27.5293 10.9361 27.338 10.9361 27.102C10.9361 26.8661 10.7448 26.6748 10.5088 26.6748ZM38.3739 25.6861C38.138 25.6861 37.9467 25.8774 37.9467 26.1133C37.9467 26.3493 38.138 26.5406 38.3739 26.5406C38.6099 26.5406 38.8012 26.3493 38.8012 26.1133C38.8012 25.8774 38.6099 25.6861 38.3739 25.6861ZM9.61289 25.6861C9.37693 25.6861 9.18564 25.8774 9.18564 26.1133C9.18564 26.3493 9.37693 26.5406 9.61289 26.5406C9.84886 26.5406 10.0401 26.3493 10.0401 26.1133C10.0401 25.8774 9.84886 25.6861 9.61289 25.6861ZM38.9329 24.6239C38.697 24.6239 38.5057 24.8152 38.5057 25.0512C38.5057 25.2871 38.697 25.4784 38.9329 25.4784C39.169 25.4784 39.3603 25.2871 39.3603 25.0512C39.3603 24.8152 39.169 24.6239 38.9329 24.6239ZM9.05385 24.6239C8.81789 24.6239 8.6266 24.8152 8.6266 25.0512C8.6266 25.2871 8.81789 25.4784 9.05385 25.4784C9.28982 25.4784 9.48111 25.2871 9.48111 25.0512C9.48111 24.8152 9.28982 24.6239 9.05385 24.6239ZM39.1656 23.4403C38.9296 23.4403 38.7384 23.6315 38.7384 23.8675C38.7384 24.1035 38.9296 24.2947 39.1656 24.2947C39.4016 24.2947 39.5928 24.1035 39.5928 23.8675C39.5928 23.6315 39.4016 23.4403 39.1656 23.4403ZM8.82131 23.4403C8.58535 23.4403 8.39406 23.6315 8.39406 23.8675C8.39406 24.1035 8.58535 24.2947 8.82131 24.2947C9.05728 24.2947 9.24856 24.1035 9.24856 23.8675C9.24856 23.6315 9.05728 23.4403 8.82131 23.4403ZM38.9329 22.2566C38.697 22.2566 38.5057 22.4479 38.5057 22.6838C38.5057 22.9198 38.697 23.111 38.9329 23.111C39.169 23.111 39.3603 22.9198 39.3603 22.6838C39.3603 22.4479 39.169 22.2566 38.9329 22.2566ZM9.05384 22.2566C8.81788 22.2566 8.62659 22.4479 8.62659 22.6838C8.62659 22.9198 8.81788 23.111 9.05384 23.111C9.28981 23.111 9.4811 22.9198 9.4811 22.6838C9.4811 22.4479 9.28981 22.2566 9.05384 22.2566ZM38.3739 21.1944C38.138 21.1944 37.9467 21.3857 37.9467 21.6217C37.9467 21.8576 38.138 22.0489 38.3739 22.0489C38.6099 22.0489 38.8012 21.8576 38.8012 21.6217C38.8012 21.3857 38.6099 21.1944 38.3739 21.1944ZM9.6129 21.1944C9.37694 21.1944 9.18565 21.3857 9.18565 21.6217C9.18565 21.8576 9.37694 22.0489 9.6129 22.0489C9.84887 22.0489 10.0402 21.8576 10.0402 21.6217C10.0402 21.3857 9.84887 21.1944 9.6129 21.1944ZM37.478 20.2057C37.242 20.2057 37.0507 20.397 37.0507 20.6329C37.0507 20.8689 37.242 21.0602 37.478 21.0602C37.7139 21.0602 37.9052 20.8689 37.9052 20.6329C37.9052 20.397 37.7139 20.2057 37.478 20.2057ZM10.5088 20.2057C10.2729 20.2057 10.0816 20.397 10.0816 20.6329C10.0816 20.8689 10.2729 21.0602 10.5088 21.0602C10.7448 21.0602 10.9361 20.8689 10.9361 20.6329C10.9361 20.397 10.7448 20.2057 10.5088 20.2057ZM36.4233 19.4144C36.1874 19.4144 35.9961 19.6057 35.9961 19.8417C35.9961 20.0776 36.1874 20.2689 36.4233 20.2689C36.6593 20.2689 36.8506 20.0776 36.8506 19.8417C36.8506 19.6057 36.6593 19.4144 36.4233 19.4144ZM11.5635 19.4144C11.3276 19.4144 11.1363 19.6057 11.1363 19.8417C11.1363 20.0776 11.3276 20.2689 11.5635 20.2689C11.7995 20.2689 11.9908 20.0776 11.9908 19.8417C11.9908 19.6057 11.7995 19.4144 11.5635 19.4144ZM35.3146 18.7663C35.0786 18.7663 34.8873 18.9576 34.8873 19.1935C34.8873 19.4295 35.0786 19.6207 35.3146 19.6207C35.5507 19.6207 35.742 19.4295 35.742 19.1935C35.742 18.9576 35.5507 18.7663 35.3146 18.7663ZM12.6722 18.7663C12.4362 18.7663 12.2449 18.9576 12.2449 19.1935C12.2449 19.4295 12.4362 19.6207 12.6722 19.6207C12.9082 19.6207 13.0995 19.4295 13.0995 19.1935C13.0995 18.9576 12.9082 18.7663 12.6722 18.7663ZM34.196 18.2405C33.9601 18.2405 33.7688 18.4318 33.7688 18.6677C33.7688 18.9037 33.9601 19.095 34.196 19.095C34.432 19.095 34.6233 18.9037 34.6233 18.6677C34.6233 18.4318 34.432 18.2405 34.196 18.2405ZM13.7908 18.2405C13.5548 18.2405 13.3635 18.4318 13.3635 18.6677C13.3635 18.9037 13.5548 19.095 13.7908 19.095C14.0267 19.095 14.218 18.9037 14.218 18.6677C14.218 18.4318 14.0267 18.2405 13.7908 18.2405ZM33.0428 17.7923C32.8068 17.7923 32.6155 17.9836 32.6155 18.2195C32.6155 18.4555 32.8068 18.6468 33.0428 18.6468C33.2787 18.6468 33.47 18.4555 33.47 18.2195C33.47 17.9836 33.2787 17.7923 33.0428 17.7923ZM14.9441 17.7923C14.7082 17.7923 14.5169 17.9836 14.5169 18.2195C14.5169 18.4555 14.7082 18.6468 14.9441 18.6468C15.1801 18.6468 15.3714 18.4555 15.3714 18.2195C15.3714 17.9836 15.1801 17.7923 14.9441 17.7923ZM23.9934 17.6023C16.0454 17.6023 9.60231 20.4073 9.60231 23.8675C9.60231 27.3277 16.0454 30.1327 23.9934 30.1327C31.9415 30.1327 38.3845 27.3277 38.3845 23.8675C38.3845 20.4073 31.9415 17.6023 23.9934 17.6023ZM31.9314 17.4366C31.6953 17.4366 31.504 17.6279 31.504 17.8639C31.504 18.0998 31.6953 18.2911 31.9314 18.2911C32.1673 18.2911 32.3586 18.0998 32.3586 17.8639C32.3586 17.6279 32.1673 17.4366 31.9314 17.4366ZM16.0555 17.4366C15.8196 17.4366 15.6283 17.6279 15.6283 17.8639C15.6283 18.0998 15.8196 18.2911 16.0555 18.2911C16.2915 18.2911 16.4828 18.0998 16.4828 17.8639C16.4828 17.6279 16.2915 17.4366 16.0555 17.4366ZM30.7474 17.1526C30.5113 17.1526 30.32 17.3439 30.32 17.5799C30.32 17.8158 30.5113 18.0071 30.7474 18.0071C30.9833 18.0071 31.1746 17.8158 31.1746 17.5799C31.1746 17.3439 30.9833 17.1526 30.7474 17.1526ZM17.2396 17.1526C17.0036 17.1526 16.8123 17.3439 16.8123 17.5799C16.8123 17.8158 17.0036 18.0071 17.2396 18.0071C17.4755 18.0071 17.6668 17.8158 17.6668 17.5799C17.6668 17.3439 17.4755 17.1526 17.2396 17.1526ZM29.5982 16.9007C29.3622 16.9007 29.171 17.0919 29.171 17.3279C29.171 17.5639 29.3622 17.7551 29.5982 17.7551C29.8342 17.7551 30.0254 17.5639 30.0254 17.3279C30.0254 17.0919 29.8342 16.9007 29.5982 16.9007ZM18.3887 16.9007C18.1527 16.9007 17.9615 17.0919 17.9615 17.3279C17.9615 17.5639 18.1527 17.7551 18.3887 17.7551C18.6247 17.7551 18.816 17.5639 18.816 17.3279C18.816 17.0919 18.6247 16.9007 18.3887 16.9007ZM28.4461 16.7106C28.2102 16.7106 28.0189 16.9018 28.0189 17.1378C28.0189 17.3737 28.2102 17.565 28.4461 17.565C28.6821 17.565 28.8734 17.3737 28.8734 17.1378C28.8734 16.9018 28.6821 16.7106 28.4461 16.7106ZM19.5408 16.7106C19.3048 16.7106 19.1135 16.9018 19.1135 17.1378C19.1135 17.3737 19.3048 17.565 19.5408 17.565C19.7767 17.565 19.968 17.3737 19.968 17.1378C19.968 16.9018 19.7767 16.7106 19.5408 16.7106ZM27.294 16.5822C27.0581 16.5822 26.8668 16.7735 26.8668 17.0094C26.8668 17.2454 27.0581 17.4366 27.294 17.4366C27.53 17.4366 27.7213 17.2454 27.7213 17.0094C27.7213 16.7735 27.53 16.5822 27.294 16.5822ZM20.6928 16.5822C20.4569 16.5822 20.2656 16.7734 20.2656 17.0094C20.2656 17.2454 20.4569 17.4366 20.6928 17.4366C20.9288 17.4366 21.1201 17.2454 21.1201 17.0094C21.1201 16.7734 20.9288 16.5822 20.6928 16.5822ZM26.1824 16.4734C25.9464 16.4734 25.7552 16.6647 25.7552 16.9007C25.7552 17.1366 25.9464 17.3279 26.1824 17.3279C26.4183 17.3279 26.6096 17.1366 26.6096 16.9007C26.6096 16.6647 26.4183 16.4734 26.1824 16.4734ZM21.8045 16.4734C21.5685 16.4734 21.3772 16.6647 21.3772 16.9007C21.3772 17.1366 21.5685 17.3279 21.8045 17.3279C22.0404 17.3279 22.2317 17.1366 22.2317 16.9007C22.2317 16.6647 22.0404 16.4734 21.8045 16.4734ZM25.0917 16.4124C24.8557 16.4124 24.6644 16.6037 24.6644 16.8396C24.6644 17.0756 24.8557 17.2669 25.0917 17.2669C25.3278 17.2669 25.5191 17.0756 25.5191 16.8396C25.5191 16.6037 25.3278 16.4124 25.0917 16.4124ZM24.0011 16.4124C23.7652 16.4124 23.5739 16.6037 23.5739 16.8396C23.5739 17.0756 23.7652 17.2669 24.0011 17.2669C24.2371 17.2669 24.4284 17.0756 24.4284 16.8396C24.4284 16.6037 24.2371 16.4124 24.0011 16.4124ZM22.895 16.4124C22.6591 16.4124 22.4678 16.6037 22.4678 16.8396C22.4678 17.0756 22.6591 17.2668 22.895 17.2668C23.1311 17.2668 23.3224 17.0756 23.3224 16.8396C23.3224 16.6037 23.1311 16.4124 22.895 16.4124ZM23.9934 16.0796C32.7824 16.0796 39.9073 19.5664 39.9073 23.8675C39.9073 28.1687 32.7824 31.6554 23.9934 31.6554C15.2045 31.6554 8.07959 28.1687 8.07959 23.8675C8.07959 19.5664 15.2045 16.0796 23.9934 16.0796Z" fill="white"/>
<path fill-rule="evenodd" clip-rule="evenodd" d="M25.9955 24.1015L25.7418 24.9938H26.2657L25.9955 24.1015ZM25.2098 21.6604H26.1206L26.6871 22.2271L28.0429 27.1086H27.1534L26.587 26.5419L26.5191 26.3013H25.4226L25.2277 27.1086H24.4204L23.854 26.5419L25.2098 21.6604Z" fill="black"/>
<path fill-rule="evenodd" clip-rule="evenodd" d="M20.9596 21.6604H22.7095C22.8802 21.6699 22.9783 21.6976 23.1555 21.8309L23.706 22.3939C23.773 22.4948 23.8142 22.705 23.8411 22.8843L23.8012 23.536H22.9268L22.3628 22.9734L21.8106 22.9729C21.8058 23.8913 21.801 24.8096 21.7962 25.7279H22.1344C22.259 25.7279 22.36 25.627 22.36 25.5025V24.4988H22.005V23.8332L23.3673 23.8332L23.8146 24.3069C23.8146 24.9949 23.8012 25.6299 23.8012 26.318C23.8012 26.681 23.3341 27.108 22.9707 27.108H21.5265C21.3479 27.1169 21.1706 27.0257 21.0717 26.935L20.4421 26.2993C20.3751 26.1984 20.3 26.0254 20.3018 25.8841V22.3177C20.3018 21.9547 20.5963 21.6604 20.9596 21.6604Z" fill="black"/>
<path fill-rule="evenodd" clip-rule="evenodd" d="M30.8667 21.6604H34.1542L34.4193 22.0298V23.0363H33.5789C33.5805 24.3937 33.5822 25.7512 33.5838 27.1086H32.5784L32.0078 26.5419V23.0363H31.334L30.8667 22.6669V21.6604Z" fill="black"/>
<path fill-rule="evenodd" clip-rule="evenodd" d="M16.0859 21.6604H17.136L17.7022 22.2271L17.702 25.7283H17.9602C18.0846 25.7283 18.1855 25.6274 18.1855 25.503V23.2875V21.6604H19.1917L19.7579 22.2271V26.4513C19.7579 26.8143 19.4636 27.1086 19.1007 27.1086H17.3093C17.1239 27.1001 17.0064 27.0293 16.869 26.9256L16.2214 26.2884C16.1545 26.1874 16.1085 26.0536 16.0859 25.8846V25.2744V23.2875V21.6604Z" fill="black"/>
<path fill-rule="evenodd" clip-rule="evenodd" d="M34.6709 21.6604H35.6803L36.2484 22.2271V27.1086H35.2389L34.6709 26.5419V21.6604Z" fill="black"/>
<path fill-rule="evenodd" clip-rule="evenodd" d="M27.1548 21.6604H30.4423L30.7074 22.0298V23.0363H29.867C29.8687 24.3937 29.8541 25.7512 29.8558 27.1086H28.8669L28.2959 26.5419V23.0363H27.6221L27.1548 22.6669V21.6604Z" fill="black"/>
<path fill-rule="evenodd" clip-rule="evenodd" d="M13.3199 24.9273V25.7283H13.6574C13.891 25.7283 14.0803 25.5384 14.0803 25.3041V24.9273H13.3199ZM13.3199 23.0407V23.547H13.5887C13.7719 23.547 13.9205 23.398 13.9205 23.2142V23.0407H13.3199ZM11.7515 21.6604L14.306 21.6604C14.46 21.6783 14.5517 21.7081 14.7235 21.806C14.8876 21.9192 15.209 22.2587 15.3366 22.4322C15.3995 22.5274 15.4635 22.6022 15.4889 22.847V23.9006C15.4889 24.1573 15.3332 24.3776 15.1113 24.4717C15.4219 24.7194 15.6448 24.8901 15.6487 25.4124V26.2167C15.6487 26.7093 15.2505 27.1086 14.7593 27.1086H12.3162L11.7515 26.5419V21.6604Z" fill="black"/>
<path fill-rule="evenodd" clip-rule="evenodd" d="M16.0859 21.6604H17.1347L17.1345 25.5003C17.1345 25.6247 17.2352 25.7255 17.3595 25.7255H17.9579C18.0822 25.7255 18.1829 25.6247 18.1829 25.5003V23.2864V21.6604H19.1878V25.8817C19.1878 26.2445 18.894 26.5386 18.5315 26.5386H16.7423C16.3798 26.5386 16.0859 26.2445 16.0859 25.8817V25.272V23.2864V21.6604Z" fill="white"/>
<path fill-rule="evenodd" clip-rule="evenodd" d="M20.9589 21.6604H22.7068C23.0697 21.6604 23.3639 21.9545 23.3639 22.3173V22.9686H22.3576V22.6987C22.3576 22.5743 22.2569 22.4735 22.1324 22.4735H21.5332C21.4088 22.4735 21.3079 22.5743 21.3079 22.6987V25.5003C21.3079 25.6247 21.4088 25.7255 21.5332 25.7255H22.1324C22.2569 25.7255 22.3576 25.6247 22.3576 25.5003V24.4972H22.003V23.8319H23.2422H23.3639V25.8817C23.3639 26.2445 23.0697 26.5386 22.7068 26.5386H20.9589C20.596 26.5386 20.3018 26.2445 20.3018 25.8817V22.3173C20.3018 21.9545 20.596 21.6604 20.9589 21.6604Z" fill="white"/>
<path d="M35.6784 21.6604H34.6709V26.5386H35.6784V21.6604Z" fill="white"/>
<path fill-rule="evenodd" clip-rule="evenodd" d="M30.8667 21.6604H34.1542V22.6662H33.0131V26.5386H32.0078V22.6662H30.8667V21.6604Z" fill="white"/>
<path fill-rule="evenodd" clip-rule="evenodd" d="M27.1548 21.6604H30.4423V22.6662H29.3012V26.5386H28.2959V22.6662H27.1548V21.6604Z" fill="white"/>
<path fill-rule="evenodd" clip-rule="evenodd" d="M25.6634 23.2735L25.2114 24.8765H26.1155L25.6634 23.2735ZM25.2085 21.6604H26.1184L27.4729 26.5386H26.5843L26.3567 25.7318H24.9702L24.7426 26.5386H23.854L25.2085 21.6604Z" fill="white"/>
<path fill-rule="evenodd" clip-rule="evenodd" d="M12.7535 24.3587V25.7255H13.6544C13.8876 25.7255 14.0767 25.5357 14.0767 25.3016V24.7826C14.0767 24.5485 13.8876 24.3587 13.6544 24.3587H12.7535ZM12.7535 22.4735V23.5457H13.5858C13.7687 23.5457 13.917 23.3968 13.917 23.2132V22.806C13.917 22.6224 13.7687 22.4735 13.5858 22.4735H12.7535ZM11.7515 21.6604C12.6016 21.6604 13.4518 21.6604 14.302 21.6604C14.6428 21.6604 14.9191 21.9377 14.9191 22.2799V23.3328C14.9191 23.6749 14.6428 23.9522 14.302 23.9522L14.3697 23.9703C14.7743 24.0534 15.0787 24.4128 15.0787 24.8436V25.6473C15.0787 26.1395 14.6811 26.5386 14.1907 26.5386C13.3776 26.5386 12.5645 26.5386 11.7515 26.5386V21.6604Z" fill="white"/>
<path fill-rule="evenodd" clip-rule="evenodd" d="M24.2497 19.7516V20.3438H24.8426C25.0065 20.3438 25.1393 20.2112 25.1393 20.0477C25.1393 19.8841 25.0065 19.7516 24.8426 19.7516H24.2497ZM24.9321 18.8651L24.2497 18.8666V19.271H24.9321C25.0465 19.271 25.1393 19.1708 25.1393 19.0641C25.1393 18.9575 25.0465 18.8651 24.9321 18.8651ZM22.1709 18.386H25.1914C25.5432 18.386 25.8284 18.6706 25.8284 19.0217C25.8284 19.1972 25.7572 19.3561 25.6419 19.4712L25.5342 19.5436L25.6193 19.6009C25.7484 19.7298 25.8411 19.845 25.8284 20.1047C25.8284 20.4983 25.5088 20.8251 25.1144 20.8251L22.1709 20.8243V19.9959H22.6007V20.3438H23.6324V19.7515H23.2688V19.9242H22.8391V19.0958H23.2688V19.271H23.6324V18.8666H22.6007V19.2144H22.1709V18.386Z" fill="black"/>
</g>
<defs>
<clipPath id="clip0_26_72994">
<rect width="32" height="15.7349" fill="white" transform="translate(8 16)"/>
</clipPath>
</defs>
</svg>
