<svg width="48" height="48" viewBox="0 0 48 48" fill="none" xmlns="http://www.w3.org/2000/svg">
<path d="M22.2336 7.76522C18.0802 8.43855 14.6602 10.9586 12.8602 14.6986C10.9402 18.6719 11.2669 23.3519 13.7269 27.0052C16.4802 31.1119 21.4002 33.1986 26.2669 32.3386C28.9402 31.8652 31.6002 30.3719 33.3736 28.3452C35.2002 26.2652 36.2469 23.7919 36.4736 21.0119C36.6536 18.9186 36.2336 16.6852 35.3069 14.7652C34.6669 13.4319 34.0402 12.5186 33.0669 11.5052C31.2736 9.63855 29.1002 8.42522 26.5736 7.89189C25.8802 7.74522 25.5602 7.71189 24.3002 7.69189C23.2402 7.67855 22.6669 7.69855 22.2336 7.76522ZM25.0336 8.99855C27.5802 9.23855 29.8669 10.2652 31.6469 11.9586C32.7469 13.0052 33.4202 13.9119 34.0336 15.1652C35.2869 17.7119 35.5269 20.5186 34.7336 23.2452C33.5736 27.2252 30.1735 30.2719 26.0336 31.0386C25.5269 31.1386 25.0535 31.1652 24.0336 31.1652C22.5336 31.1652 22.0202 31.0852 20.7402 30.6919C14.8469 28.8586 11.5936 22.5786 13.4802 16.6652C14.0402 14.9119 15.0136 13.3719 16.4002 12.0452C18.7269 9.81189 21.8802 8.70522 25.0336 8.99855Z" fill="black"/>
<path d="M26.1336 13.532V14.3987H23.7003H21.2669V15.232V16.0653L18.8536 16.0787L16.4336 16.0987V19.632C16.4336 23.0787 16.4403 23.1853 16.5869 23.892C16.8003 24.872 17.1203 25.792 17.6403 26.8587C18.2936 28.212 19.2136 29.7053 19.3469 29.6253C19.5136 29.5187 20.3869 28.0787 20.8669 27.0987C21.4003 26.012 21.7136 25.2053 21.8669 24.512C21.9136 24.3053 21.9736 24.132 21.9936 24.132C22.0136 24.132 22.0869 24.272 22.1603 24.452C22.4003 25.052 23.1936 26.532 23.6669 27.2653L24.1469 27.9987L24.3269 27.752C25.2736 26.4187 26.1603 24.6653 26.5669 23.2987C26.8803 22.252 26.8403 22.332 26.9403 22.5987C27.1336 23.132 27.8403 24.4653 28.3803 25.332C28.7003 25.8453 28.9803 26.2653 29.0003 26.2653C29.0203 26.2653 29.2336 25.9587 29.4736 25.5787C30.5603 23.912 31.3069 22.232 31.6869 20.632C31.8136 20.0653 31.8269 19.812 31.8469 16.3453L31.8736 12.6653H29.0069H26.1336V13.532ZM30.9336 16.6587C30.9336 20.0587 30.9136 20.2653 30.4936 21.4787C30.3603 21.852 30.1336 22.3987 29.9869 22.692C29.6403 23.392 29.0736 24.332 29.0003 24.332C28.8203 24.332 27.7936 22.3787 27.4803 21.432C27.0603 20.1853 27.0536 20.112 27.0203 16.712L26.9869 13.5987H28.9603H30.9336V16.6587ZM26.1003 18.3653C26.1003 21.0787 26.0869 21.4987 25.9803 21.9987C25.7203 23.1987 25.2469 24.3587 24.5269 25.5253L24.1803 26.0853L24.0469 25.9253C23.5269 25.2787 22.7069 23.532 22.3936 22.3987C22.2469 21.8453 22.2403 21.7387 22.2136 18.5453L22.1936 15.2653L24.1469 15.2787L26.1003 15.2987V18.3653ZM21.2669 19.9453C21.2669 23.2053 21.2269 23.6653 20.8603 24.7653C20.7469 25.092 20.5269 25.6453 20.3669 25.992C20.0803 26.5987 19.4336 27.7053 19.3269 27.772C19.2536 27.812 18.5603 26.672 18.2336 25.9653C17.9403 25.3453 17.6869 24.6187 17.4936 23.8653C17.3936 23.4987 17.3736 22.9587 17.3536 20.212L17.3269 16.9987H19.2936H21.2669V19.9453Z" fill="black"/>
<path d="M27.28 13.852C27.3533 14.0453 30.62 19.8053 30.6733 19.8386C30.7066 19.8586 30.7333 18.652 30.7333 16.8386V13.7986H28.9933C28.04 13.7986 27.2666 13.8253 27.28 13.852Z" fill="black"/>
<path d="M27.2201 18.0985C27.2468 19.3519 27.2868 19.9652 27.3668 20.3185C27.4935 20.8785 27.7935 21.7785 28.0468 22.3252C28.2735 22.8119 28.9468 23.9985 28.9935 23.9985C29.1068 23.9985 30.2001 21.8585 30.2001 21.6452C30.2001 21.5452 27.3801 16.5519 27.2535 16.4319C27.2068 16.3852 27.1935 16.8852 27.2201 18.0985Z" fill="black"/>
<path d="M22.4467 15.5187C22.4334 15.5454 22.7267 16.1054 23.1001 16.7654C23.4667 17.4254 24.2401 18.7921 24.8067 19.7987L25.8334 21.6321L25.8801 21.0654C25.9001 20.7521 25.9201 19.3854 25.9267 18.0254C25.9334 15.7787 25.9201 15.5454 25.8201 15.5054C25.6734 15.4454 22.4734 15.4587 22.4467 15.5187Z" fill="black"/>
<path d="M22.4202 19.9653C22.4535 21.9786 22.4802 22.1719 22.9069 23.3053C23.1202 23.8719 23.6535 24.9653 23.9402 25.4053C24.1335 25.7053 24.1602 25.7253 24.2335 25.6186C24.4535 25.2986 24.9669 24.3253 25.1735 23.8519L25.3935 23.3319L24.4602 21.6786C23.9402 20.7719 23.3069 19.6586 23.0469 19.1986C22.7869 18.7386 22.5335 18.3053 22.4869 18.2319C22.4069 18.1186 22.3935 18.3586 22.4202 19.9653Z" fill="black"/>
<path d="M17.7402 17.5787C17.9669 17.9653 18.4069 18.7587 20.0669 21.712C20.8469 23.1053 20.9735 23.2987 21.0069 23.1453C21.0335 23.0453 21.0535 21.6653 21.0602 20.0787L21.0669 17.1987H19.2935H17.5269L17.7402 17.5787Z" fill="black"/>
<path d="M17.5469 21.5988C17.5802 23.3121 17.5936 23.4721 17.7536 24.0654C18.0402 25.1188 18.5136 26.1788 19.1536 27.2188L19.3136 27.4788L19.5936 26.9988C19.9202 26.4521 20.5336 25.2054 20.5336 25.0854C20.5336 25.0388 20.3736 24.7254 20.1736 24.3854C19.9736 24.0454 19.3136 22.8788 18.7002 21.7988C18.0869 20.7188 17.5736 19.8188 17.5536 19.7988C17.5336 19.7788 17.5336 20.5921 17.5469 21.5988Z" fill="black"/>
<path d="M29.1204 34.6654C28.0937 34.7854 27.4271 35.1654 27.0804 35.8254C26.9137 36.1387 26.9004 36.2254 26.9004 36.9654C26.9004 37.712 26.9137 37.792 27.0937 38.152C27.4871 38.9654 28.4137 39.332 30.0337 39.332C31.0871 39.332 31.9937 39.0854 32.4271 38.6787C32.6404 38.4787 32.8604 38.0387 32.8671 37.812C32.8671 37.672 32.8404 37.6654 32.3804 37.6654H31.9004L31.8137 38.012C31.6471 38.7187 31.1804 38.9654 30.0004 38.9654C29.3404 38.9654 29.1937 38.9454 28.9537 38.8187C28.3671 38.5054 28.1671 37.972 28.2137 36.8387C28.2537 35.9854 28.3671 35.632 28.7071 35.3387C29.0004 35.0787 29.3271 34.9987 30.0471 34.992C30.7937 34.992 31.1937 35.092 31.5004 35.3587C31.6871 35.5187 31.7537 35.632 31.7804 35.8454L31.8204 36.132H32.2737H32.7337V35.5054V34.8787L32.2871 34.7987C31.2071 34.612 30.0404 34.5587 29.1204 34.6654Z" fill="black"/>
<path d="M8.40016 34.852C8.40016 34.9987 8.52016 35.0654 8.7735 35.0654C9.02016 35.0654 9.3135 35.2387 9.36016 35.412C9.38016 35.4987 9.40016 36.2054 9.40016 36.9854C9.40016 38.7587 9.36016 38.852 8.60016 38.972C8.40016 39.0054 8.3335 39.0454 8.3335 39.1387C8.3335 39.2587 8.44016 39.2654 11.0535 39.2654C13.9868 39.2654 14.3068 39.232 14.7868 38.912C15.1068 38.6987 15.2668 38.3787 15.2668 37.932C15.2668 37.292 15.0068 37.0587 14.1668 36.9387C13.9202 36.8987 13.7068 36.8587 13.6868 36.8387C13.6735 36.8254 13.8202 36.7787 14.0135 36.7387C14.7002 36.592 15.0268 36.272 15.0268 35.7387C15.0202 35.332 14.8602 35.0454 14.5535 34.892C14.3202 34.772 14.0802 34.7654 11.3535 34.7454C8.46683 34.7254 8.40016 34.7254 8.40016 34.852ZM13.0935 35.1387C13.4735 35.2454 13.6668 35.4654 13.6668 35.7987C13.6668 36.1654 13.5068 36.4587 13.2468 36.5654C12.9135 36.6987 12.1935 36.752 11.3468 36.6987L10.5802 36.6454L10.6202 36.0054C10.6602 35.4254 10.6802 35.352 10.8335 35.212C10.9935 35.0787 11.0668 35.0654 11.9202 35.0654C12.4202 35.0654 12.9468 35.0987 13.0935 35.1387ZM13.3735 37.2054C13.7602 37.3054 13.9335 37.5254 13.9335 37.9187C13.9335 38.7187 13.2602 39.0054 11.6468 38.892C10.7068 38.8254 10.6535 38.7787 10.6135 37.8454L10.5802 37.132H11.8268C12.5335 37.132 13.2068 37.1654 13.3735 37.2054Z" fill="black"/>
<path d="M15.5337 34.8987C15.5337 35.0454 15.5604 35.0654 15.7604 35.0654C16.067 35.0654 16.387 35.1854 16.467 35.332C16.507 35.4054 16.5337 36.0654 16.5337 36.8454C16.5337 38.1587 16.5404 38.252 16.687 38.532C16.9537 39.072 17.6804 39.332 18.887 39.332C19.647 39.332 20.067 39.232 20.467 38.9654L20.8004 38.7387V39.0054V39.2654H21.867H22.9337V39.1054C22.9337 38.972 22.8937 38.9387 22.6337 38.9054C22.4737 38.8787 22.2737 38.8054 22.187 38.732L22.0337 38.612L22.0537 36.672L22.0737 34.732H20.9004H19.727L19.747 34.8787C19.7604 34.9987 19.827 35.0387 20.0604 35.0787C20.427 35.1387 20.6537 35.2854 20.747 35.5187C20.847 35.7787 20.767 37.9187 20.647 38.212C20.4404 38.712 19.9404 38.9454 19.067 38.952C18.4537 38.9587 18.1004 38.812 17.9004 38.4654C17.747 38.1987 17.7337 37.792 17.8204 35.8787L17.867 34.732H16.7004H15.5337V34.8987Z" fill="black"/>
<path d="M23.3066 34.792C23.2199 34.932 23.3533 35.0654 23.5799 35.0654C23.7466 35.0654 23.8666 35.1187 24.0066 35.2587L24.1999 35.452V36.952C24.1999 37.7787 24.1799 38.5054 24.1599 38.5654C24.1066 38.6987 23.8399 38.832 23.5199 38.892C23.3066 38.932 23.2666 38.9654 23.2666 39.0987V39.2654H24.8333H26.3999V39.0987C26.3999 38.9654 26.3599 38.932 26.1533 38.892C25.8533 38.8387 25.6599 38.7454 25.5533 38.6054C25.4933 38.5254 25.4733 38.072 25.4666 36.9854C25.4666 35.492 25.4666 35.472 25.6199 35.292C25.7333 35.1654 25.8666 35.0987 26.0733 35.072C26.3133 35.0387 26.3733 35.0054 26.3866 34.8787L26.4066 34.732H24.8733C24.0266 34.732 23.3266 34.7587 23.3066 34.792Z" fill="black"/>
<path d="M33.3999 34.8987C33.3999 35.0454 33.4266 35.0654 33.6333 35.0654C33.9399 35.0654 34.1666 35.1787 34.2599 35.3787C34.3599 35.5987 34.3599 38.332 34.2599 38.5587C34.1666 38.7654 33.8266 38.932 33.5066 38.932C33.2933 38.932 33.2666 38.952 33.2666 39.0987V39.2654H34.9333C36.5666 39.2654 36.5999 39.2654 36.5999 39.132C36.5999 38.9854 36.5666 38.9654 36.1733 38.8987C36.0199 38.872 35.8333 38.7787 35.7199 38.6654C35.5466 38.492 35.5333 38.4387 35.5333 37.9854C35.5333 37.512 35.5399 37.492 35.7266 37.3787C35.8333 37.3187 35.9666 37.2654 36.0199 37.2654C36.0733 37.2654 36.6066 37.712 37.2066 38.2654L38.2999 39.2654H39.3133C40.2799 39.2654 40.3333 39.2587 40.3333 39.132C40.3333 39.0387 40.2666 38.9854 40.0733 38.932C39.9333 38.8987 39.6533 38.7387 39.4533 38.5787C38.9933 38.2187 36.9999 36.5187 36.9999 36.492C36.9999 36.4787 37.2466 36.2787 37.5533 36.052C38.2133 35.5587 38.9133 35.2187 39.4599 35.112C39.8133 35.0454 39.8666 35.0187 39.8666 34.8854V34.732H38.3999C37.0066 34.732 36.9333 34.7387 36.9333 34.8587C36.9333 34.952 36.9999 34.9987 37.1866 35.032C37.6599 35.1187 37.7266 35.3187 37.3866 35.6454C37.1999 35.8187 35.8733 36.8054 35.6199 36.9587C35.5533 36.9987 35.5333 36.832 35.5333 36.212C35.5333 35.252 35.5866 35.152 36.0999 35.0787C36.3799 35.0387 36.4399 35.0054 36.4533 34.8787L36.4733 34.732H34.9399H33.3999V34.8987Z" fill="black"/>
</svg>
