<svg width="48" height="48" viewBox="0 0 48 48" fill="none" xmlns="http://www.w3.org/2000/svg">
<path d="M34.5867 16.9295L34.0306 16.8681L23.9937 15.7487V16.1238L33.9907 17.2373L34.5867 16.9295Z" fill="#A1C1E4"/>
<path d="M34.5867 16.929L34.0306 16.8676L23.9937 15.7482V16.1233L33.9907 17.2368L34.5867 16.929Z" fill="url(#paint0_linear_26_73014)"/>
<path d="M23.9937 16.1226L33.9907 17.2361L32.4812 19.9245C32.4812 19.9245 32.2954 23.5401 32.1721 24.9608C32.0489 26.3828 32.0179 27.4957 30.9396 27.9589C28.7817 28.8866 26.1206 29.7161 23.9937 30.1799V16.1226Z" fill="#D3E2F5"/>
<path d="M23.9937 16.1206L33.9907 17.2341L32.4812 19.9226C32.4812 19.9226 32.2954 23.5381 32.1721 24.9589C32.0489 26.3808 32.0179 27.4937 30.9396 27.957C28.7817 28.8847 26.1206 29.7141 23.9937 30.178V16.1206Z" fill="url(#paint1_linear_26_73014)"/>
<path d="M34.5865 16.9289L33.9904 17.2367L32.481 19.9252L32.8496 19.9788L34.3119 17.4183L34.5865 16.9289Z" fill="#415050"/>
<path d="M34.5865 16.9279L33.9904 17.2357L32.481 19.9242L32.8496 19.9778L34.3119 17.4174L34.5865 16.9279Z" fill="url(#paint2_linear_26_73014)"/>
<path d="M13.4004 16.9312L13.9565 16.8699L23.9934 15.7504V16.1256L13.9976 17.2391L15.5071 19.9275C15.5071 19.9275 15.6922 23.5431 15.8155 24.9638C15.9381 26.3857 15.9685 27.4986 17.0481 27.9619C19.2048 28.8896 21.8676 29.7191 23.9934 30.1829V30.5652C21.7354 30.0727 18.9809 29.1968 16.9022 28.3037C15.6809 27.7779 15.5821 26.5995 15.4672 25.2353L15.4469 24.9966C15.3343 23.7074 15.1659 20.5408 15.1373 19.9811L13.6749 17.4207L13.4004 16.9312Z" fill="#F6F8FD"/>
<path d="M13.4004 16.9327L13.9565 16.8713L23.9934 15.7519V16.127L13.9976 17.2405L15.5071 19.929C15.5071 19.929 15.6922 23.5445 15.8155 24.9653C15.9381 26.3872 15.9685 27.5001 17.0481 27.9634C19.2048 28.8911 21.8676 29.7205 23.9934 30.1844V30.5667C21.7354 30.0742 18.9809 29.1983 16.9022 28.3051C15.6809 27.7794 15.5821 26.601 15.4672 25.2368L15.4469 24.998C15.3343 23.7089 15.1659 20.5423 15.1373 19.9826L13.6749 17.4221L13.4004 16.9327Z" fill="url(#paint3_linear_26_73014)"/>
<path d="M13.4004 16.9295L13.9565 16.8681L23.9934 15.7487V16.1238L13.9976 17.2373L13.4004 16.9295Z" fill="#BECDE1"/>
<path d="M13.4004 16.929L13.9565 16.8676L23.9934 15.7482V16.1233L13.9976 17.2368L13.4004 16.929Z" fill="url(#paint4_linear_26_73014)"/>
<path d="M23.9933 16.1226L13.9976 17.2361L15.507 19.9245C15.507 19.9245 15.6922 23.5401 15.8154 24.9608C15.9381 26.3828 15.9685 27.4957 17.0481 27.9589C19.2048 28.8866 21.8676 29.7161 23.9933 30.1799V16.1226Z" fill="#F4F6FD"/>
<path d="M23.9933 16.1206L13.9976 17.2341L15.507 19.9226C15.507 19.9226 15.6922 23.5381 15.8154 24.9589C15.9381 26.3808 15.9685 27.4937 17.0481 27.957C19.2048 28.8847 21.8676 29.7141 23.9933 30.178V16.1206Z" fill="url(#paint5_linear_26_73014)"/>
<path d="M13.4004 16.9289L13.9976 17.2367L15.5071 19.9252L15.1373 19.9788L13.6749 17.4183L13.4004 16.9289Z" fill="#415050"/>
<path d="M13.4004 16.9279L13.9976 17.2357L15.5071 19.9242L15.1373 19.9778L13.6749 17.4174L13.4004 16.9279Z" fill="url(#paint6_linear_26_73014)"/>
<path d="M32.4817 19.9277C32.4817 19.9277 32.2959 23.5433 32.1726 24.964C32.0494 26.386 32.0184 27.4989 30.9401 27.9621C28.7822 28.8898 26.1211 29.7193 23.9941 30.1832V30.5654C26.2527 30.073 29.0072 29.1971 31.086 28.3039C32.3072 27.7781 32.4061 26.5997 32.5204 25.2356L32.5406 24.9968C32.6538 23.7077 32.8205 20.5411 32.8503 19.9813L32.4817 19.9277Z" fill="#7D8283"/>
<path d="M32.8224 19.9765C32.7945 20.4939 32.6253 23.695 32.5128 24.9943C32.5128 25.0014 32.4925 25.2295 32.4919 25.2372C32.3776 26.5955 32.2788 27.7596 31.0748 28.277C28.9907 29.1737 26.2433 30.0455 23.9943 30.5361L23.9663 30.1556C26.0921 29.6918 28.7555 28.8629 30.9122 27.9358C31.9912 27.472 32.0227 26.3704 32.1448 24.9484C32.2686 23.5277 32.4533 19.9115 32.4533 19.9115L32.8224 19.9765Z" fill="#787E80"/>
<path d="M32.7929 19.9726C32.7691 20.4466 32.597 23.6823 32.4845 24.9922C32.4827 25.0077 32.4642 25.2245 32.4636 25.2394C32.3493 26.591 32.2511 27.7408 31.0632 28.2505C28.9719 29.1497 26.2328 30.0184 23.994 30.5061L23.938 30.1304C26.0649 29.6659 28.7266 28.8365 30.8833 27.9094C31.9623 27.4455 31.9944 26.3546 32.1177 24.9333C32.2416 23.5114 32.4261 19.8958 32.4261 19.8958L32.7929 19.9726Z" fill="#737A7C"/>
<path d="M32.7651 19.9688C32.743 20.3993 32.5704 23.6701 32.4566 24.9896C32.4549 25.0129 32.4364 25.2183 32.4352 25.2415C32.3215 26.5854 32.2226 27.7216 31.0526 28.2253C28.956 29.1256 26.2223 29.9908 23.9941 30.4773L23.9102 30.1022C26.0365 29.6383 28.6994 28.8094 30.8567 27.8817C31.935 27.4179 31.9672 26.3377 32.0899 24.9164C32.2137 23.4951 32.3983 19.8795 32.3983 19.8795L32.7651 19.9688Z" fill="#6E7578"/>
<path d="M32.7372 19.9646C32.7164 20.3523 32.5432 23.657 32.4276 24.9872C32.4253 25.0176 32.408 25.2129 32.4062 25.2433C32.2937 26.5807 32.1954 27.7031 31.0414 28.1979C28.9383 29.1024 26.2129 29.9646 23.9943 30.4475L23.8823 30.0765C26.0081 29.6115 28.6715 28.7826 30.8283 27.8549C31.9072 27.3917 31.9399 26.3228 32.0632 24.9003C32.1859 23.4784 32.3717 19.8634 32.3717 19.8634L32.7372 19.9646Z" fill="#687173"/>
<path d="M32.7077 19.9606C32.6905 20.3054 32.5154 23.6446 32.3993 24.9844C32.3958 25.0231 32.3808 25.2077 32.3772 25.2446C32.2641 26.5766 32.1665 27.6836 31.0286 28.173C28.9213 29.0787 26.2013 29.9367 23.9939 30.4185L23.854 30.0493C25.9809 29.5848 28.6432 28.7548 30.7999 27.83C31.8783 27.365 31.9122 26.3057 32.0355 24.885C32.1587 23.4636 32.3433 19.8475 32.3433 19.8475L32.7077 19.9606Z" fill="#646D70"/>
<path d="M32.6798 19.9564C32.6649 20.2577 32.4881 23.6321 32.3714 24.982C32.3666 25.0284 32.3529 25.2017 32.3493 25.247C32.2368 26.5718 32.1385 27.6639 31.0185 28.1462C28.9041 29.0549 26.1918 29.9093 23.994 30.3887L23.8267 30.0225C25.953 29.5586 28.6159 28.7286 30.772 27.8014C31.851 27.3382 31.8849 26.2902 32.0075 24.8689C32.132 23.4469 32.3154 19.832 32.3154 19.832L32.6798 19.9564Z" fill="#5F696C"/>
<path d="M32.6521 19.9522C32.639 20.2107 32.4609 23.6196 32.343 24.9796C32.3382 25.0338 32.3246 25.1969 32.3192 25.2482C32.2091 26.5677 32.1108 27.6454 31.0068 28.12C28.887 29.0316 26.1813 29.8819 23.9942 30.3589L23.7983 29.9945C25.9259 29.5318 28.5869 28.7023 30.7449 27.7746C31.8238 27.3114 31.8571 26.2741 31.9804 24.8528C32.1042 23.4314 32.2889 19.8159 32.2889 19.8159L32.6521 19.9522Z" fill="#5A6569"/>
<path d="M32.6225 19.9481C32.6118 20.1636 32.4331 23.6071 32.314 24.9766C32.3093 25.0386 32.2956 25.1916 32.2908 25.2506C32.1807 26.5629 32.083 27.6264 30.9951 28.0938C28.8694 29.0072 26.1708 29.8552 23.9938 30.3303L23.7705 29.9689C25.8969 29.5044 28.5591 28.675 30.7164 27.7479C31.7942 27.2846 31.8299 26.2592 31.9538 24.8367C32.0764 23.4148 32.2604 19.7992 32.2604 19.7992L32.6225 19.9481Z" fill="#556266"/>
<path d="M32.5948 19.9438C32.5858 20.1165 32.406 23.5939 32.2851 24.9741C32.2798 25.0432 32.2678 25.1849 32.2619 25.2522C32.1529 26.5586 32.0546 27.6078 30.984 28.0669C28.8523 28.9839 26.1609 29.8282 23.994 30.301L23.7422 29.9414C25.8685 29.4775 28.532 28.6481 30.6887 27.7209C31.7677 27.2577 31.8022 26.2424 31.9255 24.8205C32.0493 23.3998 32.2345 19.7836 32.2345 19.7836L32.5948 19.9438Z" fill="#515E62"/>
<path d="M32.5661 19.9396C32.5595 20.0688 32.3786 23.5808 32.2577 24.9723C32.2511 25.0492 32.2398 25.1796 32.2333 25.254C32.1243 26.5533 32.0267 27.5882 30.9733 28.0413C28.835 28.9595 26.1501 29.8008 23.994 30.2712L23.7153 29.914C25.8411 29.4519 28.504 28.6224 30.6601 27.6941C31.7391 27.2303 31.7754 26.2264 31.898 24.805C32.0225 23.3831 32.2064 19.7675 32.2064 19.7675L32.5661 19.9396Z" fill="#4C5A5F"/>
<path d="M32.5383 19.9357C32.5335 20.022 32.3513 23.5685 32.2298 24.9702C32.2221 25.0553 32.212 25.1744 32.2054 25.256C32.0959 26.5493 31.9994 27.5693 30.9633 28.0153C28.8179 28.9377 26.1414 29.7737 23.9942 30.2417L23.6875 29.8874C25.8127 29.4247 28.4755 28.5953 30.6334 27.6676C31.7112 27.2043 31.7481 26.2105 31.8714 24.7886C31.9946 23.3672 32.1792 19.7517 32.1792 19.7517L32.5383 19.9357Z" fill="#48575C"/>
<path d="M32.5089 19.9314C32.5065 19.9743 32.3231 23.5559 32.201 24.9677C32.1927 25.06 32.1844 25.169 32.1766 25.2577C32.0676 26.5444 31.9706 27.5507 30.9512 27.989C28.8004 28.9131 26.1304 29.7468 23.9939 30.2124L23.6587 29.8617C25.785 29.3978 28.4473 28.5678 30.604 27.6407C31.6836 27.1774 31.7193 26.1949 31.8431 24.773C31.9664 23.351 32.1516 19.7349 32.1516 19.7349L32.5089 19.9314Z" fill="#435459"/>
<path d="M23.6309 29.8348C25.7566 29.3709 28.4189 28.5409 30.5762 27.6137C31.6558 27.1505 31.6926 26.1781 31.8153 24.7568C31.9397 23.3354 32.1244 19.7199 32.1244 19.7199L32.4816 19.9277C32.4816 19.9277 32.2958 23.5433 32.1725 24.964C32.163 25.0646 32.1565 25.1635 32.1482 25.2599C32.0398 26.539 31.9427 27.5316 30.94 27.9621C28.7821 28.8898 26.121 29.7193 23.9941 30.1831L23.6309 29.8348Z" fill="#3F5257"/>
<path d="M15.5012 19.9277C15.5012 19.9277 15.6864 23.5433 15.809 24.964C15.9323 26.386 15.9633 27.4989 17.0416 27.9621C19.199 28.8898 21.8618 29.7193 23.9869 30.1832V30.5654C21.729 30.073 18.9745 29.1971 16.8963 28.3039C15.6751 27.7781 15.5756 26.5997 15.4613 25.2356L15.4404 24.9968C15.3291 23.7077 15.1606 20.5411 15.1309 19.9813L15.5012 19.9277Z" fill="#7D8283"/>
<path d="M15.1602 19.9765C15.187 20.4939 15.3567 23.695 15.4698 24.9943C15.4704 25.0014 15.4894 25.2295 15.49 25.2372C15.6043 26.5955 15.7032 27.7596 16.9084 28.277C18.9925 29.1737 21.7393 30.0455 23.9871 30.5361L24.0156 30.1556C21.8893 29.6918 19.2271 28.8629 17.0704 27.9358C15.992 27.472 15.9598 26.3704 15.8366 24.9484C15.7133 23.5277 15.5287 19.9115 15.5287 19.9115L15.1602 19.9765Z" fill="#787E80"/>
<path d="M15.1885 19.9726C15.2129 20.4466 15.3838 23.6823 15.4981 24.9922C15.4981 25.0077 15.5178 25.2245 15.519 25.2394C15.6321 26.591 15.7309 27.7408 16.9183 28.2505C19.0095 29.1497 21.7491 30.0184 23.9868 30.5061L24.044 30.1304C21.9177 29.6659 19.2536 28.8365 17.0975 27.9094C16.0192 27.4455 15.9882 26.3546 15.8643 24.9333C15.7411 23.5114 15.5565 19.8958 15.5565 19.8958L15.1885 19.9726Z" fill="#737A7C"/>
<path d="M15.2163 19.9688C15.2389 20.3993 15.411 23.6701 15.5254 24.9896C15.5278 25.0129 15.545 25.2183 15.5468 25.2415C15.6599 26.5854 15.7588 27.7216 16.9295 28.2253C19.0266 29.1256 21.7591 29.9908 23.9867 30.4773L24.0706 30.1022C21.9449 29.6383 19.2833 28.8094 17.1253 27.8817C16.047 27.4179 16.0148 26.3377 15.891 24.9164C15.7683 23.4951 15.5843 19.8795 15.5843 19.8795L15.2163 19.9688Z" fill="#6E7578"/>
<path d="M15.2451 19.9646C15.2654 20.3523 15.4393 23.657 15.5542 24.9872C15.5572 25.0176 15.5732 25.2129 15.5762 25.2433C15.6887 26.5807 15.7876 27.7031 16.941 28.1979C19.0447 29.1024 21.7695 29.9646 23.9869 30.4475L24.0994 30.0765C21.9731 29.6115 19.3109 28.7826 17.1542 27.8549C16.0752 27.3917 16.0425 26.3228 15.9192 24.9003C15.7954 23.4784 15.6113 19.8634 15.6113 19.8634L15.2451 19.9646Z" fill="#687173"/>
<path d="M15.2739 19.9606C15.2912 20.3054 15.4668 23.6446 15.5835 24.9844C15.5865 25.0231 15.602 25.2077 15.6049 25.2446C15.7169 26.5766 15.8158 27.6836 16.9519 28.173C19.0616 29.0787 21.7804 29.9367 23.9871 30.4185L24.1276 30.0493C22.0018 29.5848 19.339 28.7548 17.1817 27.83C16.104 27.365 16.0694 26.3057 15.9461 24.885C15.8235 23.4636 15.6383 19.8475 15.6383 19.8475L15.2739 19.9606Z" fill="#646D70"/>
<path d="M15.3027 19.9564C15.317 20.2577 15.4938 23.6321 15.6111 24.982C15.6147 25.0284 15.6291 25.2017 15.6338 25.247C15.7446 26.5718 15.8422 27.6639 16.9635 28.1462C19.0773 29.0549 21.7901 29.9093 23.9867 30.3887L24.1552 30.0225C22.0289 29.5586 19.3667 28.7286 17.21 27.8014C16.1298 27.3382 16.097 26.2902 15.9738 24.8689C15.8505 23.4469 15.6648 19.832 15.6648 19.832L15.3027 19.9564Z" fill="#5F696C"/>
<path d="M15.3311 19.9522C15.3442 20.2107 15.5216 23.6196 15.6395 24.9796C15.6442 25.0338 15.658 25.1969 15.6621 25.2482C15.7729 26.5677 15.8717 27.6454 16.9751 28.12C19.0961 29.0316 21.8018 29.8819 23.9871 30.3589L24.183 29.9945C22.0572 29.5318 19.395 28.7023 17.2371 27.7746C16.1594 27.3114 16.1242 26.2741 16.0009 24.8528C15.8795 23.4314 15.6937 19.8159 15.6937 19.8159L15.3311 19.9522Z" fill="#5A6569"/>
<path d="M15.3584 19.9481C15.3709 20.1636 15.549 23.6071 15.668 24.9766C15.6734 25.0386 15.6859 25.1916 15.6901 25.2506C15.8014 26.5629 15.8991 27.6264 16.9864 28.0938C19.1133 29.0072 21.8107 29.8552 23.987 30.3303L24.2109 29.9689C22.0857 29.5044 19.4229 28.675 17.2656 27.7479C16.1873 27.2846 16.1521 26.2592 16.0289 24.8367C15.9056 23.4148 15.7205 19.7992 15.7205 19.7992L15.3584 19.9481Z" fill="#556266"/>
<path d="M15.3872 19.9438C15.3955 20.1165 15.576 23.5939 15.6951 24.9741C15.7017 25.0432 15.7147 25.1849 15.7195 25.2522C15.8296 26.5586 15.9273 27.6078 16.9961 28.0669C19.1296 28.9839 21.821 29.8282 23.9867 30.301L24.2385 29.9414C22.1128 29.4775 19.45 28.6481 17.2933 27.7209C16.2149 27.2577 16.1797 26.2424 16.0571 24.8205C15.9326 23.3998 15.7481 19.7836 15.7481 19.7836L15.3872 19.9438Z" fill="#515E62"/>
<path d="M15.4155 19.9396C15.4227 20.0688 15.6043 23.5808 15.724 24.9723C15.7312 25.0492 15.7413 25.1796 15.7484 25.254C15.8568 26.5533 15.9556 27.5882 17.0084 28.0413C19.1472 28.9595 21.8309 29.8008 23.987 30.2712L24.2669 29.914C22.1411 29.4519 19.4783 28.6224 17.321 27.6941C16.2432 27.2303 16.2069 26.2264 16.0837 24.805C15.9598 23.3831 15.7752 19.7675 15.7752 19.7675L15.4155 19.9396Z" fill="#4C5A5F"/>
<path d="M15.4438 19.9357C15.4486 20.022 15.6308 23.5685 15.7528 24.9702C15.76 25.0553 15.7701 25.1744 15.7773 25.256C15.8856 26.5493 15.9833 27.5693 17.02 28.0153C19.1636 28.9377 21.8401 29.7737 23.9867 30.2417L24.2945 29.8874C22.1688 29.4247 19.5066 28.5953 17.3487 27.6676C16.2709 27.2043 16.2352 26.2105 16.1119 24.7886C15.9881 23.3672 15.8028 19.7517 15.8028 19.7517L15.4438 19.9357Z" fill="#48575C"/>
<path d="M15.4731 19.9314C15.4749 19.9743 15.6583 23.5559 15.7816 24.9677C15.7893 25.06 15.7982 25.169 15.8054 25.2577C15.9138 26.5444 16.0114 27.5507 17.0314 27.989C19.1816 28.9131 21.851 29.7468 23.9869 30.2124L24.3227 29.8617C22.1969 29.3978 19.5341 28.5678 17.3768 27.6407C16.299 27.1774 16.2615 26.1949 16.1382 24.773C16.015 23.351 15.831 19.7349 15.831 19.7349L15.4731 19.9314Z" fill="#435459"/>
<path d="M24.3505 29.8348C22.2247 29.3709 19.5619 28.5409 17.4052 27.6137C16.3269 27.1505 16.2893 26.1781 16.1661 24.7568C16.0422 23.3354 15.8565 19.7199 15.8565 19.7199L15.501 19.9277C15.501 19.9277 15.6861 23.5433 15.8088 24.964C15.8183 25.0646 15.8261 25.1635 15.8344 25.2599C15.9428 26.539 16.0393 27.5316 17.0414 27.9621C19.1987 28.8898 21.8615 29.7193 23.9867 30.1831L24.3505 29.8348Z" fill="#3F5257"/>
<path d="M23.9926 16.1093L13.9956 17.2216L13.9741 17.2246L13.9849 17.2436L15.4944 19.9321L15.4925 19.9255C15.4943 19.9618 15.6796 23.5583 15.801 24.9636L15.8207 25.203C15.9308 26.504 16.0172 27.5336 17.0419 27.9736C19.0992 28.8578 21.762 29.7087 23.9902 30.1952L23.9937 30.1958L23.9967 30.1952C26.2273 29.7087 28.889 28.8578 30.9451 27.9736C31.9716 27.5336 32.0573 26.504 32.1663 25.203L32.1871 24.9636C32.3092 23.5583 32.4932 19.9618 32.495 19.9255L32.4932 19.9321L34.0033 17.2436L34.014 17.2246L33.9919 17.2216L23.9956 16.1093H23.9926ZM33.9783 17.2287L32.4682 19.9184L32.4658 19.9207V19.9249C32.4634 19.9606 32.2795 23.5566 32.1574 24.9612L32.1377 25.2006C32.0281 26.4933 31.943 27.5127 30.9337 27.9468C28.8782 28.8292 26.2184 29.6807 23.9902 30.166H23.9967C21.7698 29.6807 19.1093 28.8292 17.0532 27.9468C16.0457 27.5127 15.9593 26.4933 15.8504 25.2006L15.8302 24.9612C15.7081 23.5566 15.5241 19.9606 15.5223 19.9249V19.9207L15.5205 19.9184L14.0093 17.2287L13.9985 17.2513L23.9956 16.1385H23.9926L33.989 17.2513L33.9783 17.2287Z" fill="white"/>
<path d="M20.0193 9.26939C14.3476 10.9247 9.44229 15.1542 9.44229 22.2942C9.44229 29.6373 15.7451 35.8955 24.0004 36.3212L23.9968 37.7568C16.7407 37.7568 8.37939 31.797 8.37939 22.6801C8.37939 14.844 13.2377 10.8902 19.0338 9.02169C19.1052 9.0062 19.1821 9.01216 19.2481 9.02526C19.4964 9.07468 19.7501 9.12827 20.0193 9.26939Z" fill="#D7D8D9"/>
<path d="M24.0068 38.2056C14.6952 38.2056 8 30.2819 8 22.7543C8 19.9813 9.90131 13.8005 14.1016 13.8005C13.2299 14.6723 10.8135 17.5638 10.8135 21.7051C10.8135 27.3904 14.6565 33.5712 23.9967 34.5144C26.4821 34.7651 28.6811 38.2056 24.0068 38.2056Z" fill="#D7D8D9"/>
<path d="M23.9139 34.5325C26.0182 34.7355 27.8045 37.1626 25.6127 37.9045C25.1857 38.0474 24.6129 38.1302 23.8656 38.1266C15.0375 38.054 8.63225 30.9342 8.09397 23.7346C8.06896 23.4029 8.0565 23.0707 8.0577 22.7402C8.06544 20.4954 9.27181 16.2617 11.7858 14.5963C12.436 14.1747 13.1803 13.9353 14.0223 13.9627C13.3244 14.7011 11.6566 16.7226 11.0498 19.6022C10.9057 20.2953 10.8217 21.0366 10.8259 21.822C10.8634 27.5181 14.7714 33.6262 23.9139 34.5325Z" fill="#D3D5D6"/>
<path d="M23.8307 34.554C25.9577 34.7487 27.6499 37.1537 25.4587 37.848C25.03 37.9808 24.4613 38.0558 23.7259 38.0463C14.9663 37.9034 8.6652 30.898 8.14954 23.7127C8.12453 23.3828 8.11265 23.0541 8.11443 22.7254C8.13111 20.4258 9.3595 16.2714 11.8211 14.6613C12.4392 14.2754 13.143 14.0712 13.9421 14.1254C13.252 14.8983 11.6312 16.9162 11.0482 19.7392C10.9095 20.4282 10.8321 21.1642 10.8392 21.9412C10.9113 27.6462 14.8859 33.6835 23.8307 34.554Z" fill="#CED0D1"/>
<path d="M23.7468 34.5737C25.8964 34.7601 27.4945 37.1436 25.3045 37.7897C24.8728 37.9124 24.3083 37.9802 23.5854 37.9671C14.8943 37.7516 8.69862 30.8629 8.2032 23.6895C8.17998 23.3626 8.1698 23.0357 8.17159 22.7112C8.19719 20.3562 9.44591 16.2797 11.8563 14.7238C12.4404 14.3749 13.1067 14.2058 13.8629 14.2868C13.1806 15.0936 11.6049 17.1098 11.0464 19.875C10.9136 20.5604 10.8404 21.2898 10.8511 22.0586C10.9607 27.7743 15.0008 33.7395 23.7468 34.5737Z" fill="#CBCDCF"/>
<path d="M23.6635 34.594C25.8339 34.7714 27.3391 37.133 25.1497 37.7314C24.7168 37.8457 24.1559 37.9059 23.4443 37.888C14.8228 37.6004 8.73136 30.8272 8.25798 23.6669C8.23535 23.3418 8.22646 23.0191 8.22825 22.6969C8.26338 20.2866 9.53346 16.2887 11.8914 14.7882C12.4422 14.4756 13.0698 14.341 13.7826 14.4494C13.108 15.2896 11.5788 17.3028 11.0441 20.0121C10.9173 20.6932 10.85 21.4173 10.8643 22.1765C11.009 27.9017 15.1152 33.7955 23.6635 34.594Z" fill="#C7C9CB"/>
<path d="M23.5801 34.6144C25.7726 34.7847 27.1838 37.1231 24.9949 37.6738C24.5596 37.7786 24.0041 37.8299 23.3044 37.8072C14.752 37.45 8.76417 30.7911 8.31222 23.6445C8.29138 23.3223 8.28183 23.0014 8.2854 22.6822C8.32827 20.2177 9.6192 16.2984 11.9266 14.8527C12.444 14.5764 13.0323 14.4764 13.7028 14.6121C13.0353 15.4862 11.5532 17.4965 11.0423 20.1474C10.9209 20.8256 10.8595 21.5437 10.8762 22.2946C11.0584 28.0306 15.2289 33.8523 23.5801 34.6144Z" fill="#C3C6C7"/>
<path d="M23.4964 34.634C25.7103 34.796 27.0274 37.1135 24.8397 37.6166C24.4038 37.7113 23.8518 37.7554 23.1623 37.7286C14.6796 37.2975 8.7983 30.7559 8.3666 23.6218C8.34695 23.3015 8.33802 22.9835 8.34159 22.6679C8.39399 20.1474 9.707 16.3079 11.962 14.9164C12.4455 14.6764 12.9956 14.6115 13.6221 14.7746C12.9629 15.6827 11.5261 17.6894 11.0408 20.2837C10.9253 20.959 10.8681 21.6693 10.889 22.4125C11.1063 28.1585 15.3441 33.9088 23.4964 34.634Z" fill="#BFC2C4"/>
<path d="M23.4139 34.6541C25.6492 34.8072 26.8728 37.1026 24.6858 37.5587C24.2463 37.6439 23.6997 37.6808 23.0227 37.6487C14.6072 37.1461 8.8302 30.72 8.42112 23.5985C8.40207 23.2817 8.39493 22.9661 8.3991 22.6529C8.45983 20.0782 9.79422 16.3161 11.9974 14.9805C12.4475 14.7769 12.9584 14.7465 13.5431 14.9365C12.8905 15.8785 11.5008 17.8821 11.0381 20.4199C10.9292 21.0916 10.8774 21.796 10.9018 22.5308C11.1554 28.2864 15.4587 33.9652 23.4139 34.6541Z" fill="#BCBFC1"/>
<path d="M23.3299 34.675C25.5885 34.8203 26.7174 37.0931 24.5309 37.5016C24.0897 37.576 23.5467 37.6064 22.8816 37.5689C14.537 36.9949 8.86417 30.6837 8.47593 23.5758C8.45867 23.262 8.45146 22.9494 8.45682 22.6386C8.5247 20.0085 9.88054 16.3256 12.0325 15.0442C12.4493 14.8763 12.9215 14.8817 13.464 15.0984C12.8185 16.075 11.474 18.0757 11.0363 20.5563C10.9327 21.2232 10.8863 21.9223 10.9143 22.6481C11.2055 28.4138 15.573 34.0212 23.3299 34.675Z" fill="#B8BCBE"/>
<path d="M23.2463 34.6943C25.5268 34.8313 26.5618 37.0839 24.3759 37.4435C23.9335 37.509 23.394 37.5305 22.742 37.49C14.464 36.8439 8.89715 30.6495 8.53035 23.5535C8.51249 23.2415 8.50771 22.9319 8.51247 22.6252C8.58988 19.9391 9.9672 16.3349 12.0679 15.1083C12.4508 14.9773 12.8843 15.0172 13.3833 15.2613C12.7455 16.2712 11.4469 18.2689 11.0343 20.693C10.9366 21.3563 10.8961 22.0494 10.927 22.7663C11.2528 28.5428 15.6876 34.078 23.2463 34.6943Z" fill="#B5B8BA"/>
<path d="M23.1624 34.7143C25.465 34.8442 26.407 37.0741 24.2223 37.3861C23.7763 37.4421 23.2422 37.4558 22.6009 37.4099C14.3932 36.6918 8.92942 30.6123 8.58465 23.53C8.56917 23.221 8.5638 22.9143 8.56975 22.6101C8.65609 19.8692 10.0548 16.3436 12.1025 15.1717C12.4539 15.0776 12.8474 15.1521 13.3041 15.4236C12.6735 16.4674 11.4208 18.4622 11.0325 20.8285C10.9402 21.4888 10.9045 22.1748 10.9402 22.884C11.3022 28.67 15.802 34.1344 23.1624 34.7143Z" fill="#B1B5B7"/>
<path d="M23.0797 34.7346C25.4043 34.8561 26.251 37.0634 24.0675 37.3278C23.6197 37.3743 23.0898 37.3808 22.4598 37.3302C14.3213 36.5412 8.96218 30.5778 8.63885 23.5075C8.62397 23.2008 8.62044 22.8965 8.62759 22.5964C8.72286 19.7996 10.1418 16.3531 12.1377 15.2355C12.4557 15.1777 12.8112 15.2879 13.2238 15.5856C12.601 16.6628 11.3952 18.6557 11.0314 20.9643C10.9445 21.6217 10.9141 22.3023 10.9516 23.0025C11.3511 28.7986 15.9171 34.1904 23.0797 34.7346Z" fill="#AEB1B3"/>
<path d="M22.996 34.7555C25.3432 34.8674 26.0965 37.0539 23.9124 37.2701C23.4628 37.3064 22.9365 37.3046 22.3202 37.2504C14.2501 36.39 8.99521 30.5421 8.6945 23.4855C8.68021 23.1806 8.67726 22.8787 8.6844 22.5822C8.78741 19.7306 10.2284 16.3621 12.1737 15.2998C12.4577 15.2784 12.7733 15.4225 13.1449 15.7482C12.5292 16.8599 11.3693 18.8493 11.0299 21.1007C10.9483 21.7539 10.9239 22.4285 10.9649 23.1198C11.4008 28.9273 16.0316 34.2476 22.996 34.7555Z" fill="#AAAEB1"/>
<path d="M22.9117 34.7752C25.2804 34.8794 25.9395 37.0445 23.7584 37.213C23.3065 37.2392 22.7849 37.2297 22.1793 37.1713C14.1783 36.2382 9.02824 30.5059 8.74718 23.4623C8.73587 23.161 8.7329 22.8621 8.74064 22.5667C8.85318 19.661 10.3156 16.3711 12.2079 15.3636C12.4586 15.3785 12.7367 15.5577 13.0648 15.9108C12.4562 17.0553 11.3433 19.0423 11.0271 21.2371C10.9515 21.8867 10.9319 22.5554 10.9777 23.2384C11.4487 29.0547 16.1462 34.3036 22.9117 34.7752Z" fill="#A6ABAD"/>
<path d="M22.8291 34.7951C25.2198 34.8921 25.7849 37.0333 23.6037 37.1548C23.15 37.1721 22.632 37.1548 22.0389 37.0923C14.1064 36.0878 9.06171 30.4709 8.80328 23.4404C8.79078 23.1403 8.78903 22.8444 8.79856 22.5526C8.91824 19.5915 10.4027 16.3808 12.2438 15.4281C12.4618 15.4781 12.6999 15.6931 12.9852 16.073C12.3838 17.252 11.3167 19.236 11.0255 21.3736C10.9565 22.0191 10.9416 22.6812 10.991 23.3565C11.4995 29.183 16.2601 34.3604 22.8291 34.7951Z" fill="#A2A7AA"/>
<path d="M22.7455 34.8151C25.1577 34.9038 25.6299 37.0236 23.4488 37.0974C22.9926 37.1046 22.4799 37.0802 21.8976 37.0117C14.0347 35.9357 9.09426 30.435 8.85846 23.417C8.84655 23.1199 8.84536 22.8275 8.85548 22.5381C8.9841 19.5216 10.4894 16.3895 12.2793 15.491C12.4633 15.5791 12.6628 15.8286 12.9051 16.2353C12.3115 17.4488 11.2903 19.4287 11.0223 21.5098C10.9604 22.1517 10.9496 22.8079 11.0026 23.4736C11.5475 29.3102 16.3748 34.4155 22.7455 34.8151Z" fill="#9FA4A7"/>
<path d="M22.6616 34.8353C25.097 34.9157 25.4739 37.0141 23.294 37.0391C22.8361 37.0373 22.3275 37.0039 21.7583 36.9325C13.9632 35.7839 9.12763 30.3986 8.91148 23.3938C8.90255 23.0996 8.90255 22.8096 8.91148 22.5238C9.04963 19.4519 10.5758 16.3984 12.3139 15.5553C12.4651 15.6791 12.6253 15.9632 12.8254 16.3967C12.2388 17.6447 11.2647 19.6216 11.0218 21.6461C10.9646 22.2839 10.9592 22.9335 11.0146 23.5921C11.5969 29.4388 16.4898 34.4727 22.6616 34.8353Z" fill="#9CA1A3"/>
<path d="M22.5784 34.855C25.0358 34.9282 25.3198 37.0028 23.1399 36.9825C22.6802 36.9694 22.1746 36.9295 21.6179 36.8521C13.8919 35.6326 9.16052 30.3641 8.967 23.3712C8.95807 23.08 8.95929 22.7924 8.96881 22.5095C9.1153 19.3823 10.6634 16.408 12.3485 15.6184C12.4676 15.7792 12.5891 16.099 12.7457 16.5592C12.1669 17.8412 11.2381 19.8151 11.0195 21.7819C10.9683 22.4173 10.9689 23.0609 11.0278 23.71C11.6453 29.5668 16.6042 34.5293 22.5784 34.855Z" fill="#989EA1"/>
<path d="M22.4956 34.8754C24.9738 34.9409 25.1638 36.994 22.985 36.9243C22.5236 36.9017 22.0233 36.8558 21.4761 36.7725C13.8199 35.4821 9.19388 30.3279 9.02179 23.3487C9.01286 23.0599 9.01462 22.7752 9.02594 22.4948C9.18135 19.3133 10.7498 16.417 12.3849 15.6835C12.4688 15.8794 12.5516 16.2348 12.6659 16.7219C12.0949 18.0379 11.2118 20.0088 11.0177 21.919C10.9718 22.5496 10.9778 23.1867 11.041 23.828C11.6936 29.695 16.7191 34.5854 22.4956 34.8754Z" fill="#959B9D"/>
<path d="M22.4116 34.896C24.9125 34.9525 25.0078 36.9848 22.8302 36.8669C22.3664 36.8353 21.8709 36.78 21.3362 36.6924C13.7484 35.3306 9.22661 30.2919 9.07536 23.3258C9.06881 23.0388 9.07116 22.7577 9.08307 22.4809C9.24622 19.2434 10.8367 16.4257 12.4194 15.7469C12.4706 15.9797 12.5146 16.3692 12.5873 16.8842C12.0216 18.2329 11.1856 20.2015 11.0165 22.0545C10.9754 22.6815 10.9868 23.3133 11.0535 23.9457C11.743 29.8221 16.8334 34.6423 22.4116 34.896Z" fill="#91979A"/>
<path d="M22.3291 34.916C24.8503 34.9648 24.8533 36.9744 22.6757 36.8089C22.2107 36.7684 21.7188 36.7053 21.1954 36.6142C13.6773 35.1798 9.2603 30.2566 9.1305 23.303C9.12514 23.0195 9.12811 22.7409 9.14002 22.4663C9.3127 19.1741 10.9246 16.4356 12.4555 15.811C12.4733 16.0808 12.4787 16.5047 12.5061 17.0466C11.9493 18.4304 11.1604 20.3954 11.0133 22.1913C10.9794 22.8147 10.9966 23.4405 11.0657 24.0645C11.7927 29.9517 16.9481 34.6981 22.3291 34.916Z" fill="#8E9496"/>
<path d="M22.2448 34.9354C24.7891 34.9765 24.6974 36.9635 22.5205 36.7515C22.0524 36.7003 21.566 36.6294 21.0545 36.5336C13.6054 35.0283 9.29257 30.2206 9.18479 23.2807C9.17943 22.999 9.18421 22.7227 9.19671 22.4518C9.37773 19.1042 11.0104 16.4443 12.4907 15.8751C12.4746 16.1806 12.4407 16.6396 12.427 17.2095C11.8774 18.6261 11.1331 20.5887 11.0116 22.3268C10.983 22.9466 11.0051 23.5659 11.0789 24.1816C11.8405 30.0789 17.0626 34.7544 22.2448 34.9354Z" fill="#8A9194"/>
<path d="M22.1615 34.9559C24.7279 34.9887 24.5422 36.9543 22.3664 36.6935C21.8972 36.6327 21.4143 36.5541 20.9141 36.4547C13.5335 34.8767 9.32549 30.1852 9.23975 23.2566C9.23558 22.9791 9.2403 22.7058 9.25399 22.4366C9.44275 19.0342 11.0981 16.4536 12.5254 15.9373C12.476 16.2797 12.4046 16.7739 12.3468 17.3706C11.8049 18.8217 11.1065 20.7813 11.0094 22.4628C10.9868 23.0797 11.0142 23.6924 11.0916 24.3004C11.8901 30.2066 17.177 34.8107 22.1615 34.9559Z" fill="#878D90"/>
<path d="M22.0768 34.9768C24.6664 35.0006 24.386 36.9447 22.212 36.6363C21.7392 36.566 21.2611 36.4803 20.774 36.3749C13.4625 34.7261 9.35802 30.1501 9.29372 23.2351C9.29074 22.9588 9.29674 22.6885 9.31043 22.4241C9.50812 18.9651 11.1843 16.4625 12.5604 16.0028C12.4782 16.3809 12.3668 16.9109 12.2674 17.5331C11.7321 19.0187 11.0813 20.9754 11.008 22.5998C10.9908 23.2131 11.0223 23.8198 11.1033 24.4183C11.9387 30.3352 17.2912 34.8678 22.0768 34.9768Z" fill="#838A8D"/>
<path d="M21.9948 34.9958C24.604 35.0125 24.2312 36.9334 22.0573 36.578C21.5839 36.4976 21.1087 36.4047 20.633 36.2945C13.3905 34.5743 9.3921 30.1144 9.34744 23.2125C9.34565 22.938 9.35277 22.6701 9.36706 22.4087C9.57368 18.8949 11.2719 16.4708 12.5962 16.0659C12.4801 16.481 12.33 17.0443 12.1871 17.6957C11.6601 19.2135 11.0552 21.1677 11.0064 22.7356C10.9951 23.3441 11.0325 23.9449 11.1165 24.5356C11.9876 30.4627 17.4068 34.9232 21.9948 34.9958Z" fill="#81878A"/>
<path d="M21.9109 35.0167C24.5427 35.025 24.0759 36.9245 21.9025 36.5202C21.4261 36.4309 20.9575 36.3291 20.4937 36.2153C13.3191 34.423 9.4243 30.0786 9.40346 23.1905C9.40227 22.9196 9.40882 22.6534 9.4249 22.395C9.63986 18.827 11.3589 16.4816 12.6314 16.1303C12.4819 16.5822 12.2932 17.18 12.1074 17.8588C11.5876 19.4112 11.029 21.3619 11.0046 22.8719C10.9986 23.4775 11.0415 24.0724 11.129 24.6547C12.0365 30.5913 17.5212 34.9804 21.9109 35.0167Z" fill="#7D8387"/>
<path d="M21.7482 36.4632C13.7453 34.7989 9.45752 30.4801 9.45752 23.1674C9.45752 19.0862 11.3594 16.5109 12.667 16.1935C12.0721 17.7786 11.0027 20.9083 11.0027 23.0078C11.0027 29.846 17.2305 35.0359 21.8268 35.0359C24.4813 35.0359 23.9204 36.9145 21.7482 36.4632Z" fill="#798083"/>
<path d="M27.3858 9.69863C27.3798 9.70518 27.3745 9.71173 27.3709 9.71947L27.3453 9.78199C31.9797 11.2307 37.1797 15.2893 37.1797 21.7017C37.1797 27.2733 33.3021 33.7172 23.9971 34.5163L24.0006 34.8855C33.3063 34.0846 37.487 27.3751 37.487 21.9047C37.487 15.4941 32.8985 11.1521 27.3858 9.69863Z" fill="#3C535A"/>
<path d="M27.3858 9.69985C27.3798 9.7064 27.3745 9.71295 27.3709 9.72069L27.3453 9.78321C31.9797 11.2319 37.1797 15.2905 37.1797 21.7029C37.1797 27.2745 33.3021 33.7184 23.9971 34.5175L24.0006 34.8867C33.3063 34.0858 37.487 27.3763 37.487 21.9059C37.487 15.4953 32.8985 11.1533 27.3858 9.69985Z" fill="url(#paint7_linear_26_73014)"/>
<path d="M27.973 9.26419C33.644 10.9207 38.566 15.155 38.566 22.295C38.566 29.6381 32.2549 35.8962 24.0002 36.322L23.9966 37.7576C31.2539 37.7576 39.6128 31.793 39.6128 22.6761C39.6128 14.8412 34.754 10.8856 28.9585 9.01827C28.8864 9.00219 28.7935 9.01291 28.7262 9.02244C28.6185 9.03732 28.4732 9.07305 28.3064 9.12307C28.1915 9.16356 28.0522 9.2243 27.973 9.26419Z" fill="#DEE4E9"/>
<path d="M27.3857 9.69932C32.8984 11.1528 37.4869 15.4948 37.4869 21.9054L38.5665 22.2966C38.5665 15.1566 33.6445 10.9224 27.9734 9.26583C27.7084 9.39147 27.4971 9.57368 27.3857 9.69932Z" fill="#C6DAF1"/>
<path d="M27.3857 9.70128C32.8984 11.1548 37.4869 15.4968 37.4869 21.9074L38.5665 22.2986C38.5665 15.1586 33.6445 10.9243 27.9734 9.26779C27.7084 9.39343 27.4971 9.57564 27.3857 9.70128Z" fill="url(#paint8_linear_26_73014)"/>
<path d="M38.5662 22.2931C38.5662 29.6362 32.2603 35.8944 24.0068 36.3213V34.8833C33.3119 34.0824 37.4866 27.3723 37.4866 21.9019L38.5662 22.2931Z" fill="white"/>
<path d="M38.5662 22.2917C38.5662 29.6347 32.2603 35.8929 24.0068 36.3198V34.8818C33.3119 34.0809 37.4866 27.3708 37.4866 21.9004L38.5662 22.2917Z" fill="url(#paint9_linear_26_73014)"/>
<path d="M20.6066 9.70372C15.0933 11.1572 10.5042 15.4992 10.5042 21.9098C10.5042 27.3796 14.6931 34.085 24 34.8858V36.3232C15.7447 35.8975 9.44189 29.6393 9.44189 22.2963C9.44189 15.1562 14.3472 10.9268 20.0189 9.27143C20.2237 9.36491 20.4845 9.55605 20.6066 9.70372Z" fill="#7093AE"/>
<path d="M20.6066 9.70518C15.0933 11.1587 10.5042 15.5007 10.5042 21.9113C10.5042 27.3811 14.6931 34.0864 24 34.8873V36.3247C15.7447 35.899 9.44189 29.6408 9.44189 22.2977C9.44189 15.1577 14.3472 10.9282 20.0189 9.27289C20.2237 9.36637 20.4845 9.55751 20.6066 9.70518Z" fill="url(#paint10_linear_26_73014)"/>
<path d="M10.8134 21.707C10.8134 15.2929 16.0134 11.2361 20.6472 9.78675L20.6222 9.72423C20.6175 9.71649 20.6127 9.70994 20.6067 9.70339C15.0935 11.1569 10.5044 15.4989 10.5044 21.9095C10.5044 27.3793 14.6933 34.0846 24.0002 34.8855L23.9966 34.5163C14.6975 33.7172 10.8134 27.1762 10.8134 21.707Z" fill="#3C535A"/>
<path d="M10.8134 21.7083C10.8134 15.2941 16.0134 11.2373 20.6472 9.78797L20.6222 9.72545C20.6175 9.71771 20.6127 9.71116 20.6067 9.70461C15.0935 11.1581 10.5044 15.5001 10.5044 21.9107C10.5044 27.3805 14.6933 34.0858 24.0002 34.8867L23.9966 34.5175C14.6975 33.7184 10.8134 27.1774 10.8134 21.7083Z" fill="url(#paint11_linear_26_73014)"/>
<path d="M27.3775 9.70493C28.7649 10.0711 30.0725 10.6136 31.2658 11.3174C32.4995 12.045 33.5821 12.9281 34.4848 13.9427C35.4315 15.0062 36.1675 16.2031 36.6701 17.4964C37.2048 18.8695 37.4751 20.3515 37.4751 21.9015C37.4751 23.2913 37.1994 24.7501 36.6784 26.1202C36.1157 27.5976 35.2898 28.948 34.2251 30.1348C33.064 31.4293 31.6522 32.485 30.0278 33.2752C28.2433 34.1433 26.2158 34.6804 23.9995 34.8716L24.0013 34.8948C26.2194 34.703 28.2516 34.1659 30.0391 33.296C31.6647 32.5046 33.0789 31.4471 34.243 30.1502C35.3089 28.9617 36.1353 27.6077 36.6992 26.1292C37.222 24.7555 37.4989 23.2937 37.4989 21.9015C37.4989 20.3486 37.2274 18.8641 36.6915 17.488C36.1871 16.1911 35.4511 14.9937 34.502 13.9273C33.5981 12.9108 32.5138 12.026 31.2783 11.2977C30.0862 10.5951 28.7804 10.0533 27.3972 9.68527C27.3918 9.68468 27.3721 9.70314 27.3775 9.70493Z" fill="#EDF1FB"/>
<path d="M23.8678 38.4951C33.1795 38.4951 40.0003 30.2821 40.0003 22.7544C40.0003 19.9814 38.0978 13.8007 33.8987 13.8007C34.7705 14.6724 37.1868 17.5639 37.1868 21.7053C37.1868 27.3906 33.3437 33.5714 24.0035 34.5145C21.5169 34.7652 19.193 38.4951 23.8678 38.4951Z" fill="#DEE4E9"/>
<path d="M23.9413 38.4209C33.1886 38.3411 39.8964 30.3002 39.8964 22.782C39.8964 19.9465 37.9951 13.9378 33.9318 13.9224C34.7904 14.828 37.1442 17.7314 37.1442 21.7745C37.1442 27.5153 33.1868 33.6484 24.0717 34.5469C21.578 34.7857 19.3105 38.456 23.9413 38.4209Z" fill="#D6DCE1"/>
<path d="M24.0139 38.3444C33.1999 38.1872 39.792 30.3159 39.792 22.8097C39.792 19.9117 37.8901 14.0745 33.9655 14.0441C34.8105 14.9837 37.0994 17.8984 37.0994 21.8439C37.0994 27.6394 33.0295 33.7261 24.1401 34.5793C21.6392 34.8062 19.4283 38.4176 24.0139 38.3444Z" fill="#CFD5DA"/>
<path d="M24.0871 38.269C33.2111 38.0332 39.6885 30.3341 39.6885 22.8374C39.6885 19.8768 37.786 14.2117 33.9989 14.1658C34.8314 15.14 37.056 18.0654 37.056 21.915C37.056 27.7647 32.8723 33.8037 24.2085 34.6124C21.6993 34.8273 19.5456 38.3786 24.0871 38.269Z" fill="#C8CED2"/>
<path d="M24.1601 38.1941C33.221 37.8803 39.584 30.3514 39.584 22.8643C39.584 19.8424 37.6815 14.3482 34.0326 14.2874C34.8519 15.2955 37.0116 18.2329 37.0116 21.9842C37.0116 27.8887 32.7149 33.8812 24.2774 34.6452C21.7592 34.8483 19.6621 38.3394 24.1601 38.1941Z" fill="#C0C7CB"/>
<path d="M24.2322 38.1189C33.2324 37.7265 39.4793 30.3686 39.4793 22.8921C39.4793 19.8077 37.578 14.4844 34.0667 14.4094C34.8723 15.4514 36.9695 18.4001 36.9695 22.0543C36.9695 28.0148 32.5572 33.9591 24.346 34.6772C21.8201 34.8678 19.7807 38.3017 24.2322 38.1189Z" fill="#BAC0C4"/>
<path d="M24.3054 38.0432C33.2436 37.5728 39.3755 30.3845 39.3755 22.9194C39.3755 19.7719 37.4743 14.6212 34.0999 14.5313C34.893 15.6073 36.9247 18.5661 36.9247 22.1239C36.9247 28.1391 32.4005 34.0364 24.4149 34.7105C21.8801 34.8897 19.8984 38.2629 24.3054 38.0432Z" fill="#B2B9BD"/>
<path d="M24.3779 37.9691C33.2537 37.4195 39.2713 30.4027 39.2713 22.9471C39.2713 19.7376 37.3706 14.7585 34.1338 14.6531C34.9126 15.7624 36.8806 18.7337 36.8806 22.1938C36.8806 28.2638 32.2426 34.1141 24.4827 34.7429C21.9408 34.9102 20.0151 38.2251 24.3779 37.9691Z" fill="#ABB2B6"/>
<path d="M24.4508 37.8925C33.2646 37.2655 39.1673 30.4196 39.1673 22.9735C39.1673 19.7027 37.266 14.8957 34.1685 14.7748C34.9336 15.9181 36.8373 18.9013 36.8373 22.2638C36.8373 28.3879 32.085 34.1906 24.5519 34.7753C22.0022 34.9301 20.1332 38.1855 24.4508 37.8925Z" fill="#A4ABAF"/>
<path d="M24.5244 37.8174C33.2763 37.1118 39.0635 30.4375 39.0635 23.0015C39.0635 19.6676 37.1617 15.032 34.2017 14.8962C34.9544 16.074 36.7931 19.0674 36.7931 22.3334C36.7931 28.513 31.9283 34.2686 24.6215 34.8074C22.0623 34.9515 20.2497 38.1473 24.5244 37.8174Z" fill="#9DA3A7"/>
<path d="M24.5968 37.7429C33.2868 36.9581 38.9596 30.4546 38.9596 23.0294C38.9596 19.633 37.0577 15.1689 34.2352 15.0182C34.9742 16.2294 36.7504 19.2346 36.7504 22.4036C36.7504 28.6379 31.7713 34.3465 24.689 34.8407C22.1232 34.9717 20.3679 38.1079 24.5968 37.7429Z" fill="#979DA1"/>
<path d="M24.6694 37.6667C33.2975 36.8039 38.8554 30.4719 38.8554 23.0562C38.8554 19.5979 36.9535 15.3059 34.2692 15.1397C34.9962 16.3848 36.7058 19.4014 36.7058 22.4733C36.7058 28.7624 31.6135 34.4239 24.7582 34.8729C22.1834 34.9926 20.4852 38.0699 24.6694 37.6667Z" fill="#8F9699"/>
<path d="M24.743 37.5914C33.3079 36.6518 38.7515 30.4889 38.7515 23.0839C38.7515 19.5631 36.8496 15.4425 34.3028 15.2615C35.015 16.5411 36.6632 19.569 36.6632 22.5439C36.6632 28.8878 31.4566 34.5017 24.8263 34.9066C22.2439 35.0143 20.6022 38.0315 24.743 37.5914Z" fill="#888F92"/>
<path d="M24.8151 37.5168C33.3193 36.4968 38.6468 30.506 38.6468 23.1112C38.6468 19.5278 36.7455 15.5799 34.3357 15.3834C35.036 16.6964 36.6193 19.7356 36.6193 22.6128C36.6193 29.0121 31.2995 34.5795 24.8955 34.9386C22.3053 35.0344 20.7202 37.9926 24.8151 37.5168Z" fill="#81878A"/>
<path d="M24.8875 37.441C33.3292 36.3436 38.5423 30.5231 38.5423 23.1383C38.5423 19.493 36.6411 15.716 34.3689 15.5052C35.0566 16.8522 36.575 19.902 36.575 22.6834C36.575 29.1369 31.1421 34.6567 24.9637 34.9716C22.3652 35.0544 20.8373 37.9537 24.8875 37.441Z" fill="#7A7F83"/>
<path d="M24.9617 37.366C33.3409 36.19 38.4391 30.5404 38.4391 23.1651C38.4391 19.4585 36.5373 15.8524 34.4032 15.6268C35.0773 17.0082 36.5313 20.0694 36.5313 22.7519C36.5313 29.2613 30.9835 34.7347 25.0332 35.0038C22.4269 35.0753 20.9556 37.9156 24.9617 37.366Z" fill="#73787B"/>
<path d="M25.0345 37.2908C33.3517 36.035 38.3349 30.5574 38.3349 23.1923C38.3349 19.4231 36.4337 15.9892 34.4365 15.7486C35.0975 17.1634 36.4885 20.2371 36.4885 22.822C36.4885 29.385 30.827 34.8119 25.1024 35.0358C22.4871 35.0959 21.0724 37.8767 25.0345 37.2908Z" fill="#6C7174"/>
<path d="M25.1068 37.2154C33.3615 35.8834 38.2311 30.5756 38.2311 23.22C38.2311 19.3889 36.3298 16.127 34.4702 15.8704C35.1175 17.3191 36.4442 20.4035 36.4442 22.8925C36.4442 29.5115 30.6701 34.8896 25.1693 35.0694C22.5481 35.117 21.1893 37.8376 25.1068 37.2154Z" fill="#656A6C"/>
<path d="M25.1794 37.1411C33.3728 35.7287 38.1262 30.5918 38.1262 23.2481C38.1262 19.3545 36.2243 16.2641 34.5047 15.992C35.1376 17.4746 36.4006 20.571 36.4006 22.9617C36.4006 29.6361 30.5117 34.9671 25.2384 35.1023C22.6083 35.1386 21.3078 37.7997 25.1794 37.1411Z" fill="#5D6265"/>
<path d="M25.2522 37.065C33.3842 35.5758 38.0228 30.6097 38.0228 23.2756C38.0228 19.3194 36.1209 16.4005 34.5382 16.1141C35.1587 17.6301 36.3567 20.7384 36.3567 23.0326C36.3567 29.7594 30.3552 35.0452 25.307 35.1351C22.6692 35.1589 21.4247 37.7605 25.2522 37.065Z" fill="#565A5C"/>
<path d="M25.3253 36.9903C33.3948 35.4219 37.9178 30.6256 37.9178 23.3027C37.9178 19.2846 36.0171 16.5372 34.5714 16.2359C35.1799 17.7859 36.3137 20.9049 36.3137 23.1021C36.3137 29.8848 30.1978 35.1224 25.3759 35.167C22.7297 35.1789 21.5418 37.7221 25.3253 36.9903Z" fill="#4F5355"/>
<path d="M25.3987 36.9148C33.4051 35.2678 37.8144 30.6447 37.8144 23.3308C37.8144 19.249 35.9131 16.6749 34.6055 16.3575C35.1998 17.942 36.2698 21.0723 36.2698 23.1719C36.2698 30.01 30.0408 35.1999 25.4445 35.1999C22.79 35.1999 21.6593 37.6829 25.3987 36.9148Z" fill="#474B4C"/>
<path d="M23.997 37.7786C25.9578 37.7786 28.0294 37.3391 29.9873 36.5085C31.9779 35.6641 33.8225 34.425 35.3219 32.9269C36.664 31.5835 37.7168 30.0598 38.4516 28.3955C39.2423 26.5996 39.643 24.6763 39.643 22.6798C39.643 20.7934 39.3572 19.0481 38.7922 17.4952C38.2682 16.0524 37.4923 14.7419 36.4836 13.5986C34.7073 11.5806 32.1809 10.0336 28.9738 8.99994C28.9625 8.99697 28.95 9.00292 28.9458 9.01483C28.9417 9.02615 28.9488 9.03925 28.9601 9.04282C32.1595 10.0741 34.6794 11.6163 36.4509 13.6272C37.4548 14.7669 38.2277 16.0739 38.7511 17.5101C39.3138 19.0589 39.599 20.7982 39.599 22.6798C39.599 24.8585 39.1221 26.942 38.1807 28.8724C37.3125 30.651 36.0805 32.2492 34.5162 33.62C33.0562 34.9008 31.3187 35.9529 29.4918 36.6609C27.687 37.3629 25.7858 37.7339 23.997 37.7339C23.9845 37.7339 23.9756 37.7434 23.9756 37.7565C23.9756 37.7684 23.9845 37.7786 23.997 37.7786Z" fill="#E5E6E6"/>
<path d="M20.6033 9.68823C19.2088 10.0556 17.894 10.6005 16.6954 11.3084C15.4616 12.0367 14.3797 12.9209 13.477 13.9362C12.532 15.0014 11.7972 16.1989 11.2947 17.4952C10.76 18.8712 10.4902 20.3557 10.4902 21.908C10.4902 23.3008 10.7677 24.7632 11.2917 26.1357C11.855 27.6142 12.6833 28.9677 13.7515 30.1568C16.2107 32.894 19.7548 34.5327 23.9986 34.8995L24.0016 34.8697C19.7643 34.5047 16.228 32.8684 13.7741 30.1365C12.7077 28.9504 11.8818 27.6011 11.3191 26.1256C10.7963 24.7555 10.52 23.2966 10.52 21.908C10.52 20.3593 10.7891 18.8778 11.3221 17.5065C11.8234 16.2132 12.5564 15.0193 13.499 13.9558C14.3999 12.9418 15.4801 12.0599 16.7097 11.334C17.9065 10.6278 19.2272 10.0836 20.62 9.71622L20.6033 9.68823Z" fill="#EDF1FB"/>
<path d="M28.2344 9.87866C29.6766 9.90188 30.562 10.1174 31.9946 11.0064C30.5388 10.9523 29.3002 10.3336 28.2344 9.87866Z" fill="#E5E6E6"/>
<path d="M31.9951 11.0042C30.5624 10.1151 29.677 9.89959 28.2349 9.87637C29.7003 10.1937 30.6625 10.4873 31.9951 11.0042Z" fill="#232E30"/>
<path d="M31.9951 11.0024C30.5624 10.1134 29.677 9.89788 28.2349 9.87466C29.7003 10.192 30.6625 10.4856 31.9951 11.0024Z" fill="url(#paint12_linear_26_73014)"/>
<path d="M32.0952 10.3193C32.6031 11.2161 33.535 12.0735 34.652 12.8845C34.19 11.7651 33.9744 11.2941 32.0952 10.3193Z" fill="#7093AE"/>
<path d="M32.0952 10.3203C32.6031 11.2171 33.535 12.0745 34.652 12.8855C34.19 11.7661 33.9744 11.2951 32.0952 10.3203Z" fill="url(#paint13_linear_26_73014)"/>
<path d="M34.652 12.8845C33.9208 11.9735 33.1498 11.0529 32.0952 10.3193C32.6031 11.2161 33.535 12.0735 34.652 12.8845Z" fill="#232E30"/>
<path d="M34.652 12.8855C33.9208 11.9745 33.1498 11.0539 32.0952 10.3203C32.6031 11.2171 33.535 12.0745 34.652 12.8855Z" fill="url(#paint14_linear_26_73014)"/>
<path d="M33.542 12.9171C34.7323 13.2416 35.3337 13.4732 36.293 14.8862C34.8835 14.3075 34.6049 14.0407 33.542 12.9171Z" fill="#9CB3CF"/>
<path d="M33.542 12.9188C34.7323 13.2433 35.3337 13.4749 36.293 14.8879C34.8835 14.3092 34.6049 14.0424 33.542 12.9188Z" fill="url(#paint15_linear_26_73014)"/>
<path d="M33.542 12.9171C34.3292 13.3214 35.3301 14.0157 36.293 14.8862C35.3337 13.4732 34.7323 13.2416 33.542 12.9171Z" fill="#232E30"/>
<path d="M33.542 12.9188C34.3292 13.3231 35.3301 14.0174 36.293 14.8879C35.3337 13.4749 34.7323 13.2433 33.542 12.9188Z" fill="url(#paint16_linear_26_73014)"/>
<path d="M36.2598 13.4724C36.3854 14.6543 36.8821 15.8827 37.6681 17.0647C37.6454 15.8589 37.7603 14.8854 36.2598 13.4724Z" fill="#9CB3CF"/>
<path d="M36.2598 13.4736C36.3854 14.6555 36.8821 15.884 37.6681 17.0659C37.6454 15.8601 37.7603 14.8866 36.2598 13.4736Z" fill="url(#paint17_linear_26_73014)"/>
<path d="M36.1841 16.2136C37.4828 17.1866 38.0306 17.9904 38.2616 19.51C37.5167 18.7169 36.9087 18.0744 36.1841 16.2136Z" fill="#9CB3CF"/>
<path d="M36.1841 16.2126C37.4828 17.1856 38.0306 17.9894 38.2616 19.509C37.5167 18.7159 36.9087 18.0734 36.1841 16.2126Z" fill="url(#paint18_linear_26_73014)"/>
<path d="M36.1841 16.2136C37.1815 17.3694 37.7072 18.2548 38.2616 19.51C38.0306 17.9904 37.4828 17.1866 36.1841 16.2136Z" fill="#232E30"/>
<path d="M36.1841 16.2126C37.1815 17.3684 37.7072 18.2538 38.2616 19.509C38.0306 17.9894 37.4828 17.1856 36.1841 16.2126Z" fill="url(#paint19_linear_26_73014)"/>
<path d="M39.159 19.0318C38.9631 19.8434 38.7422 20.0524 38.6725 20.6776C38.604 21.3041 38.6279 22.4515 38.5928 23.2393C38.9971 22.405 39.9908 21.5815 39.159 19.0318Z" fill="#9CB3CF"/>
<path d="M39.159 19.0304C38.9631 19.842 38.7422 20.051 38.6725 20.6762C38.604 21.3026 38.6279 22.45 38.5928 23.2378C38.9971 22.4036 39.9908 21.5801 39.159 19.0304Z" fill="url(#paint20_linear_26_73014)"/>
<path d="M38.6725 20.6776C38.604 21.3041 38.6279 22.4515 38.5928 23.2393C39.0733 21.6417 39.2221 20.5204 39.159 19.0318C38.9631 19.8434 38.7422 20.0524 38.6725 20.6776Z" fill="#232E30"/>
<path d="M38.6725 20.6762C38.604 21.3026 38.6279 22.45 38.5928 23.2378C39.0733 21.6402 39.2221 20.519 39.159 19.0304C38.9631 19.842 38.7422 20.051 38.6725 20.6762Z" fill="url(#paint21_linear_26_73014)"/>
<path d="M37.6108 22.1391C37.9579 23.2633 38.7201 24.2833 37.8537 26.3228C37.8073 25.3611 37.1249 24.7579 37.6108 22.1391Z" fill="#9CB3CF"/>
<path d="M37.6108 22.1384C37.9579 23.2626 38.7201 24.2826 37.8537 26.322C37.8073 25.3604 37.1249 24.7572 37.6108 22.1384Z" fill="url(#paint22_linear_26_73014)"/>
<path d="M37.8538 26.3228C38.7201 24.2833 37.958 23.2633 37.6108 22.1391C37.7895 23.8636 38.0717 24.8961 37.8538 26.3228Z" fill="#232E30"/>
<path d="M37.8538 26.322C38.7201 24.2826 37.958 23.2626 37.6108 22.1384C37.7895 23.8628 38.0717 24.8953 37.8538 26.322Z" fill="url(#paint23_linear_26_73014)"/>
<path d="M39.2516 25.7915C38.7199 26.546 37.8768 26.78 36.6055 29.1868C38.3263 28.3073 38.8699 27.5183 39.2516 25.7915Z" fill="#9CB3CF"/>
<path d="M39.2516 25.7932C38.7199 26.5477 37.8768 26.7817 36.6055 29.1885C38.3263 28.309 38.8699 27.52 39.2516 25.7932Z" fill="url(#paint24_linear_26_73014)"/>
<path d="M36.6055 29.1868C37.975 27.9071 38.6943 27.0747 39.2516 25.7915C38.7199 26.546 37.8768 26.78 36.6055 29.1868Z" fill="#232E30"/>
<path d="M36.6055 29.1885C37.975 27.9089 38.6943 27.0764 39.2516 25.7932C38.7199 26.5477 37.8768 26.7817 36.6055 29.1885Z" fill="url(#paint25_linear_26_73014)"/>
<path d="M36.5402 26.7139C35.9935 27.7416 35.7553 28.3139 35.6547 28.6455C35.5541 28.9772 35.4963 30.3396 35.4272 30.626C36.1984 29.753 36.3162 29.1296 36.3936 28.7825C36.4692 28.4347 36.5783 27.4784 36.5402 26.7139Z" fill="#9CB3CF"/>
<path d="M36.5402 26.7144C35.9935 27.7421 35.7553 28.3143 35.6547 28.646C35.5541 28.9777 35.4963 30.3401 35.4272 30.6265C36.1984 29.7535 36.3162 29.1301 36.3936 28.783C36.4692 28.4352 36.5783 27.4789 36.5402 26.7144Z" fill="url(#paint26_linear_26_73014)"/>
<path d="M35.4272 30.6268C35.8435 29.63 36.318 27.8776 36.5402 26.7147C35.9935 27.7424 35.7553 28.3147 35.6547 28.6463C35.557 28.9673 35.4963 30.3404 35.4272 30.6268C35.4284 30.6262 35.4272 30.6274 35.4272 30.6268Z" fill="#232E30"/>
<path d="M35.4272 30.6278C35.8435 29.631 36.318 27.8786 36.5402 26.7157C35.9935 27.7434 35.7553 28.3156 35.6547 28.6473C35.557 28.9682 35.4963 30.3413 35.4272 30.6278C35.4284 30.6272 35.4272 30.6284 35.4272 30.6278Z" fill="url(#paint27_linear_26_73014)"/>
<path d="M33.8516 30.6003C33.127 31.2798 32.6958 31.6972 32.3493 32.2384C32.0027 32.7797 31.9027 33.4091 31.54 33.9414C33.4818 32.8601 33.5205 31.6352 33.8516 30.6003Z" fill="#9CB3CF"/>
<path d="M33.8516 30.6003C33.127 31.2798 32.6958 31.6972 32.3493 32.2384C32.0027 32.7797 31.9027 33.4091 31.54 33.9414C33.4818 32.8601 33.5205 31.6352 33.8516 30.6003Z" fill="url(#paint28_linear_26_73014)"/>
<path d="M32.3493 32.2384C32.0027 32.7797 31.9027 33.4091 31.54 33.9414C32.3367 33.1733 33.227 31.821 33.8516 30.6003C33.127 31.2798 32.6958 31.6972 32.3493 32.2384Z" fill="#232E30"/>
<path d="M32.3493 32.2384C32.0027 32.7797 31.9027 33.4091 31.54 33.9414C32.3367 33.1733 33.227 31.821 33.8516 30.6003C33.127 31.2798 32.6958 31.6972 32.3493 32.2384Z" fill="url(#paint29_linear_26_73014)"/>
<path d="M36.779 31.0697C36.1716 31.3436 35.5863 31.4401 34.9634 31.7128C34.3412 31.9873 33.5749 32.7405 33.1152 33.0442C34.7706 32.9358 35.9769 32.4035 36.779 31.0697Z" fill="#9CB3CF"/>
<path d="M36.779 31.0682C36.1716 31.3421 35.5863 31.4386 34.9634 31.7113C34.3412 31.9858 33.5749 32.739 33.1152 33.0427C34.7706 32.9344 35.9769 32.402 36.779 31.0682Z" fill="url(#paint30_linear_26_73014)"/>
<path d="M26.5801 35.9062C27.1583 35.3727 27.3381 34.8737 27.8924 34.445C28.4468 34.0163 29.3602 33.5536 29.9479 33.3792C29.2673 34.2027 28.4057 35.5466 26.5801 35.9062Z" fill="#9CB3CF"/>
<path d="M26.5801 35.9043C27.1583 35.3708 27.3381 34.8718 27.8924 34.4431C28.4468 34.0143 29.3602 33.5517 29.9479 33.3772C29.2673 34.2007 28.4057 35.5446 26.5801 35.9043Z" fill="url(#paint31_linear_26_73014)"/>
<path d="M26.5801 35.9062C28.0127 35.1238 28.6445 34.2247 29.9479 33.3792C29.3602 33.5536 28.4468 34.0163 27.8924 34.445C27.3381 34.8737 27.1583 35.3727 26.5801 35.9062Z" fill="#232E30"/>
<path d="M26.5801 35.9043C28.0127 35.1219 28.6445 34.2227 29.9479 33.3772C29.3602 33.5517 28.4468 34.0143 27.8924 34.4431C27.3381 34.8718 27.1583 35.3708 26.5801 35.9043Z" fill="url(#paint32_linear_26_73014)"/>
<path d="M30.6779 35.595C29.4411 35.6754 29.2202 35.461 28.6206 35.4551C30.4236 34.737 30.747 34.6792 32.8965 34.8186C32.1915 35.3747 31.5085 35.5283 30.6779 35.595Z" fill="#9CB3CF"/>
<path d="M30.6779 35.595C29.4411 35.6754 29.2202 35.461 28.6206 35.4551C30.4236 34.737 30.747 34.6792 32.8965 34.8186C32.1915 35.3747 31.5085 35.5283 30.6779 35.595Z" fill="url(#paint33_linear_26_73014)"/>
<path d="M28.6201 35.4531C30.1343 35.0137 31.5438 35.3382 32.8961 34.8166C30.7465 34.6773 30.4231 34.735 28.6201 35.4531Z" fill="#232E30"/>
<path d="M28.6201 35.4512C30.1343 35.0117 31.5438 35.3363 32.8961 34.8146C30.7465 34.6753 30.4231 34.7331 28.6201 35.4512Z" fill="url(#paint34_linear_26_73014)"/>
<path d="M26.5631 37.1235C25.3639 37.033 24.5964 36.5441 24.0908 36.3482C25.2912 36.238 26.4845 36.1511 27.2336 36.2898C27.9987 36.4304 28.3143 36.7995 28.8633 36.8228C27.9385 37.1479 27.1985 37.1717 26.5631 37.1235Z" fill="#9CB3CF"/>
<path d="M26.5631 37.1225C25.3639 37.032 24.5964 36.5431 24.0908 36.3472C25.2912 36.2371 26.4845 36.1501 27.2336 36.2889C27.9987 36.4294 28.3143 36.7986 28.8633 36.8218C27.9385 37.1469 27.1985 37.1707 26.5631 37.1225Z" fill="url(#paint35_linear_26_73014)"/>
<path d="M24.0908 36.3489C25.6735 36.5329 27.0025 36.8122 28.8633 36.8235C28.3143 36.8003 27.9987 36.4311 27.2336 36.2906C26.4845 36.1518 25.2912 36.2388 24.0908 36.3489Z" fill="#232E30"/>
<path d="M24.0908 36.3487C25.6735 36.5327 27.0025 36.8119 28.8633 36.8232C28.3143 36.8 27.9987 36.4308 27.2336 36.2903C26.4845 36.1516 25.2912 36.2385 24.0908 36.3487Z" fill="url(#paint36_linear_26_73014)"/>
<path d="M33.1152 33.0442C34.0745 32.513 35.4857 32.1909 36.779 31.0697C36.1716 31.3436 35.5863 31.4401 34.9634 31.7128C34.3412 31.9873 33.5749 32.7405 33.1152 33.0442Z" fill="#232E30"/>
<path d="M33.1152 33.0427C34.0745 32.5116 35.4857 32.1894 36.779 31.0682C36.1716 31.3421 35.5863 31.4386 34.9634 31.7113C34.3412 31.9858 33.5749 32.739 33.1152 33.0427Z" fill="url(#paint37_linear_26_73014)"/>
<path d="M36.2598 13.4724C36.3854 14.6543 36.8821 15.8827 37.6681 17.0647C37.3507 15.5755 36.9344 14.8467 36.2598 13.4724Z" fill="#232E30"/>
<path d="M36.2598 13.4736C36.3854 14.6555 36.8821 15.884 37.6681 17.0659C37.3507 15.5767 36.9344 14.8479 36.2598 13.4736Z" fill="url(#paint38_linear_26_73014)"/>
<path d="M19.7721 9.87637C18.3324 9.89959 17.4463 10.1151 16.0137 11.0042C17.4689 10.95 18.7087 10.3313 19.7721 9.87637Z" fill="#F1F5FC"/>
<path d="M19.7721 9.87466C18.3324 9.89788 17.4463 10.1134 16.0137 11.0024C17.4689 10.9483 18.7087 10.3296 19.7721 9.87466Z" fill="url(#paint39_radial_26_73014)"/>
<path d="M16.0137 11.0042C17.4463 10.1151 18.3324 9.89959 19.7721 9.87637C18.3341 10.2086 17.3463 10.4873 16.0137 11.0042Z" fill="#232E30"/>
<path d="M16.0137 11.0024C17.4463 10.1134 18.3324 9.89788 19.7721 9.87466C18.3341 10.2069 17.3463 10.4856 16.0137 11.0024Z" fill="url(#paint40_linear_26_73014)"/>
<path d="M15.9129 10.3193C15.4056 11.2161 14.4731 12.0735 13.3555 12.8845C13.8175 11.7651 14.0331 11.2941 15.9129 10.3193Z" fill="#232E30"/>
<path d="M15.9129 10.3203C15.4056 11.2171 14.4731 12.0745 13.3555 12.8855C13.8175 11.7661 14.0331 11.2951 15.9129 10.3203Z" fill="url(#paint41_linear_26_73014)"/>
<path d="M13.3555 12.8845C14.232 11.9306 14.5827 11.3709 15.9129 10.3193C15.4056 11.2161 14.4731 12.0735 13.3555 12.8845Z" fill="#587089"/>
<path d="M13.3555 12.8855C14.232 11.9316 14.5827 11.3719 15.9129 10.3203C15.4056 11.2171 14.4731 12.0745 13.3555 12.8855Z" fill="url(#paint42_linear_26_73014)"/>
<path d="M14.4642 12.9171C13.2751 13.2416 12.6737 13.4732 11.7139 14.8862C13.1239 14.3075 13.4025 14.0407 14.4642 12.9171Z" fill="#F1F5FC"/>
<path d="M14.4642 12.9188C13.2751 13.2433 12.6737 13.4749 11.7139 14.8879C13.1239 14.3092 13.4025 14.0424 14.4642 12.9188Z" fill="url(#paint43_radial_26_73014)"/>
<path d="M14.4642 12.9171C13.6788 13.3214 12.688 14.0532 11.7139 14.8862C12.6737 13.4732 13.2751 13.2416 14.4642 12.9171Z" fill="#232E30"/>
<path d="M14.4642 12.9188C13.6788 13.3231 12.688 14.0549 11.7139 14.8879C12.6737 13.4749 13.2751 13.2433 14.4642 12.9188Z" fill="url(#paint44_linear_26_73014)"/>
<path d="M11.7493 13.4724C11.6219 14.6543 11.1998 15.8315 10.3394 17.0647C10.3632 15.8589 10.3345 14.9163 11.7493 13.4724Z" fill="#9CB3CF"/>
<path d="M11.7493 13.4736C11.6219 14.6555 11.1998 15.8327 10.3394 17.0659C10.3632 15.8601 10.3345 14.9175 11.7493 13.4736Z" fill="url(#paint45_linear_26_73014)"/>
<path d="M11.7493 13.4724C11.6219 14.6543 11.1164 15.8815 10.3394 17.0647C10.7443 15.407 11.1932 14.7853 11.7493 13.4724Z" fill="#232E30"/>
<path d="M11.7493 13.4736C11.6219 14.6555 11.1164 15.8828 10.3394 17.0659C10.7443 15.4082 11.1932 14.7865 11.7493 13.4736Z" fill="url(#paint46_linear_26_73014)"/>
<path d="M11.8308 16.2186C10.5244 17.1808 9.96951 17.9799 9.72656 19.4983C10.478 18.7105 11.0907 18.0728 11.8308 16.2186Z" fill="#F1F5FC"/>
<path d="M11.8308 16.2198C10.5244 17.182 9.96951 17.9811 9.72656 19.4995C10.478 18.7117 11.0907 18.074 11.8308 16.2198Z" fill="url(#paint47_radial_26_73014)"/>
<path d="M11.8308 16.2186C11.1086 16.9915 9.89388 18.957 9.72656 19.4983C9.96951 17.9799 10.5244 17.1808 11.8308 16.2186Z" fill="#232E30"/>
<path d="M11.8308 16.2198C11.1086 16.9927 9.89388 18.9582 9.72656 19.4995C9.96951 17.9811 10.5244 17.182 11.8308 16.2198Z" fill="url(#paint48_linear_26_73014)"/>
<path d="M9.33389 20.6776C9.40356 21.3041 9.38033 22.4515 9.41486 23.2393C8.97363 21.9162 8.92128 20.5425 8.84863 19.0318C9.04454 19.8434 9.26482 20.0524 9.33389 20.6776Z" fill="#232E30"/>
<path d="M9.33389 20.6762C9.40356 21.3026 9.38033 22.45 9.41486 23.2378C8.97363 21.9147 8.92128 20.541 8.84863 19.0304C9.04454 19.842 9.26482 20.051 9.33389 20.6762Z" fill="url(#paint49_linear_26_73014)"/>
<path d="M10.3969 22.1391C10.0504 23.2633 9.28764 24.2833 10.154 26.3228C10.2011 25.3611 10.8822 24.7579 10.3969 22.1391Z" fill="#F1F5FC"/>
<path d="M10.3969 22.1384C10.0504 23.2626 9.28764 24.2826 10.154 26.322C10.2011 25.3604 10.8822 24.7572 10.3969 22.1384Z" fill="url(#paint50_radial_26_73014)"/>
<path d="M10.154 26.3228C9.28764 24.2833 10.0504 23.2633 10.3969 22.1391C10.363 23.9011 9.87237 24.8961 10.154 26.3228Z" fill="#232E30"/>
<path d="M10.154 26.322C9.28764 24.2826 10.0504 23.2626 10.3969 22.1384C10.363 23.9003 9.87237 24.8953 10.154 26.322Z" fill="url(#paint51_linear_26_73014)"/>
<path d="M8.75684 25.7915C9.28798 26.546 10.1317 26.78 11.403 29.1868C9.68095 28.3073 9.13733 27.5183 8.75684 25.7915Z" fill="#9CB3CF"/>
<path d="M8.75684 25.7932C9.28798 26.5477 10.1317 26.7817 11.403 29.1885C9.68095 28.309 9.13733 27.52 8.75684 25.7932Z" fill="url(#paint52_linear_26_73014)"/>
<path d="M11.4682 26.7139C12.0142 27.7416 12.2535 28.3139 12.3536 28.6455C12.4536 28.9772 12.5114 30.3396 12.5804 30.626C11.8099 29.753 11.5986 29.1481 11.5217 28.8009C11.4449 28.4526 11.4295 27.4784 11.4682 26.7139Z" fill="#232E30"/>
<path d="M11.4682 26.7144C12.0142 27.7421 12.2535 28.3143 12.3536 28.646C12.4536 28.9777 12.5114 30.3401 12.5804 30.6265C11.8099 29.7535 11.5986 29.1486 11.5217 28.8014C11.4449 28.4531 11.4295 27.4789 11.4682 26.7144Z" fill="url(#paint53_linear_26_73014)"/>
<path d="M12.5805 30.6268C12.0047 29.764 11.8178 27.8032 11.4683 26.7147C12.0143 27.7424 12.2536 28.3147 12.3537 28.6463C12.4501 28.9673 12.5114 30.3404 12.5805 30.6268C12.5805 30.6274 12.5799 30.6262 12.5805 30.6268Z" fill="#F1F5FC"/>
<path d="M12.5805 30.6278C12.0047 29.765 11.8178 27.8041 11.4683 26.7157C12.0143 27.7434 12.2536 28.3156 12.3537 28.6473C12.4501 28.9682 12.5114 30.3413 12.5805 30.6278C12.5805 30.6284 12.5799 30.6272 12.5805 30.6278Z" fill="url(#paint54_radial_26_73014)"/>
<path d="M14.1558 30.6003C14.881 31.2798 15.3122 31.6972 15.6587 32.2384C16.0058 32.7797 16.1065 33.4091 16.4685 33.9414C14.5262 32.8601 14.4886 31.6352 14.1558 30.6003Z" fill="#232E30"/>
<path d="M14.1558 30.6003C14.881 31.2798 15.3122 31.6972 15.6587 32.2384C16.0058 32.7797 16.1065 33.4091 16.4685 33.9414C14.5262 32.8601 14.4886 31.6352 14.1558 30.6003Z" fill="url(#paint55_linear_26_73014)"/>
<path d="M15.6587 32.2384C16.0058 32.7797 16.1065 33.4091 16.4685 33.9414C16.0172 33.6443 14.6143 31.4947 14.1558 30.6003C14.881 31.2798 15.3122 31.6972 15.6587 32.2384Z" fill="#F1F5FC"/>
<path d="M15.6587 32.2384C16.0058 32.7797 16.1065 33.4091 16.4685 33.9414C16.0172 33.6443 14.6143 31.4947 14.1558 30.6003C14.881 31.2798 15.3122 31.6972 15.6587 32.2384Z" fill="url(#paint56_radial_26_73014)"/>
<path d="M11.2295 31.0691C11.8374 31.34 12.4234 31.4329 13.0474 31.7026C13.6708 31.9736 14.4413 32.722 14.9039 33.0239C13.2474 32.9233 12.0375 32.3969 11.2295 31.0691Z" fill="#9CB3CF"/>
<path d="M11.2295 31.0674C11.8374 31.3383 12.4234 31.4312 13.0474 31.7009C13.6708 31.9718 14.4413 32.7203 14.9039 33.0222C13.2474 32.9216 12.0375 32.3952 11.2295 31.0674Z" fill="url(#paint57_linear_26_73014)"/>
<path d="M14.9039 33.0239C13.9399 32.4987 12.6228 32.1367 11.2295 31.0691C11.8374 31.34 12.4234 31.4329 13.0474 31.7026C13.6708 31.9736 14.4413 32.722 14.9039 33.0239Z" fill="#232E30"/>
<path d="M14.9039 33.0222C13.9399 32.497 12.6228 32.135 11.2295 31.0674C11.8374 31.3383 12.4234 31.4312 13.0474 31.7009C13.6708 31.9718 14.4413 32.7203 14.9039 33.0222Z" fill="url(#paint58_linear_26_73014)"/>
<path d="M21.4283 35.9062C20.8495 35.3727 20.6703 34.8737 20.1159 34.445C19.561 34.0163 18.6481 33.5536 18.0586 33.3792C18.7404 34.2027 19.6014 35.5466 21.4283 35.9062Z" fill="#232E30"/>
<path d="M21.4283 35.9043C20.8495 35.3708 20.6703 34.8718 20.1159 34.4431C19.561 34.0143 18.6481 33.5517 18.0586 33.3772C18.7404 34.2007 19.6014 35.5446 21.4283 35.9043Z" fill="url(#paint59_linear_26_73014)"/>
<path d="M21.4283 35.9062C20.1987 35.228 19.4775 34.2926 18.0586 33.3792C18.6481 33.5536 19.561 34.0163 20.1159 34.445C20.6703 34.8737 20.8495 35.3727 21.4283 35.9062Z" fill="#F1F5FC"/>
<path d="M21.4283 35.9043C20.1987 35.2261 19.4775 34.2906 18.0586 33.3772C18.6481 33.5517 19.561 34.0143 20.1159 34.4431C20.6703 34.8718 20.8495 35.3708 21.4283 35.9043Z" fill="url(#paint60_radial_26_73014)"/>
<path d="M17.3305 35.595C18.5667 35.6754 18.7887 35.461 19.3878 35.4551C17.5853 34.737 17.2608 34.6792 15.1118 34.8186C15.8168 35.3747 16.4993 35.5283 17.3305 35.595Z" fill="#9CB3CF"/>
<path d="M17.3305 35.595C18.5667 35.6754 18.7887 35.461 19.3878 35.4551C17.5853 34.737 17.2608 34.6792 15.1118 34.8186C15.8168 35.3747 16.4993 35.5283 17.3305 35.595Z" fill="url(#paint61_linear_26_73014)"/>
<path d="M19.3882 35.4531C17.8061 35.1352 16.464 35.3382 15.1123 34.8166C17.2613 34.6773 17.5858 34.735 19.3882 35.4531Z" fill="#232E30"/>
<path d="M19.3882 35.4512C17.8061 35.1332 16.464 35.3363 15.1123 34.8146C17.2613 34.6753 17.5858 34.7331 19.3882 35.4512Z" fill="url(#paint62_linear_26_73014)"/>
<path d="M21.4435 37.1235C22.644 37.033 23.4115 36.5441 23.917 36.3482C22.7172 36.238 21.5245 36.1511 20.7742 36.2898C20.0091 36.4304 19.6935 36.7995 19.1445 36.8228C20.0693 37.1479 20.8094 37.1717 21.4435 37.1235Z" fill="#9CB3CF"/>
<path d="M21.4435 37.1225C22.644 37.032 23.4115 36.5431 23.917 36.3472C22.7172 36.2371 21.5245 36.1501 20.7742 36.2889C20.0091 36.4294 19.6935 36.7986 19.1445 36.8218C20.0693 37.1469 20.8094 37.1707 21.4435 37.1225Z" fill="url(#paint63_linear_26_73014)"/>
<path d="M23.917 36.3489C22.3343 36.5329 21.0053 36.8122 19.1445 36.8235C19.6935 36.8003 20.0091 36.4311 20.7742 36.2906C21.5245 36.1518 22.7172 36.2388 23.917 36.3489Z" fill="#232E30"/>
<path d="M23.917 36.3487C22.3343 36.5327 21.0053 36.8119 19.1445 36.8232C19.6935 36.8 20.0091 36.4308 20.7742 36.2903C21.5245 36.1516 22.7172 36.2385 23.917 36.3487Z" fill="url(#paint64_linear_26_73014)"/>
<path d="M11.403 29.1868C10.5783 28.3609 9.27785 27.1932 8.75684 25.7915C9.28798 26.546 10.1317 26.78 11.403 29.1868Z" fill="#232E30"/>
<path d="M11.403 29.1885C10.5783 28.3626 9.27785 27.1949 8.75684 25.7932C9.28798 26.5477 10.1317 26.7817 11.403 29.1885Z" fill="url(#paint65_linear_26_73014)"/>
<path d="M32.8973 34.8084C30.7627 34.6696 30.4435 34.7178 28.6149 35.4473C28.6071 35.4496 28.603 35.4586 28.6059 35.4651C28.6095 35.4735 28.6185 35.477 28.6256 35.4747C30.4483 34.7482 30.7674 34.7 32.8944 34.8375C32.9033 34.8393 32.9104 34.831 32.9104 34.8232C32.911 34.8155 32.9045 34.8084 32.8973 34.8084Z" fill="#818384"/>
<path d="M36.7682 31.0482C36.4627 31.1857 36.1555 31.281 35.8578 31.3721C35.5654 31.462 35.2623 31.5555 34.9544 31.6907C34.5513 31.8693 34.0923 32.242 33.6874 32.5713C33.4694 32.7494 33.2646 32.9167 33.1008 33.0239L33.0806 33.0382L33.108 33.0798L33.1288 33.0655C33.2938 32.9566 33.4998 32.7887 33.7183 32.61C34.1214 32.2819 34.577 31.911 34.9741 31.7377C35.2802 31.6025 35.5814 31.509 35.872 31.4191C36.1715 31.3274 36.48 31.2328 36.7885 31.0934L36.8116 31.0827L36.7914 31.038L36.7682 31.0482Z" fill="#88898A"/>
<path d="M38.2737 19.4994L38.2624 19.4887C37.5121 18.6884 36.9196 18.0572 36.1991 16.2096C36.195 16.2006 36.1866 16.1965 36.1783 16.1994C36.1694 16.203 36.1652 16.2119 36.1688 16.2209C36.8916 18.0757 37.4859 18.7093 38.2385 19.5107L38.2498 19.5226C38.2552 19.5292 38.2659 19.5298 38.2731 19.5232C38.2796 19.5173 38.2802 19.506 38.2737 19.4994Z" fill="#D0D1D3"/>
<path d="M37.7102 17.0647L37.7067 16.7872C37.696 15.6982 37.6864 14.758 36.2871 13.4426L36.23 13.5028C37.6025 14.7949 37.6114 15.7184 37.6233 16.7878L37.6269 17.0659L37.7102 17.0647Z" fill="#EBF1FB"/>
<path d="M36.2992 14.8695C34.9011 14.2949 34.6248 14.0353 33.5554 12.904C33.5482 12.8968 33.5381 12.8968 33.5303 12.9028C33.5244 12.9087 33.5244 12.9194 33.5303 12.926C34.6051 14.0621 34.8814 14.3223 36.2867 14.8999C36.295 14.9041 36.3045 14.8999 36.3087 14.8916C36.3123 14.8826 36.3087 14.8731 36.2992 14.8695Z" fill="#C3C4C6"/>
<path d="M15.1134 34.8329C17.2397 34.6947 17.5595 34.743 19.3815 35.4694C19.3899 35.4724 19.3982 35.4688 19.4018 35.4611C19.4047 35.4533 19.4012 35.445 19.3934 35.442C17.5642 34.7132 17.2451 34.665 15.111 34.8031C15.1032 34.8049 15.0967 34.8114 15.0967 34.8192C15.0973 34.8275 15.105 34.8335 15.1134 34.8329Z" fill="#939596"/>
<path d="M19.146 36.8378C19.4282 36.8253 19.6462 36.7247 19.8992 36.6086C20.135 36.4978 20.403 36.374 20.7775 36.3043C21.5373 36.1644 22.7443 36.2567 23.9155 36.3632C23.9233 36.3638 23.931 36.3579 23.9322 36.3495C23.9334 36.3418 23.9274 36.3341 23.9179 36.3329C22.7443 36.2269 21.5343 36.134 20.771 36.2751C20.3947 36.3454 20.1243 36.4704 19.8861 36.5812C19.6355 36.6961 19.4205 36.7961 19.1442 36.808C19.1359 36.808 19.1293 36.8152 19.1299 36.8235C19.1305 36.8319 19.1365 36.8378 19.146 36.8378Z" fill="#838486"/>
<path d="M28.8869 36.8378C28.6047 36.8253 28.3862 36.7247 28.1337 36.6086C27.8973 36.4978 27.6294 36.374 27.256 36.3043C26.495 36.1644 25.2881 36.2567 24.1174 36.3632C24.1085 36.3638 24.1019 36.3579 24.1001 36.3495C24.0995 36.3418 24.1061 36.3341 24.1144 36.3329C25.2881 36.2269 26.4974 36.134 27.2614 36.2751C27.6389 36.3454 27.908 36.4704 28.1468 36.5812C28.3969 36.6961 28.6113 36.7961 28.8887 36.808C28.8971 36.808 28.903 36.8152 28.903 36.8235C28.903 36.8319 28.8959 36.8378 28.8869 36.8378Z" fill="#838486"/>
<path d="M8.83436 19.0371C8.92367 19.4039 9.01657 19.6468 9.09874 19.8624C9.19699 20.1184 9.28154 20.3394 9.31965 20.6811C9.36193 21.0646 9.37026 21.6511 9.378 22.218C9.38217 22.5711 9.38634 22.9367 9.40063 23.2422C9.40123 23.2505 9.40718 23.2559 9.41611 23.2559C9.42445 23.2553 9.4304 23.2481 9.4304 23.241C9.41671 22.9355 9.41135 22.5711 9.40599 22.2174C9.39944 21.6499 9.39229 21.0622 9.34823 20.6782C9.31072 20.3322 9.22498 20.1101 9.12673 19.8505C9.04396 19.6373 8.95226 19.395 8.86413 19.0306C8.86175 19.0222 8.85401 19.0181 8.84567 19.0192C8.83733 19.0216 8.83257 19.03 8.83436 19.0371Z" fill="#94A3AF"/>
<path d="M11.2238 31.0846C11.5323 31.2221 11.8419 31.3156 12.1408 31.4067C12.4326 31.4937 12.7345 31.5853 13.0417 31.7181C13.4413 31.8914 13.8998 32.2606 14.3041 32.5863C14.5232 32.7637 14.7304 32.9311 14.8959 33.0388C14.9031 33.0424 14.912 33.0412 14.9162 33.0341C14.921 33.0269 14.9186 33.018 14.912 33.0132C14.7483 32.9072 14.5417 32.7399 14.3225 32.5631C13.9176 32.2362 13.4567 31.8664 13.0536 31.6907C12.7446 31.5574 12.4421 31.4657 12.1491 31.3769C11.8508 31.2876 11.5436 31.1935 11.2351 31.0578C11.228 31.0548 11.2191 31.0578 11.2155 31.0655C11.2125 31.0721 11.2155 31.0816 11.2238 31.0846Z" fill="#818384"/>
<path d="M8.74364 25.799C8.91156 26.0365 9.11163 26.2247 9.34266 26.4415C9.83927 26.9065 10.5193 27.5436 11.3892 29.1936C11.3934 29.2008 11.4023 29.2031 11.4089 29.199C11.416 29.196 11.419 29.1865 11.4154 29.1793C10.5419 27.5258 9.8613 26.8857 9.3635 26.4194C9.13307 26.2033 8.93419 26.0175 8.76925 25.7817C8.76389 25.7746 8.75436 25.774 8.74722 25.7775C8.74067 25.7835 8.73947 25.7924 8.74364 25.799Z" fill="#838486"/>
<path d="M11.7347 13.4696C11.6013 14.7164 11.1405 15.8895 10.3271 17.0553C10.3223 17.0619 10.3235 17.0708 10.3307 17.0762C10.3378 17.0803 10.3467 17.0786 10.3509 17.072C11.1678 15.9026 11.6293 14.7242 11.7645 13.4719C11.7651 13.4642 11.7591 13.457 11.7508 13.4559C11.7425 13.4553 11.7353 13.4606 11.7347 13.4696Z" fill="#BABBBD"/>
<path d="M27.9749 9.27813C31.0045 10.1606 33.5685 11.6992 35.39 13.7285C36.3922 14.8444 37.168 16.1073 37.6962 17.481C38.2637 18.956 38.5513 20.575 38.5513 22.2946C38.5513 24.0923 38.1767 25.8506 37.4372 27.5179C36.7208 29.1399 35.6883 30.6107 34.3706 31.8903C31.6524 34.5329 27.9719 36.1019 24.005 36.3061C23.9967 36.3067 23.9902 36.3139 23.9914 36.3216C23.9914 36.3311 23.9979 36.3365 24.0068 36.3365C27.9797 36.1311 31.6685 34.5603 34.3915 31.9117C35.7116 30.6291 36.7453 29.1548 37.4658 27.531C38.2053 25.859 38.581 24.0976 38.581 22.2946C38.581 20.5714 38.2922 18.9482 37.7242 17.4703C37.1936 16.093 36.4166 14.8271 35.4121 13.7095C33.587 11.6754 31.0176 10.1332 27.9832 9.24895C27.9749 9.24716 27.9636 9.25967 27.9612 9.268C27.9588 9.27515 27.9672 9.27575 27.9749 9.27813Z" fill="white"/>
<path d="M24.0008 36.3069C20.034 36.102 16.3541 34.533 13.6353 31.891C12.3193 30.6108 11.2874 29.1401 10.5699 27.5181C9.83156 25.8508 9.45761 24.0924 9.45761 22.2948C9.45761 20.5769 9.74402 18.9591 10.3103 17.4859C10.8391 16.1122 11.6143 14.8505 12.6153 13.7352C14.435 11.7065 16.9966 10.1673 20.0227 9.28305C20.031 9.28067 20.0447 9.28305 20.0429 9.27531C20.0399 9.26817 20.0048 9.25744 20 9.25864C16.9757 10.1447 14.4141 11.6857 12.5926 13.7156C11.5893 14.8332 10.8129 16.098 10.2835 17.4752C9.71544 18.9519 9.42725 20.5739 9.42725 22.2948C9.42725 24.0978 9.80238 25.8591 10.5419 27.5312C11.2618 29.155 12.2955 30.6293 13.615 31.9131C16.3386 34.5604 20.0256 36.1312 23.9991 36.3367C24.008 36.3367 24.0145 36.3313 24.0145 36.323C24.0157 36.314 24.0086 36.3075 24.0008 36.3069Z" fill="white"/>
<path d="M24.0049 30.2073C26.1312 29.7446 28.7935 28.9021 30.9508 27.9755C31.2176 27.8618 31.4152 27.6856 31.5754 27.4593V25.8176L24.0049 24.014V30.2073Z" fill="#D3E2F5"/>
<path d="M24.0049 30.2073C26.1312 29.7446 28.7935 28.9021 30.9508 27.9755C31.2176 27.8618 31.4152 27.6856 31.5754 27.4593V25.8176L24.0049 24.014V30.2073Z" fill="url(#paint66_linear_26_73014)"/>
<path d="M27.9665 18.669H32.318L32.8814 17.7467H27.8111V20.322H24.0896V17.7467H23.9306V19.5967H16.3237L16.3797 19.6938C16.3797 19.6938 16.3797 19.7069 16.3797 19.7313H23.9306V21.0377H16.394C16.394 21.0812 16.3946 21.133 16.3952 21.177H23.9306V22.9116H16.4155C16.4161 22.9545 16.4166 23.0027 16.4166 23.0456H20.0977V25.5274H16.4559C16.4559 25.5304 16.4559 25.5327 16.4559 25.5339C16.4667 25.893 16.5029 26.2086 16.5786 26.4807H20.1018V27.3262H17.1223C17.2616 27.4304 17.4289 27.5126 17.6278 27.5739C18.4263 27.8175 19.3522 28.0694 20.2346 28.295V25.6626L23.9306 25.6584V29.0971C23.9443 29.0989 23.9609 29.1019 23.9758 29.1042C24.0032 29.1001 24.0616 29.0947 24.0896 29.0911V26.3967H31.5196C31.5291 26.3545 31.5386 26.3027 31.5476 26.2586H24.0896V24.9617H31.6297C31.6309 24.9206 31.6316 24.8516 31.6333 24.8063H24.0896V23.0456H31.6577C31.6577 23.0027 31.6583 22.9461 31.6589 22.9027H27.9665V20.4518H31.6863C31.6911 19.9903 31.6953 19.6938 31.6953 19.6938L31.8244 19.4806H27.9665V18.669Z" fill="#BCD0ED"/>
<path d="M27.9665 18.6685H32.318L32.8814 17.7462H27.8111V20.3215H24.0896V17.7462H23.9306V19.5962H16.3237L16.3797 19.6933C16.3797 19.6933 16.3797 19.7064 16.3797 19.7308H23.9306V21.0372H16.394C16.394 21.0807 16.3946 21.1325 16.3952 21.1766H23.9306V22.9111H16.4155C16.4161 22.954 16.4166 23.0022 16.4166 23.0451H20.0977V25.5269H16.4559C16.4559 25.5299 16.4559 25.5323 16.4559 25.5334C16.4667 25.8925 16.5029 26.2081 16.5786 26.4802H20.1018V27.3258H17.1223C17.2616 27.43 17.4289 27.5121 17.6278 27.5735C18.4263 27.817 19.3522 28.0689 20.2346 28.2945V25.6621L23.9306 25.6579V29.0966C23.9443 29.0984 23.9609 29.1014 23.9758 29.1038C24.0032 29.0996 24.0616 29.0942 24.0896 29.0907V26.3963H31.5196C31.5291 26.354 31.5386 26.3022 31.5476 26.2581H24.0896V24.9612H31.6297C31.6309 24.9201 31.6316 24.8511 31.6333 24.8058H24.0896V23.0451H31.6577C31.6577 23.0022 31.6583 22.9456 31.6589 22.9022H27.9665V20.4513H31.6863C31.6911 19.9898 31.6953 19.6933 31.6953 19.6933L31.8244 19.4801H27.9665V18.6685Z" fill="url(#paint67_linear_26_73014)"/>
<path d="M31.1789 26.6751L24.2592 28.8824L24.0479 29.1409V26.356H31.5719L31.1789 26.6751Z" fill="#606969"/>
<path d="M24.2592 28.8824L31.1789 26.6751L31.5719 26.356L31.56 26.4078C31.4064 27.0538 31.0569 27.4325 30.459 27.6147C28.4714 28.2215 25.6341 28.9021 24.0961 29.1331L24.0479 29.1409L24.2592 28.8824Z" fill="#E3EBF7"/>
<path d="M16.9185 25.072L20.1387 23.0046V25.571H16.4165L16.9185 25.072Z" fill="#E3EBF7"/>
<path d="M16.9186 25.072L16.4167 25.571L16.4155 25.5299C16.4048 25.1572 16.3917 24.3218 16.375 23.0469V23.0046H20.1388L16.9186 25.072Z" fill="#606969"/>
<path d="M23.7248 25.9099L23.9713 25.6169V29.1462L23.9236 29.139C23.0763 29.014 21.7389 28.721 20.2497 28.3405L20.2188 28.3334L23.7248 25.9099Z" fill="#E3EBF7"/>
<path d="M23.7248 25.9099L20.2188 28.3334V25.6169H23.9713L23.7248 25.9099Z" fill="#606969"/>
<path d="M17.1904 27.1306L19.8926 26.6643L20.1439 26.4404V27.3687H17.1226L17.1904 27.1306Z" fill="#E3EBF7"/>
<path d="M19.8924 26.6643L17.1902 27.1306L17.1224 27.3687H17.1075L17.0967 27.361C16.8282 27.1621 16.6448 26.8775 16.5388 26.4928L16.5239 26.4404H20.1437L19.8924 26.6643Z" fill="#606969"/>
<path d="M23.8354 21.2923L16.78 22.6262L16.3739 22.9548L16.3733 22.9126L16.353 21.178V21.1357H23.9712L23.8354 21.2923Z" fill="#606969"/>
<path d="M16.7801 22.6262L23.8356 21.2923L23.9714 21.1357V22.9548H16.374L16.7801 22.6262Z" fill="#E3EBF7"/>
<path d="M24.3587 20.0683L27.5402 18.0605L27.8528 17.7056V20.3642H24.0479L24.3587 20.0683Z" fill="#E3EBF7"/>
<path d="M27.5402 18.0605L24.3587 20.0683L24.0479 20.3642V17.7056H27.8528L27.5402 18.0605Z" fill="#606969"/>
<path d="M23.7748 19.8742L23.9713 19.6902V21.0806H16.3525L23.7748 19.8742Z" fill="#E3EBF7"/>
<path d="M23.7748 19.8742L16.3526 21.0806L16.3514 21.0383L16.3395 19.7325L16.3389 19.6902H23.9713L23.7748 19.8742Z" fill="#606969"/>
<path d="M16.4199 19.4371L23.7957 17.8997L23.9713 17.7056V19.639H16.3008L16.4199 19.4371Z" fill="#E3EBF7"/>
<path d="M23.7953 17.8997L16.4195 19.4371L16.3004 19.639L16.2885 19.6193L15.1577 17.7681L15.1196 17.7056H23.971L23.7953 17.8997Z" fill="#606969"/>
<path d="M31.2562 20.9069L28.2945 22.6373L27.9253 22.9451V20.4109H31.7284L31.2562 20.9069Z" fill="#606969"/>
<path d="M28.2945 22.6373L31.2562 20.9069L31.7284 20.4109V20.4526L31.701 22.904L31.6998 22.9451H27.9253L28.2945 22.6373Z" fill="#E3EBF7"/>
<path d="M31.9261 18.86L28.1533 19.3531L27.9253 19.5228V18.6284H32.3411L31.9261 18.86Z" fill="#606969"/>
<path d="M28.1533 19.3531L31.9261 18.86L32.3411 18.6284L32.3018 18.6915L31.8076 19.5025L31.7957 19.5228H27.9253L28.1533 19.3531Z" fill="#E3EBF7"/>
<path d="M31.2778 25.2053L24.2646 26.1032L24.0479 26.3003V24.9219H31.6732L31.2778 25.2053Z" fill="#606969"/>
<path d="M24.2646 26.1032L31.2778 25.2053L31.6732 24.9219V24.9636L31.6589 25.5364C31.6511 25.8168 31.6285 26.0556 31.5874 26.2664L31.5821 26.3003H24.0479L24.2646 26.1032Z" fill="#E3EBF7"/>
<path d="M31.4618 23.2309L24.3039 24.6118L24.0479 24.8481V23.0046H31.6994L31.4618 23.2309Z" fill="#606969"/>
<path d="M24.3039 24.6118L31.4618 23.2309L31.6994 23.0046L31.6982 23.0469C31.6892 23.7769 31.6815 24.3688 31.675 24.8077L31.6738 24.8481H24.0479L24.3039 24.6118Z" fill="#E3EBF7"/>
<path d="M27.6503 21.4185L24.3146 21.955L24.0479 22.1902V21.2488H27.8528L27.6503 21.4185Z" fill="#606969"/>
<path d="M24.3146 21.955L27.6503 21.4185L27.8528 21.2488V22.1902H24.0479L24.3146 21.955Z" fill="#E3EBF7"/>
<path d="M20.3718 24.6165L23.8022 24.0288L23.9713 23.8335V24.7737H20.2158L20.3718 24.6165Z" fill="#E3EBF7"/>
<path d="M23.8022 24.0288L20.3718 24.6165L20.2158 24.7737V23.8335H23.9713L23.8022 24.0288Z" fill="#606969"/>
<path d="M24.0894 29.0901C25.5226 28.8745 28.3611 28.2088 30.4464 27.5729C31.065 27.3835 31.3783 26.9935 31.5194 26.3957H24.0894V29.0901Z" fill="#D4B066"/>
<path d="M24.0894 29.0881C25.5226 28.8726 28.3611 28.2069 30.4464 27.5709C31.065 27.3816 31.3783 26.9916 31.5194 26.3937H24.0894V29.0881Z" fill="url(#paint68_linear_26_73014)"/>
<path d="M20.0981 23.0462H16.417C16.4301 24.099 16.445 25.0976 16.4563 25.5281H20.0981V23.0462Z" fill="#D91121"/>
<path d="M20.0981 23.0467H16.417C16.4301 24.0995 16.445 25.0981 16.4563 25.5286H20.0981V23.0467Z" fill="url(#paint69_linear_26_73014)"/>
<path d="M20.2598 25.6589V28.3004C21.7025 28.6683 23.0513 28.9678 23.9307 29.0977V25.6589H20.2598Z" fill="#D91121"/>
<path d="M20.2598 25.6589V28.3004C21.7025 28.6683 23.0513 28.9678 23.9307 29.0977V25.6589H20.2598Z" fill="url(#paint70_linear_26_73014)"/>
<path d="M20.1019 26.4799H16.5786C16.6786 26.8413 16.8484 27.1248 17.1223 27.3254H20.1019V26.4799Z" fill="#003971"/>
<path d="M20.1019 26.4784H16.5786C16.6786 26.8399 16.8484 27.1233 17.1223 27.324H20.1019V26.4784Z" fill="url(#paint71_linear_26_73014)"/>
<path d="M23.9309 21.1759H16.3955C16.4009 21.704 16.408 22.3066 16.4158 22.9104H23.9309V21.1759Z" fill="#D4B066"/>
<path d="M23.9309 21.1739H16.3955C16.4009 21.7021 16.408 22.3047 16.4158 22.9084H23.9309V21.1739Z" fill="url(#paint72_linear_26_73014)"/>
<path d="M24.0898 20.3225H27.8114V17.7473H24.0898V20.3225Z" fill="#D91121"/>
<path d="M27.8109 20.3196V17.7443H24.0894V20.3196H27.8109Z" fill="url(#paint73_linear_26_73014)"/>
<path d="M23.9304 17.7471H15.1934L16.3235 19.5972H23.9304V17.7471Z" fill="#D4B066"/>
<path d="M23.9304 17.7469H15.1934L16.3235 19.5969H23.9304V17.7469Z" fill="url(#paint74_linear_26_73014)"/>
<path d="M27.9663 22.9043H31.6587C31.67 21.9974 31.6802 21.0798 31.6861 20.4534H27.9663V22.9043Z" fill="#D91121"/>
<path d="M27.9663 22.9053H31.6587C31.67 21.9984 31.6802 21.0808 31.6861 20.4544H27.9663V22.9053Z" fill="url(#paint75_linear_26_73014)"/>
<path d="M27.9663 18.6701V19.4817H31.7725L32.2661 18.6701H27.9663Z" fill="#003971"/>
<path d="M27.9663 18.6708V19.4824H31.7725L32.2661 18.6708H27.9663Z" fill="url(#paint76_linear_26_73014)"/>
<path d="M24.0898 26.2595H31.5478C31.5889 26.0416 31.6098 25.801 31.6181 25.5349C31.6217 25.3926 31.6264 25.2133 31.63 24.9626H24.0898V26.2595Z" fill="#141314"/>
<path d="M24.0894 24.8057H31.6331C31.6409 24.3186 31.6497 23.6922 31.6575 23.0449H24.0894V24.8057Z" fill="#D4B066"/>
<path d="M24.0894 24.8042H31.6331C31.6409 24.3171 31.6497 23.6907 31.6575 23.0435H24.0894V24.8042Z" fill="url(#paint77_linear_26_73014)"/>
<path d="M20.2578 24.7322H23.9306V23.8743H20.2578V24.7322Z" fill="#003971"/>
<path d="M23.931 24.729H20.2583V23.871H23.931V24.729Z" fill="url(#paint78_linear_26_73014)"/>
<path d="M24.0898 22.149H27.8114V21.2896H24.0898V22.149Z" fill="#003971"/>
<path d="M27.8109 22.1497H24.0894V21.2904H27.8109V22.1497Z" fill="url(#paint79_linear_26_73014)"/>
<path d="M23.9308 19.7319H16.3799C16.3823 19.8689 16.387 20.3738 16.3942 21.0383H23.9308V19.7319Z" fill="#141314"/>
<path d="M31.467 26.4398C31.3133 27.0317 30.993 27.3645 30.4344 27.5354C28.4707 28.1339 25.6774 28.8067 24.1328 29.0437V26.4398H31.467Z" fill="#D4B066"/>
<path d="M31.467 26.4403C31.3133 27.0322 30.993 27.365 30.4344 27.5359C28.4707 28.1343 25.6774 28.8072 24.1328 29.0442V26.4403H31.467Z" fill="url(#paint80_linear_26_73014)"/>
<path d="M32.2665 18.6697H27.9668V19.4813H28.0269V18.7292H32.2665V18.6697Z" fill="#233B4D"/>
<path d="M27.8114 21.2896H24.0898V22.1488H24.1494V21.3485H27.8114V21.2896Z" fill="#233B4D"/>
<path d="M27.8114 17.7473H24.0898V20.3226H24.1494V17.8069H27.8114V17.7473Z" fill="#96423A"/>
<path d="M23.9309 17.7473H15.1938L16.324 19.5974H16.3919L15.3046 17.8069H23.9309V17.7473Z" fill="#716543"/>
<path d="M23.9306 21.178H16.3916L16.4112 22.9125H16.4744L16.4547 21.2369H23.9306V21.178Z" fill="#716543"/>
<path d="M20.0978 23.0461H16.4126L16.4519 25.528H16.5204L16.4799 23.1057H20.0978V23.0461Z" fill="#95473F"/>
<path d="M31.6866 20.4526H27.9668V22.9023H28.0269V20.5122H31.6866V20.4526Z" fill="#96423A"/>
<path d="M23.9305 23.8743H20.2578V24.7323H20.3168V23.9338H23.9305V23.8743Z" fill="#264865"/>
<path d="M23.9337 25.6592H20.2598V28.3006L20.3193 28.3179V25.7181H23.9337V25.6592Z" fill="#95473F"/>
<path d="M31.5145 26.3975H24.0898V29.0966H24.1494V26.457H31.5145V26.3975Z" fill="#716543"/>
<path d="M31.658 23.0461H24.0898V24.8069H24.1494V23.1057H31.658V23.0461Z" fill="#716543"/>
<path d="M16.5786 26.4814C16.5828 26.4957 16.5875 26.5094 16.5917 26.5243L16.5965 26.541C16.6906 26.8465 16.9025 27.1352 17.1354 27.327H17.2294C16.9984 27.1549 16.7614 26.8631 16.6584 26.541H20.1019V26.4814H16.5786Z" fill="#264865"/>
<path d="M32.9316 17.6956C32.6935 18.1546 32.285 18.8531 31.7753 19.6593C31.7586 21.4213 31.7157 24.4045 31.6925 25.5245C31.6675 26.7273 31.315 27.374 30.5504 27.6217C29.8091 27.8628 25.4689 29.0269 24.0112 29.1556L24.0476 29.1085C25.6481 28.9269 29.7924 27.8057 30.5326 27.5657C31.2692 27.3263 31.6074 26.6958 31.6336 25.5245C31.6568 24.4015 31.6997 21.4112 31.7145 19.6504L31.7157 19.6427L31.7193 19.6349L32.8578 17.7676L32.9316 17.6956Z" fill="#E3EBF7"/>
<path d="M32.9314 17.6956H15.0972L15.1263 17.7414L16.3238 19.6897C16.3399 21.4153 16.3923 24.3598 16.4179 25.5543C16.4429 26.7279 16.7823 27.3359 17.5576 27.5871C18.3757 27.8533 22.4539 28.9787 24.011 29.1556L24.0146 29.1562L24.0182 29.1556C25.6205 28.9745 29.7762 27.8497 30.5175 27.6086C31.2815 27.3609 31.634 26.7136 31.659 25.5132C31.6834 24.3908 31.7263 21.4082 31.7411 19.6468L32.9029 17.7408L32.9314 17.6956ZM31.6816 19.6296V19.6379C31.6673 21.3981 31.6238 24.3884 31.6006 25.5114C31.575 26.6833 31.2356 27.3132 30.499 27.552C29.7589 27.7926 25.6152 28.9144 24.0146 29.0954C22.4593 28.9192 18.3936 27.7967 17.5754 27.5312C16.8198 27.2853 16.5006 26.7124 16.4768 25.5531C16.4518 24.3568 16.3982 21.4052 16.3833 19.6808V19.6718L16.3786 19.6647L15.2043 17.7551H32.8237L31.6864 19.6224L31.6816 19.6296Z" fill="#606E7B"/>
<path d="M37.1341 34.3717C37.249 34.4867 37.3062 34.626 37.3062 34.7897C37.3062 34.9541 37.249 35.0946 37.1341 35.2107C37.0192 35.3268 36.8799 35.3846 36.7161 35.3846C36.5518 35.3846 36.4124 35.3268 36.2981 35.2107C36.1838 35.0946 36.1266 34.9541 36.1266 34.7897C36.1266 34.626 36.1844 34.4867 36.2987 34.3717C36.4142 34.2556 36.5536 34.1973 36.7161 34.1973C36.8793 34.1973 37.0186 34.2556 37.1341 34.3717ZM37.202 34.3051C37.0686 34.1717 36.9061 34.105 36.7161 34.105C36.5268 34.105 36.3654 34.1717 36.2326 34.3051C36.0986 34.439 36.0308 34.6004 36.0308 34.7897C36.0308 34.9803 36.0975 35.1428 36.2308 35.2774C36.3642 35.412 36.5262 35.4787 36.7161 35.4787C36.9061 35.4787 37.0686 35.412 37.202 35.2774C37.3366 35.1423 37.4033 34.9797 37.4033 34.7897C37.4033 34.5998 37.3366 34.4384 37.202 34.3051ZM36.8179 34.7576C36.79 34.7689 36.7477 34.7743 36.6917 34.7743H36.572V34.5015H36.6852C36.759 34.5015 36.812 34.5105 36.8453 34.5295C36.8787 34.548 36.8954 34.5849 36.8954 34.6397C36.8954 34.6975 36.8697 34.7373 36.8179 34.7576ZM36.4392 35.1649H36.572V34.8672H36.6762C36.7471 34.8672 36.7965 34.8755 36.8245 34.8916C36.8715 34.919 36.8954 34.9773 36.8954 35.0648V35.1244L36.8983 35.1488C36.8989 35.1524 36.8995 35.1542 36.9007 35.1571C36.9007 35.1595 36.9013 35.1625 36.9025 35.1649H37.0264L37.0216 35.1554C37.0186 35.1488 37.0168 35.1363 37.015 35.116C37.0138 35.0958 37.0133 35.0773 37.0133 35.0601V35.0047C37.0133 34.9666 36.9996 34.9279 36.9722 34.888C36.9454 34.8475 36.9013 34.8231 36.8418 34.8142C36.8888 34.8064 36.9251 34.7945 36.9519 34.7772C37.0007 34.7457 37.0258 34.6957 37.0258 34.6284C37.0258 34.5337 36.9865 34.4706 36.9085 34.4378C36.865 34.42 36.7965 34.4104 36.7024 34.4104H36.4392V35.1649Z" fill="black"/>
<defs>
<linearGradient id="paint0_linear_26_73014" x1="35.9269" y1="17.0762" x2="35.8862" y2="17.4449" gradientUnits="userSpaceOnUse">
<stop stop-color="#A1C1E4"/>
<stop offset="1" stop-color="#CCDCF3"/>
</linearGradient>
<linearGradient id="paint1_linear_26_73014" x1="29.8258" y1="33.0632" x2="22.3266" y2="31.2542" gradientUnits="userSpaceOnUse">
<stop stop-color="#D3E2F5"/>
<stop offset="1" stop-color="#9EBDE2"/>
</linearGradient>
<linearGradient id="paint2_linear_26_73014" x1="35.0631" y1="15.3338" x2="35.3845" y2="15.5153" gradientUnits="userSpaceOnUse">
<stop stop-color="#415050"/>
<stop offset="1" stop-color="#576162"/>
</linearGradient>
<linearGradient id="paint3_linear_26_73014" x1="27.0257" y1="16.0265" x2="25.3192" y2="30.4933" gradientUnits="userSpaceOnUse">
<stop stop-color="#F6F8FD"/>
<stop offset="1" stop-color="#4B616C"/>
</linearGradient>
<linearGradient id="paint4_linear_26_73014" x1="25.0861" y1="14.2354" x2="25.3605" y2="15.1334" gradientUnits="userSpaceOnUse">
<stop stop-color="#BECDE1"/>
<stop offset="1" stop-color="#D7E6F7"/>
</linearGradient>
<linearGradient id="paint5_linear_26_73014" x1="23.0944" y1="31.3691" x2="14.7491" y2="31.3691" gradientUnits="userSpaceOnUse">
<stop stop-color="#F4F6FD"/>
<stop offset="1" stop-color="#C9DCF2"/>
</linearGradient>
<linearGradient id="paint6_linear_26_73014" x1="16.3351" y1="21.3732" x2="16.0127" y2="21.5553" gradientUnits="userSpaceOnUse">
<stop stop-color="#415050"/>
<stop offset="1" stop-color="#576162"/>
</linearGradient>
<linearGradient id="paint7_linear_26_73014" x1="44.6892" y1="16.0051" x2="37.9896" y2="38.2043" gradientUnits="userSpaceOnUse">
<stop stop-color="#3C535A"/>
<stop offset="1" stop-color="#87A3C1"/>
</linearGradient>
<linearGradient id="paint8_linear_26_73014" x1="26.5897" y1="25.1937" x2="23.1309" y2="10.2662" gradientUnits="userSpaceOnUse">
<stop stop-color="#C6DAF1"/>
<stop offset="1" stop-color="#84A3C2"/>
</linearGradient>
<linearGradient id="paint9_linear_26_73014" x1="40.8607" y1="61.4186" x2="22.5675" y2="37.3682" gradientUnits="userSpaceOnUse">
<stop stop-color="white"/>
<stop offset="1" stop-color="#C6DAF1"/>
</linearGradient>
<linearGradient id="paint10_linear_26_73014" x1="24.4543" y1="6.39184" x2="35.3915" y2="31.4869" gradientUnits="userSpaceOnUse">
<stop stop-color="#7093AE"/>
<stop offset="1" stop-color="#F6F8FD"/>
</linearGradient>
<linearGradient id="paint11_linear_26_73014" x1="25.2867" y1="9.74902" x2="27.1951" y2="34.1865" gradientUnits="userSpaceOnUse">
<stop stop-color="#3C535A"/>
<stop offset="1" stop-color="#8AAACA"/>
</linearGradient>
<linearGradient id="paint12_linear_26_73014" x1="32.7133" y1="8.18103" x2="33.1813" y2="8.67876" gradientUnits="userSpaceOnUse">
<stop stop-color="#232E30"/>
<stop offset="1" stop-color="#7F919D"/>
</linearGradient>
<linearGradient id="paint13_linear_26_73014" x1="30.7836" y1="6.2201" x2="35.3986" y2="8.87419" gradientUnits="userSpaceOnUse">
<stop stop-color="#7093AE"/>
<stop offset="1" stop-color="#F6F8FD"/>
</linearGradient>
<linearGradient id="paint14_linear_26_73014" x1="34.5697" y1="7.853" x2="37.1267" y2="10.4174" gradientUnits="userSpaceOnUse">
<stop stop-color="#232E30"/>
<stop offset="1" stop-color="#7F919D"/>
</linearGradient>
<linearGradient id="paint15_linear_26_73014" x1="35.912" y1="17.947" x2="33.4953" y2="16.6792" gradientUnits="userSpaceOnUse">
<stop stop-color="#9CB3CF"/>
<stop offset="1" stop-color="#F1F5FC"/>
</linearGradient>
<linearGradient id="paint16_linear_26_73014" x1="32.1557" y1="15.5227" x2="31.7696" y2="14.4236" gradientUnits="userSpaceOnUse">
<stop stop-color="#232E30"/>
<stop offset="1" stop-color="#7F919D"/>
</linearGradient>
<linearGradient id="paint17_linear_26_73014" x1="39.1669" y1="13.4339" x2="39.3452" y2="14.3845" gradientUnits="userSpaceOnUse">
<stop stop-color="#9CB3CF"/>
<stop offset="1" stop-color="#F1F5FC"/>
</linearGradient>
<linearGradient id="paint18_linear_26_73014" x1="34.0861" y1="16.3827" x2="34.3834" y2="15.9368" gradientUnits="userSpaceOnUse">
<stop stop-color="#9CB3CF"/>
<stop offset="1" stop-color="#F1F5FC"/>
</linearGradient>
<linearGradient id="paint19_linear_26_73014" x1="39.7303" y1="16.874" x2="39.8641" y2="17.7655" gradientUnits="userSpaceOnUse">
<stop stop-color="#232E30"/>
<stop offset="1" stop-color="#7F919D"/>
</linearGradient>
<linearGradient id="paint20_linear_26_73014" x1="36.4446" y1="22.8252" x2="36.8345" y2="20.7944" gradientUnits="userSpaceOnUse">
<stop stop-color="#9CB3CF"/>
<stop offset="1" stop-color="#F1F5FC"/>
</linearGradient>
<linearGradient id="paint21_linear_26_73014" x1="39.0418" y1="24.4831" x2="38.5958" y2="24.4682" gradientUnits="userSpaceOnUse">
<stop stop-color="#232E30"/>
<stop offset="1" stop-color="#7F919D"/>
</linearGradient>
<linearGradient id="paint22_linear_26_73014" x1="35.8638" y1="26.353" x2="35.6188" y2="22.304" gradientUnits="userSpaceOnUse">
<stop stop-color="#9CB3CF"/>
<stop offset="1" stop-color="#F1F5FC"/>
</linearGradient>
<linearGradient id="paint23_linear_26_73014" x1="39.9773" y1="22.0397" x2="40.2284" y2="26.1777" gradientUnits="userSpaceOnUse">
<stop stop-color="#232E30"/>
<stop offset="1" stop-color="#7F919D"/>
</linearGradient>
<linearGradient id="paint24_linear_26_73014" x1="33.7583" y1="26.16" x2="35.5413" y2="24.4836" gradientUnits="userSpaceOnUse">
<stop stop-color="#9CB3CF"/>
<stop offset="1" stop-color="#F1F5FC"/>
</linearGradient>
<linearGradient id="paint25_linear_26_73014" x1="39.1851" y1="30.5253" x2="37.5212" y2="30.7184" gradientUnits="userSpaceOnUse">
<stop stop-color="#232E30"/>
<stop offset="1" stop-color="#7F919D"/>
</linearGradient>
<linearGradient id="paint26_linear_26_73014" x1="35.2689" y1="32.1618" x2="34.7787" y2="31.9984" gradientUnits="userSpaceOnUse">
<stop stop-color="#9CB3CF"/>
<stop offset="1" stop-color="#F1F5FC"/>
</linearGradient>
<linearGradient id="paint27_linear_26_73014" x1="35.1153" y1="32.0758" x2="34.759" y2="31.9719" gradientUnits="userSpaceOnUse">
<stop stop-color="#232E30"/>
<stop offset="1" stop-color="#7F919D"/>
</linearGradient>
<linearGradient id="paint28_linear_26_73014" x1="31.5" y1="35.7847" x2="31.0542" y2="35.532" gradientUnits="userSpaceOnUse">
<stop stop-color="#9CB3CF"/>
<stop offset="1" stop-color="#F1F5FC"/>
</linearGradient>
<linearGradient id="paint29_linear_26_73014" x1="31.5341" y1="35.5573" x2="30.8867" y2="35.327" gradientUnits="userSpaceOnUse">
<stop stop-color="#232E30"/>
<stop offset="1" stop-color="#7F919D"/>
</linearGradient>
<linearGradient id="paint30_linear_26_73014" x1="34.0801" y1="29.3808" x2="35.4766" y2="29.559" gradientUnits="userSpaceOnUse">
<stop stop-color="#9CB3CF"/>
<stop offset="1" stop-color="#F1F5FC"/>
</linearGradient>
<linearGradient id="paint31_linear_26_73014" x1="26.1393" y1="37.7688" x2="25.8458" y2="37.5072" gradientUnits="userSpaceOnUse">
<stop stop-color="#9CB3CF"/>
<stop offset="1" stop-color="#F1F5FC"/>
</linearGradient>
<linearGradient id="paint32_linear_26_73014" x1="25.6208" y1="37.3377" x2="25.2652" y2="36.968" gradientUnits="userSpaceOnUse">
<stop stop-color="#232E30"/>
<stop offset="1" stop-color="#7F919D"/>
</linearGradient>
<linearGradient id="paint33_linear_26_73014" x1="28.4943" y1="33.4224" x2="30.7745" y2="33.2812" gradientUnits="userSpaceOnUse">
<stop stop-color="#9CB3CF"/>
<stop offset="1" stop-color="#F1F5FC"/>
</linearGradient>
<linearGradient id="paint34_linear_26_73014" x1="27.3091" y1="35.7194" x2="27.216" y2="35.0079" gradientUnits="userSpaceOnUse">
<stop stop-color="#232E30"/>
<stop offset="1" stop-color="#7F919D"/>
</linearGradient>
<linearGradient id="paint35_linear_26_73014" x1="24.4725" y1="34.037" x2="26.3695" y2="34.3504" gradientUnits="userSpaceOnUse">
<stop stop-color="#9CB3CF"/>
<stop offset="1" stop-color="#F1F5FC"/>
</linearGradient>
<linearGradient id="paint36_linear_26_73014" x1="22.7274" y1="35.8836" x2="22.774" y2="35.6363" gradientUnits="userSpaceOnUse">
<stop stop-color="#232E30"/>
<stop offset="1" stop-color="#7F919D"/>
</linearGradient>
<linearGradient id="paint37_linear_26_73014" x1="36.4796" y1="34.7081" x2="33.9106" y2="35.5195" gradientUnits="userSpaceOnUse">
<stop stop-color="#232E30"/>
<stop offset="1" stop-color="#7F919D"/>
</linearGradient>
<linearGradient id="paint38_linear_26_73014" x1="34.7009" y1="16.5331" x2="34.4631" y2="15.4188" gradientUnits="userSpaceOnUse">
<stop stop-color="#232E30"/>
<stop offset="1" stop-color="#7F919D"/>
</linearGradient>
<radialGradient id="paint39_radial_26_73014" cx="0" cy="0" r="1" gradientUnits="userSpaceOnUse" gradientTransform="translate(17.2012 8.83473) scale(1.99744 1.99744)">
<stop stop-color="#7F9FBD"/>
<stop offset="1" stop-color="#F1F5FC"/>
</radialGradient>
<linearGradient id="paint40_linear_26_73014" x1="19.5906" y1="12.7938" x2="18.6399" y2="13.2098" gradientUnits="userSpaceOnUse">
<stop stop-color="#232E30"/>
<stop offset="1" stop-color="#7F919D"/>
</linearGradient>
<linearGradient id="paint41_linear_26_73014" x1="18.3472" y1="12.9053" x2="15.743" y2="15.358" gradientUnits="userSpaceOnUse">
<stop stop-color="#232E30"/>
<stop offset="1" stop-color="#7F919D"/>
</linearGradient>
<linearGradient id="paint42_linear_26_73014" x1="12.8035" y1="14.5516" x2="12.5135" y2="14.3359" gradientUnits="userSpaceOnUse">
<stop stop-color="#587089"/>
<stop offset="1" stop-color="#E0ECF9"/>
</linearGradient>
<radialGradient id="paint43_radial_26_73014" cx="0" cy="0" r="1" gradientUnits="userSpaceOnUse" gradientTransform="translate(12.209 12.6157) scale(2.08423 2.08427)">
<stop stop-color="#7F9FBD"/>
<stop offset="1" stop-color="#F1F5FC"/>
</radialGradient>
<linearGradient id="paint44_linear_26_73014" x1="10.3275" y1="15.805" x2="10.1049" y2="15.4933" gradientUnits="userSpaceOnUse">
<stop stop-color="#232E30"/>
<stop offset="1" stop-color="#7F919D"/>
</linearGradient>
<linearGradient id="paint45_linear_26_73014" x1="11.7812" y1="11.8481" x2="12.1804" y2="11.9978" gradientUnits="userSpaceOnUse">
<stop stop-color="#9CB3CF"/>
<stop offset="1" stop-color="#F1F5FC"/>
</linearGradient>
<linearGradient id="paint46_linear_26_73014" x1="12.0079" y1="11.9392" x2="12.3842" y2="12.0779" gradientUnits="userSpaceOnUse">
<stop stop-color="#232E30"/>
<stop offset="1" stop-color="#7F919D"/>
</linearGradient>
<radialGradient id="paint47_radial_26_73014" cx="0" cy="0" r="1" gradientUnits="userSpaceOnUse" gradientTransform="translate(9.41807 16.4403) scale(2.30299 2.30303)">
<stop stop-color="#7F9FBD"/>
<stop offset="1" stop-color="#F1F5FC"/>
</radialGradient>
<linearGradient id="paint48_linear_26_73014" x1="12.1069" y1="20.9956" x2="11.2154" y2="21.2927" gradientUnits="userSpaceOnUse">
<stop stop-color="#232E30"/>
<stop offset="1" stop-color="#7F919D"/>
</linearGradient>
<linearGradient id="paint49_linear_26_73014" x1="8.68829" y1="17.7693" x2="9.12374" y2="17.7396" gradientUnits="userSpaceOnUse">
<stop stop-color="#232E30"/>
<stop offset="1" stop-color="#7F919D"/>
</linearGradient>
<radialGradient id="paint50_radial_26_73014" cx="0" cy="0" r="1" gradientUnits="userSpaceOnUse" gradientTransform="translate(8.98951 24.1111) scale(2.05244 2.05248)">
<stop stop-color="#7F9FBD"/>
<stop offset="1" stop-color="#F1F5FC"/>
</radialGradient>
<linearGradient id="paint51_linear_26_73014" x1="10.4244" y1="27.5616" x2="9.94909" y2="27.5814" gradientUnits="userSpaceOnUse">
<stop stop-color="#232E30"/>
<stop offset="1" stop-color="#7F919D"/>
</linearGradient>
<linearGradient id="paint52_linear_26_73014" x1="12.5101" y1="30.4527" x2="12.2724" y2="30.6607" gradientUnits="userSpaceOnUse">
<stop stop-color="#9CB3CF"/>
<stop offset="1" stop-color="#F1F5FC"/>
</linearGradient>
<linearGradient id="paint53_linear_26_73014" x1="12.5104" y1="32.0469" x2="12.0746" y2="32.1261" gradientUnits="userSpaceOnUse">
<stop stop-color="#232E30"/>
<stop offset="1" stop-color="#7F919D"/>
</linearGradient>
<radialGradient id="paint54_radial_26_73014" cx="0" cy="0" r="1" gradientUnits="userSpaceOnUse" gradientTransform="translate(10.4219 29.2109) scale(2.16793 2.16802)">
<stop stop-color="#7F9FBD"/>
<stop offset="1" stop-color="#F1F5FC"/>
</radialGradient>
<linearGradient id="paint55_linear_26_73014" x1="17.3457" y1="35.3566" x2="16.9297" y2="35.6538" gradientUnits="userSpaceOnUse">
<stop stop-color="#232E30"/>
<stop offset="1" stop-color="#7F919D"/>
</linearGradient>
<radialGradient id="paint56_radial_26_73014" cx="0" cy="0" r="1" gradientUnits="userSpaceOnUse" gradientTransform="translate(13.2135 33.5171) scale(2.89365 2.89363)">
<stop stop-color="#7F9FBD"/>
<stop offset="1" stop-color="#F1F5FC"/>
</radialGradient>
<linearGradient id="paint57_linear_26_73014" x1="16.111" y1="29.9447" x2="16.5269" y2="31.6975" gradientUnits="userSpaceOnUse">
<stop stop-color="#9CB3CF"/>
<stop offset="1" stop-color="#F1F5FC"/>
</linearGradient>
<linearGradient id="paint58_linear_26_73014" x1="9.65307" y1="30.8921" x2="9.871" y2="30.3176" gradientUnits="userSpaceOnUse">
<stop stop-color="#232E30"/>
<stop offset="1" stop-color="#7F919D"/>
</linearGradient>
<linearGradient id="paint59_linear_26_73014" x1="21.0574" y1="31.258" x2="23.3711" y2="32.6339" gradientUnits="userSpaceOnUse">
<stop stop-color="#232E30"/>
<stop offset="1" stop-color="#7F919D"/>
</linearGradient>
<radialGradient id="paint60_radial_26_73014" cx="0" cy="0" r="1" gradientUnits="userSpaceOnUse" gradientTransform="translate(19.1281 35.251) scale(1.20932 1.20931)">
<stop stop-color="#7F9FBD"/>
<stop offset="1" stop-color="#F1F5FC"/>
</radialGradient>
<linearGradient id="paint61_linear_26_73014" x1="20.7034" y1="34.7166" x2="20.644" y2="35.7417" gradientUnits="userSpaceOnUse">
<stop stop-color="#9CB3CF"/>
<stop offset="1" stop-color="#F1F5FC"/>
</linearGradient>
<linearGradient id="paint62_linear_26_73014" x1="13.812" y1="35.0488" x2="13.8565" y2="34.4104" gradientUnits="userSpaceOnUse">
<stop stop-color="#232E30"/>
<stop offset="1" stop-color="#7F919D"/>
</linearGradient>
<linearGradient id="paint63_linear_26_73014" x1="25.2056" y1="36.1346" x2="25.2502" y2="36.6692" gradientUnits="userSpaceOnUse">
<stop stop-color="#9CB3CF"/>
<stop offset="1" stop-color="#F1F5FC"/>
</linearGradient>
<linearGradient id="paint64_linear_26_73014" x1="17.858" y1="37.0546" x2="17.7838" y2="36.3122" gradientUnits="userSpaceOnUse">
<stop stop-color="#232E30"/>
<stop offset="1" stop-color="#7F919D"/>
</linearGradient>
<linearGradient id="paint65_linear_26_73014" x1="7.57952" y1="24.5922" x2="7.91629" y2="24.3347" gradientUnits="userSpaceOnUse">
<stop stop-color="#232E30"/>
<stop offset="1" stop-color="#7F919D"/>
</linearGradient>
<linearGradient id="paint66_linear_26_73014" x1="29.8207" y1="33.0886" x2="22.322" y2="31.2797" gradientUnits="userSpaceOnUse">
<stop stop-color="#D3E2F5"/>
<stop offset="1" stop-color="#748A9B"/>
</linearGradient>
<linearGradient id="paint67_linear_26_73014" x1="36.959" y1="28.9053" x2="22.386" y2="35.8642" gradientUnits="userSpaceOnUse">
<stop stop-color="#BCD0ED"/>
<stop offset="1" stop-color="#C7D9EF"/>
</linearGradient>
<linearGradient id="paint68_linear_26_73014" x1="27.8535" y1="25.2028" x2="36.261" y2="25.2028" gradientUnits="userSpaceOnUse">
<stop stop-color="#D4B066"/>
<stop offset="1" stop-color="#E7CC8F"/>
</linearGradient>
<linearGradient id="paint69_linear_26_73014" x1="16.2277" y1="21.8558" x2="23.6971" y2="21.8558" gradientUnits="userSpaceOnUse">
<stop stop-color="#D91121"/>
<stop offset="1" stop-color="#DC7866"/>
</linearGradient>
<linearGradient id="paint70_linear_26_73014" x1="20.2598" y1="24.4678" x2="23.8096" y2="24.4678" gradientUnits="userSpaceOnUse">
<stop stop-color="#D91121"/>
<stop offset="1" stop-color="#DC7866"/>
</linearGradient>
<linearGradient id="paint71_linear_26_73014" x1="16.189" y1="25.2878" x2="23.6501" y2="25.2878" gradientUnits="userSpaceOnUse">
<stop stop-color="#003971"/>
<stop offset="1" stop-color="#5687C0"/>
</linearGradient>
<linearGradient id="paint72_linear_26_73014" x1="16.1663" y1="19.9828" x2="23.7017" y2="19.9828" gradientUnits="userSpaceOnUse">
<stop stop-color="#D4B066"/>
<stop offset="1" stop-color="#E7CC8F"/>
</linearGradient>
<linearGradient id="paint73_linear_26_73014" x1="26.2373" y1="16.5534" x2="41.6687" y2="16.5534" gradientUnits="userSpaceOnUse">
<stop stop-color="#D91121"/>
<stop offset="1" stop-color="#DC7866"/>
</linearGradient>
<linearGradient id="paint74_linear_26_73014" x1="14.9653" y1="16.556" x2="23.7023" y2="16.556" gradientUnits="userSpaceOnUse">
<stop stop-color="#D4B066"/>
<stop offset="1" stop-color="#E7CC8F"/>
</linearGradient>
<linearGradient id="paint75_linear_26_73014" x1="26.2369" y1="19.2635" x2="41.6639" y2="19.2635" gradientUnits="userSpaceOnUse">
<stop stop-color="#D91121"/>
<stop offset="1" stop-color="#DC7866"/>
</linearGradient>
<linearGradient id="paint76_linear_26_73014" x1="26.7452" y1="17.4801" x2="37.9243" y2="17.4801" gradientUnits="userSpaceOnUse">
<stop stop-color="#003971"/>
<stop offset="1" stop-color="#5687C0"/>
</linearGradient>
<linearGradient id="paint77_linear_26_73014" x1="27.8538" y1="21.8525" x2="36.2616" y2="21.8525" gradientUnits="userSpaceOnUse">
<stop stop-color="#D4B066"/>
<stop offset="1" stop-color="#E7CC8F"/>
</linearGradient>
<linearGradient id="paint78_linear_26_73014" x1="16.19" y1="22.6798" x2="23.6506" y2="22.6798" gradientUnits="userSpaceOnUse">
<stop stop-color="#003971"/>
<stop offset="1" stop-color="#5687C0"/>
</linearGradient>
<linearGradient id="paint79_linear_26_73014" x1="26.7455" y1="20.0994" x2="37.9263" y2="20.0994" gradientUnits="userSpaceOnUse">
<stop stop-color="#003971"/>
<stop offset="1" stop-color="#5687C0"/>
</linearGradient>
<linearGradient id="paint80_linear_26_73014" x1="27.8547" y1="25.2492" x2="36.2627" y2="25.2492" gradientUnits="userSpaceOnUse">
<stop stop-color="#D4B066"/>
<stop offset="1" stop-color="#E7CC8F"/>
</linearGradient>
</defs>
</svg>
