<svg width="48" height="48" viewBox="0 0 48 48" fill="none" xmlns="http://www.w3.org/2000/svg">
<g clip-path="url(#clip0_26_72978)">
<path d="M11.2154 19.1197C11.3583 18.7985 11.481 18.5376 12.38 18.5376H17.5699C17.8561 18.5376 18.142 18.3971 18.142 17.996V16.5718C18.142 16.4103 18.3056 16.1894 18.7346 16.1894H29.4823C29.7887 16.1894 30.0342 16.3501 30.0342 16.7314V17.8555C30.0342 18.1564 30.1771 18.4774 30.6266 18.4774H39.2492C39.5555 18.4774 39.9642 18.5574 39.7805 18.9391C39.5964 19.32 36.7973 24.8975 36.6075 25.2701C36.5346 25.4129 36.4779 25.6034 35.9111 25.6034H30.6107C30.3594 25.6034 29.9466 25.6034 29.9466 26.0806V27.408C29.9466 27.5989 29.8012 27.8853 29.3397 27.8853H18.7056C18.3736 27.8853 18.1309 27.7177 18.1309 27.3921V26.2234C18.1309 25.969 17.9931 25.5958 17.6048 25.5958H8.67835C8.39483 25.5958 8.12785 25.3809 8.29788 24.968C8.46791 24.5543 11.2154 19.1197 11.2154 19.1197Z" fill="#C7D6EE"/>
<path d="M8.98047 24.3474L9.22856 24.3481L11.6675 19.582L11.4193 19.5813L8.98047 24.3474Z" fill="url(#paint0_linear_26_72978)"/>
<path d="M17.626 25.0205H9.2774C8.98614 25.0205 8.88399 24.8898 8.99738 24.6674C9.62955 23.4325 11.7084 19.3714 11.7623 19.2635C11.8255 19.1368 11.9785 18.9817 12.2612 18.9817H17.8635C18.4447 18.9817 18.5437 18.7322 18.5437 18.2816V16.9393C18.5437 16.7588 18.6656 16.6388 18.8801 16.6388H29.141C29.4166 16.6388 29.5386 16.7283 29.5386 16.9088V17.9004C29.5386 18.2912 29.4634 18.9218 30.3502 18.9218H38.8289C39.2097 18.9218 39.3086 19.1741 39.107 19.5733C38.3567 21.0599 36.5104 24.5847 36.453 24.7043C36.3802 24.8563 36.1544 24.9901 35.7937 24.9901H30.2282C29.769 24.9901 29.3105 25.2905 29.3105 25.7415V26.8869C29.3105 27.0956 29.1829 27.2434 28.956 27.2434H18.9997C18.6917 27.2434 18.5742 27.072 18.5742 26.8435V25.8014C18.5742 25.441 18.3295 25.0205 17.626 25.0205Z" fill="#E9CF98"/>
<path d="M28.7598 24.7516L29.9292 25.9487C29.9292 25.9487 30.0126 25.6863 30.3297 25.6212L29.0202 24.4214C29.0202 24.4214 28.8098 24.5383 28.7598 24.7516Z" fill="white"/>
<path d="M17.6533 25.6043C17.6533 25.6043 18.1211 25.6211 18.1211 26.2278L19.2066 24.6528L18.906 24.4395L17.6533 25.6043Z" fill="white"/>
<path d="M29.1909 19.6406L30.424 18.4602C30.424 18.4602 30.2568 18.4401 30.0893 18.1731L28.8667 19.3946L29.1909 19.6406Z" fill="white"/>
<path d="M28.6577 17.2287L29.7969 16.2746C29.7969 16.2746 29.9224 16.3461 29.9746 16.4593L28.7832 17.5369L28.6577 17.2287Z" fill="white"/>
<path d="M18.1504 16.6202C18.1504 16.4226 18.3373 16.1894 18.6433 16.1894L19.5075 17.2388C19.5075 17.2388 19.2488 17.2388 19.2082 17.3324C19.1671 17.4262 19.1263 17.627 19.1263 17.627L18.1504 16.6202Z" fill="white"/>
<path d="M17.7769 18.5102C17.7769 18.5102 18.1462 18.4527 18.1462 18.065L19.0029 19.055L18.4569 19.4426L17.7769 18.5102Z" fill="white"/>
<path d="M24.1116 16.1894L24.0723 16.6408H29.009C29.171 16.6408 29.2621 16.6808 29.3232 16.8L29.8698 16.3227C29.8698 16.3227 29.7325 16.1894 29.4823 16.1894H24.1116Z" fill="url(#paint1_linear_26_72978)"/>
<path d="M18.643 16.1893C18.5114 16.1893 18.3594 16.2533 18.2788 16.3524L18.6331 16.7302C18.6331 16.7302 18.7038 16.6407 18.9873 16.6407H24.0726L24.1119 16.1893H18.643Z" fill="url(#paint2_linear_26_72978)"/>
<path d="M18.15 16.6202V17.996C18.15 18.212 18.106 18.2649 18.106 18.2649L18.4968 18.6729C18.4968 18.6729 18.5527 18.532 18.5527 18.4454V17.0823C18.5527 16.9962 18.5606 16.8708 18.5606 16.8708L18.1936 16.4244C18.1936 16.4244 18.15 16.5024 18.15 16.6202Z" fill="url(#paint3_linear_26_72978)"/>
<path d="M29.5467 16.8289C29.5467 16.8289 29.5361 16.9889 29.5361 17.075C29.5361 17.161 29.5467 18.3231 29.5467 18.4094C29.5467 18.4954 29.6743 18.655 29.6743 18.655L30.1421 18.2485C30.1421 18.2485 30.0312 18.212 30.0312 17.996V16.6202C30.0312 16.5024 29.933 16.4244 29.933 16.4244L29.5467 16.8289Z" fill="url(#paint4_linear_26_72978)"/>
<path d="M17.5993 18.5391C17.4527 18.5391 12.4165 18.5448 12.1482 18.5448C11.7588 18.5448 11.5298 18.7134 11.5298 18.7134L11.8501 19.1367C11.8501 19.1367 11.9782 18.9816 12.261 18.9816H17.9438C18.1418 18.9816 18.2905 18.8937 18.2905 18.8937L17.9191 18.4556C17.9191 18.4556 17.7368 18.5391 17.5993 18.5391Z" fill="url(#paint5_linear_26_72978)"/>
<path d="M8.82974 24.7044L8.24902 25.1044C8.24902 25.1044 8.20298 25.2697 8.28975 25.4003C8.37672 25.5306 8.50952 25.5508 8.50952 25.5508L9.26536 25.0205C9.26536 25.0205 8.83759 25.0007 9.01557 24.6895C9.19355 24.3784 9.1839 24.2611 9.1839 24.2611C9.1839 24.2611 8.97622 24.2946 8.82974 24.7044Z" fill="url(#paint6_linear_26_72978)"/>
<path d="M10.4242 20.7877C9.96113 21.7238 8.40574 24.7311 8.35133 24.8385C8.29681 24.9455 8.24219 25.1326 8.24219 25.1326L8.84158 24.7044L11.6502 19.2088C11.6502 19.2088 10.8874 19.851 10.4242 20.7877Z" fill="url(#paint7_linear_26_72978)"/>
<path d="M9.27721 25.0335L8.50684 25.5778C8.50684 25.5778 17.2819 25.5991 17.5035 25.5991C17.7249 25.5991 17.8179 25.6406 17.8179 25.6406L18.2131 25.1995C18.2131 25.1995 17.8356 25.0335 17.6259 25.0335H9.27721Z" fill="url(#paint8_linear_26_72978)"/>
<path d="M18.043 25.8817C18.043 25.8817 18.1238 26.0412 18.1238 26.1685V27.3081C18.1238 27.4712 18.1885 27.6125 18.1885 27.6125L18.5741 27.1665V25.8013C18.5741 25.5835 18.4518 25.4002 18.4518 25.4002L18.043 25.8817Z" fill="url(#paint9_linear_26_72978)"/>
<path d="M29.3091 25.6603V27.0255L29.9141 27.5454C29.9141 27.5454 29.9292 27.4068 29.9292 27.2441V26.104C29.9292 25.9769 29.9666 25.8969 29.9666 25.8969L29.4376 25.3774C29.4376 25.3774 29.3091 25.4421 29.3091 25.6603Z" fill="url(#paint10_linear_26_72978)"/>
<path d="M28.8566 27.2533H24.0996V27.8875H29.3635C29.5424 27.8875 29.751 27.7706 29.7907 27.7409L29.1942 27.1852C29.1942 27.1852 29.1548 27.2533 28.8566 27.2533Z" fill="url(#paint11_linear_26_72978)"/>
<path d="M18.3701 27.8082C18.3701 27.8082 18.4926 27.8936 18.835 27.8936C19.1771 27.8936 24.0998 27.8874 24.0998 27.8874V27.2533H19.0189C18.927 27.2533 18.8655 27.2365 18.8655 27.2365L18.3701 27.8082Z" fill="url(#paint12_linear_26_72978)"/>
<path d="M19.7363 17.2258C19.4607 17.2258 19.1856 17.3762 19.1856 17.6768V19.149C19.1856 19.4492 19.0019 19.5695 18.7878 19.5695H12.6963C12.4489 19.5695 12.2574 19.6709 12.1474 19.8754C12.0574 20.0434 10.5361 23.038 10.0445 24.0058C9.93791 24.2157 10.031 24.3433 10.3046 24.3433H18.8187C19.1856 24.3433 19.2469 24.674 19.2469 25.0042V26.1483C19.2469 26.359 19.4608 26.5994 19.7056 26.5994H23.9888V17.2258H19.7363Z" fill="url(#paint13_linear_26_72978)"/>
<path d="M29.7104 25.1591L30.2009 25.6543C30.2009 25.6543 30.3233 25.5877 30.8957 25.5877H36.1264C36.2351 25.5877 36.385 25.5341 36.385 25.5341L33.62 24.9856C33.62 24.9856 30.4188 24.9878 30.269 24.9856C30.2634 24.9855 30.2578 24.9854 30.2521 24.9854C29.9276 24.9854 29.7104 25.1591 29.7104 25.1591Z" fill="url(#paint14_linear_26_72978)"/>
<path d="M29.8945 18.8344C29.8945 18.8344 30.1336 18.9128 30.3289 18.9128H38.5648C38.8154 18.9128 38.9617 18.9312 38.9617 18.9312L39.6272 18.5415C39.6272 18.5415 39.4136 18.4816 39.2001 18.4816H30.6468C30.433 18.4816 30.3439 18.4326 30.3439 18.4326L29.8945 18.8344Z" fill="url(#paint15_linear_26_72978)"/>
<path d="M39.2041 19.1417C39.2041 19.1417 39.2418 19.3469 39.1706 19.4864C39.0997 19.6258 36.6104 24.4343 36.498 24.6552C36.3853 24.8758 36.1313 24.9573 36.1313 24.9573L36.415 25.5144C36.415 25.5144 36.5155 25.4394 36.5748 25.3637C36.6339 25.2882 39.6968 19.1668 39.7915 18.9521C39.8859 18.7372 39.803 18.6594 39.803 18.6594L39.2041 19.1417Z" fill="url(#paint16_linear_26_72978)"/>
<path d="M35.8676 24.9987C35.5407 24.9987 33.7017 25.0124 33.7017 25.0124L36.317 25.5339C36.317 25.5339 36.4805 25.4676 36.5623 25.3332C36.6442 25.1994 36.5621 25.1594 36.4669 25.2395C36.3717 25.3203 36.2083 25.1865 36.2897 25.0927C36.3717 24.9987 36.4532 24.7043 36.4532 24.7043C36.4532 24.7043 36.1947 24.9987 35.8676 24.9987Z" fill="url(#paint17_linear_26_72978)"/>
<path d="M11.5371 24.5847C9.82434 24.697 9.27734 25.015 9.27734 25.015H17.4565C18.3866 25.015 18.2804 25.1399 18.2752 25.1455L18.9411 24.4539C18.9411 24.4539 17.3234 24.4539 16.2956 24.4354C16.1649 24.433 16.0183 24.4318 15.8582 24.4318C14.7597 24.4318 13.0323 24.4868 11.5371 24.5847ZM18.275 25.1458C18.275 25.1458 18.2751 25.1456 18.2752 25.1455L18.275 25.1458Z" fill="url(#paint18_linear_26_72978)"/>
<path d="M30.829 24.4354C30.1013 24.4539 28.9556 24.4539 28.9556 24.4539L29.7192 25.1602C29.7192 25.1602 29.7977 24.9949 30.4715 24.9949C31.1457 24.9949 36.0038 24.9785 36.0038 24.9785C36.0038 24.9785 36.0857 24.7176 34.6552 24.6174C33.5284 24.5383 31.8279 24.4334 31.0059 24.4334C30.9413 24.4334 30.8822 24.434 30.829 24.4354Z" fill="url(#paint19_linear_26_72978)"/>
<path d="M29.0981 19.6432C29.0981 19.6432 30.2441 19.6432 30.972 19.6618C31.6998 19.6805 36.1115 19.484 37.325 19.3717C38.5382 19.2596 38.9254 18.9417 38.9254 18.9417C38.9254 18.9417 31.2117 18.9821 30.5377 18.9821C29.8642 18.9821 29.9581 18.8509 29.9581 18.8509L29.0981 19.6432Z" fill="url(#paint20_linear_26_72978)"/>
<path d="M18.4927 25.4204C18.4927 25.4204 18.5745 25.681 18.5745 25.8817V26.7849C18.5745 27.0255 18.6563 27.1462 18.6563 27.1462L19.351 26.4637C19.351 26.4637 19.2472 26.223 19.2472 26.0424V25.0243C19.2472 24.7888 19.1874 24.5973 19.1874 24.5973L18.4927 25.4204Z" fill="url(#paint21_linear_26_72978)"/>
<path d="M28.686 25.0185C28.686 25.254 28.6698 25.8839 28.6698 26.0649C28.6698 26.245 28.6274 26.4637 28.6274 26.4637L29.3221 27.1462C29.3221 27.1462 29.4041 27.0255 29.4041 26.7849V25.8817C29.4041 25.681 29.4859 25.4204 29.4859 25.4204L28.7419 24.5783C28.7419 24.5783 28.686 24.7836 28.686 25.0185Z" fill="url(#paint22_linear_26_72978)"/>
<path d="M18.8809 27.2264L23.9481 27.2664L23.9685 27.2659V26.5994L19.555 26.5838L18.8809 27.2264Z" fill="url(#paint23_linear_26_72978)"/>
<path d="M23.9891 26.5993H23.9688V27.2659L29.179 27.2065L28.3414 26.5837L23.9891 26.5993Z" fill="url(#paint24_linear_26_72978)"/>
<path d="M18.9493 16.6371C18.8062 16.6371 18.6738 16.7128 18.6738 16.7128L19.3455 17.3618C19.3455 17.3618 19.4116 17.2209 19.8849 17.2209H23.9889V16.6371H18.9493Z" fill="url(#paint25_linear_26_72978)"/>
<path d="M23.9888 16.637V17.2208H28.0926C28.5659 17.2208 28.6639 17.4231 28.6639 17.4231L29.3353 16.7744C29.3353 16.7744 29.1716 16.637 29.0285 16.637H23.9888Z" fill="url(#paint26_linear_26_72978)"/>
<path d="M18.5459 17.2039V18.3825C18.5459 18.5223 18.4834 18.6879 18.4834 18.6879L19.1411 19.4211C19.1411 19.4211 19.1856 19.3602 19.1856 19.0549C19.1856 18.7493 19.2121 17.5537 19.2121 17.5537L18.5546 16.8292C18.5546 16.8292 18.5459 17.0208 18.5459 17.2039Z" fill="url(#paint27_linear_26_72978)"/>
<path d="M28.6914 17.5677V19.0331C28.6914 19.3385 28.8369 19.4211 28.8369 19.4211L29.6407 18.6259C29.6407 18.6259 29.5359 18.4595 29.5359 18.3201C29.5359 18.1803 29.5291 17.3282 29.5291 17.145C29.5291 16.9617 29.5373 16.7922 29.5373 16.7922L28.6914 17.5677Z" fill="url(#paint28_linear_26_72978)"/>
<path d="M18.0022 18.9979H12.363C12.1995 18.9979 11.9337 19.0582 11.8521 19.1386L12.363 19.6604C12.363 19.6604 12.5059 19.5602 12.8533 19.5602H18.7173C18.881 19.5602 19.0442 19.4997 19.0442 19.4997L18.3906 18.8376C18.3906 18.8376 18.227 18.9979 18.0022 18.9979Z" fill="url(#paint29_linear_26_72978)"/>
<path d="M35.5664 24.3654C35.5664 24.3654 35.8822 24.2489 35.9809 24.6172C35.9809 24.6172 36.0597 24.7338 36.2769 24.4233C36.4939 24.1133 38.5466 19.966 38.5263 19.9074C38.5065 19.8495 38.0921 19.7717 38.0921 19.7717L35.5664 24.3654Z" fill="url(#paint30_linear_26_72978)"/>
<path d="M38.1514 19.8109C38.2504 19.8688 38.3489 19.9465 38.2108 20.2371C38.0728 20.5273 36.494 23.5513 36.1587 24.1325C35.8232 24.7138 36.1189 24.9465 36.1189 24.9465C36.1189 24.9465 36.3758 24.83 36.4529 24.7043C36.5306 24.5783 38.9411 19.8882 39.107 19.5733C39.273 19.2583 39.1578 19.1322 39.1578 19.1322L38.1514 19.8109Z" fill="url(#paint31_linear_26_72978)"/>
<path d="M23.9888 17.2258V26.5994H28.2088C28.4533 26.5994 28.6675 26.5091 28.6675 26.2383V24.8403C28.6675 24.57 28.8508 24.3601 29.0652 24.3601H35.4313C35.6548 24.3601 35.8554 24.2317 35.9718 24.0204C36.492 23.0757 37.9246 20.3361 38.033 20.1153C38.1653 19.8457 38.0834 19.6895 37.7768 19.6895H29.3404C28.9735 19.6895 28.6978 19.4194 28.6978 19.0888V17.5565C28.6978 17.3461 28.5756 17.2258 28.3003 17.2258H23.9888Z" fill="url(#paint32_linear_26_72978)"/>
<path d="M9.2085 24.7542L10.0252 24.2677C10.0252 24.2677 9.93167 24.2277 10.0787 23.9387C10.2259 23.6496 11.6049 20.888 11.6049 20.888L11.2972 20.8226L9.2085 24.7542Z" fill="url(#paint33_linear_26_72978)"/>
<path d="M9.1344 24.3966C8.93001 24.758 8.97117 24.8982 8.97117 24.8982L9.46141 24.5771C9.46141 24.5771 11.6476 20.4231 11.8723 19.9412C12.0972 19.4597 11.7621 19.2636 11.7621 19.2636C11.7621 19.2636 9.3388 24.0355 9.1344 24.3966Z" fill="url(#paint34_linear_26_72978)"/>
<path d="M9.46506 25.0322C9.4326 25.0536 9.13381 25.0897 9.07547 25.0322C9.01692 24.9752 8.91923 24.9306 8.9973 24.8666C9.07547 24.8025 10.0364 24.2415 10.0364 24.2415C10.0364 24.2415 9.91977 24.3052 10.9072 24.3052H18.8058C19.0137 24.3052 19.2085 24.4453 19.2346 24.5348C19.2607 24.6243 19.2086 24.6624 19.1437 24.6498C19.079 24.6369 18.9098 24.5858 18.8709 24.5219C18.8319 24.4582 18.9228 24.4072 18.3511 24.4072C17.7795 24.4072 13.4145 24.4711 12.4273 24.5603C11.4399 24.6498 10.1404 24.5858 9.46506 25.0322Z" fill="white"/>
<path d="M38.6402 18.9584C38.6725 18.9375 38.9716 18.9013 39.03 18.9584C39.0883 19.0159 39.186 19.0605 39.1079 19.1244C39.03 19.1881 38.0687 19.7495 38.0687 19.7495C38.0687 19.7495 38.1852 19.6859 37.1981 19.6859H29.2992C29.0913 19.6859 28.8965 19.5457 28.8707 19.4563C28.8446 19.3667 28.8964 19.3282 28.9611 19.3412C29.0265 19.3542 29.1952 19.4052 29.2344 19.4688C29.2733 19.5328 29.1822 19.5835 29.754 19.5835C30.3258 19.5835 34.6903 19.5199 35.6781 19.4307C36.6652 19.3412 37.9648 19.4052 38.6402 18.9584Z" fill="white"/>
<path d="M12.0154 19.6967C12.0154 19.6064 12.0665 19.4359 12.0257 19.386C11.9848 19.3357 12.1074 19.2754 12.1892 19.3253C12.2708 19.3757 12.4445 19.4157 12.4648 19.456C12.4853 19.496 12.4547 19.5962 12.3423 19.6365C12.2299 19.6765 12.1278 19.7668 11.9541 20.1378C11.7804 20.5095 10.7893 22.3958 10.7893 22.3958C10.7893 22.3958 10.9325 22.0949 10.8712 22.0846C10.8099 22.0747 10.667 22.3256 10.667 22.3256L12.0154 19.6967Z" fill="white"/>
<path d="M18.8465 19.5192C18.7619 19.5276 18.7383 19.4366 18.8104 19.4247C18.883 19.4129 18.9789 19.4072 19.0631 19.0819C19.1476 18.7567 19.0874 17.7698 19.0753 17.5926C19.0631 17.4152 18.979 17.2025 19.0995 17.1081C19.2197 17.0133 19.304 17.2144 19.617 17.2144C19.9298 17.2144 20.6401 17.1908 20.6401 17.1908C20.6401 17.1908 19.6411 17.2613 19.4724 17.2853C19.3039 17.3089 19.1595 17.4387 19.1834 17.6753C19.2077 17.9118 19.1476 19.1295 19.0995 19.2594C19.0513 19.3893 18.9669 19.5074 18.8465 19.5192Z" fill="white"/>
<path d="M25.5863 17.198C25.4538 17.2041 28.1241 17.2288 28.2924 17.2288C28.461 17.2288 28.6535 17.2791 28.6898 17.4444C28.7258 17.6101 28.7003 18.1526 28.7003 18.1526C28.7003 18.1526 28.7832 17.4563 28.9036 17.3264C29.0239 17.196 28.9878 17.0072 28.8314 17.0422C28.6748 17.078 27.4356 17.1161 25.5863 17.198Z" fill="white"/>
<path d="M29.1518 24.4449C29.0678 24.4327 28.9717 24.4213 28.9474 24.4921C28.9233 24.5625 29.0554 24.6098 28.9233 24.6803C28.7916 24.7511 28.6934 24.7945 28.6934 24.7356C28.6934 24.6765 28.7615 24.3737 29.0137 24.3737C29.2658 24.3737 35.49 24.3619 35.5866 24.3619C35.6823 24.3619 35.8026 24.3737 35.8504 24.4682C35.8984 24.5625 35.9583 24.7984 35.9946 24.8692C36.0304 24.9401 35.9705 24.9401 35.8623 24.7984C35.7543 24.6567 35.4783 24.5981 35.2624 24.6098C35.0461 24.6216 29.1518 24.4449 29.1518 24.4449Z" fill="white"/>
<path d="M36.0187 24.6453C36.0187 24.6453 35.9588 24.5158 35.9227 24.4327C35.8867 24.3504 35.7788 24.3154 35.7788 24.3154C35.7788 24.3154 35.8987 24.1733 36.0667 23.8671C36.2349 23.5609 37.0272 22.0982 37.1112 21.8978C37.1112 21.8978 36.931 22.4407 37.2794 21.9923C37.2794 21.9923 36.1508 24.0907 36.0787 24.2324C36.0069 24.3741 36.0187 24.6453 36.0187 24.6453Z" fill="white"/>
<path d="M19.3218 26.2956C19.3218 26.2956 19.3361 26.4651 19.2359 26.5355C19.1354 26.6061 19.0924 26.7328 19.1785 26.7893C19.2646 26.8457 19.322 26.8174 19.3794 26.7328C19.4368 26.6483 19.6379 26.5778 19.767 26.6061C19.767 26.6061 19.3218 26.662 19.3218 26.2956Z" fill="white"/>
<path d="M25.5088 26.5979C25.5088 26.5979 27.9314 26.7232 28.0749 26.7297C28.218 26.7361 28.3189 26.7407 28.3189 26.7407C28.3189 26.7407 28.0617 26.7007 28.1378 26.6196L25.5088 26.5979Z" fill="white"/>
<path d="M28.38 26.5781C28.38 26.5781 28.3083 26.6908 28.4231 26.7468C28.5381 26.8032 28.6531 26.8596 28.7248 26.775C28.7964 26.6905 28.6674 26.4649 28.6816 26.3099C28.6816 26.3099 28.739 26.5498 28.38 26.5781Z" fill="white"/>
<path d="M31.335 26.7822H31.2008V27.0054H31.335C31.4033 27.0054 31.4235 26.9787 31.4235 26.9349V26.8523C31.4235 26.7959 31.3968 26.7822 31.335 26.7822ZM31.335 27.0777H31.2008V27.2614H31.1191V26.7086H31.335C31.4571 26.7086 31.5052 26.762 31.5052 26.8523V26.9349C31.5052 26.9948 31.4841 27.0351 31.4235 27.0618L31.575 27.2614H31.4783L31.335 27.0777ZM31.3098 27.4297C31.5979 27.4297 31.7492 27.2358 31.7492 26.9977C31.7492 26.7597 31.5979 26.5628 31.3098 26.5628C31.0214 26.5628 30.8667 26.7597 30.8667 26.9977C30.8667 27.2358 31.0214 27.4297 31.3098 27.4297ZM31.3098 26.4896C31.6291 26.4896 31.824 26.7163 31.824 26.9967C31.824 27.2732 31.6291 27.5032 31.3098 27.5032C30.9886 27.5032 30.792 27.2732 30.792 26.9967C30.792 26.7163 30.9886 26.4896 31.3098 26.4896Z" fill="black"/>
<path d="M14.8879 30.1335H13.9965V29.0192H13.1362V31.7893H13.9965V30.5949H14.8879V31.7893H15.749V29.0192H14.8879V30.1335Z" fill="black"/>
<path d="M30.7135 31.3283V29.0192H29.853V31.7893H31.945V31.3283H30.7135Z" fill="black"/>
<path d="M35.6055 29.0192V29.4812H36.3885V31.7893H37.2486V29.4812H38.0323V29.0192H35.6055Z" fill="black"/>
<path d="M10.0322 29.5957C10.0322 29.2495 10.2452 29.019 10.5645 29.019H12.2901V29.4805H11.053C10.9568 29.4805 10.8936 29.5505 10.8936 29.6539V31.1541C10.8936 31.2584 10.9568 31.3281 11.053 31.3281H12.2901V31.7891H10.5645C10.2452 31.7891 10.0322 31.5579 10.0322 31.2122V29.5957Z" fill="black"/>
<path d="M24.9994 30.6655L25.7433 31.7893H24.8285L24.17 30.6466V30.2855H24.5254C24.6213 30.2855 24.685 30.2154 24.685 30.1121V29.6541C24.685 29.5507 24.6213 29.4812 24.5254 29.4812H23.9235V31.7893H23.0625V29.0192H25.0135C25.3339 29.0192 25.5457 29.2498 25.5457 29.596L25.5466 30.1559C25.5466 30.4609 25.3591 30.6655 25.0765 30.6655H24.9994Z" fill="black"/>
<path d="M27.9824 31.3283C28.0776 31.3283 28.1418 31.2587 28.1418 31.1549V29.6541C28.1418 29.5509 28.0776 29.4808 27.9824 29.4808H27.3822C27.2865 29.4808 27.2223 29.5509 27.2223 29.6541V31.1549C27.2223 31.2587 27.2865 31.3283 27.3822 31.3283H27.9824ZM26.3618 29.596C26.3618 29.2498 26.574 29.0192 26.8936 29.0192H28.4704C28.7896 29.0192 29.003 29.2498 29.003 29.596V31.2125C29.003 31.5583 28.7896 31.7893 28.4704 31.7893H26.8936C26.574 31.7893 26.3618 31.5583 26.3618 31.2125V29.596Z" fill="black"/>
<path d="M19.5781 29.0192H20.5011L21.0518 31.1608C21.056 31.1802 21.0701 31.1916 21.09 31.1916C21.1096 31.1916 21.1249 31.1802 21.1285 31.1608L21.6639 29.0192H22.3863L21.719 31.3964C21.6383 31.667 21.4923 31.7893 21.186 31.7893H20.7565C20.5595 31.7893 20.3988 31.6894 20.3022 31.3943L19.5781 29.0192Z" fill="black"/>
<path d="M17.4794 31.2408C17.4794 31.2939 17.5112 31.3278 17.5595 31.3278H18.9739V31.7893H17.1506C16.8313 31.7893 16.6187 31.5582 16.6187 31.213V29.596C16.6187 29.2498 16.8313 29.0192 17.1506 29.0192H18.9739V29.4812H17.5595C17.5112 29.4812 17.4794 29.5155 17.4794 29.5677V30.1331H18.8115V30.595H17.4794V31.2408Z" fill="black"/>
<path d="M33.4053 31.2408C33.4053 31.2939 33.4369 31.3278 33.4844 31.3278H34.8994V31.7893H33.076C32.7569 31.7893 32.543 31.5582 32.543 31.213V29.596C32.543 29.2498 32.7569 29.0192 33.076 29.0192H34.8994V29.4812H33.4844C33.4369 29.4812 33.4053 29.5155 33.4053 29.5677V30.1331H34.7366V30.595H33.4053V31.2408Z" fill="black"/>
</g>
<defs>
<linearGradient id="paint0_linear_26_72978" x1="11.5018" y1="19.6628" x2="11.4893" y2="24.3737" gradientUnits="userSpaceOnUse">
<stop stop-color="#C7D6EE"/>
<stop offset="0.185394" stop-color="#91AFC8"/>
<stop offset="1" stop-color="#002334"/>
</linearGradient>
<linearGradient id="paint1_linear_26_72978" x1="25.3925" y1="14.9313" x2="28.2865" y2="17.8778" gradientUnits="userSpaceOnUse">
<stop stop-color="#E1E8F5"/>
<stop offset="0.89888" stop-color="#92A5C1"/>
<stop offset="0.955063" stop-color="#476886"/>
<stop offset="1" stop-color="#E1E8F5"/>
</linearGradient>
<linearGradient id="paint2_linear_26_72978" x1="19.7847" y1="17.8613" x2="22.7452" y2="14.847" gradientUnits="userSpaceOnUse">
<stop stop-color="#E1E8F5"/>
<stop offset="0.0393219" stop-color="#476886"/>
<stop offset="0.0898895" stop-color="#92A5C1"/>
<stop offset="1" stop-color="#E1E8F5"/>
</linearGradient>
<linearGradient id="paint3_linear_26_72978" x1="17.8535" y1="17.9991" x2="18.8186" y2="17.0827" gradientUnits="userSpaceOnUse">
<stop stop-color="#E1E8F5"/>
<stop offset="0.157303" stop-color="#C7D6EE"/>
<stop offset="1" stop-color="#E1E8F5"/>
</linearGradient>
<linearGradient id="paint4_linear_26_72978" x1="30.3448" y1="18.0351" x2="29.3229" y2="17.0648" gradientUnits="userSpaceOnUse">
<stop stop-color="#E1E8F5"/>
<stop offset="0.157303" stop-color="#C7D6EE"/>
<stop offset="1" stop-color="#E1E8F5"/>
</linearGradient>
<linearGradient id="paint5_linear_26_72978" x1="13.2105" y1="20.4729" x2="16.531" y2="17.0922" gradientUnits="userSpaceOnUse">
<stop stop-color="#476886"/>
<stop offset="0.129211" stop-color="#92A5C1"/>
<stop offset="1" stop-color="#E1E8F5"/>
</linearGradient>
<linearGradient id="paint6_linear_26_72978" x1="8.97425" y1="25.1639" x2="8.58751" y2="24.6015" gradientUnits="userSpaceOnUse">
<stop stop-color="#002334"/>
<stop offset="0.106735" stop-color="white"/>
<stop offset="0.185394" stop-color="#91AFC8"/>
<stop offset="0.241577" stop-color="#002334"/>
<stop offset="0.533707" stop-color="#5E738F"/>
<stop offset="0.758423" stop-color="#002334"/>
<stop offset="1" stop-color="#002334"/>
</linearGradient>
<linearGradient id="paint7_linear_26_72978" x1="11.8035" y1="21.2423" x2="8.77499" y2="22.8115" gradientUnits="userSpaceOnUse">
<stop stop-color="#91AFC8"/>
<stop offset="1" stop-color="#002334"/>
</linearGradient>
<linearGradient id="paint8_linear_26_72978" x1="13.4639" y1="25.9672" x2="13.238" y2="24.6628" gradientUnits="userSpaceOnUse">
<stop stop-color="#A5B9CC"/>
<stop offset="1" stop-color="#002334"/>
</linearGradient>
<linearGradient id="paint9_linear_26_72978" x1="18.1387" y1="26.5064" x2="18.5274" y2="26.5064" gradientUnits="userSpaceOnUse">
<stop stop-color="#5E738F"/>
<stop offset="0.48877" stop-color="#91AFC8"/>
<stop offset="1" stop-color="#91AFC8"/>
</linearGradient>
<linearGradient id="paint10_linear_26_72978" x1="29.848" y1="26.4614" x2="29.3667" y2="26.4614" gradientUnits="userSpaceOnUse">
<stop stop-color="#5E738F"/>
<stop offset="0.320221" stop-color="#91AFC8"/>
<stop offset="1" stop-color="#91AFC8"/>
</linearGradient>
<linearGradient id="paint11_linear_26_72978" x1="26.2321" y1="28.7102" x2="27.5133" y2="26.4507" gradientUnits="userSpaceOnUse">
<stop stop-color="#A5B9CC"/>
<stop offset="1" stop-color="#002334"/>
</linearGradient>
<linearGradient id="paint12_linear_26_72978" x1="20.6846" y1="26.5944" x2="21.9758" y2="28.8715" gradientUnits="userSpaceOnUse">
<stop stop-color="#002334"/>
<stop offset="0.775284" stop-color="#A5B9CC"/>
<stop offset="1" stop-color="#A5B9CC"/>
</linearGradient>
<linearGradient id="paint13_linear_26_72978" x1="15.4133" y1="18.0236" x2="21.1796" y2="28.1925" gradientUnits="userSpaceOnUse">
<stop stop-color="#FFEFCF"/>
<stop offset="0.460678" stop-color="#FFE4A6"/>
<stop offset="1" stop-color="#BC956E"/>
</linearGradient>
<linearGradient id="paint14_linear_26_72978" x1="31.9156" y1="26.5861" x2="33.5444" y2="24.7375" gradientUnits="userSpaceOnUse">
<stop stop-color="#5E738F"/>
<stop offset="0.606735" stop-color="#91AFC8"/>
<stop offset="1" stop-color="#C7DFF4"/>
</linearGradient>
<linearGradient id="paint15_linear_26_72978" x1="33.5758" y1="16.6718" x2="35.7231" y2="20.4586" gradientUnits="userSpaceOnUse">
<stop stop-color="#E1E8F5"/>
<stop offset="0.814606" stop-color="#7F97B4"/>
<stop offset="0.904495" stop-color="#476886"/>
<stop offset="1" stop-color="#002334"/>
</linearGradient>
<linearGradient id="paint16_linear_26_72978" x1="36.1344" y1="25.2387" x2="39.6339" y2="19.0674" gradientUnits="userSpaceOnUse">
<stop stop-color="#8CA0B5"/>
<stop offset="0.140442" stop-color="#E1E8F5"/>
<stop offset="0.814606" stop-color="#7F97B4"/>
<stop offset="0.904495" stop-color="#476886"/>
<stop offset="1" stop-color="#002334"/>
</linearGradient>
<linearGradient id="paint17_linear_26_72978" x1="34.8912" y1="25.3419" x2="36.1532" y2="24.6001" gradientUnits="userSpaceOnUse">
<stop stop-color="#002334"/>
<stop offset="0.814606" stop-color="#A5B9CC"/>
<stop offset="0.887634" stop-color="#002334"/>
<stop offset="1" stop-color="#002334"/>
</linearGradient>
<linearGradient id="paint18_linear_26_72978" x1="11.9371" y1="22.6011" x2="16.0275" y2="26.7658" gradientUnits="userSpaceOnUse">
<stop stop-color="#D4BC7B"/>
<stop offset="0.331467" stop-color="#7F5F39"/>
<stop offset="1" stop-color="#D4BC7B"/>
</linearGradient>
<linearGradient id="paint19_linear_26_72978" x1="34.0398" y1="23.1839" x2="31.1181" y2="26.1587" gradientUnits="userSpaceOnUse">
<stop stop-color="#D4BC7B"/>
<stop offset="0.331467" stop-color="#7F5F39"/>
<stop offset="1" stop-color="#D4BC7B"/>
</linearGradient>
<linearGradient id="paint20_linear_26_72978" x1="36.5306" y1="16.8185" x2="31.808" y2="21.6267" gradientUnits="userSpaceOnUse">
<stop stop-color="#D4BC7B"/>
<stop offset="0.331467" stop-color="#7F5F39"/>
<stop offset="1" stop-color="#D4BC7B"/>
</linearGradient>
<linearGradient id="paint21_linear_26_72978" x1="18.6476" y1="25.8718" x2="19.2757" y2="25.8718" gradientUnits="userSpaceOnUse">
<stop stop-color="#D3BD8B"/>
<stop offset="1" stop-color="#7F5F39"/>
</linearGradient>
<linearGradient id="paint22_linear_26_72978" x1="29.331" y1="25.8623" x2="28.7027" y2="25.8623" gradientUnits="userSpaceOnUse">
<stop stop-color="#D3BD8B"/>
<stop offset="1" stop-color="#7F5F39"/>
</linearGradient>
<linearGradient id="paint23_linear_26_72978" x1="20.9635" y1="26.1282" x2="22.0998" y2="28.1321" gradientUnits="userSpaceOnUse">
<stop stop-color="#7F5F39"/>
<stop offset="0.646072" stop-color="#D3BD8B"/>
<stop offset="0.887634" stop-color="#FFE4A6"/>
<stop offset="1" stop-color="#FFE4A6"/>
</linearGradient>
<linearGradient id="paint24_linear_26_72978" x1="27.0236" y1="26.138" x2="25.7822" y2="28.3272" gradientUnits="userSpaceOnUse">
<stop stop-color="#7F5F39"/>
<stop offset="0.455063" stop-color="#D3BD8B"/>
<stop offset="0.887634" stop-color="#FFE4A6"/>
<stop offset="1" stop-color="#FFE4A6"/>
</linearGradient>
<linearGradient id="paint25_linear_26_72978" x1="20.132" y1="18.145" x2="22.7796" y2="15.4492" gradientUnits="userSpaceOnUse">
<stop stop-color="#D4BC7B"/>
<stop offset="0.0393219" stop-color="#7F5F39"/>
<stop offset="0.106735" stop-color="#D1AC75"/>
<stop offset="1" stop-color="#D4BC7B"/>
</linearGradient>
<linearGradient id="paint26_linear_26_72978" x1="27.8851" y1="18.1989" x2="25.1911" y2="15.456" gradientUnits="userSpaceOnUse">
<stop stop-color="#D4BC7B"/>
<stop offset="0.0393219" stop-color="#7F5F39"/>
<stop offset="0.106735" stop-color="#D1AC75"/>
<stop offset="1" stop-color="#D4BC7B"/>
</linearGradient>
<linearGradient id="paint27_linear_26_72978" x1="18.3466" y1="18.5843" x2="19.3324" y2="17.6484" gradientUnits="userSpaceOnUse">
<stop stop-color="#FFE292"/>
<stop offset="0.157303" stop-color="#D1AC75"/>
<stop offset="1" stop-color="#FFE292"/>
</linearGradient>
<linearGradient id="paint28_linear_26_72978" x1="29.6926" y1="18.5713" x2="28.6649" y2="17.5956" gradientUnits="userSpaceOnUse">
<stop stop-color="#FFE292"/>
<stop offset="0.157303" stop-color="#D1AC75"/>
<stop offset="1" stop-color="#FFE292"/>
</linearGradient>
<linearGradient id="paint29_linear_26_72978" x1="13.8077" y1="20.9305" x2="16.8833" y2="17.799" gradientUnits="userSpaceOnUse">
<stop stop-color="#7F5F39"/>
<stop offset="1" stop-color="#BD9B6A"/>
</linearGradient>
<linearGradient id="paint30_linear_26_72978" x1="36.3988" y1="21.4988" x2="37.7073" y2="22.8311" gradientUnits="userSpaceOnUse">
<stop stop-color="#7F5F39"/>
<stop offset="1" stop-color="#D4BC7B"/>
</linearGradient>
<linearGradient id="paint31_linear_26_72978" x1="35.9564" y1="24.8048" x2="38.8142" y2="19.2002" gradientUnits="userSpaceOnUse">
<stop stop-color="#A78A5E"/>
<stop offset="0.764038" stop-color="#7F5F39"/>
<stop offset="0.915726" stop-color="#674C2B"/>
<stop offset="1" stop-color="#674C2B"/>
</linearGradient>
<linearGradient id="paint32_linear_26_72978" x1="33.4835" y1="26.071" x2="25.3019" y2="16.1437" gradientUnits="userSpaceOnUse">
<stop stop-color="#FFEFCF"/>
<stop offset="0.460678" stop-color="#FFE4A6"/>
<stop offset="1" stop-color="#BC956E"/>
</linearGradient>
<linearGradient id="paint33_linear_26_72978" x1="8.88034" y1="24.2943" x2="11.7174" y2="21.4058" gradientUnits="userSpaceOnUse">
<stop stop-color="#7F5F39"/>
<stop offset="1" stop-color="#E9CF98"/>
</linearGradient>
<linearGradient id="paint34_linear_26_72978" x1="8.36962" y1="24.1224" x2="12.1901" y2="20.2326" gradientUnits="userSpaceOnUse">
<stop stop-color="#7F5F39"/>
<stop offset="1" stop-color="#E4CB90"/>
</linearGradient>
<clipPath id="clip0_26_72978">
<rect width="32" height="16" fill="white" transform="translate(8 16)"/>
</clipPath>
</defs>
</svg>
