<svg width="48" height="48" viewBox="0 0 48 48" fill="none" xmlns="http://www.w3.org/2000/svg">
<g clip-path="url(#clip0_26_72968)">
<path d="M14.6318 13.0972C17.6887 14.1604 20.7292 15.2728 23.7932 16.3145C23.9016 16.3565 24.009 16.3565 24.1173 16.3145C27.1762 15.2676 30.2147 14.1645 33.2665 13.0972C32.1838 14.8229 31.0909 16.5425 29.9847 18.253C29.4735 18.0331 28.947 17.8501 28.4317 17.6395C28.7302 17.114 29.0513 16.6008 29.3539 16.0774C28.3683 16.5732 27.3654 17.0343 26.387 17.5445C27.0709 17.8052 27.7559 18.0607 28.4348 18.3358C28.8131 18.4901 29.2189 18.7876 29.2445 19.2314C29.3048 19.7241 28.9684 20.1269 28.7302 20.5216C27.256 22.828 25.7899 25.1406 24.3085 27.443C24.3167 26.8357 24.2472 26.2223 24.3187 25.6191C24.9015 23.7696 25.4771 21.9181 26.0077 20.0533C26.112 19.7763 25.8022 19.628 25.6028 19.5309C25.0405 19.2825 24.514 18.9533 23.9384 18.7406C23.3546 18.9931 22.7944 19.2988 22.2219 19.5759C22.045 19.6577 21.7955 19.8192 21.8968 20.0503C22.4233 21.9161 23.005 23.7666 23.5837 25.617C23.6481 26.2213 23.5867 26.8347 23.5898 27.443C22.1319 25.1611 20.6771 22.8761 19.2212 20.5931C18.9677 20.173 18.5996 19.7436 18.663 19.2191C18.6968 18.7784 19.1006 18.486 19.4789 18.3327C20.1516 18.0587 20.8345 17.8082 21.5123 17.5434C20.536 17.0353 19.5371 16.5701 18.5526 16.0784C18.8542 16.6018 19.1752 17.114 19.4727 17.6406C18.9544 17.8471 18.4299 18.0383 17.9136 18.2499C16.8115 16.5374 15.7207 14.8168 14.6318 13.0972Z" fill="black"/>
<path d="M21.1094 33.978C21.1196 32.9699 21.1022 31.9629 21.1186 30.9548C22.7769 30.9661 24.4361 30.9518 26.0944 30.961C26.4185 30.9497 26.7968 31.1123 26.8612 31.4619C26.9011 31.8044 26.8919 32.152 26.8673 32.4945C26.8469 32.8728 26.4502 33.1018 26.1006 33.0773C24.748 33.0803 23.3954 33.0752 22.0418 33.0783C22.0428 33.3809 22.0438 33.6825 22.0479 33.9851C21.7351 33.9933 21.4222 33.9892 21.1094 33.978ZM22.0387 31.6388C22.0428 31.8739 22.0448 32.1091 22.0499 32.3452C23.334 32.333 24.6181 32.3565 25.9022 32.334C26.1353 32.1991 25.9769 31.875 26.0208 31.6582C24.6948 31.6132 23.3657 31.649 22.0387 31.6388Z" fill="black"/>
<path d="M8.11863 31.4199C8.25153 31.1193 8.59607 30.9517 8.91607 30.9588C10.5416 30.9547 12.1672 30.9609 13.7938 30.9568C13.7968 31.2349 13.7979 31.514 13.7999 31.7921C12.2071 31.8033 10.6122 31.7777 9.02035 31.8043C8.9907 31.8278 8.93243 31.8759 8.90278 31.9004C8.88438 32.3002 8.90687 32.702 8.89051 33.1027C9.03466 33.1385 9.18086 33.1753 9.33115 33.1692C10.8197 33.1651 12.3083 33.1712 13.7968 33.1651C13.7979 33.434 13.7989 33.7029 13.7989 33.9717C12.2398 34.0167 10.6786 33.9779 9.11952 33.9942C8.73716 34.0096 8.26278 33.936 8.11147 33.527C8.02866 33.1651 8.08591 32.7899 8.07058 32.4229C8.07569 32.0896 8.02661 31.7461 8.11863 31.4199Z" fill="#010101"/>
<path d="M14.5749 33.2439C14.5718 32.4812 14.5697 31.7185 14.5789 30.9569C14.9122 30.9579 15.2465 30.9559 15.5809 30.962C15.5921 31.693 15.5686 32.425 15.5952 33.156C16.8322 33.1805 18.0703 33.1662 19.3074 33.1642C19.3585 32.4301 19.3196 31.694 19.3309 30.9599C19.6683 30.9579 20.0057 30.9589 20.343 30.9548C20.3502 31.7165 20.3522 32.4792 20.3451 33.2419C20.3492 33.6508 19.9617 33.9923 19.5619 33.9851C18.4005 34.0199 17.2381 33.9739 16.0757 33.9943C15.7403 33.9933 15.3989 34.0137 15.0707 33.9309C14.7926 33.8267 14.5595 33.5516 14.5749 33.2439Z" fill="#010101"/>
<path d="M27.6539 30.9568C29.2826 30.9609 30.9112 30.9568 32.5398 30.9578C32.8915 30.9507 33.3056 31.1337 33.3935 31.5048C33.418 31.8452 33.417 32.1887 33.3925 32.5292C33.3414 32.8154 33.0888 32.9657 32.8578 33.0986C33.0786 33.3788 33.2749 33.6763 33.4732 33.9728C33.0704 33.9472 32.4591 34.1885 32.2341 33.7325C32.0992 33.5178 31.9714 33.299 31.8405 33.0823C30.764 33.0731 29.6874 33.0782 28.6109 33.0792C28.6129 33.3757 28.6139 33.6722 28.617 33.9697C28.295 33.9983 27.9719 33.9993 27.6509 33.9779C27.656 32.9708 27.6468 31.9638 27.6539 30.9568ZM28.6211 31.605C28.6129 31.8503 28.6129 32.0967 28.6139 32.3421C29.8858 32.3329 31.1586 32.3595 32.4294 32.3298C32.4611 32.3073 32.5245 32.2613 32.5572 32.2378C32.5388 32.0313 32.6625 31.7195 32.4151 31.6172C31.1515 31.5907 29.8858 31.6162 28.6211 31.605Z" fill="#010101"/>
<path d="M34.1911 31.7084C34.1778 31.2473 34.6594 30.9263 35.0867 30.958C36.7 30.9569 38.3133 30.961 39.9266 30.9559C39.9317 31.963 39.944 32.971 39.9143 33.978C39.6342 33.9903 39.351 34.0169 39.0719 33.9821C38.9451 33.7173 39.0525 33.3718 39.0218 33.0784C37.7254 33.0773 36.4291 33.0784 35.1327 33.0773C35.1307 33.3799 35.1327 33.6836 35.1348 33.9872C34.8209 33.9954 34.5081 33.9913 34.1952 33.978C34.2044 33.2215 34.1758 32.4649 34.1911 31.7084ZM35.1368 31.6481C35.1327 31.8801 35.1338 32.1122 35.1378 32.3453C36.4301 32.3382 37.7234 32.3433 39.0167 32.3422C39.0187 32.1081 39.0198 31.875 39.0228 31.6409C37.7275 31.6409 36.4322 31.6276 35.1368 31.6481Z" fill="#010101"/>
</g>
<defs>
<clipPath id="clip0_26_72968">
<rect width="32" height="21.0607" fill="white" transform="translate(8 13)"/>
</clipPath>
</defs>
</svg>
