<svg width="48" height="48" viewBox="0 0 48 48" fill="none" xmlns="http://www.w3.org/2000/svg">
<path fill-rule="evenodd" clip-rule="evenodd" d="M8 26.822V22.9683H10.284C11.9609 22.9683 13.0015 23.5464 13.0015 24.8149C13.0015 26.2657 11.9102 26.822 10.2404 26.822H8ZM9.45111 25.9229H10.3224C11.1175 25.9229 11.5511 25.6127 11.5511 24.8846C11.5511 24.0817 11.1967 23.8674 10.2863 23.8674H9.45111V25.9229ZM15.3515 24.0194L14.0514 26.822H12.3819L14.2466 22.9683H16.7461L18.6111 26.822H15.1277L14.7111 25.6324H16.2833L15.3515 24.0194ZM18.7285 26.822V22.9683H22.7162V23.8674H20.1792V24.4187H22.5812V25.3182H20.1792V25.9229H22.8176V26.822H18.7285Z" fill="#00ACEC"/>
<path fill-rule="evenodd" clip-rule="evenodd" d="M22.3667 22.9683H24.0868L24.9975 25.5321L25.9443 22.9683H27.6644L25.8576 26.822H24.1446L22.3667 22.9683Z" fill="#00ACEC"/>
<path fill-rule="evenodd" clip-rule="evenodd" d="M25.1841 22.9683H26.9042L27.8149 25.5321L28.762 22.9683H30.4822L28.675 26.822H26.962L25.1841 22.9683ZM34.896 24.8717C34.896 26.1174 34.0054 27.0611 32.5427 27.0611C30.9913 27.0611 29.9544 26.4303 29.9544 24.8611C29.9544 23.3488 31.0045 22.6013 32.5427 22.6013C34.3074 22.6017 34.896 23.9055 34.896 24.8717ZM31.3007 24.7472C31.3007 25.2893 31.5231 26.2211 32.4213 26.2211C33.2324 26.2211 33.5497 25.4481 33.5497 24.7472C33.5497 24.1704 33.232 23.3036 32.4053 23.3213C31.5551 23.3209 31.3007 24.2116 31.3007 24.7472ZM39.9999 24.9292C39.9999 26.1752 39.1093 27.1189 37.6466 27.1189C36.0945 27.1189 35.0576 26.4881 35.0576 24.919C35.0576 23.4063 36.1084 22.6585 37.6466 22.6585C39.4113 22.6588 39.9999 23.963 39.9999 24.9292ZM36.4043 24.805C36.4043 25.3464 36.626 26.2789 37.5248 26.2789C38.3352 26.2789 38.6532 25.5059 38.6532 24.805C38.6532 24.2283 38.3349 23.3611 37.5089 23.3787C36.658 23.3787 36.4043 24.2691 36.4043 24.805Z" fill="#00ACEC"/>
<path fill-rule="evenodd" clip-rule="evenodd" d="M20.1446 17.2515C20.1446 17.2515 19.7056 18.7879 20.2722 19.6313C21.1859 20.9903 22.8639 21.2668 22.8639 21.2668C22.8639 21.2668 23.1189 19.6521 22.2691 18.675C21.4196 17.6976 20.1446 17.2515 20.1446 17.2515Z" fill="#00ACEC"/>
<path fill-rule="evenodd" clip-rule="evenodd" d="M20.5693 16.6355C20.5693 16.6355 22.0565 17.3149 22.5877 18.4834C23.0954 19.6006 23.1189 21.2666 23.1189 21.2666L23.2889 21.2884C23.2889 21.2884 23.3529 18.9936 22.6302 17.7825C21.9075 16.5715 21.058 16.0186 21.058 16.0186L20.5693 16.6355Z" fill="#00ACEC"/>
<path fill-rule="evenodd" clip-rule="evenodd" d="M23.5014 21.2885C23.5014 21.2885 23.6075 18.9722 22.9277 17.5061C22.3877 16.3417 21.8867 15.6364 21.8867 15.6364L22.6516 15.2542C22.6516 15.2542 23.1671 16.4808 23.3528 17.2089C23.6289 18.2928 23.65 21.2664 23.65 21.2664L23.5014 21.2885ZM27.8527 17.2409C27.8527 17.2409 28.2918 18.777 27.7252 19.6201C26.8114 20.9797 25.1331 21.2565 25.1331 21.2565C25.1331 21.2565 24.878 19.6412 25.7282 18.6641C26.5781 17.6871 27.8527 17.2409 27.8527 17.2409Z" fill="#00ACEC"/>
<path fill-rule="evenodd" clip-rule="evenodd" d="M27.4281 16.6242C27.4281 16.6242 25.9409 17.3043 25.4097 18.4725C24.9016 19.5903 24.8785 21.2564 24.8785 21.2564L24.7085 21.2771C24.7085 21.2771 24.6449 18.983 25.3672 17.7716C26.0899 16.5606 26.9397 16.0083 26.9397 16.0083L27.4281 16.6242Z" fill="#00ACEC"/>
<path fill-rule="evenodd" clip-rule="evenodd" d="M24.4964 21.2772C24.4964 21.2772 24.3903 18.9616 25.0701 17.4959C25.6102 16.3315 26.1114 15.6261 26.1114 15.6261L25.3466 15.2435C25.3466 15.2435 24.8311 16.4702 24.6454 17.198C24.3692 18.2815 24.3478 21.2565 24.3478 21.2565L24.4964 21.2772ZM23.8091 18.0169C23.8516 18.6542 23.905 21.2884 23.905 21.2884H24.0965C24.0965 21.2884 24.2913 17.1878 24.2274 17.9526C24.1635 18.7171 24.3937 15.1055 24.3937 15.1055H23.5649C23.5653 15.1055 23.7666 17.3796 23.8091 18.0169Z" fill="#00ACEC"/>
<path d="M26.6941 28.4265V32.3143H25.228V28.4265H26.6941Z" fill="#00ACEC"/>
<path d="M17.117 32.3086L18.4172 29.5054L19.349 31.119H17.7768L18.1931 32.3086H21.6765L19.8118 28.4542H17.3126L15.4473 32.3086H17.117Z" fill="#00ACEC"/>
<path d="M22.0523 28.4542H20.3318L22.1101 32.3086H23.8231L25.6306 28.4542H23.9101L22.963 31.018L22.0523 28.4542Z" fill="#00ACEC"/>
<path d="M27.9951 32.3032L29.2949 29.4996L30.2267 31.1129H28.6545L29.0711 32.3032H32.5542L30.6899 28.4487H28.1903L26.3254 32.3032H27.9951Z" fill="#00ACEC"/>
</svg>
