<svg width="48" height="48" viewBox="0 0 48 48" fill="none" xmlns="http://www.w3.org/2000/svg">
<g clip-path="url(#clip0_26_72995)">
<path d="M8 26.6768H39.9012V28.7376H8V26.6768Z" fill="#EC1C2E"/>
<path d="M8.00488 25.4156V20.0234H14.658C16.8177 20.0234 18.3563 21.0068 18.3563 22.6819C18.3563 24.2769 17.1377 25.4156 14.5969 25.4156H8.00488ZM13.35 24.037C14.1781 24.037 14.6627 23.3312 14.6627 22.7901C14.6627 22.2396 14.2298 21.595 13.3735 21.595H11.562V24.037H13.35Z" fill="#00529B"/>
<path d="M24.1858 21.3598L21.7438 25.4251H18.3467L21.565 20H26.7972L30.0297 25.4251H22.8778L23.7294 24.0135H25.7762L24.1858 21.3598Z" fill="#00529B"/>
<path d="M34.1985 25.411H30.6743V20H40V21.5762H34.1985V22.5408H39.9012V24.07H34.1985V25.411Z" fill="#00529B"/>
</g>
<defs>
<clipPath id="clip0_26_72995">
<rect width="32" height="8.73754" fill="white" transform="translate(8 20)"/>
</clipPath>
</defs>
</svg>
