<svg width="48" height="48" viewBox="0 0 48 48" fill="none" xmlns="http://www.w3.org/2000/svg">
<g clip-path="url(#clip0_775_40039)">
<path d="M35.6166 28.5965C35.5207 28.4983 35.0094 28.0403 35.0094 28.0403L24.847 19.9597C26.6047 21.7264 29.1931 24.6054 29.992 27.1572C30.2157 27.8443 30.3116 28.4985 30.3116 29.0874C30.3116 29.6108 30.1837 30.1997 29.992 30.7886C29.5767 31.8681 28.7138 33.1114 27.4034 34.5182C26.9561 35.0088 25.0067 36.9717 24.3675 37.6261C24.2395 37.7571 24.1438 37.9533 24.1118 38.1823V38.7712L35.5207 29.6763C35.6486 29.578 35.9042 29.3818 35.9042 29.0546C35.8723 28.8584 35.6806 28.662 35.6166 28.5967V28.5965Z" fill="url(#paint0_linear_775_40039)"/>
<path d="M28.2665 35.0415C28.2025 34.976 30.4396 33.3403 31.686 30.5595C32.0376 29.7744 32.1973 29.4472 32.9322 29.3817C33.6992 29.3163 34.626 29.2508 35.0733 29.2183C35.265 29.2183 35.329 29.251 35.361 29.3492C35.3929 29.4147 35.329 29.5127 35.1693 29.6109C33.9868 30.4615 32.2293 31.9338 29.8323 33.8639C29.7364 33.9949 28.2985 35.0745 28.2665 35.0417V35.0415Z" fill="url(#paint1_linear_775_40039)"/>
<path d="M29.9279 20.8757C29.7042 20.1886 29.6083 19.5344 29.6083 18.9455C29.6083 18.4221 29.7362 17.8332 29.9279 17.2443C30.3432 16.1648 31.2061 14.9215 32.5165 13.5147C32.9319 13.0568 34.6576 11.2901 35.5525 10.4068C35.7122 10.2433 35.7761 10.0796 35.8401 9.85064C35.8721 9.65441 35.8721 9.49071 35.8721 9.42544V9.229L24.4312 18.3239C24.3673 18.3894 24.1756 18.5529 24.0797 18.7491C24.0477 18.8146 24.0477 18.9781 24.0797 19.109C24.1436 19.2725 24.2393 19.3707 24.3033 19.4362C24.3993 19.5017 24.8786 19.9269 24.8786 19.9269L35.041 28.0075C33.2513 26.2408 30.7268 23.3618 29.9279 20.8755V20.8757Z" fill="url(#paint2_linear_775_40039)"/>
<path d="M29.3529 20.7121C29.1612 20.1232 29.0333 19.5016 29.0333 18.9127C29.0333 18.3565 29.193 17.8331 29.3849 17.2769C30.3117 14.9541 34.6899 10.9955 35.5847 10.2432C34.8498 10.8321 31.6219 13.6456 30.791 14.5289C29.4169 15.9029 28.3623 17.4406 28.3623 18.9454C28.3623 20.5811 29.4808 22.2496 30.759 23.7873C31.558 24.7689 32.3249 25.6195 33.092 26.3064C33.8909 27.0587 34.4342 27.5496 35.0095 28.0076C34.3702 27.3859 30.4077 23.7873 29.3529 20.7121Z" fill="black"/>
<path d="M29.9281 20.8758C29.7044 20.1886 29.6085 19.5345 29.6085 18.9456C29.6085 18.4222 29.7364 17.8333 29.9281 17.2444C30.3434 16.1648 31.2063 14.9216 32.5167 13.5148C32.932 13.0569 34.6578 11.2902 35.5526 10.4068C35.5846 10.3741 35.6166 10.3414 35.6486 10.2759C34.7537 10.9955 30.3756 14.9868 29.4488 17.3097C29.2251 17.8658 29.0972 18.3892 29.0972 18.9454C29.0972 19.5343 29.1931 20.1559 29.4168 20.7448C30.4713 23.82 34.3702 27.3859 35.0414 28.0403C33.2199 26.2081 30.7272 23.3621 29.9283 20.8755L29.9281 20.8758Z" fill="url(#paint3_linear_775_40039)"/>
<path d="M30.5353 27.2877C29.4807 24.2125 25.4859 20.5484 24.8469 19.9595C26.6047 21.7262 29.1931 24.6051 29.992 27.1569C30.2157 27.8441 30.3116 28.4982 30.3116 29.0871C30.3116 29.6105 30.1837 30.1994 29.992 30.7883C29.5767 31.8679 28.7138 33.1112 27.4034 34.5179C26.9561 35.0086 25.0066 36.9715 24.3674 37.6259C24.3354 37.6586 24.3035 37.6913 24.2715 37.7568C25.1663 37.0044 29.5125 33.0459 30.4713 30.7231C30.695 30.1669 30.8229 29.6435 30.8229 29.0873C30.8549 28.4984 30.7589 27.9095 30.5353 27.2879V27.2877Z" fill="url(#paint4_linear_775_40039)"/>
<path d="M29.1611 24.2452C28.3622 23.2637 27.5953 22.4131 26.8281 21.7262C26.0292 20.9738 25.422 20.4176 24.8468 19.9595C25.5179 20.5484 29.5125 24.2452 30.5351 27.2877C30.7268 27.8766 30.8547 28.4983 30.8547 29.0871C30.8547 29.6433 30.695 30.1667 30.5031 30.7229C29.5443 33.0457 25.1981 37.0043 24.2715 37.7566V37.7894C25.0384 37.2005 28.2663 34.387 29.0972 33.5036C30.4713 32.1296 31.5259 30.5919 31.5259 29.0871C31.5259 27.4514 30.4074 25.783 29.1611 24.2452ZM19.7656 18.9127C19.7656 20.5484 18.6791 22.1841 17.241 23.6891C16.3141 24.6379 15.3875 25.4885 14.5246 26.1754C13.6298 26.9278 12.9268 27.4187 12.2876 27.8766C13.0225 27.2877 17.5286 23.7218 18.7111 20.6791C18.9348 20.0902 19.0627 19.5014 19.0627 18.9125C19.0627 18.3236 18.9348 17.7347 18.7111 17.1458C17.5286 14.1035 13.0225 10.5376 12.2876 9.94873C12.9268 10.4067 13.6298 10.8976 14.5246 11.6499C15.3875 12.337 16.3144 13.1876 17.241 14.1363C18.6791 15.6412 19.7656 17.3097 19.7656 18.9127Z" fill="black"/>
<path d="M12.2874 27.8767L12.0957 28.0077V9.81787L12.2874 9.94883C12.9586 10.5377 17.1448 14.1036 18.2314 17.1463C18.455 17.7352 18.583 18.3241 18.583 18.913C18.583 19.5019 18.455 20.0908 18.2314 20.6797C17.1128 23.7219 12.9586 27.2878 12.2874 27.8767Z" fill="url(#paint5_linear_775_40039)"/>
<path d="M12.2876 27.8766C13.0225 27.2877 17.5286 23.7218 18.7111 20.6791C18.9348 20.0902 19.0627 19.5014 19.0627 18.9125C19.0627 18.3236 18.9348 17.7347 18.7111 17.1458C17.5286 14.1035 13.0225 10.5376 12.2876 9.94873C12.9588 10.5376 17.145 14.1035 18.2316 17.1462C18.4552 17.7351 18.5832 18.324 18.5832 18.9129C18.5832 19.5018 18.4552 20.0907 18.2316 20.6796C17.1131 23.7218 12.9588 27.2877 12.2876 27.8766Z" fill="url(#paint6_linear_775_40039)"/>
<path d="M35.6804 28.5311C34.8495 27.7132 31.0466 24.0164 30.024 20.8429C29.8004 20.1886 29.7044 19.5671 29.7044 18.9455C29.7044 18.3894 29.8324 17.8659 30.024 17.3098C30.5033 16.0665 31.5261 14.7252 32.5807 13.6129C33.028 13.1223 34.9774 11.1593 35.6166 10.4722C35.7763 10.3087 35.8723 10.1123 35.9043 9.91608C35.9362 9.71985 35.9682 9.52341 35.9682 9.39267V9.03274L24.3675 18.2257C24.2395 18.3239 24.0479 18.4874 23.9839 18.7491C23.9199 18.5201 23.7283 18.3239 23.6003 18.2257L12 9V28.8583L23.6005 19.6324C23.7285 19.5342 23.9201 19.3707 23.9841 19.109C24.0481 19.3052 24.1758 19.4689 24.2398 19.5017C25.0707 20.3195 28.9055 24.0164 29.9281 27.1898C30.1518 27.8442 30.2477 28.4656 30.2477 29.0872C30.2477 29.6434 30.1198 30.1668 29.9281 30.723C29.4488 31.9662 28.426 33.3075 27.3714 34.4198C26.9241 34.9105 24.9747 36.9061 24.3355 37.5605C24.2076 37.6915 24.0798 37.9204 24.0479 38.1167C24.0159 38.2801 23.9839 38.4438 23.9839 38.6401V39L35.5844 29.7744C35.7441 29.6434 35.9998 29.4144 35.9998 29.0872C35.9678 28.7928 35.7441 28.5966 35.6802 28.5311H35.6804ZM23.5366 19.5344L12.0959 28.6293V9.22897L23.5046 18.3239C23.6325 18.4221 23.8882 18.6511 23.8882 18.9455C23.8882 19.2072 23.6645 19.4362 23.5366 19.5344ZM24.0798 19.1092C24.0479 18.9782 24.0479 18.8475 24.0798 18.7493C24.1438 18.5531 24.3355 18.3894 24.4314 18.3241L35.8403 9.22897V9.39245C35.8403 9.45793 35.8403 9.62142 35.8083 9.81765C35.7763 10.0466 35.6804 10.2428 35.5207 10.3738C34.6578 11.2571 32.9003 13.0238 32.4847 13.4818C31.1745 14.8885 30.3117 16.1318 29.8961 17.2113C29.6724 17.8002 29.5765 18.3564 29.5765 18.9126C29.5765 19.5342 29.7044 20.1883 29.8961 20.8427C30.695 23.3618 33.2197 26.208 34.9774 27.9747L24.879 19.9266C24.879 19.9266 24.3997 19.5014 24.3037 19.436C24.2398 19.3705 24.144 19.2397 24.0801 19.1088L24.0798 19.1092ZM35.4887 29.7089L24.0798 38.8038V38.6403C24.0798 38.4768 24.1118 38.3458 24.1118 38.2151C24.1438 37.9861 24.2398 37.7899 24.3995 37.6589L27.4354 34.551C28.7456 33.1442 29.6085 31.901 30.024 30.8214C30.2477 30.2325 30.3436 29.6763 30.3436 29.1202C30.3436 28.4986 30.2157 27.8444 30.024 27.19C29.1931 24.6382 26.6365 21.7592 24.879 19.9925L35.0734 28.1059C35.0734 28.1059 35.5847 28.5638 35.6806 28.662C35.7446 28.7275 35.9362 28.9237 35.9362 29.1527C35.8723 29.3817 35.6166 29.6106 35.4889 29.7089H35.4887Z" fill="black"/>
<path d="M31.4304 24.8669C31.4623 24.8342 30.2799 23.6564 30.1202 23.5256C28.81 22.2823 27.7554 20.3522 27.7554 20.3522C27.3718 19.5671 27.2441 19.2399 26.5092 19.1744C25.7422 19.1089 25.2309 19.0762 24.7834 19.0762C24.5917 19.0762 24.5278 19.1089 24.4958 19.2071C24.4638 19.2726 24.5278 19.3706 24.6875 19.4688C25.87 20.3194 27.6275 21.7589 30.0244 23.7218C30.1841 23.8201 31.3986 24.8996 31.4306 24.8669H31.4304Z" fill="url(#paint7_linear_775_40039)"/>
<path d="M12.0957 28.0404L12.2874 27.9095C12.9266 27.4516 13.6296 26.9607 14.5244 26.2083C15.3873 25.5212 16.3141 24.6706 17.2408 23.722C18.6789 22.217 19.7654 20.5813 19.7654 18.9455C19.7654 17.3098 18.6789 15.6741 17.2408 14.1691C16.3139 13.2203 15.3873 12.3697 14.5244 11.6828C13.6296 10.9302 12.9266 10.4395 12.2874 9.9816L12.0957 9.85064V9.229L23.5044 18.3239C23.6323 18.4221 23.8879 18.6511 23.8879 18.9455C23.8879 19.24 23.6643 19.4362 23.5044 19.5672L12.0957 28.6293V28.0404Z" fill="url(#paint8_linear_775_40039)"/>
<path d="M16.3779 24.8669C16.3779 24.8669 16.6656 24.5724 17.3368 23.9508C17.4964 23.8199 17.6564 23.6564 17.7841 23.5256C19.0943 22.2823 20.1488 20.3522 20.1488 20.3522C20.5324 19.5671 20.6601 19.2399 21.3951 19.1744C22.162 19.1089 22.6733 19.0762 23.1208 19.0762C23.3125 19.0762 23.3765 19.1089 23.4084 19.2071C23.4404 19.2726 23.3765 19.3706 23.2168 19.4688C22.0343 20.3194 20.3087 21.7917 17.8798 23.7218C17.7201 23.8528 17.5602 23.9836 17.4005 24.0818C16.7613 24.5724 16.4099 24.8996 16.3779 24.8669Z" fill="url(#paint9_linear_775_40039)"/>
</g>
<defs>
<linearGradient id="paint0_linear_775_40039" x1="29.9663" y1="19.9227" x2="29.9663" y2="38.8415" gradientUnits="userSpaceOnUse">
<stop offset="0.04" stop-color="#8C8C8C"/>
<stop offset="0.19" stop-color="#B6B6B6"/>
<stop offset="0.4" stop-color="#EBEBEB"/>
<stop offset="0.51" stop-color="white"/>
<stop offset="0.56" stop-color="#FAFAFA"/>
<stop offset="0.63" stop-color="#EBEBEB"/>
<stop offset="0.71" stop-color="#D3D3D3"/>
<stop offset="0.79" stop-color="#B2B2B2"/>
<stop offset="0.87" stop-color="#878787"/>
<stop offset="0.95" stop-color="#535353"/>
<stop offset="0.96" stop-color="#4D4D4D"/>
</linearGradient>
<linearGradient id="paint1_linear_775_40039" x1="31.6399" y1="29.5485" x2="31.9176" y2="34.791" gradientUnits="userSpaceOnUse">
<stop stop-color="#BFBFBF"/>
<stop offset="0.21" stop-color="#666666"/>
<stop offset="0.27" stop-color="#595959"/>
<stop offset="0.52" stop-color="#292929"/>
<stop offset="0.7" stop-color="#0B0B0B"/>
<stop offset="0.81"/>
</linearGradient>
<linearGradient id="paint2_linear_775_40039" x1="30.0462" y1="9.15368" x2="30.0462" y2="28.0147" gradientUnits="userSpaceOnUse">
<stop offset="0.04" stop-color="#8C8C8C"/>
<stop offset="0.19" stop-color="#B6B6B6"/>
<stop offset="0.4" stop-color="#EBEBEB"/>
<stop offset="0.51" stop-color="white"/>
<stop offset="0.56" stop-color="#FAFAFA"/>
<stop offset="0.63" stop-color="#EBEBEB"/>
<stop offset="0.71" stop-color="#D3D3D3"/>
<stop offset="0.79" stop-color="#B2B2B2"/>
<stop offset="0.87" stop-color="#878787"/>
<stop offset="0.95" stop-color="#535353"/>
<stop offset="0.96" stop-color="#4D4D4D"/>
</linearGradient>
<linearGradient id="paint3_linear_775_40039" x1="32.2684" y1="28.0969" x2="32.2684" y2="10.2768" gradientUnits="userSpaceOnUse">
<stop offset="0.04" stop-color="#4D4D4D"/>
<stop offset="0.05" stop-color="#5A5A5A"/>
<stop offset="0.08" stop-color="#808080"/>
<stop offset="0.11" stop-color="#A3A3A3"/>
<stop offset="0.14" stop-color="#C0C0C0"/>
<stop offset="0.18" stop-color="#D7D7D7"/>
<stop offset="0.23" stop-color="#E9E9E9"/>
<stop offset="0.28" stop-color="#F6F6F6"/>
<stop offset="0.35" stop-color="#FDFDFD"/>
<stop offset="0.51" stop-color="white"/>
<stop offset="0.63" stop-color="#FDFDFD"/>
<stop offset="0.7" stop-color="#F5F5F5"/>
<stop offset="0.76" stop-color="#E7E7E7"/>
<stop offset="0.81" stop-color="#D3D3D3"/>
<stop offset="0.85" stop-color="#BABABA"/>
<stop offset="0.89" stop-color="#9B9B9B"/>
<stop offset="0.93" stop-color="#777777"/>
<stop offset="0.96" stop-color="#4D4D4D"/>
</linearGradient>
<linearGradient id="paint4_linear_775_40039" x1="27.4571" y1="37.8075" x2="27.4571" y2="19.9238" gradientUnits="userSpaceOnUse">
<stop offset="0.04" stop-color="#4D4D4D"/>
<stop offset="0.05" stop-color="#5A5A5A"/>
<stop offset="0.08" stop-color="#808080"/>
<stop offset="0.11" stop-color="#A3A3A3"/>
<stop offset="0.14" stop-color="#C0C0C0"/>
<stop offset="0.18" stop-color="#D7D7D7"/>
<stop offset="0.23" stop-color="#E9E9E9"/>
<stop offset="0.28" stop-color="#F6F6F6"/>
<stop offset="0.35" stop-color="#FDFDFD"/>
<stop offset="0.51" stop-color="white"/>
<stop offset="0.63" stop-color="#FDFDFD"/>
<stop offset="0.7" stop-color="#F5F5F5"/>
<stop offset="0.76" stop-color="#E7E7E7"/>
<stop offset="0.81" stop-color="#D3D3D3"/>
<stop offset="0.85" stop-color="#BABABA"/>
<stop offset="0.89" stop-color="#9B9B9B"/>
<stop offset="0.93" stop-color="#777777"/>
<stop offset="0.96" stop-color="#4D4D4D"/>
</linearGradient>
<linearGradient id="paint5_linear_775_40039" x1="8.95733" y1="11.7063" x2="19.2207" y2="13.9668" gradientUnits="userSpaceOnUse">
<stop offset="0.02" stop-color="#F5F5F5"/>
<stop offset="0.33" stop-color="#F0F0F0"/>
<stop offset="0.69" stop-color="#E2E2E2"/>
<stop offset="0.73" stop-color="#E0E0E0"/>
<stop offset="0.96" stop-color="#B3B3B3"/>
</linearGradient>
<linearGradient id="paint6_linear_775_40039" x1="15.7107" y1="27.9404" x2="15.7107" y2="9.93513" gradientUnits="userSpaceOnUse">
<stop offset="0.04" stop-color="#4D4D4D"/>
<stop offset="0.05" stop-color="#5A5A5A"/>
<stop offset="0.08" stop-color="#808080"/>
<stop offset="0.11" stop-color="#A3A3A3"/>
<stop offset="0.14" stop-color="#C0C0C0"/>
<stop offset="0.18" stop-color="#D7D7D7"/>
<stop offset="0.23" stop-color="#E9E9E9"/>
<stop offset="0.28" stop-color="#F6F6F6"/>
<stop offset="0.35" stop-color="#FDFDFD"/>
<stop offset="0.51" stop-color="white"/>
<stop offset="0.63" stop-color="#FDFDFD"/>
<stop offset="0.7" stop-color="#F5F5F5"/>
<stop offset="0.76" stop-color="#E7E7E7"/>
<stop offset="0.81" stop-color="#D3D3D3"/>
<stop offset="0.85" stop-color="#BABABA"/>
<stop offset="0.89" stop-color="#9B9B9B"/>
<stop offset="0.93" stop-color="#777777"/>
<stop offset="0.96" stop-color="#4D4D4D"/>
</linearGradient>
<linearGradient id="paint7_linear_775_40039" x1="28.211" y1="19.2325" x2="27.8689" y2="24.4713" gradientUnits="userSpaceOnUse">
<stop stop-color="#BFBFBF"/>
<stop offset="0.21" stop-color="#666666"/>
<stop offset="0.27" stop-color="#595959"/>
<stop offset="0.52" stop-color="#292929"/>
<stop offset="0.7" stop-color="#0B0B0B"/>
<stop offset="0.81"/>
</linearGradient>
<linearGradient id="paint8_linear_775_40039" x1="17.9426" y1="9.19468" x2="17.9426" y2="28.4593" gradientUnits="userSpaceOnUse">
<stop offset="0.04" stop-color="#8C8C8C"/>
<stop offset="0.19" stop-color="#B6B6B6"/>
<stop offset="0.4" stop-color="#EBEBEB"/>
<stop offset="0.51" stop-color="white"/>
<stop offset="0.56" stop-color="#FAFAFA"/>
<stop offset="0.63" stop-color="#EBEBEB"/>
<stop offset="0.71" stop-color="#D3D3D3"/>
<stop offset="0.79" stop-color="#B2B2B2"/>
<stop offset="0.87" stop-color="#878787"/>
<stop offset="0.95" stop-color="#535353"/>
<stop offset="0.96" stop-color="#4D4D4D"/>
</linearGradient>
<linearGradient id="paint9_linear_775_40039" x1="19.5915" y1="19.3726" x2="19.9277" y2="24.546" gradientUnits="userSpaceOnUse">
<stop stop-color="#BFBFBF"/>
<stop offset="0.21" stop-color="#666666"/>
<stop offset="0.27" stop-color="#595959"/>
<stop offset="0.52" stop-color="#292929"/>
<stop offset="0.7" stop-color="#0B0B0B"/>
<stop offset="0.81"/>
</linearGradient>
<clipPath id="clip0_775_40039">
<rect width="24" height="30" fill="white" transform="translate(12 9)"/>
</clipPath>
</defs>
</svg>
