<svg width="48" height="48" viewBox="0 0 48 48" fill="none" xmlns="http://www.w3.org/2000/svg">
<g clip-path="url(#clip0_771_40443)">
<path d="M24.7822 6C24.9098 6.03394 25.035 6.08778 25.1638 6.10066C29.4816 6.50328 33.1393 8.3022 36.1356 11.4038C38.6579 14.015 40.2252 17.1376 40.7729 20.739C41.5127 25.5985 40.4546 30.0473 37.5097 33.9857C34.7931 37.6198 31.1659 39.9349 26.6912 40.7015C20.5639 41.7514 15.2267 40.0449 10.8621 35.5904C8.30813 32.9827 6.7725 29.8191 6.22122 26.1955C6.1545 25.7612 6.07374 25.3305 6 24.8975C6 23.9647 6 23.0307 6 22.0978C6.03628 21.9738 6.08778 21.8509 6.10768 21.7245C6.21068 21.0737 6.2692 20.4136 6.41083 19.7722C7.25823 15.9508 9.17309 12.7568 12.139 10.2065C14.6262 8.06929 17.4997 6.74204 20.743 6.2294C21.196 6.15801 21.6466 6.07725 22.0984 6C22.9926 6 23.8868 6 24.7811 6H24.7822ZM23.476 40.258C32.7062 40.2076 40.2099 32.9054 40.2439 23.5808C40.279 13.9015 32.3843 6.79471 23.565 6.76545C14.4074 6.73502 6.83102 14.2058 6.76665 23.4029C6.70461 32.2781 13.8081 40.1667 23.476 40.2568V40.258Z" fill="black"/>
<path d="M23.5261 34.1437C17.7558 34.2011 12.7662 29.4925 12.7837 23.4169C12.8013 17.2863 17.826 12.7322 23.5086 12.7217C29.1232 12.7112 34.2732 17.154 34.2838 23.431C34.2931 29.6599 29.1853 34.2105 23.5261 34.1437ZM22.4329 14.5218C18.6582 14.86 14.3428 18.2765 14.5183 23.7517C14.6869 29.0068 19.0421 32.2606 22.8145 32.3834C22.7794 31.9586 22.7302 31.5396 22.7138 31.1194C22.6249 28.8301 22.5359 26.5419 22.4634 24.2526C22.413 22.6807 22.3885 21.1077 22.3498 19.5358C22.3475 19.4633 22.3217 19.3919 22.2983 19.2807C22.0713 19.2807 21.8582 19.3018 21.6522 19.2748C21.4521 19.2491 21.259 19.1742 21.0577 19.1192C20.9453 19.2034 20.8259 19.2936 20.7147 19.3778C20.3507 19.1051 20.2594 18.8324 20.4467 18.603C20.4912 18.548 20.5848 18.4754 20.6328 18.4895C20.8037 18.5398 20.9652 18.6241 21.1302 18.6955C21.4814 18.2648 22.0198 18.6276 22.4364 18.4064V14.5218H22.4329ZM24.2986 32.3448C26.1362 32.4548 29.4065 31.1089 31.1259 28.2484C33.0197 25.0965 33.0325 21.8813 31.175 18.7107C29.7916 16.35 26.6103 14.3966 24.5948 14.5756V18.4286C25.0512 18.5983 25.5721 18.2624 25.9185 18.7177C26.2779 18.4497 26.4289 18.4181 26.5705 18.5784C26.7039 18.7306 26.7039 19.0677 26.5576 19.2268C26.5084 19.2807 26.4113 19.3556 26.3668 19.3392C26.2123 19.283 26.0707 19.1906 25.8904 19.0934C25.5815 19.4562 25.1051 19.1765 24.7165 19.3228C24.5772 23.6592 24.4391 27.9792 24.2998 32.3448H24.2986ZM23.0287 33.1103C23.0357 32.8224 22.9035 32.7287 22.6752 32.7053C22.3288 32.669 21.9788 32.6339 21.6382 32.5614C16.6111 31.4857 13.5516 26.7655 14.3194 21.982C14.9268 18.1945 17.6797 15.2837 21.4381 14.3767C21.7014 14.3135 21.9683 14.2596 22.2351 14.2128C22.4435 14.1753 22.5348 14.0665 22.5008 13.8558C21.0038 13.747 18.6044 14.8577 17.3672 15.8982C15.2745 17.6585 14.0338 19.8893 13.8254 22.6082C13.3432 28.8991 18.4136 33.0412 23.0287 33.1091V33.1103ZM24.0915 13.1243C24.2963 13.3596 24.4953 13.4708 24.7703 13.4895C25.0782 13.5094 25.386 13.5726 25.688 13.6393C30.7291 14.7489 34.3505 19.6096 33.4282 25.1456C32.7809 29.0302 29.8126 32.2489 25.9899 33.17C25.4644 33.2964 24.9213 33.349 24.3841 33.4263C24.1652 33.4579 23.9288 33.4462 23.8913 33.7587C28.2817 33.8956 33.8881 30.1444 33.9607 23.5445C34.0309 17.1224 28.6808 13.1676 24.0915 13.1255V13.1243ZM23.5706 32.394C23.6128 32.401 23.6549 32.4092 23.697 32.4162C23.7497 32.1201 23.8305 31.8252 23.8504 31.5267C23.9299 30.327 24.0341 29.1274 24.0482 27.9265C24.0786 25.1714 24.0622 22.415 24.0622 19.6587C24.0622 19.5089 24.04 19.3591 24.0259 19.1718C23.8504 19.1871 23.7099 19.1999 23.5706 19.2116V32.3952V32.394Z" fill="black"/>
<path d="M29.829 8.92358C30.4961 9.30397 31.134 9.66211 31.7649 10.032C31.8796 10.0987 31.9779 10.2028 32.0645 10.3058C32.4403 10.7494 32.3431 11.3475 31.8445 11.6495C31.7333 11.7174 31.6022 11.7525 31.5144 11.7888C31.5425 12.0603 31.6233 12.3131 31.5823 12.5448C31.4501 13.3021 30.7923 13.6638 30.042 13.4074C29.8056 13.3267 29.5809 13.2026 29.3596 13.0821C28.9032 12.8316 28.4537 12.5706 27.9668 12.2944C28.5906 11.1649 29.1958 10.0694 29.8278 8.92358H29.829ZM29.2578 12.0931C29.5937 12.2675 29.8419 12.4184 30.1076 12.5261C30.303 12.6057 30.4915 12.5425 30.6085 12.3494C30.7279 12.1528 30.6893 11.9421 30.4727 11.7969C30.2223 11.6296 29.9495 11.4961 29.6581 11.3335C29.5165 11.6038 29.4029 11.8192 29.259 12.0931H29.2578ZM29.9975 10.7272C30.2234 10.8583 30.413 10.9847 30.6167 11.0818C30.8824 11.2082 31.0685 11.1673 31.1715 10.9882C31.278 10.8044 31.2183 10.6242 30.9713 10.4709C30.7806 10.3515 30.5722 10.259 30.337 10.1373C30.2152 10.348 30.1134 10.5235 29.9964 10.7272H29.9975Z" fill="black"/>
<path d="M17.4423 38.0647C16.7728 37.7007 16.1431 37.3683 15.5239 37.016C15.3765 36.9317 15.2465 36.7995 15.14 36.6649C14.8181 36.2552 14.92 35.6806 15.3601 35.3973C15.4853 35.3166 15.6304 35.2651 15.7206 35.2229C15.6831 34.9327 15.5754 34.6576 15.6281 34.4165C15.7873 33.685 16.4404 33.3233 17.1438 33.5879C17.8672 33.8594 18.5296 34.2632 19.2401 34.6728C18.6338 35.8163 18.0474 36.92 17.4411 38.0659L17.4423 38.0647ZM17.9632 34.9092C17.6811 34.7559 17.4669 34.6225 17.2386 34.5207C16.9144 34.3755 16.7143 34.4341 16.5937 34.6775C16.4837 34.8987 16.5422 35.0801 16.8196 35.2557C17.0455 35.3985 17.2901 35.5097 17.5722 35.6607C17.7021 35.4114 17.8145 35.1948 17.9632 34.9104V34.9092ZM17.2527 36.2599C16.9566 36.1113 16.7225 35.9767 16.4755 35.8748C16.321 35.8105 16.1642 35.8596 16.0752 36.0176C15.9757 36.1955 16.005 36.3617 16.1829 36.4694C16.4088 36.6063 16.6452 36.7257 16.9039 36.8674C17.0244 36.6578 17.1181 36.494 17.2515 36.2611L17.2527 36.2599Z" fill="black"/>
<path d="M37.5416 16.1345C37.8131 16.8134 38.0788 17.4524 38.3234 18.0996C38.4896 18.5397 38.5025 18.9821 38.1607 19.3543C37.8166 19.7277 37.3765 19.7312 36.92 19.62C36.8639 19.606 36.8135 19.5744 36.7246 19.5357C36.4624 20.1947 35.7987 20.3422 35.2276 20.705C35.107 20.3995 34.997 20.1198 34.8729 19.8049C35.0848 19.6809 35.2627 19.572 35.4441 19.4702C35.9825 19.1671 36.0481 19.0032 35.8257 18.4496C35.7695 18.3091 35.6922 18.1781 35.6126 18.0165C35.1971 18.1792 34.8062 18.3314 34.3532 18.5093C34.2257 18.2003 34.1063 17.9089 33.9658 17.5659C35.1702 17.0837 36.3313 16.6179 37.5404 16.1345H37.5416ZM36.391 17.7275C36.5104 18.0165 36.604 18.2869 36.7316 18.5397C36.8323 18.7399 37.0722 18.8007 37.2805 18.7071C37.4643 18.6252 37.5497 18.4695 37.4912 18.2822C37.3976 17.9791 37.3461 17.6467 37.0675 17.4114C36.8498 17.5121 36.6438 17.6081 36.391 17.7263V17.7275Z" fill="black"/>
<path d="M12.229 27.2757C11.9727 27.422 11.7702 27.532 11.5736 27.6525C11.123 27.9288 11.0656 28.0879 11.2529 28.5596C11.3161 28.72 11.4027 28.8709 11.4987 29.0699C11.9013 28.9107 12.2899 28.7574 12.7405 28.5795C12.8786 28.8686 13.0074 29.1378 13.1677 29.4725C11.9786 29.9793 10.8268 30.4685 9.63883 30.9753C9.56861 30.8466 9.49838 30.7389 9.44805 30.6219C9.24088 30.1408 9.02903 29.6621 8.84293 29.1729C8.76216 28.9587 8.70481 28.7246 8.69662 28.4976C8.67438 27.8632 9.10745 27.4255 9.74183 27.4348C9.95017 27.4384 10.1562 27.5051 10.3985 27.5495C10.5834 26.8812 11.2704 26.7736 11.7843 26.4014C12.0113 26.6413 12.0652 26.9456 12.2279 27.2745L12.229 27.2757ZM10.7426 29.3859C10.5951 29.0676 10.4968 28.8171 10.3669 28.5842C10.2498 28.3735 10.0309 28.3162 9.82259 28.411C9.60723 28.5093 9.55222 28.7001 9.62362 28.8943C9.72545 29.1741 9.7746 29.4913 10.0532 29.7019C10.2674 29.6036 10.4734 29.5088 10.7414 29.3847L10.7426 29.3859Z" fill="black"/>
<path d="M11.1733 17.6959C10.9743 18.3033 10.7953 18.8499 10.6056 19.4293C10.8175 19.5182 10.9907 19.5896 11.2002 19.6774C11.5432 19.0536 11.6438 18.3537 11.961 17.6982C12.2255 17.7884 12.4748 17.8738 12.764 17.9721C12.4304 18.9611 12.1062 19.9244 11.762 20.9473C10.5354 20.526 9.33687 20.114 8.09619 19.6868C8.43562 18.713 8.76218 17.7731 9.10278 16.7947C9.37315 16.8801 9.58969 16.948 9.8706 17.037C9.65757 17.676 9.45274 18.2905 9.23153 18.9541C9.41178 19.0337 9.57915 19.1086 9.80622 19.2104C10.0204 18.6135 10.2264 18.0412 10.45 17.4185C10.7121 17.518 10.9322 17.6023 11.1745 17.6947L11.1733 17.6959Z" fill="black"/>
<path d="M35.3094 25.7227C36.4786 26.1042 37.5976 26.4694 38.7142 26.8381C38.7844 26.8615 38.8453 26.913 38.9471 26.9738C38.6451 27.9137 38.3443 28.8465 38.0272 29.8331C37.7591 29.7559 37.5262 29.6904 37.2476 29.6096C37.4595 28.9507 37.6596 28.3303 37.8727 27.6691C37.6901 27.5918 37.5203 27.5204 37.2863 27.4209C37.0826 28.0225 36.8883 28.5984 36.6765 29.2222C36.4342 29.1438 36.2211 29.0747 35.9473 28.9869C36.1275 28.3889 36.2972 27.8247 36.4833 27.2044C36.2762 27.1283 36.0889 27.0604 35.8489 26.9738C35.6137 27.6573 35.3913 28.3046 35.1572 28.9858C34.8599 28.8804 34.6129 28.7938 34.3379 28.6967C34.668 27.6866 34.9828 26.7187 35.3082 25.7238L35.3094 25.7227Z" fill="black"/>
<path d="M35.8077 13.5492C36.0524 13.8219 36.2455 14.0361 36.469 14.2842C36.3742 14.386 36.2935 14.4867 36.1998 14.5721C35.7691 14.9642 35.3372 15.354 34.9018 15.7402C34.7567 15.8689 34.608 15.9965 34.4453 16.1007C33.8519 16.4834 33.3264 16.4623 32.788 16.0117C32.5679 15.8268 32.3619 15.6103 32.1981 15.3739C31.7428 14.7161 31.7931 14.111 32.3549 13.5375C32.7213 13.1641 33.1204 12.8224 33.5066 12.4677C33.7349 12.2594 33.9655 12.0534 34.2393 11.8076C34.4699 12.0499 34.6911 12.2816 34.9393 12.5426C34.4278 13.0085 33.9456 13.4497 33.461 13.891C33.3463 13.9951 33.2222 14.0911 33.1169 14.2046C32.8336 14.5124 32.8266 14.7875 33.0806 15.0801C33.3592 15.4008 33.66 15.4406 33.9912 15.162C34.4219 14.8004 34.8328 14.4153 35.2529 14.0408C35.425 13.8863 35.5982 13.7341 35.8066 13.5492H35.8077Z" fill="black"/>
<path d="M12.9608 35.2486C12.7431 35.011 12.536 34.7851 12.2867 34.5136C12.6589 34.166 13.0205 33.8265 13.3845 33.4883C13.5835 33.3034 13.7954 33.1301 13.9838 32.9359C14.3642 32.5461 14.3759 32.264 14.0459 31.934C13.7357 31.6238 13.4747 31.6238 13.0849 31.9691C12.6202 32.3811 12.172 32.8118 11.7155 33.2331C11.616 33.3244 11.5107 33.4099 11.3725 33.5281C11.1584 33.3022 10.9512 33.0822 10.7183 32.8364C10.84 32.7018 10.9336 32.5836 11.0425 32.4817C11.5095 32.0428 11.9636 31.5887 12.4529 31.1767C13.2698 30.4897 13.9546 30.5482 14.6931 31.3277C14.72 31.3558 14.7458 31.3851 14.7715 31.4131C15.4586 32.1903 15.4574 32.8797 14.7306 33.6124C14.2249 34.1227 13.6877 34.6002 13.1633 35.0918C13.1083 35.1432 13.0439 35.1842 12.9597 35.2486H12.9608Z" fill="black"/>
<path d="M30.3584 34.9829C30.1184 35.1445 29.8656 35.3153 29.5812 35.5085C29.2336 34.9712 29.2148 34.441 29.4934 33.9073C29.8434 33.239 30.6896 32.7814 31.3743 32.8598C32.196 32.9546 32.9287 33.637 33.171 34.4785C33.5865 35.9169 32.2241 37.0007 31.1753 36.9036C30.7458 36.8638 30.4918 36.7292 30.129 36.2879C30.383 36.1159 30.6346 35.9462 30.9003 35.7659C31.2362 36.0141 31.578 36.0468 31.9221 35.7964C32.2252 35.5763 32.3458 35.2615 32.2393 34.8729C32.1398 34.5089 31.9385 34.2023 31.6236 33.9811C31.2713 33.7341 30.9822 33.7201 30.6533 33.9319C30.3396 34.1332 30.2624 34.3743 30.3572 34.8343C30.3642 34.8706 30.3572 34.9104 30.3572 34.9853L30.3584 34.9829Z" fill="black"/>
<path d="M17.1133 10.4592C16.8347 10.6441 16.5936 10.8033 16.3689 10.9519C16.3068 10.9402 16.2682 10.9402 16.2354 10.9262C15.738 10.7202 15.47 10.7483 15.1809 11.0491C14.8836 11.358 14.9023 11.7244 15.058 12.0755C15.1575 12.2991 15.3073 12.5167 15.4828 12.6865C15.8141 13.006 16.143 13.0411 16.4883 12.8538C16.8488 12.6584 16.9389 12.4395 16.871 11.928C16.8663 11.8906 16.8745 11.852 16.8792 11.7724C17.1133 11.6202 17.3684 11.4564 17.6575 11.2691C17.9853 11.825 18.0098 12.3599 17.7008 12.8831C17.1613 13.7983 15.697 14.4152 14.5839 13.2225C13.4825 12.0427 13.946 10.3211 15.4711 9.91141C16.1395 9.73234 16.6299 9.88332 17.1145 10.4592H17.1133Z" fill="black"/>
<path d="M28.3557 38.4451C28.0045 38.5387 27.6908 38.623 27.3537 38.7119C26.552 37.6223 25.7713 36.5619 24.9766 35.4804C25.2727 35.2452 25.5981 35.2241 25.9305 35.1457C26.0686 35.3142 26.2009 35.4758 26.3635 35.6747C26.5614 35.6291 26.7638 35.5858 26.9652 35.5343C27.1712 35.4804 27.3748 35.4184 27.6066 35.3529C27.6417 35.1223 27.6768 34.8964 27.7189 34.6249C28.0127 34.5347 28.3182 34.4411 28.6927 34.3264C28.578 35.7251 28.4704 37.0511 28.3557 38.4463V38.4451ZM27.4392 37.421C27.479 37.3929 27.5188 37.366 27.5574 37.3379V36.1733C27.3011 36.2459 27.0881 36.3068 26.827 36.3805C27.0178 36.6836 27.1829 36.9411 27.3432 37.2033C27.3842 37.27 27.4064 37.3484 27.438 37.421H27.4392Z" fill="black"/>
<path d="M21.3328 11.7373C21.1619 11.5185 21.0215 11.3382 20.8623 11.1369C20.606 11.2048 20.3508 11.3031 20.0875 11.3347C19.7071 11.3804 19.5362 11.5688 19.5444 11.9445C19.5455 12.0182 19.5163 12.0931 19.4964 12.1973C19.2003 12.2734 18.9053 12.3495 18.5308 12.4454C18.6607 11.0632 18.7836 9.74178 18.9112 8.38293C19.2494 8.28228 19.5584 8.19099 19.9002 8.09033C20.6879 9.19052 21.4639 10.2731 22.2856 11.419C21.9508 11.5313 21.6687 11.6261 21.3328 11.7385V11.7373ZM19.7855 9.42811C19.748 9.43631 19.7094 9.44333 19.672 9.45152C19.6661 9.84244 19.5865 10.2334 19.6895 10.6489C19.9248 10.5342 20.2045 10.5892 20.3754 10.3399C20.1729 10.0274 19.9798 9.72774 19.7855 9.42811Z" fill="black"/>
<path d="M36.5442 32.3484C36.0947 32.3051 35.6968 32.2676 35.2286 32.2231C35.4252 32.6737 35.5867 33.0424 35.7565 33.431C35.5493 33.7189 35.3468 33.9998 35.0951 34.3486C34.8213 33.6288 34.5708 32.9699 34.3074 32.277C33.542 32.2512 32.7905 32.2255 31.9888 32.1986C32.1058 31.7901 32.3504 31.5162 32.6033 31.2739C32.6981 31.1826 32.9345 31.2166 33.103 31.2283C33.3875 31.2482 33.6695 31.2973 34.057 31.3477C33.8533 30.8315 33.6871 30.4102 33.5115 29.9666C33.7164 29.6857 33.92 29.4071 34.1787 29.0525C34.4748 29.8449 34.7417 30.5612 35.0167 31.2973C35.7237 31.3383 36.4154 31.3793 37.2078 31.4261C36.9585 31.7725 36.7619 32.0464 36.5442 32.3484Z" fill="black"/>
<path d="M12.9385 17.6398C12.6518 16.831 12.4001 16.1229 12.1309 15.3621C11.7798 15.3481 11.4158 15.3376 11.0529 15.3165C10.7088 15.2966 10.3659 15.2662 9.9375 15.2334C10.2114 14.8776 10.4303 14.5932 10.6409 14.3193C11.0775 14.3673 11.4766 14.4106 11.939 14.4609C11.8079 14.1344 11.7119 13.8476 11.5773 13.5796C11.4567 13.3408 11.4591 13.1477 11.6428 12.9464C11.7973 12.7779 11.9308 12.5906 12.1251 12.3472C12.3826 13.0599 12.6155 13.706 12.8625 14.3907C13.635 14.4457 14.4028 14.5007 15.2151 14.5592C15.0407 14.9314 14.7843 15.2077 14.5257 15.5085C14.0704 15.4605 13.6174 15.4136 13.1047 15.3598C13.2487 15.7285 13.3587 16.0527 13.5004 16.3629C13.6092 16.6004 13.6115 16.8006 13.4336 17.0042C13.2826 17.1775 13.1504 17.3659 12.9397 17.6386L12.9385 17.6398Z" fill="black"/>
<path d="M25.5557 10.8091C25.5382 11.0584 25.5206 11.2995 25.4984 11.6109C24.5527 11.5676 23.6538 11.5266 22.7373 11.4845C22.7233 11.3545 22.7069 11.2808 22.7092 11.2071C22.7525 10.0472 22.7993 8.88615 22.8462 7.6853H23.8071V10.6219C24.3677 10.7775 24.9682 10.5645 25.5569 10.8091H25.5557Z" fill="black"/>
<path d="M24.5483 35.4266C24.512 36.6977 24.4757 37.9324 24.4394 39.1988H23.4516V36.2307H21.7895C21.6409 35.9135 21.7427 35.6513 21.7404 35.3962C22.2331 35.2721 23.6435 35.2838 24.5471 35.4278L24.5483 35.4266Z" fill="black"/>
<path d="M20.118 34.8518C20.4727 34.9454 20.7489 35.018 21.0907 35.1081C20.784 36.3534 20.4867 37.5648 20.1765 38.823C19.8336 38.7446 19.5398 38.6767 19.1934 38.5971C19.5035 37.3413 19.802 36.1276 20.1168 34.8518H20.118Z" fill="black"/>
<path d="M27.1208 8.08813C27.4777 8.19347 27.7516 8.27423 28.0911 8.37489C27.7587 9.61318 27.4344 10.8175 27.0938 12.0839C26.7638 11.9879 26.477 11.906 26.1235 11.803C26.4571 10.5589 26.7802 9.35452 27.1208 8.08813Z" fill="black"/>
<path d="M39.0112 20.3493C38.5185 20.4453 38.3909 20.2943 38.4845 19.681C38.7338 19.681 39.0007 19.2854 39.2395 19.7478C39.0885 19.9093 38.9375 20.0696 38.7573 20.2616C38.8556 20.2955 38.9328 20.3224 39.0112 20.3493Z" fill="black"/>
<path d="M8.08439 27.5404C8.14174 27.7826 8.3255 27.6949 8.47649 27.6914C8.26112 27.8751 8.05161 27.833 7.88307 27.6387C7.73793 27.4713 7.68409 27.277 7.89711 27.105C7.86668 27.2735 7.77539 27.4678 8.06566 27.4994L8.08439 27.5404Z" fill="black"/>
<path d="M8.08465 27.5403L8.06592 27.4993C7.94654 27.2793 8.12562 27.2395 8.26958 27.1716C8.31523 27.2512 8.36205 27.3308 8.44632 27.4771C8.30938 27.5005 8.19584 27.5204 8.08348 27.5403H8.08465Z" fill="black"/>
</g>
<defs>
<clipPath id="clip0_771_40443">
<rect width="35" height="35" fill="white" transform="translate(6 6)"/>
</clipPath>
</defs>
</svg>
