<svg width="48" height="48" viewBox="0 0 48 48" fill="none" xmlns="http://www.w3.org/2000/svg">
<g clip-path="url(#clip0_26_72983)">
<path d="M32.9618 8.0022C33.5151 8.0022 33.9624 8.44479 33.9624 8.99216V38.9794C33.9624 39.5263 33.5151 39.9693 32.9618 39.9693H15.0427C14.49 39.9693 14.0425 39.5263 14.0425 38.9794V8.99216C14.0425 8.44479 14.49 8.0022 15.0427 8.0022H32.9618Z" fill="white"/>
<path d="M14.4316 12.4475H33.5868V38.9194C33.5868 39.1396 33.5492 39.2757 33.4007 39.4233C33.2396 39.5835 33.0982 39.5979 32.843 39.5979L15.0036 39.5996C14.863 39.5996 14.7552 39.5548 14.6388 39.4564C14.4947 39.3329 14.4316 39.179 14.4316 39.0161V12.4475Z" fill="#FFF200"/>
<path d="M33.5868 11.1157H14.4316V12.4757H33.5868V11.1157Z" fill="#ED1C24"/>
<path d="M33.5868 9.75293H14.4316V11.113H33.5868V9.75293Z" fill="white"/>
<path d="M14.9731 8.36963H33.0328C33.322 8.36963 33.5887 8.64844 33.5887 8.92055V9.78874H14.4316L14.4334 9.02522V8.96169C14.4334 8.65385 14.6706 8.40006 14.9731 8.36963Z" fill="#009A4E"/>
<path d="M32.9618 8.0022C33.5151 8.0022 33.9624 8.44479 33.9624 8.99216V38.9794C33.9624 39.5263 33.5151 39.9693 32.9618 39.9693H15.0427C14.49 39.9693 14.0425 39.5263 14.0425 38.9794V8.99216C14.0425 8.44479 14.49 8.0022 15.0427 8.0022H32.9618ZM32.9618 8.39737H15.0427C14.7106 8.39737 14.4421 8.66407 14.4421 8.99216V38.9794C14.4421 39.3079 14.7106 39.5728 15.0427 39.5728H32.9618C33.294 39.5728 33.5624 39.3079 33.5624 38.9794V8.99216C33.5624 8.66413 33.294 8.39737 32.9618 8.39737Z" fill="black"/>
<path d="M23.6502 14.1277C23.6502 14.1277 23.6381 14.2431 23.6118 14.3107C23.5858 14.3733 23.5182 14.4155 23.5227 14.4575C23.5272 14.4987 23.571 14.5483 23.639 14.5827C23.7057 14.6176 23.7325 14.6445 23.801 14.662C23.8645 14.6777 23.9451 14.7242 23.9679 14.6709C23.9908 14.6168 23.9564 14.551 23.9178 14.4879C23.8507 14.3778 23.8167 14.3509 23.7178 14.1997C23.6968 14.1671 23.6802 14.1321 23.6502 14.1277Z" fill="black"/>
<path d="M23.1483 26.0208C23.155 26.0011 23.3134 26.1014 23.3957 26.1498C23.569 26.2536 23.6468 26.3153 23.7999 26.4298C23.9212 26.5221 23.9798 26.5695 24.1016 26.6742C24.251 26.8031 24.3315 26.9132 24.3719 26.8881C24.43 26.8183 24.2766 26.6142 24.1409 26.5033C24.0089 26.3941 23.8724 26.3055 23.7672 26.2366C23.6316 26.1461 23.6195 26.1256 23.4168 25.9895C23.1989 25.8436 23.0109 25.6602 23.0109 25.6602L22.7992 25.4937L22.4676 25.214L22.0989 24.8743L21.8205 24.5641C21.8205 24.5641 21.6039 24.2992 21.5695 24.2481C21.5346 24.1976 21.4325 24.0337 21.3484 23.8951C21.2732 23.7706 21.1274 23.5774 21.1139 23.5608C21.0351 23.4654 20.8552 23.5039 20.6462 23.3809C20.3925 23.231 20.3311 23.094 20.3311 23.094C20.3311 23.094 20.3217 23.0739 20.3119 23.0632C20.3025 23.0519 20.2833 23.0381 20.2833 23.0381L20.1503 22.9455L20.0742 22.8953C20.0742 22.8953 20.0165 22.8474 19.944 22.8165C19.871 22.7843 19.7086 22.6899 19.7086 22.6899L19.4181 22.5046C19.4181 22.5046 19.3045 22.4133 19.2669 22.3829C19.2284 22.3538 19.1568 22.3122 19.1568 22.3122C19.1568 22.3122 19.1111 22.2893 19.0973 22.2885C19.0834 22.2875 19.023 22.2822 19.023 22.2822C19.023 22.2822 18.9671 22.2674 18.9102 22.3341C18.8534 22.4013 18.8673 22.3654 18.9599 22.7432C18.9966 22.8917 18.993 23.4158 19.0324 23.5755C19.0825 23.7805 19.2266 24.0454 19.2414 24.0767C19.2558 24.1076 19.266 24.2222 19.266 24.2222C19.266 24.2222 19.2598 24.3149 19.2696 24.3735C19.3135 24.6442 19.7095 24.4661 19.7969 24.8376C19.8828 25.2041 19.7454 25.5697 19.7454 25.5697C19.7454 25.5697 19.6603 25.7515 19.5399 25.7801C19.42 25.8079 19.2338 25.5421 19.0991 25.3268C18.9663 25.1151 18.8575 24.8376 18.8226 24.7494C18.7877 24.6612 18.7693 24.642 18.729 24.578C18.6695 24.4827 18.6216 24.5002 18.555 24.3498C18.4878 24.1994 18.5473 24.139 18.5174 24.0079C18.4999 23.9354 18.4843 23.9273 18.4615 23.8235C18.4395 23.7201 18.41 23.3912 18.41 23.3912L18.3679 23.0851C18.3679 23.0851 18.3531 22.9455 18.3339 22.8577C18.2673 22.5516 18.244 22.2554 18.244 22.2554L18.2315 22.1336L18.227 22.0079C18.227 22.0079 18.223 21.9475 18.2378 21.8853C18.2525 21.8231 18.2826 21.7716 18.2826 21.7716C18.2826 21.7716 18.3443 21.6682 18.3551 21.6423C18.3653 21.6177 18.4915 21.4709 18.4915 21.4709C18.4915 21.4709 18.5578 21.4159 18.6656 21.3501C18.774 21.2842 18.8711 21.2887 18.8711 21.2887C18.8711 21.2887 18.8997 21.2861 19.0913 21.3098C19.2828 21.3335 19.6767 21.4382 19.776 21.4637C19.874 21.4902 19.9913 21.5313 20.0673 21.5738C20.2862 21.6929 20.3524 21.6424 20.1784 21.5059C20.0611 21.4141 20.028 21.3729 19.9335 21.287C19.8538 21.2136 19.7912 21.1648 19.7317 21.0973C19.6722 21.0283 19.5026 20.7782 19.5026 20.7782L19.3965 20.6216C19.3965 20.6216 19.3397 20.5571 19.3302 20.5526C19.3213 20.5473 19.2927 20.5253 19.2927 20.5253C19.2927 20.5253 19.2224 20.5289 19.1499 20.515C19.0765 20.5002 19.0425 20.6032 19.0425 20.6032C19.0425 20.6032 18.8849 20.8972 18.7247 21.0772C18.4652 21.3694 18.279 21.5681 18.1837 21.7238C18.0499 21.9395 18.0794 22.1759 18.0105 22.285C17.9702 22.349 17.9483 22.3585 17.9264 22.4144C17.8592 22.584 18.1031 22.6771 18.0472 22.865C17.9581 23.1631 17.26 23.458 17.1673 23.4088C17.0711 23.3582 17.1499 22.955 17.1821 22.8247C17.2152 22.6936 17.3132 22.5003 17.3222 22.4905C17.3307 22.481 17.3544 22.4354 17.3615 22.3969C17.3692 22.3585 17.3718 22.2712 17.3763 22.2228C17.3808 22.174 17.4009 22.0971 17.4009 22.0971C17.4009 22.0971 17.4036 22.0805 17.4653 21.9468C17.5275 21.8121 17.7549 21.4988 17.9178 21.1998C18.0252 21.0047 18.07 20.8866 18.1774 20.691C18.2763 20.5115 18.4459 20.2376 18.4459 20.2376C18.4459 20.2376 18.5174 20.098 18.551 20.0461C18.585 19.9928 18.6566 19.8921 18.7237 19.7928C18.7914 19.6938 18.8079 19.6196 18.896 19.5381C18.969 19.4701 19.0187 19.4338 19.114 19.4034C19.2558 19.3564 19.353 19.3815 19.498 19.4218C19.6483 19.4629 19.7517 19.5319 19.8502 19.6133C19.9482 19.6957 20.0211 19.7865 20.0211 19.7865L20.069 19.8572L20.0985 19.8747L20.1899 19.9333L20.3989 20.0716C20.3989 20.0716 20.8947 20.409 20.9225 20.4273C20.9489 20.4448 21.0379 20.5178 21.0554 20.5236C21.0738 20.5289 21.2058 20.3857 21.4649 20.2072C21.7647 19.9991 21.8708 20.0147 21.9702 19.9606C22.0682 19.9064 22.1085 19.8617 22.1855 19.7847C22.3019 19.6684 22.3027 19.6062 22.4348 19.4437C22.5677 19.2817 22.6921 19.1909 22.6921 19.1909C22.6921 19.1909 22.7104 19.1725 22.9472 18.9049C23.1835 18.6382 23.2882 18.4363 23.2882 18.4363L23.418 18.1763C23.418 18.1763 23.606 17.7722 23.6664 17.6124C23.7273 17.4522 23.7273 17.3989 23.7273 17.3989C23.7273 17.3989 23.7362 17.3569 23.6906 17.2754C23.6435 17.1944 23.5952 17.2311 23.5052 17.2495C23.333 17.2862 23.2282 17.2414 23.0542 17.211C22.8949 17.1845 22.8116 17.1367 22.6518 17.1103C22.4899 17.083 22.3954 17.0562 22.2329 17.0718C22.2083 17.0745 22.1587 17.0848 22.1349 17.0928C22.0431 17.1233 22.0177 17.1304 21.9496 17.1698C21.8709 17.2065 21.819 17.2182 21.7317 17.2204C21.6712 17.2222 21.6346 17.224 21.5787 17.202C21.5402 17.1873 21.5182 17.1761 21.4878 17.1488C21.4695 17.1322 21.4596 17.1215 21.4457 17.1C21.444 17.083 21.4386 17.0839 21.4552 17.0562C21.4713 17.028 21.4914 17.023 21.4914 17.023L21.5657 17.0047C21.5657 17.0047 21.6704 16.9774 21.6803 16.9747C21.6897 16.972 21.7895 16.9398 21.8333 16.9259C21.8776 16.9121 21.926 16.8865 21.926 16.8865C21.926 16.8865 21.9528 16.8436 21.9425 16.819C21.9295 16.7912 21.87 16.7885 21.87 16.7885C21.87 16.7885 21.7867 16.819 21.7774 16.8216C21.7684 16.8234 21.6355 16.8655 21.6355 16.8655C21.6355 16.8655 21.5312 16.8883 21.4502 16.9075C21.3688 16.9258 21.2524 16.9353 21.2524 16.9353L21.2175 16.9258C21.2175 16.9258 21.1781 16.8994 21.1719 16.8717C21.166 16.8471 21.1624 16.8287 21.158 16.8006C21.1405 16.6976 21.1195 16.6354 21.1441 16.5339C21.1535 16.4913 21.1634 16.4676 21.1817 16.4283C21.1973 16.3956 21.2076 16.3768 21.2278 16.3459L21.2918 16.2412L21.4127 16.0626C21.4543 16.0205 21.4816 15.9995 21.5339 15.97C21.6109 15.927 21.6556 15.9149 21.7519 15.9042C21.8463 15.8939 21.8593 15.8948 21.9931 15.8648C22.1278 15.8344 22.2232 15.7811 22.2232 15.7811C22.2232 15.7811 22.545 15.663 22.7409 15.5667C22.9463 15.4661 23.0358 15.3586 23.2484 15.2754C23.3384 15.2405 23.3907 15.2239 23.4834 15.2002C23.495 15.1926 23.5008 15.1855 23.5044 15.1716C23.5134 15.138 23.4615 15.1223 23.4257 15.1259C23.3934 15.1286 23.3201 15.1626 23.3035 15.1259C23.2909 15.0977 23.3706 15.0811 23.3706 15.0811C23.3706 15.0811 23.4081 15.0637 23.4091 15.0427C23.41 15.0104 23.355 15.0314 23.3303 15.0288C23.2054 15.0149 23.1956 14.9921 23.1092 14.9711C23.0076 14.9456 22.9526 14.9142 22.847 14.9097C22.7539 14.9061 22.6666 14.9258 22.608 14.9397C22.5503 14.9545 22.5485 14.8976 22.5713 14.8865C22.7347 14.8104 22.7382 14.8041 22.8537 14.7987C22.9168 14.796 23.005 14.8095 23.0148 14.8144C23.0243 14.8197 23.1505 14.8135 23.1827 14.7804C23.2158 14.7482 23.0793 14.75 23.0148 14.7244C22.9554 14.7007 22.8645 14.6941 22.8663 14.6546C22.8694 14.6152 22.9133 14.6372 22.9446 14.6291C22.9839 14.6197 23.0068 14.6206 23.0471 14.6153C23.1196 14.6054 23.1258 14.5987 23.2332 14.5898C23.3393 14.5795 23.4924 14.6247 23.4924 14.6247C23.4924 14.6247 23.653 14.6959 23.7318 14.7335C23.8106 14.7702 23.9059 14.7894 23.9059 14.7894C23.9059 14.7894 24.0177 14.8051 24.1028 14.7518C24.1892 14.699 24.1404 14.6641 24.1104 14.6153C24.0808 14.5697 24.0433 14.5034 24.0983 14.3781C24.1471 14.2689 24.1726 14.1414 24.1865 14.1297C24.204 14.1159 24.2716 14.2139 24.3154 14.2542C24.4725 14.401 24.6802 14.4735 24.8762 14.7805C24.8914 14.8051 24.9639 14.7657 25.1912 14.8006C25.4186 14.8355 25.6173 15.0789 25.6675 15.1372C25.7194 15.1958 25.7865 15.1926 25.7865 15.1926L25.8957 15.2074L26.2922 15.2141C26.2922 15.2141 26.4721 15.1818 26.5759 15.2213C26.6484 15.2486 26.8901 15.4102 26.78 15.4714C26.703 15.5144 26.6305 15.42 26.5607 15.4155C26.4783 15.4102 26.4426 15.4258 26.3691 15.4441C26.2152 15.4826 25.8849 15.5824 26.0049 15.6227C26.0138 15.6262 26.0308 15.6289 26.0308 15.6289L26.0899 15.6392C26.0899 15.6392 26.2349 15.6723 26.3226 15.7068C26.455 15.7591 26.5177 15.8169 26.6394 15.8885C26.7092 15.9287 26.7397 15.969 26.8157 15.9919C26.8856 16.012 26.9303 15.9919 27.0019 16.004C27.0959 16.0205 27.1486 16.0398 27.2346 16.0809C27.3626 16.1423 27.4091 16.2166 27.5237 16.2989C27.581 16.3405 27.6293 16.3468 27.6723 16.4027C27.6822 16.4152 27.6903 16.422 27.6947 16.4367C27.71 16.4877 27.6106 16.4577 27.5578 16.4493C27.4996 16.4394 27.4755 16.4108 27.4218 16.3862C27.3421 16.3486 27.3045 16.3074 27.2177 16.2917C27.155 16.2796 27.1174 16.289 27.053 16.2926C26.9903 16.2953 26.9572 16.3047 26.8945 16.3056C26.788 16.3074 26.7281 16.298 26.6233 16.276C26.506 16.2515 26.4479 16.2058 26.3315 16.1816C26.1999 16.1543 25.9673 16.0415 25.9896 16.1543C26.0012 16.2085 26.1248 16.2541 26.1248 16.2541C26.1248 16.2541 26.2098 16.2998 26.2904 16.3355C26.3709 16.3704 26.4156 16.4237 26.4156 16.4237L26.4711 16.4649C26.4711 16.4649 26.5284 16.5437 26.6036 16.6327C26.677 16.7205 26.8076 16.7177 26.8076 16.7177C26.8076 16.7177 26.8864 16.7177 27.0564 16.7526C27.2256 16.7876 27.4002 16.8922 27.4002 16.8922C27.4002 16.8922 27.5317 16.9826 27.6087 17.0735C27.6848 17.1644 27.6409 17.21 27.6311 17.2194C27.6222 17.2292 27.6257 17.2247 27.615 17.2292C27.6061 17.2337 27.5112 17.1146 27.5112 17.1146L27.4432 17.0569C27.4432 17.0569 27.3769 17.0104 27.291 16.9826C27.2051 16.9553 27.1764 16.9737 27.1764 16.9737C27.1764 16.9737 26.9938 17.0247 26.8345 17.0202C26.677 17.0157 26.5946 16.9526 26.5946 16.9526L26.4944 16.8855C26.4944 16.8855 26.344 16.7445 26.3386 16.8112C26.335 16.8564 26.4049 16.9065 26.4049 16.9065C26.4049 16.9065 26.4532 16.9553 26.4854 16.9862C26.5463 17.0462 26.5714 17.0762 26.6412 17.1383C26.711 17.201 26.7539 17.201 26.7539 17.201C26.7539 17.201 26.7915 17.21 26.8058 17.2127C26.8202 17.2154 26.8453 17.2221 26.8453 17.2221C26.8453 17.2221 26.8686 17.2311 26.9777 17.2754C27.086 17.3192 27.2033 17.4146 27.2033 17.4146C27.2033 17.4146 27.214 17.4235 27.2302 17.4267C27.2462 17.4285 27.2785 17.4446 27.2874 17.4473C27.2972 17.4495 27.325 17.4495 27.3877 17.4584C27.4513 17.4679 27.427 17.5081 27.427 17.5081L27.4163 17.5233L27.3643 17.5582C27.3643 17.5582 27.2972 17.5775 27.2516 17.5797C27.205 17.5824 27.1388 17.5565 27.1388 17.5565L26.9983 17.5037C26.9983 17.5037 26.856 17.4661 26.8255 17.4611C26.7951 17.4566 26.668 17.4312 26.6465 17.4267C26.6259 17.4218 26.5624 17.3989 26.5454 17.3891C26.5284 17.3797 26.4971 17.3734 26.4201 17.3359C26.344 17.2983 26.3136 17.2549 26.2187 17.2248C26.123 17.1944 26.0648 17.1882 25.9932 17.2379C25.8696 17.3229 26.1793 17.3368 26.3333 17.4137C26.5607 17.5256 26.6886 17.6079 26.7423 17.7288C26.7969 17.8501 26.8515 17.8939 26.8515 17.8939C26.8515 17.8939 27.0117 17.9745 27.0833 18.0591C27.1227 18.1047 27.1281 18.1423 27.1674 18.1879C27.2551 18.2909 27.4252 18.285 27.4593 18.3723C27.4915 18.4537 27.3214 18.417 27.2328 18.409C27.0735 18.3933 27.035 18.2474 26.8864 18.1888C26.8023 18.1552 26.7486 18.1552 26.6626 18.1257C26.506 18.0742 26.4326 18.0067 26.2759 17.9579C26.181 17.9288 26.0092 17.804 26.0307 17.9002C26.0342 17.9234 26.0485 17.9414 26.0548 17.9553C26.0629 17.9691 26.1023 18.0201 26.1023 18.0201C26.1023 18.0201 26.155 18.09 26.1792 18.1083C26.2016 18.1276 26.3027 18.2036 26.4477 18.2824C26.5909 18.3612 26.7162 18.5125 26.7162 18.5125C26.7162 18.5125 26.7592 18.5743 26.7798 18.6173C26.8012 18.6656 26.786 18.6803 26.82 18.7475C26.8513 18.8141 26.8666 18.8271 26.9095 18.8683C27.0151 18.9699 27.1261 18.9497 27.2604 19.0048C27.2971 19.0205 27.2997 19.0258 27.3391 19.0679C27.3785 19.1095 27.3319 19.1273 27.3319 19.1273C27.3319 19.1273 27.1825 19.1658 27.0858 19.1578C26.9605 19.1479 26.9041 19.1094 26.7824 19.0486C26.6589 18.9882 26.5945 18.8794 26.582 18.8727C26.5712 18.8655 26.5408 18.8333 26.5175 18.8168C26.4943 18.8002 26.4342 18.7877 26.3805 18.7729C26.326 18.7582 26.2955 18.7554 26.241 18.7407C26.1667 18.7196 26.0896 18.687 26.0547 18.6758C26.0198 18.6637 25.9402 18.6494 25.882 18.6838C25.7656 18.7528 26.0627 18.7992 26.155 18.8982C26.2024 18.9479 26.222 18.9828 26.2668 19.0352C26.3009 19.0754 26.3152 19.1037 26.3573 19.135C26.3859 19.156 26.4387 19.1788 26.4387 19.1788C26.4387 19.1788 26.5103 19.2119 26.615 19.2696C26.7197 19.3274 26.8423 19.4907 26.8423 19.4907L26.9166 19.6044L26.9605 19.6692L26.9721 19.6993L26.9882 19.7359C26.9882 19.7359 27.0419 19.8057 27.0813 19.8285C27.1207 19.8523 27.1135 19.8729 27.1135 19.8729C27.1135 19.8729 27.1091 19.8872 27.0813 19.9029C27.0545 19.9195 27.0392 19.9056 26.9999 19.8939C26.9605 19.8828 26.9345 19.8452 26.9006 19.8178C26.8647 19.7892 26.8271 19.7199 26.7636 19.6805C26.7072 19.6465 26.6339 19.6344 26.6052 19.6254C26.5774 19.6152 26.5076 19.5713 26.4798 19.5592C26.453 19.5485 26.3805 19.5153 26.3805 19.5153C26.3805 19.5153 26.241 19.4375 26.1639 19.4165C26.0869 19.395 26.1361 19.442 26.1361 19.442C26.1361 19.442 26.2051 19.5494 26.2713 19.5923C26.3573 19.6492 26.478 19.6993 26.4387 19.7453C26.4118 19.7754 26.376 19.7646 26.3366 19.7601C26.2722 19.7526 26.1943 19.6755 26.1943 19.6755C26.1943 19.6755 26.1621 19.6545 26.018 19.6088C25.8748 19.5618 25.9276 19.6406 25.9607 19.6831C25.993 19.7243 26.0369 19.748 26.0369 19.748L26.1344 19.7919L26.1792 19.8057C26.1792 19.8057 26.2186 19.8129 26.3484 19.8433C26.4781 19.8729 26.5498 19.936 26.5498 19.936C26.5498 19.936 26.6195 20.0009 26.7162 20.0725C26.8146 20.145 26.9113 20.1634 26.965 20.1705C27.0187 20.1772 27.0169 20.2148 27.0169 20.2148C27.0169 20.2148 27.0241 20.2493 27.0206 20.2605C27.0188 20.2721 27.0072 20.2815 26.9955 20.2815C26.9847 20.2815 26.9794 20.286 26.9651 20.2936C26.9508 20.3008 26.8953 20.3098 26.8953 20.3098C26.8953 20.3098 26.7503 20.3053 26.6357 20.2771C26.523 20.2493 26.4227 20.1705 26.4119 20.1661C26.403 20.1616 26.2973 20.103 26.224 20.0798C26.1533 20.056 26.0396 20.0663 26.027 20.0708C26.0154 20.0753 25.976 20.0816 25.9089 20.1012C25.8409 20.1192 25.9259 20.145 25.9259 20.145L25.9742 20.1495L26.0897 20.1585C26.0897 20.1585 26.2097 20.1723 26.3108 20.2099C26.4119 20.2466 26.4782 20.3209 26.5453 20.3889C26.6124 20.4556 26.6867 20.4995 26.6867 20.4995L26.7404 20.5344L26.7682 20.5554L26.7754 20.5737C26.7754 20.5737 26.7727 20.5832 26.7682 20.5947C26.7637 20.6068 26.7467 20.6157 26.7467 20.6157C26.7467 20.6157 26.7217 20.6113 26.7109 20.6113C26.6984 20.6113 26.6223 20.571 26.566 20.5464C26.5078 20.5209 26.4782 20.4967 26.4156 20.4815C26.3619 20.4685 26.2903 20.4627 26.2741 20.4676C26.2581 20.4721 26.1398 20.4887 26.0485 20.4949C25.9573 20.5021 25.8785 20.5034 25.7711 20.4904C25.6181 20.4721 25.4149 20.3512 25.3889 20.3848C25.3361 20.4555 25.4972 20.4756 25.576 20.5208C25.6834 20.583 25.8696 20.639 25.8696 20.639C25.8696 20.639 26.0056 20.669 26.0853 20.7066C26.2598 20.7876 26.3126 20.9075 26.4531 21.0337C26.5301 21.1044 26.5928 21.1348 26.6966 21.1501C26.7861 21.1631 26.7843 21.1524 26.9257 21.1246C27.068 21.0964 27.154 20.9617 27.1951 21.011C27.2032 21.0204 27.1996 21.0293 27.1978 21.0432C27.1951 21.057 27.1836 21.0826 27.1836 21.0826C27.1836 21.0826 27.1674 21.1054 27.1424 21.1313C27.1164 21.1568 27.0188 21.2101 26.9678 21.2311C26.9168 21.2522 26.7915 21.2871 26.634 21.2822C26.4764 21.2777 26.2545 21.1568 26.2545 21.1568L26.0952 21.0897C26.0952 21.0897 26.0218 21.0552 25.9717 21.0365C25.8392 20.9863 25.7551 20.9908 25.619 20.955C25.5349 20.9322 25.4794 20.9085 25.4033 20.8928C25.3263 20.8763 25.3702 20.9067 25.3774 20.9174C25.4131 20.9662 25.4614 20.9818 25.5224 21.01C25.6029 21.0494 25.6593 21.0414 25.7416 21.0763C25.8339 21.1135 25.9144 21.1658 25.9655 21.199C26.0156 21.2312 26.0532 21.2679 26.1024 21.3189L26.2716 21.4639C26.2716 21.4639 26.3109 21.4961 26.3154 21.5096C26.3198 21.5235 26.3386 21.5583 26.3297 21.6143C26.3198 21.6703 26.2742 21.6309 26.2742 21.6309L26.2295 21.6023L26.1847 21.5611L26.1139 21.5025C26.1139 21.5025 26.0531 21.4474 25.9484 21.3942C25.8446 21.34 25.7192 21.3265 25.7192 21.3265C25.7192 21.3265 25.6082 21.31 25.6118 21.3449C25.6172 21.3794 25.6421 21.3825 25.7299 21.4053C25.8185 21.4282 25.8767 21.4729 25.8767 21.4729C25.8767 21.4729 25.9672 21.5401 26.0324 21.6143C26.0968 21.6887 26.1157 21.7607 26.1157 21.7607C26.1157 21.7607 26.1488 21.8216 26.2321 21.9021C26.3153 21.9835 26.3592 21.9553 26.3546 21.9948C26.3502 22.0342 26.3134 22.0413 26.3134 22.0413C26.3134 22.0413 26.292 22.0394 26.2831 22.0394C26.2741 22.0394 26.2526 22.0274 26.2294 22.0184C26.2061 22.0095 26.1184 21.9486 26.1184 21.9486C26.1184 21.9486 25.9806 21.8368 25.9653 21.826C25.9483 21.8139 25.8186 21.7168 25.8186 21.7168C25.8186 21.7168 25.7416 21.6676 25.6869 21.6399C25.6306 21.6126 25.5563 21.5839 25.5142 21.57C25.4731 21.5566 25.396 21.5521 25.396 21.5521C25.396 21.5521 25.3039 21.5383 25.2475 21.5172C25.1589 21.4832 25.0559 21.3887 25.0443 21.3843C25.0318 21.3794 24.9494 21.3512 24.9333 21.3538C24.9173 21.3556 24.8796 21.5114 24.8707 21.6013C24.8331 21.9782 24.9333 22.2283 25.0891 22.5738C25.3137 23.076 25.9393 23.7002 25.9393 23.7002C25.9393 23.7002 26.0969 23.7893 26.1632 23.8426C26.3502 23.9889 26.6599 24.1961 26.9347 24.47C27.1692 24.7049 27.4808 25.1216 27.4808 25.1216C27.4808 25.1216 27.6615 25.3731 27.7457 25.5512C27.8477 25.7696 27.9301 26.1026 27.9301 26.1026C27.9301 26.1026 27.9372 26.1599 27.9426 26.1725C27.9498 26.184 27.9658 26.1993 27.9766 26.1993L28.0858 26.2029C28.0965 26.2029 28.2209 26.194 28.3033 26.1733C28.3848 26.1527 28.5781 26.0641 28.707 25.997C28.8341 25.929 28.9871 25.8001 28.9871 25.8001C28.9871 25.8001 29.0166 25.775 29.1653 25.6086C29.3157 25.4421 29.4123 25.1924 29.449 25.0979C29.4848 25.0045 29.5144 24.8241 29.5359 24.5161C29.5591 24.207 29.5171 23.8811 29.5171 23.8811C29.5171 23.8811 29.4607 23.4264 29.4266 23.2715C29.3926 23.1176 29.3103 22.8652 29.3103 22.8652C29.3103 22.8652 29.253 22.6406 29.2351 22.4987C29.2163 22.3568 29.2136 22.1259 29.2136 22.1259C29.2136 22.1259 29.2136 21.9845 29.2592 21.7232C29.3067 21.4632 29.466 21.2009 29.466 21.2009C29.466 21.2009 29.5108 21.1127 29.6827 20.9068C29.859 20.696 29.9153 20.6629 30.089 20.5371C30.2269 20.4382 30.4049 20.2789 30.4632 20.3165C30.5276 20.3568 30.4004 20.4374 30.3575 20.4794C30.2492 20.5868 30.047 20.7766 29.8831 21.0625C29.74 21.31 29.6862 21.4738 29.6505 21.6354C29.6146 21.7965 29.6299 21.9737 29.6344 22.0342C29.6398 22.0946 29.6729 22.0727 29.6729 22.0727C29.6729 22.0727 30.021 21.7929 30.2099 21.5813C30.4149 21.3521 30.5974 20.9444 30.669 20.9409C30.7173 20.9377 30.7397 21.0469 30.7281 21.0975C30.6834 21.3092 30.6682 21.3356 30.5992 21.4761C30.5205 21.6372 30.4472 21.7088 30.3379 21.8574C30.2233 22.0132 30.1669 22.0727 30.0748 22.2789C29.9415 22.5757 30.0193 22.8048 30.0193 22.8048C30.0193 22.8048 30.0354 22.944 30.098 22.9422C30.2028 22.9386 30.4328 22.6481 30.5832 22.4105C30.6942 22.2364 30.7345 22.035 30.807 21.9294C30.8732 21.8359 30.9315 22.0816 30.9028 22.2266C30.8696 22.3988 30.7846 22.5537 30.5976 22.7976C30.415 23.0356 30.4203 23.2621 30.4203 23.2621C30.4203 23.2621 30.4015 23.3655 30.3863 23.5911C30.372 23.8157 30.4364 24.1568 30.4364 24.1568C30.4364 24.1568 30.4936 24.4418 30.5054 24.658C30.5162 24.8755 30.5089 25.3691 30.3057 25.7535C30.2252 25.9075 30.0524 26.1206 30.0524 26.1206C30.0524 26.1206 29.919 26.2575 29.8098 26.3371C29.7006 26.4168 29.4383 26.5413 29.4383 26.5413C29.4383 26.5413 29.2567 26.6039 29.2316 26.6093C29.2047 26.6164 29.1887 26.6388 29.1887 26.6388C29.1887 26.6388 29.2047 26.6737 29.2119 26.6881C29.2181 26.7024 29.2691 26.8276 29.2691 26.8276C29.2691 26.8276 29.3237 27.0049 29.3443 27.1454C29.3649 27.2859 29.3407 27.3182 29.3211 27.4256C29.3014 27.5286 29.2567 27.481 29.245 27.6833C29.2352 27.8624 29.3157 27.9518 29.3014 28.1524C29.2952 28.2401 29.1958 28.0414 29.1474 27.9573C29.0454 27.7746 29.0695 27.4936 29.0678 27.4238C29.065 27.354 29.0596 27.277 29.0337 27.1893C29.0024 27.0747 28.955 26.9861 28.9022 26.9163C28.8484 26.8474 28.7921 26.808 28.7733 26.8152C28.7545 26.8215 28.7527 26.8581 28.7527 26.876C28.7517 26.8958 28.7893 26.962 28.7974 26.9763C28.8072 26.9897 28.8744 27.1124 28.8744 27.1124C28.8744 27.1124 28.9039 27.2073 28.9155 27.3917C28.9272 27.5743 28.8708 27.8016 28.8708 27.8016C28.8708 27.8016 28.7973 28.0567 28.7204 28.2071C28.6344 28.3727 28.4438 28.5982 28.4438 28.5982C28.4438 28.5982 28.3069 28.7235 28.2039 28.9294C28.1028 29.1352 28.1896 29.2248 28.152 29.2516C28.1126 29.2776 28.032 29.1326 28.0106 29.035C27.99 28.9437 27.9998 28.9007 28.0374 28.7987C28.0723 28.7002 28.1547 28.5578 28.1547 28.5578L28.2773 28.3493C28.2773 28.3493 28.4259 28.0665 28.4725 27.8606C28.519 27.6566 28.4653 27.4292 28.4653 27.4292C28.4653 27.4292 28.4591 27.3541 28.4081 27.3576C28.3561 27.3603 28.3204 27.4051 28.2988 27.4597C28.2567 27.5724 28.3168 27.5519 28.2522 27.7398C28.2022 27.8875 28.1878 27.8678 28.161 27.9555C28.1287 28.0602 28.1117 28.1676 28.1136 28.233C28.1163 28.2974 28.0805 28.2706 28.0805 28.2706C28.0805 28.2706 28.0178 28.1542 28.0178 28.0093C28.0178 27.9305 28.0214 27.8857 28.0304 27.8069C28.0447 27.6807 28.0966 27.4874 28.0966 27.4874C28.0966 27.4874 28.1521 27.2968 28.1405 27.1231C28.1272 26.9477 28.0662 26.9155 28.0662 26.9155C28.0662 26.9155 28.0502 26.8922 27.9821 26.8958C27.915 26.9012 27.9186 27.022 27.9186 27.022C27.9186 27.022 27.898 27.1948 27.8712 27.3021C27.7969 27.5984 27.6975 27.7541 27.5221 28.0038C27.3628 28.2294 27.1471 28.4282 27.0387 28.5213C26.9313 28.6161 26.6001 28.8569 26.6001 28.8569L26.2117 29.1155C26.2117 29.1155 26.0577 29.2659 25.9879 29.4449C25.9163 29.6231 25.9199 29.7627 25.961 29.9265C26.0022 30.0912 26.0613 30.1663 26.0926 30.2128C26.123 30.2577 26.1831 30.3382 26.2027 30.4331C26.2152 30.4912 26.2063 30.5261 26.2099 30.5852C26.2136 30.6371 26.2206 30.6658 26.2188 30.7186C26.217 30.8009 26.2322 30.8591 26.1848 30.9262C26.1508 30.9772 26.0577 31.022 26.0577 31.022C26.0577 31.022 25.9521 31.0685 25.8894 31.107C25.2288 31.5053 24.9944 31.764 24.622 32.2079C24.5038 32.3502 24.5907 32.3413 24.4645 32.5096C24.3879 32.6099 24.2112 32.6099 24.1472 32.7297C24.0581 32.8935 24.3477 33.0547 24.0133 33.1988C23.5824 33.385 22.8408 33.2515 22.826 33.1934C22.7858 33.0341 22.971 32.8497 23.0368 32.7763C23.3384 32.4469 23.6079 32.4388 23.7068 32.1659C23.7283 32.1077 23.7198 32.0576 23.9601 31.8794C24.1288 31.755 24.8028 31.2475 25.0973 30.9092C25.1984 30.7928 25.2852 30.7159 25.3291 30.5905C25.3739 30.4634 25.2852 30.3838 25.2852 30.3838L25.1644 30.1868L24.9326 29.7724C24.9326 29.7724 24.835 29.5522 24.7822 29.4251C24.7276 29.298 24.6265 28.956 24.6265 28.956C24.6265 28.956 24.5522 28.6482 24.5396 28.4477C24.5173 28.0879 24.5665 27.8785 24.6614 27.5294C24.784 27.0765 25.0624 26.8867 25.1734 26.4374C25.2057 26.3067 25.2128 26.0829 25.1465 26.0937C25.0838 26.1053 25.0785 26.2816 25.0302 26.3998C24.8512 26.8456 24.6148 27.0407 24.4851 27.5025C24.3983 27.8149 24.3625 28.0002 24.3633 28.3242C24.3643 28.5094 24.3571 28.4755 24.4045 28.7968C24.4233 28.9149 24.4519 28.9784 24.4869 29.0939C24.5119 29.1763 24.5791 29.3302 24.5791 29.3302C24.5791 29.3302 24.6713 29.5334 24.7035 29.6757C24.7133 29.725 24.7259 29.7526 24.7222 29.8019C24.716 29.8869 24.7312 29.9049 24.6901 29.9818C24.639 30.0776 24.6703 30.134 24.5074 30.1697C24.3624 30.2001 24.0662 30.1035 24.0662 30.1035C24.0662 30.1035 22.8484 29.7347 22.0711 29.8412C21.9171 29.8618 21.8343 29.9182 21.6795 29.9155C21.5385 29.9137 21.4669 29.8036 21.3259 29.8457C21.2973 29.8538 21.2883 29.8743 21.2624 29.8914C21.0565 30.0346 21.214 30.2726 20.6717 30.1491C20.3387 30.073 19.9355 29.869 20.0053 29.741C20.0988 29.5709 20.2241 29.5432 20.4873 29.4348C20.7688 29.3203 21.1912 29.3525 21.2745 29.3471C21.3761 29.3391 21.522 29.2684 21.7036 29.2639C22.0178 29.2585 22.0737 29.2961 22.0737 29.2961L22.6072 29.3435L23.628 29.3561C23.628 29.3561 23.8106 29.3427 23.8831 29.3283C23.9565 29.3139 24.0142 29.1699 24.0544 29.1009C24.0939 29.033 24.0527 28.9327 24.0527 28.9327L24.0223 28.8852L23.9251 28.7286L23.7457 28.4261L23.5466 28.0287C23.5466 28.0287 23.4163 27.7521 23.347 27.5704C23.278 27.3896 23.2378 27.2876 23.1921 27.1006C23.1442 26.908 23.1147 26.7524 23.1084 26.5975C23.1009 26.3753 23.0861 26.2025 23.1483 26.0208Z" fill="black"/>
<path d="M29.7752 25.6519C29.99 25.3762 30.0107 25.1202 30.0232 24.7595C30.033 24.4973 29.9337 24.0932 29.9337 24.0932L29.9202 24.0636C29.9202 24.0636 29.8826 24.0148 29.8595 24.0793C29.863 24.1362 29.8702 24.1818 29.8702 24.1818L29.8827 24.7023C29.8827 24.7023 29.8666 24.9645 29.7772 25.2348C29.6268 25.6913 29.2276 25.8945 29.1694 26.0592C29.0699 26.3321 29.5184 25.984 29.7752 25.6519Z" fill="white"/>
<path d="M27.5236 26.4942C27.5236 26.4942 27.4359 26.5193 27.4341 26.606C27.4323 26.6929 27.4555 26.768 27.4528 26.8728C27.4511 27.0062 27.3285 27.1601 27.4072 27.2102C27.5424 27.2962 27.6587 26.6911 27.6176 26.6016C27.5764 26.512 27.5361 26.4932 27.5236 26.4942Z" fill="white"/>
<path d="M26.0074 30.6894C26.0074 30.6894 25.9823 30.6761 25.9331 30.6948C25.8848 30.7136 25.8883 30.7638 25.8883 30.7638C25.8883 30.7638 25.8785 30.8175 25.9179 30.8229C25.9573 30.8301 26.0217 30.7334 26.0217 30.7226C26.0217 30.7118 26.0074 30.6894 26.0074 30.6894Z" fill="white"/>
<path d="M24.5807 31.7036C24.5807 31.7036 24.5663 31.7179 24.5789 31.7277C24.5923 31.7394 24.6111 31.725 24.6111 31.725C24.6111 31.725 24.8572 31.5326 25.0031 31.3975C25.1571 31.2525 25.3791 31.0028 25.3791 31.0028C25.3791 31.0028 25.3943 30.984 25.3773 30.9678C25.3593 30.9517 25.3173 30.9767 25.2824 30.9929C25.252 31.009 25.2341 31.026 25.2109 31.0448C25.1894 31.0645 25.116 31.1397 25.116 31.1397L24.9262 31.3241L24.8062 31.4369L24.6899 31.5478L24.6415 31.6034C24.6415 31.6034 24.629 31.6248 24.6255 31.6302C24.6218 31.6364 24.6094 31.6525 24.6094 31.6525C24.6094 31.6525 24.5914 31.6696 24.5914 31.6749C24.5914 31.6794 24.586 31.6839 24.586 31.6893C24.5842 31.6964 24.5807 31.7036 24.5807 31.7036Z" fill="white"/>
<path d="M24.155 31.9827C24.155 31.9827 24.1286 31.9613 24.087 31.9818C24.0449 32.0042 24.0002 32.0614 23.9965 32.0677C23.9926 32.0758 23.9697 32.1062 23.9854 32.1331C24.0011 32.1599 24.0543 32.1205 24.0623 32.1188C24.07 32.1188 24.1394 32.0633 24.1394 32.0633C24.1394 32.0633 24.1796 32.0382 24.155 31.9827Z" fill="white"/>
<path d="M23.3399 32.808C23.3399 32.808 23.305 32.7436 23.2593 32.7705C23.2136 32.7973 23.1886 32.8063 23.1465 32.8644C23.1394 32.8742 23.0942 32.9325 23.0861 32.9477C23.078 32.962 23.0328 33.048 23.1246 33.0542C23.2821 33.0631 23.1787 32.962 23.2329 32.9226C23.2767 32.8922 23.3591 32.9003 23.36 32.868C23.3609 32.8358 23.3399 32.808 23.3399 32.808Z" fill="white"/>
<path d="M20.5475 29.5104C20.5475 29.5104 20.4531 29.5337 20.446 29.566C20.4383 29.5999 20.501 29.6322 20.5108 29.6339C20.522 29.6357 20.5431 29.6608 20.6061 29.6178C20.6683 29.5758 20.6656 29.54 20.6656 29.54C20.6656 29.54 20.7024 29.497 20.5475 29.5104Z" fill="white"/>
<path d="M22.0833 29.4605C22.0833 29.4605 22.0823 29.4256 22.0157 29.4301C21.9476 29.4337 21.9333 29.4462 21.9315 29.4569C21.9293 29.4668 21.9351 29.4838 21.9955 29.4891C22.0569 29.4928 22.0815 29.4891 22.0833 29.4605Z" fill="white"/>
<path d="M23.5358 29.5025C23.4136 29.5016 23.4521 29.5052 23.3769 29.5088C23.2404 29.5159 23.1661 29.5105 23.0314 29.5016C22.8425 29.4891 22.5503 29.4425 22.5503 29.4425C22.5503 29.4425 22.5136 29.4336 22.4988 29.4578C22.4854 29.4801 22.5346 29.532 22.5785 29.5455C22.8179 29.6198 22.8309 29.6073 22.9938 29.6099C23.0847 29.6108 23.1352 29.6018 23.2256 29.5965C23.3402 29.5876 23.3934 29.6054 23.5183 29.5723C23.5509 29.5642 23.5823 29.5034 23.5358 29.5025Z" fill="white"/>
<path d="M24.3537 29.2599C24.3537 29.2599 24.3291 29.2313 24.2784 29.2564C24.2284 29.2805 24.1979 29.3351 24.1979 29.3351C24.1979 29.3351 24.1742 29.3727 24.2248 29.3674C24.274 29.3602 24.3183 29.3387 24.3299 29.3316C24.3429 29.3243 24.3796 29.2903 24.3537 29.2599Z" fill="white"/>
<path d="M23.6415 19.4405C23.6415 19.4405 23.987 19.117 24.2345 18.6892C24.3812 18.4341 24.4452 17.8402 24.3191 17.9879C24.2622 18.0555 24.1933 18.3634 24.0841 18.5916C23.9283 18.9164 23.5958 19.3765 23.5958 19.3765C23.5958 19.3765 23.5243 19.5296 23.6415 19.4405Z" fill="white"/>
<path d="M22.2608 20.2628C22.2608 20.2628 22.224 20.2914 22.2406 20.3371C22.2581 20.3837 22.3284 20.3488 22.3284 20.3488C22.3284 20.3488 22.4881 20.2884 22.6555 20.2821C22.8233 20.2749 23.056 20.325 23.056 20.325C23.056 20.325 23.167 20.3554 23.1854 20.3626C23.2037 20.3702 23.2642 20.3993 23.2745 20.4029C23.2834 20.4069 23.3411 20.4351 23.3734 20.406C23.4056 20.3764 23.1715 20.1639 22.9326 20.1317C22.5347 20.0775 22.2734 20.2489 22.2734 20.2489L22.2608 20.2628Z" fill="white"/>
<path d="M20.6215 21.6641C20.6497 21.6883 20.7826 21.435 20.8936 21.2747C20.975 21.1575 21.1237 20.9615 21.1237 20.9615C21.1237 20.9615 21.1908 20.8716 21.0771 20.9217C21.0311 20.9423 20.9049 21.0385 20.8158 21.2153C20.7406 21.3656 20.592 21.6404 20.6215 21.6641Z" fill="white"/>
<path d="M19.7024 20.5635C19.7024 20.5635 19.6737 20.6615 19.7883 20.7841C19.9038 20.9072 19.9333 21.0087 20.0068 20.9354C20.0269 20.9152 19.9351 20.7496 19.8886 20.7036C19.8407 20.6579 19.8067 20.6203 19.8067 20.6203L19.7767 20.5957L19.7382 20.5742L19.7163 20.5653C19.7163 20.5653 19.7104 20.5599 19.7024 20.5635Z" fill="white"/>
<path d="M19.3299 19.6238C19.3299 19.6238 19.2055 19.6471 19.1751 19.7074C19.1442 19.7679 19.3182 19.7312 19.3182 19.7312C19.3182 19.7312 19.4337 19.7374 19.4364 19.6936C19.4391 19.6489 19.4217 19.6444 19.3299 19.6238Z" fill="white"/>
<path d="M17.3533 22.8995C17.2897 22.8812 17.279 23.0061 17.2705 23.0463C17.2633 23.0866 17.2991 23.1672 17.3139 23.1672C17.3282 23.1662 17.3787 23.0875 17.3814 23.0491C17.3842 23.0097 17.4092 22.917 17.3533 22.8995Z" fill="white"/>
<path d="M19.4064 25.3395C19.4064 25.3395 19.2927 25.2494 19.2752 25.2853C19.2582 25.3211 19.3688 25.479 19.3688 25.479C19.3688 25.479 19.4027 25.531 19.4551 25.5077C19.5065 25.4826 19.4882 25.4253 19.4882 25.4253C19.4882 25.4253 19.4533 25.352 19.4064 25.3395Z" fill="white"/>
<path d="M18.5492 22.7009C18.5492 22.7009 18.5202 22.6933 18.5099 22.7282C18.4991 22.7631 18.5 22.8199 18.4924 22.8888C18.4862 22.9426 18.5063 23.0858 18.5063 23.0858C18.5063 23.0858 18.5175 23.1994 18.5403 23.2671C18.5649 23.3413 18.6302 23.447 18.6302 23.447C18.6302 23.447 18.6548 23.5011 18.6853 23.4984C18.7152 23.4953 18.7081 23.4599 18.7081 23.4599C18.7081 23.4599 18.6128 23.0823 18.6101 23.0438C18.5989 22.918 18.5989 22.7649 18.5989 22.7649L18.598 22.7421C18.598 22.7421 18.5971 22.7018 18.5492 22.7009Z" fill="white"/>
<path d="M18.6978 21.5486C18.6978 21.5486 18.6454 21.5388 18.5972 21.6394C18.5484 21.7415 18.5587 21.7827 18.5631 21.7871C18.5667 21.7916 18.6052 21.7908 18.667 21.6963C18.7283 21.6028 18.7144 21.5669 18.7144 21.5669C18.7144 21.5669 18.7108 21.5486 18.6978 21.5486Z" fill="white"/>
<path d="M20.1381 22.5926C20.1381 22.5926 20.2012 22.687 20.0804 22.6651C19.9591 22.6432 19.7045 22.4422 19.6006 22.3881C19.4981 22.3339 19.3294 22.3169 19.4001 22.2534C19.4131 22.2426 19.4167 22.2323 19.4368 22.2315C19.4579 22.2305 19.5277 22.2578 19.5321 22.261C19.5357 22.2627 19.7151 22.337 19.7218 22.3388C19.7281 22.3415 19.8288 22.3845 19.9004 22.4265C19.972 22.469 20.0883 22.5504 20.0883 22.5504L20.1381 22.5926Z" fill="white"/>
<path d="M23.4948 25.4828C23.5279 25.5866 23.1126 25.2634 22.8902 25.092C22.3008 24.6382 21.5793 23.7078 21.6693 23.6255C21.7436 23.5579 22.0394 23.984 22.4731 24.4534C22.9367 24.9537 23.4755 25.421 23.4948 25.4828Z" fill="white"/>
<path d="M25.2287 25.0379C25.0998 25.1753 25.0542 25.3513 25.1284 25.4828C25.2009 25.6107 25.2233 25.2957 25.3039 25.2031C25.3737 25.122 25.4167 25.135 25.5312 25.0536C25.7264 24.9162 25.3916 24.863 25.2287 25.0379Z" fill="white"/>
<path d="M24.491 22.1012C24.4024 22.0868 24.405 22.2215 24.4175 22.3169C24.4767 22.7438 24.6683 23.0727 24.9241 23.3824C25.0799 23.5713 25.5069 23.9078 25.5561 23.8537C25.574 23.8344 25.1497 23.5064 24.8794 23.0849C24.6879 22.786 24.5858 22.5331 24.5617 22.2865C24.559 22.2551 24.5661 22.1133 24.491 22.1012Z" fill="white"/>
<path d="M22.838 15.7735C22.6456 15.8777 22.3117 15.9695 22.3117 15.9695C22.3117 15.9695 22.2965 16.0027 22.3395 15.9991C22.6255 15.9762 22.7346 15.9405 22.8868 15.8733C23.039 15.8076 23.1495 15.6249 23.1495 15.6249C23.1495 15.6249 23.2113 15.5112 23.0968 15.6048C23.0609 15.6334 22.9436 15.7158 22.838 15.7735Z" fill="white"/>
<path d="M25.1598 15.0402C25.1598 15.0402 25.0945 15.0258 25.0506 15.0531C25.0067 15.0809 25.0192 15.1028 25.0192 15.1028C25.0192 15.1028 25.0873 15.1547 25.1356 15.1633C25.1839 15.1704 25.2877 15.2156 25.2842 15.1807C25.2797 15.1449 25.2216 15.0809 25.2009 15.0635C25.1822 15.045 25.1598 15.0402 25.1598 15.0402Z" fill="white"/>
<path d="M24.0667 17.045C24.0779 17.0678 24.273 17.0145 24.3482 16.9724C24.4069 16.9393 24.4301 16.8283 24.4301 16.8283C24.4301 16.8283 24.4462 16.7209 24.4212 16.7625C24.3097 16.9447 24.0559 17.0216 24.0667 17.045Z" fill="white"/>
<path d="M24.0604 16.5443C24.1392 16.3931 23.8442 16.7014 23.6938 16.7811C23.6021 16.8294 23.4526 16.8938 23.4526 16.8938C23.4526 16.8938 23.4132 16.9431 23.4683 16.9386C23.5233 16.935 23.6634 16.9825 23.7771 16.8947C23.804 16.8732 23.9221 16.7014 23.9221 16.7014C23.9221 16.7014 24.0227 16.6159 24.0604 16.5443Z" fill="white"/>
<path d="M24.0147 17.1879C24.0209 17.2125 24.3516 17.2044 24.4345 17.1794C24.4998 17.1615 24.5356 17.046 24.5356 17.046C24.5356 17.046 24.575 16.9449 24.541 16.9789C24.3911 17.132 24.009 17.1633 24.0147 17.1879Z" fill="white"/>
<path d="M18.7029 20.217C18.7029 20.217 18.6529 20.1987 18.5907 20.2922C18.5289 20.3853 18.2505 20.8082 18.2997 20.8704C18.3583 20.9438 18.5996 20.4927 18.673 20.4086C18.7473 20.3231 18.7169 20.2372 18.7169 20.2372C18.7169 20.2372 18.716 20.2179 18.7029 20.217Z" fill="white"/>
<path d="M24.7666 27.8421C24.7362 27.9826 24.772 28.27 24.8204 28.3263C24.9385 28.4686 24.866 28.1035 24.883 27.9754C24.8973 27.8564 24.9116 27.8152 24.9707 27.6881C25.0763 27.459 24.8285 27.5431 24.7666 27.8421Z" fill="white"/>
<path d="M23.7508 15.6214C23.7508 15.6214 23.6591 15.624 23.5875 15.6634C23.515 15.7028 23.4971 15.7588 23.4971 15.7588C23.4971 15.7588 23.4823 15.7991 23.4922 15.821C23.5132 15.8689 23.6126 15.7964 23.6819 15.8201C23.7378 15.8402 23.7647 15.8568 23.8076 15.9082C23.8452 15.953 23.911 16.0174 23.9522 15.9807C23.9947 15.9449 23.9791 15.8532 23.9791 15.8532C23.9791 15.8532 23.9303 15.7037 23.8663 15.6616C23.8018 15.6187 23.7508 15.6214 23.7508 15.6214Z" fill="white"/>
<path d="M22.2263 16.6728C22.2263 16.6728 22.1748 16.6808 22.1869 16.7435C22.199 16.8048 22.2326 16.7954 22.2326 16.7954C22.2326 16.7954 22.3391 16.7497 22.3328 16.6858C22.3252 16.6213 22.2263 16.6728 22.2263 16.6728Z" fill="white"/>
<path d="M21.4821 16.3389C21.4821 16.3389 21.4262 16.3411 21.3868 16.4104C21.3484 16.4794 21.3255 16.551 21.3255 16.551C21.3255 16.551 21.3072 16.6414 21.3394 16.67C21.3721 16.6982 21.4078 16.6114 21.4548 16.5774C21.483 16.5573 21.5005 16.5483 21.5296 16.5277C21.5694 16.5004 21.6343 16.5353 21.6298 16.4548C21.624 16.3737 21.5381 16.3352 21.4821 16.3389Z" fill="white"/>
<path d="M23.8875 15.4729C23.8875 15.4729 23.7609 15.4545 23.7658 15.5033C23.7702 15.5489 23.8343 15.5216 23.8754 15.54C23.9157 15.5583 23.9426 15.5655 23.9748 15.595C23.9985 15.616 23.9958 15.6572 24.0249 15.6581C24.0652 15.659 24.0571 15.6425 24.0571 15.6425C24.0571 15.6425 24.0204 15.5333 23.9726 15.5024C23.9251 15.4711 23.8875 15.4729 23.8875 15.4729Z" fill="white"/>
<path d="M25.3003 15.9834C25.2824 16.0524 25.2716 16.0761 25.2716 16.0761C25.2716 16.0761 25.2359 16.2162 25.3773 16.1647C25.5187 16.1127 25.4453 16.1347 25.5473 16.085C25.6476 16.0358 25.6458 16.0631 25.7192 16.0667C25.7442 16.0676 25.7603 16.0684 25.798 16.0613C25.8301 16.0541 25.8167 16.0165 25.7451 15.9973C25.6682 15.9772 25.5742 15.9816 25.4651 15.9807C25.4006 15.9799 25.3191 15.9145 25.3003 15.9834Z" fill="white"/>
<path d="M25.3628 15.4656C25.3628 15.4656 25.2983 15.4508 25.2536 15.4786C25.2097 15.5059 25.2231 15.5278 25.2231 15.5278C25.2231 15.5278 25.2903 15.5811 25.3395 15.5882C25.3878 15.5967 25.4916 15.6415 25.4881 15.6057C25.4827 15.5708 25.4254 15.5059 25.4048 15.4885C25.3843 15.471 25.3628 15.4656 25.3628 15.4656Z" fill="white"/>
<path d="M25.6115 16.4382C25.6115 16.4382 25.5425 16.4243 25.495 16.4507C25.4485 16.4767 25.461 16.4977 25.461 16.4977C25.461 16.4977 25.5344 16.547 25.5863 16.5546C25.6383 16.5617 25.7492 16.6038 25.7448 16.5702C25.7403 16.5371 25.6776 16.4758 25.657 16.4593C25.6364 16.4426 25.6115 16.4382 25.6115 16.4382Z" fill="white"/>
<path d="M25.6333 16.7909C25.6333 16.7909 25.5599 16.7743 25.5098 16.8048C25.4597 16.8347 25.4748 16.8589 25.4748 16.8589C25.4748 16.8589 25.551 16.9166 25.6065 16.9247C25.661 16.9332 25.7792 16.9816 25.7738 16.9431C25.7694 16.9046 25.7031 16.8348 25.6798 16.816C25.6584 16.7962 25.6333 16.7909 25.6333 16.7909Z" fill="white"/>
<path d="M25.6662 17.1346C25.6662 17.1346 25.5865 17.1162 25.5328 17.1502C25.4782 17.1842 25.4952 17.2115 25.4952 17.2115C25.4952 17.2115 25.5775 17.276 25.6366 17.2858C25.6966 17.2953 25.8245 17.3503 25.8193 17.3069C25.8138 17.2639 25.7422 17.1842 25.7172 17.1632C25.6939 17.1408 25.6662 17.1346 25.6662 17.1346Z" fill="white"/>
<path d="M25.6591 17.5597C25.6591 17.5597 25.5794 17.5427 25.5257 17.5763C25.4711 17.6094 25.4863 17.6367 25.4863 17.6367C25.4863 17.6367 25.5704 17.7011 25.6295 17.711C25.6886 17.7204 25.8166 17.7755 25.8112 17.7325C25.805 17.6891 25.7342 17.6094 25.7101 17.5883C25.685 17.5665 25.6591 17.5597 25.6591 17.5597Z" fill="white"/>
<path d="M25.6009 18.3885C25.6009 18.3885 25.5203 18.3711 25.4666 18.4051C25.4129 18.4387 25.429 18.4655 25.429 18.4655C25.429 18.4655 25.5114 18.5304 25.5705 18.5398C25.6305 18.5488 25.7585 18.6047 25.7531 18.5608C25.7477 18.5179 25.6762 18.4387 25.651 18.4167C25.6268 18.3948 25.6009 18.3885 25.6009 18.3885Z" fill="white"/>
<path d="M25.6546 17.9741C25.6546 17.9741 25.5632 17.9531 25.4988 17.9924C25.437 18.0309 25.4558 18.0623 25.4558 18.0623C25.4558 18.0623 25.5516 18.1374 25.6205 18.1482C25.6886 18.1594 25.8372 18.2225 25.8317 18.1733C25.8246 18.1227 25.7422 18.031 25.7136 18.0063C25.685 17.9813 25.6546 17.9741 25.6546 17.9741Z" fill="white"/>
<path d="M25.5615 18.7636C25.5615 18.7636 25.4953 18.7479 25.4506 18.7761C25.4058 18.8039 25.4202 18.8258 25.4202 18.8258C25.4202 18.8258 25.4882 18.88 25.5365 18.8872C25.5857 18.8952 25.6905 18.9404 25.6869 18.9046C25.6815 18.8688 25.6233 18.8039 25.6028 18.7864C25.5831 18.7681 25.5615 18.7636 25.5615 18.7636Z" fill="white"/>
<path d="M25.4987 19.1223C25.4987 19.1223 25.445 19.1107 25.4074 19.1336C25.3717 19.1564 25.3823 19.1747 25.3823 19.1747C25.3823 19.1747 25.4387 19.2186 25.479 19.2253C25.5192 19.2316 25.6079 19.2701 25.6043 19.2396C25.6007 19.2105 25.5506 19.1564 25.5345 19.1416C25.5175 19.1268 25.4987 19.1223 25.4987 19.1223Z" fill="white"/>
<path d="M25.4217 19.45C25.4217 19.45 25.3734 19.4388 25.3394 19.4598C25.3071 19.48 25.3161 19.4974 25.3161 19.4974C25.3161 19.4974 25.3671 19.5368 25.4038 19.5422C25.4405 19.5489 25.5193 19.5825 25.5158 19.5561C25.513 19.5296 25.4692 19.48 25.4539 19.467C25.4387 19.4536 25.4217 19.45 25.4217 19.45Z" fill="white"/>
<path d="M25.3451 19.7185C25.3451 19.7185 25.295 19.7072 25.2628 19.7274C25.2287 19.7484 25.2386 19.7649 25.2386 19.7649C25.2386 19.7649 25.2897 19.8052 25.3264 19.8106C25.3631 19.8164 25.4418 19.8509 25.4383 19.8236C25.4356 19.7972 25.3917 19.7485 25.3756 19.7354C25.3612 19.7221 25.3451 19.7185 25.3451 19.7185Z" fill="white"/>
<path d="M25.251 20.03C25.251 20.03 25.2117 20.0206 25.1839 20.0372C25.157 20.0546 25.166 20.0676 25.166 20.0676C25.166 20.0676 25.2071 20.0999 25.2367 20.1052C25.2662 20.1097 25.3306 20.1375 25.3271 20.115C25.3244 20.094 25.2886 20.0546 25.277 20.0435C25.2644 20.0327 25.251 20.03 25.251 20.03Z" fill="white"/>
<path d="M25.1389 20.3214C25.1389 20.3214 25.1048 20.3133 25.0816 20.3276C25.0583 20.3424 25.0655 20.3544 25.0655 20.3544C25.0655 20.3544 25.1013 20.3817 25.1264 20.3853C25.1514 20.3903 25.2069 20.414 25.2042 20.3947C25.2025 20.3764 25.1711 20.3424 25.1613 20.3334C25.1495 20.324 25.1389 20.3214 25.1389 20.3214Z" fill="white"/>
<path d="M25.0237 20.5984C25.0237 20.5984 24.9887 20.5908 24.9655 20.6056C24.943 20.6194 24.9511 20.631 24.9511 20.631C24.9511 20.631 24.9852 20.6588 25.0111 20.6633C25.0371 20.6669 25.0916 20.6906 25.089 20.6727C25.0872 20.653 25.0559 20.6194 25.046 20.61C25.0353 20.601 25.0237 20.5984 25.0237 20.5984Z" fill="white"/>
<path d="M17.5312 22.0079C17.5312 22.0079 17.4735 22.1197 17.5021 22.1811C17.5303 22.2429 17.6082 22.083 17.6082 22.083C17.6082 22.083 17.6887 21.9237 17.6561 21.8946C17.623 21.8651 17.6038 21.9474 17.5312 22.0079Z" fill="white"/>
<path d="M25.6777 36.3764V36.159C25.6777 35.6649 25.9274 35.5682 26.6569 35.5647C27.3282 35.5682 27.5654 35.6524 27.5654 36.0784V37.7227H27.8133V38.0932H26.1735C25.8281 38.0932 25.6025 37.856 25.6025 37.5642V37.2312C25.6025 36.9439 25.7493 36.6933 26.2631 36.6906H26.9039V36.1902C26.9039 35.9289 26.886 35.8976 26.6239 35.8976H26.6211C26.307 35.8976 26.2864 35.9387 26.2864 36.1902V36.3764H25.6777M26.4386 36.9664C26.3097 36.9664 26.2336 37.0702 26.2336 37.199V37.5168C26.2336 37.6448 26.2882 37.7468 26.4386 37.7486H26.6695C26.7966 37.7486 26.9005 37.7092 26.9005 37.5168L26.9022 36.9664H26.6838C26.6784 36.9664 26.4386 36.9664 26.4386 36.9664Z" fill="black"/>
<path d="M24.1183 36.1842V35.6096H23.2036V35.9515H23.4475V37.7219H23.2036V38.0934H24.3493V37.7219H24.1183V36.7732C24.1183 36.6847 24.6576 36.0035 24.6576 36.0822V37.0247H25.2914V35.9641C25.2914 35.7215 25.1329 35.5649 24.8438 35.5649C24.5001 35.5649 24.2678 35.9972 24.1183 36.1842Z" fill="black"/>
<path d="M31.4097 37.72V35.6094H30.4761V35.9513H30.7375V37.72H30.4761V38.0932H31.6549V37.72H31.4097Z" fill="black"/>
<path d="M21.7648 36.1842V35.6096H20.8501V35.9515H21.094V37.7219H20.8501V38.0934H21.9949V37.7219H21.7648V36.7732C21.7648 36.6847 22.3037 36.0035 22.3037 36.0822V37.0247H22.9369V35.9641C22.9369 35.7215 22.7793 35.5649 22.4898 35.5649C22.147 35.5649 21.9143 35.9972 21.7648 36.1842Z" fill="black"/>
<path fill-rule="evenodd" clip-rule="evenodd" d="M20.5001 37.2796H19.8584V37.4658C19.8584 37.7183 19.8163 37.729 19.5034 37.7325H19.499C19.1405 37.7343 19.1606 37.6985 19.1647 37.4658V37.0245H20.5V36.0659C20.5 35.7185 20.2378 35.5727 19.5459 35.5701H19.4466C18.6997 35.5736 18.501 35.7437 18.501 36.1734V37.5768C18.501 38.0493 18.7802 38.129 19.4605 38.1478H19.5347C20.2772 38.1308 20.5 38.0797 20.5 37.6385V37.2796M19.1719 36.1017C19.1719 35.9711 19.2113 35.9065 19.3607 35.9047H19.6422C19.7586 35.9047 19.8234 35.9567 19.8234 36.0497V36.7685H19.1718V36.1017H19.1719Z" fill="black"/>
<path d="M31.0718 35.0992V34.6499" stroke="black" stroke-width="0.74" stroke-miterlimit="10"/>
<path d="M28.9772 36.1842V35.6096H28.0615V35.9515H28.305V37.7219H28.0615V38.0934H29.2072V37.7219H28.9772V36.7732C28.9772 36.6847 29.5151 36.0035 29.5151 36.0822V37.0247H30.1497V35.9641C30.1497 35.7215 29.9903 35.5649 29.7003 35.5649C29.3585 35.5649 29.1257 35.9972 28.9772 36.1842Z" fill="black"/>
<path d="M17.7006 36.8859V36.5547H17.3439V37.7228H17.9619V38.0933H16.1499V37.7228H16.6319V35.0993H16.2533V34.6482H30.367V35.0993H17.3439V36.1528H17.7006V35.8413H18.111V36.8859H17.7006Z" fill="black"/>
<path d="M31.4006 34.6321H30.7275V35.0761H31.4006V34.6321Z" fill="black"/>
</g>
<defs>
<clipPath id="clip0_26_72983">
<rect width="20.0145" height="32" fill="white" transform="translate(14 8)"/>
</clipPath>
</defs>
</svg>
