<svg width="48" height="48" viewBox="0 0 48 48" fill="none" xmlns="http://www.w3.org/2000/svg">
<g clip-path="url(#clip0_771_40550)">
<path d="M23.7968 12C24.0186 12.035 24.2441 12.0701 24.4658 12.109C26.7623 12.4828 28.6943 14.4374 29.0964 16.8241C29.461 18.9656 28.8859 20.8189 27.3487 22.2946C25.9054 23.6768 24.1652 24.1752 22.2483 23.7119C19.8879 23.1395 18.4145 21.5665 17.8845 19.1175C17.1855 15.8975 19.3617 12.6347 22.5076 12.1051C22.7143 12.0701 22.9173 12.035 23.124 12C23.3495 12 23.5713 12 23.7968 12ZM19.5421 21.037C19.5421 21.037 19.5308 21.0681 19.5233 21.0837C20.7373 22.6061 22.3009 23.3303 24.2027 23.0305C26.2249 22.7151 27.5967 21.4848 28.2282 19.4757C28.7506 17.8131 28.4424 16.2518 27.4426 14.8034C27.3938 14.8929 27.3637 14.9513 27.3336 15.0097C27.1683 15.3524 27.0029 15.695 26.845 16.0415C26.8037 16.1311 26.7548 16.1661 26.6571 16.1661C26.0858 16.1739 25.5145 16.2051 24.9432 16.2012C24.3268 16.1973 23.9058 16.4932 23.6164 17.0344C22.9474 18.292 22.2746 19.5496 21.6093 20.8112C21.4928 21.0331 21.3425 21.1421 21.0869 21.1226C20.5719 21.0837 20.0533 21.0681 19.5346 21.0409L19.5421 21.037ZM19.4594 21.0058C19.4932 20.9202 19.5083 20.8618 19.5346 20.8073C20.3765 19.0435 21.2485 17.2992 22.222 15.6093C22.5001 15.1226 22.9098 14.8735 23.436 14.8579C24.4997 14.8267 25.5634 14.8228 26.6308 14.8073C26.8864 14.8073 27.142 14.8073 27.4464 14.8073C26.3902 13.4835 25.086 12.7748 23.4698 12.8021C21.4289 12.8371 19.9029 13.8222 19.0121 15.7184C18.1589 17.5328 18.3807 19.3082 19.4669 21.0097L19.4594 21.0058Z" fill="#2870B8"/>
<path d="M41 32.6282C40.9361 32.636 40.8722 32.6515 40.8121 32.6515C29.2619 32.6515 17.7155 32.6515 6.16538 32.6515H6V32.3323H6.18793C17.7193 32.3323 29.2506 32.3323 40.782 32.3323C40.8534 32.3323 40.9286 32.3556 41 32.3712V32.6282Z" fill="#171616"/>
<path d="M15.8513 31.3588C14.4982 31.3355 13.4233 31.0863 12.4911 30.3815C12.2318 30.1868 11.9912 29.9493 11.7958 29.6885C11.1418 28.8241 11.1493 27.7612 11.7958 26.889C12.2919 26.2271 12.961 25.8105 13.7202 25.5652C15.3627 25.0318 16.9601 25.1174 18.471 26.0129C18.8131 26.2154 19.1288 26.4957 19.3844 26.8033C20.185 27.7612 20.1361 28.9837 19.3017 29.9104C18.6665 30.6112 17.8659 31.0006 16.9751 31.1953C16.5354 31.2926 16.0806 31.3277 15.8475 31.3588H15.8513ZM15.4679 29.6067C16.3023 29.6145 16.9 29.4198 17.3172 29.0577C17.8133 28.6255 17.8321 28.0298 17.3547 27.5782C17.257 27.4847 17.1443 27.399 17.0277 27.3329C16.4527 27.0058 15.8363 26.9396 15.1973 27.0214C14.7237 27.0837 14.2765 27.2355 13.9156 27.5782C13.4383 28.0298 13.4571 28.6333 13.9532 29.0616C14.4343 29.4743 15.0094 29.6028 15.4642 29.6106L15.4679 29.6067Z" fill="#2870B8"/>
<path d="M25.8981 28.5048C26.5484 29.4197 27.1836 30.3153 27.8413 31.2419C27.5557 31.2419 27.3038 31.2419 27.052 31.2419C26.5559 31.2419 26.0635 31.238 25.5674 31.2419C25.4509 31.2419 25.387 31.203 25.3268 31.1057C24.8871 30.4282 24.4398 29.7546 24 29.081C23.8647 28.8746 23.6956 28.7734 23.4513 28.8085C23.331 28.824 23.2032 28.8085 23.0604 28.8085V31.2264H20.8315V25.4055C20.8691 25.4016 20.903 25.3899 20.9368 25.3899C22.256 25.3977 23.5753 25.3977 24.8908 25.421C25.4208 25.4327 25.947 25.5028 26.4243 25.7793C27.1084 26.1686 27.3865 26.9434 27.0746 27.6092C26.8791 28.022 26.5371 28.2595 26.1349 28.4152C26.0635 28.4425 25.9921 28.4658 25.8944 28.5009L25.8981 28.5048ZM23.0604 27.8039C23.4701 27.8039 23.8572 27.8117 24.2443 27.8039C24.515 27.7961 24.733 27.6092 24.8194 27.3445C24.9547 26.9123 24.748 26.5073 24.2707 26.4295C23.8798 26.3633 23.4701 26.4178 23.0566 26.4178C23.0566 26.8344 23.0566 27.2588 23.0566 27.6832C23.0566 27.7183 23.0566 27.7533 23.0641 27.8078L23.0604 27.8039Z" fill="#2870B8"/>
<path d="M35.2417 26.1102C34.9635 26.5424 34.7079 26.9357 34.4636 27.3133C34.1404 27.1848 33.8359 27.033 33.5202 26.9434C32.8587 26.7527 32.1822 26.7059 31.5244 26.9668C31.2914 27.0602 31.0546 27.2082 30.8779 27.3951C30.1826 28.1193 30.4419 29.007 31.0508 29.4665C31.5019 29.8091 32.0318 29.8948 32.5768 29.8753C33.088 29.8558 33.5766 29.7312 33.9938 29.4743C34.3396 29.8169 34.6741 30.1556 35.0161 30.4944C34.4561 30.9266 33.8284 31.1758 33.1556 31.3004C31.9078 31.5301 30.6938 31.4172 29.5436 30.837C28.8107 30.4671 28.2281 29.9337 27.9763 29.0966C27.6907 28.1466 28.0628 27.0018 28.8708 26.3127C29.4797 25.7948 30.1939 25.5262 30.9606 25.4016C32.1897 25.203 33.4 25.2848 34.5689 25.7637C34.7944 25.8571 35.0086 25.9895 35.2454 26.1141L35.2417 26.1102Z" fill="#2870B8"/>
<path d="M35.896 25.425H40.9551V26.6243H37.9745V27.7106H40.9588V28.9059H37.9707V29.9805H40.9588V31.2576H35.8998V25.425H35.896Z" fill="#2870B8"/>
<path d="M6.00391 25.4289H11.0367V26.6282H8.0561V27.8001H10.2849V28.9332H8.05234V31.2226H6.00391V25.425V25.4289Z" fill="#2870B8"/>
<path d="M12.54 33.6211H13.006C13.2128 34.2947 13.4232 34.9683 13.6488 35.7002C13.9382 34.9799 14.2088 34.3102 14.4869 33.625H14.9643C14.938 34.3959 14.9154 35.1668 14.8891 35.9417H14.5847C14.611 35.2914 14.6373 34.6451 14.6636 33.9949C14.6485 33.9949 14.6335 33.9871 14.6185 33.9832C14.3591 34.6334 14.0998 35.2836 13.8367 35.9417H13.4308C13.2278 35.2914 13.0211 34.6412 12.8181 33.9949C12.8068 33.9949 12.7918 33.9949 12.7805 33.9988C12.7317 34.6412 12.6828 35.2836 12.6339 35.9378H12.3521C12.4159 35.1668 12.4761 34.3998 12.54 33.6172V33.6211Z" fill="#171616"/>
<path d="M18.3809 33.5742C18.9598 33.5742 19.3544 33.8039 19.4935 34.275C19.734 35.0927 19.4145 35.9882 18.3433 35.9843C18.1253 35.9843 17.8961 35.9454 17.6969 35.8597C17.2834 35.6845 17.0692 35.1861 17.1368 34.6683C17.2346 33.9324 17.6442 33.5742 18.3847 33.5703L18.3809 33.5742ZM18.3584 33.8273C17.7683 33.8273 17.4563 34.1621 17.445 34.8201C17.4375 35.3964 17.7608 35.7351 18.3283 35.739C18.9222 35.739 19.2416 35.4003 19.2416 34.754C19.2416 34.1427 18.9485 33.8351 18.3584 33.8312V33.8273Z" fill="#171616"/>
<path d="M26.4318 33.5742C27.0256 33.5742 27.409 33.8273 27.5556 34.3179C27.721 34.863 27.5631 35.4626 27.176 35.7546C26.7663 36.0661 26.0146 36.0895 25.6086 35.7936C25.2027 35.4976 25.12 35.0616 25.1877 34.5943C25.2854 33.913 25.7139 33.5742 26.428 33.5742H26.4318ZM26.4055 33.8273C25.8154 33.8273 25.4959 34.1738 25.4959 34.8202C25.4959 35.4042 25.8154 35.7352 26.3791 35.7352C26.9692 35.7352 27.2925 35.3886 27.2962 34.7462C27.2962 34.1427 26.9918 33.8273 26.4055 33.8234V33.8273Z" fill="#171616"/>
<path d="M31.2425 35.9299C30.9982 35.9961 30.8591 35.9299 30.7501 35.6924C30.5885 35.3381 30.3705 35.011 30.1713 34.6606C30.3442 34.6411 30.5058 34.6334 30.6637 34.6022C30.814 34.5711 30.9305 34.4854 30.9719 34.318C31.0358 34.0649 30.9493 33.9169 30.6975 33.878C30.675 33.878 30.6524 33.8741 30.6261 33.8741C30.472 33.8741 30.3216 33.8741 30.1375 33.8741C30.1112 34.5594 30.0849 35.2447 30.0585 35.9416H29.7466C29.7842 35.1746 29.818 34.4114 29.8593 33.6016C30.2352 33.621 30.6186 33.6249 30.9982 33.6716C31.1824 33.695 31.2726 33.8624 31.2951 34.0532C31.3289 34.3141 31.2726 34.5477 31.0621 34.6996C30.9456 34.7852 30.799 34.828 30.6524 34.8942C30.8403 35.2291 31.0395 35.5795 31.235 35.9338L31.2425 35.9299Z" fill="#171616"/>
<path d="M34.5579 33.9365C34.4038 33.9014 34.2534 33.8586 34.0993 33.8352C33.9302 33.8119 33.7648 33.8352 33.6784 34.0221C33.5919 34.2168 33.7272 34.3297 33.84 34.4426C34.0242 34.6217 34.2309 34.7814 34.4038 34.9682C34.494 35.0695 34.5767 35.2096 34.5992 35.342C34.6556 35.6925 34.4226 35.965 34.0655 35.9845C33.8964 35.9923 33.7235 35.9767 33.5581 35.9416C33.2837 35.8832 33.2837 35.8716 33.295 35.5873C33.5055 35.6379 33.7159 35.7002 33.9302 35.7353C34.0768 35.7586 34.2158 35.7119 34.2835 35.5562C34.3549 35.3965 34.276 35.2681 34.167 35.1668C33.9715 34.976 33.7573 34.8008 33.5656 34.6023C33.4792 34.5127 33.3965 34.392 33.3702 34.2674C33.2875 33.9053 33.5092 33.6133 33.8851 33.5782C34.0279 33.5666 34.1783 33.5782 34.3211 33.6055C34.5654 33.6483 34.5691 33.6639 34.5504 33.9287L34.5579 33.9365Z" fill="#171616"/>
<path d="M22.4892 35.9456H22.1622C22.2035 35.2525 22.2411 34.5712 22.2825 33.8742H21.6172V33.6289H23.2296V33.8703H22.5869C22.5568 34.5556 22.523 35.2408 22.4929 35.9456H22.4892Z" fill="#171616"/>
<path d="M22.7518 19.1135C22.7744 19.0474 22.7856 18.9889 22.8082 18.9344C22.9397 18.6619 23.0638 18.3854 23.2141 18.1246C23.2592 18.0428 23.3682 17.9533 23.4509 17.9494C24.274 17.9299 25.0934 17.926 25.9165 17.9182C25.9278 17.9182 25.9353 17.9299 25.9654 17.9494C25.9466 18 25.9353 18.0584 25.909 18.109C25.77 18.3893 25.6309 18.6736 25.4768 18.9461C25.4354 19.0162 25.3415 19.0941 25.2663 19.0941C24.4544 19.1135 23.6463 19.1213 22.8345 19.133C22.8157 19.133 22.8007 19.1252 22.748 19.1135H22.7518Z" fill="#2870B8"/>
</g>
<defs>
<clipPath id="clip0_771_40550">
<rect width="35" height="24" fill="white" transform="translate(6 12)"/>
</clipPath>
</defs>
</svg>
