<svg width="48" height="48" viewBox="0 0 48 48" fill="none" xmlns="http://www.w3.org/2000/svg">
<g clip-path="url(#clip0_771_74854)">
<path d="M36.0885 26.4546H31.8135C31.5611 26.4546 31.4525 26.3674 31.4525 26.0921V21.2139C31.4525 21.0144 31.3843 21.0032 31.2507 21.0032H29.8248C29.681 21.0032 29.633 21.0032 29.633 21.2139V25.9235C29.633 27.4915 30.1377 28.0002 31.5081 28.0002H36.1086C36.2778 28.0002 36.2778 27.9383 36.2778 27.7781V26.6849C36.2778 26.5276 36.2778 26.4546 36.0885 26.4546ZM28.2804 21.0032H23.6748C22.4129 21.0032 21.6559 21.4501 21.6559 22.9224V26.0837C21.6559 27.556 22.4129 28.0002 23.6899 28.0002H28.2804C28.4622 28.0002 28.452 27.9383 28.452 27.7895V26.6963C28.452 26.5473 28.452 26.4856 28.2804 26.4856H23.7681C23.5663 26.4856 23.4628 26.4013 23.4628 26.1766V25.2183H28.1566C28.3384 25.2183 28.3282 25.1537 28.3282 25.0076V23.9285C28.3282 23.7712 28.3282 23.7178 28.1566 23.7178H23.4628V22.827C23.4628 22.6049 23.5663 22.5207 23.7681 22.5207H28.2804C28.4622 22.5207 28.452 22.4561 28.452 22.2986V21.2139C28.452 21.0678 28.4696 21.0032 28.2804 21.0032ZM20.4546 21.0032H15.8515C14.5896 21.0032 13.8149 21.4501 13.8149 22.9224V26.0837C13.8149 27.556 14.5946 28.0002 15.8515 28.0002H20.4546C20.6338 28.0002 20.6338 27.9383 20.6338 27.7895V26.6963C20.6338 26.5473 20.6338 26.4856 20.4546 26.4856H15.95C15.7505 26.4856 15.6446 26.4013 15.6446 26.1766V25.2183H20.3284C20.5102 25.2183 20.5102 25.1537 20.5102 25.0076V23.9285C20.5102 23.7712 20.5102 23.7178 20.3284 23.7178H15.6446V22.827C15.6446 22.6049 15.7505 22.5207 15.95 22.5207H20.4546C20.6338 22.5207 20.6338 22.4561 20.6338 22.2986V21.2139C20.6464 21.0678 20.6464 21.0032 20.4546 21.0032ZM12.4548 21.0032H7.04665C5.7697 21.0032 5 21.4499 5 22.9224V26.0837C5 27.556 5.7697 28.0002 7.04665 28.0002H12.4548C12.6366 28.0002 12.6264 27.9383 12.6264 27.7895V23.9283C12.6264 23.771 12.6264 23.7176 12.4548 23.7176H7.98792C7.80874 23.7176 7.81878 23.771 7.81878 23.9283V25.013C7.81878 25.1591 7.81878 25.2237 7.98792 25.2237H10.8043V26.4854H7.12231C6.93049 26.4854 6.81951 26.4012 6.81951 26.1764V22.8268C6.81951 22.6048 6.93049 22.5205 7.12231 22.5205H12.4548C12.6366 22.5205 12.6264 22.4559 12.6264 22.2985V21.2139C12.6264 21.0678 12.6364 21.0032 12.4548 21.0032ZM42.8695 21.0032H41.2216C41.0202 20.9827 40.8218 21.0692 40.6866 21.2365L38.4154 24.0043L36.1567 21.2365C36.0171 21.0692 35.8159 20.983 35.6116 21.0032H33.9662C33.835 21.0032 33.7744 21.0792 33.9385 21.2673L37.5069 25.6368V27.8005C37.5069 28 37.5649 28 37.7088 28H39.1346C39.2684 28 39.3264 28 39.3264 27.8005V25.6368L42.9049 21.2673C43.0588 21.079 43.0108 21.0032 42.8695 21.0032Z" fill="#0070B2"/>
</g>
<defs>
<clipPath id="clip0_771_74854">
<rect width="38" height="7" fill="white" transform="translate(5 21)"/>
</clipPath>
</defs>
</svg>
