<svg width="48" height="48" viewBox="0 0 48 48" fill="none" xmlns="http://www.w3.org/2000/svg">
<path d="M24.0002 28.779C30.014 28.779 34.8891 25.4759 34.8891 21.4012C34.8891 17.3266 30.014 14.0234 24.0002 14.0234C17.9864 14.0234 13.1113 17.3266 13.1113 21.4012C13.1113 25.4759 17.9864 28.779 24.0002 28.779Z" fill="url(#paint0_linear_26_72954)" stroke="black"/>
<path d="M23.9999 28.2013C29.3264 28.2013 33.6444 25.1569 33.6444 21.4013C33.6444 17.6458 29.3264 14.6013 23.9999 14.6013C18.6734 14.6013 14.3555 17.6458 14.3555 21.4013C14.3555 25.1569 18.6734 28.2013 23.9999 28.2013Z" fill="url(#paint1_radial_26_72954)"/>
<path fill-rule="evenodd" clip-rule="evenodd" d="M30 22.1789C29.6 20.6678 29.1112 19.2456 28.2223 17.8678C27.3503 16.5807 25.5094 17.0389 24.0747 16.8149V25.6527C24.0747 28.3176 28.7805 27.6665 31.4645 25.1727C30.5463 24.5114 30.2925 23.2665 30 22.1789Z" fill="url(#paint2_linear_26_72954)"/>
<path fill-rule="evenodd" clip-rule="evenodd" d="M33.2851 21.4013C33.2851 17.7684 29.1082 14.8235 23.9558 14.8235H23.9482V16.3493H24.0749V16.815C25.5091 17.039 27.3505 16.5808 28.2225 17.8679C29.1114 19.2457 29.6002 20.6679 30.0002 22.179C30.2931 23.2666 30.5469 24.5115 31.4647 25.1728C32.5358 24.1777 33.2851 22.8893 33.2851 21.4013Z" fill="url(#paint3_linear_26_72954)"/>
<path fill-rule="evenodd" clip-rule="evenodd" d="M18.0001 22.1789C18.4001 20.6678 18.889 19.2456 19.7779 17.8678C20.6499 16.5807 22.4908 17.0389 23.9254 16.8149V25.6527C23.9254 28.3176 19.2196 27.6665 16.5356 25.1727C17.4539 24.5114 17.7076 23.2665 18.0001 22.1789Z" fill="url(#paint4_linear_26_72954)"/>
<path fill-rule="evenodd" clip-rule="evenodd" d="M14.7153 21.4013C14.7153 17.7684 18.8922 14.8235 24.0447 14.8235H24.0522V16.3493H23.9256V16.815C22.4913 17.039 20.65 16.5808 19.778 17.8679C18.8891 19.2457 18.4002 20.6679 18.0002 22.179C17.7073 23.2666 17.4536 24.5115 16.5358 25.1728C15.4647 24.1777 14.7153 22.8893 14.7153 21.4013Z" fill="url(#paint5_linear_26_72954)"/>
<path d="M38.1548 29.6226C38.0734 29.5026 37.6765 29.5226 37.5361 29.5373C37.4388 29.5475 37.3463 29.5808 37.2694 29.6333C37.2308 30.9519 37.2481 32.5355 37.2481 33.9426C37.2481 34.0857 37.213 34.4586 37.2694 34.5399C37.3321 34.631 37.5908 34.6146 37.7174 34.6146C37.9045 34.6146 38.0779 34.6248 38.1548 34.5293C38.1934 33.2586 38.1761 31.6093 38.1761 30.2199C38.1761 30.079 38.2112 29.7057 38.1548 29.6226Z" fill="#CE181E"/>
<path d="M39.0826 29.6439C39.0635 30.935 39.072 32.5266 39.072 33.9213C39.072 34.0959 39.0306 34.4493 39.0933 34.5399C39.1604 34.6373 39.5769 34.6346 39.7653 34.6146C39.8582 34.6048 39.9613 34.5742 40 34.5079V29.6546C39.8417 29.4777 39.2604 29.5004 39.0826 29.6439Z" fill="#CE181E"/>
<path d="M10.1547 30.6146C10.6973 30.5129 11.196 30.6724 11.552 30.8386C11.6347 30.8773 11.8364 31.0209 11.9253 30.988C12.076 30.9324 12.0373 30.3933 11.9787 30.2626C11.9067 30.1018 11.6453 29.9995 11.456 29.9426C11.2564 29.8826 10.9738 29.8298 10.7413 29.8146C10.1596 29.7764 9.67644 29.8791 9.312 30.0386C8.58533 30.3569 8.052 31.084 8 32.0973V32.5133C8.13422 33.932 9.00044 34.7826 10.688 34.6573C10.9267 34.6395 11.1516 34.6133 11.392 34.5506C11.5902 34.4986 11.9116 34.4293 11.9787 34.2733C12.0316 34.1498 12.0107 33.916 12.0107 33.7293C12.0107 33.3169 12.0107 33.0146 12.0107 32.5773C12.0107 32.2782 12.0569 32.0026 11.8507 31.9266C11.6431 31.8502 11.2738 31.9053 10.976 31.9053H10.528C10.3898 31.9053 10.1831 31.8858 10.112 31.9266C9.96444 32.0115 10.008 32.5169 10.112 32.6306C10.4036 32.6555 10.7413 32.6342 11.0507 32.6413V33.74C10.4316 34.0373 9.72756 33.8093 9.39733 33.4626C9.04933 33.0978 8.87556 32.3782 9.04533 31.7133C9.19111 31.1418 9.56889 30.7244 10.1547 30.6146Z" fill="#CE181E"/>
<path d="M32.3519 29.9426C32.2847 30.0133 32.2594 30.2835 32.2345 30.3906C31.9812 31.4719 31.7181 32.6386 31.4772 33.6546C31.2043 32.5751 30.939 31.4777 30.6665 30.3799C30.6336 30.2479 30.5941 29.9906 30.5279 29.9319C30.4407 29.855 30.2141 29.8679 30.0372 29.8679C29.8603 29.8679 29.6385 29.8679 29.5572 29.9426C29.4932 30.0013 29.451 30.2408 29.4185 30.3799C29.163 31.4742 28.8945 32.5959 28.6399 33.6439C28.3981 32.5848 28.1212 31.4546 27.8825 30.3799C27.8479 30.2248 27.8341 29.9879 27.7652 29.9213C27.6576 29.8173 26.8959 29.8399 26.8265 29.9533C26.7559 30.0688 26.8843 30.3884 26.9225 30.5399C27.2234 31.7306 27.5167 32.8342 27.8185 33.9959C27.863 34.1662 27.9101 34.4657 27.9999 34.5399C28.1572 34.6697 29.0519 34.6595 29.1945 34.5399C29.2634 34.4822 29.2887 34.3155 29.3225 34.1773C29.5585 33.2084 29.7536 32.3093 30.0052 31.3933C30.2167 32.3133 30.4679 33.2293 30.6985 34.1453C30.7336 34.2839 30.7483 34.4644 30.8159 34.5293C30.9745 34.6813 31.9052 34.6595 32.0425 34.5186C32.1296 34.4293 32.1674 34.1386 32.2132 33.9639C32.5114 32.8217 32.8425 31.6355 33.1199 30.5399C33.1692 30.3457 33.2603 30.1413 33.2052 29.9319C33.0479 29.8568 32.4799 29.8079 32.3519 29.9426Z" fill="#CE181E"/>
<path d="M24.0639 33.8466C23.9715 33.7821 23.9257 33.6079 23.9146 33.4626C23.879 32.9919 23.9337 32.2794 23.9253 31.8519C24.175 31.8457 24.4506 31.8652 24.6826 31.8412C24.7977 31.6954 24.7995 31.2843 24.6933 31.1266C24.4737 31.0794 24.1693 31.1172 23.9146 31.1052C23.9079 30.8452 23.9284 30.5581 23.9039 30.3159C23.7248 30.1888 23.1737 30.1857 23.0079 30.3266C22.9835 30.5688 23.0039 30.8559 22.9973 31.1159C22.8742 31.0968 22.6835 31.1003 22.5599 31.1159C22.4275 31.2554 22.4333 31.6892 22.5493 31.8412C22.6764 31.8706 22.8706 31.8328 22.9973 31.8626C23.0724 32.6443 22.827 33.7612 23.1786 34.3052C23.3057 34.5017 23.5688 34.6452 23.9039 34.6679C24.1813 34.6866 24.6004 34.6501 24.7039 34.5079C24.8079 34.3652 24.7884 33.9692 24.6933 33.8252C24.5164 33.8577 24.2302 33.9626 24.0639 33.8466Z" fill="#CE181E"/>
<path d="M14.6666 31.0199C14.1093 30.9794 13.952 31.3879 13.7173 31.6066C13.7111 31.4599 13.7302 31.2879 13.7066 31.1586C13.548 31.0479 13.0702 31.0425 12.9386 31.1799C12.9208 32.2714 12.9208 33.4377 12.9386 34.5292C13.1168 34.6568 13.6671 34.6568 13.8453 34.5292C13.8702 33.8572 13.8488 33.139 13.856 32.4492C14.016 32.227 14.16 31.9497 14.4426 31.8839C14.6106 31.8448 14.8226 31.9968 14.9333 31.9479C15.0302 31.9052 15.0173 31.7083 15.0186 31.5639C15.0231 31.1523 15.0133 31.0452 14.6666 31.0199Z" fill="#CE181E"/>
<path d="M17.7599 31.1799C17.4577 31.0315 17.059 30.9781 16.6506 31.0412C15.9306 31.1528 15.5061 31.643 15.3599 32.3319C15.2821 32.6972 15.2928 33.1581 15.3706 33.5052C15.5324 34.2279 15.9728 34.595 16.7892 34.6786H17.3012C17.4621 34.6555 17.6639 34.6306 17.8559 34.5826C18.0061 34.5448 18.2421 34.4986 18.3039 34.3906C18.3781 34.2608 18.343 33.9377 18.2932 33.7826C18.0901 33.7803 17.8839 33.8795 17.6639 33.9319C16.939 34.1043 16.1826 33.9292 16.2452 33.0892C16.7386 33.0892 17.2799 33.0892 17.8026 33.0892C18.0572 33.0892 18.3444 33.1297 18.4426 32.9826C18.5328 32.8475 18.5004 32.5626 18.4852 32.3959C18.4292 31.7759 18.1484 31.3706 17.7599 31.1799ZM16.2452 32.4919C16.2528 32.0123 16.527 31.6346 17.0132 31.6706C17.4075 31.6999 17.6132 32.0168 17.5999 32.4919C17.1968 32.4919 16.6479 32.4919 16.2452 32.4919Z" fill="#CE181E"/>
<path d="M22.0053 32.8866C22.0053 32.3395 22.0422 31.7769 21.7707 31.436C21.396 30.9657 20.4671 30.9355 19.7867 31.148C19.5805 31.2124 19.3316 31.2933 19.2533 31.4466C19.1747 31.6009 19.2156 32.0133 19.3493 32.044C19.46 32.0693 19.6151 31.9449 19.7013 31.9053C19.9805 31.7769 20.5293 31.5813 20.8853 31.7986C21.084 31.92 21.1133 32.1449 21.0987 32.5133C20.2698 32.4982 19.4849 32.5582 19.168 33.0893C18.9782 33.4075 19.0053 33.8942 19.168 34.1773C19.3298 34.4582 19.6405 34.6262 20.0213 34.6786H20.4053C20.5916 34.652 20.7462 34.5857 20.8853 34.508C21.0276 34.4289 21.1369 34.3311 21.248 34.252C21.252 34.3369 21.2338 34.4733 21.2587 34.5613C21.4142 34.6169 21.8907 34.6835 21.984 34.5506C22.0293 34.4866 22.0053 34.2662 22.0053 34.1453V32.8866ZM21.0987 33.6333C21.0729 33.7275 20.8787 33.8893 20.736 33.964C20.5085 34.0826 20.1609 34.0311 20.032 33.8786C19.9107 33.7355 19.9076 33.4742 20.0107 33.324C20.1858 33.0684 20.6582 33.0857 21.0987 33.0893C21.0631 33.2822 21.1458 33.4613 21.0987 33.6333Z" fill="#CE181E"/>
<path d="M36.1387 31.4572C35.8053 30.9905 34.8769 30.9234 34.1867 31.1265C33.9849 31.186 33.6693 31.2834 33.5893 31.4572C33.5173 31.6136 33.5542 32.0243 33.696 32.0438C33.804 32.0585 33.9684 31.9465 34.08 31.8945C34.4035 31.7429 35.2075 31.5354 35.392 31.9692C35.4587 32.126 35.4329 32.2407 35.4453 32.5025C34.5587 32.5065 33.788 32.5612 33.4827 33.1532C33.3115 33.4847 33.3644 33.9487 33.5253 34.2092C33.6849 34.4678 34.0129 34.6327 34.368 34.6785H34.7413C35.0635 34.6394 35.3044 34.4852 35.5093 34.3052C35.528 34.2887 35.556 34.2434 35.584 34.2625C35.6035 34.3989 35.5435 34.498 35.616 34.5718C35.7373 34.6954 36.1969 34.5989 36.32 34.5612C36.3595 33.982 36.3413 33.4669 36.3413 32.9185C36.3413 32.3692 36.3884 31.8069 36.1387 31.4572ZM35.4453 33.6225C35.4044 33.7914 35.0351 34.0114 34.8267 34.0278C34.6035 34.0452 34.4187 33.9616 34.336 33.8252C34.208 33.6136 34.304 33.3163 34.4747 33.2065C34.7022 33.0603 35.0453 33.0976 35.4453 33.0892C35.4142 33.2807 35.4867 33.4514 35.4453 33.6225Z" fill="#CE181E"/>
<path fill-rule="evenodd" clip-rule="evenodd" d="M29.6872 24.8487C29.5783 24.8487 29.473 24.8407 29.373 24.8247C29.3103 24.8144 27.825 24.5464 27.8663 22.7149V19.4687L23.9996 17.3522L20.133 19.4687V22.7122C20.1747 24.5464 18.6894 24.8144 18.6263 24.8247C18.5272 24.8407 18.4214 24.8487 18.3125 24.8487C18.0067 24.8487 17.2236 24.7767 16.5605 24.1113C15.9481 23.4967 15.6401 22.5851 15.6441 21.4016C15.6561 18.1176 19.4045 15.4456 23.9996 15.4456C28.5947 15.4456 32.3432 18.1176 32.3552 21.4016C32.3596 22.5847 32.0512 23.4967 31.4392 24.1109C30.7761 24.7767 29.993 24.8487 29.6872 24.8487Z" fill="white"/>
<path d="M24 15.5567C26.2142 15.5567 28.2924 16.1731 29.8528 17.2918C31.3893 18.394 32.2391 19.8536 32.2444 21.402C32.2488 22.5549 31.9515 23.4398 31.3604 24.0327C30.7266 24.6687 29.9791 24.7376 29.6871 24.7376C29.584 24.7376 29.4844 24.73 29.3911 24.7149C29.3875 24.7145 29.0253 24.6496 28.6742 24.3803C28.1955 24.0131 27.9608 23.4536 27.9777 22.7171V22.7145V22.7118V19.4025L27.8622 19.3394L24.1066 17.2838L24 17.2256L23.8933 17.2838L20.1377 19.3394L20.0222 19.4025V22.7171C20.0617 24.4478 18.6675 24.7051 18.6093 24.7149C18.5155 24.73 18.4155 24.7376 18.3128 24.7376C18.0208 24.7376 17.2733 24.6687 16.6395 24.0327C16.0488 23.4398 15.7515 22.5545 15.7555 21.402C15.7613 19.854 16.6106 18.394 18.1475 17.2918C19.7075 16.1727 21.7862 15.5567 24.0004 15.5567M24.0004 15.3345C19.3244 15.3345 15.5462 18.0505 15.5337 21.4011C15.5235 24.1216 17.1764 24.9598 18.3133 24.9598C18.4302 24.9598 18.5413 24.9509 18.6448 24.9345C18.6448 24.9345 20.2893 24.6678 20.2449 22.7123V19.5345L24.0004 17.4789L27.756 19.5345V22.7123C27.7115 24.6678 29.356 24.9345 29.356 24.9345C29.4595 24.9509 29.5706 24.9598 29.6875 24.9598C30.824 24.9598 32.4773 24.1216 32.4671 21.4011C32.4546 18.0505 28.6764 15.3345 24.0004 15.3345Z" fill="#4D4D4D"/>
<path d="M24.395 16.8937L19.3096 19.6929L19.5136 20.0635L24.599 17.2643L24.395 16.8937Z" fill="white"/>
<path d="M23.6044 16.893L23.4004 17.2637L28.4858 20.0629L28.6898 19.6922L23.6044 16.893Z" fill="white"/>
<defs>
<linearGradient id="paint0_linear_26_72954" x1="18.6051" y1="15.9221" x2="29.9829" y2="27.4777" gradientUnits="userSpaceOnUse">
<stop stop-color="#F7F7F7"/>
<stop offset="1" stop-color="#252525"/>
</linearGradient>
<radialGradient id="paint1_radial_26_72954" cx="0" cy="0" r="1" gradientUnits="userSpaceOnUse" gradientTransform="translate(24.0221 27.7124) scale(7.02889)">
<stop stop-color="#CCCCCC"/>
<stop offset="1" stop-color="white"/>
</radialGradient>
<linearGradient id="paint2_linear_26_72954" x1="23.0374" y1="18.8296" x2="30.0329" y2="26.1487" gradientUnits="userSpaceOnUse">
<stop stop-color="#9B9B9B"/>
<stop offset="0.09" stop-color="#828282"/>
<stop offset="0.25" stop-color="#5E5E5E"/>
<stop offset="0.4" stop-color="#444444"/>
<stop offset="0.53" stop-color="#343434"/>
<stop offset="0.64" stop-color="#2F2F2F"/>
<stop offset="0.78" stop-color="white"/>
<stop offset="1" stop-color="#A0A0A0"/>
</linearGradient>
<linearGradient id="paint3_linear_26_72954" x1="28.8682" y1="23.7186" x2="28.4447" y2="15.4648" gradientUnits="userSpaceOnUse">
<stop stop-color="#9B9B9B"/>
<stop offset="0.54" stop-color="#2F2F2F"/>
<stop offset="0.72" stop-color="#313131"/>
<stop offset="0.8" stop-color="#383838"/>
<stop offset="0.85" stop-color="#444444"/>
<stop offset="0.9" stop-color="#565656"/>
<stop offset="0.94" stop-color="#6C6C6C"/>
<stop offset="0.97" stop-color="#888888"/>
<stop offset="1" stop-color="#A6A6A6"/>
</linearGradient>
<linearGradient id="paint4_linear_26_72954" x1="24.9628" y1="18.8296" x2="17.9672" y2="26.1487" gradientUnits="userSpaceOnUse">
<stop stop-color="#9B9B9B"/>
<stop offset="0.09" stop-color="#828282"/>
<stop offset="0.25" stop-color="#5E5E5E"/>
<stop offset="0.4" stop-color="#444444"/>
<stop offset="0.53" stop-color="#343434"/>
<stop offset="0.64" stop-color="#2F2F2F"/>
<stop offset="0.78" stop-color="white"/>
<stop offset="1" stop-color="#A0A0A0"/>
</linearGradient>
<linearGradient id="paint5_linear_26_72954" x1="19.1322" y1="23.7186" x2="19.5558" y2="15.4648" gradientUnits="userSpaceOnUse">
<stop stop-color="#9B9B9B"/>
<stop offset="0.54" stop-color="#2F2F2F"/>
<stop offset="0.72" stop-color="#313131"/>
<stop offset="0.8" stop-color="#383838"/>
<stop offset="0.85" stop-color="#444444"/>
<stop offset="0.9" stop-color="#565656"/>
<stop offset="0.94" stop-color="#6C6C6C"/>
<stop offset="0.97" stop-color="#888888"/>
<stop offset="1" stop-color="#A6A6A6"/>
</linearGradient>
</defs>
</svg>
