<svg width="48" height="48" viewBox="0 0 48 48" fill="none" xmlns="http://www.w3.org/2000/svg">
<path fill-rule="evenodd" clip-rule="evenodd" d="M24.4317 26.9009C24.8502 27.2671 24.6061 27.9995 25.0246 28.3483C25.8093 29.0284 27.8148 28.2262 28.7739 28.5924C28.9483 28.6448 29.0878 28.7494 29.175 28.9063C29.9597 30.4061 25.757 31.993 24.7979 32.2022C23.769 32.4289 22.8796 32.3941 21.7984 32.3941C21.7984 32.3418 21.781 32.2894 21.8508 32.2894C22.1472 31.9407 22.4088 31.5919 22.6181 31.1908C22.7924 30.8071 22.9843 30.4061 23.1587 30.0224C23.2458 29.9701 23.333 29.9003 23.4202 29.8306C23.4202 29.848 23.4202 29.8655 23.4202 29.8829C23.4377 29.9352 23.5597 30.284 23.4725 30.284C23.4725 30.3014 23.4725 30.3189 23.4725 30.3363C23.5074 30.3363 23.5423 30.3363 23.5772 30.3363C23.5772 30.3189 23.5772 30.3014 23.5772 30.284C24.2573 29.6736 24.2398 27.8775 24.4317 26.9009ZM20.351 22.0355C20.6824 23.4132 21.8159 24.3548 23.2982 24.3548C23.2982 24.3723 23.2982 24.3897 23.2982 24.4072C22.0426 24.6339 21.7112 24.6513 20.6998 24.1107C20.7521 24.3025 20.8742 24.5467 20.9091 24.7385C20.5952 24.7211 20.1418 23.884 20.0197 23.1341C19.9499 22.6459 20.0197 22.1924 20.351 22.0355ZM22.2518 20.745C23.49 21.5995 23.6644 23.3957 25.9488 23.727C26.3325 23.7096 26.7161 23.7096 27.0998 23.6922C26.3674 24.1979 25.7396 24.3897 25.1815 24.3548C23.6295 24.2676 22.7227 22.4715 22.2518 20.745ZM23.7341 19.1058C25.8616 19.1756 26.2802 21.6693 27.6753 22.7505C27.8322 22.8377 27.9717 22.9249 28.1287 23.0121C28.1287 23.0469 28.1287 23.0818 28.1287 23.1167C25.9488 23.0469 25.7396 21.6867 24.763 20.2219C24.7107 19.6464 24.1701 19.4371 23.7341 19.1058ZM21.1881 15.0949C21.2927 15.0949 21.3799 15.0949 21.4845 15.0949C21.4845 15.1123 21.4845 15.1298 21.4845 15.1472C21.2578 15.339 20.7696 15.932 20.4557 15.8971C20.4731 15.7576 20.3336 15.5832 19.8976 15.7053C19.8976 15.6704 19.8976 15.6355 19.8976 15.6006C19.9151 15.6006 19.9325 15.6006 19.9499 15.6006C20.2813 15.3216 20.787 15.2693 21.1881 15.0949ZM18.8687 30.7897C18.8687 30.7897 18.6246 30.8246 18.5548 30.8943C18.5025 30.9815 18.1712 31.4873 18.1712 31.4873C18.1712 31.4873 17.5085 31.0862 17.5608 31.0687C17.6132 31.0513 17.8922 30.5281 18.0142 30.4932C18.1363 30.4409 19.2524 30.3363 19.2524 30.3363L19.9674 30.4584L20.1766 30.4758C20.3336 29.5341 20.508 28.6796 20.1592 27.7205C19.3221 24.7908 15.8518 23.4132 13.2186 25.0698C13.1314 25.1396 12.9745 25.2442 12.8698 25.2965C12.6083 24.3897 12.4688 23.4655 12.4688 22.5238C12.4688 17.048 16.933 12.5837 22.4088 12.5837C27.8845 12.5837 32.3488 17.048 32.3488 22.5238C32.3488 23.3434 32.2268 24.2676 32.0349 25.0524L32.0001 25.0175C31.442 24.7211 28.8611 23.9014 28.8437 23.169C29.1576 23.0818 29.4714 23.0121 29.8028 22.9249C29.9946 22.8202 30.3259 22.611 30.5352 22.5063C29.0006 22.0878 28.4077 20.0824 27.9717 19.2802C27.6578 18.7222 27.1347 18.3385 27.0126 17.9025C27.2219 17.9549 27.6578 18.042 27.8671 18.0944C27.8322 18.0246 27.7973 17.9548 27.7799 17.8851C27.5358 17.1527 26.3151 16.9957 25.7745 16.5598C25.7047 16.5074 25.3734 16.211 25.5129 16.211C25.7221 16.1587 25.9837 16.1587 26.2104 16.1063C25.5129 15.496 24.7107 15.1821 24.7107 14.066C24.6584 14.066 24.6061 14.0835 24.6061 14.0137C23.5249 14.502 22.2344 14.3799 21.0486 14.6938C20.4905 14.9031 19.9151 15.1123 19.357 15.3042C19.357 15.3216 19.357 15.339 19.357 15.3565C19.4093 15.5134 19.357 15.6704 19.2698 15.775C19.1652 15.8622 19.0431 15.9668 18.9385 16.054C18.3979 16.3156 17.8573 16.5249 17.5085 16.769C17.1249 17.048 17.0028 17.3619 17.805 18.1118C17.9445 18.2687 18.084 18.4431 18.2235 18.6001C18.2584 18.635 18.2409 18.6175 18.2758 18.6524C18.2409 18.3734 18.1189 17.8328 18.3456 17.6235C19.1129 16.9085 20.3336 18.2687 20.072 19.1407C19.8279 19.9254 18.7467 19.4197 18.7467 19.2802C18.7292 19.2802 18.7118 19.2802 18.6944 19.2802C18.7292 19.6115 19.2175 20.0475 19.1303 20.5532C19.3221 20.5532 20.508 19.5069 20.63 19.2976C20.9614 18.7745 20.9265 18.0769 21.3625 17.5886C21.8856 16.9957 22.8796 16.8039 23.2633 16.1412C23.2284 15.9843 22.3565 14.938 22.5309 14.938C22.5309 14.9205 22.5309 14.9031 22.5309 14.8856C22.775 14.8682 23.0366 14.8508 23.2807 14.8333C23.5597 14.7636 23.8562 14.6938 24.1352 14.6415C24.1352 14.6589 24.1352 14.6764 24.1352 14.6938C24.1178 14.6938 24.1003 14.6938 24.0829 14.6938C24.0829 14.7113 24.0829 14.7287 24.0829 14.7461C23.9783 14.7985 23.1412 15.217 23.1412 15.2519C23.3854 15.6355 24.1352 16.0715 24.0306 16.49C23.8911 17.0306 22.3565 17.3968 21.9205 17.7805C21.2927 18.3385 21.3973 19.2279 20.9963 19.908C20.7521 20.3091 20.3859 20.5183 20.0371 20.7974C19.1303 21.5123 18.8687 22.0355 18.9211 22.4191C18.9908 23.0121 19.235 23.4655 19.7407 24.2153C18.9385 23.9014 18.1014 23.0644 18.1014 22.1227C17.2644 21.8785 15.7123 21.7914 14.8753 22.1053C14.5091 22.332 14.1254 22.5412 13.7592 22.7679C13.6197 22.8377 13.114 23.1341 13.114 23.326C13.2186 23.326 13.2012 23.5003 13.1663 23.5701C13.3232 23.7445 13.6371 24.1805 13.8813 24.1805C14.108 24.0758 14.23 23.6224 14.2824 23.4132C14.3172 23.4132 14.3347 23.4132 14.3521 23.4132C14.4219 23.5352 14.5963 23.7968 14.5963 23.8142C15.0671 23.9363 15.66 23.7619 16.2006 23.7619C17.369 23.7794 18.4328 24.1979 19.3047 24.7559C19.793 25.0698 19.8802 25.6279 20.1941 26.0813C20.4905 26.5172 20.9614 26.9009 21.1706 27.4066C21.502 28.2262 21.0835 30.4933 20.3162 30.8246C19.7756 30.8072 19.3221 30.8071 18.8687 30.7897Z" fill="#ED1C24"/>
<path fill-rule="evenodd" clip-rule="evenodd" d="M22.4262 11.1016C28.7216 11.1016 33.8486 16.2285 33.8486 22.5239C33.8486 28.8193 28.7216 33.9288 22.4262 33.9288C16.1309 33.9288 11.0039 28.8018 11.0039 22.5065C11.0039 16.2111 16.1483 11.1016 22.4262 11.1016ZM22.4262 11.6247C28.4251 11.6247 33.308 16.5075 33.308 22.5065C33.308 28.5054 28.4251 33.3882 22.4262 33.3882C16.4273 33.3882 11.5445 28.5054 11.5445 22.5065C11.5445 16.525 16.4273 11.6247 22.4262 11.6247Z" fill="#ED1C24"/>
<path fill-rule="evenodd" clip-rule="evenodd" d="M6.3999 36.9802H6.99281H7.56828V38.4974H9.92251V36.9802H10.5154H11.1083V40.7644H10.5154H9.92251V39.0903H7.56828V40.7644H6.99281H6.3999V36.9802Z" fill="black"/>
<path fill-rule="evenodd" clip-rule="evenodd" d="M14.8403 40.852C13.9858 40.852 13.3231 40.6776 12.8871 40.3463C12.4337 40.015 12.207 39.5267 12.207 38.8815C12.207 38.2362 12.4337 37.7479 12.8871 37.4166C13.3405 37.0853 13.9858 36.9109 14.8403 36.9109C15.6948 36.9109 16.3574 37.0853 16.8108 37.4166C17.2642 37.7479 17.4735 38.2362 17.4735 38.8815C17.4735 39.5267 17.2468 40.015 16.8108 40.3463C16.3574 40.6776 15.7122 40.852 14.8403 40.852ZM14.8403 40.2591C15.3285 40.2591 15.6948 40.137 15.9389 39.9103C16.183 39.6836 16.3226 39.3349 16.3226 38.8815C16.3226 38.4281 16.2005 38.0793 15.9389 37.8526C15.6948 37.6084 15.3285 37.5038 14.8403 37.5038C14.352 37.5038 14.0032 37.6259 13.7416 37.8526C13.4975 38.0967 13.358 38.4281 13.358 38.8815C13.358 39.3349 13.4801 39.6836 13.7416 39.9103C14.0032 40.137 14.3694 40.2591 14.8403 40.2591Z" fill="black"/>
<path fill-rule="evenodd" clip-rule="evenodd" d="M18.5894 40.7644V36.9802H19.1823H19.7577V40.1889H22.1294V40.4854V40.7644H18.5894Z" fill="black"/>
<path fill-rule="evenodd" clip-rule="evenodd" d="M23.0015 36.9802H23.5944H25.2685C26.1055 36.9802 26.7682 37.1546 27.2565 37.4859C27.7448 37.8173 27.9715 38.2881 27.9715 38.881C27.9715 39.5088 27.7099 39.9797 27.1693 40.2936C26.6287 40.6249 25.844 40.7819 24.8151 40.7819H23.5944H23.0015V36.9802ZM24.1699 40.1889H24.9895C25.5824 40.1889 26.0358 40.0843 26.3323 39.8576C26.6462 39.6309 26.7857 39.317 26.7857 38.881C26.7857 38.4625 26.6287 38.1312 26.3148 37.9045C26.0009 37.6778 25.5475 37.5557 24.9546 37.5557H24.1699V40.1889Z" fill="black"/>
<path fill-rule="evenodd" clip-rule="evenodd" d="M28.9307 40.7644V36.9802H32.6625V37.2592V37.5557H30.0991V38.4974H32.523V38.7938V39.0903H30.0991V40.1889H32.7497V40.4854V40.7644H28.9307Z" fill="black"/>
<path fill-rule="evenodd" clip-rule="evenodd" d="M34.7029 40.7644H34.1623H33.6392V36.9802H34.4588H35.2784L37.3362 39.8402V36.9802H37.8593H38.3999V40.7644H37.5977H36.7956L34.7029 37.8696V40.7644Z" fill="black"/>
</svg>
