<svg width="48" height="48" viewBox="0 0 48 48" fill="none" xmlns="http://www.w3.org/2000/svg">
<g clip-path="url(#clip0_26_72947)">
<path d="M34.688 24.888C34.6619 26.3235 34.972 27.0839 36.1553 27.0839C37.3367 27.0839 37.5063 25.7886 37.5063 24.803C37.5063 23.8168 37.2821 22.8593 36.0409 22.8593C35.2794 22.8593 34.7172 23.451 34.688 24.888ZM32.2939 30.8867V21.1697H34.7172C34.7172 21.1697 34.7172 21.3104 34.7172 21.5639C34.7172 22.0897 34.9293 21.8728 35.1001 21.668C35.1287 21.6337 35.6688 20.9726 36.8851 20.9726C38.0977 20.9726 39.9842 21.8173 39.9842 24.803C39.9842 27.1125 38.8587 28.8021 36.915 28.8021C35.844 28.8021 35.2248 28.3804 35.0832 28.2102C34.9414 28.0424 34.7445 28.0131 34.7445 28.2102C34.7445 28.4077 34.7445 30.8867 34.7445 30.8867H32.2939Z" fill="#231F20"/>
<path d="M13.5641 18.016H16.1836C16.1836 18.016 16.1836 23.7047 16.1836 24.888C16.1836 26.0701 15.676 28.5493 12.0434 28.5493C8.41027 28.5493 8.01611 26.2386 8.01611 24.944V23.6767H10.5511C10.5511 23.6767 10.5511 24.1554 10.5511 24.9154C10.5511 25.6757 11.0582 26.3795 12.0152 26.3795C12.9726 26.3795 13.5641 25.8446 13.5641 24.944C13.5641 24.0427 13.5641 18.016 13.5641 18.016Z" fill="#231F20"/>
<path d="M21.6618 23.8456C21.6618 23.1407 21.2683 22.4649 20.367 22.4649C19.4939 22.4649 19.1839 23.0839 19.1839 23.8456H21.6618ZM20.1144 20.8881C22.1715 20.8881 23.9732 21.6764 23.9732 25.3097H19.1013C19.1013 26.4644 19.5795 26.9433 20.4245 26.9433C21.2696 26.9433 21.551 26.2669 21.551 26.2669H23.9457C23.9457 27.3093 22.5091 28.7175 20.3399 28.6895C17.8622 28.6895 16.6509 26.8588 16.6509 24.9717C16.6509 23.0839 17.7204 20.8881 20.1144 20.8881Z" fill="#231F20"/>
<path d="M29.45 23.8456C29.45 23.1407 29.0561 22.4649 28.1548 22.4649C27.2822 22.4649 26.9715 23.0839 26.9715 23.8456H29.45ZM27.9027 20.8881C29.9595 20.8881 31.7608 21.6764 31.7608 25.3097H26.8891C26.8891 26.4644 27.3678 26.9433 28.2134 26.9433C29.0576 26.9433 29.3395 26.2669 29.3395 26.2669H31.7341C31.7341 27.3093 30.2973 28.7175 28.1288 28.6895C25.6498 28.6895 24.4385 26.8588 24.4385 24.9717C24.4385 23.0839 25.5093 20.8881 27.9027 20.8881Z" fill="#231F20"/>
<path d="M38.38 29.7219C38.38 29.337 38.6933 29.0244 39.0794 29.0244C39.4642 29.0244 39.7769 29.337 39.7769 29.7219C39.7769 30.1061 39.4642 30.4206 39.0794 30.4206C38.6933 30.4206 38.38 30.1061 38.38 29.7219ZM38.2993 29.7219C38.2993 30.1525 38.6479 30.502 39.0794 30.502C39.508 30.502 39.8586 30.1525 39.8586 29.7219C39.8586 29.2913 39.508 28.9418 39.0794 28.9418C38.6479 28.9418 38.2993 29.2913 38.2993 29.7219Z" fill="#231F20"/>
<path d="M39.392 30.1208L39.2301 29.7384C39.2814 29.7206 39.2986 29.708 39.3259 29.6788C39.3615 29.6406 39.3838 29.5803 39.3838 29.5257C39.3838 29.3878 39.2778 29.2939 39.124 29.2939H38.7988V30.1208H38.8953V29.7627H39.1303L39.2847 30.1208H39.392ZM38.8927 29.6788V29.3839H39.1221C39.2179 29.3839 39.2788 29.4385 39.2788 29.5231C39.2788 29.6192 39.2142 29.6788 39.1086 29.6788H38.8927Z" fill="#231F20"/>
</g>
<defs>
<clipPath id="clip0_26_72947">
<rect width="32" height="12.9027" fill="white" transform="translate(8 18)"/>
</clipPath>
</defs>
</svg>
