<svg width="48" height="48" viewBox="0 0 48 48" fill="none" xmlns="http://www.w3.org/2000/svg">
<g clip-path="url(#clip0_26_72976)">
<path d="M26.5645 26.6648C26.5645 26.7256 26.5836 26.7608 26.6189 26.7608C26.6486 26.7608 26.6733 26.7448 26.6957 26.7288L36.6691 20.2559C36.8376 20.1381 37.0395 20.0775 37.245 20.0831H39.4368C39.7728 20.0831 39.9999 20.307 39.9999 20.643V24.8282C39.9999 25.3337 39.8879 25.6281 39.44 25.8968L36.7811 27.4967C36.7545 27.5151 36.7232 27.5287 36.6915 27.5287C36.6598 27.5287 36.6275 27.5031 36.6275 27.4103V22.5277C36.6275 22.47 36.6116 22.4317 36.5731 22.4317C36.545 22.4317 36.5184 22.446 36.4963 22.4637L29.2074 27.1992C29.041 27.3112 28.8458 27.3721 28.6474 27.3688H23.8159C23.4767 27.3688 23.2527 27.1449 23.2527 26.8057V20.7743C23.2527 20.7295 23.2336 20.688 23.1951 20.688C23.1671 20.688 23.1406 20.7026 23.1183 20.72L18.3093 23.6059C18.2613 23.638 18.2486 23.6604 18.2486 23.6828C18.2486 23.7019 18.2582 23.7211 18.2901 23.7564L21.7266 27.1896C21.7714 27.2344 21.8034 27.2696 21.8034 27.308C21.8034 27.34 21.7522 27.3656 21.6914 27.3656H18.5877C18.3445 27.3656 18.1557 27.3304 18.0245 27.1992L15.9415 25.1195C15.9256 25.1004 15.9026 25.0874 15.8776 25.0874C15.855 25.0874 15.833 25.0951 15.8136 25.1066L12.3324 27.1992C12.1212 27.3273 11.9772 27.3624 11.7692 27.3624H8.56636C8.22403 27.3656 8 27.1385 8 26.8025V22.6973C8 22.1885 8.11197 21.8973 8.56315 21.6286L11.2381 20.0224C11.2589 20.0083 11.2834 20.0005 11.3085 20C11.3501 20 11.3725 20.0416 11.3725 20.1344V25.6314C11.3725 25.689 11.3852 25.7145 11.4269 25.7145C11.4552 25.7145 11.4813 25.6986 11.5069 25.6825L20.5428 20.2462C20.7156 20.1278 20.9268 20.0703 21.138 20.0798H26.0015C26.3375 20.0798 26.5646 20.3038 26.5646 20.6398L26.5614 26.6648H26.5645Z" fill="#131E29"/>
</g>
<defs>
<clipPath id="clip0_26_72976">
<rect width="32" height="7.52882" fill="white" transform="translate(8 20)"/>
</clipPath>
</defs>
</svg>
