<svg width="48" height="48" viewBox="0 0 48 48" fill="none" xmlns="http://www.w3.org/2000/svg">
<path d="M24.2526 32.4651C28.5416 29.0905 30.5571 24.7229 31.4544 21.289C32.3723 17.7725 32.5119 14.3938 32.5088 14.2731L32.5029 14.0828L32.3611 13.9665C28.8666 10.7341 24.3545 9.00642 24.1417 8.93639L24.0286 8.89868L23.916 8.93639C23.7032 9.00642 19.3002 10.7341 15.6966 13.9665L15.5543 14.0828L15.5489 14.2731C15.5453 14.3938 15.645 17.7824 16.5997 21.289C17.4831 24.5321 19.3581 29.2188 23.8051 32.4651L24.0286 32.6285L24.2526 32.4651Z" fill="#1A377A"/>
<path fill-rule="evenodd" clip-rule="evenodd" d="M24.0336 12.1116C23.2831 12.3558 18.9447 13.811 16.3018 15.7811C16.3098 17.1839 16.7771 26.2794 24.0336 31.9294C31.1218 26.2794 31.7462 17.1834 31.7543 15.7811C29.1113 13.811 24.7842 12.3558 24.0336 12.1116Z" fill="#CB9F18"/>
<path d="M23.8542 9.50464L23.8654 9.93107C23.7079 9.8211 23.4942 9.76274 23.2482 9.76274C23.1329 9.76274 22.9829 9.79147 22.8555 9.8413L22.8779 10.1331C23.0103 10.0581 23.1338 10.0433 23.2595 10.0433C23.6203 10.0433 23.8767 10.3135 23.8767 10.6717C23.8767 11.0277 23.6217 11.3001 23.2482 11.3001C23.1104 11.3001 22.9493 11.2755 22.8667 11.2328L22.8555 11.5246C22.9834 11.5547 23.1154 11.5807 23.2482 11.5807C23.4879 11.5807 23.7043 11.5273 23.8654 11.4236L23.8542 11.8051H24.0225H24.2021V11.4348C24.3587 11.5268 24.5598 11.5807 24.7856 11.5807C24.9185 11.5807 25.0505 11.5547 25.1784 11.5246L25.1672 11.2328C25.0846 11.2755 24.9234 11.3001 24.7856 11.3001C24.4126 11.3001 24.1909 11.0272 24.1909 10.6717C24.1909 10.3131 24.414 10.0433 24.7744 10.0433C24.9001 10.0433 25.0231 10.0577 25.156 10.1331L25.1784 9.8413C25.0509 9.79102 24.901 9.76274 24.7856 9.76274C24.5545 9.76274 24.3561 9.82244 24.2021 9.91985V9.50464H24.0225H23.8542Z" fill="#CB9F18"/>
<path d="M24.0225 12.1082V13.2528L26.6933 13.0957C25.4014 12.566 24.3578 12.2168 24.0225 12.1082ZM24.0225 13.2528V15.4635L28.2643 15.0707L31.7207 16.4061C31.7359 16.1314 31.7422 15.9151 31.7431 15.7777C31.3486 15.4837 30.9158 15.2049 30.4638 14.9361L28.2643 15.0595L24.0225 13.2528ZM24.0225 15.4635V15.4747V17.6854L28.2643 17.1243L31.5299 18.269C31.6121 17.7034 31.6556 17.2042 31.687 16.7989L28.2643 17.1131L24.0225 15.4635ZM24.0225 17.6854V19.9074L28.2643 19.1892L31.1932 20.0981C31.2992 19.6264 31.3822 19.1797 31.4513 18.7627L28.2643 19.1667L24.0225 17.6854ZM24.0225 19.9074V22.1181L28.2643 21.2428L30.7107 21.9161C30.831 21.5242 30.9311 21.1422 31.0249 20.7714L28.2643 21.2315L24.0225 19.9074ZM24.0225 22.1181V24.34L28.2643 23.2964L30.0711 23.7228C30.1896 23.427 30.2941 23.137 30.3965 22.8475L28.2643 23.2851L24.0225 22.1181ZM24.0225 24.34V26.5507L28.2643 25.3612L29.2406 25.552C29.3273 25.3823 29.4067 25.2158 29.4875 25.047L28.2643 25.3388L24.0225 24.34ZM24.0225 26.5507V26.5619V28.7726L28.1297 27.4597C28.1458 27.4354 28.1588 27.4058 28.1746 27.3811L24.0225 26.5507ZM24.0225 28.7726V30.9946L25.7843 30.3549C26.1506 29.9846 26.494 29.6071 26.8167 29.2215L24.0225 28.7726ZM24.0225 30.9946V31.926C24.3641 31.6598 24.6868 31.3869 24.9988 31.1068L24.0225 30.9946Z" fill="#CB9F18"/>
<path d="M24.0226 12.1082C23.6877 12.2168 22.6315 12.566 21.3406 13.0957L24.0226 13.2528V12.1082ZM24.0226 13.2528L19.7807 15.0595L17.5813 14.9361C17.1288 15.2054 16.6965 15.4832 16.302 15.7777C16.3029 15.9155 16.2975 16.1301 16.3132 16.4061L19.7807 15.0707L24.0226 15.4635V13.2528ZM24.0226 15.4635L19.7807 17.1131L16.3468 16.7989C16.3783 17.2051 16.4326 17.702 16.5152 18.269L19.7807 17.1243L24.0226 17.6854V15.4635ZM24.0226 17.6854L19.7807 19.1667L16.5825 18.7627C16.6521 19.1806 16.7459 19.6246 16.8518 20.0981L19.7807 19.1892L24.0226 19.9074V17.6854ZM24.0226 19.9074L19.7807 21.2315L17.0089 20.7602C17.1032 21.1319 17.2136 21.5229 17.3344 21.9161L19.7807 21.2428L24.0226 22.1181V19.9074ZM24.0226 22.1181L19.7807 23.2851L17.6374 22.8475C17.7402 23.1384 17.8551 23.4256 17.974 23.7228L19.7807 23.2964L24.0226 24.34V22.1181ZM24.0226 24.34L19.7807 25.3388L18.5463 25.047C18.6276 25.2171 18.7057 25.3809 18.7932 25.552L19.7807 25.3612L24.0226 26.5507V24.34ZM24.0226 26.5619L19.8593 27.3811C19.8741 27.4036 19.8894 27.426 19.9042 27.4485L24.0226 28.7726V26.5619ZM24.0226 28.7726L21.2171 29.2215C21.5381 29.6049 21.8855 29.9869 22.2496 30.3549L24.0226 30.9946V28.7726ZM24.0226 30.9946L23.0351 31.118C23.3466 31.3977 23.6815 31.6603 24.0226 31.926V30.9946Z" fill="#E3B80F"/>
<path d="M21.3516 13.0991C20.1801 13.5794 18.8069 14.2105 17.5811 14.9395L19.7806 15.063L24.0224 13.2562L21.3516 13.0991ZM19.7806 15.0742L16.3242 16.4096C16.331 16.5281 16.3354 16.6614 16.3467 16.8023L19.7806 17.1166L24.0224 15.4669L19.7806 15.0742ZM19.7806 17.1278L16.515 18.2724C16.5379 18.43 16.5545 18.5983 16.5823 18.7662L19.7806 19.1702L24.0224 17.6889L19.7806 17.1278ZM19.7806 19.1926L16.8516 20.1016C16.9001 20.3184 16.9513 20.537 17.0088 20.7637L19.7806 21.235L24.0224 19.9108L19.7806 19.1926ZM19.7806 21.2462L17.3342 21.9195C17.4276 22.2248 17.5254 22.5354 17.6372 22.8509L19.7806 23.2886L24.0224 22.1215L19.7806 21.2462ZM19.7806 23.2998L17.9738 23.7262C18.1476 24.1599 18.3352 24.6092 18.5462 25.0504L19.7806 25.3422L24.0224 24.3434L19.7806 23.2998ZM19.7806 25.3646L18.793 25.5554C19.1059 26.1668 19.4637 26.7772 19.8591 27.3846L24.0224 26.5542L19.7806 25.3646ZM19.904 27.4519C20.2981 28.0521 20.7322 28.6459 21.217 29.225L24.0224 28.7761L19.904 27.4519ZM22.2494 30.3584C22.5034 30.6156 22.7584 30.8737 23.0349 31.1215L24.0224 30.998L22.2494 30.3584Z" fill="#DA442D"/>
<path d="M26.6933 13.0991L24.0225 13.2562L28.2643 15.063L30.4638 14.9395C29.2384 14.2105 27.8648 13.5799 26.6933 13.0991ZM28.2643 15.0742L24.0225 15.4669L28.2643 17.1166L31.6982 16.8023C31.7095 16.6596 31.7144 16.5294 31.7207 16.4096L28.2643 15.0742ZM28.2643 17.1278L24.0225 17.6889L28.2643 19.1702L31.4513 18.7662C31.4792 18.5969 31.507 18.4313 31.5299 18.2724L28.2643 17.1278ZM28.2643 19.1926L24.0225 19.9108L28.2643 21.235L31.0249 20.7749C31.0828 20.5469 31.1443 20.3197 31.1932 20.1016L28.2643 19.1926ZM28.2643 21.2462L24.0225 22.1215L28.2643 23.2886L30.3965 22.8509C30.5083 22.5345 30.6164 22.2266 30.7107 21.9195L28.2643 21.2462ZM28.2643 23.2998L24.0225 24.3434L28.2643 25.3422L29.4875 25.0504C29.6994 24.6078 29.8973 24.1612 30.0711 23.7262L28.2643 23.2998ZM28.2643 25.3646L24.0225 26.5542L28.1746 27.3846C28.57 26.7772 28.9282 26.1668 29.2406 25.5554L28.2643 25.3646ZM28.1297 27.4631L24.0225 28.7761L26.8167 29.225C27.3001 28.6473 27.7365 28.0615 28.1297 27.4631ZM25.7843 30.3584L24.0225 30.998L24.9988 31.1102C25.273 30.8643 25.532 30.6138 25.7843 30.3584Z" fill="#C83E29"/>
<path d="M22.3169 34.6116L22.2608 35.0604L23.3493 35.0492L23.3942 34.6116H22.3169ZM9.43417 34.6228L9.01896 37.9445H10.1075L10.2758 36.5642H10.287L10.9603 37.9332H12.1611L11.2858 36.2051L12.4641 34.6228H11.3307L10.3656 35.947H10.3544L10.5115 34.6228H9.43417ZM30.7333 35.24C30.2521 35.2409 29.9527 35.3877 29.8917 35.8796L29.7121 37.316C29.6452 37.8547 29.9532 37.9449 30.3405 37.9445H31.732C32.1661 37.9436 32.457 37.8035 32.5176 37.316L32.54 37.1141H31.4515C31.4097 37.338 31.2203 37.4054 31.1036 37.4058C30.819 37.4058 30.8172 37.1845 30.8343 37.0467L30.8567 36.8559H32.5737L32.6971 35.8684C32.76 35.3639 32.4803 35.2395 32.0463 35.24H30.7333ZM33.8081 35.24C33.4019 35.2404 33.1159 35.3854 33.0562 35.8684L32.8879 37.2824C32.8269 37.7739 33.0742 37.9113 33.4714 37.9108H33.8305C34.0123 37.9104 34.2175 37.8875 34.3692 37.7537C34.4482 37.6846 34.4549 37.6576 34.56 37.4507H34.5712L34.4814 38.1689H32.843L32.7757 38.831H34.7058C35.0281 38.831 35.4995 38.7785 35.5699 38.2138L35.929 35.2624H34.8405L34.7956 35.644H34.7844C34.7153 35.411 34.5698 35.2395 34.2009 35.24H33.8081ZM36.8156 35.24C36.4882 35.275 36.273 35.4458 36.2208 35.8684L36.0412 37.2824C35.9802 37.7739 36.2388 37.9113 36.636 37.9108H36.9839C37.1657 37.9108 37.3704 37.8762 37.5225 37.7425C37.6011 37.6734 37.6195 37.6576 37.7245 37.4507L37.646 38.1577L36.0076 38.1689L35.929 38.831L37.8704 38.8198C38.1927 38.8193 38.664 38.7785 38.7345 38.2138L39.0936 35.2624H38.0051L37.949 35.6328C37.8798 35.3998 37.7232 35.2395 37.3542 35.24H36.9727C36.9219 35.2401 36.8623 35.235 36.8156 35.24ZM20.858 35.2512C20.5407 35.2512 20.4276 35.3248 20.3082 35.4195C20.2085 35.5102 20.1906 35.5407 20.1286 35.7001H20.1174L20.1623 35.2849H19.0738L18.7483 37.9332H19.8369L20.0501 36.1939C20.0626 36.0902 20.1008 35.7903 20.4092 35.7899C20.7265 35.7894 20.6924 36.048 20.6785 36.1602L20.4653 37.9332L21.5538 37.922L21.8007 35.8909C21.8658 35.3693 21.5888 35.2508 21.2059 35.2512H20.858ZM24.3256 35.2512C23.9194 35.2517 23.6334 35.3967 23.5737 35.8796L23.4054 37.2936C23.3444 37.7851 23.6029 37.9225 24.0002 37.922H24.348C24.5298 37.922 24.735 37.8987 24.8867 37.7649C24.9657 37.6958 24.9724 37.6689 25.0775 37.4619H25.0887L24.9989 38.1801H23.3717L23.2932 38.8422H25.2346C25.5569 38.8422 26.0174 38.7897 26.0874 38.225L26.4465 35.2737H25.358L25.3131 35.6552H25.3019C25.2328 35.4222 25.0873 35.2508 24.7184 35.2512H24.3256ZM27.3443 35.2512C27.0168 35.2871 26.7905 35.4574 26.7383 35.8796L26.6934 36.2387C26.6126 36.8901 27.0054 36.9035 27.4341 36.9121L28.343 36.9345L28.3318 37.0131C28.3219 37.0907 28.2779 37.3942 27.9278 37.3946C27.8529 37.3946 27.781 37.3816 27.7258 37.3385C27.6702 37.2994 27.6343 37.2384 27.6361 37.1477H26.5588L26.5363 37.3048C26.4622 37.9041 26.8676 37.9449 27.2321 37.9445H28.5675C29.0249 37.944 29.3175 37.7703 29.3755 37.3048L29.4203 36.9569C29.4953 36.3532 29.059 36.3366 28.6909 36.3285L27.7707 36.3173L27.7932 36.1153C27.834 35.7876 28.1244 35.7899 28.1523 35.7899C28.1944 35.7899 28.2604 35.8029 28.3206 35.846C28.3807 35.8891 28.4324 35.9569 28.4216 36.0816H29.5101L29.5326 35.8796C29.5914 35.4052 29.3535 35.2508 28.9378 35.2512H27.4902C27.4394 35.2513 27.3911 35.2461 27.3443 35.2512ZM13.5077 35.2624C13.1993 35.2629 12.7621 35.2961 12.6885 35.8909L12.509 37.3273C12.4403 37.8789 12.7675 37.9674 13.1598 37.9669L14.5065 37.9557C14.9549 37.9552 15.2561 37.7968 15.3144 37.3273L15.494 35.8909C15.5555 35.3953 15.314 35.262 14.8656 35.2624H13.5077ZM16.6835 35.2624C16.2027 35.2633 15.9029 35.3998 15.8419 35.8909L15.6623 37.3273C15.5954 37.8659 15.9034 37.9561 16.2907 37.9557H17.6822C18.1163 37.9548 18.4072 37.8143 18.4678 37.3273L18.4902 37.1365H17.4017C17.36 37.3609 17.1705 37.4166 17.0538 37.417C16.7692 37.417 16.7674 37.1962 16.7845 37.0579L16.8069 36.8784H18.5239L18.6473 35.8909C18.7102 35.3863 18.4305 35.262 17.9965 35.2624H16.6835ZM23.3156 35.2737L22.2271 35.2849L21.9017 37.922H22.9902L23.3156 35.2737ZM34.4702 35.7338C34.7831 35.7333 34.7521 36.0161 34.7395 36.1153L34.6273 37.0018C34.6188 37.071 34.5811 37.3717 34.2682 37.3722C34.0114 37.3722 33.9809 37.1666 33.9989 37.0243L34.1223 36.0816C34.1421 35.9223 34.2273 35.7342 34.4702 35.7338ZM37.545 35.7338C37.5707 35.7282 37.6044 35.7338 37.6348 35.7338C37.9476 35.7338 37.9054 36.0161 37.8929 36.1153L37.7806 36.9906C37.7721 37.0597 37.7344 37.3717 37.4215 37.3722C37.1648 37.3726 37.1455 37.1666 37.1634 37.0243L37.2757 36.0816C37.2929 35.9422 37.365 35.7726 37.545 35.7338ZM24.9877 35.745C25.3006 35.745 25.2696 36.0273 25.257 36.1265L25.1448 37.0131C25.1363 37.0822 25.0986 37.3829 24.7857 37.3834C24.529 37.3838 24.4989 37.1778 24.5164 37.0355L24.6398 36.0929C24.6596 35.9331 24.7449 35.7454 24.9877 35.745ZM31.2944 35.7786C31.4762 35.7786 31.6077 35.8859 31.5749 36.149L31.5525 36.3285H30.9241L30.9465 36.1041C30.9712 35.9057 31.1166 35.7791 31.2944 35.7786ZM14.1025 35.7899C14.4153 35.7894 14.3808 36.0646 14.3718 36.1377L14.2596 37.0692C14.2434 37.2029 14.2133 37.417 13.9005 37.417C13.5876 37.4175 13.6145 37.2029 13.6312 37.0692L13.7434 36.1377C13.7523 36.0646 13.7901 35.7899 14.1025 35.7899ZM17.2446 35.8011C17.4264 35.8011 17.5579 35.8972 17.5251 36.1602L17.5027 36.3397H16.8743L16.8967 36.1265C16.9214 35.9286 17.0668 35.8015 17.2446 35.8011ZM32.4502 38.1577L26.4914 38.1689C26.4914 38.1689 26.4582 38.6196 26.2445 38.831L32.3717 38.8198L32.4502 38.1577ZM22.9565 38.1689L8.99651 38.1914L8.90674 38.8534L22.878 38.831L22.9565 38.1689Z" fill="#181A21" fill-opacity="0.941176"/>
<path d="M24.0225 9.50806V11.8085H24.202V11.4382C24.3587 11.5302 24.5598 11.5841 24.7855 11.5841C24.9184 11.5841 25.0504 11.5581 25.1783 11.528L25.1671 11.2362C25.0845 11.2789 24.9234 11.3036 24.7855 11.3036C24.4125 11.3036 24.1908 11.0306 24.1908 10.6751C24.1908 10.3165 24.4139 10.0467 24.7743 10.0467C24.9 10.0467 25.023 10.0611 25.1559 10.1365L25.1783 9.84471C25.0508 9.79444 24.9009 9.76616 24.7855 9.76616C24.5544 9.76616 24.356 9.82586 24.202 9.92327V9.50806H24.0225Z" fill="#CB9F18"/>
<path d="M23.8542 9.50806L23.8654 9.93449C23.7079 9.82451 23.4942 9.76616 23.2482 9.76616C23.1329 9.76616 22.9829 9.79489 22.8555 9.84471L22.8779 10.1365C23.0103 10.0615 23.1338 10.0467 23.2595 10.0467C23.6203 10.0467 23.8767 10.3169 23.8767 10.6751C23.8767 11.0311 23.6217 11.3036 23.2482 11.3036C23.1104 11.3036 22.9493 11.2789 22.8667 11.2362L22.8555 11.528C22.9834 11.5581 23.1154 11.5841 23.2482 11.5841C23.4879 11.5841 23.7043 11.5307 23.8654 11.427L23.8542 11.8085H24.0225V9.50806H23.8542Z" fill="#E3B80F"/>
</svg>
