<svg width="48" height="48" viewBox="0 0 48 48" fill="none" xmlns="http://www.w3.org/2000/svg">
<g clip-path="url(#clip0_26_72942)">
<path d="M23.9416 39.9424C23.6235 39.8226 21.3053 38.6935 20.6799 38.3535C16.354 36.0028 13.4756 33.1779 11.1294 28.9808C9.54429 26.1446 8.69945 23.1208 8.42221 19.2889C8.35962 18.4263 8.391 15.5789 8.47384 14.5745L8.51003 14.136L9.14038 13.6541C11.435 11.8999 14.1624 10.4029 16.5622 9.58065C17.9346 9.11034 19.5794 8.73365 21.2557 8.50572C22.4877 8.33821 25.4565 8.3241 26.6554 8.47982C29.5356 8.85401 31.7357 9.50013 34.1655 10.6853C36.0039 11.5821 37.9476 12.8184 39.4178 14.0261L39.618 14.1907L39.6806 15.3146C39.7583 16.7038 39.7148 19.3982 39.5983 20.4314C39.4064 22.1344 39.172 23.2834 38.6827 24.9207C38.267 26.3124 38.0125 26.9567 37.3983 28.1696C36.1746 30.5868 34.856 32.4229 33.0459 34.2299C30.9342 36.3381 28.9074 37.7013 25.4399 39.3455C24.1533 39.9554 24.0671 39.9897 23.9416 39.9424ZM12.8249 28.8441C12.7639 28.7444 12.5403 28.3149 12.3277 27.8896C11.1553 25.5436 10.4534 23.1318 10.1522 20.4125C10.0471 19.4632 9.98953 16.5477 10.0579 15.6433L10.1057 15.0128L9.95218 14.7989C9.76143 14.5335 9.76143 14.5131 9.95401 14.4745C10.0397 14.4574 10.2308 14.3489 10.3788 14.2333C11.0945 13.6749 12.5343 12.7296 13.302 12.3144C14.6465 11.5871 14.7496 11.5501 17.6925 10.7346C18.8676 10.4091 19.8675 10.1662 20.6253 10.0222C21.123 9.92778 21.3508 9.83216 21.0782 9.83216C20.9985 9.83216 20.917 9.80576 20.8971 9.77356C20.8398 9.68076 21.0282 9.57517 21.5298 9.41912C21.7861 9.33927 22.0178 9.25294 22.0449 9.22721C22.1447 9.13192 21.7809 9.10718 21.1522 9.16695C17.9284 9.47291 14.4023 10.7982 11.3062 12.8674C10.8538 13.1695 10.1926 13.6118 9.8363 13.85L9.18885 14.2831L9.41181 14.4888C9.61551 14.6769 9.63095 14.7103 9.59326 14.8808C9.52885 15.1705 9.55392 18.428 9.62713 19.3158C9.7855 21.2329 10.0691 22.6822 10.6561 24.5784C11.1784 26.2641 12.0222 28.0098 12.7283 28.8641C12.9276 29.1061 12.9784 29.0953 12.8249 28.8441ZM36.5928 27.5941C37.3305 26.1305 37.6785 25.2299 37.9803 24.0034C38.1341 23.378 38.2531 22.4838 38.1724 22.5577C38.1516 22.5768 38.0266 23.0084 37.8945 23.5171C37.3691 25.5385 36.9778 26.6267 36.24 28.1147C36.0157 28.5671 35.8824 28.8753 35.9433 28.8C36.0044 28.7246 36.2966 28.1819 36.5928 27.5941ZM15.0063 17.0162C15.0063 16.9868 15.0533 16.9377 15.1109 16.9068C15.1685 16.8759 15.2729 16.7581 15.3426 16.6443C15.4125 16.531 15.6574 16.2285 15.8868 15.9722C17.0575 14.6645 18.1577 13.8322 19.5921 13.1692C20.239 12.87 20.6464 12.7273 21.5296 12.4895C21.9367 12.38 22.2931 12.2677 22.3218 12.24C22.3504 12.2123 22.4367 12.1881 22.5137 12.1861C22.6474 12.1826 22.6457 12.1788 22.4709 12.0918C22.2982 12.0059 22.2564 12.0076 21.7034 12.1216C19.6387 12.548 17.6124 13.6651 16.1735 15.1701C15.6335 15.7353 15.0159 16.5314 14.8286 16.9041C14.7604 17.0398 14.6699 17.194 14.6278 17.2468C14.5758 17.3114 14.5713 17.3428 14.614 17.3428C14.6487 17.3428 14.6772 17.3834 14.6772 17.4332C14.6772 17.4869 14.7441 17.4314 14.8418 17.2966C14.9321 17.1719 15.0063 17.0456 15.0063 17.0162Z" fill="#E6E7E8"/>
<path d="M23.1195 39.4695C21.0393 38.4886 19.7501 37.7842 18.487 36.9388C15.2734 34.7878 12.8356 32.038 10.93 28.4141C9.91296 26.4793 9.15827 24.1362 8.78407 21.7518C8.52194 20.0814 8.46533 19.0684 8.50517 16.7671C8.52476 15.6213 8.55531 14.5774 8.57274 14.4471C8.60246 14.2256 8.63881 14.1829 9.13303 13.7895C11.6511 11.784 14.9282 10.098 17.8796 9.2892C19.9853 8.7123 21.8825 8.45598 24.0515 8.45581C26.0776 8.45564 27.7789 8.66964 29.8349 9.18328C33.0348 9.98263 36.5195 11.7985 39.4908 14.2151C39.6615 14.3539 39.6988 18.5549 39.5435 20.1386C39.3663 21.9469 39.1198 23.1833 38.5778 24.9885C37.9534 27.0677 37.197 28.6355 35.8135 30.719C34.8707 32.1384 34.1666 33.0023 33.0191 34.148C31.1298 36.0344 29.2233 37.3696 26.4153 38.7736C25.1994 39.3814 24.1343 39.8741 24.0408 39.8721C24.0013 39.8711 23.5868 39.69 23.1195 39.4695ZM25.4347 38.6529C26.9144 37.9045 27.4962 37.564 27.8286 37.2521L29.6419 36.2615L32.6733 34.0465L36.7299 28.5595L38.8656 22.5921L39.2534 17.7321L39.03 14.5078L35.8387 12.1021L31.9145 10.2443C30.8135 9.74042 28.4384 9.1358 26.5182 8.87035C25.5306 8.73405 23.0285 8.70201 21.9305 8.81191C19.6503 9.04018 17.5265 9.5495 15.8177 10.2778C13.7426 11.1622 12.6102 11.783 10.5385 13.1716C9.11627 14.1248 9.05683 14.1715 9.02048 14.3687C8.99989 14.4816 8.96619 15.2152 8.9456 15.9993C8.82408 20.6261 9.60219 24.5755 11.3048 27.9753C13.9901 33.1136 18.4889 37.3248 24.0093 39.2677C24.1643 39.27 24.5102 39.1206 25.4347 38.6529Z" fill="#ACAFB2"/>
<path d="M23.0643 37.2911C20.1462 35.7761 18.4132 34.569 16.7017 32.8594C15.119 31.2785 14.0806 29.8904 12.9827 27.889C11.1102 24.4754 10.3897 20.6795 10.712 15.9269L10.7467 15.4154L11.2728 15.0185C13.7115 13.1781 16.2874 11.8749 18.7608 11.2299C20.6472 10.738 21.9564 10.574 23.9962 10.574C25.8768 10.574 26.8938 10.6852 28.6832 11.087C30.9247 11.59 33.3558 12.6686 35.5357 14.127C36.4337 14.7278 37.2892 15.3779 37.3398 15.4979C37.3672 15.563 37.3918 16.6276 37.3944 17.8636C37.3991 19.9147 37.3888 20.1904 37.2752 21.0159C36.8122 24.3811 35.8772 26.8751 34.0488 29.6225C32.2146 32.3783 29.8458 34.5781 26.874 36.2842C26.291 36.6189 24.2439 37.7101 24.1056 37.7598C24.0606 37.776 23.5918 37.565 23.0643 37.2911Z" fill="#01336B"/>
<path d="M25.2455 33.9499C27.2393 33.7327 29.1569 32.9849 30.7539 31.801C31.3024 31.3946 32.2759 30.4555 32.7285 29.8965C33.8728 28.4826 34.6657 26.8077 35.0517 24.99C35.1938 24.32 35.2031 24.194 35.2044 22.8795C35.2057 21.6614 35.1906 21.4006 35.0851 20.8511C34.4504 17.541 32.4642 14.7664 29.5248 13.0839C28.4943 12.4937 27.1664 12.0256 25.8876 11.8009C25.0341 11.6512 23.3581 11.6216 22.5434 11.742C19.7709 12.1521 17.3247 13.4722 15.5684 15.5063C13.0603 18.4112 12.2183 22.2533 13.2799 25.9496C14.1423 28.9526 16.355 31.5575 19.1994 32.9186C20.2307 33.4123 21.6531 33.8197 22.7901 33.9474C23.3929 34.0153 24.6347 34.0165 25.2455 33.9499ZM22.4065 32.5567C19.0107 31.984 16.0613 29.6274 14.8384 26.51C14.3673 25.3089 14.1862 24.4355 14.1438 23.1614C14.1093 22.1155 14.1812 21.3729 14.4022 20.4947C15.3627 16.6789 18.3101 13.8563 22.097 13.1256C22.9382 12.9632 22.997 12.9683 23.0992 13.213C23.329 13.7629 23.539 14.9017 23.7495 16.7388C23.838 16.9063 23.7263 18.1755 24.094 18.0209C24.1634 17.9773 24.1994 17.8468 24.2303 17.5287C24.4521 15.2374 24.8095 13.3372 25.0692 13.0693C25.1364 12.9999 25.2174 13.0012 25.709 13.0806C27.7289 13.4064 29.5711 14.3629 31.0682 15.8626C31.8533 16.6488 32.3487 17.3172 32.8193 18.2245C33.6715 19.8673 34.0247 21.4006 33.9578 23.1665C33.9236 24.0643 33.8411 24.6125 33.6147 25.4436C32.6656 28.9275 29.7829 31.6604 26.2399 32.4357C25.8954 32.5111 25.4961 32.5889 25.3519 32.6085L25.0902 32.6444L25.0026 32.4354C24.7408 31.8115 24.4079 29.9722 24.2705 28.3886C24.2366 27.997 24.1963 27.6329 24.1812 27.5803C24.1531 27.4824 23.9711 27.4473 23.92 27.5298C23.9047 27.5549 23.8287 28.1351 23.7513 28.8193C23.5198 30.8702 23.2038 32.4608 23.0023 32.5883C22.9136 32.6444 22.9301 32.6454 22.4065 32.5567Z" fill="#E6E7E8"/>
<path d="M23.1191 33.2633C23.0738 33.2528 22.7407 33.2199 22.379 33.1904C21.7347 33.1379 21.0152 32.9663 20.3374 32.7045C20.0253 32.5839 19.5344 32.3117 19.5681 32.278C19.5795 32.2667 19.785 32.3338 20.0246 32.4274C21.0826 32.8409 21.477 32.9239 22.5709 32.9641C23.3628 32.9933 23.6324 33.0227 23.8001 33.0981C23.9641 33.172 23.9965 33.2065 23.9369 33.2442C23.8631 33.291 23.295 33.3043 23.1191 33.2633ZM24.1068 33.2422C24.0375 33.1982 24.028 32.9259 24.0411 31.338C24.0496 30.3189 24.1153 29.2648 24.1115 28.9917C24.1035 28.4114 24.1274 27.5939 24.0458 27.5939C24.0977 27.5785 24.1608 27.6389 24.1691 27.7666C24.2086 28.3886 24.2418 31.135 24.4276 32.2436C24.5423 32.9309 24.7065 32.9744 25.4814 33.0131C26.433 32.9732 26.954 32.8615 27.9665 32.4795C28.2957 32.3557 28.5753 32.264 28.5875 32.2763C28.635 32.324 28.0872 32.5995 27.6019 32.7724C26.9123 33.0179 26.1913 33.1658 25.3395 33.2364C24.4754 33.3083 24.2131 33.3097 24.1068 33.2422Z" fill="#8D9093"/>
<path d="M24.0464 17.9457C24.1282 17.9457 24.1716 17.0102 24.1121 16.5205C24.0237 15.7897 24.0077 12.4304 24.0922 12.3459C24.2103 12.2279 25.5364 12.3702 26.4357 12.5973C27.3682 12.8328 27.8846 13.0279 28.7107 13.4564C29.3155 13.7702 29.8969 14.1467 29.8491 14.1942C29.8368 14.2066 29.483 14.0446 29.063 13.8342C28.0726 13.338 27.578 13.1625 26.5884 12.9569C26.1423 12.8641 25.5887 12.7399 25.3576 12.6809C24.8167 12.5428 24.6792 12.5458 24.5139 12.699C24.3944 12.8098 24.3726 12.8938 24.325 13.4253C24.2851 13.8719 24.2891 14.1377 24.3409 14.4599C24.3278 15.2912 24.5154 15.7675 24.0464 17.9457Z" fill="#8D9093"/>
<path d="M23.0645 39.3606C21.0484 38.4025 19.8782 37.7679 18.6789 36.9821C15.7614 35.0705 13.5021 32.656 11.6121 29.4307C9.86328 26.4461 8.91817 23.2885 8.64209 19.5083C8.57519 18.591 8.60905 14.9685 8.68907 14.4922C8.76992 14.0119 8.80428 14.3728 8.75481 15.1808C8.45383 20.1004 9.32922 24.8353 11.1823 28.3066C12.9209 31.5641 15.0215 34.0175 17.8131 36.0516C18.9351 36.8691 20.889 38.0144 22.9549 39.0649C23.8416 39.5161 24.0542 39.6038 24.2027 39.5801C24.3008 39.5645 24.6955 39.4089 25.0797 39.2344C26.5688 38.5586 27.852 37.8417 28.3609 37.4015C28.4979 37.2828 29.117 36.8256 29.736 36.3856C30.3551 35.9455 31.1506 35.3434 31.5039 35.0474C34.5863 32.4646 37.0969 28.7104 38.2472 24.9636C38.9692 22.6127 39.3482 19.8564 39.3444 16.9864C39.3427 15.7907 39.2756 14.494 39.2059 14.3124C39.1777 14.2385 39.1996 14.2179 39.3073 14.2179C39.4305 14.2179 39.4488 14.2456 39.4785 14.4784C39.5617 15.1293 39.6113 17.5518 39.5638 18.635C39.4559 21.0864 39.1915 22.6999 38.5447 24.8484C38.1044 26.3116 37.863 26.9259 37.2604 28.1149C35.9466 30.7087 34.1802 33.086 32.335 34.7448C30.5392 36.3591 29.0333 37.3573 26.4325 38.6584C25.439 39.1552 24.0551 39.8229 24.0297 39.8176C24.0267 39.817 23.5919 39.6114 23.0645 39.3606ZM23.0243 38.3954C21.5702 37.638 19.6507 36.4094 19.0299 35.8381C18.787 35.6147 18.7886 35.6157 19.6395 36.1464C20.4606 36.6589 21.5461 37.2539 22.8035 37.8802L23.9955 38.4741L24.7497 38.0997C27.2568 36.8556 28.8362 35.8793 30.3377 34.6465C32.6618 32.738 34.4176 30.6024 35.8576 27.9319C37.4339 25.0089 38.1922 21.7506 38.1946 17.8908C38.1952 16.8421 38.0951 15.0267 38.0264 14.8416C37.9515 14.6401 35.7601 13.1123 34.581 12.4394C33.3266 11.7237 31.7622 11.0248 30.1378 10.4539C29.6715 10.2901 29.2767 10.1426 29.2606 10.1264C29.1704 10.0352 30.5947 10.3707 31.4015 10.6307C32.7621 11.0693 34.262 11.7671 35.5081 12.5414C36.0766 12.8945 37.7043 14.0795 38.1844 14.4895C38.2998 14.5881 38.3169 14.6683 38.3684 15.3539C38.4429 16.3407 38.3915 19.2908 38.283 20.2533C38.0701 22.1462 37.5557 24.3417 36.9234 26.0591C36.5975 26.944 35.718 28.757 35.208 29.595C34.7978 30.2691 33.732 31.8037 33.2665 32.391C32.4356 33.4387 30.3563 35.3819 29.4659 35.9429C28.8079 36.3572 26.0197 37.7933 24.8612 38.3139C24.508 38.4729 24.1465 38.6545 24.0579 38.7176C23.9692 38.7809 23.8882 38.8318 23.8778 38.8313C23.8678 38.8305 23.4835 38.6346 23.0243 38.3954ZM24.1607 33.1867C24.0908 33.1419 24.0813 32.94 24.0966 31.804C24.1167 30.3356 24.2091 29.7994 24.2176 31.1024C24.2242 32.1496 24.288 32.8031 24.3907 32.8794C24.5028 32.9626 24.5546 33.1856 24.4618 33.1856C24.422 33.1856 24.3564 33.1975 24.316 33.2125C24.2759 33.2272 24.206 33.2156 24.1607 33.1867ZM23.1466 33.1308C23.1023 33.0592 23.5569 33.0592 23.6674 33.1308C23.7265 33.1688 23.6691 33.1841 23.4651 33.1847C23.3085 33.1854 23.1652 33.161 23.1466 33.1308ZM16.2669 15.9298C16.2674 15.8457 16.8828 15.2055 17.3183 14.8367C18.2557 14.0419 19.5588 13.3067 20.6355 12.9645C21.695 12.6278 23.6674 12.2638 23.6674 12.4047C23.6674 12.4373 23.6585 12.4638 23.6472 12.4638C23.4589 12.4638 22.4965 12.6858 21.7488 12.9018C20.3468 13.3067 18.9366 14.0156 17.6923 14.9407C16.8714 15.5512 16.2667 15.9709 16.2669 15.9298ZM24.1465 15.0951C24.0845 14.6791 24.0444 12.7206 24.0946 12.546L24.1417 12.3815L24.7407 12.4004C25.4023 12.4212 26.1779 12.5521 26.9271 12.7693C27.3936 12.9044 28.1076 13.1953 28.1076 13.2499C28.1076 13.2638 27.9904 13.2396 27.8475 13.1961C27.2578 13.0167 25.1393 12.5161 24.8343 12.4842C24.5455 12.454 24.5018 12.4622 24.4693 12.5528C24.449 12.6094 24.3941 12.7246 24.3474 12.8088C24.2818 12.9265 24.2535 13.2363 24.2229 14.1518C24.1977 14.9112 24.1699 15.2527 24.1465 15.0951ZM10.3522 20.6752C10.2421 19.787 10.1898 19.0984 10.1533 18.0553C10.1148 16.9568 10.1938 15.1161 10.2833 15.0264C10.321 14.9889 10.3766 15.0311 10.4553 15.1564C10.5504 15.3083 10.566 15.3966 10.5411 15.6435C10.3529 17.5138 10.312 18.9148 10.4058 20.2714C10.4383 20.6606 10.4915 21.7247 10.3522 20.6752ZM38.3551 13.6834C37.7946 13.3077 37.323 12.9456 37.3198 12.8887C37.315 12.8008 37.4458 12.8574 37.8255 13.1076C38.169 13.3339 38.9288 13.9918 38.8526 13.9966C38.8374 13.9976 38.6134 13.8567 38.3551 13.6834Z" fill="#5F6269"/>
<path d="M22.7852 39.2795C19.7239 37.8195 17.9455 36.6974 16.072 35.0442C13.3227 32.6178 10.9661 29.0947 9.78093 25.6394C8.78137 22.7246 8.38045 19.6087 8.53434 15.9448C8.57701 14.9256 8.62399 14.3222 8.66516 14.2634C8.76543 14.1196 9.59799 13.4595 10.307 12.9617C12.0264 11.7541 14.0961 10.6599 15.9963 9.95368C20.7371 8.19146 25.9157 8.03491 30.794 9.50645C33.3827 10.2872 36.6765 12.028 38.8251 13.7507C39.0963 13.9684 39.3591 14.1608 39.4091 14.1784C39.5499 14.228 39.5927 15.0018 39.5916 17.4523C39.5901 19.767 39.5477 20.3541 39.26 22.0572C39.0882 23.0737 38.9313 23.7203 38.5477 24.9943C37.9299 27.0457 37.1279 28.7052 35.7671 30.746C33.5135 34.1263 30.8822 36.4293 26.9294 38.4807C25.7331 39.1014 24.1806 39.8189 24.0343 39.8183C23.9681 39.8179 23.406 39.5754 22.7852 39.2795ZM25.1438 39.0787C26.0261 38.6665 26.5466 38.3808 26.7373 38.2035C26.8129 38.1337 27.2321 37.8601 27.6693 37.5958C30.0631 36.149 31.6314 34.9479 33.0415 33.4814C34.4978 31.9668 35.6018 30.4531 36.6745 28.4987C38.4197 25.3202 39.2459 21.6217 39.259 16.9317C39.2615 16.0573 39.2434 15.1316 39.2185 14.8743C39.1747 14.4176 39.1692 14.4042 38.9859 14.2987C34.9339 11.2871 31.4983 9.48503 26.5456 8.75441C25.4632 8.61346 22.5445 8.61213 21.4746 8.75192C19.1676 9.05323 17.181 9.56023 15.8017 10.1997C13.2458 11.3844 12.5241 11.7768 10.7848 12.9286C10.1367 13.3578 9.45521 13.8004 9.27077 13.9121L8.93526 14.1153L8.90173 14.482C8.82121 15.3591 8.79797 17.9007 8.86155 18.8779C9.16486 23.546 10.2707 26.9644 12.6211 30.4996C13.4316 31.719 14.2321 32.6913 15.3321 33.7938C17.3466 35.8122 19.1366 37.0301 22.748 38.8388C23.9153 39.4235 24.0886 39.4942 24.2624 39.4577C24.333 39.4424 24.7297 39.2719 25.1438 39.0787ZM22.9823 38.4548C21.3808 37.6168 19.8929 36.6595 18.657 35.6719C17.9514 35.1081 16.7055 33.9708 16.7055 33.8906C16.7055 33.8597 16.8103 33.924 16.9384 34.0337C18.0012 34.9421 19.5566 36.0297 20.8168 36.7457C21.743 37.2716 23.8557 38.3388 23.9712 38.3388C24.0874 38.3388 26.2715 37.2451 27.121 36.7616C30.9722 34.5696 33.7152 31.7661 35.8496 27.8409C36.7655 26.1566 37.4654 24.1066 37.8061 22.1123C38.0465 20.7037 38.1944 18.1509 38.1145 16.7811C38.0438 15.4896 38.3704 15.1449 37.3037 14.3388C34.2099 12.0773 31.595 10.8495 28.0605 9.99884C27.5372 9.87284 27.0561 9.74849 26.9917 9.72243C26.7929 9.64224 27.3239 9.65868 28.01 9.75414C31.0157 10.1722 33.4707 11.0972 35.9745 12.7558C36.6896 13.2295 38.0842 14.2853 38.3043 14.5197L38.4412 14.6656L38.4406 17.0595C38.4398 19.69 38.4041 20.1763 38.0823 21.926C37.5674 24.7282 36.6802 27.189 35.3937 29.3823C35.0518 29.9656 34.1282 31.3287 33.4873 32.1966C32.7201 33.235 30.7182 35.2084 29.6811 35.9485C29.2851 36.2309 26.304 37.7509 24.9925 38.3389C24.5602 38.5327 24.1834 38.7352 24.1547 38.789C24.0614 38.9628 23.8235 38.8951 22.9823 38.4548ZM10.5124 19.6726L10.5391 20.3151C10.6291 22.4772 11.2721 25.0277 12.2525 27.1105C12.7741 28.2188 13.5368 29.4896 14.4175 30.7188C14.6443 31.0353 14.962 31.4786 15.1234 31.7039C15.2849 31.929 15.8831 32.5828 16.4525 33.1567C17.0223 33.7304 17.4169 34.137 17.3297 34.0599C15.2023 32.1825 13.627 30.1467 12.4332 27.7312C11.1939 25.2236 10.5909 23.1911 10.2542 20.3851C10.1287 19.3402 10.1055 15.2075 10.224 15.0001C10.4697 14.5702 13.1208 12.8026 14.4575 12.1774C14.9927 11.9271 16.0162 11.5305 16.1165 11.5345C16.154 11.536 15.8874 11.6797 15.5243 11.854C14.295 12.444 13.2772 13.0561 11.9082 14.0283C11.637 14.221 11.1992 14.5083 10.9352 14.6666C10.6714 14.825 10.4554 14.9807 10.4554 15.0126L10.5124 19.6726ZM17.5754 34.2409C17.5073 34.1541 17.5092 34.1521 17.5962 34.2203C17.6875 34.2919 17.7167 34.3367 17.6714 34.3367C17.6599 34.3367 17.6169 34.2937 17.5754 34.2409Z" fill="#8D9093"/>
<path d="M22.955 37.1809C19.1338 35.204 16.7192 33.2508 14.6611 30.4721C12.7804 27.9326 11.6081 25.2905 11.038 22.3041C10.75 20.7952 10.7024 20.1658 10.7052 17.891C10.7065 16.7302 10.7258 15.6941 10.7475 15.5885C10.7819 15.423 10.8724 15.335 11.4028 14.9496C13.2219 13.6284 14.5922 12.8337 16.3536 12.0785C18.841 11.0122 22.153 10.4415 24.9333 10.6002C29.3523 10.8525 32.7831 12.1283 36.6326 14.9509C37.2933 15.4353 37.3211 15.4619 37.2791 15.5716C37.255 15.6342 37.2399 15.6344 37.1881 15.5733C37.1541 15.5331 37.0151 15.4207 36.8795 15.3236C36.7438 15.2265 36.4198 14.9912 36.1591 14.8005C35.8988 14.6099 35.5902 14.3971 35.4738 14.3275C35.3575 14.2581 35.1275 14.1125 34.9628 14.0041C34.5709 13.7461 34.2075 13.5522 33.0147 12.964C31.5011 12.2178 31.1646 12.0611 30.9863 12.0191C30.8959 11.9978 30.5999 11.9019 30.3286 11.8061C28.492 11.1578 26.2528 10.7991 24.0516 10.8004C21.3934 10.8021 18.8973 11.28 16.6018 12.2269C15.9673 12.4886 14.5424 13.1993 13.9493 13.5497C12.8667 14.1895 11.2799 15.3002 11.0955 15.5475C10.9555 15.735 10.9032 16.3945 10.8983 18.0337C10.8891 21.099 11.3729 23.6671 12.4321 26.1762C13.5968 28.9355 15.9925 32.0801 18.505 34.1471C19.3905 34.8761 19.4737 34.9402 19.7768 35.1318C19.9199 35.2222 20.228 35.4258 20.4621 35.584C20.6959 35.7424 20.9208 35.8718 20.9618 35.8718C21.0028 35.8718 21.0363 35.8966 21.0363 35.9271C21.0363 35.9577 21.1439 36.0377 21.2754 36.1053C21.8561 36.4037 22.1807 36.5859 22.4604 36.7703C22.6258 36.8792 22.8029 36.9682 22.8547 36.9682C22.9063 36.9682 22.9634 36.9923 22.9815 37.0213C22.9996 37.0507 23.1183 37.1241 23.2451 37.1842C23.3721 37.2446 23.5129 37.3167 23.5583 37.3439C23.6034 37.3713 23.7578 37.4476 23.9014 37.5137C24.045 37.58 24.1483 37.6568 24.131 37.6847C24.1139 37.7126 24.0827 37.735 24.0618 37.7345C24.0412 37.7343 23.543 37.485 22.955 37.1809ZM23.1195 34.3055C23.0441 34.2927 22.7109 34.2409 22.3794 34.1905C22.0479 34.14 21.7097 34.0658 21.6282 34.0259C21.5468 33.9859 21.4112 33.9531 21.3269 33.9527C21.1162 33.9517 19.9807 33.5565 19.4561 33.3016C19.4056 33.2769 19.2657 33.2108 19.145 33.1545C19.0244 33.0983 18.7691 32.959 18.5775 32.8451C18.3859 32.7309 18.2166 32.6376 18.2012 32.6376C18.15 32.6376 17.5257 32.1754 17.2941 31.9661C17.1691 31.853 17.0479 31.7605 17.0251 31.7605C17.0021 31.7605 16.9119 31.6928 16.8246 31.61C16.0704 30.8941 15.7186 30.5363 15.7442 30.5109C15.7608 30.4943 15.953 30.6564 16.1713 30.871C19.1289 33.7786 23.6212 34.7951 27.6136 33.4605C30.0143 32.6578 31.9509 31.1672 33.3819 29.0197C35.3251 26.1038 35.7992 22.6345 34.7075 19.3167C33.7793 16.4948 31.6542 14.0607 28.9303 12.6989C28.734 12.601 28.6042 12.5205 28.6416 12.5198C28.7387 12.5185 30.0646 13.1599 30.1071 13.2288C30.1267 13.2605 30.1807 13.2864 30.2275 13.2864C30.2743 13.2864 30.4021 13.355 30.5122 13.4388C30.6218 13.5227 30.7833 13.6274 30.8705 13.6716C31.3154 13.8969 32.8453 15.3706 33.4018 16.1098C35.1159 18.3874 35.8738 21.0271 35.6435 23.9216C35.6017 24.4492 35.5411 24.9918 35.5089 25.1275C35.4767 25.2633 35.4232 25.4977 35.3898 25.6484C35.2608 26.2335 34.8035 27.5063 34.5629 27.9509C33.8705 29.2308 33.4516 29.8427 32.7476 30.6034C31.5151 31.935 30.0266 32.9598 28.4641 33.5533C26.9044 34.1456 26.1668 34.2853 24.4622 34.311C23.7991 34.3206 23.1948 34.3185 23.1195 34.3055ZM25.0075 32.3919C24.7087 31.6767 24.2731 29.0085 24.2711 27.8818C24.2704 27.4995 24.3589 27.4273 24.5225 27.6766C24.6292 27.8395 24.7637 28.5032 24.764 28.8679C24.764 29.0105 24.7879 29.2326 24.8168 29.3613C24.846 29.4898 24.922 29.9975 24.9858 30.4894C25.104 31.4031 25.3137 32.2657 25.4563 32.4251C25.527 32.5041 25.5217 32.5179 25.4103 32.5476C25.1621 32.6138 25.0886 32.5854 25.0075 32.3919ZM22.4951 32.483C22.48 32.4583 22.5401 32.4487 22.6291 32.4618C22.7179 32.4747 22.7906 32.495 22.7906 32.5068C22.7906 32.5486 22.5223 32.5268 22.4951 32.483ZM22.2024 32.44C22.2205 32.4218 22.268 32.4196 22.3073 32.4355C22.3512 32.453 22.3382 32.4663 22.2743 32.4687C22.2165 32.4711 22.1842 32.4581 22.2024 32.44ZM21.5296 32.3016C20.8139 32.1102 20.314 31.9274 19.693 31.6297C14.7217 29.2474 12.7103 23.2535 15.2299 18.3294C16.598 15.6558 19.0656 13.774 21.9891 13.1752C22.699 13.0299 23.0298 13.0429 23.0544 13.2172C23.0678 13.3107 23.0509 13.3323 22.985 13.3069C22.8849 13.2685 21.9373 13.4237 21.6117 13.532C21.4912 13.5721 21.2198 13.6593 21.0088 13.7257C20.4747 13.8937 19.2884 14.4784 18.7465 14.8403C16.6119 16.2662 15.1723 18.4212 14.6208 21.0155C14.4684 21.7325 14.4144 23.1534 14.5085 23.9646C14.6367 25.0669 14.94 26.0932 15.4253 27.0667C15.7097 27.6373 15.8966 27.9417 16.4614 28.7552C16.6895 29.0837 17.5879 30.0013 18.08 30.4079C18.4153 30.6851 19.2507 31.2668 19.3135 31.2668C19.3473 31.2668 19.4194 31.3161 19.474 31.3765C19.5283 31.4366 19.6088 31.4859 19.6521 31.4859C19.6955 31.4859 19.7981 31.5338 19.8801 31.592C19.9619 31.6505 20.1012 31.7155 20.19 31.7368C20.2785 31.758 20.3768 31.7952 20.4078 31.8195C20.4777 31.8739 21.1139 32.0972 21.5571 32.2229C21.7379 32.2742 21.9353 32.3373 21.9956 32.3635C22.1896 32.4472 21.9599 32.4168 21.5296 32.3016ZM26.1577 26.0362C25.9663 25.9527 25.3786 25.4265 25.4249 25.38C25.4417 25.3632 25.5497 25.4273 25.665 25.5223C25.9608 25.7663 26.3302 25.8538 26.6795 25.7633C27.2454 25.6164 27.5756 25.1894 27.7823 24.3371C27.8487 24.063 27.9192 23.8205 27.9392 23.7982C27.9589 23.776 28.0316 23.7969 28.1 23.8449C28.2111 23.9227 28.2232 23.972 28.2116 24.2951C28.2043 24.4948 28.1659 24.7206 28.1261 24.7966C28.0863 24.873 28.0535 24.9899 28.0534 25.0568C28.0532 25.1233 28.0049 25.2038 27.9458 25.2352C27.8869 25.2669 27.8236 25.3727 27.805 25.4703C27.7692 25.6586 27.4733 25.917 27.1513 26.041C26.9238 26.1289 26.3637 26.1259 26.1577 26.0362ZM17.0562 26.0044C16.1564 25.9829 15.8785 25.9594 15.8039 25.8973C15.7131 25.8216 15.7133 25.8156 15.8094 25.7776C15.8649 25.7558 16.4811 25.7361 17.1785 25.7339C18.1738 25.7308 18.4597 25.7142 18.508 25.6559C18.542 25.6151 18.6385 25.2453 18.7225 24.8341C18.8065 24.4229 18.9016 24.0605 18.9333 24.0285C18.9665 23.9954 19.1538 23.9775 19.3697 23.987L19.7481 24.0034L19.7644 24.1726C19.78 24.3311 19.771 24.3402 19.6199 24.3182C19.3518 24.2787 19.2502 24.3761 19.1523 24.7666C19.103 24.9623 19.0626 25.1667 19.0625 25.2206C19.0621 25.3968 18.9527 25.7185 18.8511 25.8442C18.7145 26.0127 18.4409 26.0371 17.0562 26.0044ZM20.0222 26.0221C19.8588 25.9786 19.7091 25.8295 19.769 25.7696C19.7969 25.7416 20.3715 25.714 21.0456 25.7082C21.72 25.7025 22.302 25.6788 22.3394 25.6561C22.3764 25.633 22.4069 25.5276 22.4069 25.4213C22.4069 25.2319 22.4033 25.2291 22.2013 25.2463L21.9956 25.2638L21.9833 23.2084C21.9751 21.8691 21.9894 21.1842 22.0238 21.2426C22.0527 21.2921 22.1599 21.5811 22.262 21.8851C22.4302 22.3866 22.4423 22.4641 22.393 22.7271C22.3618 22.8946 22.3518 23.4645 22.3701 24.0799L22.4011 25.1433L22.5686 25.3161C22.7899 25.5445 22.7977 25.7968 22.5879 25.9345C22.4591 26.019 22.2876 26.0329 21.2859 26.0415C20.651 26.0467 20.0824 26.0379 20.0222 26.0221ZM23.9829 25.9999C23.8456 25.9199 23.8645 25.8397 24.0208 25.8397C24.0945 25.8397 24.1683 25.8176 24.1848 25.7907C24.2067 25.7553 24.2748 21.3176 24.2709 20.183C24.2708 20.1154 24.3264 20.0857 24.4761 20.0732C24.6639 20.0578 24.6832 20.0407 24.6989 19.878C24.7164 19.696 24.7452 19.6706 24.8518 19.7419C24.9215 19.7883 25.0381 19.9965 25.0381 20.0747C25.0381 20.1039 24.9518 20.2313 24.8467 20.3573L24.6548 20.5867L24.6805 22.1577C24.7109 24.0094 24.7124 23.7222 24.6652 24.8989C24.6285 25.8093 24.6214 25.8538 24.4976 25.9541C24.3564 26.0683 24.1341 26.0882 23.9829 25.9999ZM28.1764 25.9501C28.0785 25.8905 27.9984 25.8164 27.9984 25.7859C27.9984 25.7499 28.4319 25.7303 29.2253 25.7303C30.5452 25.7303 30.6042 25.7178 30.5653 25.4456C30.5524 25.3539 30.5061 25.3144 30.3968 25.302C30.2921 25.2898 30.2461 25.2532 30.2461 25.1821C30.2461 25.0931 30.3518 24.5287 30.4388 24.1543C30.4654 24.0391 30.4961 24.031 30.905 24.031H31.3424V24.2212C31.3424 24.4007 31.3335 24.4101 31.1897 24.3813C30.9533 24.3341 30.8042 24.4936 30.7367 24.8657C30.6844 25.1535 30.6897 25.1936 30.8017 25.3448C30.9055 25.4851 30.9159 25.5404 30.8728 25.7147C30.7933 26.0349 30.6986 26.0577 29.4512 26.0583C28.454 26.0586 28.3386 26.0489 28.1764 25.9501ZM31.452 25.9398L31.2603 25.8206L31.3974 25.7809C31.4726 25.759 31.8586 25.7386 32.2548 25.7358C33.0301 25.7298 33.0417 25.7251 33.0417 25.4243C33.0417 25.2522 33.1155 25.2561 33.2571 25.4361C33.4071 25.6268 33.4003 25.7206 33.2235 25.9052C33.0769 26.0585 33.0733 26.0591 32.3601 26.0588C31.7206 26.0586 31.6233 26.046 31.452 25.9398ZM16.8404 25.2231C16.8258 25.1854 16.8204 24.0321 16.8281 22.6602L16.8425 20.166L17.0507 20.1488C17.2142 20.1353 17.2702 20.1021 17.311 19.9947C17.3396 19.9195 17.3875 19.8732 17.4179 19.8918C17.5212 19.9557 17.4729 20.1512 17.3075 20.3398L17.1422 20.5281L17.149 22.1847C17.1525 23.096 17.1736 24.1493 17.1955 24.5255C17.2232 24.9983 17.2171 25.2219 17.1759 25.2497C17.0806 25.3142 16.8689 25.2976 16.8404 25.2231ZM20.9965 25.2208C20.9693 25.1844 20.8572 24.7352 20.747 24.2227C20.6368 23.7102 20.3995 22.6124 20.2194 21.7831C20.0394 20.9537 19.8746 20.1434 19.8532 19.9816C19.8158 19.6992 19.8186 19.6899 19.9244 19.7465C19.9848 19.7789 20.0615 19.8742 20.0946 19.9582C20.1684 20.1454 20.5172 21.5305 20.651 22.1668C20.8673 23.1954 21.2513 24.7086 21.3709 25.0016C21.4102 25.0984 21.4313 25.1874 21.4175 25.1992C21.3428 25.2644 21.0403 25.2795 20.9965 25.2208ZM29.2294 25.2231C29.2151 25.1854 29.2097 24.0198 29.2176 22.633L29.2319 20.1112L29.4132 20.1094C29.5971 20.1076 29.6956 20.0201 29.6969 19.8567C29.6982 19.7214 29.8518 19.6874 29.9164 19.8083C30.0215 20.005 29.9803 20.2198 29.8047 20.388L29.6376 20.5482L29.6541 22.8896C29.6702 25.1921 29.6685 25.2319 29.5608 25.2608C29.3793 25.3094 29.2575 25.2955 29.2294 25.2231ZM32.5264 25.1959C32.5103 25.1429 32.2598 24.0021 31.9698 22.6604C31.4321 20.1723 31.332 19.5906 31.4422 19.5906C31.5358 19.5906 31.7175 19.8098 31.7785 19.997C31.8401 20.1849 32.0307 21.0504 32.1081 21.494C32.1356 21.6513 32.2067 21.9719 32.266 22.2066C32.3252 22.4412 32.4026 22.7812 32.4378 22.9622C32.4733 23.143 32.5396 23.4514 32.5859 23.6475C32.6697 24.0042 32.7945 24.5484 32.8751 24.9082C32.8988 25.0138 32.9362 25.1431 32.9582 25.196C32.9926 25.2781 32.9667 25.2918 32.777 25.2918C32.6141 25.2917 32.548 25.2664 32.5264 25.1959ZM26.2105 25.1829C26.0531 25.1193 25.8745 24.8819 25.8026 24.6411C25.77 24.5313 25.7294 23.936 25.7123 23.3179C25.6797 22.1303 25.7451 21.1287 25.8869 20.6519C26.0277 20.1776 26.3692 19.9856 26.7299 20.1775C26.9273 20.2824 27.1167 20.5449 27.0462 20.6156C27.0226 20.6392 26.9794 20.6154 26.9497 20.563C26.8775 20.4338 26.6003 20.4403 26.4663 20.5742C26.2181 20.8223 26.1092 21.7946 26.1484 23.4056C26.1794 24.6794 26.204 24.8104 26.4577 25.0398C26.5211 25.0973 26.5729 25.1648 26.5729 25.1904C26.573 25.249 26.363 25.2447 26.2105 25.1829ZM30.5192 23.476C30.517 23.3239 30.8764 21.6186 30.9105 21.6186C30.9297 21.6186 30.9867 21.8962 31.037 22.2354C31.1577 23.0493 31.1553 22.9994 31.077 23.1411C30.9991 23.2824 31.0416 23.395 31.1562 23.351C31.2005 23.334 31.2329 23.3556 31.2329 23.4023C31.2329 23.4532 31.1779 23.4828 31.0821 23.4833C30.9991 23.4836 30.8389 23.4992 30.7259 23.5178C30.5711 23.5434 30.5197 23.5329 30.5192 23.476ZM18.9511 23.4415C18.9457 23.3311 19.3135 21.6186 19.3424 21.6186C19.3608 21.6186 19.4071 21.8371 19.4454 22.1042C19.4982 22.4729 19.5002 22.6351 19.4526 22.7787C19.4182 22.8827 19.3852 23.0835 19.3789 23.2251L19.3678 23.4825H19.1604C19.0463 23.4826 18.9524 23.4642 18.9511 23.4415ZM23.1824 21.3088C22.9003 20.6206 22.6563 19.9734 22.6395 19.8708L22.6092 19.6844L22.7735 19.8059C22.8937 19.8948 23.0239 20.123 23.2553 20.6498C23.4298 21.0472 23.5983 21.3885 23.6296 21.4086C23.6862 21.445 23.7535 22.2721 23.7151 22.4616C23.704 22.5159 23.4645 21.9971 23.1824 21.3088ZM27.5324 21.7078C27.4722 21.6638 27.4352 21.6195 27.4503 21.6095C27.4652 21.5995 27.527 21.564 27.5871 21.5308C27.6875 21.4752 27.6993 21.3978 27.7242 20.6169C27.7393 20.1476 27.77 19.7453 27.7926 19.7226C27.8153 19.7002 27.8339 19.755 27.8339 19.8444C27.8339 20.0496 27.9217 20.1385 28.1251 20.1385C28.276 20.1385 28.283 20.1484 28.2496 20.3166C28.23 20.4145 28.1947 20.7114 28.1706 20.9762C28.1392 21.323 28.0959 21.4991 28.0159 21.6067C27.8874 21.78 27.6883 21.8217 27.5324 21.7078ZM21.3214 20.292C21.2319 20.2025 21.2386 20.1385 21.3378 20.1385C21.3833 20.1385 21.42 20.1871 21.42 20.2482C21.4198 20.376 21.4099 20.3805 21.3214 20.292ZM23.5689 20.292C23.4724 20.1954 23.4885 20.1385 23.6129 20.1385C23.6859 20.1385 23.7226 20.175 23.7226 20.2482C23.7224 20.3725 23.6657 20.3888 23.5689 20.292ZM27.0131 19.67C26.8028 19.5214 26.8285 19.502 27.1038 19.6014C27.2037 19.6376 27.2857 19.6992 27.2857 19.7385C27.2857 19.838 27.2321 19.8247 27.0131 19.67ZM24.1645 18.2233C24.1006 18.183 24.0988 18.1578 24.1549 18.0904C24.1956 18.0414 24.2557 17.6444 24.301 17.1278C24.4703 15.1954 24.8795 13.1397 25.1128 13.05C25.1531 13.0346 25.3932 13.0577 25.6467 13.1017C28.1465 13.535 30.2147 14.76 31.7897 16.7398C31.8972 16.8755 32.0146 17.0481 32.05 17.1235L32.1146 17.2606L32.0161 17.1326C31.9622 17.0624 31.8069 16.8773 31.6711 16.7214C31.5358 16.5655 31.3753 16.3763 31.3149 16.3009C31.0572 15.9793 30.131 15.2223 29.4534 14.7796C28.1025 13.8967 25.6508 13.0809 25.3691 13.4206C25.239 13.5771 25.0505 14.3542 24.9295 15.2321C24.7906 16.241 24.7635 16.4706 24.7069 17.1233C24.6334 17.9753 24.6192 18.0318 24.4489 18.1659C24.2927 18.2889 24.2741 18.2926 24.1645 18.2233Z" fill="#101A4B"/>
<path d="M24.2024 22.9238L24.2167 20.0903L24.4216 20.0734C24.6077 20.0579 24.6282 20.0402 24.6435 19.8816L24.6606 19.7072L24.0882 19.6897C23.3385 19.6671 23.3284 19.6696 23.3491 19.8826C23.3639 20.035 23.3893 20.0594 23.5578 20.0837L23.7497 20.1111L23.7643 21.3895C23.7723 22.0928 23.7585 22.6554 23.7336 22.6398C23.7085 22.6245 23.4207 21.9558 23.0938 21.1543L22.4996 19.6969L21.7813 19.712L21.0633 19.7272V19.8918C21.0633 20.0422 21.0805 20.0576 21.2695 20.0732L21.4757 20.0903L21.4614 22.6773L21.4471 25.2643H21.2004H20.9537L20.3861 22.633C19.6985 19.4463 19.7385 19.6092 19.6336 19.5689C19.4061 19.4817 19.3751 19.575 18.8794 21.8469C18.3793 24.138 18.2377 24.5929 17.9217 24.9266C17.6984 25.1625 17.4042 25.2917 17.0906 25.2917H16.8137L16.828 22.7015L16.8422 20.1111L17.0341 20.0837C17.2046 20.0593 17.2259 20.0378 17.2259 19.8918V19.7272H16.3762H15.5264L15.5083 19.8858C15.4877 20.0657 15.5661 20.1365 15.7869 20.1378L15.9376 20.1385V22.715V25.2915H15.805C15.579 25.2915 15.499 25.3496 15.499 25.5136C15.499 25.599 15.5176 25.68 15.5402 25.6939C15.5628 25.7077 16.2462 25.7029 17.0587 25.6835L18.5359 25.6479L18.7032 24.8257L18.8706 24.0034L19.3211 23.9875C19.7524 23.9722 19.7732 23.9768 19.7986 24.0972C19.8962 24.5542 19.9943 25.0994 19.9943 25.1844C19.9943 25.2575 19.9458 25.2892 19.8162 25.3018C19.6586 25.3171 19.6381 25.3381 19.6381 25.4836V25.6479L20.9537 25.6627C22.0955 25.6753 22.2777 25.666 22.3323 25.5916C22.4448 25.4373 22.3597 25.299 22.1405 25.2809L21.9407 25.2643L21.9262 23.2392C21.9184 22.1256 21.9314 21.1946 21.9556 21.1706C21.9797 21.1463 22.3783 22.0698 22.8416 23.2228C23.9836 26.0645 23.8576 25.7953 24.0369 25.7749L24.1881 25.7575L24.2024 22.9238ZM18.8973 23.4964C18.8948 23.3644 19.3062 21.5091 19.3379 21.5091C19.3821 21.5091 19.7661 23.434 19.7345 23.4964C19.7231 23.5188 19.5301 23.5376 19.3059 23.5376C19.0816 23.5376 18.8978 23.5188 18.8973 23.4964ZM26.7547 25.7263C27.2249 25.5956 27.5838 25.0913 27.7561 24.3182C27.8612 23.8475 27.8391 23.7567 27.6193 23.7567C27.4201 23.7567 27.4176 23.7604 27.2838 24.2838C27.1377 24.8549 26.9559 25.1555 26.7071 25.2377C26.3438 25.3577 26.0204 25.1965 25.8426 24.8072C25.7347 24.5713 25.7241 24.4413 25.7065 23.1262C25.6791 21.1073 25.7995 20.3676 26.1871 20.167C26.6963 19.9037 27.1281 20.2716 27.281 21.0985C27.3475 21.4596 27.392 21.5281 27.5401 21.4999C27.6324 21.4825 27.645 21.401 27.6734 20.6315C27.6907 20.1644 27.6943 19.7516 27.6812 19.7138C27.6391 19.5913 27.3977 19.6346 27.3331 19.7762L27.2735 19.9074L27.008 19.7423C26.7683 19.5933 26.7082 19.5795 26.3848 19.6001C26.0991 19.6183 25.9808 19.6555 25.7978 19.7848C25.1563 20.2379 24.7089 21.4173 24.7089 22.6552C24.7089 24.0862 25.273 25.3687 26.0521 25.7092C26.254 25.7972 26.4793 25.8027 26.7547 25.7263ZM32.9296 25.6506C33.0526 25.5023 32.9744 25.376 32.7415 25.3464L32.525 25.3191L31.9071 22.4684C31.5671 20.9008 31.2887 19.6117 31.288 19.6042C31.2874 19.5966 31.214 19.5904 31.1247 19.5904C30.9336 19.5904 30.9696 19.4797 30.6052 21.1802C30.4659 21.8285 30.2111 23.0126 30.0384 23.8117L29.7248 25.2644L29.4639 25.281L29.2029 25.2978L29.2172 22.7047L29.2315 20.1114L29.4232 20.084C29.5939 20.0596 29.6151 20.0382 29.6151 19.8921V19.7276H28.7655H27.9158V19.8921C27.9158 20.0382 27.937 20.0596 28.1074 20.084L28.2993 20.1114V22.6881V25.2648L28.1074 25.292C27.9377 25.3164 27.9136 25.3401 27.8985 25.4985L27.8811 25.6776L29.1868 25.663L30.4923 25.6483L30.5096 25.4969C30.5245 25.3664 30.5039 25.341 30.3587 25.3119C30.2662 25.2935 30.1918 25.2629 30.193 25.2442C30.1947 25.2253 30.2511 24.9384 30.3188 24.6067L30.4417 24.0037L30.8903 23.9878C31.3191 23.9725 31.3398 23.9773 31.3654 24.0975C31.4643 24.5604 31.5611 25.1004 31.5611 25.1881C31.5611 25.2619 31.5219 25.2918 31.4258 25.2918C31.3484 25.2918 31.2668 25.3368 31.2342 25.3979C31.1609 25.5352 31.1615 25.5423 31.2636 25.6443C31.3855 25.7658 32.8295 25.7713 32.9296 25.6506ZM30.4782 23.4141C30.4925 23.3463 30.5851 22.89 30.6841 22.4C30.7833 21.9101 30.8821 21.5091 30.9039 21.5091C30.9259 21.5091 31.0246 21.9347 31.1232 22.4548C31.2216 22.975 31.3139 23.4313 31.328 23.4688C31.3471 23.5201 31.2407 23.5374 30.9027 23.5374C30.4644 23.5374 30.4528 23.5341 30.4782 23.4141Z" fill="white"/>
<path d="M32.9286 16.3834C33.1325 16.7284 33.1861 16.8366 33.4844 17.5075C33.6386 17.8541 33.8242 18.268 33.8966 18.4272C33.969 18.5862 34.0283 18.7284 34.0283 18.7428C34.0283 18.7574 34.1294 19.0059 34.2531 19.2953C34.5393 19.9648 34.6701 20.6033 34.7426 21.6854C34.8399 23.1287 34.6756 24.6386 34.2911 25.8399C34.1209 26.3708 33.7173 27.3014 33.6752 27.2594C33.6624 27.2466 33.7617 26.9337 33.896 26.5642C34.3872 25.2097 34.5766 24.1701 34.5766 22.8232C34.5766 21.41 34.4226 20.3518 34.0528 19.2204C33.7884 18.4116 33.3662 17.6016 32.6854 16.5967C31.5475 14.8017 31.6018 14.5407 32.9286 16.3834Z" fill="#8D9093"/>
</g>
<defs>
<clipPath id="clip0_26_72942">
<rect width="32" height="31.9997" fill="white" transform="translate(8 8)"/>
</clipPath>
</defs>
</svg>
