<svg width="48" height="48" viewBox="0 0 48 48" fill="none" xmlns="http://www.w3.org/2000/svg">
<path d="M9.62963 33.4488C8.88938 33.3345 8.44046 33.0621 8.25905 32.5572L8.16254 32.2887L8.01611 30.9309V29.5332L8.67285 29.523C9.25735 29.5139 9.33477 29.5198 9.37668 29.5767C9.41216 29.6249 9.42378 29.9393 9.42378 30.8517C9.42378 31.9965 9.42799 32.0714 9.50074 32.2207C9.54307 32.3075 9.63598 32.4226 9.70721 32.4766C9.98259 32.6851 9.95741 32.6827 11.8156 32.6825H13.5342L13.6779 32.4045C13.7589 32.2478 13.9269 32.0136 14.0627 31.868C14.1952 31.7258 14.3037 31.6 14.3037 31.5883C14.3037 31.5767 14.1136 31.5624 13.8814 31.5566L13.4591 31.546L13.4677 31.403C13.4878 31.0703 13.9287 30.4363 14.3795 30.0919C14.5038 29.9969 14.7277 29.8631 14.8769 29.7947C15.3996 29.5549 15.4477 29.5519 18.7279 29.5531L21.6798 29.5541L22.5721 30.2053C23.0628 30.5635 23.4824 30.8565 23.5045 30.8565C23.5545 30.8565 24.9151 30.0203 25.3204 29.7404L25.6202 29.5334L26.7653 29.5366C27.9349 29.54 27.9071 29.5391 27.9576 29.5659C28.0311 29.605 28.0049 29.6274 28.0049 30.8777C28.0049 31.9504 28.0145 32.1862 28.0627 32.3006C28.1375 32.4785 28.2148 32.5608 28.3991 32.6589C28.5435 32.7357 28.602 32.7392 29.9349 32.7506C30.697 32.7571 31.3598 32.7526 31.4078 32.7406L31.4951 32.7189L31.5049 31.1634L31.5147 29.6079H32.2091H32.9036L32.9224 31.1547L32.9411 32.7015L35.4601 32.7111L37.9792 32.7206L38.0829 32.6396C38.14 32.595 38.2102 32.5026 38.239 32.4343C38.2837 32.3282 38.2837 32.2921 38.239 32.1859C38.2102 32.1176 38.1402 32.0254 38.0833 31.9809L37.9798 31.9001H35.6809C33.6838 31.9001 33.3759 31.8928 33.3353 31.8443C33.2752 31.7724 33.3373 31.3262 33.4484 31.0315C33.5343 30.8036 33.7469 30.4609 33.9332 30.2503C34.116 30.0435 34.5621 29.7634 34.8574 29.67C35.116 29.5881 35.1377 29.5875 37.2767 29.5977L39.4351 29.6079L39.4461 29.9402C39.454 30.1809 39.4437 30.2809 39.4085 30.3031C39.3819 30.3199 38.519 30.3339 37.4911 30.3342C35.7157 30.3348 35.6149 30.3383 35.4792 30.4071C35.2357 30.5305 34.9492 30.9289 35.0033 31.0689C35.0184 31.1079 35.3813 31.1174 36.842 31.1174C38.0465 31.1174 38.7292 31.1316 38.8608 31.1594C39.1551 31.2213 39.3845 31.3508 39.5773 31.5637C39.7999 31.8095 39.8794 32.0436 39.8603 32.3968C39.8295 32.9691 39.4528 33.3664 38.8485 33.4637C38.5066 33.5188 28.1687 33.5172 27.8104 33.462C27.1879 33.3661 26.8706 33.1809 26.6839 32.8046L26.5597 32.5542L26.541 31.2705C26.5287 30.4339 26.5086 29.9823 26.4833 29.974C26.3934 29.9443 24.2512 31.3086 24.2512 31.3955L26.9211 33.5496C26.9211 33.5715 26.4532 33.4655 25.8406 33.4655H24.8398L23.9487 32.8319C23.4585 32.4834 23.034 32.1983 23.0052 32.1983C22.9537 32.1983 21.4591 33.0984 21.0661 33.366L20.8652 33.5028L15.3979 33.4991C11.2343 33.4963 9.85878 33.4843 9.62963 33.449V33.4488ZM20.3175 32.8666C20.4474 32.7832 20.9253 32.4847 21.3795 32.2031C21.8337 31.9216 22.2053 31.6719 22.2053 31.6484C22.2053 31.6093 20.3016 30.1374 19.9859 29.8587C19.8716 29.7578 19.7319 30.0421 19.7981 30.1522L19.6408 30.3292L17.9073 30.3346C16.0163 30.3404 15.9708 30.355 15.8239 30.4337C15.6027 30.5522 15.1018 30.9988 15.1018 31.1362C15.1018 31.1989 15.5049 31.1759 17.4311 31.1764C18.5511 31.1771 19.5025 31.1742 19.5025 31.1742C19.4959 31.2075 19.5001 31.581 19.5001 31.581L19.5026 31.8441L17.7759 31.8627C15.914 31.8828 16.0065 31.8724 15.7227 32.0933C15.5685 32.2133 15.24 32.6574 15.2967 32.7138L19.9531 32.7013L19.9646 33.0727C19.973 33.3439 20.0158 33.0602 20.3175 32.8666L20.3175 32.8666Z" fill="url(#paint0_linear_26_73012)"/>
<path d="M8.02979 29.5073V29.8602H9.50317V29.5073H8.02979ZM31.3046 29.5283V29.8824H32.9189V29.5283H31.3046ZM25.6277 29.5295L25.4961 29.6215H26.0226C26.1963 29.6172 26.3155 29.6268 26.4034 29.6424L26.4023 29.8882H27.9502V29.5306L27.27 29.5399C26.6397 29.5354 26.1937 29.5323 25.6277 29.5295H25.6277ZM19.3638 29.5504C19.0504 29.5511 18.6874 29.5524 18.2689 29.5539C15.6787 29.5632 15.4694 29.568 15.3839 29.6285C15.3839 29.655 15.2653 29.704 15.5609 29.6832C15.6047 29.6802 15.6245 29.688 15.6879 29.6809C16.0992 29.6875 16.759 29.6739 18.1874 29.6739C19.7909 29.6739 21.1228 29.6811 21.1225 29.6657C21.1216 29.6162 21.2096 29.5872 21.013 29.5702C20.7987 29.5518 20.304 29.5485 19.3638 29.5504V29.5504ZM38.0519 29.5807C37.8072 29.5814 37.5238 29.5827 37.197 29.5842C35.1742 29.5935 35.01 29.5994 34.9432 29.6599C34.9432 29.6864 34.8509 29.7343 35.0818 29.7135C35.116 29.7105 35.1313 29.7195 35.1808 29.7123C35.502 29.7189 36.0175 29.7054 37.1329 29.7054C38.3851 29.7054 39.4253 29.7126 39.4251 29.6972C39.4243 29.6476 39.4924 29.6186 39.3389 29.6017C39.1715 29.5832 38.7861 29.5788 38.0519 29.5807V29.5807Z" fill="url(#paint1_linear_26_73012)"/>
<path d="M34.5889 31.146C34.4948 30.9935 34.8149 30.5645 35.1712 30.3667C35.5743 30.1428 35.7327 30.1275 37.6566 30.127L39.4544 30.1483L39.4822 30.4405C39.3885 30.4451 39.0324 30.4463 37.6201 30.4478C35.5455 30.4499 35.5224 30.4522 35.2369 30.6872C35.1453 30.7626 35.051 30.8791 35.0229 30.9515C35.0037 31.0013 35.0045 31.0433 34.972 31.0741C34.889 31.1166 34.7916 31.1558 34.7149 31.176C34.6804 31.185 34.6451 31.2093 34.6241 31.1985C34.6095 31.1911 34.6183 31.191 34.6052 31.1732L34.5889 31.146Z" fill="url(#paint2_linear_26_73012)"/>
<path d="M14.5808 31.4156C14.5801 31.3758 14.6081 31.2616 14.646 31.1484C14.7438 30.8569 14.9893 30.5765 15.3119 30.388C15.6998 30.1612 15.8057 30.1516 17.9296 30.1494C19.1063 30.1483 19.7932 30.1494 19.7932 30.1494C19.7932 30.1494 19.7932 30.2448 19.7932 30.3177C19.7932 30.3834 19.7932 30.4945 19.7932 30.4945C19.7018 30.4834 19.0596 30.4969 17.9456 30.4969C15.9999 30.4969 15.9073 30.4909 15.6307 30.6605C15.5625 30.7024 15.439 30.81 15.3635 30.8963C15.2629 31.0112 15.1637 31.1142 15.1139 31.23C15.0239 31.3099 14.9086 31.3121 14.8228 31.3516C14.6486 31.4319 14.5752 31.4475 14.5752 31.4475L14.5808 31.4156Z" fill="url(#paint3_linear_26_73012)"/>
<path d="M38.1865 32.4774C38.2391 32.2678 37.9749 31.99 37.678 31.923C37.6048 31.9065 36.6406 31.9017 35.5353 31.9124C34.4301 31.9232 33.4662 31.9076 33.3906 31.9066C33.3112 31.9055 33.28 31.9123 33.265 31.8947C33.2355 31.8603 33.3053 31.7766 33.4431 31.6712L33.6014 31.55L35.546 31.5521C37.6943 31.5543 38.0002 31.5711 38.1762 31.6964C38.476 31.9099 38.5975 32.2566 38.4417 32.4541C38.3394 32.5837 38.054 32.7625 37.9903 32.7231C38.1488 32.5933 38.1396 32.5991 38.1865 32.4774Z" fill="url(#paint4_linear_26_73012)"/>
<path d="M31.4678 32.8014C31.4066 32.7667 31.3159 32.7693 31.3026 32.7346C31.2893 32.6999 31.285 31.9381 31.285 31.0987C31.285 30.0268 31.2825 29.6915 31.2729 29.5184C31.3255 29.5157 31.4498 29.5729 31.5555 29.6787L31.7261 29.8869L31.7149 32.7309C31.7145 32.7895 31.7212 32.8494 31.7134 32.9082C31.6063 32.8619 31.5414 32.8335 31.4678 32.8014H31.4678Z" fill="url(#paint5_linear_26_73012)"/>
<path d="M14.7456 32.8803C14.7456 32.8803 14.7254 32.6734 14.8018 32.4695C14.8834 32.2518 15.1876 31.9402 15.4255 31.8307C15.792 31.6619 15.8717 31.6557 17.6877 31.6553C18.9473 31.6547 19.4965 31.6647 19.4965 31.6647L19.5088 31.9974C19.5088 31.9974 18.8336 31.9986 17.7761 31.9987C16.7601 31.9987 16.0814 32.0124 15.9955 32.0344C15.7246 32.1038 15.4358 32.3843 15.3278 32.6828C15.3101 32.7319 14.8101 32.8754 14.7691 32.8932L14.7456 32.8803Z" fill="url(#paint6_linear_26_73012)"/>
<path d="M27.9865 33.52C27.6764 33.4803 27.1461 33.2991 26.9571 33.1683C26.8181 33.0721 26.6368 32.866 26.5537 32.7099C26.4481 32.5117 26.4051 32.0535 26.4038 31.1144C26.4031 30.598 26.407 30.1573 26.3895 30.1464C26.372 30.1356 25.9528 30.3769 25.481 30.671C24.5982 31.2215 24.3448 31.3911 24.1734 31.47L23.4834 31.4734C23.5727 31.39 26.1861 29.7282 26.3239 29.6707C26.4185 29.6311 26.3568 29.6209 26.4019 29.6468C26.4686 29.685 26.6888 29.7671 26.7154 29.8292C26.7626 29.9394 26.7259 30.1657 26.7398 30.9431C26.7643 32.3086 26.7793 32.3832 27.0913 32.6879C27.2223 32.8157 27.3751 32.9172 27.5445 32.9888C27.5445 32.9888 27.7264 33.0435 27.819 33.064C27.8843 33.0784 28.0168 33.0973 28.0168 33.0973L33.1641 33.1068L38.4415 33.1101C38.4415 33.1101 38.566 33.0904 38.6252 33.07C38.6706 33.0544 38.7116 33.0284 38.7548 33.0077C39.4351 32.6804 39.6713 32.237 39.4267 31.7462C39.3743 31.641 39.2642 31.4942 39.182 31.42C39.0999 31.3458 38.9781 31.2296 38.9845 31.2106C39.0022 31.1586 39.4139 31.3754 39.5369 31.4982C39.8443 31.8051 39.9745 32.4218 39.7733 32.833C39.5666 33.2555 39.148 33.4753 38.5603 33.5278C38.0841 33.5704 28.3237 33.5631 27.9865 33.5199V33.52Z" fill="url(#paint7_linear_26_73012)"/>
<path d="M9.61163 33.5071C9.21417 33.4505 9.03229 33.3881 8.76345 33.2161C8.50368 33.0499 8.30684 32.8197 8.16771 32.5192C8.14305 32.4659 8.11456 32.4142 8.09507 32.3588C8.07846 32.3117 8.06636 32.2628 8.05768 32.2136C8.04047 32.1159 8.03436 32.0165 8.02891 31.9175C8.01191 31.609 8.01667 30.9905 8.01667 30.9905L8.00341 29.6022C8.00302 29.5608 8 29.5024 8 29.5024C8 29.5024 8.1513 29.5795 8.2598 29.673L8.46037 29.8458L8.46162 30.8107C8.46302 31.8843 8.48295 32.0086 8.64953 32.362C8.74973 32.5746 8.96856 32.7636 9.32185 32.9426C9.73732 33.1531 9.7278 33.1528 14.9599 33.1528H19.7579L19.9988 32.9757C20.1313 32.8784 20.645 32.5471 21.1404 32.2396C21.6358 31.9321 22.0413 31.6627 22.0414 31.6409C22.0419 31.5617 21.8155 31.39 20.1313 30.1922C19.8068 29.9615 19.557 29.7948 19.4307 29.6797C19.5513 29.6826 19.8271 29.6866 19.9999 29.6867L20.2712 29.6869L21.0912 30.2708C21.5422 30.592 22.0789 30.9746 22.2839 31.121C22.4888 31.2675 22.7697 31.4835 22.7428 31.5008L21.7062 32.166C21.3908 32.3684 21.0446 32.5815 20.9421 32.6477C20.8396 32.7139 20.6342 32.8464 20.4856 32.9421C20.3369 33.0378 20.2054 33.1561 20.2054 33.1764C20.2353 33.1946 20.3441 33.1899 20.5228 33.1897L20.8303 33.1891L21.8827 32.5026C22.4616 32.125 22.9683 31.8056 23.0088 31.7927C23.1112 31.7602 23.1445 31.7807 24.1288 32.4813C24.6106 32.8241 25.0571 33.1641 25.0981 33.1849C25.1391 33.2057 25.3551 33.1898 25.6011 33.2015C25.7794 33.2099 25.8758 33.1987 25.9956 33.219C26.6333 33.4517 26.0714 33.2489 26.9068 33.5553L24.742 33.5575C24.6272 33.4974 23.5654 32.732 23.2731 32.4946C23.139 32.3858 23.0057 32.2964 22.9768 32.296C22.9479 32.2954 22.7718 32.3998 22.5854 32.5275C22.3991 32.6551 21.9794 32.9403 21.6528 33.1611L21.0589 33.5625L15.503 33.5585C11.2015 33.5555 9.87133 33.5438 9.61163 33.5068V33.5071Z" fill="url(#paint8_linear_26_73012)"/>
<path d="M28.1146 32.6669C27.8745 32.6022 27.7081 32.4799 27.64 32.3875C27.5959 32.3276 27.5936 32.3397 27.5825 32.3061C27.5721 32.2746 27.5473 32.2203 27.5424 32.1875C27.4923 31.8546 27.4961 31.0655 27.4961 31.0655V29.9176L27.7042 29.7323C27.8187 29.6304 27.9189 29.5404 27.9269 29.5323C27.935 29.5243 27.9483 29.5295 27.9796 29.5555C28.0285 29.5961 28.0082 29.8146 28.0083 30.9587C28.0083 32.4699 28.1287 32.509 28.4496 32.697C28.5887 32.7337 28.3083 32.7226 28.1146 32.6669ZM9.48566 32.5888C9.2805 32.5391 9.10405 32.3631 9.06768 32.2616L9.02059 32.1302C8.98965 31.3722 8.96826 30.6265 8.96826 29.8463L9.11588 29.6989C9.28113 29.5338 9.48963 29.5032 9.48963 29.5032C9.50342 29.5318 9.49921 30.1518 9.50464 30.8779C9.51646 32.4587 9.49342 32.3425 9.83246 32.5303C9.92868 32.5836 10.1164 32.6349 10.1057 32.6525C10.083 32.69 9.64899 32.6284 9.48566 32.5888ZM32.416 31.3771V29.8715L32.5469 29.7565C32.6898 29.6311 32.8971 29.5125 32.9249 29.5403C32.9482 29.5636 32.9541 32.6452 32.9306 32.7064C32.9205 32.7325 32.8174 32.783 32.7177 32.8184C32.5849 32.8655 32.4313 32.9076 32.434 32.8926C32.414 32.9085 32.4159 32.3911 32.4159 31.3771H32.416Z" fill="url(#paint9_linear_26_73012)"/>
<path d="M33.2527 31.8981C33.2539 31.7071 33.3699 31.1284 33.5299 30.801C33.7323 30.3867 34.0931 29.9889 34.424 29.8151C34.5509 29.7485 34.6745 29.6938 34.6987 29.6937C34.8333 29.6533 35.0409 29.6163 35.2184 29.6017C35.0869 29.6606 34.9767 29.6947 34.8252 29.7833C34.6195 29.8958 34.4362 29.9948 34.1522 30.3421C34.0509 30.466 33.9749 30.5722 33.8989 30.7854C33.7974 31.07 33.7696 31.3617 33.7411 31.5453C33.6425 31.5991 33.6495 31.6241 33.2527 31.8981ZM13.3477 31.531C13.3477 31.3972 13.5259 30.984 13.7368 30.6291C13.9805 30.2192 14.2036 30.021 14.6167 29.8476C14.9213 29.7198 15.4739 29.5903 15.6161 29.5942C15.7019 29.5965 15.3798 29.7051 15.1989 29.7723C14.8812 29.8904 14.6926 30.0322 14.4163 30.3105C14.2451 30.4828 14.074 30.7043 13.8289 31.3164L13.7524 31.5575L13.5334 31.5542C13.377 31.5519 13.3743 31.5471 13.3477 31.531V31.531ZM20.8922 29.5532L21.6777 29.5522C22.7243 30.3249 23.3148 30.7253 23.502 30.8601L23.0537 31.1373C22.051 30.4174 21.7635 30.1801 20.8922 29.5532V29.5532Z" fill="url(#paint10_linear_26_73012)"/>
<path d="M24.2067 31.9936L23.4995 31.4684H23.862C24.0613 31.4684 24.244 31.3885 24.2734 31.4143C24.2734 31.4143 24.8589 31.8903 26.9183 33.5394C25.5903 33.1988 25.208 32.7373 24.2067 31.9936Z" fill="url(#paint11_linear_26_73012)"/>
<path d="M13.5904 32.7184C13.5283 32.6748 13.531 32.6572 13.6374 32.4202C13.7657 32.1342 14.2264 31.6222 14.4131 31.4969C14.4853 31.4486 14.5975 31.3755 14.7 31.3377C14.8025 31.2999 14.8995 31.2535 14.9865 31.2198C15.0388 31.1996 15.1429 31.1717 15.3326 31.1734L15.6318 31.1762L15.4454 31.2426C15.0928 31.3683 14.8491 31.5171 14.5936 31.7629C14.3012 32.0443 14.1246 32.3011 13.9866 32.6459C13.9337 32.7779 13.8891 32.8831 13.8759 32.8913C13.7666 32.8888 13.6836 32.7826 13.5904 32.7184V32.7184Z" fill="url(#paint12_linear_26_73012)"/>
<path d="M22.5161 27.5134C21.1676 27.3719 19.9057 27.0114 18.6659 26.4134C17.6326 25.915 16.976 25.4552 16.2754 24.7392C15.4897 23.9363 15.1065 23.3491 14.7473 22.3977C14.318 21.2605 14.4672 19.7393 15.1379 18.4139C15.7028 17.2978 16.4115 16.5156 17.5236 15.7811C17.9371 15.508 18.9624 14.9821 19.2318 14.9048C19.4219 14.8504 19.1376 14.957 18.8128 15.1449C18.6124 15.256 18.4886 15.3245 18.3037 15.4342C17.8742 15.696 17.7628 15.7887 17.3173 16.1479C16.0999 17.1293 15.3439 18.2934 15.0726 19.6044C14.984 20.0328 14.984 20.9929 15.0726 21.4213C15.3942 22.9756 16.3288 24.2491 17.9226 25.305C18.8394 25.9124 19.9022 26.3597 21.141 26.6595C22.1882 26.9129 22.5831 26.9536 23.9969 26.9536C25.0274 26.9536 25.3617 26.9389 25.7739 26.8757C27.0904 26.6736 28.4937 26.2182 29.4337 25.688C30.2028 25.2542 30.4584 25.1031 30.5278 25.0412C30.5674 25.0059 30.7449 24.9118 30.9222 24.8322C31.1347 24.7368 31.2857 24.6367 31.3651 24.5386C31.4834 24.3926 31.4914 24.3898 31.7924 24.3898C31.9727 24.3898 32.249 24.129 32.249 24.154C31.8974 24.6557 31.316 25.2137 30.9859 25.4676C30.4957 25.8458 30.1107 26.1043 29.4125 26.4365C28.238 26.9952 27.2763 27.3215 25.7951 27.4995C24.7093 27.6301 23.5541 27.6225 22.5161 27.5134Z" fill="url(#paint13_linear_26_73012)"/>
<path d="M22.4225 26.8473C21.6435 26.7644 20.501 26.5164 19.8977 26.2993C19.4706 26.1456 18.5664 25.7504 18.3321 25.615C18.0722 25.4648 17.4395 24.9942 17.0707 24.6768C16.5925 24.2652 15.8258 23.299 15.8922 23.1915C15.9112 23.1608 16.2545 23.033 16.3175 23.033C16.3289 23.033 16.3922 23.1275 16.4676 23.2616C16.8099 23.8709 17.3195 24.4178 17.887 24.8804C18.6464 25.4995 19.1938 25.7732 20.3031 26.0883C22.5909 26.7381 25.2528 26.708 27.3819 26.0081C28.2133 25.7348 29.0546 25.2782 29.3711 24.9286C29.4569 24.8338 30.1376 24.5938 30.1853 24.6415C30.2455 24.7016 30.0855 24.9053 29.7556 25.1888C29.1676 25.6939 27.7051 26.324 26.5341 26.5767C25.4805 26.804 25.1091 26.842 23.8213 26.854C23.1452 26.8602 22.5157 26.8572 22.4225 26.8473Z" fill="url(#paint14_linear_26_73012)"/>
<path d="M18.2799 25.4049C17.937 25.2959 17.748 25.188 17.3262 24.8605C16.399 24.1408 15.7289 23.2295 15.433 22.2863C15.2582 21.7292 15.2185 21.3643 15.2446 20.5573C15.2647 19.9381 15.2851 19.7706 15.3798 19.4487C15.6159 18.6468 15.9433 18.0369 16.4906 17.3796C17.7308 15.8902 20.0475 14.7665 22.4057 14.5105C23.0587 14.4397 24.2788 14.4335 24.4665 14.5002C24.6595 14.5687 24.8613 14.792 24.9262 15.0089C24.9691 15.1522 24.9635 15.1945 24.8799 15.3586C24.8276 15.4613 24.7304 15.6123 24.6638 15.6943C24.5973 15.7763 24.4238 16.0008 24.2783 16.1931C24.1328 16.3854 23.7931 16.8146 23.5233 17.1468C23.2535 17.479 22.8142 18.056 22.5471 18.429C22.0526 19.1195 20.9699 20.7575 20.7539 21.1419C20.6884 21.2584 20.5718 21.4418 20.4948 21.5493C20.4178 21.6568 20.2858 21.8904 20.2014 22.0684C20.0601 22.3664 20.0492 22.4167 20.0636 22.7033C20.0833 23.0933 20.2049 23.2961 20.554 23.5213C21.0794 23.8601 20.6018 23.8335 26.1465 23.8335H31.0923L31.521 23.3714C31.8522 23.0145 31.9828 22.8375 32.0953 22.5936C32.2598 22.2371 32.4298 21.6804 32.5032 21.2579C32.5655 20.8994 32.5267 19.9389 32.4399 19.6936C32.2766 19.0297 31.9878 18.3808 31.6314 17.8144C30.9524 16.7539 29.9849 15.9117 28.5866 15.1637C28.3384 15.0309 27.7043 14.7249 27.7142 14.7151C27.7446 14.6846 28.6887 15.079 29.1543 15.3109C30.3043 15.8839 31.2932 16.7041 31.95 17.6298C32.4367 18.3159 32.8405 19.0966 33.0397 19.8835C33.1505 20.3214 33.1641 20.7024 33.1628 21.1794C33.1601 22.1313 32.9615 22.7564 32.4959 23.6644C32.1693 24.3013 32.0946 24.3829 31.5998 24.6432L31.0517 24.8417L26.1719 24.872C21.1913 24.9029 21.1773 24.8717 20.6919 24.7781C19.6532 24.5776 19.2277 24.3301 18.9564 23.7687C18.8218 23.4901 18.7917 22.9492 18.8892 22.5602C19.1123 21.6701 20.643 19.2985 22.7843 16.5251C23.1921 15.997 23.5451 15.5287 23.5688 15.4844C23.6816 15.2732 23.5687 15.1335 23.2469 15.0858C23.0224 15.0526 21.8781 15.2307 21.3829 15.3759C20.1722 15.7311 19.7051 15.9119 19.1006 16.2595C18.1909 16.7827 17.4448 17.4253 16.927 18.1317C16.3747 18.8851 16.1551 19.359 15.9463 20.2483C15.8228 20.7741 15.8514 21.5951 16.0136 22.1789C16.3516 23.3957 17.0691 24.3414 18.3117 25.2078C18.5037 25.3417 18.6608 25.4592 18.6608 25.4689C18.6608 25.5033 18.5097 25.4779 18.2799 25.4049Z" fill="url(#paint15_linear_26_73012)"/>
<path d="M18.3043 25.4134C17.9614 25.3044 17.7724 25.1965 17.3506 24.8691C16.4235 24.1493 15.7533 23.238 15.4574 22.2949C15.2826 21.7378 15.2429 21.3728 15.269 20.5659C15.2891 19.9466 15.3095 19.7791 15.4043 19.4573C15.6403 18.6553 15.9677 18.0455 16.515 17.3882C17.7552 15.8987 20.0719 14.775 22.4302 14.5191C23.0831 14.4482 24.3032 14.4421 24.491 14.5087C24.6839 14.5772 24.8857 14.8006 24.9506 15.0175C24.9935 15.1608 24.9879 15.2031 24.9043 15.3671C24.852 15.4698 24.7548 15.6209 24.6882 15.7029C24.6217 15.7849 24.4482 16.0093 24.3027 16.2016C24.1572 16.394 23.8175 16.8231 23.5477 17.1554C23.2779 17.4876 22.8387 18.0646 22.5715 18.4376C22.077 19.1281 20.9944 20.766 20.7783 21.1504C20.7128 21.267 20.5962 21.4503 20.5192 21.5578C20.4422 21.6653 20.3102 21.8989 20.2258 22.0769C20.0845 22.3749 20.0736 22.4253 20.088 22.7118C20.1077 23.1018 20.2293 23.3047 20.5784 23.5298C21.1038 23.8687 20.6263 23.842 26.1709 23.842H31.1167L31.5454 23.38C31.8766 23.023 32.0072 22.8461 32.1197 22.6022C32.2842 22.2457 32.4542 21.689 32.5276 21.2665C32.59 20.9079 32.5511 19.9475 32.4643 19.7022C32.3011 19.0382 31.9468 18.4475 31.5905 17.8811C30.9114 16.8206 30.0093 16.129 28.611 15.381C28.3628 15.2482 27.1345 14.589 27.7386 14.7236C27.769 14.6931 28.7131 15.0875 29.1787 15.3195C30.3288 15.8924 31.3176 16.7126 31.9744 17.6383C32.4612 18.3244 32.865 19.1052 33.0641 19.8921C33.1749 20.3299 33.1885 20.711 33.1872 21.1879C33.1845 22.1399 32.9859 22.765 32.5203 23.6729C32.1937 24.3099 32.119 24.3914 31.6243 24.6518L31.0761 24.8502L26.1963 24.8805C21.2157 24.9114 21.2018 24.8803 20.7164 24.7866C19.6776 24.5861 19.2521 24.3387 18.9808 23.7772C18.8462 23.4987 18.8161 22.9578 18.9136 22.5688C19.1367 21.6786 20.6674 19.307 22.8088 16.5337C23.2165 16.0056 23.5695 15.5372 23.5932 15.4929C23.706 15.2818 23.5931 15.142 23.2713 15.0943C23.0469 15.0611 21.9026 15.2392 21.4073 15.3845C20.1966 15.7396 19.7295 15.9205 19.125 16.2681C18.2153 16.7913 17.4692 17.4338 16.9514 18.1402C16.3991 18.8936 16.1795 19.3675 15.9707 20.2568C15.8472 20.7826 15.8758 21.6037 16.038 22.1874C16.376 23.4042 17.0936 24.35 18.3361 25.2164C18.5281 25.3503 18.6852 25.4678 18.6852 25.4775C18.6852 25.5119 18.5341 25.4865 18.3043 25.4134Z" fill="url(#paint16_linear_26_73012)"/>
<path d="M18.3043 25.4134C17.9614 25.3044 17.7724 25.1965 17.3506 24.8691C16.4235 24.1493 15.7533 23.238 15.4574 22.2949C15.2826 21.7378 15.2429 21.3728 15.269 20.5659C15.2891 19.9466 15.3095 19.7791 15.4043 19.4573C15.6403 18.6553 15.9677 18.0455 16.515 17.3882C17.7552 15.8987 20.0719 14.775 22.4302 14.5191C23.0831 14.4482 24.3032 14.4421 24.491 14.5087C24.6839 14.5772 24.8857 14.8006 24.9506 15.0175C24.9935 15.1608 24.9879 15.2031 24.9043 15.3671C24.852 15.4698 24.7548 15.6209 24.6882 15.7029C24.6217 15.7849 24.4482 16.0093 24.3027 16.2016C24.1572 16.394 23.8175 16.8231 23.5477 17.1554C23.2779 17.4876 22.8387 18.0646 22.5715 18.4376C22.077 19.1281 20.9944 20.766 20.7783 21.1504C20.7128 21.267 20.5962 21.4503 20.5192 21.5578C20.4422 21.6653 20.3102 21.8989 20.2258 22.0769C20.0845 22.3749 20.0736 22.4253 20.088 22.7118C20.1077 23.1018 20.2293 23.3047 20.5784 23.5298C21.1038 23.8687 20.6263 23.842 26.1709 23.842H31.1167L31.5454 23.38C31.8766 23.023 32.0072 22.8461 32.1197 22.6022C32.2842 22.2457 32.4542 21.689 32.5276 21.2665C32.59 20.9079 32.5511 19.9475 32.4643 19.7022C32.3011 19.0382 32.0122 18.3893 31.6558 17.823C30.9768 16.7624 30.0093 15.9202 28.611 15.1722C28.3628 15.0394 27.7288 14.7335 27.7386 14.7236C27.769 14.6931 28.7131 15.0875 29.1787 15.3195C30.3288 15.8924 31.3176 16.7126 31.9744 17.6383C32.4612 18.3244 32.865 19.1052 33.0641 19.8921C33.1749 20.3299 33.1885 20.711 33.1872 21.1879C33.1845 22.1399 32.9859 22.765 32.5203 23.6729C32.1937 24.3099 32.119 24.3914 31.6243 24.6518L31.0761 24.8502L26.1963 24.8805C21.2157 24.9114 21.2018 24.8803 20.7164 24.7866C19.6776 24.5861 19.2521 24.3387 18.9808 23.7772C18.8462 23.4987 18.8161 22.9578 18.9136 22.5688C19.1367 21.6786 20.6674 19.307 22.8088 16.5337C23.2165 16.0056 23.5695 15.5372 23.5932 15.4929C23.706 15.2818 23.5931 15.142 23.2713 15.0943C23.0469 15.0611 21.9026 15.2392 21.4073 15.3845C20.1966 15.7396 19.7295 15.9205 19.125 16.2681C18.2153 16.7913 17.4692 17.4338 16.9514 18.1402C16.3991 18.8936 16.1795 19.3675 15.9707 20.2568C15.8472 20.7826 15.8758 21.6037 16.038 22.1874C16.376 23.4042 17.0936 24.35 18.3361 25.2164C18.5281 25.3503 18.6852 25.4678 18.6852 25.4775C18.6852 25.5119 18.5341 25.4865 18.3043 25.4134Z" fill="url(#paint17_linear_26_73012)"/>
<path d="M15.2448 20.5573C15.2648 19.9381 15.2853 19.7706 15.38 19.4487C15.6161 18.6468 15.9434 18.0369 16.4907 17.3796C17.731 15.8902 20.0476 14.7665 22.4059 14.5105C23.0589 14.4397 24.279 14.4335 24.4667 14.5002C24.6597 14.5687 24.8615 14.792 24.9264 15.0089C24.9692 15.1522 24.9636 15.1945 24.8801 15.3586C24.8278 15.4613 24.7305 15.6123 24.664 15.6943C24.5974 15.7763 24.424 16.0008 24.2785 16.1931C24.133 16.3854 23.7932 16.8146 23.5235 17.1468C23.2537 17.479 22.8144 18.056 22.5473 18.429C22.0528 19.1195 20.9701 20.7575 20.7541 21.1419C20.6886 21.2584 20.572 21.4418 20.495 21.5493C20.418 21.6568 20.2859 21.8904 20.2015 22.0684C20.0603 22.3664 20.0493 22.4167 20.0638 22.7033C20.0835 23.0933 20.205 23.2961 20.5541 23.5213C21.0796 23.8601 20.602 23.8335 26.1466 23.8335H31.0925L31.5212 23.3714C31.8523 23.0145 31.983 22.8375 32.0955 22.5936C32.2599 22.2371 32.4299 21.6804 32.5034 21.2579C32.5657 20.8994 32.5269 19.9389 32.4401 19.6936C32.2768 19.0297 31.9077 18.4611 31.5513 17.8947C30.8722 16.8342 29.9048 15.992 28.5064 15.244C28.2582 15.1112 27.7045 14.7249 27.7144 14.7151C27.7448 14.6846 28.6889 15.079 29.1545 15.3109C30.3045 15.8839 31.2934 16.7041 31.9501 17.6298C32.4369 18.3159 32.8407 19.0966 33.0399 19.8835C33.1507 20.3214 33.1643 20.7024 33.1629 21.1794C33.1603 22.1313 32.9616 22.7564 32.496 23.6644C32.1694 24.3013 32.0948 24.3829 31.6 24.6432L31.0518 24.8417L26.1721 24.872C21.1915 24.9029 21.1775 24.8717 20.6921 24.7781C19.6534 24.5776 19.2279 24.3301 18.9565 23.7687C18.8219 23.4901 18.7919 22.9492 18.8894 22.5602C19.1125 21.6701 20.6431 19.2985 22.7845 16.5251C23.1923 15.997 23.5453 15.5287 23.5689 15.4844C23.6817 15.2732 23.5689 15.1335 23.2471 15.0858C23.0226 15.0526 21.8783 15.2307 21.383 15.3759C20.1724 15.7311 19.7052 15.9119 19.1008 16.2595C18.191 16.7827 17.445 17.4253 16.9271 18.1317C16.3748 18.8851 16.1552 19.359 15.9464 20.2483C15.823 20.7741 15.8516 21.5951 16.0137 22.1789C15.3098 21.5908 15.2295 21.0694 15.2448 20.5573Z" fill="url(#paint18_linear_26_73012)"/>
<path d="M15.433 22.2863C15.2582 21.7292 15.2185 21.3643 15.2446 20.5573C15.2647 19.9381 15.2851 19.7706 15.3798 19.4487C15.6159 18.6468 15.9433 18.0369 16.4906 17.3796C17.7308 15.8902 20.0475 14.7665 22.4057 14.5105C23.0587 14.4397 24.2788 14.4335 24.4665 14.5002C24.6595 14.5687 24.8613 14.792 24.9262 15.0089C24.9691 15.1522 24.9635 15.1945 24.8799 15.3586C24.8276 15.4613 24.7304 15.6123 24.6638 15.6943C24.5973 15.7763 24.4238 16.0008 24.2783 16.1931C24.1328 16.3854 23.7931 16.8146 23.5233 17.1468C23.2535 17.479 22.8142 18.056 22.5471 18.429C22.0526 19.1195 20.9699 20.7575 20.7539 21.1419C20.6884 21.2584 20.5718 21.4418 20.4948 21.5493C20.4178 21.6568 20.2858 21.8904 20.2014 22.0684C20.0601 22.3664 20.0492 22.4167 20.0636 22.7033C20.0833 23.0933 20.2049 23.2961 20.554 23.5213C21.0794 23.8601 20.6018 23.8335 26.1465 23.8335H31.0923L31.521 23.3714C31.8522 23.0145 31.9828 22.8375 32.0953 22.5936C32.2598 22.2371 32.4297 21.6804 32.5032 21.2579C32.5655 20.8994 32.5267 19.9389 32.4399 19.6936C32.2766 19.0297 31.9878 18.3808 31.6314 17.8144C30.9524 16.7539 29.9849 15.9117 28.5866 15.1637C28.3384 15.0309 27.7043 14.7249 27.7142 14.7151C27.7446 14.6846 28.6887 15.079 29.1543 15.3109C30.3043 15.8839 31.2932 16.7041 31.95 17.6298C32.4367 18.3159 32.8405 19.0966 33.0397 19.8835C33.1505 20.3214 33.1641 20.7024 33.1628 21.1794C33.1601 22.1313 32.9615 22.7564 32.4959 23.6644C32.1693 24.3013 32.0946 24.3829 31.5998 24.6432L31.0517 24.8417L26.1719 24.872C21.1913 24.9029 21.1773 24.8717 20.6919 24.7781C19.6532 24.5776 19.2277 24.3301 18.9564 23.7687C18.8218 23.4901 18.7917 22.9492 18.8892 22.5602C19.1123 21.6701 20.643 19.2985 22.7843 16.5251C23.1921 15.997 23.5451 15.5287 23.5688 15.4844C23.6816 15.2732 23.5687 15.1335 23.2469 15.0858C23.0224 15.0526 21.8781 15.2307 21.3829 15.3759C20.1722 15.7311 19.7051 15.9119 19.1006 16.2595C18.1909 16.7827 17.4448 17.4253 16.927 18.1317C16.3747 18.8851 16.1551 19.359 15.9463 20.2483C15.8228 20.7741 15.8514 21.5951 16.0136 22.1789C15.8161 22.2946 16.3436 23.0991 15.433 22.2863Z" fill="url(#paint19_linear_26_73012)"/>
<path d="M15.4799 22.2399C15.3051 21.6828 15.2653 21.3179 15.2915 20.5109C15.3115 19.8917 15.332 19.7242 15.4267 19.4023C15.6628 18.6004 15.9901 17.9905 16.5374 17.3332C17.7777 15.8438 20.0943 14.7201 22.4526 14.4642C23.1056 14.3933 24.3257 14.3872 24.5134 14.4538C24.7064 14.5223 24.9082 14.7457 24.9731 14.9625C25.0159 15.1059 25.0103 15.1481 24.9268 15.3122C24.8745 15.4149 24.7772 15.566 24.7107 15.6479C24.6441 15.7299 24.4707 15.9544 24.3252 16.1467C24.1797 16.339 23.8399 16.7682 23.5702 17.1004C23.3004 17.4327 22.8611 18.0097 22.594 18.3827C22.0995 19.0731 21.0168 20.7111 20.8008 21.0955C20.7353 21.212 20.6187 21.3954 20.5417 21.5029C20.4647 21.6104 20.3326 21.844 20.2482 22.022C20.107 22.32 20.096 22.3703 20.1105 22.6569C20.1302 23.0469 20.2517 23.2497 20.6008 23.4749C21.1263 23.8138 20.6487 23.7871 26.1933 23.7871H31.1392L31.5679 23.325C31.899 22.9681 32.0297 22.7911 32.1422 22.5472C32.3066 22.1907 32.4766 21.6341 32.5501 21.2115C32.6124 20.853 32.5736 19.8925 32.4868 19.6472C32.3235 18.9833 31.9544 18.4147 31.598 17.8483C30.919 16.7878 29.9515 15.9456 28.5531 15.1976C28.3049 15.0648 27.7512 14.6786 27.7611 14.6687C27.7915 14.6382 28.7356 15.0326 29.2012 15.2646C30.3512 15.8375 31.3401 16.6577 31.9968 17.5834C32.4836 18.2695 32.8874 19.0502 33.0866 19.8371C33.1974 20.275 33.211 20.6561 33.2096 21.133C33.207 22.0849 33.0084 22.71 32.5428 23.618C32.2161 24.2549 32.1415 24.3365 31.6467 24.5969L31.0985 24.7953L26.2188 24.8256C21.2382 24.8565 21.2242 24.8253 20.7388 24.7317C19.7001 24.5312 19.2746 24.2837 19.0033 23.7223C18.8686 23.4437 18.8386 22.9028 18.9361 22.5139C19.1592 21.6237 20.6898 19.2521 22.8312 16.4787C23.239 15.9506 23.592 15.4823 23.6156 15.438C23.7284 15.2269 23.6156 15.0871 23.2938 15.0394C23.0693 15.0062 21.925 15.1843 21.4297 15.3296C20.2191 15.6847 19.7519 15.8655 19.1475 16.2131C18.2377 16.7363 17.4917 17.3789 16.9738 18.0853C16.4215 18.8387 16.2019 19.3126 15.9931 20.2019C15.8697 20.7277 15.8983 21.5487 16.0605 22.1325C15.863 22.2482 15.9059 22.2015 15.4799 22.2399Z" fill="url(#paint20_linear_26_73012)"/>
<g opacity="0.8">
<path d="M22.4888 14.5487C23.1031 14.4808 24.2509 14.4749 24.4276 14.5388C24.6091 14.6044 24.799 14.8185 24.86 15.0264C24.9003 15.1637 24.8951 15.2042 24.8165 15.3615C24.7673 15.4599 24.6758 15.6047 24.6132 15.6833C24.5506 15.7619 24.3873 15.977 24.2505 16.1613C23.2606 17.1573 23.4468 16.5913 23.5829 15.4821C23.6891 15.2797 23.5829 15.1457 23.2801 15.1C22.8941 14.7946 23.2625 14.8456 22.4888 14.5487Z" fill="url(#paint21_linear_26_73012)"/>
</g>
<path d="M23.2603 17.4059C23.0065 17.7243 22.5932 18.2773 22.3419 18.6348C21.8767 19.2966 20.8581 20.8664 20.6549 21.2348C20.5933 21.3465 20.4836 21.5223 20.4111 21.6253C20.3387 21.7283 20.2144 21.9522 20.135 22.1228C20.0021 22.4084 19.9919 22.4567 20.0054 22.7313C20.0239 23.1051 20.1383 23.2995 20.4668 23.5153C20.9611 23.8401 20.5118 23.8145 25.7282 23.8145C26.4067 24.1164 31.6995 24.6188 25.7521 24.8099C21.0664 24.8395 21.0532 24.8096 20.5966 24.7198C19.6193 24.5277 19.219 24.2905 18.9637 23.7524C18.8371 23.4854 18.8088 22.967 18.9005 22.5942C20.0571 18.575 23.8116 16.5485 23.2603 17.4059Z" fill="url(#paint22_linear_26_73012)"/>
<path d="M22.1497 23.0261C21.9387 22.7303 21.9328 22.3833 22.1313 21.9319C22.4803 21.1382 24.4558 18.3752 25.9471 16.5951C26.8076 15.5679 27.155 15.079 27.155 14.895C27.155 14.814 27.1032 14.7153 27.0017 14.603L26.7307 14.3584L26.9728 14.4333C27.1233 14.4799 27.5528 14.6231 27.6811 14.7072C27.8915 14.845 27.8552 15.229 27.6401 15.6034C27.5377 15.7818 27.1306 16.3082 26.7749 16.7223C25.803 17.8536 24.6542 19.4031 23.5849 21.0246C23.0169 21.886 22.8353 22.2523 22.8967 22.4124C22.9285 22.4953 22.3894 23.1234 22.2881 23.1215C22.2489 23.1208 22.1867 23.0778 22.1497 23.0261Z" fill="#505050"/>
<path d="M31.2122 23.3144C31.1209 23.2134 30.8947 22.7399 30.8947 22.6623C30.8947 22.6285 30.9867 22.6284 31.0252 22.5973C31.1414 22.5034 31.222 22.313 31.3366 21.862C31.6044 20.8073 31.4927 19.7625 31.0034 18.7451C30.4007 17.4923 29.1534 16.4231 27.7615 15.9664C27.565 15.9019 27.5027 15.8786 27.4613 15.8315C27.3899 15.7503 27.3992 15.7202 27.5162 15.4643C27.6031 15.2743 27.6229 15.1743 27.6878 15.1649C27.7386 15.1576 27.9856 15.2563 28.3522 15.4352C30.1489 16.3119 31.3278 17.419 31.921 18.7869C32.2318 19.5033 32.2992 19.7866 32.3265 20.4892C32.3602 21.3592 32.222 21.9995 31.8383 22.752C31.5286 23.3595 31.3633 23.4816 31.2122 23.3144Z" fill="url(#paint23_linear_26_73012)"/>
<path d="M22.6811 23.3629C22.4618 23.3355 22.2593 23.1938 22.2593 23.1094C22.2593 23.0254 22.8226 22.376 22.8931 22.376C22.9168 22.376 22.9291 22.4682 23.005 22.5068C23.1297 22.5705 23.5188 22.5788 27.0858 22.5943L31.0288 22.6115L31.1988 22.9198C31.3017 23.1063 31.3887 23.2861 31.3721 23.3288C31.3466 23.394 28.9462 23.4328 25.031 23.4269C22.7011 23.4234 22.7522 23.3718 22.6811 23.3629V23.3629Z" fill="url(#paint24_linear_26_73012)"/>
<path opacity="0.5" d="M22.6811 23.3629C22.4618 23.3355 22.2593 23.1938 22.2593 23.1094C22.2593 23.0254 22.8226 22.376 22.8931 22.376C22.9168 22.376 22.9291 22.4682 23.005 22.5068C23.1297 22.5705 23.5188 22.5788 27.0858 22.5943L31.0288 22.6115L31.1988 22.9198C31.3017 23.1063 31.3887 23.2861 31.3721 23.3288C31.3466 23.394 28.9462 23.4328 25.031 23.4269C22.7011 23.4234 22.7522 23.3718 22.6811 23.3629V23.3629Z" fill="url(#paint25_linear_26_73012)"/>
<path d="M22.6862 27.0995C18.5886 26.7421 15.3121 24.3406 14.8252 21.3381C14.5209 19.4618 15.326 17.6307 17.1012 16.1614C17.7122 15.6557 17.8729 15.5517 18.6594 15.1535C20.1296 14.4091 21.5573 14.0695 23.428 14.0194C24.4346 13.9924 25.1651 14.0379 25.9909 14.1791C26.7101 14.302 26.7961 14.3324 26.9984 14.5347C27.1433 14.6796 27.1793 14.7455 27.1793 14.8659C27.1793 15.0497 26.9781 15.3301 25.9093 16.6359C24.6402 18.1865 23.8603 19.2361 22.8481 20.7557C22.0089 22.0155 21.8928 22.2963 22.0242 22.7483C22.1213 23.0822 22.4252 23.237 22.7238 23.2939C23.1105 23.3675 23.5459 23.3501 26.4755 23.3455C28.0144 23.3431 31.2785 23.3501 31.3797 23.3426C31.5113 23.333 31.5881 23.2949 31.6763 23.2104C31.9788 22.8188 32.0975 22.6552 31.6974 23.3663C31.5261 23.6707 31.2651 23.9066 30.9775 23.9663C30.6445 24.0355 21.8818 24.0013 21.4 23.929C20.9791 23.8659 20.7353 23.7729 20.4091 23.5514C20.2047 23.4126 20.1256 23.3257 20.0345 23.1395C19.9322 22.9303 19.9221 22.8722 19.9451 22.6259C19.9739 22.3169 20.1027 22.0013 20.3473 21.6404C20.4358 21.5097 20.5725 21.2884 20.6511 21.1485C20.7297 21.0086 21.0633 20.4841 21.3925 19.9828C22.266 18.6527 23.1552 17.4413 23.7882 16.719C24.1864 16.2645 24.7611 15.478 24.8025 15.3308C24.8827 15.0451 24.6582 14.6592 24.3478 14.5492C24.1363 14.4742 23.0115 14.4903 22.3342 14.578C18.614 15.0596 15.8065 17.2045 15.3316 19.9281C15.2508 20.3911 15.2504 21.31 15.3305 21.7681C15.552 23.0329 16.3619 24.2066 17.6446 25.1217C18.1118 25.455 19.1346 25.9795 19.7402 26.1963C22.4876 27.1798 25.9689 27.0232 28.5853 25.7984C29.2146 25.5038 29.4843 25.321 29.8762 24.9236L30.2207 24.5742L30.8149 24.5459C31.3822 24.5188 31.696 24.5481 31.6545 24.6153C31.6166 24.6767 30.8164 24.9896 30.4963 25.1032C30.3155 25.1674 30.1474 25.2834 29.8915 25.4443C27.9295 26.6776 25.205 27.3193 22.6862 27.0996L22.6862 27.0995Z" fill="url(#paint26_linear_26_73012)"/>
<path opacity="0.3" d="M22.7326 27.0919C18.635 26.7344 15.3585 24.333 14.8716 21.3304C14.5673 19.4542 15.3723 17.6231 17.1475 16.1538C17.7585 15.6481 17.9193 15.5441 18.7058 15.1459C20.176 14.4014 21.6036 14.0619 23.4744 14.0117C22.8618 14.3113 23.1952 14.536 22.3806 14.5704C18.6603 15.052 15.8529 17.1969 15.378 19.9205C15.2972 20.3834 15.2967 21.3024 15.3769 21.7605C15.5984 23.0253 16.4083 24.199 17.691 25.114C18.1582 25.4474 19.181 25.9718 19.7866 26.1886C22.534 27.1722 26.0153 27.0156 28.6317 25.7907C29.261 25.4962 29.5307 25.3134 29.9226 24.9159L30.2671 24.5666L30.8613 24.5382C31.4286 24.5112 31.7424 24.5404 31.7009 24.6077C31.6629 24.669 30.8628 24.982 30.5427 25.0956C30.3619 25.1598 30.1938 25.2758 29.9379 25.4366C27.9759 26.67 25.2514 27.3117 22.7326 27.0919L22.7326 27.0919Z" fill="url(#paint27_linear_26_73012)"/>
<path d="M22.7046 27.0969C18.607 26.7394 15.4269 24.4986 14.9399 21.496C14.6356 19.6197 15.4407 17.8207 17.2159 16.3515C17.8269 15.8458 18.0076 15.7402 18.7459 15.3098C20.1697 14.4799 21.5756 14.0668 23.4464 14.0167C24.453 13.9897 25.1835 14.0352 26.0093 14.1764C26.7285 14.2993 26.8145 14.3297 27.0168 14.532C27.1617 14.6769 27.1977 14.7428 27.1977 14.8632C27.1977 15.047 26.9965 15.3274 25.9277 16.6332C24.6586 18.1838 23.8786 19.2335 22.8665 20.753C22.0273 22.0128 21.9112 22.2936 22.0426 22.7456C22.1396 23.0795 22.4436 23.2343 22.7422 23.2912C23.1289 23.3648 23.5643 23.3475 26.4939 23.3428C28.0327 23.3404 31.2969 23.3474 31.3981 23.34C31.5297 23.3303 31.6065 23.2922 31.6947 23.2077C31.9972 22.8161 32.1159 22.6525 31.7158 23.3637C31.5445 23.668 31.2834 23.904 30.9959 23.9636C30.6629 24.0328 21.9002 23.9986 21.4184 23.9263C20.9975 23.8632 20.7537 23.7703 20.4275 23.5487C20.2231 23.4099 20.144 23.323 20.0529 23.1368C19.9506 22.9276 19.9404 22.8695 19.9634 22.6232C19.9923 22.3142 20.1211 21.9986 20.3656 21.6377C20.4542 21.507 20.5909 21.2857 20.6695 21.1458C20.7481 21.0059 21.0817 20.4814 21.4109 19.9801C22.2843 18.65 23.1736 17.4386 23.8065 16.7163C24.2048 16.2618 24.7795 15.4753 24.8208 15.3281C24.9011 15.0424 24.6766 14.6565 24.3662 14.5465C24.1547 14.4715 23.0299 14.4877 22.3525 14.5753C18.6323 15.0569 15.8249 17.2019 15.35 19.9255C15.2692 20.3884 15.2687 21.3074 15.3489 21.7655C15.5704 23.0302 16.3803 24.2039 17.663 25.119C18.1302 25.4523 19.153 25.9768 19.7586 26.1936C22.506 27.1772 25.9873 27.0206 28.6037 25.7957C29.2329 25.5011 29.5027 25.3184 29.8946 24.9209L30.2391 24.5716L30.8333 24.5432C31.4006 24.5161 31.7144 24.5454 31.6729 24.6126C31.6349 24.674 30.8348 24.987 30.5147 25.1006C30.3339 25.1647 30.1658 25.2807 29.9099 25.4416C27.9479 26.675 25.2234 27.3166 22.7046 27.0969L22.7046 27.0969Z" fill="url(#paint28_linear_26_73012)"/>
<path opacity="0.5" d="M22.6862 27.0995C18.5886 26.742 15.3121 24.3406 14.8252 21.338C14.5209 19.4617 15.326 17.6306 17.1012 16.1614C17.7122 15.6557 17.8729 15.5517 18.6594 15.1535C20.1296 14.409 21.5573 14.0694 23.428 14.0193C23.3886 14.4268 22.7436 14.5797 22.3342 14.578C18.614 15.0596 15.8065 17.2045 15.3316 19.9281C15.2508 20.391 15.2504 21.31 15.3305 21.7681C15.552 23.0328 16.3619 24.2065 17.6446 25.1216C18.1118 25.4549 19.1346 25.9794 19.7402 26.1962C22.4876 27.1798 25.9689 27.0232 28.5853 25.7983C29.2146 25.5038 29.4843 25.321 29.8762 24.9235L30.2207 24.5742L30.8149 24.5458C31.3822 24.5187 31.696 24.548 31.6545 24.6152C31.6166 24.6766 30.8164 24.9896 30.4963 25.1032C30.3155 25.1673 30.1474 25.2833 29.8915 25.4442C27.9295 26.6776 25.205 27.3192 22.6862 27.0995H22.6862Z" fill="url(#paint29_linear_26_73012)"/>
<path opacity="0.3" d="M22.7326 27.0919C18.635 26.7344 15.3585 24.333 14.8716 21.3304C14.5673 19.4542 15.3723 17.6231 17.1475 16.1538C17.7585 15.6481 17.9193 15.5441 18.7058 15.1459C20.176 14.4014 21.6036 14.0619 23.4744 14.0117C22.8618 14.3113 23.1952 14.536 22.3806 14.5704C18.6603 15.052 15.8529 17.1969 15.378 19.9205C15.2972 20.3834 15.2967 21.3024 15.3769 21.7605C15.5984 23.0253 16.4083 24.199 17.691 25.114C18.1582 25.4474 19.181 25.9718 19.7866 26.1886C22.534 27.1722 26.0153 27.0156 28.6317 25.7907C29.261 25.4962 29.5307 25.3134 29.9226 24.9159L30.2671 24.5666L30.8613 24.5382C31.4286 24.5112 31.7424 24.5404 31.7009 24.6077C31.6629 24.669 30.8628 24.982 30.5427 25.0956C30.3619 25.1598 30.1938 25.2758 29.9379 25.4366C27.9759 26.67 25.2514 27.3117 22.7326 27.0919L22.7326 27.0919Z" fill="url(#paint30_linear_26_73012)"/>
<path opacity="0.3" d="M23.1573 23.5452C22.8205 23.5371 22.1949 23.0466 22.2412 23.0859C22.5943 23.3856 24.077 23.3583 26.9783 23.3512L31.3809 23.3404L31.4931 23.233C31.5548 23.1739 31.6934 22.9403 31.8011 22.7139C32.4398 21.3713 32.4421 20.01 31.808 18.6854C31.5502 18.1468 31.2488 17.7217 30.7705 17.2221C30.077 16.4977 29.423 16.0054 28.3756 15.5432C27.6328 15.2153 27.6113 15.2879 27.6419 15.0818C27.6419 15.0307 27.6141 14.9653 27.5915 14.8845C27.4937 14.5355 27.5388 14.6123 28.4204 15.073C29.6051 15.6919 30.2445 16.1134 30.9902 16.8903C32.6374 18.6065 33.047 20.821 32.0854 22.811C31.9014 23.1916 31.6377 23.4515 31.344 23.5415C31.2132 23.5816 30.4452 23.5847 27.3764 23.5812C25.1733 23.5786 24.883 23.5868 23.1573 23.5452Z" fill="url(#paint31_linear_26_73012)"/>
<path d="M23.1575 23.432C22.5709 23.424 22.042 22.9447 22.0883 22.9835C22.4414 23.2792 24.0773 23.2476 26.9785 23.2406L31.3811 23.23L31.4933 23.1239C31.555 23.0656 31.6936 22.835 31.8013 22.6116C32.44 21.2865 32.4423 19.943 31.8082 18.6357C31.5504 18.1041 31.249 17.6846 30.7707 17.1915C30.0772 16.4765 29.4232 15.9907 28.3758 15.5345C27.633 15.211 27.6115 15.2826 27.6421 15.0792C27.6421 15.0288 27.6143 14.9641 27.5917 14.8844C27.4939 14.54 27.5844 14.7952 28.4661 15.2498C29.6508 15.8606 30.1538 16.187 30.8996 16.9538C32.5468 18.6475 33.0473 20.7435 32.0856 22.7074C31.9016 23.0831 31.6379 23.3396 31.3442 23.4284C31.2134 23.468 30.4455 23.4711 27.3766 23.4676C25.1735 23.4651 24.8836 23.4556 23.1575 23.432Z" fill="url(#paint32_linear_26_73012)"/>
<path opacity="0.5" d="M31.808 18.6852C31.5502 18.1467 31.2488 17.7216 30.7706 17.222C30.0771 16.4975 29.423 16.0053 28.3757 15.5431C27.6329 15.2152 27.6114 15.2878 27.6419 15.0817C27.6419 15.0306 27.6141 14.9651 27.5915 14.8844C27.4937 14.5354 27.482 14.7258 28.3637 15.1864C29.5484 15.8053 30.2445 16.1133 30.9902 16.8902C31.6267 17.7569 31.205 17.294 31.808 18.6852Z" fill="url(#paint33_linear_26_73012)"/>
<path opacity="0.3" d="M29.9226 24.916L30.267 24.5667L30.8612 24.5384C31.4286 24.5113 31.7424 24.5405 31.7008 24.6078C31.3025 25.0586 29.5382 25.3788 29.9226 24.916Z" fill="url(#paint34_linear_26_73012)"/>
<path opacity="0.6" d="M22.7046 27.0876C18.607 26.7301 15.4269 24.4893 14.9399 21.4867C14.6356 19.6104 15.4407 17.8115 17.2159 16.3422C17.8269 15.8365 18.0076 15.7309 18.7459 15.3005C20.1697 14.4706 21.5756 14.0576 23.4464 14.0074C24.453 13.9804 25.1835 14.0259 26.0093 14.1671C26.7285 14.29 26.8145 14.3204 27.0168 14.5227C27.1617 14.6676 27.1977 14.7335 27.1977 14.8539C27.1977 15.0377 26.9965 15.3181 25.9277 16.6239C24.6586 18.1745 23.8786 19.2242 22.8665 20.7437C22.0273 22.0036 21.9112 22.2843 22.0426 22.7363C22.1397 23.0702 22.4436 23.2251 22.7422 23.2819C23.1289 23.3555 23.5643 23.3382 26.4939 23.3335C28.0327 23.3311 31.2969 23.3381 31.3981 23.3307C31.5297 23.321 31.6065 23.2829 31.6947 23.1984C31.9972 22.8068 32.1159 22.6432 31.7158 23.3544C31.5445 23.6587 31.2834 23.8947 30.9959 23.9544C30.6629 24.0235 21.9002 23.9894 21.4184 23.9171C20.9975 23.8539 20.7537 23.761 20.4275 23.5395C20.2231 23.4006 20.144 23.3137 20.0529 23.1276C19.9506 22.9183 19.9404 22.8602 19.9634 22.614C19.9923 22.3049 20.1211 21.9894 20.3656 21.6284C20.4542 21.4978 20.5909 21.2764 20.6695 21.1365C20.7481 20.9966 21.0817 20.4721 21.4109 19.9709C22.2843 18.6407 23.1736 17.4293 23.8065 16.707C24.2048 16.2526 24.7795 15.466 24.8208 15.3188C24.9011 15.0331 24.6766 14.6472 24.3662 14.5372C24.1547 14.4623 23.0299 14.4784 22.3525 14.5661C18.6323 15.0477 15.8249 17.1926 15.35 19.9162C15.2692 20.3791 15.2687 21.2981 15.3489 21.7562C15.5704 23.0209 16.3803 24.1947 17.663 25.1097C18.1302 25.443 19.153 25.9675 19.7586 26.1843C22.506 27.1679 25.9873 27.0113 28.6037 25.7864C29.233 25.4919 29.5027 25.3091 29.8946 24.9116L30.2391 24.5623L30.8333 24.5339C31.4006 24.5068 31.7144 24.5361 31.6729 24.6033C31.6349 24.6647 30.8348 24.9777 30.5147 25.0913C30.3339 25.1554 30.1658 25.2714 29.9099 25.4323C27.9479 26.6657 25.2234 27.3073 22.7046 27.0876H22.7046Z" fill="url(#paint35_radial_26_73012)"/>
<defs>
<linearGradient id="paint0_linear_26_73012" x1="22.9247" y1="34.784" x2="22.7715" y2="28.4479" gradientUnits="userSpaceOnUse">
<stop stop-color="#505050"/>
<stop offset="0.0584744" stop-color="#525252"/>
<stop offset="0.56152" stop-color="#555555"/>
<stop offset="0.786532" stop-color="#5A5A5A"/>
<stop offset="1" stop-color="#C8C8C8"/>
</linearGradient>
<linearGradient id="paint1_linear_26_73012" x1="29.9747" y1="29.363" x2="29.9747" y2="29.9654" gradientUnits="userSpaceOnUse">
<stop stop-color="#B8B8B8"/>
<stop offset="1" stop-color="#828282"/>
</linearGradient>
<linearGradient id="paint2_linear_26_73012" x1="24.8656" y1="28.7623" x2="24.7604" y2="33.3292" gradientUnits="userSpaceOnUse">
<stop stop-color="#464646"/>
<stop offset="1"/>
</linearGradient>
<linearGradient id="paint3_linear_26_73012" x1="24.8654" y1="28.7288" x2="24.7515" y2="33.4787" gradientUnits="userSpaceOnUse">
<stop stop-color="#464646"/>
<stop offset="1"/>
</linearGradient>
<linearGradient id="paint4_linear_26_73012" x1="24.8654" y1="28.3759" x2="24.7258" y2="33.636" gradientUnits="userSpaceOnUse">
<stop stop-color="#464646"/>
<stop offset="1"/>
</linearGradient>
<linearGradient id="paint5_linear_26_73012" x1="24.8656" y1="28.376" x2="24.726" y2="33.6361" gradientUnits="userSpaceOnUse">
<stop stop-color="#464646"/>
<stop offset="1"/>
</linearGradient>
<linearGradient id="paint6_linear_26_73012" x1="24.8657" y1="28.7283" x2="24.747" y2="33.5786" gradientUnits="userSpaceOnUse">
<stop stop-color="#464646"/>
<stop offset="1"/>
</linearGradient>
<linearGradient id="paint7_linear_26_73012" x1="24.8656" y1="28.376" x2="24.726" y2="33.6361" gradientUnits="userSpaceOnUse">
<stop stop-color="#464646"/>
<stop offset="1"/>
</linearGradient>
<linearGradient id="paint8_linear_26_73012" x1="24.8655" y1="28.3759" x2="24.7259" y2="33.6361" gradientUnits="userSpaceOnUse">
<stop stop-color="#464646"/>
<stop offset="1"/>
</linearGradient>
<linearGradient id="paint9_linear_26_73012" x1="21.5035" y1="28.61" x2="21.3906" y2="34.0692" gradientUnits="userSpaceOnUse">
<stop stop-color="#787878"/>
<stop offset="1" stop-color="#1E1E1E"/>
</linearGradient>
<linearGradient id="paint10_linear_26_73012" x1="22.8964" y1="28.6852" x2="23.0847" y2="33.1279" gradientUnits="userSpaceOnUse">
<stop stop-color="#B4B4B4"/>
<stop offset="0.322353" stop-color="#828282"/>
<stop offset="1" stop-color="#3C3C3C"/>
</linearGradient>
<linearGradient id="paint11_linear_26_73012" x1="23.5762" y1="34.3394" x2="23.7625" y2="31.2455" gradientUnits="userSpaceOnUse">
<stop stop-color="#828282"/>
<stop offset="0.5" stop-color="#828282"/>
<stop offset="1" stop-color="#3C3C3C"/>
</linearGradient>
<linearGradient id="paint12_linear_26_73012" x1="23.1598" y1="30.8689" x2="23.2351" y2="33.2032" gradientUnits="userSpaceOnUse">
<stop stop-color="#828282"/>
<stop offset="0.5" stop-color="#828282"/>
<stop offset="1" stop-color="#3C3C3C"/>
</linearGradient>
<linearGradient id="paint13_linear_26_73012" x1="14.4218" y1="18.0208" x2="31.1543" y2="28.9222" gradientUnits="userSpaceOnUse">
<stop stop-color="#000032"/>
<stop offset="0.25" stop-color="#646464"/>
<stop offset="0.423823"/>
<stop offset="1" stop-color="#787878"/>
</linearGradient>
<linearGradient id="paint14_linear_26_73012" x1="15.1938" y1="25.9912" x2="32.3459" y2="25.8627" gradientUnits="userSpaceOnUse">
<stop stop-color="#999999"/>
<stop offset="0.220528" stop-color="#3C3C3C" stop-opacity="0.87451"/>
<stop offset="0.515847" stop-color="#969696"/>
<stop offset="0.752781" stop-color="#828282"/>
<stop offset="1" stop-color="#5A5A5A"/>
</linearGradient>
<linearGradient id="paint15_linear_26_73012" x1="26.4676" y1="27.5007" x2="26.4354" y2="23.293" gradientUnits="userSpaceOnUse">
<stop/>
<stop offset="1" stop-opacity="0"/>
</linearGradient>
<linearGradient id="paint16_linear_26_73012" x1="20.6219" y1="14.6205" x2="32.9152" y2="28.6043" gradientUnits="userSpaceOnUse">
<stop stop-color="#5A5A5A"/>
<stop offset="0.268765" stop-color="#505050"/>
<stop offset="0.632019" stop-color="#666666"/>
<stop offset="0.667453" stop-color="#666666"/>
<stop offset="1" stop-color="#666666"/>
</linearGradient>
<linearGradient id="paint17_linear_26_73012" x1="20.6219" y1="14.6205" x2="32.9152" y2="28.6043" gradientUnits="userSpaceOnUse">
<stop stop-color="#5A5A5A"/>
<stop offset="0.268765" stop-color="#505050"/>
<stop offset="0.632019" stop-color="#666666"/>
<stop offset="0.667453" stop-color="#666666"/>
<stop offset="1" stop-color="#666666"/>
</linearGradient>
<linearGradient id="paint18_linear_26_73012" x1="15.8812" y1="16.0026" x2="28.4582" y2="21.4275" gradientUnits="userSpaceOnUse">
<stop stop-color="#323232" stop-opacity="0"/>
<stop offset="0.39399" stop-color="#323232" stop-opacity="0.94902"/>
<stop offset="0.466851" stop-color="#323232" stop-opacity="0.901961"/>
<stop offset="0.704071" stop-color="#E1E1E1" stop-opacity="0.498039"/>
<stop offset="1" stop-color="#C8C8C8" stop-opacity="0"/>
</linearGradient>
<linearGradient id="paint19_linear_26_73012" x1="26.3712" y1="25.3487" x2="26.4357" y2="23.293" gradientUnits="userSpaceOnUse">
<stop/>
<stop offset="1" stop-opacity="0"/>
</linearGradient>
<linearGradient id="paint20_linear_26_73012" x1="15.3484" y1="17.181" x2="17.0694" y2="18.9958" gradientUnits="userSpaceOnUse">
<stop stop-color="#28170B"/>
<stop offset="1" stop-color="#28170B" stop-opacity="0"/>
</linearGradient>
<linearGradient id="paint21_linear_26_73012" x1="23.6222" y1="16.0272" x2="22.9808" y2="14.5759" gradientUnits="userSpaceOnUse">
<stop stop-color="#B3B3B3" stop-opacity="0"/>
<stop offset="0.160949" stop-color="#B3B3B3" stop-opacity="0.300885"/>
<stop offset="0.341789" stop-color="#B3B3B3" stop-opacity="0.87451"/>
<stop offset="0.405936" stop-color="#B3B3B3" stop-opacity="0.74902"/>
<stop offset="0.658295" stop-color="#B3B3B3" stop-opacity="0"/>
<stop offset="1" stop-color="#B3B3B3" stop-opacity="0"/>
</linearGradient>
<linearGradient id="paint22_linear_26_73012" x1="19.641" y1="24.0054" x2="18.8154" y2="21.4833" gradientUnits="userSpaceOnUse">
<stop stop-color="#B3B3B3" stop-opacity="0"/>
<stop offset="0.12143" stop-color="#B3B3B3" stop-opacity="0.368627"/>
<stop offset="0.285824" stop-color="#B3B3B3" stop-opacity="0.87451"/>
<stop offset="0.383948" stop-color="#B3B3B3" stop-opacity="0.74902"/>
<stop offset="0.516942" stop-color="#B3B3B3" stop-opacity="0.498039"/>
<stop offset="1" stop-color="#B3B3B3" stop-opacity="0"/>
</linearGradient>
<linearGradient id="paint23_linear_26_73012" x1="28.7305" y1="14.7503" x2="31.26" y2="22.3041" gradientUnits="userSpaceOnUse">
<stop/>
<stop offset="0.552013" stop-color="#7D7D7D"/>
<stop offset="0.693304" stop-color="#969696"/>
<stop offset="0.857541" stop-color="#8A8A8A"/>
<stop offset="1" stop-color="#505050"/>
</linearGradient>
<linearGradient id="paint24_linear_26_73012" x1="22.1083" y1="22.5886" x2="30.4261" y2="24.5561" gradientUnits="userSpaceOnUse">
<stop stop-color="#323232"/>
<stop offset="0.105545" stop-color="#B4B4B6"/>
<stop offset="0.253205" stop-color="#B4B4B4"/>
<stop offset="1" stop-color="#AAAAAA"/>
</linearGradient>
<linearGradient id="paint25_linear_26_73012" x1="27.3224" y1="22.2452" x2="27.3224" y2="23.6306" gradientUnits="userSpaceOnUse">
<stop stop-color="#505050"/>
<stop offset="1" stop-color="#FAFAFA" stop-opacity="0"/>
</linearGradient>
<linearGradient id="paint26_linear_26_73012" x1="16.4919" y1="13.2742" x2="20.1536" y2="19.1201" gradientUnits="userSpaceOnUse">
<stop stop-color="#8282A9"/>
<stop offset="1" stop-color="#A9A9A9" stop-opacity="0"/>
</linearGradient>
<linearGradient id="paint27_linear_26_73012" x1="31.0338" y1="24.5359" x2="26.544" y2="26.0758" gradientUnits="userSpaceOnUse">
<stop stop-color="#FAFAFA"/>
<stop offset="0.25" stop-color="#FAFAFA" stop-opacity="0.901961"/>
<stop offset="0.5" stop-color="#E1E1E1" stop-opacity="0.498039"/>
<stop offset="1" stop-color="#C8C8C8" stop-opacity="0"/>
</linearGradient>
<linearGradient id="paint28_linear_26_73012" x1="24.3797" y1="13.3358" x2="24.2809" y2="29.221" gradientUnits="userSpaceOnUse">
<stop stop-color="#AAAAAA"/>
<stop offset="0.101807" stop-color="#BEBEBE"/>
<stop offset="0.211525" stop-color="#BEBEBE"/>
<stop offset="0.549206" stop-color="#B4B4B4"/>
<stop offset="0.673505" stop-color="#878787"/>
<stop offset="0.778718" stop-color="#969696"/>
<stop offset="1" stop-color="#AAAAAA"/>
</linearGradient>
<linearGradient id="paint29_linear_26_73012" x1="14.3585" y1="24.353" x2="18.0523" y2="21.141" gradientUnits="userSpaceOnUse">
<stop stop-color="#E6E6E6"/>
<stop offset="1" stop-color="#FAFAFA" stop-opacity="0"/>
</linearGradient>
<linearGradient id="paint30_linear_26_73012" x1="31.0338" y1="24.5359" x2="26.544" y2="26.0758" gradientUnits="userSpaceOnUse">
<stop stop-color="#FAFAFA"/>
<stop offset="0.25" stop-color="#FAFAFA" stop-opacity="0.901961"/>
<stop offset="0.5" stop-color="#E1E1E1" stop-opacity="0.498039"/>
<stop offset="1" stop-color="#C8C8C8" stop-opacity="0"/>
</linearGradient>
<linearGradient id="paint31_linear_26_73012" x1="27.3138" y1="14.6599" x2="28.2288" y2="15.3023" gradientUnits="userSpaceOnUse">
<stop stop-color="#FAFAFA"/>
<stop offset="0.25" stop-color="#EDEDED" stop-opacity="0.74902"/>
<stop offset="0.5" stop-color="#E1E1E1" stop-opacity="0.498039"/>
<stop offset="1" stop-color="#C8C8C8" stop-opacity="0"/>
</linearGradient>
<linearGradient id="paint32_linear_26_73012" x1="22.742" y1="23.9355" x2="31.2539" y2="15.1345" gradientUnits="userSpaceOnUse">
<stop stop-color="#969696"/>
<stop offset="0.132623" stop-color="#C0BEBE"/>
<stop offset="0.5" stop-color="#B4B4B4"/>
<stop offset="1" stop-color="#BEBEBE"/>
</linearGradient>
<linearGradient id="paint33_linear_26_73012" x1="27.1744" y1="15.1345" x2="29.0053" y2="15.4878" gradientUnits="userSpaceOnUse">
<stop stop-opacity="0"/>
<stop offset="0.109171" stop-color="#323232" stop-opacity="0.94902"/>
<stop offset="0.218341" stop-color="#323232" stop-opacity="0.901961"/>
<stop offset="0.506057" stop-color="#E1E1E1" stop-opacity="0.498039"/>
<stop offset="1" stop-color="#C8C8C8" stop-opacity="0"/>
</linearGradient>
<linearGradient id="paint34_linear_26_73012" x1="30.7929" y1="24.536" x2="30.7838" y2="25.0963" gradientUnits="userSpaceOnUse">
<stop stop-color="#FAFAFA"/>
<stop offset="0.5" stop-color="#FAFAFA" stop-opacity="0.901961"/>
<stop offset="0.697845" stop-color="#E1E1E1" stop-opacity="0.498039"/>
<stop offset="1" stop-color="#C8C8C8" stop-opacity="0"/>
</linearGradient>
<radialGradient id="paint35_radial_26_73012" cx="0" cy="0" r="1" gradientUnits="userSpaceOnUse" gradientTransform="translate(23.7481 17.986) rotate(76.732) scale(4.40043 5.59461)">
<stop stop-color="#DCDCDC" stop-opacity="0.901961"/>
<stop offset="0.752174" stop-color="#E1E1E1" stop-opacity="0.45098"/>
<stop offset="1" stop-color="#C8C8C8" stop-opacity="0"/>
</radialGradient>
</defs>
</svg>
