<svg width="48" height="48" viewBox="0 0 48 48" fill="none" xmlns="http://www.w3.org/2000/svg">
<g clip-path="url(#clip0_26_72940)">
<path fill-rule="evenodd" clip-rule="evenodd" d="M42.8172 30.4789C42.519 30.4789 42.2167 30.4789 41.9185 30.4789C41.9392 30.4334 41.9599 30.3921 41.9806 30.3508C42.1297 30.0574 42.2829 29.9624 42.6142 29.9624C42.7675 29.9624 42.9207 29.9624 43.074 29.9624C42.9911 30.1318 42.9042 30.3053 42.8172 30.4789Z" fill="black"/>
<path fill-rule="evenodd" clip-rule="evenodd" d="M41.8482 32.4746C42.1216 31.921 42.3991 31.3673 42.6724 30.8136C42.3742 30.8136 42.0719 30.8136 41.7737 30.8136C41.5376 31.2929 41.2974 31.7681 41.0613 32.2474C40.9785 32.4085 40.8708 32.4746 40.6803 32.4746C39.9514 32.4746 39.2225 32.4746 38.4935 32.4746C38.7917 31.8838 39.0858 31.2929 39.3798 30.698C39.5041 30.45 39.5496 30.4335 39.8437 30.4335C39.9307 30.4335 40.0177 30.4335 40.1046 30.4335C40.3573 30.4335 40.4774 30.3633 40.5809 30.1608C40.6223 30.0782 40.6596 29.9955 40.701 29.917C40.3904 29.917 40.0798 29.917 39.7692 29.917C39.9017 29.6485 40.0384 29.3799 40.1709 29.1113C39.9762 29.1113 39.7774 29.1113 39.5828 29.1113C39.326 29.1113 39.2059 29.1774 39.1065 29.3799C39.0195 29.5576 38.9284 29.7394 38.8414 29.917C38.6758 29.917 38.5142 29.917 38.3486 29.917C38.2658 30.0906 38.1788 30.26 38.0918 30.4335C38.2575 30.4335 38.419 30.4335 38.5847 30.4335C38.4811 30.636 37.777 32.0449 37.6776 32.2474C37.599 32.4085 37.4871 32.4746 37.3008 32.4746C36.6505 32.4746 36.0044 32.4746 35.3583 32.4746C35.7021 31.8466 36.0459 31.2186 36.3896 30.5905C36.1535 30.5905 35.9133 30.5905 35.6772 30.5905C35.5116 30.5905 35.4412 30.6442 35.3335 30.7723C35.3335 30.636 35.2838 30.5905 35.1554 30.5905C34.9897 30.5905 34.8241 30.5905 34.6626 30.5905C33.8508 30.5905 33.3952 30.8426 33.0432 31.483C32.9024 31.7392 32.7616 31.9954 32.6249 32.2515C32.5338 32.4127 32.4261 32.4746 32.2439 32.4746C31.8297 32.4746 31.4114 32.4746 30.9931 32.4788C30.5417 32.4788 30.3636 32.4127 30.3139 32.173C30.26 31.921 30.3719 31.7103 30.9807 31.3095C31.0966 31.2351 31.2085 31.1607 31.3244 31.0822C31.4818 30.9789 31.5481 30.9211 31.5274 30.8095C31.5067 30.7062 31.4445 30.5905 30.9517 30.5905C30.1648 30.5947 29.382 30.5947 28.5951 30.5947C28.3466 30.5947 28.2306 30.6566 28.1188 30.8632C27.8662 31.326 27.6094 31.7888 27.3568 32.2515C27.2698 32.4127 27.1621 32.4788 26.9799 32.4788C25.7208 32.4788 24.4618 32.4788 23.2027 32.4788C23.2566 32.3218 23.3104 32.1606 23.3643 32.0036C23.9938 32.0036 24.6192 32.0036 25.2487 32.0036C25.6214 32.0036 25.7747 31.9086 25.9113 31.5946C25.9693 31.4541 26.0315 31.3095 26.0894 31.169C26.135 31.0657 26.1723 30.9128 26.0977 30.7971C26.0066 30.6649 25.7788 30.5947 25.4392 30.5947C24.8345 30.5947 24.2299 30.5947 23.6252 30.5947C23.0454 30.5947 22.7844 30.7558 22.5815 31.231C22.4531 31.5243 22.3289 31.8218 22.2046 32.1152C22.0762 32.4168 21.8733 32.4788 21.5834 32.4788C21.1526 32.4788 20.7219 32.4788 20.2871 32.4788C20.316 32.4375 20.345 32.3961 20.3699 32.3548C20.6267 31.9706 20.577 31.545 20.2374 31.1814C19.8977 30.826 19.4546 30.7021 19.057 30.5947C18.7215 30.5947 18.3861 30.5947 18.0506 30.5905C17.8187 31.012 17.5909 31.4334 17.3589 31.8549C17.069 32.3837 16.7543 32.4746 16.1993 32.4746C15.7934 32.4746 15.3875 32.4746 14.9817 32.4746C15.3254 31.8466 15.6692 31.2186 16.0129 30.5905C15.7768 30.5905 15.5366 30.5905 15.3006 30.5905C15.1308 30.5905 15.0603 30.6442 14.9568 30.7723C14.9568 30.636 14.9071 30.5905 14.7746 30.5905C14.6131 30.5905 14.4474 30.5905 14.2859 30.5905C13.4741 30.5905 13.0185 30.8426 12.6665 31.483C12.5257 31.7392 12.3849 31.9954 12.2482 32.2515C12.1571 32.4127 12.0535 32.4746 11.8672 32.4746C11.2501 32.4746 10.6288 32.4746 10.0117 32.4746C10.5377 31.5161 11.0596 30.5575 11.5855 29.5989C11.6767 29.4336 11.5566 29.227 11.366 29.227C8.90593 29.227 6.44581 29.227 3.9857 29.227C3.48457 29.227 3.23607 29.3551 3 29.7559C4.06439 29.7559 5.12464 29.7559 6.18903 29.7559C5.59679 30.8384 5.00454 31.921 4.41229 32.9994C4.71877 32.9994 5.02524 32.9994 5.33172 32.9994C5.92397 31.921 6.51622 30.8384 7.10847 29.76C7.53506 29.76 7.96164 29.76 8.38408 29.76C7.79183 30.8384 7.19959 31.921 6.60734 32.9994C6.91382 32.9994 7.22029 32.9994 7.52677 32.9994C8.11902 31.921 8.71127 30.8384 9.30352 29.76C9.7301 29.76 10.1567 29.76 10.5791 29.76C10.0904 30.6525 9.60172 31.545 9.11301 32.4375C9.04674 32.5573 8.98047 32.7267 9.05088 32.8465C9.11301 32.9457 9.2621 32.9994 9.48575 32.9994C10.2892 32.9994 11.0968 32.9994 11.9044 32.9994C12.0246 32.9994 12.0743 32.9622 12.1488 32.8754C12.1488 32.9705 12.2275 32.9994 12.3227 32.9994C13.7102 32.9994 15.0976 32.9994 16.4851 32.9994C17.3092 32.9994 17.7482 32.7597 18.1044 32.111C18.2867 31.7805 18.4689 31.4458 18.6511 31.1111C18.6594 31.1153 18.7008 31.1235 18.7091 31.1235C19.3635 31.2475 19.6948 31.4913 19.7238 31.8631C19.7362 32.016 19.6865 32.1565 19.5871 32.2681C19.4629 32.4003 19.2765 32.4746 19.0694 32.4788C18.6511 32.4788 18.4813 32.6399 18.3198 32.9994C19.4919 32.9994 20.6681 32.9994 21.8443 32.9994C21.9603 32.9994 22.0141 32.9622 22.0845 32.8754C22.0886 32.9705 22.1673 32.9994 22.2626 32.9994C23.9979 32.9994 25.7333 32.9994 27.4727 32.9994C27.8248 32.9994 27.978 32.9085 28.152 32.5862C28.3549 32.2185 28.5578 31.8466 28.7608 31.4747C28.9016 31.2227 29.0755 31.1235 29.3779 31.1235C29.6843 31.1235 29.9908 31.1235 30.2973 31.1235C30.1399 31.231 29.9701 31.3673 29.8376 31.4995C29.6636 31.6813 29.4938 31.9251 29.4648 32.2433C29.44 32.4664 29.498 32.6564 29.6222 32.7969C29.7423 32.9291 29.9246 32.9994 30.1399 32.9994C30.8564 32.9994 31.5688 32.9994 32.2853 32.9994C32.4012 32.9994 32.4551 32.9622 32.5255 32.8754C32.5255 32.9705 32.6083 32.9994 32.7036 32.9994C34.2028 32.9994 35.7062 32.9994 37.2096 32.9994C37.3298 32.9994 37.3794 32.9622 37.454 32.8754C37.454 32.9705 37.5327 32.9994 37.6279 32.9994C39.8478 32.9994 42.0719 32.9994 44.2959 32.9994C44.6977 32.9994 44.9006 32.8713 44.9751 32.5655C44.9834 32.5325 44.9917 32.5036 45 32.4705C43.948 32.4705 42.8961 32.4705 41.8482 32.4746ZM23.5838 31.359C23.6749 31.0987 23.8861 31.074 24.0766 31.074C24.4204 31.074 24.76 31.074 25.1037 31.074C25.0789 31.1442 25.0582 31.2144 25.0333 31.2847C24.9505 31.5285 24.76 31.5491 24.5902 31.5491C24.234 31.5491 23.8737 31.5491 23.5175 31.5491C23.5424 31.4871 23.5631 31.421 23.5838 31.359ZM14.2445 32.1193C14.0995 32.3796 13.9338 32.4746 13.6274 32.4746C13.4575 32.4746 13.2877 32.4746 13.1179 32.4746C13.3002 32.14 13.4865 31.8094 13.6688 31.4747C13.8096 31.2186 13.9794 31.1194 14.2817 31.1194C14.4515 31.1194 14.6213 31.1194 14.7911 31.1194C14.6089 31.4541 14.4267 31.7888 14.2445 32.1193ZM34.617 32.1193C34.4762 32.3796 34.3105 32.4746 34.004 32.4746C33.8342 32.4746 33.6644 32.4746 33.4946 32.4746C33.6769 32.14 33.8632 31.8094 34.0455 31.4747C34.1821 31.2186 34.3561 31.1194 34.6584 31.1194C34.8282 31.1194 34.998 31.1194 35.1678 31.1194C34.9856 31.4541 34.8034 31.7888 34.617 32.1193Z" fill="black"/>
<path fill-rule="evenodd" clip-rule="evenodd" d="M23.1694 27.2147C23.1694 27.0619 23.1694 26.909 23.1694 26.7561C23.567 26.7561 23.9605 26.7561 24.3539 26.7561C24.7474 26.7561 25.1408 26.7561 25.5343 26.7561C25.5343 26.909 25.5343 27.0619 25.5343 27.2147C25.1408 27.2147 24.7474 27.2147 24.3539 27.2147C23.9605 27.2147 23.567 27.2147 23.1694 27.2147Z" fill="black"/>
<path fill-rule="evenodd" clip-rule="evenodd" d="M24.3539 28.1692C24.6024 28.1692 24.8509 28.1692 25.0994 28.1692C25.0994 27.9295 25.0994 27.694 25.0994 27.4543C24.8509 27.4543 24.6024 27.4543 24.3539 27.4543C24.1054 27.4543 23.8569 27.4543 23.6084 27.4543C23.6084 27.694 23.6084 27.9295 23.6084 28.1692C23.8569 28.1692 24.1054 28.1692 24.3539 28.1692Z" fill="black"/>
<path fill-rule="evenodd" clip-rule="evenodd" d="M23.6085 26.5163C23.6043 26.1238 23.5049 25.7354 23.186 25.4751C23.5753 25.4751 23.9647 25.4751 24.354 25.4751C24.7433 25.4751 25.1326 25.4751 25.5219 25.4751C25.203 25.7354 25.0995 26.1238 25.0995 26.5163C24.851 26.5163 24.6025 26.5163 24.354 26.5163C24.1055 26.5163 23.857 26.5163 23.6085 26.5163Z" fill="black"/>
<path fill-rule="evenodd" clip-rule="evenodd" d="M21.6333 24.715C21.6333 24.6035 21.6333 24.4878 21.6333 24.3762C22.5403 24.3762 23.4473 24.3762 24.3543 24.3762C25.2613 24.3762 26.1684 24.3762 27.0712 24.3762C27.0712 24.4878 27.0712 24.6035 27.0712 24.715C26.1684 24.715 25.2613 24.715 24.3543 24.715C23.4473 24.715 22.5403 24.715 21.6333 24.715Z" fill="black"/>
<path fill-rule="evenodd" clip-rule="evenodd" d="M21.8773 25.942C22.1962 25.8718 22.5358 25.6941 22.7636 25.4751C22.4489 25.4751 22.1341 25.4751 21.8193 25.4751C21.84 25.628 21.8566 25.785 21.8773 25.942Z" fill="black"/>
<path fill-rule="evenodd" clip-rule="evenodd" d="M26.8309 25.942C26.512 25.8718 26.1682 25.6941 25.9404 25.4751C26.2593 25.4751 26.5741 25.4751 26.8889 25.4751C26.8681 25.628 26.8474 25.785 26.8309 25.942Z" fill="black"/>
<path fill-rule="evenodd" clip-rule="evenodd" d="M21.5417 23.6283C21.2435 21.8682 20.6678 20.0336 20.0342 18.8271C20.7175 19.1949 21.4465 19.7816 22.2292 20.579C21.902 20.4923 21.579 20.4262 21.256 20.3766C21.7074 21.4426 22.0801 22.5293 22.4197 23.6283C22.1257 23.6283 21.8358 23.6283 21.5417 23.6283Z" fill="black"/>
<path fill-rule="evenodd" clip-rule="evenodd" d="M27.1661 23.6283C27.4602 21.8682 28.0358 20.0336 28.6695 18.8271C27.9903 19.1949 27.2614 19.7816 26.4786 20.579C26.8016 20.4923 27.1288 20.4262 27.4519 20.3766C27.0004 21.4426 26.6277 22.5293 26.2881 23.6283C26.578 23.6283 26.8721 23.6283 27.1661 23.6283Z" fill="black"/>
<path fill-rule="evenodd" clip-rule="evenodd" d="M21.3472 24.1984C21.3472 24.0827 21.3472 23.967 21.3472 23.8555C22.3494 23.8555 23.3517 23.8555 24.354 23.8555C25.3562 23.8555 26.3585 23.8555 27.3608 23.8555C27.3608 23.967 27.3608 24.0827 27.3608 24.1984C26.3585 24.1984 25.3562 24.1984 24.354 24.1984C23.3517 24.1984 22.3494 24.1984 21.3472 24.1984Z" fill="black"/>
<path fill-rule="evenodd" clip-rule="evenodd" d="M23.3394 18.6412C23.8033 17.8438 24.2009 16.9389 24.3541 16.001C24.5032 16.9389 24.9008 17.8438 25.3688 18.6412C25.2032 18.5668 25.0251 18.4883 24.8304 18.4057C24.6647 18.3272 24.5943 18.3727 24.5985 18.5462C24.6565 20.2402 24.905 22.1657 25.7913 23.6284C25.4434 23.6284 25.0955 23.6284 24.7476 23.6284C24.5819 23.24 24.4535 22.8557 24.3541 22.4756C24.2547 22.8557 24.1222 23.24 23.9607 23.6284C23.6128 23.6284 23.2649 23.6284 22.917 23.6284C23.8033 22.1657 24.0518 20.2402 24.1098 18.5462C24.1139 18.3727 24.0435 18.3272 23.8737 18.4057C23.679 18.4883 23.5051 18.5668 23.3394 18.6412Z" fill="black"/>
<path fill-rule="evenodd" clip-rule="evenodd" d="M21.3472 25.2355C21.3472 25.1198 21.3472 25.0083 21.3472 24.8926C22.3494 24.8926 23.3517 24.8926 24.354 24.8926C25.3562 24.8926 26.3585 24.8926 27.3608 24.8926C27.3608 25.0083 27.3608 25.1198 27.3608 25.2355C26.3585 25.2355 25.3562 25.2355 24.354 25.2355C23.3517 25.2355 22.3494 25.2355 21.3472 25.2355Z" fill="black"/>
</g>
<defs>
<clipPath id="clip0_26_72940">
<rect width="42" height="17" fill="white" transform="translate(3 16)"/>
</clipPath>
</defs>
</svg>
