<svg width="48" height="48" viewBox="0 0 48 48" fill="none" xmlns="http://www.w3.org/2000/svg">
<g clip-path="url(#clip0_26_72938)">
<path d="M12.7232 26.617H14.2574V23.4197H13.3673C12.9909 23.4197 12.7376 23.5942 12.4771 23.8243C12.1949 24.094 11.1744 25.062 11.1744 25.062V23.4276H10.2698C9.756 23.4276 9.49547 23.6259 9.21322 23.8719C9.01059 24.0306 6 26.617 6 26.617H7.82372L9.63297 24.9826V26.617H11.1021L12.7232 25.0064V26.617ZM16.0739 26.617H18.5562V25.7919H16.5226C16.3344 25.7919 16.1318 25.6649 16.1318 25.2603V25.2048C16.1318 24.8477 16.2982 24.697 16.5153 24.697H18.5562V23.864H16.0232C14.9883 23.864 14.5758 24.3559 14.5758 25.1175V25.3714C14.5758 26.2599 15.0245 26.617 16.0739 26.617H16.0739ZM21.6174 26.617V25.776H20.4306V23.4276H18.8891V26.6249H21.6174V26.617ZM24.5991 25.5459C24.5991 25.7046 24.5412 25.7998 24.3675 25.7998H23.5352C23.3905 25.7998 23.2964 25.7522 23.2964 25.6332C23.2964 25.5062 23.3543 25.4348 23.5352 25.4348H24.5991V25.5459ZM26.1333 25.5459V24.943C26.1333 24.2527 25.7208 23.864 24.8379 23.864H22.0878V24.6573H24.2951C24.5195 24.6573 24.5991 24.7367 24.5991 24.9271V24.9588H22.8405C22.1023 24.9588 21.8418 25.3 21.8418 25.7443V25.8315C21.8386 25.9191 21.8517 26.0065 21.8803 26.0883C21.9089 26.1701 21.9525 26.2447 22.0082 26.3075C22.2253 26.5297 22.6378 26.6011 23.1951 26.6011H24.7221C25.7208 26.617 26.1333 26.371 26.1333 25.5459H26.1333ZM28.0077 24.697H28.9702V23.864H27.0017C26.6833 23.864 26.4807 24.0464 26.4807 24.3559V26.617H28.0222V24.697H28.0077ZM31.9808 24.8477C31.9808 24.9668 31.9301 25.0382 31.7564 25.0382H30.6637V24.9271C30.6637 24.7684 30.7216 24.6732 30.9025 24.6732H31.742C31.8795 24.6732 31.9808 24.7208 31.9808 24.8477H31.9808ZM33.4354 24.7843V24.6732C33.4354 24.221 33.2038 23.8719 32.1255 23.8719H30.5406C29.5419 23.8719 29.1294 24.2448 29.1294 25.054V25.53C29.1294 26.2203 29.5419 26.617 30.4321 26.617H33.2473V25.8157H30.9676C30.7433 25.8157 30.6637 25.7443 30.6637 25.5539V25.53H32.4295C33.0519 25.5221 33.4354 25.3 33.4354 24.7843H33.4354ZM37.8283 26.617V25.0778C37.8283 24.1178 37.4085 23.864 36.1638 23.864H33.7249V26.617H35.2664V24.7605H35.6789C36.1421 24.7605 36.294 25.054 36.294 25.3714V26.6249H37.8283L37.8283 26.617Z" fill="black"/>
<path d="M40.7016 21C39.92 21 38.7983 21.2539 37.5825 21.7378C36.5045 22.1702 35.4711 22.726 34.4995 23.396C35.4313 23.0166 36.415 22.8127 37.4088 22.793C38.7838 22.793 39.7825 23.3722 38.3279 25.4111C42.6194 22.3408 42.4964 21 40.7016 21Z" fill="black"/>
</g>
<defs>
<clipPath id="clip0_26_72938">
<rect width="36" height="5.625" fill="white" transform="translate(6 21)"/>
</clipPath>
</defs>
</svg>
