<svg width="48" height="48" viewBox="0 0 48 48" fill="none" xmlns="http://www.w3.org/2000/svg">
<g clip-path="url(#clip0_26_73002)">
<path fill-rule="evenodd" clip-rule="evenodd" d="M31.0542 10.5235C35.8938 13.0687 39.1998 18.1431 39.1998 23.9923C39.1998 29.8415 35.8938 34.9319 31.0542 37.4615V35.7223C32.905 34.6151 34.4706 33.0659 35.6098 31.2323L31.0542 29.3831V26.5691L36.0522 30.4739C37.0962 28.5451 37.6814 26.3475 37.6814 23.9919C37.6814 19.0279 35.0238 14.6651 31.0542 12.2619V10.5235ZM24.0158 8.80029C26.5466 8.80029 28.9346 9.41709 31.0542 10.5235V12.2627C29.1086 11.0923 26.831 10.3971 24.427 10.3179L26.1666 22.7595L31.0542 26.5695V29.3835L23.9838 26.5219L16.961 29.3991V26.6007L21.8802 22.7591L23.6042 10.3175C21.1682 10.3967 18.9066 11.0923 16.961 12.2619V10.5235C19.065 9.41709 21.469 8.80029 24.0158 8.80029ZM31.0542 37.4615C28.9346 38.5679 26.5462 39.1999 24.0158 39.1999C21.4694 39.1999 19.0654 38.5679 16.9614 37.4771V35.7223C19.0178 36.9707 21.4374 37.6823 24.0158 37.6823C26.5782 37.6823 28.9826 36.9707 31.0542 35.7223V37.4615ZM16.9614 37.4771C12.1054 34.9319 8.7998 29.8415 8.7998 23.9923C8.7998 18.1431 12.1054 13.0687 16.9614 10.5235V12.2627C12.9754 14.6655 10.3182 19.0127 10.3182 23.9923C10.3182 26.3475 10.9194 28.5771 11.9634 30.5055L16.9614 26.6007V29.3991L12.4218 31.2639C13.5606 33.0827 15.1106 34.6155 16.9614 35.7223V37.4771Z" fill="#4D4D4D"/>
</g>
<defs>
<clipPath id="clip0_26_73002">
<rect width="32" height="32" fill="white" transform="translate(8 8)"/>
</clipPath>
</defs>
</svg>
