<svg width="48" height="48" viewBox="0 0 48 48" fill="none" xmlns="http://www.w3.org/2000/svg">
<path fill-rule="evenodd" clip-rule="evenodd" d="M14.7982 16.3581C12.3112 18.8335 11.1035 21.804 11.1035 25.3401C11.1035 28.8763 12.3116 31.7759 14.7982 34.2515C17.2851 36.7266 20.3406 37.9998 23.8224 37.9998C27.3041 37.9998 30.3594 36.7264 32.8464 34.2515C35.3335 31.7761 36.5414 28.8056 36.5414 25.3401C36.5414 21.8747 35.3337 18.8337 32.8464 16.3581C30.3596 13.8827 27.3751 12.6096 23.8224 12.6096C20.3406 12.6098 17.2851 13.8829 14.7982 16.3581ZM32.278 16.924C34.6228 19.2577 35.7594 22.0868 35.7594 25.3401C35.7594 28.5935 34.6229 31.3517 32.278 33.6854C29.9328 36.0192 27.091 37.2218 23.8222 37.2218C20.5534 37.2218 17.7114 36.0192 15.3665 33.6854C13.0214 31.3513 11.8848 28.5935 11.8848 25.3401C11.8848 22.0868 13.0218 19.2577 15.3665 16.924C17.7112 14.5902 20.5536 13.4585 23.8222 13.4585C27.0908 13.4585 29.933 14.5902 32.278 16.924Z" fill="#CC2A2D"/>
<path fill-rule="evenodd" clip-rule="evenodd" d="M17.7113 19.1872C16.0058 20.8846 15.1533 22.9355 15.1533 25.3401C15.1533 27.7448 16.006 29.725 17.7113 31.4224C19.4167 33.1199 21.477 33.9684 23.8221 33.9684C26.1672 33.9684 28.2984 33.1197 30.0038 31.4224C31.7095 29.725 32.562 27.6741 32.562 25.3401C32.562 23.0062 31.7093 20.8844 30.0038 19.1872C28.2984 17.4898 26.2382 16.6411 23.8221 16.6411C21.4774 16.6409 19.4169 17.4898 17.7113 19.1872ZM23.8223 16.9948C25.3143 16.9948 26.7355 17.3486 28.0859 18.126C29.3646 18.904 30.3597 19.8943 31.0701 21.2381H21.051C20.6247 21.2381 20.2695 21.3797 20.0564 21.6623L19.8433 21.9452L16.1481 28.381C15.7218 27.3201 15.5085 26.2593 15.5085 25.3397C15.5085 23.0765 16.2902 21.0961 17.9245 19.3989C19.5586 17.7728 21.5485 16.9947 23.8223 16.9947V16.9948ZM22.6853 23.2183L18.0667 31.2811L17.427 30.5737L22.0457 22.5817L22.2589 22.2989C22.543 22.0868 22.898 21.9452 23.2536 21.9452H31.4247L31.7093 22.5817H23.893C23.5376 22.5817 23.1822 22.7234 22.8978 23.006L22.6849 23.2181L22.6853 23.2183ZM25.0304 23.7135C25.3145 23.3595 25.6699 23.2183 26.096 23.2183H31.9226L32.0645 23.9258H26.7355C26.3095 23.9258 25.9539 24.067 25.741 24.35L25.5275 24.6329L20.6247 32.9783L19.8433 32.5541L24.8885 23.9258L25.0304 23.7136V23.7135ZM32.1357 24.5621V25.3401C32.1357 27.6034 31.3545 29.5129 29.72 31.1395C28.0859 32.7662 26.167 33.6149 23.8225 33.6149L22.8986 33.544L27.7309 25.2692L27.8724 25.0571C28.1569 24.7034 28.5119 24.5621 28.8675 24.5621H32.1359H32.1357Z" fill="#CC2A2D"/>
</svg>
