<svg width="48" height="48" viewBox="0 0 48 48" fill="none" xmlns="http://www.w3.org/2000/svg">
<g clip-path="url(#clip0_26_72998)">
<path d="M39.1941 27.3856H9.44824L9.72912 26.6851H39.4762L39.1941 27.3856Z" fill="#D6001C"/>
<path d="M30.3222 25.4612C30.2748 25.6259 30.1193 25.7263 29.9749 25.6853C29.8302 25.6444 29.7514 25.4777 29.7986 25.313C29.8459 25.1482 30.0015 25.0478 30.146 25.0888C30.2905 25.1297 30.3694 25.2965 30.3222 25.4612ZM30.7553 23.1875C30.7553 23.1875 30.7247 24.0679 30.1441 24.5687L30.7553 23.1875ZM18.3263 25.3696C18.2385 25.5702 18.0197 25.6763 17.856 25.6057C17.6922 25.535 17.6451 25.3165 17.7329 25.1158C17.8208 24.9152 18.0291 24.8123 18.1928 24.8831C18.3567 24.9538 18.414 25.1689 18.3263 25.3696ZM14.1169 22.1857C14.1169 22.1857 14.3308 22.9902 13.4293 23.9465L14.1169 22.1857ZM38.6402 25.5318C38.5026 25.5318 38.5496 25.3753 38.5496 25.3753L39.0004 24.3253L37.683 24.3272L37.4435 24.8845H38.116L37.8371 25.5318H34.9318C34.7841 25.5376 34.8194 25.4188 34.8194 25.4188L35.2212 24.3262L34.5972 24.3272L34.1547 25.5098C34.1385 25.5474 34.0816 25.6119 33.9771 25.5884C33.8629 25.5533 33.9255 25.396 33.9255 25.396L34.2843 24.3272L33.6586 24.3268L33.2528 25.5318L30.7171 25.5326C30.8775 24.9634 30.4192 24.7357 30.4192 24.7357C31.9775 23.2331 30.6979 22.059 30.6979 22.059L29.2078 25.5318C29.2078 25.5318 26.6253 25.5338 26.3596 25.5318C26.0938 25.5298 26.1804 25.3969 26.2297 25.3539C26.4522 25.1527 27.371 24.326 27.371 24.326H26.569L25.7336 25.0292L26.7294 22.7094H25.9502L24.8793 25.5298C24.8793 25.5298 22.2318 25.5308 21.7531 25.531C21.7018 25.531 21.6549 25.5003 21.6371 25.4524C21.6001 25.3522 21.6062 25.2265 21.6635 25.1095C21.7617 24.9087 21.9729 24.8095 22.1354 24.8879C22.2291 24.9331 22.2858 25.0276 22.2985 25.1379H22.8136C22.8202 24.793 22.6681 24.4846 22.3863 24.3486C21.9663 24.1461 21.4201 24.4025 21.1664 24.9214C21.0673 25.124 21.0283 25.3366 21.0415 25.5326H18.8474C19.0285 25.0309 18.8725 24.5148 18.4653 24.339C18.0357 24.1534 17.4888 24.4232 17.2585 24.9495C17.1732 25.1446 17.1366 25.346 17.1461 25.5318H17.1456H15.06C14.6934 25.5091 14.8122 25.1455 14.8122 25.1455L16.1184 22.1175H15.1559L14.1932 24.4852C13.8866 25.1096 13.6056 25.2797 13.5473 25.303C13.0735 25.4931 13.162 24.9178 13.162 24.9178C15.66 22.4362 14.0328 20.0457 14.0328 20.0457L12.3141 24.7812C9.88476 25.8285 8.71595 24.4398 8.71595 24.4398L8.07422 25.7147C10.2515 26.9897 12.1995 25.6009 12.1995 25.6009C12.3553 26.0654 12.5713 26.2672 12.7983 26.3209C13.4652 26.4438 13.9412 25.7375 13.9412 25.7375C14.0866 26.1869 14.4671 26.2272 14.5199 26.2279C14.5727 26.2287 16.5137 26.2279 16.5137 26.2279C17.0179 26.2279 17.2407 25.9165 17.2463 25.9166C17.3196 26.0572 17.4314 26.1699 17.5811 26.2346C17.9173 26.3798 18.3411 26.2399 18.6202 25.9206C18.7245 26.2113 18.9814 26.2279 18.9814 26.2279C18.9814 26.2279 20.2591 26.2296 20.5626 26.2279C20.8583 26.2264 21.1375 25.9383 21.152 25.9233C21.2246 26.055 21.3398 26.2192 21.5429 26.2279C21.5428 26.2279 23.9655 26.2274 24.1413 26.2279C24.3905 26.2287 24.7396 25.9189 24.7396 25.9189L24.6117 26.2279H25.2199L25.4344 25.7293C25.582 26.1653 25.9301 26.2272 25.9737 26.2279C26.0173 26.2287 28.6349 26.2279 28.6349 26.2279C29.0168 26.2338 29.2747 25.9151 29.2747 25.9151C29.4179 26.1783 29.5752 26.269 29.7421 26.2868C30.178 26.3333 30.465 26.0107 30.465 26.0107C30.5109 26.1929 30.6777 26.2281 30.7176 26.2279C30.7574 26.2277 32.6171 26.2279 32.6171 26.2279C33.0206 26.1888 33.241 25.9249 33.241 25.9249C33.3321 26.2054 33.5453 26.2741 33.6919 26.2898C34.1044 26.3173 34.3153 25.9196 34.3153 25.9196C34.4594 26.1908 34.6932 26.2281 34.7507 26.2279C34.8083 26.2277 37.292 26.2279 37.292 26.2279C37.6357 26.2052 37.7958 25.917 37.7958 25.917C37.8756 26.1738 38.0283 26.2281 38.103 26.2279C38.1774 26.2277 39.6755 26.2279 39.6755 26.2279L39.9753 25.5312L38.6402 25.5318Z" fill="#D6001C"/>
</g>
<defs>
<clipPath id="clip0_26_72998">
<rect width="32" height="7.39066" fill="white" transform="translate(8 20)"/>
</clipPath>
</defs>
</svg>
