<svg width="48" height="48" viewBox="0 0 48 48" fill="none" xmlns="http://www.w3.org/2000/svg">
<g clip-path="url(#clip0_26_72988)">
<path d="M19.1399 22.5569V26.3104H16.5145C15.7644 26.3104 15.2544 25.9106 15.2544 25.0687V22.5569H16.5067V25.0289C16.5067 25.1134 16.5356 25.1656 16.6618 25.1656H17.8876V22.5569H19.1399Z" fill="#2056AE"/>
<path d="M13.6241 22.5572C14.3742 22.5572 14.8842 22.8604 14.8842 23.7023V26.3107H13.6319V23.8495C13.6319 23.7651 13.603 23.7129 13.4769 23.7129H12.4632V26.3107H11.2012V23.8723C11.2012 23.7878 11.1727 23.7129 11.0468 23.7129H10.0331V26.3107H8.78076V22.554L11.194 22.5572H13.6241Z" fill="#2056AE"/>
<path d="M23.8373 26.3107L22.4803 26.3105C21.7301 26.3105 21.2202 25.9107 21.2202 25.0688V21.406H22.4726V22.5539H23.8373V23.6989H22.4726V25.0384C22.4726 25.123 22.4988 25.1657 22.6248 25.1657H23.8373V26.3107Z" fill="#2056AE"/>
<path d="M19.583 26.3107H20.8353V21.406H19.583V26.3107Z" fill="#2056AE"/>
<path d="M24.125 26.3107H25.3773V22.554H24.125V26.3107Z" fill="#2056AE"/>
<path d="M24.125 22.0321H25.3773V21.1973H24.125V22.0321Z" fill="#2056AE"/>
<path d="M28.79 26.3107L26.9909 26.3106C26.241 26.3106 25.731 25.9107 25.731 25.0688V23.7959C25.731 22.954 26.241 22.554 26.9909 22.554H28.79V23.6989H27.1355C27.0095 23.6989 26.9833 23.7416 26.9833 23.8261V25.0384C26.9833 25.123 27.0095 25.1657 27.1355 25.1657H28.79V26.3107Z" fill="#2056AE"/>
<path d="M31.7031 26.3107L30.346 26.3106C29.5958 26.3106 29.0859 25.9107 29.0859 25.0688V23.7959C29.0859 22.954 29.5958 22.554 30.346 22.554H33.2235V26.3107H31.9712V23.6989H30.4905C30.3645 23.6989 30.3383 23.7416 30.3383 23.8261V25.0384C30.3383 25.123 30.3645 25.1657 30.4905 25.1657H31.7031V26.3107Z" fill="#2056AE"/>
<path d="M35.7351 22.554H34.5989C33.9442 22.554 33.5596 22.8817 33.5596 23.575V26.3107H34.8119V23.8261C34.8119 23.7416 34.8383 23.6989 34.9643 23.6989H35.7351V22.554Z" fill="#2056AE"/>
<path d="M8.78091 26.8972L8.22656 27.7716H36.1875L39.7739 22.554H38.5213L35.534 26.8972H8.78091Z" fill="#F46717"/>
</g>
<defs>
<clipPath id="clip0_26_72988">
<rect width="32" height="6.96875" fill="white" transform="translate(8 21)"/>
</clipPath>
</defs>
</svg>
