<svg width="48" height="48" viewBox="0 0 48 48" fill="none" xmlns="http://www.w3.org/2000/svg">
<g clip-path="url(#clip0_26_72964)">
<path d="M26.6479 25.4573C26.6225 25.4636 26.5209 25.4636 26.4764 25.4636H23.2002V26.2255H26.5336C26.559 26.2255 26.7558 26.2255 26.7939 26.2192C27.4733 26.1557 27.7844 25.5906 27.7844 25.0954C27.7844 24.5874 27.4606 24.0414 26.8447 23.9842C26.724 23.9715 26.6225 23.9715 26.578 23.9715H24.4002C24.305 23.9715 24.197 23.9652 24.159 23.9525C23.9875 23.9081 23.924 23.7557 23.924 23.6287C23.924 23.5144 23.9875 23.362 24.1653 23.3112C24.2161 23.2985 24.2732 23.2922 24.3939 23.2922H27.5367V22.543H24.3431C24.2097 22.543 24.1082 22.5493 24.0256 22.562C23.4796 22.6382 23.0986 23.0763 23.0986 23.635C23.0986 24.0922 23.3843 24.6255 24.0129 24.7144C24.1272 24.7271 24.2859 24.7271 24.3558 24.7271H26.4764C26.5145 24.7271 26.6098 24.7271 26.6288 24.7335C26.8701 24.7652 26.9526 24.943 26.9526 25.1017C26.9526 25.2541 26.8574 25.4192 26.6479 25.4573Z" fill="black"/>
<path d="M20.4384 25.4573C20.413 25.4636 20.3114 25.4636 20.2733 25.4636H16.9907V26.2255H20.3241C20.3495 26.2255 20.5463 26.2255 20.5844 26.2192C21.2638 26.1557 21.5749 25.5906 21.5749 25.0954C21.5749 24.5874 21.2511 24.0414 20.6352 23.9842C20.5146 23.9715 20.413 23.9715 20.3685 23.9715H18.1908C18.0955 23.9715 17.9876 23.9652 17.9495 23.9525C17.7781 23.9081 17.7146 23.7557 17.7146 23.6287C17.7146 23.5144 17.7781 23.362 17.9558 23.3112C18.0066 23.2985 18.0638 23.2922 18.1844 23.2922H21.3273V22.543H18.1336C18.0003 22.543 17.8987 22.5493 17.8161 22.562C17.2701 22.6382 16.8892 23.0763 16.8892 23.635C16.8892 24.0922 17.1749 24.6255 17.8034 24.7144C17.9177 24.7271 18.0765 24.7271 18.1463 24.7271H20.2669C20.305 24.7271 20.4003 24.7271 20.4193 24.7335C20.6606 24.7652 20.7431 24.943 20.7431 25.1017C20.7431 25.2541 20.6543 25.4192 20.4384 25.4573Z" fill="black"/>
<path d="M15.2824 22.5176H14.457V26.2446H15.2824V22.5176Z" fill="black"/>
<path d="M12.6349 26.2446V22.5176H11.8095V25.2985L9.06032 22.5176H8V26.2446H8.8254V23.4509L11.5937 26.2446H12.6349Z" fill="black"/>
<path d="M39.1811 22.5176V25.2985L36.4319 22.5176H35.3716V26.2446H36.197V23.4509L38.9589 26.2446H40.0002V22.5176H39.1811Z" fill="black"/>
<path d="M31.0733 22.5176L28.7495 26.2446H29.7527L30.1654 25.5779H32.8765L33.2892 26.2446H34.286L31.9622 22.5176H31.0733ZM32.4511 24.8731H30.5908L31.5241 23.3747L32.4511 24.8731Z" fill="black"/>
<path d="M12.5903 20.4032C14.2538 15.546 18.8379 12.2825 24.0062 12.2825C29.1744 12.2825 33.7649 15.546 35.4221 20.4032L35.4348 20.4413H39.0729V20.0032L37.5618 19.8254C36.6284 19.7175 36.4316 19.3048 36.1776 18.7842L36.1142 18.6572C33.93 14.0095 29.1744 11 24.0062 11C18.8316 11 14.0823 14.0095 11.8982 18.6699L11.8347 18.7969C11.5807 19.3175 11.3839 19.7302 10.4506 19.8381L8.93945 20.0159V20.454H12.5712L12.5903 20.4032Z" fill="black"/>
<path d="M35.4348 28.3272L35.4221 28.3652C33.7586 33.2224 29.1744 36.4796 24.0062 36.4796C18.8379 36.4796 14.2474 33.2161 12.5903 28.3589L12.5776 28.3208H8.9458V28.7589L10.4569 28.9367C11.3903 29.0446 11.5871 29.4573 11.841 29.978L11.9045 30.1049C14.0887 34.7653 18.8442 37.7748 24.0125 37.7748C29.1808 37.7748 33.9364 34.7653 36.1205 30.1113L36.184 29.9843C36.438 29.4637 36.6348 29.051 37.5681 28.943L39.0792 28.7652V28.3272H35.4348Z" fill="black"/>
</g>
<defs>
<clipPath id="clip0_26_72964">
<rect width="32" height="26.7747" fill="white" transform="translate(8 11)"/>
</clipPath>
</defs>
</svg>
