<svg width="48" height="48" viewBox="0 0 48 48" fill="none" xmlns="http://www.w3.org/2000/svg">
<g clip-path="url(#clip0_26_72962)">
<path d="M25.2804 8.78139C25.2781 8.78023 25.2749 8.78023 25.2703 8.78139C24.4232 8.77752 23.5644 9.75343 23.7275 11.2086C23.8295 12.0994 23.9662 12.5055 24.232 13.0811C24.364 13.3654 25.8106 16.1024 25.8772 16.3918C25.9675 16.806 25.8869 17.0652 25.5669 17.3549C25.2138 17.6729 24.6283 18.0334 24.2332 18.1687C24.1398 18.2005 24.0537 18.2163 23.9759 18.2163C23.8864 18.2163 23.6629 18.1862 23.2397 17.6678L25.1091 20.1465C24.8705 19.8297 24.7471 19.5899 24.7907 19.3798C24.8331 19.1733 25.1733 18.9474 25.565 18.641C25.9574 18.3378 26.3914 17.9552 26.5907 17.4377C26.6491 17.2903 26.674 17.1375 26.674 16.9778C26.674 16.4838 26.4331 15.9241 26.1438 15.3172C25.7701 14.5301 24.7101 12.8127 24.3881 11.6089C24.3087 11.3134 24.2741 11.0477 24.2741 10.8117C24.2741 10.1294 24.566 9.69657 24.9238 9.54958C25.0955 9.48073 25.2489 9.45714 25.3769 9.45714C25.5731 9.45714 25.7094 9.51129 25.7662 9.54107C25.8667 9.59755 25.8811 9.71629 25.8811 9.8099V9.8304C25.8811 9.85206 25.8776 9.90273 25.8776 9.97739C25.8776 10.2582 25.9157 10.8752 26.245 11.4739C26.66 12.2344 27.3584 12.6591 27.6328 12.7736C27.6558 12.7837 26.9909 10.3325 26.8714 9.87024C26.734 9.33142 26.3509 8.79183 25.2808 8.781L25.2804 8.78139Z" fill="url(#paint0_linear_26_72962)"/>
<path d="M13.6377 14.227C13.8009 14.3894 13.5167 14.3801 12.6548 14.4544C11.7773 14.5302 10.8933 14.7058 10.4312 14.8783C10.0929 15.0052 9.88814 15.0949 9.75305 15.4032C9.75305 15.4032 9.47199 16.0101 9.43462 16.2499C9.4171 16.3633 9.42216 16.4286 9.48172 16.5242C9.51481 16.5749 9.59578 14.9422 11.7166 14.8346C13.593 14.7395 14.0551 14.5437 13.6884 14.1875L13.6377 14.227Z" fill="url(#paint1_linear_26_72962)"/>
<path d="M24.3815 10.8752C24.3815 10.8752 24.422 10.4482 24.4983 10.2474C24.6871 9.70397 25.0367 9.59063 25.2781 9.59063C25.4396 9.59063 25.5128 9.62893 25.5817 9.70087C25.6346 9.75889 25.6697 9.81189 25.6771 9.89389C25.6833 10.1368 25.693 10.4157 25.9301 11.0446C25.9441 11.0829 25.9593 11.1208 25.9753 11.1576C25.7744 10.6493 25.7499 10.1778 25.7499 9.93721C25.7491 9.85985 25.7526 9.7705 25.7526 9.7705C25.7534 9.58561 25.5494 9.53223 25.3664 9.53223C25.2512 9.53223 25.1138 9.55234 24.9581 9.61655C24.6618 9.73569 24.3909 10.1043 24.3784 10.7317L24.3815 10.8752Z" fill="url(#paint2_linear_26_72962)"/>
<path d="M13.7118 14.298C13.7752 14.4706 13.5218 14.4299 12.6599 14.5042C11.7824 14.58 10.898 14.7491 10.4355 14.9216C10.0972 15.0484 9.89285 15.1378 9.75738 15.4465C9.75738 15.4465 9.47592 16.0538 9.43777 16.2936C9.42025 16.4065 9.44828 16.473 9.50823 16.567C9.59816 16.7082 9.65577 16.7388 9.78735 16.6641C9.89402 16.6034 10.3627 16.3392 10.6703 16.3334C10.9505 16.3272 11.0739 16.497 11.1148 16.6425C11.1397 16.7326 11.2635 16.6858 11.2849 16.6804C11.4076 16.6494 11.5275 16.6131 11.9662 16.5814C12.4871 16.5434 14.5195 16.5605 15.2658 16.5779C15.9369 16.5933 18.5802 18.6539 18.6191 18.6635L18.7526 18.3978C17.8549 17.6602 14.5187 15.0322 13.7129 14.2485L13.7121 14.298H13.7118Z" fill="url(#paint3_linear_26_72962)"/>
<path d="M21.3273 15.9258C21.7298 16.4059 22.9269 17.8514 23.953 19.1572C25.5522 21.193 26.5398 22.787 27.5781 25.1357C27.6816 25.3697 27.6026 25.3956 27.4375 25.5275C27.1191 25.7839 27.1865 25.888 26.9498 26.2941C26.9229 26.3406 26.8618 26.4164 26.7867 26.4094C26.5675 26.392 24.8671 26.2493 23.7494 26.2883C23.0853 26.3108 22.9136 26.3595 22.7673 26.3932C22.6489 26.4222 22.6081 26.4102 22.6108 26.2562C22.6131 26.1974 22.7381 25.5027 22.8342 25.2474C22.9296 24.9937 23.0787 24.8939 23.3025 24.8328C23.5244 24.7717 24.1555 24.6556 24.4101 24.5926C24.6666 24.5295 24.6775 24.2878 24.6541 24.1052C24.6296 23.9226 24.484 23.6778 24.317 23.6476C24.0959 23.6093 23.9445 23.5772 23.6969 23.4705C23.4555 23.3622 19.9823 20.5834 19.665 20.3273C19.5845 20.2612 19.5218 20.2132 19.4965 20.2426C19.4708 20.2716 19.5374 20.3548 19.5677 20.3876C19.6273 20.4491 20.1513 20.9872 20.2665 21.0966C20.3498 21.1771 20.3054 21.2166 20.2645 21.2564C20.203 21.3125 18.5602 22.922 17.8786 23.624C17.1989 24.3238 16.7084 24.7345 16.7146 25.2939C16.7209 25.854 16.7454 26.2922 16.747 26.3889C16.7477 26.4732 16.6597 26.4717 16.587 26.4651C16.3756 26.4462 14.7445 26.2864 13.83 26.2667C12.916 26.2493 12.2519 26.3355 11.8217 26.4431C11.7205 26.4682 11.6893 26.4082 11.6956 26.3216C11.7049 26.1808 11.8057 25.6041 11.9299 25.2285C12.0163 24.9693 12.2051 24.8676 12.4301 24.8135C12.728 24.7407 13.8993 24.5315 14.4264 24.451C14.7137 24.405 14.7733 24.3091 14.7702 24.0685C14.7659 23.8228 14.7375 23.3014 14.725 23.0392C14.7121 22.7781 14.7958 22.4891 14.8932 22.259C15.3093 21.2901 16.3304 19.2458 17.2176 18.0281C17.3196 17.8869 17.4228 17.863 17.5212 17.8873C17.6376 17.916 18.1702 18.3318 18.2142 18.353C18.308 18.4002 18.4318 18.3581 18.3742 18.3008C18.0643 17.9922 17.1253 17.4251 16.5535 16.9725C15.4226 16.0759 14.2431 14.7736 13.2936 13.9032C12.8039 13.4549 12.2787 13.125 11.8883 13.0399C11.7497 13.0093 11.62 13.0093 11.4998 12.9927C11.4414 12.9842 11.432 12.9335 11.4312 12.9068C11.4273 12.8473 11.4355 12.7316 11.3156 12.5924C11.2253 12.4902 11.0291 12.4558 10.8929 12.4539C10.7013 12.4477 10.3852 12.4891 10.2065 12.5374C10.1197 12.561 10.0773 12.5432 10.0454 12.5057C10.0162 12.4709 9.96596 12.3576 9.94806 12.2512C9.93716 12.1758 9.95935 12.1178 10.0037 12.0346C10.1193 11.8153 10.4175 11.5994 10.5888 11.4408C10.7636 11.2796 10.8761 11.2714 11.042 11.2502C11.441 11.2026 11.9712 11.1697 12.5092 11.2915C12.902 11.3797 13.2134 11.5341 13.5988 11.7232C13.983 11.9131 16.2144 13.048 16.5009 13.183L21.3273 15.9262V15.9258Z" fill="url(#paint4_linear_26_72962)"/>
<path d="M17.6195 11.8894C17.6635 12.1652 17.4848 12.3458 17.377 12.516C17.2711 12.6828 17.0527 12.9319 16.9406 13.0711C16.7989 13.2506 16.5264 13.1964 16.5264 13.1964C16.5264 13.1964 17.8118 13.8451 18.5514 14.2145C18.8442 14.3623 19.3043 14.2249 19.6173 13.6443C19.6901 13.5094 20.1518 12.5373 20.2678 12.2476C20.3838 11.959 20.5481 11.6384 20.2838 11.0872C20.0187 10.5371 19.1973 9.52101 18.8706 9.13111C18.6994 8.92765 18.4981 8.8031 18.064 8.77951C17.6362 8.7563 17.1056 8.81935 16.4228 9.00192C15.7283 9.18759 14.8404 9.54693 14.8081 9.56549C14.7898 9.57749 14.7921 9.59489 14.8022 9.61539C14.8104 9.63435 14.9034 9.7941 14.9034 9.7941C14.9034 9.7941 14.9505 9.90201 15.0841 9.97705C15.2164 10.0517 15.3472 10.083 15.3815 10.0904C15.4157 10.0977 15.4313 10.083 15.4434 10.0652C15.4539 10.0502 15.5851 9.80106 16.0654 9.67689C16.3255 9.61152 16.4913 9.60379 16.5704 9.60379C16.6957 9.60688 16.89 9.66838 16.9982 9.77243C17.1741 9.94456 17.3279 10.2296 17.3544 10.3666C17.3828 10.4989 17.3606 10.6636 17.2271 10.7325C17.0947 10.8002 16.7058 10.8915 16.4625 10.9158C16.2099 10.9398 15.9642 10.9282 15.819 10.8447C15.7953 10.8319 15.7789 10.83 15.7564 10.8474C15.7015 10.8926 15.6688 10.9298 15.5598 10.9936C15.5364 11.0071 15.5208 11.0373 15.5446 11.0837C15.5675 11.1297 15.8724 11.6322 16.0565 11.7668C16.2398 11.9037 16.3379 11.8422 16.5579 11.7212C16.7782 11.6001 16.9269 11.4519 17.1555 11.4597C17.3875 11.4663 17.5837 11.6616 17.6191 11.889L17.6195 11.8894Z" fill="url(#paint5_radial_26_72962)"/>
<path style="mix-blend-mode:multiply" opacity="0.85" d="M17.2081 10.7824C17.0785 10.845 16.697 10.9294 16.4591 10.9514C16.2119 10.9746 15.9706 10.963 15.8285 10.886C15.8055 10.8748 15.7888 10.8725 15.7674 10.8884C15.7136 10.9305 15.6813 10.9649 15.5758 11.0233C15.5521 11.0361 15.5365 11.0643 15.5599 11.1069C15.5828 11.1494 15.8577 11.6086 16.0445 11.7401C16.2314 11.8739 16.3307 11.814 16.5549 11.6956C16.7787 11.5769 16.9298 11.4318 17.1622 11.4392L17.2085 10.782L17.2081 10.7824Z" fill="url(#paint6_radial_26_72962)"/>
<path style="mix-blend-mode:multiply" opacity="0.85" d="M16.3886 9.07617C15.7287 9.24521 14.8859 9.57128 14.8552 9.58791C14.8376 9.59874 14.8404 9.63472 14.8493 9.65367C14.8575 9.67069 14.9451 9.81574 14.9451 9.81574C14.9451 9.81574 14.9895 9.91438 15.1164 9.98207C15.2425 10.0498 15.3472 10.083 15.3815 10.0904C15.4157 10.0977 15.4313 10.083 15.4434 10.0652C15.4539 10.0501 15.5851 9.80104 16.0655 9.67688C16.3255 9.61151 16.4913 9.60377 16.5704 9.60377L16.3886 9.07617Z" fill="url(#paint7_radial_26_72962)"/>
<path style="mix-blend-mode:multiply" opacity="0.85" d="M17.6242 11.9285C17.6682 12.2046 17.4899 12.4046 17.3817 12.574C17.2746 12.7411 17.0566 12.9906 16.9457 13.1295C16.8032 13.3082 16.5957 13.2305 16.5957 13.2305C16.5957 13.2305 17.8118 13.8451 18.5515 14.2141C18.8442 14.3619 19.2876 14.2613 19.5994 13.6803C19.6722 13.5453 20.1355 12.5729 20.2503 12.2839L17.6238 11.9285H17.6242Z" fill="url(#paint8_radial_26_72962)"/>
<path d="M11.5671 16.4757C11.5103 16.4529 11.5099 16.3864 11.585 16.3075C11.6298 16.2615 11.965 15.9888 12.1678 15.9416C12.3772 15.8944 13.1071 15.8278 13.4186 15.8101C13.5069 15.8058 14.6378 15.7052 14.7414 15.7099C14.8445 15.7145 15.1026 16.1141 15.4074 16.4436C15.3716 16.4467 14.3871 16.4251 13.5517 16.4274C12.7615 16.4289 12.0642 16.4506 11.8073 16.4719C11.7217 16.4792 11.615 16.4951 11.5667 16.4761L11.5671 16.4757Z" fill="url(#paint9_linear_26_72962)"/>
<path d="M11.5619 16.4897C11.5307 16.4785 11.5105 16.4511 11.5113 16.4186C11.5113 16.3818 11.5327 16.3408 11.5747 16.2971C11.6226 16.2476 11.9554 15.9772 12.1656 15.9269C12.3762 15.879 13.1069 15.8128 13.4184 15.7947C13.5036 15.79 14.5851 15.6941 14.7338 15.6941C14.7369 15.6941 14.7408 15.6941 14.7427 15.6949C14.7781 15.6972 14.8136 15.7258 14.8583 15.7695C14.9023 15.8136 14.9541 15.8743 15.0109 15.9455C15.1273 16.0879 15.2671 16.2693 15.4185 16.4337L15.4403 16.4565L15.4084 16.4588H15.3924C15.2632 16.4588 14.4231 16.4414 13.664 16.4414C13.6259 16.4414 13.5889 16.4418 13.5527 16.4422C12.7624 16.4433 12.0652 16.4654 11.8098 16.4863C11.7538 16.4913 11.6892 16.5002 11.635 16.5002C11.607 16.4998 11.5825 16.4975 11.5622 16.4901L11.5619 16.4897ZM11.6347 16.4696C11.6857 16.4696 11.7499 16.4615 11.8075 16.4565C12.0648 16.4348 12.7616 16.4132 13.5523 16.4116H13.6636C14.3924 16.4116 15.1974 16.4275 15.373 16.4286C15.1534 16.1873 14.9596 15.9146 14.8354 15.7912C14.7941 15.7479 14.7579 15.725 14.7412 15.725C14.7412 15.725 14.7369 15.725 14.7338 15.725C14.5893 15.725 13.5067 15.821 13.4199 15.8252C13.1101 15.8434 12.3782 15.9099 12.1727 15.9567C11.9764 16.0008 11.6374 16.2747 11.5969 16.3188C11.558 16.359 11.542 16.395 11.542 16.419C11.5428 16.4402 11.5521 16.453 11.5731 16.4623C11.5872 16.4677 11.6094 16.47 11.635 16.47L11.6347 16.4696Z" fill="#7F7F7E"/>
<path d="M27.8556 25.2308C27.5138 24.3752 26.548 22.5193 25.2248 20.5887C23.9273 18.6899 21.7263 16.1184 21.4227 15.691C21.1245 15.2725 21.0081 14.8014 21.6282 14.6064C22.0327 14.4788 23.009 14.278 23.4076 14.1674C23.7954 14.0618 23.8234 13.9365 23.8557 13.6379C23.8896 13.3149 23.8008 11.7483 23.605 10.8153C23.5645 10.6216 23.4333 10.4599 23.2768 10.35C23.139 10.2541 22.6026 9.78993 22.3063 9.4538C21.9665 9.06777 21.8123 8.70417 21.7567 8.42451C21.7567 8.42451 21.7473 8.3634 21.6792 8.29996C21.6551 8.2752 21.6356 8.26244 21.5947 8.23923C21.0112 7.8826 18.9495 7.3225 18.5287 7.28653C18.241 7.26062 17.2203 7.39097 16.2911 7.94603C16.0178 8.11043 16.0065 8.31272 15.815 8.42258C15.625 8.53282 15.1871 8.63184 14.7277 8.83646C14.4747 8.94863 14.4731 8.9672 14.5335 9.10915C14.5576 9.16872 14.7226 9.46695 14.8063 9.46695C14.8889 9.46927 14.9897 9.42672 15.0913 9.38611C15.2268 9.33311 16.1326 8.9846 16.8528 8.83182C17.654 8.66162 18.5155 8.64692 18.8214 8.96874C19.2866 9.45805 20.1041 10.5558 20.3517 11.032C20.595 11.5027 20.5705 11.7313 20.4082 12.2148C20.2591 12.6612 19.6946 13.8212 19.5288 14.0614C19.3614 14.302 19.1597 14.4358 18.6762 14.2397C18.1581 14.0278 16.2498 13.0553 15.8352 12.8468C15.5542 12.706 14.3742 12.1127 13.4828 11.6683C13.1527 11.5039 12.8809 11.3843 12.5843 11.3101C11.9283 11.1441 11.223 11.2188 10.8979 11.2726C10.75 11.2969 10.6569 11.5336 10.6639 11.6296C10.6733 11.7491 11.0194 11.664 11.3074 11.6845C11.5398 11.7004 12.3355 11.7858 12.7945 11.9707C13.2788 12.1657 15.7056 13.4642 16.3187 13.7922C20.9871 16.3157 22.9845 17.9407 26.5928 23.9652C26.7539 24.234 26.831 24.5651 26.5768 24.6401C26.2074 24.7473 24.6674 25.0385 24.2026 25.1898C23.8109 25.3182 23.7592 25.3488 23.7012 25.541C23.6377 25.7607 23.5392 26.1959 23.5618 26.2833C23.5723 26.3192 23.5408 26.366 23.6206 26.366C24.0539 26.366 25.6063 26.3684 26.803 26.4805C26.947 26.4949 26.9544 26.4914 27.0455 26.3544C27.1502 26.1947 27.5644 25.724 27.8369 25.5244C27.951 25.4396 27.8747 25.283 27.8552 25.2319L27.8556 25.2308Z" fill="url(#paint10_linear_26_72962)"/>
<path d="M26.7578 24.3384C26.7337 24.0935 26.5071 23.7303 26.1057 23.1052C25.7017 22.4763 25.194 21.6176 24.5186 20.6668C23.3192 18.9796 22.1377 17.6617 20.6701 16.5079C19.5867 15.6565 18.4492 14.9734 17.6154 14.4876C16.7808 14.0022 13.2589 12.0887 12.7131 11.9181C12.216 11.7633 11.8212 11.7127 11.4693 11.6771C11.2299 11.6531 11.0287 11.6709 10.8153 11.6709C10.6137 11.6709 10.6845 11.5081 10.7126 11.4438C10.6919 11.4891 10.5709 11.7138 10.7698 11.7138C10.9142 11.7138 11.2509 11.7026 11.4775 11.7281C11.9123 11.775 12.4608 11.8949 12.805 12.0271C13.2951 12.2163 15.5938 13.5786 16.1887 13.9082C17.979 14.917 19.3407 15.8437 20.6183 16.8668C22.5714 18.4299 24.2574 20.2425 26.3712 23.921C26.4549 24.0637 26.4989 24.1732 26.4989 24.3059C26.5067 24.5116 26.3284 24.5851 26.2688 24.6022C25.9053 24.7105 24.4127 25.0443 23.9705 25.1959C23.5948 25.3278 23.5259 25.4102 23.4718 25.5831C23.4524 25.6547 23.3885 26.0051 23.3145 26.0979C23.2406 26.1935 23.0689 26.2136 22.8859 26.2136C22.7734 26.2136 22.7174 26.2198 22.7291 26.0952C22.7388 25.9711 22.8131 25.6349 22.8564 25.4419C22.8988 25.2474 22.979 25.1023 23.1573 24.9952C23.3348 24.8876 23.9541 24.7882 24.3022 24.7027C24.6502 24.6188 24.6685 24.4583 24.6626 24.1972C24.6626 24.4741 24.5661 24.5407 24.2169 24.6192C23.8623 24.6973 23.2663 24.7739 23.0697 24.9066C22.8809 25.0358 22.8061 25.2156 22.7719 25.3576C22.6524 25.8488 22.5718 26.2086 22.5854 26.3292C22.5963 26.4364 22.6399 26.4515 22.7602 26.4379C22.8801 26.424 23.1799 26.3818 23.6303 26.3652C23.7634 26.3652 23.7544 26.2051 23.7521 26.0275C23.7521 25.9629 23.7552 25.7715 23.7891 25.6779C23.8218 25.5839 23.8934 25.498 24.0075 25.4636C24.2578 25.387 25.644 25.0145 26.349 24.806C26.6581 24.7147 26.7862 24.6172 26.7582 24.338L26.7578 24.3384Z" fill="url(#paint11_linear_26_72962)"/>
<path d="M17.5042 17.8819C17.6004 17.9117 17.7752 18.0362 17.9134 18.1364C18.0239 18.2165 18.1119 18.2815 18.1119 18.2815C17.1776 19.4419 15.7929 21.444 15.3472 22.2907C15.1163 22.7309 15.1214 22.9131 15.1272 23.3204C15.1338 23.7095 15.1802 24.1884 15.1549 24.4123C15.1296 24.6378 14.9847 24.7349 14.7578 24.7972C14.5305 24.8595 13.187 25.0738 12.8904 25.1608C12.5937 25.2478 12.526 25.4134 12.4762 25.6261C12.4256 25.8396 12.4088 25.9777 12.3839 26.0605C12.3575 26.1522 12.375 26.2164 12.2874 26.2226C12.2037 26.2284 11.9966 26.2465 11.9004 26.2605C11.8023 26.2728 11.7891 26.2527 11.7918 26.1491C11.7953 26.0435 11.8923 25.5789 11.9596 25.3345C12.0246 25.0888 12.1301 24.9229 12.4668 24.8409C12.8032 24.7597 14.1692 24.5322 14.4257 24.4862C14.7286 24.4317 14.803 24.3044 14.7882 24.0147C14.773 23.713 14.7294 23.2925 14.7216 23.0345C14.7126 22.7742 14.7286 22.5622 14.8146 22.3313C14.9096 22.078 15.3954 21.032 15.8015 20.2948C16.3613 19.2767 17.0519 18.1863 17.1869 18.0239C17.2956 17.892 17.3715 17.8405 17.5042 17.8819Z" fill="url(#paint12_linear_26_72962)"/>
<path style="mix-blend-mode:multiply" d="M16.715 25.3345C16.7029 25.0943 16.7916 24.8742 16.9458 24.6545C17.1525 24.3593 17.4713 24.058 17.863 23.6546C18.5485 22.9483 20.2189 21.3233 20.2789 21.2634C20.317 21.2262 20.3622 21.174 20.2695 21.085C20.1037 20.9268 20.0165 20.8255 19.7557 20.5656C19.5965 20.4074 19.4859 20.3111 19.4913 20.2561C19.4921 20.2484 17.6251 22.334 17.0135 23.8762C16.7624 24.4263 16.6904 24.7396 16.6904 25.0134C16.6904 25.2509 16.715 25.3341 16.715 25.3341V25.3345Z" fill="url(#paint13_linear_26_72962)"/>
<path style="mix-blend-mode:multiply" d="M10.7939 11.7138C11.0548 11.7118 11.2965 11.7045 11.5219 11.7323C11.9649 11.7869 12.508 11.9037 12.8505 12.0452C13.0285 12.1191 13.4504 12.3473 13.9433 12.6239C14.7966 13.1035 15.8628 13.7278 16.2416 13.939C17.5598 14.684 18.6494 15.3861 19.6405 16.1171C19.9986 16.3805 20.342 16.6521 20.6795 16.9244C22.6388 18.4968 24.2477 20.2378 26.3973 23.9685C26.4803 24.1132 26.5056 24.2276 26.4962 24.3537C26.4884 24.4651 26.3923 24.5777 26.2346 24.6121L10.7939 11.7138Z" fill="url(#paint14_linear_26_72962)"/>
<path d="M23.5888 9.96546H23.5807C23.5063 9.9643 23.4534 9.93335 23.4094 9.90279C23.0991 9.67342 22.2322 9.00309 22.1072 8.4341C22.029 8.16798 22.1274 8.28943 21.8487 8.14902C21.7713 8.11885 21.6957 8.08868 21.6187 8.06006C21.6455 8.07437 21.67 8.08791 21.6934 8.10106C21.7347 8.12543 21.7728 8.15018 21.8028 8.18152C21.9071 8.27822 21.9297 8.37376 21.9328 8.39426C21.9838 8.64568 22.1239 8.98413 22.4459 9.34889C22.7238 9.66646 23.2965 10.1372 23.4164 10.22C23.4919 10.271 23.567 10.3225 23.6317 10.3936C23.6682 10.2026 23.7286 9.99253 23.8142 9.78675C23.7998 9.8088 23.787 9.8382 23.7609 9.87108C23.7317 9.91014 23.6741 9.96082 23.5892 9.96507L23.5888 9.96546Z" fill="url(#paint15_linear_26_72962)"/>
<path d="M21.6947 14.7618C21.4054 14.8654 21.3688 14.9567 21.3599 15.1002V15.1022C21.3591 15.2348 21.4206 15.4418 21.5502 15.6197C21.7009 15.8328 22.4285 16.6548 23.2401 17.6682C23.3336 17.7816 23.3725 17.8249 23.4492 17.903C23.42 17.8647 22.2743 16.4243 21.9232 16.0262C21.8227 15.9098 21.7083 15.7528 21.7063 15.5474C21.7056 15.3424 21.864 15.0503 22.1898 14.9385C22.6254 14.7803 23.418 14.5251 23.5987 14.428C23.7746 14.3282 23.8264 14.2841 23.8525 14.1646C23.7622 14.2377 23.645 14.2852 23.4963 14.3266C23.0875 14.438 22.0824 14.6419 21.6947 14.7622V14.7618Z" fill="url(#paint16_linear_26_72962)"/>
<path d="M23.8286 10.0417C23.9859 9.49635 24.4857 8.85116 25.2783 8.85116C26.2881 8.85116 26.7089 9.22984 26.8499 9.79457C26.6688 8.99312 25.9639 8.74401 25.276 8.76026C24.5017 8.77805 23.9804 9.43136 23.8286 10.0417Z" fill="url(#paint17_linear_26_72962)"/>
<path d="M17.2543 24.5895C17.3886 24.4452 17.9107 23.8685 18.4642 23.2573C18.2828 23.4387 18.1185 23.6054 17.9901 23.737C17.2088 24.5315 16.8534 24.7786 16.8697 25.273C16.8791 25.5646 16.9016 26.2821 16.9032 26.3893C16.9032 26.462 16.9102 26.5312 16.786 26.5958C16.7253 26.6287 16.6206 26.6283 16.5672 26.6283C16.3547 26.6283 14.2934 26.4291 13.5709 26.4291C12.8484 26.4291 12.2271 26.5088 11.8545 26.602C11.7938 26.6163 11.6369 26.6063 11.5735 26.5134C11.5412 26.4651 11.5295 26.416 11.5268 26.3734C11.5108 26.5134 11.4976 26.6767 11.4976 26.7482C11.628 26.7227 11.9343 26.6805 12.3302 26.6511C12.8367 26.6117 13.4097 26.6187 13.7916 26.6187C14.1735 26.6187 17.0099 26.7653 17.0208 26.7653C17.0021 26.5483 16.974 26.0334 16.9659 25.7112C16.9635 25.6284 16.9635 25.6296 16.9565 25.3994C16.9565 25.1473 17.0048 24.8533 17.2543 24.5903V24.5895Z" fill="url(#paint18_linear_26_72962)"/>
<path d="M23.0121 23.2782C23.1732 23.3923 23.3235 23.4727 23.4777 23.5257C23.3476 23.4352 23.1561 23.2902 22.905 23.0991C22.5399 22.8183 22.0727 22.4524 21.6036 22.083C21.2073 21.77 20.8095 21.4544 20.4716 21.1829C20.4658 21.3016 20.3914 21.365 20.3618 21.3832C20.4416 21.3948 20.5113 21.4397 20.5736 21.4966C20.72 21.6319 22.631 23.0055 23.0121 23.2782Z" fill="url(#paint19_linear_26_72962)"/>
<path d="M28.0801 25.7002C28.1451 25.6479 28.1711 25.6518 28.1711 25.6019C28.1711 25.5663 28.1509 25.5017 28.1198 25.4139C27.734 24.3162 26.2633 21.6074 25.1191 20.1008C25.0109 19.9569 24.9373 19.7639 24.9373 19.6304C24.9373 19.4568 25.0292 19.3291 25.1223 19.2572C25.2024 19.1926 25.3951 19.0274 25.6501 18.7764C25.2554 19.0703 24.979 19.3047 24.9455 19.4103C24.9253 19.4595 24.9004 19.5264 24.9004 19.6219C24.9004 19.7399 24.9397 19.9035 25.0915 20.1224C25.1826 20.2509 25.2713 20.377 25.3562 20.4992C26.6845 22.4417 27.6098 24.3208 27.9598 25.1973C28.0361 25.4097 28.0213 25.5141 27.9516 25.6097C27.9516 25.6097 27.2602 26.3125 27.1769 26.444C27.1407 26.4966 27.1142 26.5415 27.0664 26.5817C27.02 26.6246 26.8982 26.6521 26.7818 26.6424C25.7603 26.5465 24.6512 26.507 24.0957 26.507C23.3728 26.507 22.9504 26.5763 22.7106 26.5825C22.5806 26.5867 22.4891 26.5562 22.4735 26.5345C22.4728 26.5314 22.4708 26.5275 22.4673 26.5252C22.4568 26.6258 22.4506 26.702 22.4482 26.7356C22.8862 26.6571 23.476 26.6235 24.1319 26.6235C24.3402 26.6235 24.5535 26.6273 24.7735 26.6328C25.8522 26.6656 27.1045 26.7647 27.1088 26.7647C27.1111 26.7631 27.7098 26.0057 28.0804 25.7006L28.0801 25.7002Z" fill="url(#paint20_linear_26_72962)"/>
<path d="M17.1573 17.7631C16.833 17.5368 16.4897 17.3059 16.179 17.1167C15.7691 16.8614 15.3795 16.6854 15.2631 16.6881C14.4318 16.6755 13.7714 16.6692 13.282 16.6692C12.7093 16.6692 12.1667 16.6905 11.951 16.7067C11.5166 16.738 11.3044 16.7906 11.262 16.8007C11.2191 16.8108 11.1942 16.8081 11.1919 16.8081C11.2028 16.8251 11.2188 16.8579 11.2262 16.8707C11.2374 16.8668 11.255 16.8599 11.2869 16.8506C11.5485 16.7767 12.132 16.7415 12.8608 16.7396C13.5556 16.7396 14.314 16.7446 14.7064 16.7624C15.0583 16.7798 15.5546 16.8266 15.9513 17.0417C16.3196 17.2463 17.1184 17.7975 17.1569 17.7631H17.1573Z" fill="url(#paint21_linear_26_72962)"/>
<path d="M13.3947 14.1668C12.9218 13.7305 12.2059 13.2273 11.8703 13.1584C11.7516 13.1306 11.5849 13.1182 11.4495 13.112C11.3459 13.1062 11.3529 12.9863 11.3237 12.9639C11.3265 12.9851 11.3331 13.1654 11.3957 13.1696C11.4798 13.1758 11.7438 13.1391 11.9762 13.2501C12.2934 13.4056 13.1 13.9982 13.2234 14.1266C13.3764 14.3014 13.5298 14.284 13.3943 14.1672L13.3947 14.1668Z" fill="url(#paint22_linear_26_72962)"/>
<path d="M10.7033 16.5399C10.8018 16.5399 10.8302 16.5422 10.9069 16.5735C10.8586 16.4923 10.8057 16.4559 10.6535 16.4586C10.4304 16.4641 9.86596 16.7426 9.77993 16.7986C9.64835 16.8717 9.59191 16.8729 9.50977 16.7843C9.54714 16.8745 9.61098 16.9294 9.66898 16.91C9.72621 16.8899 10.404 16.5399 10.7033 16.5399Z" fill="url(#paint23_linear_26_72962)"/>
<path d="M17.2674 8.00633C17.3709 7.9897 17.4589 7.96765 17.469 8.05159C17.4733 8.09336 17.469 8.1452 17.4535 8.18426C17.4437 8.20863 17.4243 8.23184 17.3783 8.24731C17.2713 8.28097 16.6628 8.50338 16.5581 8.54593C16.4822 8.57803 16.4331 8.54167 16.4191 8.49332C16.4036 8.44652 16.4191 8.32506 16.4542 8.26936C16.4888 8.21327 16.5164 8.19587 16.5698 8.17924C16.6216 8.16183 17.1124 8.02993 17.2666 8.00595L17.2674 8.00633Z" fill="url(#paint24_linear_26_72962)"/>
<path d="M19.7346 13.8272C19.8089 13.6934 20.3014 12.6587 20.4193 12.3608C20.4956 12.1736 20.5817 11.9879 20.5817 11.7501C20.5817 11.5942 20.5388 11.3547 20.4314 11.1331C20.1605 10.5653 19.3029 9.48609 18.9599 9.0784C18.6699 8.7384 18.4079 8.68502 17.9135 8.6974C16.6534 8.73028 15.554 9.26097 14.937 9.51123C15.3769 9.36193 16.4451 8.92677 17.6371 8.85521C18.2919 8.81576 18.5547 8.87107 18.7941 9.13874C19.1421 9.51974 19.9534 10.6028 20.2422 11.1517C20.3563 11.3694 20.4073 11.564 20.3909 11.7311C20.3683 11.9829 20.2776 12.1682 20.206 12.3349C20.0803 12.6215 19.6166 13.558 19.536 13.6941C19.1978 14.2755 18.8746 14.2554 18.5297 14.1761C18.548 14.1862 18.7057 14.26 18.8501 14.3184C19.2515 14.4817 19.5061 14.255 19.7346 13.8272Z" fill="url(#paint25_linear_26_72962)"/>
<path d="M18.2135 18.353C18.1994 18.3464 18.1399 18.302 18.0597 18.2432C17.8697 18.4547 17.0199 19.5107 16.4266 20.4503C15.9797 21.1577 15.3343 22.2137 15.2335 22.4458C15.14 22.6601 15.1097 22.8531 15.1066 23.1053C15.1066 23.108 15.1432 24.2468 15.1432 24.2537C15.1432 24.3945 15.1221 24.5106 15.0462 24.5999C14.9688 24.6877 14.8527 24.7318 14.6908 24.7542C14.4253 24.7933 13.1722 24.9848 12.8288 25.0544C12.4948 25.126 12.3563 25.2784 12.2819 25.4985C12.2278 25.657 12.1659 25.9266 12.1663 26.0446C12.1663 26.0446 12.1624 26.1092 12.1663 26.1092C12.1569 26.2357 12.2029 26.228 12.2029 26.228C12.2029 26.228 13.6526 26.1177 14.516 26.1688C15.3795 26.2191 16.5703 26.3309 16.5703 26.3309C16.5703 26.3309 15.3168 26.0976 14.4639 26.0446C13.6109 25.9947 12.4808 26.0864 12.4699 26.0353C12.4637 25.9994 12.4415 25.9464 12.4505 25.8419C12.4649 25.775 12.482 25.6977 12.5053 25.6172C12.561 25.4068 12.6595 25.2207 12.9908 25.1445C13.3073 25.0648 14.5242 24.8649 14.7554 24.8084C14.9835 24.7511 15.1311 24.6668 15.163 24.4819C15.1712 24.4255 15.179 24.2978 15.1782 24.1802C15.1782 23.9373 15.135 23.2921 15.1365 23.2519C15.1447 22.8554 15.1618 22.6446 15.4227 22.2164C15.8271 21.5476 17.35 19.2473 18.108 18.4489C18.1555 18.3987 18.1776 18.3557 18.2621 18.3689C18.2454 18.3654 18.229 18.3608 18.2131 18.3522L18.2135 18.353Z" fill="url(#paint26_linear_26_72962)"/>
<path d="M0 31.5352V34.8938H0.930785V33.8606H1.76464C3.55263 33.8606 4.46317 33.2905 4.46317 32.6604C4.46317 31.9835 3.4849 31.5352 1.84522 31.5352H0ZM0.930785 33.4978V31.9104H1.66342C2.41981 31.9104 3.41755 32.0376 3.41755 32.6608C3.41755 33.0831 3.09405 33.4982 1.54197 33.4982H0.930785V33.4978Z" fill="#192753"/>
<path d="M9.77052 34.8938V34.4702H7.47607C6.98401 34.4702 6.84153 34.249 6.84153 33.8738V33.3821H9.53423V32.9605H6.84153V31.9568H9.65568V31.5352H5.91113V33.8939C5.91113 34.5252 6.1739 34.8938 7.03111 34.8938H9.77052Z" fill="#192753"/>
<path d="M15.7258 31.5351H14.7951V34.3696C14.5389 34.4578 14.1952 34.5378 13.6953 34.5378C12.9806 34.5378 12.2713 34.3568 12.2713 33.7329V31.5347H11.3413V33.7998C11.3413 34.725 12.2713 34.9993 13.2971 34.9993C14.3229 34.9993 15.0718 34.7978 15.7258 34.5243V31.5347V31.5351Z" fill="#192753"/>
<path d="M18.3142 33.2239C18.3142 32.2929 19.1111 31.8558 20.0816 31.8558C20.8773 31.8558 21.4916 32.084 22.0724 32.2793V31.7162C21.4577 31.5359 20.8769 31.4346 20.0816 31.4346C18.5244 31.4346 17.2554 32.1451 17.2554 33.2243C17.2554 34.3646 18.5241 35.0005 20.0816 35.0005C20.8586 35.0005 21.6738 34.8404 22.1744 34.7135V33.3829H21.2565V34.3785C20.919 34.4919 20.676 34.5797 20.1497 34.5797C19.0901 34.5797 18.3142 34.0571 18.3142 33.2247" fill="#192753"/>
<path d="M27.729 34.8938V34.4702H25.4346C24.9429 34.4702 24.8004 34.249 24.8004 33.8738V33.3821H27.4927V32.9605H24.8004V31.9568H27.6138V31.5352H23.8696V33.8939C23.8696 34.5252 24.132 34.8938 24.9892 34.8938H27.7286H27.729Z" fill="#192753"/>
<path d="M31.7671 31.4341C30.2088 31.4341 28.9351 32.1578 28.9351 33.2412C28.9351 34.3777 30.2088 35 31.7671 35C33.3254 35 34.5941 34.3777 34.5941 33.2412C34.5941 32.1048 33.3254 31.4341 31.7671 31.4341ZM31.7671 34.6252C30.7079 34.6252 29.9931 34.0825 29.9931 33.2412C29.9931 32.3187 30.7892 31.8557 31.7671 31.8557C32.745 31.8557 33.5353 32.3187 33.5353 33.2412C33.5353 34.0825 32.8194 34.6252 31.7671 34.6252Z" fill="#192753"/>
<path d="M35.3584 32.0175H37.2134V34.8938H38.1445V32.0175H39.9999V31.5352H35.3584V32.0175Z" fill="#192753"/>
</g>
<defs>
<linearGradient id="paint0_linear_26_72962" x1="27.9715" y1="9.68728" x2="22.0429" y2="18.8262" gradientUnits="userSpaceOnUse">
<stop offset="0.2" stop-color="#B5B3B3"/>
<stop offset="0.22" stop-color="#A19F9F"/>
<stop offset="0.25" stop-color="#787676"/>
<stop offset="0.28" stop-color="#575555"/>
<stop offset="0.31" stop-color="#403E3E"/>
<stop offset="0.34" stop-color="#323030"/>
<stop offset="0.37" stop-color="#2E2C2C"/>
<stop offset="0.45" stop-color="#333131"/>
<stop offset="0.55" stop-color="#444242"/>
<stop offset="0.67" stop-color="#605D5D"/>
<stop offset="0.81" stop-color="#898686"/>
<stop offset="1"/>
</linearGradient>
<linearGradient id="paint1_linear_26_72962" x1="11.1685" y1="16.2964" x2="12.2411" y2="13.8243" gradientUnits="userSpaceOnUse">
<stop offset="0.03" stop-color="#8C8888"/>
<stop offset="0.2" stop-color="#8C8888"/>
<stop offset="0.99" stop-color="#403E3D"/>
</linearGradient>
<linearGradient id="paint2_linear_26_72962" x1="25.9698" y1="10.3708" x2="24.6347" y2="10.2439" gradientUnits="userSpaceOnUse">
<stop offset="0.2" stop-color="#2E2C2C"/>
<stop offset="0.26" stop-color="#2F2D2D"/>
<stop offset="0.28" stop-color="#363434"/>
<stop offset="0.3" stop-color="#424040"/>
<stop offset="0.31" stop-color="#535151"/>
<stop offset="0.32" stop-color="#686767"/>
<stop offset="0.33" stop-color="#838282"/>
<stop offset="0.34" stop-color="#A3A2A2"/>
<stop offset="0.35" stop-color="#C9C8C8"/>
<stop offset="0.36" stop-color="white"/>
<stop offset="0.82" stop-color="#2E2C2C"/>
<stop offset="1" stop-color="#1A1A1A"/>
</linearGradient>
<linearGradient id="paint3_linear_26_72962" x1="13.9566" y1="17.599" x2="15.0434" y2="15.094" gradientUnits="userSpaceOnUse">
<stop stop-color="#B3B1B1"/>
<stop offset="0.14" stop-color="#9D9A9A"/>
<stop offset="0.26" stop-color="#908C8C"/>
<stop offset="0.37" stop-color="#8C8888"/>
<stop offset="0.99"/>
</linearGradient>
<linearGradient id="paint4_linear_26_72962" x1="24.6436" y1="29.3847" x2="5.1462" y2="9.42235" gradientUnits="userSpaceOnUse">
<stop offset="0.08" stop-color="#676464"/>
<stop offset="0.12" stop-color="#73706F"/>
<stop offset="0.17" stop-color="#53504F"/>
<stop offset="0.31" stop-color="#676464"/>
<stop offset="0.47" stop-color="#E6E5E5"/>
<stop offset="0.7" stop-color="#E6E5E5"/>
<stop offset="0.72" stop-color="#D7D5D5"/>
<stop offset="0.76" stop-color="#AFADAD"/>
<stop offset="0.82" stop-color="#706E6D"/>
<stop offset="0.84" stop-color="#575453"/>
<stop offset="0.96" stop-color="#2E2C2C"/>
</linearGradient>
<radialGradient id="paint5_radial_26_72962" cx="0" cy="0" r="1" gradientUnits="userSpaceOnUse" gradientTransform="translate(16.1515 12.135) scale(4.47563 4.44709)">
<stop offset="0.04" stop-color="white"/>
<stop offset="0.47" stop-color="white"/>
<stop offset="0.51" stop-color="#FAFAFA"/>
<stop offset="0.56" stop-color="#EEEEEE"/>
<stop offset="0.61" stop-color="#DAD9D9"/>
<stop offset="0.66" stop-color="#BEBDBC"/>
<stop offset="0.7" stop-color="#9A9897"/>
<stop offset="0.75" stop-color="#73706F"/>
<stop offset="0.85" stop-color="#53504F"/>
<stop offset="1" stop-color="#2E2C2C"/>
</radialGradient>
<radialGradient id="paint6_radial_26_72962" cx="0" cy="0" r="1" gradientUnits="userSpaceOnUse" gradientTransform="translate(17.1556 11.2216) scale(1.58012 1.50724)">
<stop offset="0.04" stop-color="white"/>
<stop offset="0.23" stop-color="white"/>
<stop offset="0.29" stop-color="#F5F5F5"/>
<stop offset="0.4" stop-color="#DCDCDC"/>
<stop offset="0.54" stop-color="#B2B2B2"/>
<stop offset="0.7" stop-color="#797979"/>
<stop offset="0.89" stop-color="#313131"/>
<stop offset="1"/>
</radialGradient>
<radialGradient id="paint7_radial_26_72962" cx="0" cy="0" r="1" gradientUnits="userSpaceOnUse" gradientTransform="translate(16.1678 8.77253) scale(1.85807 1.84622)">
<stop offset="0.23" stop-color="white"/>
<stop offset="0.5" stop-color="#EFEEED"/>
<stop offset="0.57" stop-color="#EAE9E8"/>
<stop offset="0.86"/>
</radialGradient>
<radialGradient id="paint8_radial_26_72962" cx="0" cy="0" r="1" gradientUnits="userSpaceOnUse" gradientTransform="translate(19.2822 12.3752) scale(6.26012 6.2202)">
<stop offset="0.04" stop-color="white"/>
<stop offset="0.25" stop-color="white"/>
<stop offset="0.27" stop-color="#FAFAFA"/>
<stop offset="0.29" stop-color="#EEEEEE"/>
<stop offset="0.3" stop-color="#DAD9D9"/>
<stop offset="0.32" stop-color="#BEBCBC"/>
<stop offset="0.34" stop-color="#999797"/>
<stop offset="0.35" stop-color="#7F7C7C"/>
<stop offset="0.41" stop-color="#53504F"/>
<stop offset="0.47" stop-color="#2E2C2C"/>
<stop offset="0.86" stop-color="#2E2C2C"/>
</radialGradient>
<linearGradient id="paint9_linear_26_72962" x1="14.9091" y1="15.9137" x2="11.8466" y2="16.6846" gradientUnits="userSpaceOnUse">
<stop stop-color="#E6E5E5"/>
<stop offset="0.11" stop-color="#C2C0C0"/>
<stop offset="0.26" stop-color="#999696"/>
<stop offset="0.27" stop-color="#A19E9E"/>
<stop offset="0.32" stop-color="#BAB8B8"/>
<stop offset="0.38" stop-color="#CDCCCC"/>
<stop offset="0.44" stop-color="#DBDADA"/>
<stop offset="0.52" stop-color="#E3E2E2"/>
<stop offset="0.65" stop-color="#E6E5E5"/>
<stop offset="0.9" stop-color="white"/>
</linearGradient>
<linearGradient id="paint10_linear_26_72962" x1="14.8304" y1="8.26317" x2="28.8148" y2="25.4106" gradientUnits="userSpaceOnUse">
<stop stop-color="white"/>
<stop offset="0.07" stop-color="#CBC9C9"/>
<stop offset="0.16" stop-color="white"/>
<stop offset="0.2" stop-color="white"/>
<stop offset="0.22" stop-color="#F3F2F2"/>
<stop offset="0.29" stop-color="#C6C4C4"/>
<stop offset="0.33" stop-color="#B8B7B7"/>
<stop offset="0.36" stop-color="#D2D1D1"/>
<stop offset="0.38" stop-color="#E6E5E5"/>
<stop offset="0.41" stop-color="#F4F3F3"/>
<stop offset="0.45" stop-color="#FCFCFC"/>
<stop offset="0.5" stop-color="white"/>
<stop offset="0.89" stop-color="white"/>
<stop offset="0.98" stop-color="#969393"/>
</linearGradient>
<linearGradient id="paint11_linear_26_72962" x1="11.196" y1="11.5568" x2="25.4557" y2="25.1876" gradientUnits="userSpaceOnUse">
<stop stop-color="#C5C2C2"/>
<stop offset="0.01" stop-color="#BEBBBB"/>
<stop offset="0.14" stop-color="#8B8888"/>
<stop offset="0.25" stop-color="#626060"/>
<stop offset="0.35" stop-color="#454343"/>
<stop offset="0.44" stop-color="#343232"/>
<stop offset="0.51" stop-color="#2E2C2C"/>
<stop offset="0.58" stop-color="#323030"/>
<stop offset="0.66" stop-color="#413F3F"/>
<stop offset="0.75" stop-color="#595757"/>
<stop offset="0.84" stop-color="#7A7878"/>
<stop offset="0.94" stop-color="#A5A2A2"/>
<stop offset="1" stop-color="#C5C2C2"/>
</linearGradient>
<linearGradient id="paint12_linear_26_72962" x1="18.1099" y1="18.109" x2="12.5691" y2="26.446" gradientUnits="userSpaceOnUse">
<stop stop-color="#A7A4A4"/>
<stop offset="0.1" stop-color="white"/>
<stop offset="0.35" stop-color="#DFDDDD"/>
<stop offset="0.47" stop-color="#F6F5F5"/>
<stop offset="0.54" stop-color="#F4F4F4"/>
<stop offset="0.58" stop-color="#B2B2B2"/>
<stop offset="0.61" stop-color="#7C7C7C"/>
<stop offset="0.65" stop-color="#515151"/>
<stop offset="0.67" stop-color="#333333"/>
<stop offset="0.7" stop-color="#202020"/>
<stop offset="0.71" stop-color="#1A1A1A"/>
<stop offset="0.72" stop-color="#373737"/>
<stop offset="0.74" stop-color="#6B6B6B"/>
<stop offset="0.76" stop-color="#989898"/>
<stop offset="0.77" stop-color="#BDBDBD"/>
<stop offset="0.79" stop-color="#DADADA"/>
<stop offset="0.81" stop-color="#EEEEEE"/>
<stop offset="0.82" stop-color="#FAFAFA"/>
<stop offset="0.84" stop-color="white"/>
<stop offset="0.85" stop-color="#FAFAFA"/>
<stop offset="0.86" stop-color="#ECECEC"/>
<stop offset="0.87" stop-color="#D6D6D6"/>
<stop offset="0.88" stop-color="#B7B7B6"/>
<stop offset="0.89" stop-color="#8F8E8E"/>
<stop offset="0.9" stop-color="#5E5E5D"/>
<stop offset="0.91" stop-color="#2F2E2D"/>
<stop offset="0.95" stop-color="#2F2E2D"/>
<stop offset="1" stop-color="#5D5A59"/>
</linearGradient>
<linearGradient id="paint13_linear_26_72962" x1="17.4861" y1="22.4342" x2="18.957" y2="23.3062" gradientUnits="userSpaceOnUse">
<stop offset="0.2" stop-color="white"/>
<stop offset="0.31" stop-color="#FCFCFC"/>
<stop offset="0.37" stop-color="#F4F4F4"/>
<stop offset="0.42" stop-color="#E6E6E6"/>
<stop offset="0.47" stop-color="#D3D1D1"/>
<stop offset="0.51" stop-color="#B9B8B8"/>
<stop offset="0.52" stop-color="#AFADAD"/>
<stop offset="0.84" stop-color="#2E2C2C"/>
<stop offset="0.96" stop-color="#1F1E1E"/>
<stop offset="1" stop-color="#1A1A1A"/>
</linearGradient>
<linearGradient id="paint14_linear_26_72962" x1="18.3138" y1="18.4635" x2="19.8542" y2="16.6072" gradientUnits="userSpaceOnUse">
<stop offset="0.02" stop-color="white"/>
<stop offset="0.18" stop-color="white"/>
<stop offset="0.21" stop-color="white"/>
<stop offset="0.28" stop-color="#F7F7F7"/>
<stop offset="0.38" stop-color="#E3E1E1"/>
<stop offset="0.5" stop-color="#C5C2C2"/>
<stop offset="0.62" stop-color="#ABA8A8"/>
<stop offset="0.83" stop-color="#827F7E"/>
<stop offset="0.95" stop-color="#73706F"/>
<stop offset="1" stop-color="#6C6969"/>
</linearGradient>
<linearGradient id="paint15_linear_26_72962" x1="21.7401" y1="8.15869" x2="23.7485" y2="10.2266" gradientUnits="userSpaceOnUse">
<stop/>
<stop offset="0.04" stop-color="#020202"/>
<stop offset="0.07" stop-color="#0A0A0A"/>
<stop offset="0.09" stop-color="#181818"/>
<stop offset="0.11" stop-color="#2C2C2C"/>
<stop offset="0.12" stop-color="#464545"/>
<stop offset="0.14" stop-color="#656565"/>
<stop offset="0.15" stop-color="#8B8A8A"/>
<stop offset="0.17" stop-color="#B5B5B5"/>
<stop offset="0.18" stop-color="#E1E0E0"/>
<stop offset="0.24" stop-color="#AFAEAE"/>
<stop offset="0.29" stop-color="#848383"/>
<stop offset="0.35" stop-color="#616060"/>
<stop offset="0.4" stop-color="#464545"/>
<stop offset="0.46" stop-color="#333232"/>
<stop offset="0.52" stop-color="#272626"/>
<stop offset="0.58" stop-color="#242323"/>
<stop offset="0.72" stop-color="#1C1C1C"/>
<stop offset="0.92" stop-color="#080808"/>
<stop offset="1"/>
</linearGradient>
<linearGradient id="paint16_linear_26_72962" x1="21.9823" y1="16.6981" x2="24.2741" y2="15.1839" gradientUnits="userSpaceOnUse">
<stop/>
<stop offset="0.04" stop-color="#020202"/>
<stop offset="0.07" stop-color="#0A0A0A"/>
<stop offset="0.09" stop-color="#181818"/>
<stop offset="0.11" stop-color="#2C2C2C"/>
<stop offset="0.12" stop-color="#464545"/>
<stop offset="0.14" stop-color="#656565"/>
<stop offset="0.15" stop-color="#8B8A8A"/>
<stop offset="0.17" stop-color="#B5B5B5"/>
<stop offset="0.18" stop-color="#E1E0E0"/>
<stop offset="0.24" stop-color="#AFAEAE"/>
<stop offset="0.29" stop-color="#848383"/>
<stop offset="0.35" stop-color="#616060"/>
<stop offset="0.4" stop-color="#464545"/>
<stop offset="0.46" stop-color="#333232"/>
<stop offset="0.52" stop-color="#272626"/>
<stop offset="0.58" stop-color="#242323"/>
<stop offset="0.72" stop-color="#1C1C1C"/>
<stop offset="0.92" stop-color="#080808"/>
<stop offset="1"/>
</linearGradient>
<linearGradient id="paint17_linear_26_72962" x1="23.8286" y1="9.40042" x2="26.8499" y2="9.40042" gradientUnits="userSpaceOnUse">
<stop stop-color="#403E3D"/>
<stop offset="0.29" stop-color="#B2B0B0"/>
<stop offset="0.34" stop-color="#898787"/>
<stop offset="0.39" stop-color="#696766"/>
<stop offset="0.45" stop-color="#52504F"/>
<stop offset="0.49" stop-color="#444241"/>
<stop offset="0.53" stop-color="#403E3D"/>
<stop offset="0.76" stop-color="#1A1A1A"/>
<stop offset="1"/>
</linearGradient>
<linearGradient id="paint18_linear_26_72962" x1="11.4979" y1="25.0111" x2="18.4646" y2="25.0111" gradientUnits="userSpaceOnUse">
<stop/>
<stop offset="0.05" stop-color="#020202"/>
<stop offset="0.09" stop-color="#0A0A0A"/>
<stop offset="0.11" stop-color="#181717"/>
<stop offset="0.13" stop-color="#2C2B2B"/>
<stop offset="0.15" stop-color="#464444"/>
<stop offset="0.17" stop-color="#656262"/>
<stop offset="0.18" stop-color="#757272"/>
<stop offset="0.23" stop-color="#615F5F"/>
<stop offset="0.31" stop-color="#464444"/>
<stop offset="0.4" stop-color="#333232"/>
<stop offset="0.49" stop-color="#272626"/>
<stop offset="0.58" stop-color="#242323"/>
<stop offset="0.72" stop-color="#1C1C1C"/>
<stop offset="0.92" stop-color="#080808"/>
<stop offset="1"/>
</linearGradient>
<linearGradient id="paint19_linear_26_72962" x1="20.3618" y1="22.3545" x2="23.4777" y2="22.3545" gradientUnits="userSpaceOnUse">
<stop/>
<stop offset="0.05" stop-color="#020202"/>
<stop offset="0.09" stop-color="#0A0A0A"/>
<stop offset="0.11" stop-color="#181717"/>
<stop offset="0.13" stop-color="#2C2B2B"/>
<stop offset="0.15" stop-color="#464444"/>
<stop offset="0.17" stop-color="#656262"/>
<stop offset="0.18" stop-color="#757272"/>
<stop offset="0.23" stop-color="#615F5F"/>
<stop offset="0.31" stop-color="#464444"/>
<stop offset="0.4" stop-color="#333232"/>
<stop offset="0.49" stop-color="#272626"/>
<stop offset="0.58" stop-color="#242323"/>
<stop offset="0.72" stop-color="#1C1C1C"/>
<stop offset="0.92" stop-color="#080808"/>
<stop offset="1"/>
</linearGradient>
<linearGradient id="paint20_linear_26_72962" x1="22.4482" y1="22.7705" x2="28.1711" y2="22.7705" gradientUnits="userSpaceOnUse">
<stop/>
<stop offset="0.05" stop-color="#020202"/>
<stop offset="0.09" stop-color="#0A0A0A"/>
<stop offset="0.11" stop-color="#181717"/>
<stop offset="0.13" stop-color="#2C2B2B"/>
<stop offset="0.15" stop-color="#464444"/>
<stop offset="0.17" stop-color="#656262"/>
<stop offset="0.18" stop-color="#757272"/>
<stop offset="0.23" stop-color="#615F5F"/>
<stop offset="0.31" stop-color="#464444"/>
<stop offset="0.4" stop-color="#333232"/>
<stop offset="0.49" stop-color="#272626"/>
<stop offset="0.58" stop-color="#242323"/>
<stop offset="0.72" stop-color="#1C1C1C"/>
<stop offset="0.92" stop-color="#080808"/>
<stop offset="1"/>
</linearGradient>
<linearGradient id="paint21_linear_26_72962" x1="11.1919" y1="17.2173" x2="17.1573" y2="17.2173" gradientUnits="userSpaceOnUse">
<stop stop-color="#53504F"/>
<stop offset="0.06" stop-color="#555251"/>
<stop offset="0.09" stop-color="#5D5A59"/>
<stop offset="0.12" stop-color="#6B6867"/>
<stop offset="0.14" stop-color="#7E7B7B"/>
<stop offset="0.16" stop-color="#979594"/>
<stop offset="0.18" stop-color="#B5B3B3"/>
<stop offset="0.28" stop-color="#8B8989"/>
<stop offset="0.39" stop-color="#615F5F"/>
<stop offset="0.51" stop-color="#3D3D3D"/>
<stop offset="0.63" stop-color="#222222"/>
<stop offset="0.75" stop-color="#0F0F0F"/>
<stop offset="0.87" stop-color="#030303"/>
<stop offset="1"/>
</linearGradient>
<linearGradient id="paint22_linear_26_72962" x1="11.3241" y1="13.6098" x2="13.4469" y2="13.6098" gradientUnits="userSpaceOnUse">
<stop stop-color="#242323"/>
<stop offset="0.05" stop-color="#262525"/>
<stop offset="0.08" stop-color="#2E2D2D"/>
<stop offset="0.1" stop-color="#3C3B3B"/>
<stop offset="0.12" stop-color="#504F4F"/>
<stop offset="0.14" stop-color="#6A6868"/>
<stop offset="0.16" stop-color="#898888"/>
<stop offset="0.18" stop-color="#B5B3B3"/>
<stop offset="0.28" stop-color="#8B8989"/>
<stop offset="0.39" stop-color="#615F5F"/>
<stop offset="0.51" stop-color="#3D3D3D"/>
<stop offset="0.63" stop-color="#222222"/>
<stop offset="0.75" stop-color="#0F0F0F"/>
<stop offset="0.87" stop-color="#030303"/>
<stop offset="1"/>
</linearGradient>
<linearGradient id="paint23_linear_26_72962" x1="9.50977" y1="16.6861" x2="10.9073" y2="16.6861" gradientUnits="userSpaceOnUse">
<stop stop-color="#53504F"/>
<stop offset="0.06" stop-color="#555251"/>
<stop offset="0.1" stop-color="#5D5A59"/>
<stop offset="0.13" stop-color="#6B6867"/>
<stop offset="0.16" stop-color="#7E7B7B"/>
<stop offset="0.18" stop-color="#999696"/>
<stop offset="0.25" stop-color="#848181"/>
<stop offset="0.4" stop-color="#615F5F"/>
<stop offset="0.54" stop-color="#464545"/>
<stop offset="0.69" stop-color="#333232"/>
<stop offset="0.84" stop-color="#272626"/>
<stop offset="1" stop-color="#242323"/>
</linearGradient>
<linearGradient id="paint24_linear_26_72962" x1="16.8578" y1="8.07944" x2="17.0096" y2="8.41553" gradientUnits="userSpaceOnUse">
<stop stop-color="white"/>
<stop offset="0.12" stop-color="#DCDADA"/>
<stop offset="0.91" stop-color="#373534"/>
</linearGradient>
<linearGradient id="paint25_linear_26_72962" x1="14.9366" y1="11.5334" x2="20.5813" y2="11.5334" gradientUnits="userSpaceOnUse">
<stop offset="0.69" stop-color="white"/>
<stop offset="0.72" stop-color="#F9F9F9"/>
<stop offset="0.75" stop-color="#EAEAEA"/>
<stop offset="0.79" stop-color="#D0D0D0"/>
<stop offset="0.84" stop-color="#ADADAD"/>
<stop offset="0.88" stop-color="#7F7F7F"/>
<stop offset="0.93" stop-color="#474747"/>
<stop offset="0.98"/>
</linearGradient>
<linearGradient id="paint26_linear_26_72962" x1="14.5662" y1="25.418" x2="16.6344" y2="18.0575" gradientUnits="userSpaceOnUse">
<stop stop-color="#D5D3D3"/>
<stop offset="0.07" stop-color="#373534"/>
<stop offset="0.23" stop-color="#555352"/>
<stop offset="0.35" stop-color="#676464"/>
<stop offset="0.49" stop-color="#7F7C7C"/>
<stop offset="0.6" stop-color="#918E8E"/>
<stop offset="0.71" stop-color="#787575"/>
<stop offset="0.87" stop-color="#565353"/>
<stop offset="0.96" stop-color="#494646"/>
<stop offset="1" stop-color="#8C8888"/>
</linearGradient>
<clipPath id="clip0_26_72962">
<rect width="40" height="28" fill="white" transform="translate(0 7)"/>
</clipPath>
</defs>
</svg>
