<svg width="48" height="48" viewBox="0 0 48 48" fill="none" xmlns="http://www.w3.org/2000/svg">
<g clip-path="url(#clip0_771_52029)">
<path d="M12.4475 9.71506C13.7004 9.43566 19.4085 9.00624 24.4363 9C29.5428 9.00624 35.3051 9.43566 36.5519 9.71506C37.1572 9.85008 39.0018 10.2625 39 12.4164C39.0019 15.1875 38.9301 29.1114 37.5154 31.0563C35.0648 34.4332 25.1477 38.7706 24.7209 38.9539C24.5867 39.0148 24.4276 39.0155 24.2791 38.9539C23.8492 38.7724 13.5495 34.4263 11.469 31.0243C10.1143 28.8093 10.005 12.5777 10.0001 12.4157C10.0038 10.2623 11.8485 9.84984 12.4476 9.71494L12.4475 9.71506ZM24.2784 37.9063C24.2784 37.9092 24.2784 37.9092 24.2784 37.9063Z" fill="black"/>
<path d="M12.4315 30.4368C14.1663 33.2675 22.9863 37.1611 24.4996 37.8103C25.981 37.1518 34.5215 33.2551 36.599 30.3892C37.5269 29.1166 37.872 18.6895 37.8789 12.4166C37.872 11.5107 37.4476 11.0793 36.2995 10.8277C35.2362 10.5847 29.623 10.1427 24.4367 10.144C19.3315 10.1428 13.7702 10.5847 12.7 10.8277C11.558 11.0795 11.1336 11.5107 11.1361 12.4166C11.1336 15.6516 11.4724 28.8642 12.4316 30.4368H12.4315Z" fill="white"/>
<path d="M24.0415 16.9133C23.8873 16.3778 22.7223 15.605 22.5407 15.7694C22.5476 15.5716 21.7001 14.7907 21.3875 14.9269C21.463 14.6902 20.301 13.9588 20.0289 14.164C19.9615 13.8671 18.2778 13.6429 17.9441 13.9254C17.7519 13.7088 16.2585 14.0729 16.2224 14.4503C15.9471 14.2086 14.4239 15.8283 14.4214 16.6431C14.4214 16.9614 15.8542 15.6763 16.7591 15.9595C18.2505 16.4165 20.1526 18.0161 21.7981 20.425C22.258 21.0798 23.4355 21.319 23.6938 20.2505C23.6938 20.2511 24.2018 17.4518 24.0415 16.9132V16.9133Z" fill="black"/>
<path d="M24.1675 31.8511C24.4072 31.4512 24.3329 30.9722 24.1363 30.7863C23.858 30.517 23.0611 30.7342 22.9987 30.4844C22.8414 29.9125 23.2457 29.7103 23.1721 28.9111C23.1522 28.6342 22.6273 26.6127 22.4932 26.4319C22.3821 26.2838 21.7113 26.0483 21.5298 25.9717C21.4193 25.8456 21.3413 25.6929 21.3401 25.4312C22.2112 25.1562 22.4464 25.9768 22.5719 25.9403C22.698 25.9139 22.5076 25.0469 22.3985 24.9553C22.2886 24.858 21.2603 24.6282 21.1504 24.4462C21.0225 24.2534 20.5482 22.409 21.1504 22.3807C21.0967 22.3882 21.1753 22.2557 21.1348 22.2689C19.8967 22.5565 19.0636 16.6232 16.0327 16.6439C13.0161 16.6709 13.1733 21.061 13.3475 21.2205C13.6932 21.5287 14.1925 21.4163 14.2161 21.6969C14.3658 24.382 16.7509 27.2554 17.4698 27.0049C17.9042 26.8518 17.5347 25.4876 17.3275 25.4631C17.5191 25.3764 17.3306 23.9721 17.1066 23.9375C17.2838 23.8139 17.1272 22.5193 16.9013 22.5074C17.0142 22.4058 17.0023 21.5193 17.2327 21.0773C17.4018 20.7396 18.1488 20.5575 18.1961 21.3793C17.7387 21.1614 17.7075 22.6462 17.896 22.9048C18.0837 23.1515 19.2919 23.7197 19.6651 24.033C19.6377 24.6664 20.2336 27.0972 20.6761 27.7997C21.1122 28.4872 21.5516 28.8977 21.7975 29.5318C22.054 30.1602 21.8929 31.2369 22.4608 31.7246C22.7147 31.9381 24.0645 32.0336 24.1674 31.8508L24.1675 31.8511Z" fill="black"/>
<path d="M13.8218 21.9038C13.6758 21.662 13.0967 21.566 12.8895 21.6815C12.6424 21.8208 12.4607 23.7513 12.716 23.811C12.4926 23.9264 12.7709 25.3911 13.048 25.3999C12.8284 25.4877 13.2833 26.9242 13.5535 26.8776C13.3937 27.098 14.1308 28.2656 14.3272 28.1972C14.3972 29.4026 17.9934 29.9758 17.913 28.9601C17.8736 28.4729 17.3357 29.1905 14.9113 25.4005C13.848 23.7179 14.0277 22.2659 13.8218 21.9036V21.9038ZM24.942 16.9298C25.1903 16.3723 26.2212 15.6308 26.3954 15.8016C26.3954 15.5976 27.2429 14.8166 27.5486 14.9591C27.48 14.7154 28.6426 13.9841 28.9227 14.1963C28.9814 13.893 30.665 13.6689 30.992 13.9577C31.1911 13.7348 32.6844 14.0989 32.7137 14.4819C32.9957 14.2339 34.519 15.8536 34.5146 16.6754C34.5215 16.9875 33.0887 15.7017 32.1926 15.9761C30.6925 16.4419 28.7904 18.0422 27.138 20.4416C26.6849 21.1065 25.533 21.345 25.274 20.2665C25.2734 20.2665 24.688 17.4772 24.942 16.9298Z" fill="black"/>
<path d="M24.8155 31.8674C24.5828 31.4456 24.6253 30.9816 24.8312 30.787C25.1002 30.5271 25.8815 30.76 25.9526 30.5171C26.1011 29.9383 25.6961 29.7362 25.7629 28.9438C25.7897 28.6601 26.3145 26.6391 26.4418 26.4646C26.5604 26.3095 27.2306 26.0741 27.4053 26.0039C27.5225 25.8714 27.5999 25.7182 27.6106 25.4476C26.73 25.1814 26.4948 26.0025 26.3625 25.9724C26.2439 25.9392 26.4336 25.0722 26.5359 24.9711C26.6532 24.8825 27.666 24.6377 27.7996 24.4783C27.9376 24.2925 28.3932 22.4348 27.7996 22.3972C27.8446 22.4141 27.766 22.281 27.8153 22.2855C29.0446 22.5824 29.8777 16.6485 32.9174 16.6761C35.9252 16.6962 35.768 21.0864 35.587 21.2527C35.2488 21.5547 34.749 21.4424 34.7339 21.7292C34.5761 24.408 32.1904 27.2814 31.464 27.0209C31.0365 26.8771 31.406 25.5136 31.6063 25.4796C31.4216 25.4031 31.6094 23.998 31.8272 23.9704C31.6569 23.8398 31.8141 22.5453 32.0332 22.524C31.9277 22.4317 31.9389 21.5446 31.7174 21.1096C31.5401 20.7649 30.7926 20.5828 30.7539 21.4115C31.202 21.1875 31.2339 22.6715 31.0379 22.9207C30.8569 23.1763 29.6488 23.7444 29.2694 24.0646C29.3037 24.6918 28.7077 27.1227 28.2741 27.815C27.8291 28.5119 27.3899 28.9232 27.1371 29.5477C26.8856 30.1913 26.7683 31.4512 26.4581 31.7406C26.1798 31.9955 24.9193 32.0626 24.8157 31.8674H24.8155ZM24.4673 33.091C25.4121 33.1085 26.2383 32.4337 26.0785 32.2485C25.7484 31.9044 25.1849 32.4142 24.5147 32.1216C23.8507 32.3985 23.3015 31.9057 22.8722 32.2328C22.6257 32.4111 23.5293 33.0778 24.4672 33.091H24.4673Z" fill="black"/>
<path d="M35.1297 21.9352C35.267 21.6866 35.8455 21.6546 36.062 21.7764C36.3004 21.9082 36.4819 23.7759 36.2355 23.8419C36.4501 23.9511 36.1718 25.4158 35.8878 25.4158C36.1138 25.5125 35.6588 26.9489 35.398 26.9093C35.549 27.1228 34.812 28.291 34.608 28.2283C34.5443 29.428 30.9487 30.0006 31.0223 28.9917C31.0685 28.4976 31.6064 29.2152 34.0232 25.4164C35.0946 23.7433 34.9144 22.2918 35.1296 21.9353L35.1297 21.9352Z" fill="black"/>
</g>
<defs>
<clipPath id="clip0_771_52029">
<rect width="29" height="30" fill="white" transform="matrix(-1 0 0 1 39 9)"/>
</clipPath>
</defs>
</svg>
