<svg width="48" height="48" viewBox="0 0 48 48" fill="none" xmlns="http://www.w3.org/2000/svg">
<g clip-path="url(#clip0_26_72928)">
<path d="M14.9854 10.8081C14.9854 9.80465 15.803 8.98657 16.807 8.98657H30.8392C31.8578 8.98657 32.6754 9.80465 32.6754 10.8081V37.2353C32.6754 38.2392 31.8578 39.0568 30.8392 39.0568H16.807C15.8031 39.0568 14.9854 38.2392 14.9854 37.2353V10.8081Z" fill="white"/>
<path d="M15.7417 13.9263V10.8082C15.7417 10.222 16.2211 9.74365 16.8074 9.74365H30.8396C31.4414 9.74365 31.9199 10.222 31.9199 10.8082V13.9263H15.7417Z" fill="#004990"/>
<path d="M31.9189 14.6831H15.7417V33.3619H31.9189V14.6831Z" fill="#004990"/>
<path d="M28.5083 12.3988C28.5701 12.491 28.7094 12.5993 28.8014 12.6454C29.0642 12.7846 29.2966 12.8306 29.5426 12.8306C29.9288 12.8306 30.1602 12.6605 30.1602 12.4141C30.1602 12.1199 29.8661 12.0738 29.4191 12.0131C28.8485 11.9356 28.5397 11.6728 28.5397 11.2101C28.5543 10.7468 28.9878 10.3909 29.62 10.3909C30.0513 10.3909 30.3455 10.4841 30.5308 10.5763V11.1788C30.469 11.0708 30.3297 10.9934 30.1916 10.9322C30.0052 10.8698 29.82 10.839 29.62 10.839C29.3112 10.839 29.1258 10.9625 29.1258 11.1179C29.1258 11.3792 29.3729 11.4105 29.9132 11.5189C30.4533 11.6267 30.7778 11.8587 30.7621 12.3365C30.7465 12.8919 30.314 13.2629 29.5426 13.2629C29.2023 13.2629 28.771 13.2007 28.5083 13.0624V12.3988Z" fill="white"/>
<path d="M18.922 11.287C18.922 11.5649 18.6907 11.6727 18.3358 11.6727H17.6877V10.885H18.3358C18.6907 10.885 18.922 10.9933 18.922 11.287ZM19.3229 12.5218C19.1847 12.2596 19.0769 12.0591 18.8759 11.9659C19.3083 11.8737 19.524 11.6267 19.524 11.2562C19.524 10.9013 19.369 10.6238 19.0769 10.5155C18.8917 10.438 18.6591 10.438 18.3043 10.438H16.8848C17.024 10.5302 17.1004 10.8081 17.1004 11.0557V12.6144C17.1004 12.8458 17.0239 13.1394 16.8848 13.2169H17.9023C17.7641 13.1394 17.6877 12.8458 17.6877 12.6144V12.1197H18.119C18.3358 12.1197 18.4592 12.1972 18.5514 12.3678C18.7052 12.6144 18.8143 12.9541 18.9995 13.2169H19.817C19.571 13.0473 19.4465 12.7845 19.3229 12.5218Z" fill="white"/>
<path d="M21.4847 13.2939C21.8699 13.2939 22.1955 13.1854 22.4416 12.9688C22.7357 12.7228 22.9356 12.3516 22.9356 11.8271C22.9356 11.3184 22.7357 10.9321 22.4416 10.6845C22.1955 10.484 21.8699 10.3757 21.4847 10.3757C21.0984 10.3757 20.7748 10.484 20.5268 10.6845C20.2347 10.9321 20.0337 11.3184 20.0337 11.8271C20.0337 12.3516 20.2347 12.7228 20.5268 12.9688C20.7748 13.1854 21.1141 13.2939 21.4847 13.2939ZM20.8984 12.5684C20.7289 12.414 20.6515 12.1674 20.6515 11.8271C20.6515 11.5026 20.7289 11.2562 20.8984 11.0865C21.0366 10.9472 21.2377 10.8552 21.4847 10.8552C21.7317 10.8552 21.9327 10.9472 22.0709 11.0865C22.2416 11.2561 22.3336 11.5026 22.3336 11.8271C22.3336 12.1675 22.2415 12.414 22.0709 12.5684C21.9326 12.7076 21.7317 12.7997 21.4847 12.7997C21.2377 12.7997 21.0366 12.7076 20.8984 12.5684Z" fill="white"/>
<path d="M25.4982 12.506C25.3432 12.7075 25.0198 12.7688 24.6649 12.7688H24.1246V11.0557C24.1246 10.8238 24.2011 10.5301 24.3246 10.438H23.3218C23.4598 10.5302 23.5384 10.8239 23.5384 11.0557V12.6144C23.5384 12.8619 23.4598 13.1237 23.3218 13.2169H25.4049L25.4982 12.506Z" fill="white"/>
<path d="M28.0138 12.506C27.8589 12.7075 27.5354 12.7845 27.1805 12.7688H26.6247V11.0557C26.6247 10.8238 26.7011 10.5301 26.8412 10.438H25.8374C25.9755 10.5302 26.054 10.8239 26.054 11.0557V12.6144C26.054 12.8619 25.9755 13.1394 25.8374 13.2315H27.905L28.0138 12.506Z" fill="white"/>
<path d="M33.6021 10.8082C33.6021 9.28021 32.3668 8.04541 30.8395 8.04541H16.8072C15.2788 8.04541 14.0435 9.28021 14.0435 10.8082V37.2354C14.0435 38.7649 15.2788 39.9991 16.8072 39.9991H30.8394C32.3667 39.9991 33.6021 38.7649 33.6021 37.2354V10.8082ZM14.9856 10.8082C14.9856 9.80469 15.8032 8.98661 16.8072 8.98661H30.8394C31.8581 8.98661 32.6756 9.80469 32.6756 10.8082V37.2354C32.6756 38.2392 31.8581 39.0568 30.8394 39.0568H16.8072C15.8033 39.0568 14.9856 38.2392 14.9856 37.2354V10.8082Z" fill="#004990"/>
<path d="M15.7417 34.1177V37.2352C15.7417 37.8235 16.2211 38.3009 16.8074 38.3009H30.8396C31.4414 38.3009 31.9199 37.8235 31.9199 37.2352V34.1177H15.7417Z" fill="#004990"/>
<path d="M22.6729 30.3824V26.2296C23.0739 26.2149 23.4602 26.1991 23.8465 26.1677C23.7072 25.8432 23.568 25.5197 23.3984 25.2109C23.167 25.2412 22.9211 25.2412 22.6729 25.257V24.3933C22.1326 24.5167 21.5465 24.6089 20.9445 24.6707V30.3824C20.9445 31.647 20.3572 31.9873 20.0024 32.2187H23.6141C23.276 31.9873 22.6729 31.647 22.6729 30.3824Z" fill="white"/>
<path d="M31.0708 32.2041C30.7778 31.9256 30.4061 31.4933 30.2219 30.6453C29.8826 29.0855 29.1718 26.8472 27.6748 25.1796C29.1415 24.3777 30.0365 23.111 30.0365 21.5533C30.0512 20.4409 29.4806 19.2684 28.462 18.5738C28.0297 18.2948 27.5208 18.0943 26.918 17.9707C27.1346 18.4341 27.2729 18.9282 27.3041 19.4228C27.9365 19.9159 28.2768 20.6728 28.2768 21.5834C28.2768 22.7413 27.6905 24.0992 25.6377 24.7942C25.8061 25.1177 25.9757 25.458 26.115 25.7815C26.2238 25.7512 26.3316 25.7207 26.4405 25.6893C27.3973 26.8011 28.1679 28.5453 28.3992 30.1658C28.5699 31.3393 28.1532 31.9256 27.8759 32.2041H31.0708Z" fill="white"/>
<path d="M19.5397 23.3895V16.9066H21.9936C22.8896 16.9218 23.5534 17.1071 24.078 17.4766C24.772 17.9706 25.1437 18.7581 25.1437 19.7002C25.1437 21.2893 24.0465 23.3119 19.5397 23.3895ZM27.474 30.3354C27.165 30.058 26.7956 29.6254 26.6249 28.7766C26.2856 27.2178 25.6061 25.0256 24.2485 23.4658C24.3092 23.4355 24.3563 23.4197 24.417 23.3894C25.9612 22.602 26.9033 21.2893 26.9033 19.684C26.918 18.5575 26.3465 17.3997 25.3288 16.705C24.5258 16.1649 23.4456 15.9492 22.071 15.9492H16.8691C17.224 16.1805 17.8103 16.5198 17.8103 17.7854V28.4992C17.8103 29.7795 17.224 30.1041 16.8691 30.3354H20.4809C20.1416 30.104 19.5397 29.7795 19.5397 28.4992V24.3462C20.8054 24.3462 21.9936 24.1914 22.9965 23.9296C23.9083 25.0257 24.5877 26.7237 24.8034 28.2825C24.9573 29.4571 24.5564 30.0581 24.2789 30.3355H27.474V30.3354Z" fill="white"/>
<path d="M22.673 22.464V18.8052H24.6181C24.4801 18.4032 24.2319 18.0791 23.8937 17.8315H20.0024C20.3573 18.0633 20.9445 18.3879 20.9445 19.6687V22.8952C21.5927 22.8031 22.1788 22.665 22.673 22.464Z" fill="white"/>
<path d="M26.208 36.2176C26.208 36.7411 26.5169 37.1431 27.0571 37.1431C27.4432 37.1431 27.7981 37.0352 27.9522 36.85L27.859 37.4529C27.7208 37.5137 27.4737 37.5911 27.0728 37.5911C26.2081 37.5911 25.606 37.0812 25.606 36.2176C25.606 35.7549 25.7914 35.399 26.0688 35.1676C26.3158 34.951 26.655 34.8274 27.0727 34.8274C27.4737 34.8274 27.7207 34.9048 27.8589 34.9822V35.5539C27.6903 35.3687 27.4432 35.2755 27.057 35.2755C26.5169 35.2755 26.208 35.6775 26.208 36.2176Z" fill="white"/>
<path d="M18.8287 35.6921C18.8287 35.9548 18.6131 36.0627 18.2739 36.0627H17.6563V35.3226H18.2739C18.6131 35.3226 18.8287 35.4146 18.8287 35.6921ZM19.2151 36.8657C19.0915 36.6186 18.9836 36.4176 18.7984 36.3412C19.2003 36.2637 19.4003 36.0166 19.416 35.6775C19.416 35.3226 19.262 35.0597 18.9836 34.9509C18.8141 34.8892 18.5826 34.8892 18.2424 34.8892H16.8994C17.0239 34.9666 17.1005 35.2294 17.1005 35.4753V36.9588C17.1005 37.1744 17.0239 37.4529 16.8994 37.545H17.8563C17.7338 37.4528 17.6563 37.1743 17.6563 36.9588V36.4793H18.0573C18.2739 36.4793 18.3964 36.5715 18.4906 36.7263C18.6288 36.9587 18.7367 37.2812 18.9062 37.5292L19.6944 37.545C19.4464 37.3608 19.3395 37.1274 19.2151 36.8657Z" fill="white"/>
<path d="M21.2692 37.6069C21.6387 37.6069 21.9475 37.499 22.1788 37.2979C22.4562 37.0666 22.6584 36.7107 22.6584 36.2176C22.6584 35.7236 22.4563 35.3687 22.1788 35.1205C21.9475 34.9361 21.6387 34.8274 21.2692 34.8274C20.9132 34.8274 20.6044 34.9361 20.3731 35.1205C20.0956 35.3687 19.8945 35.7236 19.8945 36.2176C19.8945 36.7107 20.0956 37.0667 20.3731 37.2979C20.6045 37.499 20.9133 37.6069 21.2692 37.6069ZM20.7122 36.9127C20.5584 36.7723 20.4809 36.541 20.4809 36.2176C20.4809 35.8931 20.5584 35.6627 20.7122 35.5068C20.8515 35.3688 21.0368 35.2912 21.2839 35.2912C21.5152 35.2912 21.7005 35.3687 21.8398 35.5068C21.9936 35.6628 22.0712 35.8931 22.0712 36.2176C22.0712 36.541 21.9937 36.7724 21.8398 36.9127C21.7005 37.0509 21.5152 37.1431 21.2839 37.1431C21.0368 37.1431 20.8515 37.0509 20.7122 36.9127Z" fill="white"/>
<path d="M24.7257 34.8892C24.7886 34.9363 24.8188 34.9823 24.8032 35.0431C24.8032 35.1058 24.7717 35.198 24.711 35.2912L24.1854 36.047L23.661 35.2755C23.5992 35.1833 23.5386 35.0913 23.5532 35.0128C23.5679 34.9667 23.5847 34.9206 23.6454 34.8892H22.5806C22.7649 34.9667 22.858 35.1058 22.9963 35.3069L23.862 36.5255V36.9589C23.862 37.1744 23.7845 37.453 23.661 37.5293H24.6178C24.4942 37.453 24.4168 37.1744 24.4168 36.9589V36.5255L25.205 35.4146C25.3286 35.2608 25.4983 34.9823 25.6835 34.8892H24.7257" fill="white"/>
<path d="M29.8514 37.1129H29.1719V36.3874H30.1917L30.2523 35.9854H29.1719V35.3229H29.7739C30.1141 35.3229 30.3916 35.3373 30.5308 35.4755V34.8894H28.416C28.5396 34.9824 28.6161 35.2609 28.6161 35.4755V36.959C28.6161 37.1893 28.5396 37.4531 28.416 37.5452H30.5465L30.6385 36.896C30.4837 37.0971 30.1917 37.1129 29.8514 37.1129Z" fill="white"/>
</g>
<defs>
<clipPath id="clip0_26_72928">
<rect width="19.6158" height="32" fill="white" transform="translate(14 8)"/>
</clipPath>
</defs>
</svg>
