<svg width="48" height="48" viewBox="0 0 48 48" fill="none" xmlns="http://www.w3.org/2000/svg">
<g clip-path="url(#clip0_26_72926)">
<path d="M39.963 25.1314C39.9372 24.5342 39.6641 23.5342 38.3499 23.4079C39.5198 23.2322 39.7517 22.4557 39.7568 21.8448C39.7671 21.2237 39.3858 20.1572 37.8397 20.1555C37.6181 20.1571 31.7688 20.1571 31.7636 20.1555V25.1365L29.6661 20.1555H25.868L24.0487 24.6673L22.1213 20.1538H18.2922L16.6431 24.3362C16.473 23.1639 15.365 22.5889 12.8552 22.6332C11.5925 22.6571 11.1648 22.4813 11.1648 21.9592C11.1648 21.4558 11.6235 21.2647 12.2677 21.2868C12.8964 21.3142 13.4221 21.4148 13.4272 22.2527H16.4111C16.4163 20.4063 14.2157 20.0565 12.4223 20.0412C10.6391 20.0326 8.39733 20.4063 8.34064 22.2271C8.28911 24.0393 9.71665 24.3635 11.7368 24.3362C13.5973 24.314 13.5664 24.8635 13.5767 25.0615C13.5715 25.0734 13.5767 25.0837 13.5767 25.099C13.5818 25.314 13.4633 25.7798 12.2677 25.7594C11.4019 25.7594 11.1339 25.3669 11.0617 25.099C11.0153 24.9505 11.0257 24.8396 11.0257 24.8447C10.4227 24.8396 8.04177 24.8396 8.03662 24.8447C8.04178 24.9232 8.04694 25.0085 8.05206 25.099C8.17574 26.1041 9.06731 27.2098 12.4584 27.1569C15.1743 27.1296 15.5144 26.5887 15.7876 26.3959L15.5866 26.9795H18.0655L18.5138 25.8993H21.8997L22.3532 26.9795H25.7082L26.1566 25.8993H29.5425L29.9908 26.9795H38.1335C39.4579 26.9811 39.9578 25.8481 39.963 25.1314C39.9578 25.1109 39.9578 25.1502 39.963 25.1314L39.963 25.1314ZM19.1786 24.3106L20.2042 21.8261L21.24 24.3106H19.1786ZM26.8214 24.309L27.8469 21.8279L28.8776 24.309H26.8214ZM34.2837 22.7613V21.7818H36.4225C36.7008 21.7802 36.9121 22.002 36.9121 22.2733C36.9121 22.5446 36.675 22.7613 36.407 22.7613H34.2837ZM34.2837 25.1998V24.234H36.5668C36.8348 24.234 37.0718 24.4473 37.0718 24.7169C37.0718 24.9848 36.8348 25.2015 36.5668 25.2015" fill="#0D254D"/>
</g>
<defs>
<clipPath id="clip0_26_72926">
<rect width="32" height="7.2" fill="white" transform="translate(8 20)"/>
</clipPath>
</defs>
</svg>
