<svg width="48" height="48" viewBox="0 0 48 48" fill="none" xmlns="http://www.w3.org/2000/svg">
<path fill-rule="evenodd" clip-rule="evenodd" d="M24.5006 34.9248C24.4713 34.9248 24.442 34.9221 24.4114 34.9221C25.5352 33.6399 28.3219 30.1448 28.6934 26.6204H38.3892L38.4291 26.6085C37.099 31.3551 31.3683 34.9235 24.4993 34.9235L24.5006 34.9248ZM10.5708 26.6218H22.301C25.2476 28.5138 24.4367 33.3324 24.0759 34.9195C17.4012 34.777 11.8796 31.2646 10.5708 26.6218ZM24.3408 14.0807C23.2863 15.1778 20.9496 17.9805 20.1521 21.9976H10.6906C12.2085 17.4866 17.7314 14.1326 24.3408 14.0807ZM24.7749 14.0807C31.3297 14.1712 36.7994 17.5119 38.3093 21.9976H26.2422C23.984 20.276 24.5219 15.6332 24.7749 14.0807ZM24.5006 12.2699C14.6797 12.2686 6.72021 17.7449 6.72021 24.5007C6.72021 31.2566 14.6797 36.7316 24.5006 36.7316C34.3215 36.7316 42.2784 31.2553 42.2784 24.5007C42.2784 17.7462 34.3175 12.2686 24.5006 12.2686V12.2699Z" fill="black"/>
<path fill-rule="evenodd" clip-rule="evenodd" d="M38.7847 25.1771C38.7847 25.4673 38.541 25.683 38.2414 25.683H37.9126V23.6166C37.9126 23.4875 37.8007 23.3796 37.6596 23.3796H33.4535V25.683H32.5614V22.8736H38.039C38.4598 22.8736 38.7847 23.2012 38.7847 23.6033L38.782 25.1771H38.7847ZM10.2354 25.1744L15.3176 25.1771C15.468 25.1771 15.5719 25.0865 15.5705 24.9574V24.5366H10.2407V23.6046C10.2407 23.1959 10.5869 22.875 11.0089 22.875H16.46V23.3809H11.3485C11.186 23.3809 11.1328 23.4781 11.1328 23.6046L11.1274 24.0307H16.4626V24.9574C16.4626 25.3688 16.1231 25.683 15.6957 25.683H10.7773C10.4777 25.683 10.2354 25.4647 10.2354 25.1744ZM18.0497 24.9401C18.0497 25.0679 18.1616 25.1758 18.3067 25.1758H23.3716V25.6817H17.9259C17.5012 25.6817 17.1576 25.3555 17.1576 24.9521V23.602C17.1576 23.1999 17.5012 22.8723 17.9259 22.8723H23.3716V23.3783H18.3067C18.1616 23.3783 18.0497 23.4888 18.0497 23.6153V24.9401ZM24.96 22.8723V25.6844H24.064V22.8723H24.96ZM31.8677 23.602V24.9521C31.8677 25.3555 31.5242 25.6817 31.1008 25.6817H26.4247C25.9999 25.6817 25.6564 25.3555 25.6564 24.9521V23.602C25.6564 23.1999 25.9999 22.8723 26.4247 22.8723H31.1008C31.5242 22.8723 31.8677 23.1999 31.8677 23.602ZM30.7186 23.3783H26.8041C26.659 23.3783 26.5458 23.4861 26.5458 23.6139V24.9388C26.5458 25.0679 26.659 25.1758 26.8041 25.1758H30.7186C30.8638 25.1758 30.9769 25.0679 30.9756 24.9401L30.9783 23.6139C30.9756 23.4861 30.8638 23.3783 30.7186 23.3783Z" fill="white"/>
</svg>
