<svg width="48" height="48" viewBox="0 0 48 48" fill="none" xmlns="http://www.w3.org/2000/svg">
<g clip-path="url(#clip0_26_72924)">
<path fill-rule="evenodd" clip-rule="evenodd" d="M23.6254 12.0088L24.3973 12L31.5149 17.1963L31.7597 17.9352L29.0389 26.34L28.3881 26.7577L19.5888 26.7748L18.9818 26.3203L16.2642 17.9142L16.5056 17.2026L23.6254 12.0088Z" fill="white"/>
<path fill-rule="evenodd" clip-rule="evenodd" d="M23.9775 21.3474C24.0219 21.3509 24.0674 21.3792 24.1121 21.434L28.4637 26.6019C28.5142 26.6788 28.4901 26.7649 28.3808 26.7747L19.575 26.7731C19.4398 26.7652 19.4109 26.6642 19.5033 26.5513L23.8488 21.4099C23.8895 21.3653 23.933 21.344 23.9775 21.3474ZM31.6167 17.8159C31.7053 17.7915 31.7796 17.8408 31.755 17.9482L29.0322 26.3391C28.9828 26.4654 28.8781 26.4618 28.7995 26.3388L25.2623 20.609C25.203 20.5037 25.2349 20.4167 25.3665 20.3656L31.6167 17.8159ZM16.2782 17.7896C16.3126 17.7652 16.3683 17.7639 16.4361 17.7903L22.659 20.3428C22.7689 20.393 22.7939 20.4821 22.7176 20.6011L19.157 26.345C19.0995 26.4168 19.0103 26.4207 18.9675 26.3194L16.2478 17.9273C16.2306 17.8615 16.2437 17.8141 16.2782 17.7896ZM23.7544 12.0181C23.7882 12.0434 23.8068 12.096 23.8025 12.1689L23.303 18.8876C23.2894 19.0081 23.2123 19.0595 23.0759 19.0233L16.5237 17.4052C16.4377 17.3727 16.4064 17.289 16.4894 17.2169L23.6144 12.0317C23.6714 11.995 23.7205 11.9929 23.7544 12.0181ZM24.269 12.0124C24.2988 11.9941 24.3398 11.9944 24.3869 12.0229L31.5099 17.2105C31.6147 17.2963 31.5788 17.3952 31.4377 17.432L24.9063 19.0321C24.7878 19.0562 24.7153 18.9987 24.7073 18.8575L24.2185 12.1138C24.2207 12.0677 24.2392 12.0308 24.269 12.0124Z" fill="#0069E5"/>
<path fill-rule="evenodd" clip-rule="evenodd" d="M36.5691 31.3589L35.7319 34.3287H37.427L36.5691 31.3589ZM35.1601 29.997H37.9272L40 36.8272H38.1417L37.7843 35.6496H35.3439L35.0172 36.8272H33.1181L35.1601 29.997ZM17.6591 29.997H20.5386L21.8354 34.2877H21.9068L23.132 29.997H26.0829V36.8272H24.2859L24.4187 31.5946H24.3676L22.6727 36.8272H21.1003L19.3643 31.5946H19.3031L19.4563 36.8272H17.6591V29.997ZM14.7236 29.997H16.5514V36.8272H14.7236V29.997ZM10.7416 29.9663C10.7926 29.9663 10.842 29.9663 10.8896 29.9663C11.2843 29.9663 11.6452 29.9885 11.9719 30.0328C12.2986 30.0772 12.5948 30.1404 12.8603 30.2223C13.1188 30.3116 13.3146 30.4987 13.4474 30.7837C13.5801 31.0687 13.6464 31.455 13.6464 31.9427C13.6464 31.9494 13.6464 31.9581 13.6464 31.9684C13.6464 31.9785 13.6464 31.9905 13.6464 32.0042C13.6464 32.0109 13.6464 32.0179 13.6464 32.0246C13.6464 32.0313 13.6464 32.0383 13.6464 32.045C13.6396 32.052 13.6363 32.0604 13.6363 32.0707C13.6363 32.0808 13.6363 32.0928 13.6363 32.1065C13.6363 32.1132 13.6363 32.1185 13.6363 32.1219C13.6363 32.1253 13.6363 32.1269 13.6363 32.1269V32.1373H11.9005C11.9005 31.9734 11.8835 31.8387 11.8494 31.7327C11.8153 31.627 11.7643 31.5501 11.6963 31.5023C11.6281 31.4615 11.5363 31.429 11.4205 31.405C11.3047 31.3812 11.1652 31.3692 11.0018 31.3692L10.818 31.3488C10.8113 31.3623 10.8046 31.3692 10.7976 31.3692C10.7909 31.3692 10.7841 31.3692 10.7772 31.3692C10.7704 31.3692 10.7637 31.3692 10.7568 31.3692C10.75 31.3692 10.7433 31.3692 10.7363 31.3692C10.6275 31.3692 10.5204 31.3776 10.4149 31.3947C10.3092 31.412 10.2088 31.4375 10.1136 31.4716C10.0183 31.499 9.94691 31.5569 9.8991 31.6457C9.85153 31.7344 9.82775 31.8504 9.82775 31.9938C9.82775 32.1032 9.83616 32.1952 9.85321 32.2704C9.87027 32.3456 9.8991 32.4102 9.93994 32.465C9.98078 32.5125 10.0387 32.5517 10.1136 32.5824C10.1883 32.6129 10.2804 32.6317 10.3892 32.6384C10.4437 32.6454 10.4966 32.6504 10.5475 32.6538C10.5987 32.6574 10.6513 32.6591 10.7058 32.6591C10.7604 32.6658 10.8147 32.6708 10.8692 32.6742C10.9237 32.6776 10.978 32.6793 11.0326 32.6793C11.0393 32.6793 11.0462 32.6793 11.053 32.6793C11.0597 32.6793 11.0667 32.6793 11.0734 32.6793C11.0801 32.6793 11.0888 32.6793 11.0989 32.6793C11.1092 32.6793 11.1176 32.6793 11.1243 32.6793C11.4647 32.6929 11.7915 32.7254 12.1047 32.7766C12.4178 32.8275 12.714 32.8974 12.9929 32.9858C13.2721 33.0742 13.483 33.2582 13.6259 33.5374C13.7689 33.8166 13.8405 34.1877 13.8405 34.6507C13.8405 34.6778 13.8405 34.7035 13.8405 34.7273C13.8405 34.7511 13.8405 34.7732 13.8405 34.7936C13.8405 34.8208 13.8405 34.8465 13.8405 34.8702C13.8405 34.894 13.8405 34.9195 13.8405 34.9469C13.8405 34.974 13.8405 34.9997 13.8405 35.0235C13.8405 35.0473 13.8371 35.0694 13.8302 35.0898C13.8302 35.117 13.8285 35.1424 13.8251 35.1665C13.8217 35.1902 13.8201 35.2157 13.8201 35.2431C13.8133 35.3519 13.7996 35.4576 13.7792 35.5597C13.7588 35.6618 13.7317 35.7639 13.6975 35.866C13.6704 35.9681 13.6276 36.0618 13.57 36.1469C13.5121 36.2322 13.4422 36.3086 13.3605 36.3768C13.2517 36.4654 13.1359 36.5423 13.0133 36.6072C12.8908 36.672 12.7616 36.7215 12.6253 36.7557C12.4894 36.783 12.3515 36.8051 12.2119 36.8222C12.0723 36.8393 11.9311 36.8513 11.7881 36.858C11.7677 36.858 11.7473 36.858 11.7268 36.858C11.7064 36.858 11.686 36.8614 11.6656 36.8683C11.6452 36.8683 11.6247 36.8683 11.6043 36.8683C11.5839 36.8683 11.5635 36.8683 11.5431 36.8683C11.5226 36.8683 11.5022 36.8683 11.4818 36.8683C11.4614 36.8683 11.4443 36.8683 11.4309 36.8683C11.4105 36.8683 11.39 36.8683 11.3696 36.8683C11.3492 36.8683 11.3288 36.8683 11.3083 36.8683H10.8589C10.3892 36.8683 9.97574 36.8443 9.61826 36.7965C9.26102 36.7487 8.96312 36.6737 8.72505 36.5714C8.48 36.469 8.2979 36.2562 8.17874 35.9328C8.05958 35.6092 8 35.1782 8 34.6401L9.73574 34.6197C9.73574 34.7559 9.74607 34.875 9.76649 34.9774C9.78691 35.0795 9.82078 35.1681 9.86859 35.2429C9.90943 35.3111 9.97742 35.3639 10.0728 35.4014C10.1679 35.4389 10.2871 35.4574 10.43 35.4574L11.2163 35.4372C11.23 35.4439 11.2452 35.4475 11.2622 35.4475C11.2793 35.4475 11.2947 35.4475 11.3083 35.4475C11.4035 35.4475 11.4921 35.4389 11.5738 35.4218C11.6555 35.4048 11.7302 35.3827 11.7984 35.3555C11.8801 35.3212 11.9414 35.2549 11.9822 35.1561C12.0231 35.0574 12.0435 34.9332 12.0435 34.7833C12.0435 34.6401 12.0247 34.5243 11.9873 34.4359C11.9498 34.3472 11.8936 34.2893 11.8189 34.2622C11.7506 34.2281 11.6673 34.2026 11.5685 34.1856C11.4698 34.1685 11.3626 34.1565 11.2468 34.1495C11.2401 34.1495 11.2334 34.1495 11.2264 34.1495C11.2197 34.1495 11.213 34.1495 11.206 34.1495C11.1993 34.1495 11.1942 34.1495 11.1909 34.1495C11.1875 34.1495 11.1822 34.1495 11.1755 34.1495C11.1142 34.1495 11.0563 34.1478 11.0018 34.1445C10.9475 34.1411 10.893 34.1361 10.8384 34.1293C10.7909 34.1293 10.7416 34.1277 10.6905 34.1241C10.6395 34.1207 10.5867 34.1157 10.5321 34.1089C10.1374 34.0883 9.78523 34.0474 9.47532 33.9862C9.16565 33.9249 8.8985 33.8432 8.67388 33.7409C8.44925 33.6388 8.28252 33.436 8.17369 33.1331C8.06462 32.8299 8.01009 32.4296 8.01009 31.9323C8.01009 31.6304 8.04252 31.3661 8.10715 31.1398C8.17177 30.9132 8.26883 30.721 8.39832 30.5631C8.52757 30.4052 8.69934 30.2817 8.91387 30.1925C9.12817 30.1032 9.38859 30.0449 9.6949 30.0175C9.79027 30.0106 9.88733 30.0055 9.98607 30.0021C10.0846 29.9987 10.185 29.9936 10.2871 29.9868C10.3416 29.9868 10.3928 29.9851 10.4404 29.9816C10.4879 29.9782 10.5391 29.9765 10.5934 29.9765C10.6412 29.9697 10.6905 29.9663 10.7416 29.9663ZM30.6318 29.9458C30.6523 29.9594 30.6744 29.9663 30.6981 29.9663C30.7219 29.9663 30.7474 29.9663 30.7748 29.9663C30.8019 29.9663 30.8274 29.9663 30.8514 29.9663C30.8752 29.9663 30.9007 29.9663 30.9278 29.9663C31.1049 29.9731 31.2802 29.9902 31.4537 30.0175C31.6274 30.0448 31.7958 30.0857 31.9592 30.1404C32.1225 30.1878 32.2688 30.2676 32.3983 30.3796C32.5276 30.4916 32.6398 30.629 32.7351 30.7919C32.7827 30.8734 32.8219 30.9582 32.8526 31.0466C32.8831 31.1347 32.9088 31.2263 32.9292 31.3214C32.936 31.3687 32.9427 31.4163 32.9497 31.4639C32.9564 31.5114 32.9631 31.5554 32.9701 31.596C32.9768 31.6436 32.9819 31.6911 32.9852 31.7387C32.9888 31.7863 32.9905 31.8339 32.9905 31.8812C32.9905 31.9086 32.9905 31.936 32.9905 31.9631C32.9905 31.9905 32.9905 32.0179 32.9905 32.045C32.9905 32.0587 32.9905 32.0724 32.9905 32.0861C32.9905 32.0998 32.9939 32.1132 33.0006 32.1269C33.0006 32.1406 33.0006 32.1526 33.0006 32.1627C33.0006 32.1731 33.0006 32.1851 33.0006 32.1988C33.0006 32.2055 33.0006 32.2122 33.0006 32.2192C33.0006 32.2259 33.0006 32.2329 33.0006 32.2396C33.0006 32.2463 33.0006 32.2516 33.0006 32.255C33.0006 32.2584 33.0006 32.26 33.0006 32.26C33.0006 32.267 33.0006 32.272 33.0006 32.2754C33.0006 32.2788 33.0006 32.2841 33.0006 32.2908C33.0006 32.2978 33.0006 32.3028 33.0006 32.3062C33.0006 32.3095 33.0006 32.3148 33.0006 32.3215V32.4342H31.1628C31.1628 32.2704 31.1457 32.1303 31.1116 32.0143C31.0777 31.8982 31.0299 31.8062 30.9687 31.7378C30.9007 31.6695 30.807 31.6184 30.688 31.5842C30.5689 31.5501 30.4207 31.5331 30.2438 31.5331L29.9375 31.5126C29.9306 31.5194 29.9205 31.5244 29.9068 31.528C29.8931 31.5314 29.883 31.5331 29.8763 31.5331C29.8626 31.5331 29.8506 31.5331 29.8405 31.5331C29.8302 31.5331 29.8184 31.5331 29.8047 31.5331C29.791 31.5331 29.7775 31.5331 29.7638 31.5331C29.7501 31.5331 29.7401 31.5331 29.7333 31.5331C29.7196 31.5398 29.7076 31.5434 29.6975 31.5434C29.6872 31.5434 29.6754 31.5434 29.6617 31.5434C29.6072 31.5501 29.5546 31.5585 29.5034 31.5689C29.4525 31.5792 29.3996 31.591 29.3453 31.6047C29.2975 31.6253 29.2533 31.6491 29.2125 31.6765C29.1717 31.7036 29.1342 31.7378 29.1003 31.7788C29.0662 31.8197 29.0371 31.8608 29.0133 31.9016C28.9895 31.9427 28.9708 31.9871 28.9574 32.0349C28.9504 32.0825 28.942 32.1303 28.9317 32.1781C28.9216 32.2259 28.9165 32.2737 28.9165 32.3215C28.9165 32.3283 28.9165 32.3352 28.9165 32.342C28.9165 32.3489 28.9165 32.3557 28.9165 32.3626C28.9095 32.3693 28.9062 32.3761 28.9062 32.383C28.9062 32.3898 28.9062 32.3967 28.9062 32.4035C28.9062 32.4102 28.9062 32.4172 28.9062 32.4239C28.9062 32.4308 28.9062 32.4342 28.9062 32.4342C28.9062 32.4409 28.9062 32.4479 28.9062 32.4546C28.9062 32.4616 28.9062 32.4683 28.9062 32.4751C28.9062 32.5027 28.9045 32.5284 28.9011 32.5524C28.8978 32.5764 28.8959 32.5988 28.8959 32.6194C28.8891 32.6468 28.8858 32.6725 28.8858 32.6966C28.8858 32.7203 28.8858 32.746 28.8858 32.7737C28.8858 32.8011 28.8858 32.8268 28.8858 32.8508C28.8858 32.8748 28.8858 32.8972 28.8858 32.9178C28.879 32.9452 28.8757 32.9709 28.8757 32.9949C28.8757 33.019 28.8757 33.0411 28.8757 33.0617C28.8757 33.1098 28.8757 33.1595 28.8757 33.2111C28.8757 33.2626 28.8757 33.3157 28.8757 33.3707C28.8757 33.4185 28.8757 33.4665 28.8757 33.5146C28.8757 33.5626 28.8757 33.6107 28.8757 33.6587C28.8757 33.6724 28.8757 33.688 28.8757 33.7051C28.8757 33.7221 28.8757 33.7375 28.8757 33.7514C28.8757 33.7651 28.8757 33.7788 28.8757 33.7925C28.8757 33.8062 28.8757 33.8199 28.8757 33.8336C28.8757 33.8543 28.8757 33.8713 28.8757 33.885C28.8757 33.899 28.8757 33.9126 28.8757 33.9263C28.8757 33.94 28.8757 33.9554 28.8757 33.9727C28.8757 33.9898 28.8757 34.0051 28.8757 34.0188C28.8757 34.2728 28.8942 34.4837 28.9317 34.6519C28.9691 34.82 29.022 34.9519 29.09 35.048C29.1649 35.1374 29.2805 35.2059 29.4371 35.2539C29.5938 35.302 29.798 35.326 30.0497 35.326C30.2268 35.326 30.3851 35.314 30.5247 35.2899C30.664 35.2659 30.7849 35.2299 30.887 35.1821C30.9891 35.1271 31.0674 35.0377 31.1219 34.9142C31.1765 34.7907 31.2036 34.6295 31.2036 34.4306C31.2036 34.4236 31.2036 34.4169 31.2036 34.4099C31.2036 34.4032 31.2036 34.3963 31.2036 34.3895C31.2036 34.3826 31.2036 34.3756 31.2036 34.3689C31.2036 34.3619 31.2036 34.3552 31.2036 34.3484C31.1969 34.3415 31.1933 34.3345 31.1933 34.3278C31.1933 34.3208 31.1933 34.3141 31.1933 34.3071C31.1933 34.3002 31.1933 34.2934 31.1933 34.2865C31.1933 34.2797 31.1933 34.2728 31.1933 34.266V34.2454H33.0006V34.4513C33.0006 34.6708 32.9922 34.8801 32.9751 35.079C32.9581 35.2779 32.9326 35.4701 32.8985 35.6554C32.8644 35.8406 32.7863 36.0104 32.6638 36.1649C32.5413 36.3191 32.3779 36.4546 32.1737 36.5714C32.0646 36.6396 31.9524 36.6941 31.8366 36.7352C31.7208 36.7761 31.6017 36.8068 31.4792 36.8272C31.4179 36.8342 31.3566 36.8409 31.2954 36.8477C31.2341 36.8546 31.1729 36.8614 31.1116 36.8683C31.0436 36.8683 30.979 36.8717 30.9177 36.8784C30.8565 36.8854 30.7952 36.8887 30.7339 36.8887C30.7202 36.8887 30.7049 36.8887 30.688 36.8887C30.671 36.8887 30.6556 36.8887 30.6419 36.8887C30.6285 36.8887 30.6131 36.8887 30.596 36.8887C30.579 36.8887 30.5636 36.8887 30.5501 36.8887C30.4819 36.8887 30.4156 36.8887 30.351 36.8887C30.2864 36.8887 30.2234 36.8887 30.1622 36.8887C30.128 36.8887 30.0956 36.8887 30.0651 36.8887C30.0344 36.8887 30.0022 36.8887 29.968 36.8887C29.9409 36.882 29.9118 36.8784 29.8813 36.8784C29.8506 36.8784 29.8184 36.8784 29.7843 36.8784C29.7502 36.8784 29.7163 36.8784 29.6822 36.8784C29.648 36.8784 29.6175 36.8784 29.5904 36.8784C29.5563 36.8717 29.5238 36.8683 29.4933 36.8683C29.4626 36.8683 29.4304 36.8683 29.3963 36.8683C29.3283 36.8683 29.2617 36.8683 29.1971 36.8683C29.1325 36.8683 29.0695 36.8683 29.0083 36.8683C28.559 36.8272 28.1965 36.723 27.921 36.5555C27.6452 36.3881 27.4563 36.1606 27.3542 35.8735C27.2452 35.5864 27.1635 35.2736 27.1092 34.9351C27.0547 34.5966 27.0241 34.2394 27.0172 33.8634L27.0071 32.9611C27.0071 32.3799 27.0631 31.8927 27.1755 31.4994C27.2877 31.1064 27.4563 30.8039 27.681 30.5919C27.9056 30.3868 28.2169 30.2312 28.6153 30.1252C29.0133 30.0193 29.4984 29.9663 30.0701 29.9663L30.6318 29.9458Z" fill="#0069E5"/>
</g>
<defs>
<clipPath id="clip0_26_72924">
<rect width="32" height="24.8889" fill="white" transform="translate(8 12)"/>
</clipPath>
</defs>
</svg>
