<svg width="48" height="48" viewBox="0 0 48 48" fill="none" xmlns="http://www.w3.org/2000/svg">
<g clip-path="url(#clip0_26_72979)">
<path fill-rule="evenodd" clip-rule="evenodd" d="M12.9604 31.7615C12.8982 31.1845 11.3378 30.4821 11.3378 30.4821C10.9321 30.2327 11.1036 29.9211 11.1036 29.9211C11.3534 29.3743 12.664 29.8897 12.664 29.8897L12.9131 29.2971C12.2187 28.7736 11.3322 28.883 11.3322 28.883C10.2425 29.0076 10.0798 29.7438 10.0798 29.7438C9.83127 30.8717 10.7015 31.1393 10.7015 31.1393C11.4949 31.5122 11.7339 31.6654 11.7339 31.6654C12.3842 32.0858 11.8103 32.3633 11.8103 32.3633C11.1031 32.6974 10.2138 32.2387 10.2138 32.2387L9.93652 32.8888C10.673 33.3856 11.8103 33.1758 11.8103 33.1758C13.2541 32.9651 12.9604 31.7615 12.9604 31.7615Z" fill="#1A3B73"/>
<path fill-rule="evenodd" clip-rule="evenodd" d="M15.2874 31.9919C15.2372 31.5246 13.974 30.9567 13.974 30.9567C13.6453 30.7543 13.7846 30.5018 13.7846 30.5018C13.9868 30.0599 15.0478 30.4764 15.0478 30.4764L15.2495 29.9966C14.6874 29.5733 13.9699 29.6614 13.9699 29.6614C13.088 29.7622 12.9564 30.3585 12.9564 30.3585C12.755 31.2714 13.4591 31.4884 13.4591 31.4884C14.1014 31.79 14.2949 31.9139 14.2949 31.9139C14.8209 32.2544 14.3567 32.4783 14.3567 32.4783C13.7844 32.7496 13.0643 32.3781 13.0643 32.3781L12.8403 32.9045C13.4363 33.3069 14.3567 33.1366 14.3567 33.1366C15.5253 32.9661 15.2874 31.9919 15.2874 31.9919Z" fill="#1A3B73"/>
<path fill-rule="evenodd" clip-rule="evenodd" d="M16.3434 29.742L15.0967 33.0887L15.8149 33.1016L16.1397 32.3704H17.644L17.9692 33.0344H18.6598L17.3594 29.742H16.3434ZM16.3836 31.7742L16.8579 30.6088L17.3727 31.7742H16.3836ZM20.9767 31.9505L19.5815 29.7693H18.6598V33.0344L19.3375 33.0477V30.9073L20.8276 33.1428H21.6813V29.7822H20.9767V31.9505ZM24.7156 31.2458H23.5776V31.7608H24.3502V32.5463C23.8217 32.7495 23.2665 32.533 23.2665 32.533C22.1688 31.8019 22.765 30.8937 22.765 30.8937C23.4427 29.8367 25.0548 30.4874 25.0548 30.4874V29.8777C23.0899 29.2407 22.2498 30.311 22.2498 30.311C21.1394 31.8419 22.5208 32.845 22.5208 32.845C23.8759 33.6848 25.1768 32.9529 25.1768 32.9529V31.747C25.1496 31.1922 24.7156 31.2458 24.7156 31.2458ZM37.6027 31.2458H36.4649V31.7608H37.2365V32.5463C36.7079 32.7495 36.1526 32.533 36.1526 32.533C35.0551 31.8019 35.6512 30.8937 35.6512 30.8937C36.3289 29.8367 37.9411 30.4874 37.9411 30.4874V29.8777C35.9765 29.2407 35.1366 30.311 35.1366 30.311C34.0255 31.8419 35.407 32.845 35.407 32.845C36.7624 33.6848 38.0629 32.9529 38.0629 32.9529V31.747C38.0364 31.1922 37.6027 31.2458 37.6027 31.2458Z" fill="#1A3B73"/>
<path fill-rule="evenodd" clip-rule="evenodd" d="M27.7642 29.0237L26.7208 30.758L25.6779 29.065H24.7705L26.328 31.5984L25.4611 33.224H26.2872L28.6857 29.0237H27.7642ZM29.5254 29.6957C28.5423 29.6957 27.7453 30.4932 27.7453 31.4765C27.7453 32.4598 28.5423 33.257 29.5254 33.257C30.5089 33.257 31.3068 32.4598 31.3068 31.4765C31.3068 30.4932 30.5089 29.6957 29.5254 29.6957ZM29.5254 32.5601C28.927 32.5601 28.4422 32.0748 28.4422 31.4763C28.4422 31.189 28.5564 30.9133 28.7596 30.7101C28.9628 30.5069 29.2384 30.3928 29.5258 30.3928C29.8131 30.3928 30.0888 30.5069 30.292 30.7101C30.4952 30.9133 30.6093 31.189 30.6093 31.4763C30.6093 31.7638 30.4951 32.0394 30.2918 32.2427C30.0885 32.4459 29.8129 32.5601 29.5254 32.5601ZM33.8881 31.9098L32.4926 29.7556H31.5442V33.1016L32.2627 33.0887V30.9209L33.739 33.1287H34.6058V29.742H33.8881V31.9098ZM33.0672 18.6776C32.5484 16.7619 30.0695 15.7964 30.0695 15.7964C29.4081 15.5544 29.6722 15.9345 29.6722 15.9345C29.6722 15.9345 32.5246 17.2475 32.5246 19.0752C32.5246 21.3388 29.4164 22.0158 29.4164 22.0158C32.2434 21.1163 32.2515 19.1969 32.2515 19.1969C32.2019 17.2777 29.6722 15.9345 29.6722 15.9345C28.6969 15.3812 28.1678 15.2428 28.1678 15.2428C26.8948 14.8163 27.3078 15.312 27.3078 15.312C27.3078 15.312 31.1482 16.5221 31.1482 19.1915C31.1482 21.9181 25.7953 22.794 25.7953 22.794C30.8288 21.86 30.8298 19.2141 30.8298 19.2141C30.8298 16.8308 27.3078 15.312 27.3078 15.312C26.7789 15.0239 25.8818 14.7919 25.8818 14.7919C25.0507 14.6147 25.5222 14.9778 25.5222 14.9778C28.8952 16.949 28.8952 19.1278 28.8952 19.1278C28.8952 21.5489 26.6755 22.1539 26.6755 22.1539C26.0305 22.4047 24.7826 22.6054 24.7826 22.6054C24.5806 22.6652 24.4393 22.8041 24.4393 22.967C24.4393 23.0327 24.4552 23.0978 24.5032 23.1495C24.6251 23.2796 25.0353 23.5847 25.0353 23.5847C25.1822 23.723 25.268 23.8942 25.268 24.0795C25.268 24.534 24.7454 24.9029 24.0961 24.9114H24.0483C23.3992 24.9029 22.8761 24.5342 22.8761 24.0795C22.8761 23.8942 22.9624 23.723 23.109 23.5847C23.109 23.5847 23.5191 23.2796 23.6409 23.1495C23.6889 23.0978 23.7054 23.0329 23.7054 22.967C23.7054 22.8041 23.5637 22.6652 23.3619 22.6054C23.3619 22.6054 22.1138 22.4049 21.4688 22.1539C21.4688 22.1539 19.2491 21.5491 19.2491 19.1278C19.2491 19.1278 19.2491 16.9489 22.6221 14.9778C22.6221 14.9778 23.0934 14.6147 22.2625 14.7919C22.2625 14.7919 21.3654 15.0239 20.8365 15.312C20.8365 15.312 17.3147 16.8307 17.3147 19.2141C17.3147 19.2141 17.3153 21.86 22.3494 22.794C22.3494 22.794 16.9963 21.9183 16.9963 19.1915C16.9963 16.5221 20.8365 15.312 20.8365 15.312C20.8365 15.312 21.2495 14.8163 19.9765 15.2428C19.9765 15.2428 19.4474 15.381 18.472 15.9345C18.472 15.9345 15.9421 17.2777 15.8926 19.1969C15.8926 19.1969 15.9007 21.1163 18.7281 22.0158C18.7281 22.0158 15.6197 21.3386 15.6197 19.0752C15.6197 17.2475 18.472 15.9345 18.472 15.9345C18.472 15.9345 18.7364 15.5542 18.0752 15.7964C18.0752 15.7964 15.5958 16.7621 15.0773 18.6776C15.0773 18.6776 14.9201 19.3992 15.1502 19.9263C15.4291 20.5718 16.1564 21.6409 18.0088 22.24C18.0088 22.24 18.8521 22.5863 22.2253 23.2607L22.4241 23.306C22.4241 23.306 22.5692 23.3696 22.4652 23.4841L22.0006 23.8836C22.0006 23.8836 21.3191 24.4078 22.2917 24.8491C22.2917 24.8491 22.8852 25.0513 23.3036 25.4992C23.3036 25.4992 23.5727 25.7552 24.0284 25.768V25.7698H24.0588C24.0601 25.7698 24.0613 25.7703 24.0623 25.7703V25.7698H24.0819V25.7703L24.0854 25.7698H24.1063V25.7691C24.568 25.7592 24.8404 25.4992 24.8404 25.4992C25.2589 25.0513 25.8521 24.8491 25.8521 24.8491C26.8251 24.4078 26.1433 23.8836 26.1433 23.8836L25.6789 23.4841C25.5752 23.3696 25.7201 23.306 25.7201 23.306L25.9185 23.2607C29.2915 22.5863 30.1352 22.24 30.1352 22.24C31.9876 21.6409 32.7149 20.5719 32.9941 19.9263C33.2244 19.3992 33.0672 18.6776 33.0672 18.6776Z" fill="#1A3B73"/>
</g>
<defs>
<clipPath id="clip0_26_72979">
<rect width="32" height="32" fill="white" transform="translate(8 8)"/>
</clipPath>
</defs>
</svg>
