<svg width="48" height="48" viewBox="0 0 48 48" fill="none" xmlns="http://www.w3.org/2000/svg">
<g clip-path="url(#clip0_26_72945)">
<path d="M31.0285 22.9307C31.0285 22.9307 29.7098 23.3117 27.159 24.8793C24.8722 26.2869 23.9754 27.2327 23.9754 27.2327L16.9204 22.357C16.9204 22.357 19.8885 20.1743 22.3684 21.846L25.6952 24.1281L26.101 23.8612L16.9218 17.4303C16.9218 17.4303 18.241 17.0488 20.7904 15.4822C23.0787 14.0741 23.9754 13.1279 23.9754 13.1279L31.03 18.0036C31.03 18.0036 28.0624 20.1862 25.582 18.5145L22.2552 16.232L21.8494 16.4984L31.0285 22.9307Z" fill="#E20A17"/>
<path d="M25.5649 29.5821H20.1953V30.7762H22.789L20.104 33.2828V34.2832H25.5549V33.0844H22.8428L25.5649 30.584V29.5821Z" fill="#003399"/>
<path d="M17.0338 34.4033C19.1812 34.4033 19.7312 33.8548 19.7312 32.6455V29.5818H18.03V32.4624C18.03 32.9462 17.6161 33.2345 17.0338 33.2345C16.4282 33.2345 16.0386 32.9447 16.0386 32.4547V29.5818H14.3374V32.6455C14.3374 33.8548 14.8873 34.4033 17.0338 34.4033Z" fill="#003399"/>
<path d="M28.6822 34.4033C30.8297 34.4033 31.3796 33.8548 31.3796 32.6455V29.5818H29.6779V32.4624C29.6779 32.9462 29.2636 33.2345 28.6822 33.2345C28.0766 33.2345 27.6856 32.9447 27.6856 32.4547V29.5818H25.9849V32.6455C25.9849 33.8548 26.5348 34.4033 28.6822 34.4033Z" fill="#003399"/>
<path d="M39.8721 29.582H38.0981V34.2832H39.8721V29.582Z" fill="#003399"/>
<path d="M37.8276 29.5821H35.4937L33.605 31.2043V29.5821H31.8306V34.2832H33.605V32.6158L35.359 34.2832H37.7424L35.1483 31.8713L37.8276 29.5821Z" fill="#003399"/>
<path d="M10.1441 30.881C10.1441 30.5175 10.6826 30.5056 10.8643 30.5056C11.0465 30.5056 11.4571 30.5784 11.7363 31.0366H13.7424C13.7424 30.1507 12.9028 29.4462 10.8705 29.4462C8.61317 29.4462 8.22878 30.4367 8.22878 31.0056C8.22878 32.0546 9.04132 32.3619 10.8082 32.5503C10.9595 32.566 11.8786 32.5227 11.8786 32.9647C11.8786 33.292 11.3619 33.3139 11.1716 33.3139C10.9828 33.3139 10.6293 33.2829 10.3372 32.763H8.12793C8.12793 33.7953 8.82392 34.3918 11.1683 34.3918C13.3276 34.3918 13.9009 33.5103 13.9009 32.84C13.9009 32.1892 13.4542 31.527 11.6131 31.2915C10.8453 31.1921 10.1441 31.1502 10.1441 30.881Z" fill="#003399"/>
</g>
<defs>
<clipPath id="clip0_26_72945">
<rect width="32" height="21.5315" fill="white" transform="translate(8 13)"/>
</clipPath>
</defs>
</svg>
