<svg width="48" height="48" viewBox="0 0 48 48" fill="none" xmlns="http://www.w3.org/2000/svg">
<g clip-path="url(#clip0_26_73000)">
<path d="M24 14.1438C15.2459 14.1438 8.14795 18.7355 8.14795 24.398C8.14795 30.0625 15.2459 34.6563 24 34.6563C32.7542 34.6563 39.8521 30.0646 39.8521 24.398C39.8521 18.7313 32.7542 14.1438 24 14.1438ZM24 30.2542C22.6979 30.2542 21.6354 27.6896 21.5688 24.4625C22.3521 24.5313 23.1667 24.5688 24 24.5688C24.8334 24.5688 25.6479 24.5313 26.4313 24.4625C26.3646 27.6875 25.3021 30.2542 24 30.2542ZM21.7292 21.9C22.0834 19.6188 22.9667 18 24 18C25.0334 18 25.9167 19.6188 26.2709 21.9C25.5438 21.9646 24.7854 22 24 22C23.2146 22 22.4563 21.9646 21.7292 21.9ZM24 15.6271C22.3 15.6271 20.85 18.173 20.3146 21.7271C17.0917 21.225 14.8417 20.0792 14.8417 18.748C14.8417 16.9521 18.9417 15.4959 24 15.4959C29.0584 15.4959 33.1584 16.9521 33.1584 18.748C33.1584 20.0792 30.9084 21.225 27.6854 21.7271C27.15 18.173 25.7 15.6271 24 15.6271ZM10.4209 24.0146C10.4209 22.2771 11.0896 20.6459 12.2542 19.2459C12.2417 19.3438 12.2334 19.4438 12.2334 19.5438C12.2334 21.7334 15.5167 23.6 20.0979 24.2875C20.0938 24.4459 20.0938 24.6063 20.0938 24.7667C20.0938 28.848 21.2375 32.3042 22.8188 33.4771C15.8709 33.0584 10.4209 28.9813 10.4209 24.0146ZM25.1813 33.4771C26.7625 32.3042 27.9063 28.848 27.9063 24.7667C27.9063 24.6042 27.9042 24.4459 27.9021 24.2875C32.4813 23.6 35.7667 21.7355 35.7667 19.5438C35.7667 19.4438 35.7584 19.3438 35.7459 19.2459C36.9104 20.65 37.5792 22.2771 37.5792 24.0146C37.5792 28.9813 32.1292 33.0584 25.1813 33.4771Z" fill="#282830"/>
</g>
<defs>
<clipPath id="clip0_26_73000">
<rect width="32" height="20.8" fill="white" transform="translate(8 14)"/>
</clipPath>
</defs>
</svg>
