<svg width="48" height="48" viewBox="0 0 48 48" fill="none" xmlns="http://www.w3.org/2000/svg">
<g clip-path="url(#clip0_26_72921)">
<path fill-rule="evenodd" clip-rule="evenodd" d="M8 8H40V40H8V8Z" fill="white"/>
<path fill-rule="evenodd" clip-rule="evenodd" d="M24.1044 38.5883C15.4603 38.651 9.51617 32.4558 9.41158 23.8955C9.34866 15.5653 15.879 9.47458 24.1044 9.41182C32.5394 9.36999 38.5251 15.8583 38.588 24.1466C38.6299 32.3302 32.1836 38.5464 24.1044 38.5883ZM24.1044 37.5417C31.7858 37.6046 37.416 31.7022 37.5417 24.1048C37.6461 16.3606 31.8275 10.5211 24.1044 10.4584C16.4022 10.4165 10.4581 16.1931 10.4581 23.8955C10.4581 31.9534 16.0883 37.4999 24.1044 37.5417ZM18.0766 35.2813C22.9325 32.2257 27.1604 29.5675 30.802 27.3279C32.6441 26.1977 34.2138 23.6652 31.5137 22.4304C30.0907 21.7605 28.5418 21.8862 27.0556 22.1583C26.3857 22.2838 23.7905 22.8491 23.7277 21.6769C23.6859 21.0908 24.3347 20.3373 25.6533 19.3746C26.6578 18.6629 28.9814 17.0932 32.6439 14.6862C35.1763 17.4908 36.4531 20.5466 36.4949 23.8536C36.5368 30.7397 30.8019 36.5372 23.9369 36.5372C22.0533 36.537 20.1068 36.1185 18.0766 35.2813ZM29.7556 12.6351C25.2559 15.5234 21.0068 18.1605 17.0301 20.5885C15.1673 21.7396 13.6185 24.272 16.3186 25.486C17.7418 26.1559 19.2905 26.0511 20.7974 25.7583C21.4462 25.6535 24.0626 25.0886 24.1461 26.2396C24.1672 27.0768 21.195 29.4209 15.23 33.2302C12.6766 30.5091 11.3998 27.4535 11.3788 24.0628C11.2532 17.1349 16.9672 11.4002 23.8951 11.3372C25.6951 11.3374 27.6626 11.7768 29.7556 12.6351Z" fill="black"/>
</g>
<defs>
<clipPath id="clip0_26_72921">
<rect width="32" height="32" fill="white" transform="translate(8 8)"/>
</clipPath>
</defs>
</svg>
