<svg width="48" height="48" viewBox="0 0 48 48" fill="none" xmlns="http://www.w3.org/2000/svg">
<g clip-path="url(#clip0_771_109084)">
<path d="M22.8787 34.9165C22.8034 34.9185 22.7348 34.9596 22.6981 35.0245L22.0909 35.8723L21.4837 35.0245C21.4451 34.9581 21.3751 34.9155 21.2977 34.9111H20.2037L21.2977 36.4068L20.2037 37.8972H21.2977C21.3715 37.8905 21.4381 37.8507 21.4783 37.7892L22.0909 36.9198L22.7035 37.7621C22.7421 37.8285 22.8121 37.8711 22.8895 37.8755H23.9836L22.8895 36.3851L23.9836 34.8894L22.8787 34.9164V34.9165ZM30.0664 36.7525L30.6133 35.8237L31.1603 36.7525H30.0662H30.0664ZM31.1932 35.0245C31.15 34.9549 31.0735 34.912 30.9908 34.9111H30.214C30.1296 34.9109 30.0519 34.9565 30.0117 35.0298L28.294 37.8972H29.2786C29.3663 37.8886 29.4431 37.8353 29.481 37.7567L29.656 37.4597H31.5486L31.7292 37.7676C31.7701 37.8443 31.8493 37.8937 31.9371 37.8972H32.9108L31.5761 35.6616L31.1932 35.0244V35.0245ZM26.7953 36.0506H25.5208V34.9112H24.4213V37.8975H25.5208V36.7581H26.7953V37.8975H27.8947V34.9112H26.7953V36.0506ZM34.4152 34.9112H33.3103V37.8975H36.4173V37.0658H34.4153V34.9112H34.4152ZM37.9981 37.0658V34.9112H36.8932V37.8975H40.0003V37.0658H37.9983H37.9981ZM11.5831 34.9112C11.5026 34.9149 11.4291 34.9573 11.3862 35.0246L10.3414 36.8282L9.29114 35.0193C9.24634 34.9546 9.17338 34.9147 9.0942 34.9113H8L9.77774 37.8976H10.8718L12.6495 34.9113H11.5828L11.5831 34.9112ZM18.7708 36.5798C18.8197 36.9104 18.5878 37.2173 18.2531 37.2656C18.1945 37.274 18.1348 37.274 18.0762 37.2656C17.7413 37.3138 17.4304 37.0849 17.3815 36.7545C17.373 36.6966 17.373 36.6377 17.3815 36.5798V34.9112H16.3421V36.5798C16.3421 37.5626 17.015 38.0001 18.0762 38.0001C19.1373 38.0001 19.8102 37.5627 19.8102 36.5798V34.9112H18.7708V36.5798ZM13.4265 36.7526L13.9734 35.8238L14.5204 36.7526H13.4263H13.4265ZM14.5533 35.0246C14.5101 34.955 14.4336 34.9121 14.3509 34.9112H13.5742C13.4897 34.9111 13.412 34.9566 13.3718 35.03L11.6542 37.8973H12.6387C12.7264 37.8888 12.8032 37.8355 12.8411 37.7569L13.0161 37.4598H14.9087L15.0947 37.7677C15.1329 37.8444 15.2106 37.8941 15.2971 37.8973H16.2708L14.9361 35.6617L14.5532 35.0245L14.5533 35.0246Z" fill="#000037"/>
<path d="M31.9971 25.58C31.9846 25.608 31.9699 25.6351 31.9534 25.661C31.9388 25.6883 31.9056 25.7 31.8768 25.688L31.5759 25.58C30.7447 25.231 29.9322 24.8399 29.1417 24.4082C28.5 24.0963 28.0586 23.4884 27.9656 22.7882C27.8335 21.9815 27.7859 21.1636 27.8234 20.3474C27.811 20.124 27.9674 19.9258 28.1899 19.8829C28.3906 19.8422 28.5933 19.8114 28.7971 19.7911C29.1527 19.7911 29.5137 19.7588 29.8912 19.7425C30.1045 19.7425 30.1318 19.656 30.0388 19.4779C29.9456 19.2852 29.7608 19.1513 29.5466 19.1215C29.2113 19.075 28.8803 19.0028 28.5564 18.9055C28.5457 18.887 28.5457 18.8645 28.5564 18.846C28.5892 18.792 28.6658 18.7866 28.7151 18.7759C29.2902 18.703 29.8717 18.6921 30.4491 18.7435C30.6862 18.7466 30.9 18.8858 30.9961 19.0999C31.0398 19.1809 31.0781 19.2618 31.1164 19.3429C31.1547 19.4241 31.1492 19.4024 31.1766 19.4401C31.1907 19.4595 31.218 19.4639 31.2377 19.45C31.2416 19.4472 31.245 19.4438 31.2477 19.4401C31.2949 19.3793 31.3285 19.3094 31.3461 19.2348C31.5043 18.8312 31.5662 18.3969 31.5267 17.9659C31.5057 17.5669 31.2313 17.2247 30.8428 17.1127C30.8428 17.1127 29.82 16.8048 29.7488 16.7887C29.6776 16.7725 29.7488 16.6482 29.7488 16.5781C29.7635 16.3159 29.6312 16.067 29.4042 15.93C29.1026 15.7647 28.7723 15.6566 28.4304 15.6115C28.0324 15.5483 27.6301 15.5141 27.227 15.5089C27.3036 15.0174 27.484 13.8889 27.484 13.8889C27.484 13.8889 27.484 13.8294 27.4403 13.8889L25.5367 15.6493C25.5039 15.6493 25.2304 15.7303 25.0444 15.7736C24.3257 15.9407 23.6957 16.3662 23.2776 16.9669L23.0424 17.3071L22.8455 17.5987C22.8134 17.6492 22.8288 17.7159 22.8801 17.7475C22.8897 17.7534 22.9001 17.758 22.9111 17.7606L23.376 17.8254C23.4253 17.8254 23.4143 17.8632 23.4034 17.8902C23.3337 17.9763 23.2345 18.0339 23.1244 18.0522L22.7196 18.1764C22.5322 18.2417 22.371 18.3647 22.26 18.5275C21.9363 18.9839 21.6422 19.46 21.3793 19.9531C21.3375 20.0185 21.3009 20.0872 21.2699 20.1583C21.2563 20.1837 21.2563 20.214 21.2699 20.2393C21.3136 20.3202 21.4231 20.3094 21.5216 20.3149H22.0029C22.0107 20.3283 22.0107 20.3447 22.0029 20.3581C22.0029 20.4282 21.9646 20.4607 21.9099 20.4877C21.8552 20.5147 21.7512 20.5525 21.6692 20.5848L21.062 20.844C21.062 20.844 20.8104 20.9305 20.5752 21.4165C20.3399 21.9024 19.9023 22.8312 19.7383 23.3119C19.6836 23.4468 19.7383 23.5008 19.875 23.5116L20.4219 23.544H20.6353C20.6717 23.544 20.6826 23.5835 20.668 23.6627C20.668 23.6627 20.6078 23.9058 20.5477 24.0624C20.5477 24.1002 20.5477 24.1325 20.411 24.1325H16.828C16.5606 24.1259 16.2961 24.0748 16.0458 23.9813C15.8918 23.9209 15.7419 23.8506 15.5972 23.7707C15.4324 23.6923 15.2825 23.5863 15.1542 23.4575C15.1254 23.4051 15.1051 23.3487 15.094 23.2901V23.2577C14.9202 22.5688 14.8302 21.8618 14.826 21.1518V21.0491C14.826 20.9682 14.8533 20.9303 14.9463 20.9303H19.0872C19.2352 20.9381 19.3733 20.8571 19.4372 20.7251L22.2488 15.8651C22.2821 15.8118 22.2652 15.7419 22.2112 15.7092C22.1929 15.6981 22.1718 15.6922 22.1504 15.6923H16.7624C16.7333 15.6941 16.7058 15.6795 16.6913 15.6545C16.6744 15.6281 16.6744 15.5945 16.6913 15.5681C16.8334 15.3807 16.9849 15.2005 17.1453 15.0281C20.4943 11.2871 26.2811 10.934 30.0711 14.2396C30.108 14.2718 30.1447 14.3044 30.1811 14.3372C31.7519 15.6922 32.7834 17.5546 33.0912 19.5913C33.4564 21.6542 33.0687 23.7781 31.9971 25.5854M27.6976 16.9399C27.7959 16.8583 27.9043 16.7893 28.0203 16.7347C28.0793 16.7187 28.1417 16.7187 28.2009 16.7347L29.1363 16.8535C29.1856 16.8535 29.1965 16.9021 29.1363 16.9345L28.8793 17.226C28.8303 17.2618 28.7745 17.2876 28.7152 17.3016C28.6555 17.3123 28.5943 17.3123 28.5347 17.3016L27.7579 17.0802C27.7113 17.0695 27.6821 17.0238 27.6922 16.9776M21.407 28.2259L20.116 29.2519C20.0898 29.27 20.0549 29.27 20.0285 29.2519C18.6215 28.5876 17.409 27.5803 16.5057 26.3251L20.6193 27.2864C20.6468 27.2905 20.6699 27.3092 20.6795 27.335C20.8748 27.6463 21.1082 27.933 21.3742 28.1882C21.3877 28.2001 21.389 28.2205 21.377 28.2339C21.376 28.2349 21.3751 28.2359 21.3742 28.2367M17.0583 16.5404C17.1786 16.5404 17.1895 16.5404 17.2223 16.7132C17.3263 17.1343 17.7693 19.1162 17.8076 19.1863C17.8513 19.0999 18.8087 17.4799 19.2463 16.697C19.2892 16.5933 19.3958 16.5297 19.5088 16.5404H20.5427L18.5243 20.0666H16.8012L15.9807 16.5351H17.0748M23.9943 11C18.3616 11.1288 13.9011 15.741 14.0316 21.3014C14.1577 26.6808 18.5453 31.012 23.9943 31.1365C29.6271 31.0077 34.0876 26.3955 33.9571 20.8351C33.8309 15.4558 29.4436 11.1245 23.9943 11Z" fill="#D7001C"/>
</g>
<defs>
<clipPath id="clip0_771_109084">
<rect width="32" height="27" fill="white" transform="translate(8 11)"/>
</clipPath>
</defs>
</svg>
