<svg width="48" height="48" viewBox="0 0 48 48" fill="none" xmlns="http://www.w3.org/2000/svg">
<g clip-path="url(#clip0_26_72939)">
<path fill-rule="evenodd" clip-rule="evenodd" d="M42.1252 23.9763C42.1252 27.9829 34.0065 31.2305 23.9918 31.2305C13.9771 31.2305 5.8584 27.9827 5.8584 23.9763C5.8584 19.97 13.9771 16.7224 23.9918 16.7224C34.0065 16.7224 42.1252 19.97 42.1252 23.9763Z" fill="#A22125"/>
<path fill-rule="evenodd" clip-rule="evenodd" d="M42.2354 23.9999C42.2354 28.0486 34.0713 31.3305 23.9999 31.3305C13.929 31.3305 5.76465 28.0486 5.76465 23.9999C5.76465 19.9515 13.929 16.6694 23.9999 16.6694C34.0713 16.6694 42.2354 19.9515 42.2354 23.9999ZM23.2236 30.9744C21.5037 29.214 20.025 27.1793 18.4931 24.8055C16.9415 22.4017 16.0301 20.0644 15.199 17.8276L15.4237 17.8313C9.98304 19.0333 6.53619 21.3466 6.53619 24.0031C6.53619 27.8707 13.5542 30.9318 23.2236 30.9744ZM24.8615 30.9735C34.4668 30.9017 41.4097 27.8521 41.4097 24.0031C41.4097 21.3661 37.9382 19.0673 32.5639 17.8583L32.8793 17.8564C32.0505 20.0806 31.1435 22.4031 29.6016 24.7914C28.0704 27.1644 26.5808 29.2136 24.8615 30.9735Z" fill="#BBBCBF"/>
<path fill-rule="evenodd" clip-rule="evenodd" d="M15.8408 17.7959C18.2908 17.3109 21.0833 17.0361 24.0473 17.0361C27.0191 17.0361 29.8185 17.3121 32.2726 17.7996V17.8033C31.4961 20.0345 30.3535 22.3602 28.8712 24.7663C27.4906 27.0063 25.8755 29.0928 24.0531 30.9908C22.2362 29.0964 20.6256 27.0144 19.2482 24.78C17.7624 22.3676 16.6178 20.0358 15.8408 17.7996V17.7959Z" fill="#2F5B90"/>
<path fill-rule="evenodd" clip-rule="evenodd" d="M23.7311 26.2936C23.7694 26.5283 23.8518 26.6453 23.9458 26.9028C23.8848 26.8956 23.8166 26.9066 23.7267 26.9531C23.7267 26.9531 23.68 26.9603 23.5887 27.2048C23.6175 27.0954 23.7624 27.0002 23.7624 27.0002C23.8769 26.9655 23.9359 26.9551 23.9788 27.0045C24.0567 27.094 24.1251 27.1986 24.2011 27.3801C24.1666 27.2475 24.1239 27.0749 24.0508 26.9695C24.1399 26.9317 24.1801 26.879 24.2878 26.9232C24.465 26.9966 24.326 27.1158 24.326 27.1158C24.326 27.1158 24.5178 27.0772 24.403 26.9232C24.2878 26.7698 23.9813 26.885 23.9813 26.885C23.9813 26.885 23.8701 26.6982 23.8369 26.2158C24.0741 26.0375 24.0801 26.0089 24.3015 26.0991C24.3339 26.3845 24.424 26.498 24.5269 26.7802C24.4657 26.7732 24.4013 26.8147 24.3113 26.8616C24.4256 26.8269 24.5175 26.8325 24.5605 26.8819C24.6383 26.9713 24.7064 27.0759 24.7825 27.2577C24.7481 27.1249 24.7056 26.9524 24.6321 26.847C24.7213 26.8093 24.7618 26.7568 24.8693 26.801C25.0465 26.8744 24.9079 26.9933 24.9079 26.9933C24.9079 26.9933 25.0996 26.9543 24.9845 26.801C24.8645 26.642 24.563 26.7626 24.563 26.7626C24.563 26.7626 24.4516 26.5978 24.4146 26.1465L24.4669 26.1684C24.6603 26.2494 24.8977 24.7847 24.984 24.5542C25.0704 24.3236 26.2767 24.4967 26.9083 24.1794C26.9083 24.1794 26.535 23.8625 26.8224 23.8625C27.1094 23.8625 27.2821 23.6031 27.2821 23.6031C27.5114 23.5743 28.2873 23.1709 28.5747 23.1418C28.5747 23.1418 27.7417 22.8824 27.5116 22.9113C27.2823 22.9401 28.948 22.4211 29.1207 22.1329C29.1207 22.1329 27.7702 22.4788 27.7131 22.2483C27.6556 22.0175 28.8333 21.9312 29.2929 21.4699C29.2929 21.4699 28.115 21.6525 27.8853 21.5276C27.5728 21.3578 28.8905 21.1625 29.4365 20.634C29.4365 20.634 28.8046 20.5284 28.4597 20.4034C28.2037 20.3107 28.9769 20.1247 29.5517 19.4233C29.5517 19.4233 27.4128 20.1918 26.3344 20.8645C24.5628 21.9696 24.1801 22.6228 24.1801 22.6228C24.5246 22.104 22.5426 21.0951 22.1118 20.922C21.681 20.7492 19.1819 19.9419 18.952 19.7114C18.722 19.4808 19.6127 20.6338 20.3309 20.8645C21.0489 21.0951 19.5838 20.9318 19.0096 20.8934C19.0096 20.8934 19.6127 21.3931 20.3023 21.6716C20.4809 21.7438 19.1244 21.6716 19.1244 21.6716C19.3541 22.027 20.2734 22.3921 20.5895 22.4209C20.9053 22.4498 19.2392 22.3441 19.2392 22.3441C19.2964 22.6133 20.5606 23.0551 20.9914 23.0551C21.4224 23.0551 20.1871 23.0839 19.8713 23.0839C19.5552 23.0839 20.6181 23.5164 20.8478 23.5164C21.0778 23.5164 20.6756 23.6604 20.5606 23.7181C20.4457 23.7758 21.2498 24.0736 21.4511 23.891C21.6046 23.7515 22.3129 24.7845 23.1459 24.4674C23.9788 24.1504 21.1728 25.9012 21.3936 26.1969C21.5945 26.466 22.4565 26.6868 22.7437 26.6003C23.0309 26.514 23.2608 26.1969 23.2895 25.7933C23.3183 25.3896 23.4953 26.4561 23.663 26.3411C23.6875 26.3245 23.7099 26.3087 23.7311 26.2936Z" fill="#DBDCDD"/>
<path fill-rule="evenodd" clip-rule="evenodd" d="M22.105 27.3734C22.4171 28.0297 22.9759 28.914 23.446 28.7861C24.3862 28.6583 25.3557 28.075 26.4136 28.075C26.5 27.143 25.072 27.059 25.092 27.635C25.3267 26.9951 25.9148 28.1466 26.3848 28.0187C26.3653 27.1229 24.4605 26.5279 23.4891 27.3898L22.105 27.3734Z" fill="#A6A8AA"/>
<path fill-rule="evenodd" clip-rule="evenodd" d="M23.8 28.6624C24.6152 28.4789 25.4409 28.027 26.3564 28.027C26.3564 27.3351 25.5523 27.7964 25.0927 27.681C25.3224 27.1046 25.782 27.681 26.2417 27.5657C25.3224 26.9892 24.4033 26.7584 23.5263 27.4598L22.2051 27.4513C22.5647 28.0268 23.0244 28.834 23.484 28.7184C23.5423 28.7112 23.6006 28.702 23.6589 28.6912L23.4552 28.2764L23.8 28.6624Z" fill="#DBDCDD"/>
<path fill-rule="evenodd" clip-rule="evenodd" d="M23.5272 28.5842C23.106 28.6416 22.7229 28.1226 22.3633 27.5474L23.4546 27.5559C24.4656 26.9506 25.0018 27.0274 25.9402 27.5464C25.6723 27.4119 25.0021 27.0851 24.9064 27.7769C25.366 27.8923 25.8832 27.5653 26.1702 27.8923C25.2312 27.8923 24.5752 28.3592 23.775 28.5391L23.2593 28.0845L23.5272 28.5842Z" fill="#A6A8AA"/>
<path fill-rule="evenodd" clip-rule="evenodd" d="M23.6957 26.4202C23.5282 26.5355 23.351 25.4689 23.3223 25.8725C23.2937 26.2759 23.0638 26.5932 22.7766 26.6796C22.4894 26.7661 21.6273 26.5453 21.4265 26.2761C21.2057 25.9804 24.0117 24.2296 23.1787 24.5465C22.3458 24.8636 21.6375 23.8308 21.4839 23.9702C21.2827 24.1528 20.4785 23.8549 20.5935 23.7972C20.7085 23.7397 21.1104 23.5955 20.8807 23.5955C20.651 23.5955 19.5881 23.163 19.9039 23.163C20.2198 23.163 21.4551 23.1341 21.0241 23.1341C20.5931 23.1341 19.3291 22.6923 19.2718 22.4232C19.2718 22.4232 20.938 22.5288 20.6221 22.5C20.3061 22.4711 19.3868 22.1061 19.1571 21.7504C19.1571 21.7504 20.5134 21.8226 20.3347 21.7504C19.6454 21.4719 19.0421 20.9722 19.0421 20.9722C19.6165 21.0108 21.0816 21.1739 20.3636 20.9434C19.6454 20.7128 18.7549 19.5599 18.9846 19.7904C19.2143 20.021 21.7135 20.828 22.1445 21.0011C22.5753 21.1739 24.5573 22.1829 24.2128 22.7017C24.2128 22.7017 24.5954 22.0484 26.367 20.9434C27.4455 20.2706 29.5843 19.5022 29.5843 19.5022C29.0095 20.2036 28.2363 20.3893 28.4928 20.4823C28.8373 20.6072 29.4692 20.7128 29.4692 20.7128C28.9236 21.2414 27.6057 21.4367 27.918 21.6066C28.1477 21.7315 29.3256 21.5487 29.3256 21.5487C28.8659 22.01 27.6881 22.0966 27.7457 22.3271C27.8034 22.5577 29.1533 22.2117 29.1533 22.2117C28.9807 22.5 27.3149 23.019 27.5447 22.9899C27.7744 22.9611 28.6074 23.2205 28.6074 23.2205C28.3199 23.2495 27.5447 23.6529 27.3147 23.6818C27.3147 23.6818 27.1421 23.9412 26.8551 23.9412C26.5677 23.9412 26.941 24.2583 26.941 24.2583C26.3091 24.5753 25.103 24.4023 25.0167 24.633C24.9304 24.8638 24.6928 26.328 24.4996 26.2473C24.4822 26.2398 24.4648 26.2325 24.4473 26.2253C24.4838 26.6764 24.5957 26.8414 24.5957 26.8414C24.5957 26.8414 24.8968 26.7206 25.0171 26.8798C25.1327 27.033 24.9405 27.0722 24.9405 27.0722C24.9405 27.0722 25.0792 26.9531 24.9019 26.8798C24.7945 26.8354 24.754 26.8881 24.6648 26.9259C24.7382 27.0315 24.7808 27.204 24.8152 27.3366C24.739 27.1548 24.671 27.0502 24.5932 26.9607C24.5502 26.9116 24.4583 26.9058 24.3439 26.9404C24.434 26.8935 24.4983 26.8518 24.5595 26.8591C24.4566 26.5766 24.3666 26.4633 24.3342 26.1778C24.1128 26.0877 24.1067 26.1164 23.8693 26.2946C23.9025 26.7769 24.0138 26.9639 24.0138 26.9639C24.0138 26.9639 24.3203 26.8485 24.435 27.0022C24.5502 27.156 24.3589 27.1946 24.3589 27.1946C24.3589 27.1946 24.4975 27.0755 24.3203 27.0022C24.2124 26.9576 24.1723 27.0103 24.0835 27.0481C24.1565 27.1537 24.1991 27.3262 24.2335 27.4588C24.1574 27.277 24.0891 27.1726 24.0113 27.0832C23.9681 27.0338 23.9092 27.0442 23.7948 27.0788C23.7948 27.0788 23.6498 27.1741 23.6212 27.2836C23.7123 27.0392 23.7589 27.0321 23.7589 27.0321C23.8488 26.985 23.9169 26.9744 23.9781 26.9815C23.8839 26.7244 23.8017 26.6071 23.7633 26.3724C23.7423 26.3878 23.7197 26.4036 23.6957 26.4202ZM25.2087 23.163L24.9978 22.8171L24.4425 23.1823L24.6338 22.8555L24.1933 22.7787C22.3742 20.7415 21.1677 21.0492 21.1677 21.0492C21.4263 21.4622 22.2976 21.7602 22.2976 21.7602L21.2443 21.6834C21.474 22.3176 22.5275 22.1447 22.4126 22.4136L21.4167 22.4329C21.8573 22.9613 22.8338 22.8173 22.7 23.0094C22.5659 23.2016 21.7041 23.0862 21.7041 23.0862C21.838 23.3744 23.1976 23.5475 23.1212 23.4707L22.1636 23.7206C22.3169 23.7974 23.4275 23.9704 23.2746 24.0088C23.1212 24.0474 22.5278 24.0854 22.5278 24.0854C22.7002 24.1817 23.6957 24.2585 23.6957 24.2585C23.5809 24.8063 23.3223 25.2097 23.3223 25.2097C24.6438 25.0078 25.6202 23.8837 25.2757 22.8173L25.2087 23.163ZM26.1373 22.644C25.8885 22.2456 25.786 22.5409 25.7351 22.5575C25.5863 22.6056 25.7636 23.4222 25.6776 23.5376C25.5913 23.6529 25.3327 24.1429 25.5629 24.114C25.7548 24.0881 25.9463 24.0593 26.1373 24.0275C25.9939 23.8835 25.7636 23.8258 25.9939 23.8258C26.2232 23.8258 26.7692 23.6529 26.7692 23.5376C26.7692 23.5376 26.2525 23.6241 26.2232 23.4222L26.5689 23.3356C26.5689 23.3356 27.1166 23.2286 27.2288 22.9111L26.5681 22.9322C26.8837 22.9322 27.2 22.6249 27.4585 22.3269C27.4585 22.3269 26.7692 22.423 26.5969 22.2981C26.5969 22.2981 27.6021 21.6927 27.5162 21.5774C27.5162 21.5774 26.537 21.9214 26.6258 21.8079C27.1143 21.1835 27.6596 20.7703 27.6596 20.7703C26.9703 20.607 25.3047 21.9048 25.4479 21.8944C26.2523 21.837 26.2151 22.7687 26.1373 22.644ZM25.383 22.1061C25.4404 22.142 25.5484 22.1709 25.5054 22.0918C25.462 22.0125 25.4046 21.9837 25.4046 21.9837C25.4046 21.9837 25.3255 22.07 25.383 22.1061ZM26.1323 22.5697C26.1323 22.5697 26.1178 22.1733 25.9551 22.1926C25.9113 22.1978 25.881 22.395 25.941 22.3923C26.0246 22.3887 26.1323 22.5697 26.1323 22.5697Z" fill="#A6A8AA"/>
<path fill-rule="evenodd" clip-rule="evenodd" d="M24.651 19.6953L24.734 19.4976L24.8377 19.5401L24.7539 19.7399L24.7535 19.7397C24.8224 19.774 24.8865 19.8167 24.944 19.8665L24.9456 19.868L25.1077 19.7076L25.1876 19.786L25.0251 19.9466L25.0243 19.946C25.0786 20.0066 25.1247 20.0749 25.1604 20.1485L25.1612 20.151L25.3692 20.0657L25.4121 20.1685L25.2038 20.2538L25.2042 20.255C25.2289 20.3283 25.2438 20.4057 25.2484 20.4858H25.2476H25.4746V20.597H25.2467L25.248 20.5949C25.2425 20.6747 25.2263 20.7535 25.1998 20.829L25.199 20.8292L25.4121 20.9168L25.3692 21.0195L25.1548 20.9317L25.156 20.9315C25.1208 21.0012 25.0766 21.066 25.0247 21.1239H25.0251L25.1828 21.2801L25.1033 21.3588L24.9456 21.2025L24.9452 21.2029C24.8867 21.2539 24.8218 21.2971 24.7522 21.3316V21.3295L24.8402 21.5399L24.7365 21.5825L24.6493 21.375C24.573 21.4015 24.4935 21.4177 24.4129 21.4231V21.6476H24.3007V21.4237C24.2209 21.4195 24.142 21.4047 24.0662 21.3797L24.0676 21.3795L23.9774 21.5949L23.8736 21.5524L23.9632 21.3387L23.9618 21.338C23.8872 21.3026 23.8179 21.2571 23.7557 21.2027V21.2029L23.5978 21.3592L23.5183 21.2805L23.6763 21.1243L23.6754 21.1235C23.6242 21.066 23.5807 21.0022 23.5459 20.9336V20.9338L23.3351 21.0201L23.2919 20.9174L23.5021 20.8313L23.5019 20.8304C23.4753 20.7556 23.459 20.6775 23.4536 20.5982L23.4513 20.5976H23.2266V20.4864H23.4528C23.4573 20.4057 23.4725 20.3276 23.4976 20.254L23.4978 20.2533L23.2921 20.1691L23.3353 20.0664L23.5399 20.1502C23.5758 20.0763 23.6219 20.0081 23.676 19.9473L23.5136 19.7866L23.593 19.7082L23.7555 19.8686C23.8172 19.8149 23.8865 19.7692 23.9614 19.7337L23.9616 19.7335L23.8757 19.5283L23.9796 19.4857L24.066 19.6918L24.0656 19.692C24.1415 19.6669 24.2205 19.652 24.3005 19.6478V19.4243H24.4127V19.6486C24.493 19.6541 24.5722 19.6702 24.6483 19.6966L24.651 19.6953Z" fill="#DBDCDD"/>
<path fill-rule="evenodd" clip-rule="evenodd" d="M24.3664 21.5864H24.3251V21.3756L24.3129 21.3743C24.2351 21.3702 24.1479 21.3436 24.0771 21.3201L24.0659 21.3199L23.98 21.5366L23.9186 21.5086L24.0039 21.3058L23.99 21.293C23.9186 21.2591 23.8277 21.1911 23.769 21.14L23.7692 21.1402L23.6187 21.2882L23.5806 21.2506L23.7308 21.1025L23.7177 21.0894C23.6649 21.0309 23.6194 20.9662 23.582 20.8968V20.8846L23.3811 20.9665L23.3654 20.9186L23.5652 20.8368L23.5523 20.8115C23.5274 20.7418 23.5117 20.6432 23.5063 20.5667L23.5042 20.566H23.29V20.51H23.5054C23.5098 20.4334 23.5368 20.3224 23.5606 20.2525L23.5484 20.2396L23.3527 20.1599L23.3687 20.1118L23.576 20.1915L23.5887 20.1668C23.6271 20.0928 23.6749 20.024 23.7308 19.9622L23.5762 19.8098L23.6144 19.7723L23.769 19.9246L23.7941 19.8999C23.8526 19.8489 23.9311 19.7935 24.0022 19.7596L24.0024 19.7594L23.9207 19.5648L23.9694 19.549L24.0516 19.7443L24.0886 19.732C24.1653 19.7083 24.2447 19.6942 24.3249 19.6901L24.3245 19.6889V19.478H24.3631L24.3664 21.5864Z" fill="#A6A8AA"/>
<path fill-rule="evenodd" clip-rule="evenodd" d="M17.4608 18.2665L17.1034 17.9953L17.0171 17.9714L17.4392 18.2918L17.4608 18.2665Z" fill="#24201F"/>
<path fill-rule="evenodd" clip-rule="evenodd" d="M17.1034 17.9953L17.7612 17.899L17.7837 17.8591L17.0171 17.9714L17.1034 17.9953Z" fill="#373331"/>
<path fill-rule="evenodd" clip-rule="evenodd" d="M18.0922 19.1405L17.4605 18.2666L17.439 18.2919L18.0802 19.1788L18.0922 19.1405Z" fill="#2F2B2A"/>
<path fill-rule="evenodd" clip-rule="evenodd" d="M17.7612 17.899L18.3385 18.7817L18.3302 18.6946L17.7836 17.8591L17.7612 17.899Z" fill="#7D7C7C"/>
<path fill-rule="evenodd" clip-rule="evenodd" d="M18.6769 19.0544L18.0921 19.1403L18.0801 19.1787L18.7095 19.0862L18.6769 19.0544ZM18.3382 18.7817L18.6379 17.7703L18.6134 17.7373L18.3299 18.6946L18.3382 18.7817Z" fill="black"/>
<path fill-rule="evenodd" clip-rule="evenodd" d="M19.0762 17.706L18.6768 19.0544L18.7093 19.0862L19.1314 17.6614L19.0762 17.706Z" fill="#44403E"/>
<path fill-rule="evenodd" clip-rule="evenodd" d="M18.6378 17.7703L19.0763 17.706L19.1314 17.6614L18.6133 17.7373L18.6378 17.7703Z" fill="#373331"/>
<path fill-rule="evenodd" clip-rule="evenodd" d="M17.4604 18.2666L17.103 17.9953L17.7609 17.899L18.3382 18.7818L18.6378 17.7704L19.0763 17.7061L18.6768 19.0545L18.092 19.1404L17.4604 18.2666Z" fill="#A6A8AA"/>
<path fill-rule="evenodd" clip-rule="evenodd" d="M19.3645 17.6678L19.7741 17.9625L19.7417 17.9822L19.2632 17.6379L19.3645 17.6678Z" fill="black"/>
<path fill-rule="evenodd" clip-rule="evenodd" d="M19.7741 17.9624L19.8322 18.918L19.8013 18.9562L19.7417 17.9821L19.7741 17.9624Z" fill="black"/>
<path fill-rule="evenodd" clip-rule="evenodd" d="M20.1736 18.0981L20.1641 17.939L20.2058 17.9732L20.211 18.0593L20.1736 18.0981ZM20.2029 18.576L20.1931 18.4167L20.2348 18.4507L20.24 18.5368L20.2029 18.576Z" fill="#433F3D"/>
<path fill-rule="evenodd" clip-rule="evenodd" d="M21.3153 17.5491L19.3645 17.6678L19.2632 17.6379L21.3518 17.5105L21.3153 17.5491Z" fill="#363230"/>
<path fill-rule="evenodd" clip-rule="evenodd" d="M19.8322 18.918L21.3929 18.823L21.4338 18.8566L19.8013 18.9562L19.8322 18.918Z" fill="black"/>
<path fill-rule="evenodd" clip-rule="evenodd" d="M21.1496 18.0384L20.1738 18.0979L20.2112 18.0591L21.1859 17.9998L21.1496 18.0384Z" fill="#403C3A"/>
<path fill-rule="evenodd" clip-rule="evenodd" d="M20.1931 18.4165L21.1686 18.3574L21.2097 18.3914L20.2348 18.4506L20.1931 18.4165ZM20.1641 17.9388L21.3347 17.8674L21.3753 17.9021L20.2058 17.9731L20.1641 17.9388Z" fill="black"/>
<path fill-rule="evenodd" clip-rule="evenodd" d="M21.3732 18.5046L20.2026 18.576L20.2398 18.5368L21.4096 18.4656L21.3732 18.5046Z" fill="#4B4746"/>
<path fill-rule="evenodd" clip-rule="evenodd" d="M21.1687 18.3573L21.1494 18.0384L21.1857 17.9998L21.2098 18.3913L21.1687 18.3573Z" fill="#2F2B2A"/>
<path fill-rule="evenodd" clip-rule="evenodd" d="M21.3344 17.8674L21.3149 17.5491L21.3515 17.5105L21.3751 17.9021L21.3344 17.8674ZM21.3926 18.823L21.3733 18.5045L21.4096 18.4655L21.4334 18.8567L21.3926 18.823Z" fill="#2C2826"/>
<path fill-rule="evenodd" clip-rule="evenodd" d="M19.7739 17.9624L19.832 18.9181L21.3927 18.823L21.3734 18.5045L20.2028 18.5759L20.1931 18.4165L21.1686 18.3573L21.1493 18.0384L20.1736 18.098L20.164 17.9388L21.3346 17.8674L21.3151 17.5491L19.3643 17.6678L19.7739 17.9624Z" fill="#A6A8AA"/>
<path fill-rule="evenodd" clip-rule="evenodd" d="M21.9334 17.8651L21.5335 17.5574L21.4316 17.5242L21.899 17.8838L21.9334 17.8651Z" fill="black"/>
<path fill-rule="evenodd" clip-rule="evenodd" d="M21.5335 17.5574L22.4236 17.5321L22.4412 17.4954L21.4316 17.5242L21.5335 17.5574Z" fill="#363230"/>
<path fill-rule="evenodd" clip-rule="evenodd" d="M21.9606 18.8223L21.9334 17.8652L21.8989 17.8839L21.9265 18.8592L21.9606 18.8223Z" fill="#0F0300"/>
<path fill-rule="evenodd" clip-rule="evenodd" d="M22.3515 18.811L21.9608 18.8222L21.9268 18.8592L22.3906 18.8461L22.3515 18.811Z" fill="black"/>
<path fill-rule="evenodd" clip-rule="evenodd" d="M22.3271 17.9604L22.3514 18.8111L22.3904 18.8461L22.368 18.0623L22.3271 17.9604Z" fill="#191513"/>
<path fill-rule="evenodd" clip-rule="evenodd" d="M23.0462 18.7911L22.3271 17.9604L22.368 18.0623L23.0306 18.8281L23.0462 18.7911Z" fill="black"/>
<path fill-rule="evenodd" clip-rule="evenodd" d="M22.4238 17.5321L23.1207 18.3458L23.0819 18.243L22.4415 17.4954L22.4238 17.5321Z" fill="#2A2624"/>
<path fill-rule="evenodd" clip-rule="evenodd" d="M23.5238 18.7776L23.0463 18.7911L23.0308 18.828L23.562 18.8127L23.5238 18.7776Z" fill="black"/>
<path fill-rule="evenodd" clip-rule="evenodd" d="M23.0968 17.513L23.4877 17.5018L23.5239 17.4648L23.0601 17.4777L23.0968 17.513Z" fill="#363230"/>
<path fill-rule="evenodd" clip-rule="evenodd" d="M23.1207 18.3458L23.0968 17.5131L23.0601 17.4778L23.0818 18.2431L23.1207 18.3458Z" fill="#2A2624"/>
<path fill-rule="evenodd" clip-rule="evenodd" d="M23.4878 17.5018L23.5239 18.7776L23.5621 18.8127L23.5239 17.4648L23.4878 17.5018Z" fill="black"/>
<path fill-rule="evenodd" clip-rule="evenodd" d="M21.9336 17.8653L21.5337 17.5576L22.4237 17.5322L23.1206 18.3459L23.0967 17.5132L23.4877 17.502L23.5238 18.7778L23.0463 18.7913L22.3272 17.9606L22.3515 18.8112L21.9608 18.8224L21.9336 17.8653Z" fill="#A6A8AA"/>
<path fill-rule="evenodd" clip-rule="evenodd" d="M25.6538 17.5268L25.6551 17.846L25.6905 17.8825L25.6891 17.4905L25.6538 17.5268ZM25.6551 17.846L25.0684 17.848L25.1045 17.8848L25.6905 17.8825L25.6551 17.846ZM25.0721 18.8051L24.681 18.8068L24.644 18.8429L25.1083 18.8412L25.0721 18.8051Z" fill="black"/>
<path fill-rule="evenodd" clip-rule="evenodd" d="M25.0684 17.8479L25.0721 18.805L25.1082 18.8411L25.1045 17.8846L25.0684 17.8479Z" fill="black"/>
<path fill-rule="evenodd" clip-rule="evenodd" d="M23.6994 17.5338L25.654 17.5268L25.6893 17.4905L23.5967 17.4979L23.6994 17.5338Z" fill="#363230"/>
<path fill-rule="evenodd" clip-rule="evenodd" d="M24.6811 18.8066L24.678 17.8491L24.6406 17.8863L24.6442 18.8427L24.6811 18.8066Z" fill="#484442"/>
<path fill-rule="evenodd" clip-rule="evenodd" d="M24.0914 17.8514L23.6994 17.5337L23.5967 17.4978L24.0783 17.8883L24.0914 17.8514Z" fill="#130D07"/>
<path fill-rule="evenodd" clip-rule="evenodd" d="M24.6778 17.8491L24.0912 17.8514L24.0781 17.8883L24.6405 17.8863L24.6778 17.8491Z" fill="black"/>
<path fill-rule="evenodd" clip-rule="evenodd" d="M23.6992 17.5339L25.6538 17.5269L25.6551 17.846L25.0684 17.8481L25.0721 18.8052L24.681 18.8068L24.6779 17.8493L24.0912 17.8516L23.6992 17.5339Z" fill="#A6A8AA"/>
<path fill-rule="evenodd" clip-rule="evenodd" d="M27.8382 17.6621L27.7969 18.4588L27.8309 18.4604L27.8739 17.6277L27.8382 17.6621Z" fill="#35312F"/>
<path fill-rule="evenodd" clip-rule="evenodd" d="M27.4475 17.6422L27.8378 17.6623L27.8735 17.6279L27.4102 17.604L27.4475 17.6422Z" fill="#363230"/>
<path fill-rule="evenodd" clip-rule="evenodd" d="M27.7969 18.459C27.7965 18.4698 27.7957 18.4806 27.7944 18.4914L27.8276 18.4953C27.8292 18.4838 27.8303 18.4722 27.831 18.4606L27.7969 18.459Z" fill="#383432"/>
<path fill-rule="evenodd" clip-rule="evenodd" d="M27.7943 18.4912C27.7931 18.5016 27.7914 18.5122 27.7896 18.5221L27.8228 18.5284C27.8249 18.5174 27.8265 18.5063 27.8275 18.4952L27.7943 18.4912Z" fill="#3B3735"/>
<path fill-rule="evenodd" clip-rule="evenodd" d="M27.7896 18.5222C27.788 18.5322 27.7855 18.5421 27.7832 18.5517L27.816 18.56C27.8185 18.5496 27.8208 18.5392 27.8228 18.5284L27.7896 18.5222Z" fill="#3E3A38"/>
<path fill-rule="evenodd" clip-rule="evenodd" d="M27.783 18.5518C27.7805 18.5612 27.7778 18.5706 27.7749 18.58L27.8069 18.5904C27.8102 18.5806 27.8129 18.5704 27.8158 18.5601L27.783 18.5518Z" fill="#423E3C"/>
<path fill-rule="evenodd" clip-rule="evenodd" d="M27.7748 18.5798C27.7715 18.589 27.7684 18.5979 27.7646 18.6066L27.7954 18.6191C27.7995 18.6097 27.803 18.6002 27.8068 18.5902L27.7748 18.5798Z" fill="#45413F"/>
<path fill-rule="evenodd" clip-rule="evenodd" d="M27.7647 18.6067C27.761 18.6154 27.7569 18.6239 27.7524 18.6322L27.7827 18.6463C27.7871 18.6376 27.7917 18.6285 27.7954 18.6191L27.7647 18.6067Z" fill="#494543"/>
<path fill-rule="evenodd" clip-rule="evenodd" d="M27.7525 18.6321C27.7484 18.6404 27.744 18.6485 27.7393 18.6562L27.7685 18.6721C27.7737 18.6637 27.7786 18.655 27.783 18.6462L27.7525 18.6321Z" fill="#4C4847"/>
<path fill-rule="evenodd" clip-rule="evenodd" d="M27.739 18.656C27.7343 18.6639 27.7292 18.6715 27.7236 18.6788L27.7521 18.6965C27.7577 18.6886 27.7631 18.6803 27.7682 18.672L27.739 18.656Z" fill="#514D4B"/>
<path fill-rule="evenodd" clip-rule="evenodd" d="M27.7236 18.679C27.7184 18.6864 27.7126 18.6935 27.707 18.7005L27.7338 18.72C27.7402 18.7124 27.746 18.7047 27.7521 18.6966L27.7236 18.679Z" fill="#54504F"/>
<path fill-rule="evenodd" clip-rule="evenodd" d="M27.7072 18.7007C27.7013 18.7078 27.6951 18.7146 27.6885 18.721L27.7144 18.742C27.7213 18.7347 27.7277 18.7275 27.7339 18.7202L27.7072 18.7007Z" fill="#585453"/>
<path fill-rule="evenodd" clip-rule="evenodd" d="M27.6885 18.7209C27.6822 18.7276 27.6757 18.7339 27.6689 18.74L27.6932 18.7624L27.7144 18.7419L27.6885 18.7209Z" fill="#5A5655"/>
<path fill-rule="evenodd" clip-rule="evenodd" d="M27.669 18.74C27.6622 18.7462 27.6549 18.7522 27.6475 18.7578L27.6701 18.7815C27.6782 18.7753 27.6854 18.7688 27.6931 18.7622L27.669 18.74Z" fill="#5B5756"/>
<path fill-rule="evenodd" clip-rule="evenodd" d="M27.6476 18.7578C27.6403 18.7636 27.6327 18.7693 27.625 18.7746L27.6466 18.7997C27.6547 18.7939 27.6628 18.7879 27.6704 18.7817L27.6476 18.7578Z" fill="#5B5756"/>
<path fill-rule="evenodd" clip-rule="evenodd" d="M27.6249 18.7747C27.6171 18.7801 27.6092 18.7853 27.6011 18.7902L27.6206 18.8166C27.6295 18.8112 27.638 18.8056 27.6465 18.7998L27.6249 18.7747Z" fill="#5A5655"/>
<path fill-rule="evenodd" clip-rule="evenodd" d="M27.6007 18.7903C27.5926 18.7953 27.5837 18.8 27.5752 18.8048L27.5935 18.8322C27.6028 18.8272 27.6117 18.822 27.6202 18.8166L27.6007 18.7903Z" fill="#585453"/>
<path fill-rule="evenodd" clip-rule="evenodd" d="M27.5751 18.8049C27.5663 18.8096 27.5574 18.814 27.5483 18.8182L27.5654 18.8466C27.5747 18.8421 27.5844 18.8373 27.5934 18.8323L27.5751 18.8049Z" fill="#54504F"/>
<path fill-rule="evenodd" clip-rule="evenodd" d="M27.5486 18.8181C27.5397 18.8225 27.5303 18.8264 27.521 18.8304L27.5359 18.8596C27.5461 18.8555 27.5559 18.8511 27.5656 18.8465L27.5486 18.8181Z" fill="#514D4B"/>
<path fill-rule="evenodd" clip-rule="evenodd" d="M27.521 18.8303C27.5117 18.8341 27.5019 18.838 27.4922 18.8413L27.5055 18.8716C27.5157 18.8678 27.5258 18.8638 27.5358 18.8594L27.521 18.8303Z" fill="#4B4746"/>
<path fill-rule="evenodd" clip-rule="evenodd" d="M27.4922 18.8416C27.4822 18.8452 27.4721 18.8486 27.4619 18.8517L27.4737 18.8828C27.4847 18.8793 27.4953 18.8758 27.5057 18.8719L27.4922 18.8416Z" fill="#45413F"/>
<path fill-rule="evenodd" clip-rule="evenodd" d="M27.4618 18.8516L27.4307 18.8607L27.4408 18.8927C27.4522 18.8893 27.463 18.8862 27.4736 18.8827L27.4618 18.8516Z" fill="#3E3A38"/>
<path fill-rule="evenodd" clip-rule="evenodd" d="M27.4309 18.8606C27.4203 18.8635 27.4097 18.866 27.3989 18.8687L27.4074 18.9013C27.4187 18.8986 27.4299 18.8957 27.4411 18.8926L27.4309 18.8606Z" fill="#383432"/>
<path fill-rule="evenodd" clip-rule="evenodd" d="M27.3989 18.8687L27.3657 18.8759L27.373 18.9091C27.3844 18.9066 27.396 18.9041 27.4074 18.9012L27.3989 18.8687Z" fill="#312D2B"/>
<path fill-rule="evenodd" clip-rule="evenodd" d="M27.3656 18.876C27.3546 18.8781 27.3434 18.8801 27.3315 18.882L27.3371 18.9158C27.349 18.914 27.3606 18.9115 27.3728 18.9094L27.3656 18.876Z" fill="#2A2624"/>
<path fill-rule="evenodd" clip-rule="evenodd" d="M27.3312 18.8818C27.3194 18.8837 27.3082 18.8856 27.2964 18.887L27.3005 18.9215L27.3371 18.9157L27.3312 18.8818Z" fill="#221E1C"/>
<path fill-rule="evenodd" clip-rule="evenodd" d="M27.2964 18.887L27.2607 18.8913L27.2636 18.926C27.2759 18.9247 27.2883 18.9231 27.3006 18.9214L27.2964 18.887Z" fill="#1C1816"/>
<path fill-rule="evenodd" clip-rule="evenodd" d="M27.2611 18.8914L27.2246 18.8947L27.2259 18.9297C27.2385 18.9287 27.2514 18.9275 27.264 18.926L27.2611 18.8914Z" fill="#130D07"/>
<path fill-rule="evenodd" clip-rule="evenodd" d="M27.2243 18.8945C27.2117 18.8956 27.1991 18.8964 27.1865 18.897L27.1869 18.9323C27.1998 18.9317 27.2129 18.9306 27.2255 18.9296L27.2243 18.8945Z" fill="#090000"/>
<path fill-rule="evenodd" clip-rule="evenodd" d="M27.1865 18.897L27.1488 18.8986L27.1479 18.9341L27.187 18.9323L27.1865 18.897Z" fill="black"/>
<path fill-rule="evenodd" clip-rule="evenodd" d="M27.1492 18.8987L27.1297 18.8991L27.1284 18.9348L27.1483 18.9342L27.1492 18.8987Z" fill="black"/>
<path fill-rule="evenodd" clip-rule="evenodd" d="M27.1295 18.8989L27.11 18.8991L27.1083 18.9348L27.1282 18.9346L27.1295 18.8989ZM27.11 18.8991H27.0905L27.0884 18.9348H27.1083L27.11 18.8991Z" fill="black"/>
<path fill-rule="evenodd" clip-rule="evenodd" d="M27.0908 18.8991L27.0713 18.8989L27.0684 18.9348H27.0887L27.0908 18.8991Z" fill="black"/>
<path fill-rule="evenodd" clip-rule="evenodd" d="M27.0714 18.899C27.065 18.899 27.0581 18.899 27.0515 18.8986L27.0486 18.9347L27.0685 18.9349L27.0714 18.899ZM27.0515 18.8986C27.0448 18.8986 27.0382 18.8984 27.0316 18.8982L27.0278 18.9341L27.0486 18.9347L27.0515 18.8986Z" fill="black"/>
<path fill-rule="evenodd" clip-rule="evenodd" d="M27.0314 18.8983C27.0246 18.8981 27.0178 18.8978 27.0111 18.8975L27.0073 18.9334L27.0277 18.9342L27.0314 18.8983Z" fill="black"/>
<path fill-rule="evenodd" clip-rule="evenodd" d="M27.0111 18.8973L26.9912 18.8965L26.9868 18.9326L27.0076 18.9334L27.0111 18.8973Z" fill="black"/>
<path fill-rule="evenodd" clip-rule="evenodd" d="M27.4101 18.3681L27.4477 17.6422L27.4103 17.604L27.3711 18.366L27.4101 18.3681Z" fill="#8D8C8D"/>
<path fill-rule="evenodd" clip-rule="evenodd" d="M27.41 18.368C27.4096 18.3786 27.4084 18.3892 27.4063 18.3996L27.3677 18.3925C27.3693 18.384 27.3702 18.3753 27.371 18.366L27.41 18.368Z" fill="#8E8E8E"/>
<path fill-rule="evenodd" clip-rule="evenodd" d="M27.4065 18.3997C27.4047 18.4094 27.4022 18.4189 27.3992 18.4283C27.3992 18.4283 27.3924 18.4457 27.3882 18.4538L27.3525 18.4385C27.3563 18.4318 27.3619 18.4169 27.3619 18.4169C27.3644 18.409 27.3664 18.401 27.3679 18.3928L27.4065 18.3997Z" fill="#929192"/>
<path fill-rule="evenodd" clip-rule="evenodd" d="M27.3881 18.4536C27.3837 18.4616 27.3789 18.4693 27.3735 18.4766L27.3403 18.4575C27.3448 18.4514 27.3489 18.4449 27.3526 18.4382L27.3881 18.4536Z" fill="#8D8C8D"/>
<path fill-rule="evenodd" clip-rule="evenodd" d="M27.3738 18.4766C27.3686 18.4839 27.3628 18.4907 27.3564 18.4969L27.3257 18.4747C27.3312 18.4695 27.3362 18.4637 27.3406 18.4575L27.3738 18.4766Z" fill="#7D7C7C"/>
<path fill-rule="evenodd" clip-rule="evenodd" d="M27.356 18.4968C27.3495 18.5031 27.3425 18.509 27.3352 18.5144L27.3076 18.4893C27.3138 18.4848 27.3196 18.4798 27.325 18.4744L27.356 18.4968Z" fill="#6E6B6B"/>
<path fill-rule="evenodd" clip-rule="evenodd" d="M27.3353 18.5146C27.328 18.5202 27.3203 18.5253 27.3123 18.53L27.2876 18.5024C27.2949 18.4984 27.3013 18.4941 27.3079 18.4895L27.3353 18.5146Z" fill="#605D5C"/>
<path fill-rule="evenodd" clip-rule="evenodd" d="M27.3122 18.53C27.3037 18.5348 27.2951 18.5391 27.2862 18.5431L27.2646 18.5132C27.2727 18.5099 27.28 18.5061 27.2873 18.5022L27.3122 18.53Z" fill="#54504F"/>
<path fill-rule="evenodd" clip-rule="evenodd" d="M27.2864 18.5431C27.2775 18.5473 27.2678 18.5508 27.258 18.5539L27.2397 18.5224C27.2483 18.5198 27.2566 18.5168 27.2649 18.5134L27.2864 18.5431Z" fill="#4B4746"/>
<path fill-rule="evenodd" clip-rule="evenodd" d="M27.2581 18.554C27.2484 18.5573 27.2382 18.5602 27.2274 18.5627L27.2129 18.5295C27.2222 18.5274 27.2315 18.5251 27.24 18.5222L27.2581 18.554ZM27.2274 18.5629C27.2168 18.5656 27.2058 18.5677 27.195 18.5697L27.1832 18.5351C27.1934 18.5336 27.2035 18.5316 27.2129 18.5295L27.2274 18.5629ZM27.1948 18.5697C27.1834 18.5716 27.1722 18.5735 27.1604 18.5745L27.1519 18.539C27.1624 18.538 27.173 18.5367 27.183 18.5351L27.1948 18.5697Z" fill="#484442"/>
<path fill-rule="evenodd" clip-rule="evenodd" d="M27.1603 18.5745C27.1483 18.576 27.1362 18.5771 27.1242 18.5779L27.1182 18.5418C27.1296 18.5411 27.1408 18.5403 27.1518 18.5391L27.1603 18.5745Z" fill="#4B4746"/>
<path fill-rule="evenodd" clip-rule="evenodd" d="M27.1245 18.5779C27.1119 18.5785 27.0994 18.5791 27.0867 18.5793L27.083 18.5426C27.0953 18.5426 27.1069 18.5422 27.1183 18.5417L27.1245 18.5779Z" fill="#4B4746"/>
<path fill-rule="evenodd" clip-rule="evenodd" d="M27.0866 18.5792C27.0736 18.5794 27.0606 18.5794 27.0476 18.5792L27.0459 18.5422L27.0828 18.5424L27.0866 18.5792Z" fill="#4C4847"/>
<path fill-rule="evenodd" clip-rule="evenodd" d="M27.0478 18.5794L27.0082 18.578L27.0073 18.541C27.0206 18.5418 27.0337 18.5423 27.0463 18.5425L27.0478 18.5794Z" fill="#4B4746"/>
<path fill-rule="evenodd" clip-rule="evenodd" d="M27.0081 18.578C27.0013 18.5778 26.9946 18.5774 26.9878 18.577V18.54L27.0073 18.5411L27.0081 18.578Z" fill="#484442"/>
<path fill-rule="evenodd" clip-rule="evenodd" d="M26.9877 18.5767L26.9678 18.5753L26.9686 18.5383L26.9877 18.5398V18.5767Z" fill="#45413F"/>
<path fill-rule="evenodd" clip-rule="evenodd" d="M26.9677 18.5752L26.9482 18.5731L26.9503 18.5366L26.9686 18.5383L26.9677 18.5752Z" fill="#423E3C"/>
<path fill-rule="evenodd" clip-rule="evenodd" d="M26.9483 18.5735L26.9292 18.5715L26.9321 18.5352L26.9504 18.5372L26.9483 18.5735Z" fill="#3D3937"/>
<path fill-rule="evenodd" clip-rule="evenodd" d="M26.9294 18.5712C26.917 18.5696 26.9045 18.5678 26.8921 18.5658L26.8969 18.5303C26.9083 18.5321 26.9199 18.5336 26.9321 18.5348L26.9294 18.5712Z" fill="#332F2E"/>
<path fill-rule="evenodd" clip-rule="evenodd" d="M26.8921 18.5657C26.8802 18.5637 26.8683 18.5614 26.8564 18.5588L26.8641 18.5242C26.8747 18.5262 26.8857 18.5283 26.8969 18.53L26.8921 18.5657Z" fill="#272321"/>
<path fill-rule="evenodd" clip-rule="evenodd" d="M26.8563 18.559C26.8449 18.5566 26.8335 18.5537 26.8223 18.5505L26.8333 18.5171C26.843 18.5198 26.8536 18.5223 26.864 18.5244L26.8563 18.559Z" fill="#191513"/>
<path fill-rule="evenodd" clip-rule="evenodd" d="M26.8227 18.5504C26.8121 18.5471 26.8011 18.5439 26.7911 18.5402L26.8048 18.5085C26.8137 18.5116 26.8235 18.5143 26.8337 18.517L26.8227 18.5504ZM26.7909 18.5402C26.7809 18.5366 26.771 18.5326 26.7612 18.5282L26.7778 18.4983C26.7863 18.5018 26.7953 18.5051 26.8046 18.5083L26.7909 18.5402Z" fill="black"/>
<path fill-rule="evenodd" clip-rule="evenodd" d="M26.7611 18.5281C26.752 18.524 26.743 18.5195 26.7344 18.5144L26.7539 18.4868C26.7616 18.491 26.7697 18.4949 26.7777 18.4984L26.7611 18.5281Z" fill="black"/>
<path fill-rule="evenodd" clip-rule="evenodd" d="M26.7347 18.5145C26.7261 18.5098 26.7178 18.5046 26.71 18.4987L26.7326 18.4736C26.7394 18.4782 26.7463 18.4826 26.7542 18.4867L26.7347 18.5145Z" fill="black"/>
<path fill-rule="evenodd" clip-rule="evenodd" d="M26.7097 18.499C26.7021 18.4936 26.6949 18.4877 26.6881 18.4814L26.7136 18.4592C26.7192 18.4643 26.7259 18.4693 26.7323 18.4741L26.7097 18.499ZM26.6881 18.4812C26.6814 18.475 26.6752 18.4683 26.6694 18.4612L26.6979 18.4421C26.7027 18.448 26.708 18.4536 26.7136 18.4587L26.6881 18.4812Z" fill="black"/>
<path fill-rule="evenodd" clip-rule="evenodd" d="M26.6693 18.4614C26.6636 18.4545 26.6584 18.4471 26.6539 18.4394L26.6842 18.4238C26.6884 18.4303 26.6927 18.4365 26.6975 18.4423L26.6693 18.4614ZM26.6539 18.4394C26.6494 18.4316 26.6454 18.4235 26.6421 18.4151L26.674 18.4031C26.6774 18.4103 26.6805 18.417 26.6842 18.4236L26.6539 18.4394Z" fill="black"/>
<path fill-rule="evenodd" clip-rule="evenodd" d="M26.6423 18.4151C26.6386 18.4064 26.6357 18.3975 26.6338 18.3883L26.6674 18.3806C26.6695 18.3885 26.6716 18.396 26.6743 18.403L26.6423 18.4151Z" fill="black"/>
<path fill-rule="evenodd" clip-rule="evenodd" d="M26.6338 18.3884C26.6315 18.3788 26.6301 18.3691 26.6294 18.3593L26.6638 18.3562C26.6647 18.3647 26.6659 18.373 26.6676 18.3807L26.6338 18.3884Z" fill="#120B04"/>
<path fill-rule="evenodd" clip-rule="evenodd" d="M26.6296 18.3594C26.6288 18.3488 26.6287 18.3382 26.6292 18.3276L26.6641 18.3293C26.6632 18.3386 26.6636 18.3474 26.6641 18.3561L26.6296 18.3594Z" fill="#1A1614"/>
<path fill-rule="evenodd" clip-rule="evenodd" d="M26.6667 17.6016L26.6289 18.3275L26.6638 18.3292L26.703 17.5674L26.6667 17.6016Z" fill="#1C1715"/>
<path fill-rule="evenodd" clip-rule="evenodd" d="M26.9911 18.8965L26.9708 18.8955L26.9665 18.9314C26.9733 18.9316 26.9802 18.9322 26.9868 18.9326L26.9911 18.8965ZM26.9708 18.8953L26.9505 18.894L26.931 18.8926L26.9258 18.9285L26.9461 18.9299L26.9665 18.9314L26.9708 18.8953Z" fill="black"/>
<path fill-rule="evenodd" clip-rule="evenodd" d="M26.9315 18.8927L26.9116 18.891L26.8921 18.8891L26.886 18.9248L26.906 18.9267L26.9263 18.9286L26.9315 18.8927ZM26.8921 18.8891L26.8725 18.887L26.853 18.8848L26.8462 18.92C26.8595 18.9216 26.8727 18.9231 26.886 18.9246L26.8921 18.8891Z" fill="black"/>
<path fill-rule="evenodd" clip-rule="evenodd" d="M26.853 18.8848L26.8339 18.8823L26.8267 18.9178L26.8462 18.9203L26.853 18.8848Z" fill="black"/>
<path fill-rule="evenodd" clip-rule="evenodd" d="M26.8339 18.8823L26.7962 18.877L26.7881 18.9118C26.8007 18.9139 26.8136 18.916 26.8267 18.9176L26.8339 18.8823Z" fill="black"/>
<path fill-rule="evenodd" clip-rule="evenodd" d="M26.7963 18.8768L26.7593 18.8706L26.75 18.9051L26.7882 18.9117L26.7963 18.8768Z" fill="black"/>
<path fill-rule="evenodd" clip-rule="evenodd" d="M26.7596 18.8706C26.7477 18.8684 26.7358 18.866 26.7239 18.8635L26.7129 18.8976C26.7251 18.9 26.7376 18.9027 26.7502 18.905L26.7596 18.8706Z" fill="black"/>
<path fill-rule="evenodd" clip-rule="evenodd" d="M26.7238 18.8636C26.7115 18.8611 26.7003 18.8584 26.6885 18.8557L26.6763 18.8891C26.6885 18.892 26.7001 18.8949 26.7128 18.8976L26.7238 18.8636Z" fill="black"/>
<path fill-rule="evenodd" clip-rule="evenodd" d="M26.6884 18.8556L26.6539 18.8469L26.6406 18.8797C26.6525 18.883 26.6641 18.8861 26.6763 18.8891L26.6884 18.8556Z" fill="black"/>
<path fill-rule="evenodd" clip-rule="evenodd" d="M26.6539 18.847L26.6207 18.8375L26.6062 18.8697C26.6176 18.8732 26.6288 18.8767 26.6406 18.8798L26.6539 18.847ZM26.6207 18.8375C26.61 18.8343 26.5993 18.8307 26.5887 18.8269C26.5887 18.8269 26.5676 18.8197 26.5576 18.8157L26.5398 18.8462L26.5721 18.8585C26.5836 18.8624 26.5943 18.8661 26.6062 18.8697L26.6207 18.8375ZM26.5574 18.8157C26.5473 18.8118 26.5373 18.8077 26.5273 18.8035L26.5078 18.8331C26.5184 18.8377 26.5286 18.8421 26.5394 18.8462L26.5574 18.8157Z" fill="black"/>
<path fill-rule="evenodd" clip-rule="evenodd" d="M26.5275 18.8031C26.5179 18.7988 26.5083 18.7945 26.4987 18.79L26.4775 18.8187C26.4873 18.8234 26.4979 18.8282 26.5078 18.8328L26.5275 18.8031Z" fill="black"/>
<path fill-rule="evenodd" clip-rule="evenodd" d="M26.4989 18.79C26.4892 18.7854 26.4803 18.7807 26.4709 18.7759L26.4487 18.8033C26.4581 18.8085 26.4678 18.8136 26.478 18.8186L26.4989 18.79Z" fill="black"/>
<path fill-rule="evenodd" clip-rule="evenodd" d="M26.4711 18.7759C26.4622 18.7711 26.4535 18.7661 26.4448 18.761L26.4209 18.7873C26.4298 18.7929 26.4392 18.7983 26.4489 18.8035L26.4711 18.7759Z" fill="black"/>
<path fill-rule="evenodd" clip-rule="evenodd" d="M26.4447 18.7611C26.4362 18.7559 26.4278 18.7506 26.4196 18.7451L26.394 18.7702L26.4208 18.7875L26.4447 18.7611Z" fill="black"/>
<path fill-rule="evenodd" clip-rule="evenodd" d="M26.4193 18.745C26.4112 18.7396 26.4035 18.7338 26.3958 18.728L26.3687 18.7519C26.3767 18.7583 26.3853 18.7643 26.3938 18.7702L26.4193 18.745Z" fill="black"/>
<path fill-rule="evenodd" clip-rule="evenodd" d="M26.396 18.7281C26.3884 18.7224 26.381 18.7164 26.3738 18.7102L26.3454 18.7326C26.3531 18.7393 26.3607 18.7457 26.3688 18.7519L26.396 18.7281ZM26.3736 18.71C26.3663 18.7038 26.3595 18.6974 26.3524 18.6909L26.3228 18.7119C26.33 18.7189 26.3373 18.7258 26.345 18.7324L26.3736 18.71Z" fill="black"/>
<path fill-rule="evenodd" clip-rule="evenodd" d="M26.3525 18.6908C26.3456 18.6844 26.3396 18.6777 26.333 18.6707L26.3022 18.6902C26.3087 18.6976 26.3155 18.7047 26.323 18.7117L26.3525 18.6908Z" fill="black"/>
<path fill-rule="evenodd" clip-rule="evenodd" d="M26.333 18.6709C26.327 18.664 26.3212 18.657 26.3156 18.6499L26.2832 18.6677C26.2892 18.6756 26.2959 18.6831 26.3023 18.6904L26.333 18.6709Z" fill="#130D07"/>
<path fill-rule="evenodd" clip-rule="evenodd" d="M26.3155 18.6501C26.3099 18.6429 26.3041 18.6356 26.2993 18.6279L26.2661 18.6443C26.2713 18.6524 26.2775 18.6603 26.2831 18.668L26.3155 18.6501Z" fill="#211D1C"/>
<path fill-rule="evenodd" clip-rule="evenodd" d="M26.2995 18.6277C26.2943 18.6203 26.2894 18.6125 26.285 18.6045L26.251 18.6192C26.2557 18.6277 26.2607 18.636 26.2663 18.6441L26.2995 18.6277Z" fill="#2C2826"/>
<path fill-rule="evenodd" clip-rule="evenodd" d="M26.2848 18.6044C26.2804 18.5964 26.2761 18.5883 26.2721 18.5801L26.2368 18.5927C26.241 18.6017 26.2453 18.6104 26.2505 18.6189L26.2848 18.6044Z" fill="#35312F"/>
<path fill-rule="evenodd" clip-rule="evenodd" d="M26.2722 18.5802C26.2681 18.5719 26.2645 18.5634 26.2608 18.5549L26.2251 18.5657C26.2284 18.5749 26.2324 18.5842 26.2369 18.5929L26.2722 18.5802Z" fill="#403C3A"/>
<path fill-rule="evenodd" clip-rule="evenodd" d="M26.2607 18.5549C26.2574 18.5462 26.2547 18.5372 26.2518 18.5283L26.2148 18.5372C26.2177 18.5468 26.2213 18.5563 26.225 18.5657L26.2607 18.5549Z" fill="#484442"/>
<path fill-rule="evenodd" clip-rule="evenodd" d="M26.2521 18.5283C26.2492 18.5193 26.2468 18.51 26.2448 18.5007L26.207 18.5076C26.2095 18.5175 26.2122 18.5275 26.2151 18.5373L26.2521 18.5283Z" fill="#524E4D"/>
<path fill-rule="evenodd" clip-rule="evenodd" d="M26.2445 18.5005C26.2423 18.491 26.2405 18.4814 26.2389 18.4717L26.2012 18.4765C26.2028 18.487 26.2049 18.4974 26.2068 18.5074L26.2445 18.5005Z" fill="#5A5655"/>
<path fill-rule="evenodd" clip-rule="evenodd" d="M26.2393 18.4718C26.2379 18.4618 26.2368 18.4519 26.2359 18.4419L26.1978 18.4444C26.1986 18.4554 26.1998 18.466 26.2015 18.4765L26.2393 18.4718Z" fill="#605D5C"/>
<path fill-rule="evenodd" clip-rule="evenodd" d="M26.2356 18.4418C26.2348 18.4316 26.2344 18.421 26.234 18.4106L26.1958 18.4109C26.1962 18.4223 26.1966 18.4333 26.1975 18.4443L26.2356 18.4418Z" fill="#666362"/>
<path fill-rule="evenodd" clip-rule="evenodd" d="M26.2345 18.4106C26.2345 18.4 26.2349 18.3891 26.2353 18.3783L26.1971 18.376C26.1967 18.3878 26.1963 18.3994 26.1963 18.4108L26.2345 18.4106Z" fill="#6A6767"/>
<path fill-rule="evenodd" clip-rule="evenodd" d="M25.8863 17.5615L26.667 17.6017L26.7033 17.5675L25.7842 17.5198L25.8863 17.5615Z" fill="#363230"/>
<path fill-rule="evenodd" clip-rule="evenodd" d="M26.2348 18.3783L26.2597 17.9001L26.2206 17.9159L26.1968 18.376L26.2348 18.3783Z" fill="#6E6B6B"/>
<path fill-rule="evenodd" clip-rule="evenodd" d="M26.26 17.9002L25.8863 17.5615L25.7842 17.5198L26.221 17.9159L26.26 17.9002Z" fill="#2F2B29"/>
<path fill-rule="evenodd" clip-rule="evenodd" d="M26.26 17.9002L25.8862 17.5613L26.6669 17.6015L26.6291 18.3274C26.6202 18.5034 26.792 18.5667 27.0081 18.5779C27.2233 18.5891 27.4009 18.5439 27.4102 18.3679L27.448 17.642L27.8383 17.6621L27.797 18.4588C27.7788 18.8107 27.4229 18.9186 26.9917 18.8962C26.5604 18.874 26.2172 18.73 26.2353 18.3779L26.26 17.9002Z" fill="#A6A8AA"/>
<path fill-rule="evenodd" clip-rule="evenodd" d="M29.587 18.2186C29.5887 18.2041 29.588 18.1894 29.585 18.175L29.5449 18.1813C29.547 18.1916 29.5478 18.2029 29.5466 18.2149L29.587 18.2186Z" fill="#AAADB0"/>
<path fill-rule="evenodd" clip-rule="evenodd" d="M29.5849 18.1749C29.5826 18.162 29.5781 18.1496 29.5716 18.1382L29.5347 18.1529C29.5393 18.1618 29.5428 18.1713 29.5448 18.1811L29.5849 18.1749Z" fill="#929192"/>
<path fill-rule="evenodd" clip-rule="evenodd" d="M29.5715 18.1382C29.5659 18.1271 29.5587 18.117 29.55 18.1082L29.5176 18.1297C29.5242 18.1368 29.5299 18.1446 29.5346 18.153L29.5715 18.1382Z" fill="#5E5A59"/>
<path fill-rule="evenodd" clip-rule="evenodd" d="M29.55 18.1083C29.5416 18.0994 29.5323 18.0913 29.5224 18.0842L29.4956 18.1112C29.5034 18.1167 29.5107 18.1229 29.5174 18.1297L29.55 18.1083Z" fill="#383432"/>
<path fill-rule="evenodd" clip-rule="evenodd" d="M29.5227 18.0842C29.5129 18.0775 29.5026 18.0714 29.4919 18.0662L29.4712 18.0973C29.4793 18.1012 29.4878 18.106 29.4959 18.1112L29.5227 18.0842Z" fill="#1F1B19"/>
<path fill-rule="evenodd" clip-rule="evenodd" d="M29.4919 18.0661C29.4818 18.0611 29.4714 18.0567 29.4607 18.053L29.4458 18.087C29.4545 18.0898 29.4631 18.0932 29.4713 18.0972L29.4919 18.0661Z" fill="#090000"/>
<path fill-rule="evenodd" clip-rule="evenodd" d="M29.4604 18.053C29.4509 18.0497 29.4413 18.0469 29.4316 18.0447L29.4214 18.0804C29.4286 18.082 29.4367 18.0841 29.4453 18.087L29.4604 18.053Z" fill="black"/>
<path fill-rule="evenodd" clip-rule="evenodd" d="M29.4315 18.0449C29.4238 18.0431 29.416 18.0418 29.4081 18.0408L29.4004 18.0773C29.4075 18.0779 29.4146 18.079 29.4216 18.0806L29.4315 18.0449Z" fill="black"/>
<path fill-rule="evenodd" clip-rule="evenodd" d="M29.5868 18.2186C29.5861 18.2265 29.5848 18.2343 29.5831 18.242L29.5435 18.2329C29.5447 18.2269 29.5457 18.2209 29.5464 18.2148L29.5868 18.2186Z" fill="#AEB0B2"/>
<path fill-rule="evenodd" clip-rule="evenodd" d="M29.5831 18.2421C29.581 18.2495 29.5787 18.2564 29.5762 18.2628C29.5762 18.2628 29.5706 18.2755 29.5669 18.2813L29.5308 18.263C29.5337 18.2587 29.5376 18.2491 29.5376 18.2491C29.54 18.244 29.5419 18.2387 29.5432 18.2332L29.5831 18.2421Z" fill="#B0B2B4"/>
<path fill-rule="evenodd" clip-rule="evenodd" d="M29.567 18.281C29.5636 18.2865 29.5598 18.2918 29.5556 18.2967L29.522 18.2749C29.5253 18.2712 29.528 18.2671 29.5309 18.2627L29.567 18.281Z" fill="#ACAEB0"/>
<path fill-rule="evenodd" clip-rule="evenodd" d="M29.5557 18.2971C29.5477 18.3068 29.5384 18.3154 29.5281 18.3225L29.5005 18.2947C29.5086 18.2893 29.5159 18.2827 29.5221 18.2751L29.5557 18.2971Z" fill="#A8AAAC"/>
<path fill-rule="evenodd" clip-rule="evenodd" d="M29.5283 18.3222C29.5182 18.3291 29.5075 18.335 29.4963 18.3399L29.4756 18.3081C29.4844 18.3045 29.4928 18.2999 29.5007 18.2944L29.5283 18.3222Z" fill="#858384"/>
<path fill-rule="evenodd" clip-rule="evenodd" d="M29.496 18.3401C29.485 18.3448 29.4736 18.3485 29.4619 18.3513L29.4482 18.3169C29.4575 18.3148 29.4666 18.3119 29.4754 18.3083L29.496 18.3401Z" fill="#686464"/>
<path fill-rule="evenodd" clip-rule="evenodd" d="M29.4619 18.3511C29.4511 18.3538 29.4401 18.3559 29.4291 18.3573L29.4214 18.3212C29.4299 18.3204 29.4388 18.3187 29.4482 18.3167L29.4619 18.3511Z" fill="#585453"/>
<path fill-rule="evenodd" clip-rule="evenodd" d="M29.4291 18.3574C29.4194 18.3586 29.4096 18.3592 29.3998 18.3593L29.3965 18.3225C29.4042 18.3225 29.4123 18.3221 29.4212 18.3213L29.4291 18.3574Z" fill="#514D4B"/>
<path fill-rule="evenodd" clip-rule="evenodd" d="M29.3999 18.3593C29.391 18.3593 29.3833 18.3591 29.3769 18.3585L29.3765 18.3218C29.3832 18.3223 29.39 18.3226 29.3968 18.3226L29.3999 18.3593Z" fill="#484442"/>
<path fill-rule="evenodd" clip-rule="evenodd" d="M29.4082 18.0407L28.8247 17.9836L28.854 18.0235L29.4006 18.0772L29.4082 18.0407Z" fill="black"/>
<path fill-rule="evenodd" clip-rule="evenodd" d="M28.7935 18.3015L29.377 18.3583L29.3766 18.3218L28.8298 18.2681L28.7935 18.3015Z" fill="#403C3A"/>
<path fill-rule="evenodd" clip-rule="evenodd" d="M28.8246 17.9836L28.7935 18.3013L28.8298 18.2679L28.8538 18.0235L28.8246 17.9836Z" fill="#4C4847"/>
<path fill-rule="evenodd" clip-rule="evenodd" d="M29.9271 18.7551L29.8892 19.1432L29.9176 19.1824L29.9593 18.758L29.9271 18.7551Z" fill="#6F6D6C"/>
<path fill-rule="evenodd" clip-rule="evenodd" d="M29.8893 19.1432L29.5003 19.1052L29.4561 19.1372L29.9178 19.1824L29.8893 19.1432Z" fill="black"/>
<path fill-rule="evenodd" clip-rule="evenodd" d="M29.9827 18.1907C29.9817 18.2015 29.98 18.2122 29.9775 18.2228L30.0091 18.2295C30.0116 18.2179 30.0134 18.206 30.0147 18.194L29.9827 18.1907Z" fill="#767474"/>
<path fill-rule="evenodd" clip-rule="evenodd" d="M29.9772 18.2227C29.9751 18.2332 29.9721 18.2435 29.9683 18.2536L29.9986 18.2633C30.0027 18.2521 30.0058 18.2409 30.0087 18.2291L29.9772 18.2227Z" fill="#858384"/>
<path fill-rule="evenodd" clip-rule="evenodd" d="M29.9682 18.2539C29.9646 18.264 29.9604 18.2738 29.9556 18.2834L29.9844 18.296C29.99 18.2857 29.9946 18.2747 29.9985 18.2637L29.9682 18.2539Z" fill="#969697"/>
<path fill-rule="evenodd" clip-rule="evenodd" d="M29.9557 18.2834C29.9509 18.293 29.9456 18.3022 29.9399 18.3113L29.9667 18.3266C29.9733 18.3167 29.9792 18.3065 29.9846 18.2959L29.9557 18.2834Z" fill="#AAACAE"/>
<path fill-rule="evenodd" clip-rule="evenodd" d="M29.94 18.311C29.934 18.32 29.9276 18.3287 29.9209 18.3372L29.9456 18.3548C29.9533 18.3459 29.9601 18.3364 29.9668 18.3264L29.94 18.311Z" fill="#ADAEB0"/>
<path fill-rule="evenodd" clip-rule="evenodd" d="M29.9206 18.3374C29.9138 18.3459 29.9065 18.354 29.8984 18.3617L29.9206 18.3814C29.9292 18.3731 29.9377 18.3642 29.9453 18.355L29.9206 18.3374Z" fill="#B3B4B5"/>
<path fill-rule="evenodd" clip-rule="evenodd" d="M29.8987 18.3616C29.8908 18.3693 29.8826 18.3768 29.874 18.3838L29.8935 18.4049C29.9033 18.3973 29.9126 18.3896 29.9211 18.3811L29.8987 18.3616Z" fill="#BCBDBE"/>
<path fill-rule="evenodd" clip-rule="evenodd" d="M29.8739 18.3838C29.8651 18.3909 29.856 18.3976 29.8467 18.4039L29.8633 18.4259C29.8739 18.4195 29.884 18.4124 29.8934 18.405L29.8739 18.3838Z" fill="#C8C8C9"/>
<path fill-rule="evenodd" clip-rule="evenodd" d="M29.847 18.4038C29.8373 18.4102 29.8272 18.4162 29.8169 18.4217L29.831 18.4439C29.842 18.4385 29.8528 18.4322 29.8634 18.4258L29.847 18.4038Z" fill="#D4D4D5"/>
<path fill-rule="evenodd" clip-rule="evenodd" d="M29.8167 18.4219C29.8065 18.4273 29.7959 18.4325 29.7852 18.4372L29.7962 18.4592C29.808 18.4548 29.8196 18.4498 29.831 18.4443L29.8167 18.4219Z" fill="#DAD9DB"/>
<path fill-rule="evenodd" clip-rule="evenodd" d="M29.7851 18.437C29.774 18.4417 29.7628 18.446 29.7515 18.4499L29.7596 18.4704C29.7719 18.4672 29.7841 18.4634 29.7961 18.459L29.7851 18.437Z" fill="#C1C1C3"/>
<path fill-rule="evenodd" clip-rule="evenodd" d="M29.7516 18.45C29.74 18.4538 29.7282 18.4571 29.7163 18.4599L29.7215 18.4784C29.7344 18.4765 29.747 18.4738 29.7597 18.4705L29.7516 18.45Z" fill="#7D7C7C"/>
<path fill-rule="evenodd" clip-rule="evenodd" d="M29.716 18.46L29.6978 18.4639L29.7015 18.4809C29.7082 18.4803 29.7148 18.4795 29.7214 18.4784L29.716 18.46Z" fill="#383432"/>
<path fill-rule="evenodd" clip-rule="evenodd" d="M29.6979 18.4639L29.6792 18.467L29.6817 18.4825C29.6883 18.4822 29.695 18.4817 29.7016 18.4809L29.6979 18.4639Z" fill="black"/>
<path fill-rule="evenodd" clip-rule="evenodd" d="M29.6793 18.467C29.6731 18.4681 29.6669 18.4689 29.6606 18.4695L29.6615 18.4828C29.6683 18.483 29.6752 18.4828 29.6818 18.4824L29.6793 18.467Z" fill="#393533"/>
<path fill-rule="evenodd" clip-rule="evenodd" d="M29.6606 18.4697L29.6411 18.4716V18.4828C29.648 18.483 29.6548 18.4834 29.6615 18.4832L29.6606 18.4697Z" fill="#ABACAE"/>
<path fill-rule="evenodd" clip-rule="evenodd" d="M29.6414 18.4714L29.6219 18.4723L29.6206 18.481C29.6275 18.4816 29.6343 18.4822 29.6414 18.4824V18.4714Z" fill="#D4D4D5"/>
<path fill-rule="evenodd" clip-rule="evenodd" d="M29.6216 18.4722L29.6021 18.4724L29.5996 18.4784L29.6204 18.4811L29.6216 18.4722Z" fill="#C0C0C2"/>
<path fill-rule="evenodd" clip-rule="evenodd" d="M29.6023 18.4725L29.5824 18.4717L29.5791 18.4746L29.5999 18.4785L29.6023 18.4725Z" fill="#433F3D"/>
<path fill-rule="evenodd" clip-rule="evenodd" d="M29.5826 18.4716C29.5762 18.4712 29.5693 18.4708 29.5623 18.4699L29.5581 18.4697C29.5654 18.4716 29.5722 18.4733 29.5793 18.4745L29.5826 18.4716Z" fill="#2E2A28"/>
<path fill-rule="evenodd" clip-rule="evenodd" d="M29.9272 18.7553C29.9281 18.7443 29.9285 18.7338 29.9281 18.7234L29.96 18.7219C29.9606 18.734 29.9603 18.7462 29.9592 18.7582L29.9272 18.7553Z" fill="#6E6B6B"/>
<path fill-rule="evenodd" clip-rule="evenodd" d="M29.9282 18.7232C29.9279 18.7132 29.9269 18.7032 29.9253 18.6933L29.9568 18.6877C29.9585 18.6987 29.9597 18.7099 29.9602 18.7218L29.9282 18.7232Z" fill="#686464"/>
<path fill-rule="evenodd" clip-rule="evenodd" d="M29.9253 18.6936C29.9236 18.6841 29.9213 18.6747 29.9185 18.6656L29.9488 18.656C29.9521 18.6664 29.9548 18.677 29.9568 18.6878L29.9253 18.6936Z" fill="#5F5B5A"/>
<path fill-rule="evenodd" clip-rule="evenodd" d="M29.9182 18.6655C29.9149 18.6566 29.9118 18.6479 29.9072 18.6396L29.9361 18.6267C29.9408 18.636 29.945 18.6458 29.9487 18.656L29.9182 18.6655Z" fill="#5A5655"/>
<path fill-rule="evenodd" clip-rule="evenodd" d="M29.9077 18.6397C29.9035 18.6314 29.8988 18.6233 29.8936 18.6156L29.9203 18.5999C29.9265 18.6083 29.932 18.6174 29.9365 18.6268L29.9077 18.6397Z" fill="#585453"/>
<path fill-rule="evenodd" clip-rule="evenodd" d="M29.8934 18.6157C29.8881 18.6078 29.8823 18.6004 29.876 18.5935L29.9003 18.5752C29.9075 18.5829 29.9142 18.5912 29.9202 18.5999L29.8934 18.6157Z" fill="#5E5A59"/>
<path fill-rule="evenodd" clip-rule="evenodd" d="M29.8757 18.5934C29.8692 18.5863 29.8623 18.5795 29.855 18.5731L29.8768 18.553C29.8849 18.56 29.8925 18.5673 29.8998 18.575L29.8757 18.5934Z" fill="#6B6968"/>
<path fill-rule="evenodd" clip-rule="evenodd" d="M29.8555 18.5733C29.8481 18.5667 29.8402 18.5605 29.832 18.5549L29.8511 18.5337C29.8605 18.5399 29.869 18.5463 29.8775 18.5532L29.8555 18.5733Z" fill="#898889"/>
<path fill-rule="evenodd" clip-rule="evenodd" d="M29.8315 18.5548C29.823 18.5488 29.8142 18.5433 29.8052 18.5382L29.8209 18.5166C29.8315 18.5218 29.8413 18.5276 29.8506 18.5338L29.8315 18.5548Z" fill="#ABACAE"/>
<path fill-rule="evenodd" clip-rule="evenodd" d="M29.8057 18.5383C29.7963 18.5329 29.7867 18.528 29.7769 18.5235L29.7895 18.502C29.8009 18.5063 29.8113 18.5113 29.8215 18.5165L29.8057 18.5383Z" fill="#BEBEC0"/>
<path fill-rule="evenodd" clip-rule="evenodd" d="M29.7767 18.5232C29.7665 18.5184 29.7561 18.5141 29.7456 18.5101L29.7554 18.4897C29.7672 18.4933 29.7784 18.4974 29.7894 18.5018L29.7767 18.5232Z" fill="#D5D5D7"/>
<path fill-rule="evenodd" clip-rule="evenodd" d="M29.7451 18.5101C29.7342 18.5059 29.7231 18.5021 29.7119 18.4987L29.7183 18.4802C29.731 18.4829 29.743 18.486 29.7549 18.4896L29.7451 18.5101Z" fill="#CBCBCD"/>
<path fill-rule="evenodd" clip-rule="evenodd" d="M29.7121 18.499C29.7006 18.4954 29.689 18.4921 29.6772 18.4892L29.6806 18.4736C29.6934 18.4755 29.7065 18.4778 29.7187 18.4805L29.7121 18.499Z" fill="#72706F"/>
<path fill-rule="evenodd" clip-rule="evenodd" d="M29.6771 18.4892C29.6648 18.4863 29.6525 18.4836 29.6401 18.4811L29.6406 18.4697C29.6538 18.4706 29.6673 18.472 29.6802 18.4737L29.6771 18.4892Z" fill="#1D1917"/>
<path fill-rule="evenodd" clip-rule="evenodd" d="M29.6405 18.4812C29.6342 18.48 29.6278 18.4789 29.6214 18.4779L29.6206 18.4688L29.6409 18.4698L29.6405 18.4812Z" fill="#9FA0A2"/>
<path fill-rule="evenodd" clip-rule="evenodd" d="M29.6212 18.4778L29.6017 18.4747L29.5996 18.4683L29.6204 18.4685L29.6212 18.4778Z" fill="#D4D4D5"/>
<path fill-rule="evenodd" clip-rule="evenodd" d="M29.6019 18.4747C29.5954 18.4739 29.5889 18.473 29.5824 18.4722L29.5791 18.4687L29.5999 18.4683L29.6019 18.4747Z" fill="#BCBDBF"/>
<path fill-rule="evenodd" clip-rule="evenodd" d="M29.5826 18.4723L29.5623 18.47L29.5581 18.4698L29.5793 18.4688L29.5826 18.4723Z" fill="#24201F"/>
<path fill-rule="evenodd" clip-rule="evenodd" d="M29.9824 18.1905C29.9837 18.1795 29.9837 18.1687 29.9833 18.1577H30.0152C30.016 18.1698 30.0156 18.1818 30.0144 18.1938L29.9824 18.1905Z" fill="#6F6D6C"/>
<path fill-rule="evenodd" clip-rule="evenodd" d="M29.9832 18.1577C29.9828 18.1469 29.9816 18.1362 29.9795 18.1256L30.0106 18.1218C30.0131 18.1337 30.0148 18.1455 30.015 18.1575L29.9832 18.1577Z" fill="#6B6968"/>
<path fill-rule="evenodd" clip-rule="evenodd" d="M29.9797 18.1257C29.9777 18.115 29.9748 18.1045 29.9712 18.0942L30.0019 18.0869C30.0056 18.0985 30.0088 18.1099 30.0108 18.1218L29.9797 18.1257Z" fill="#6B6968"/>
<path fill-rule="evenodd" clip-rule="evenodd" d="M29.9712 18.0941C29.9679 18.0836 29.9638 18.0734 29.959 18.0636L29.9882 18.053C29.9934 18.064 29.9984 18.0754 30.0019 18.087L29.9712 18.0941Z" fill="#696665"/>
<path fill-rule="evenodd" clip-rule="evenodd" d="M29.959 18.0636C29.9539 18.0536 29.9483 18.0438 29.9424 18.0342L29.97 18.0203C29.9764 18.0311 29.9828 18.0418 29.9882 18.0533L29.959 18.0636Z" fill="#656261"/>
<path fill-rule="evenodd" clip-rule="evenodd" d="M29.9426 18.0342C29.9362 18.0244 29.9292 18.0149 29.9219 18.0057L29.9474 17.9885C29.9555 17.9989 29.9632 18.0095 29.97 18.0201L29.9426 18.0342Z" fill="#5E5A59"/>
<path fill-rule="evenodd" clip-rule="evenodd" d="M29.9217 18.0056C29.914 17.9963 29.9059 17.9873 29.8975 17.9786L29.9205 17.9583C29.9298 17.968 29.9388 17.978 29.9473 17.9883L29.9217 18.0056Z" fill="#514D4B"/>
<path fill-rule="evenodd" clip-rule="evenodd" d="M29.8976 17.9788C29.8886 17.97 29.8793 17.9615 29.8696 17.9535L29.8904 17.9304C29.9014 17.9393 29.9111 17.9489 29.9207 17.9586L29.8976 17.9788Z" fill="#423E3C"/>
<path fill-rule="evenodd" clip-rule="evenodd" d="M29.8694 17.9534C29.8594 17.9449 29.8489 17.937 29.8379 17.9298L29.8562 17.9041C29.8684 17.9126 29.8796 17.9213 29.8902 17.9304L29.8694 17.9534Z" fill="#312D2B"/>
<path fill-rule="evenodd" clip-rule="evenodd" d="M29.8377 17.9294C29.8266 17.9215 29.8151 17.9142 29.8032 17.9076L29.8186 17.8794C29.8314 17.8871 29.8441 17.8952 29.8559 17.9037L29.8377 17.9294Z" fill="#1C1816"/>
<path fill-rule="evenodd" clip-rule="evenodd" d="M29.8034 17.908C29.7978 17.9045 29.7912 17.9012 29.7852 17.8979L29.7989 17.8684L29.8188 17.8798L29.8034 17.908Z" fill="#090000"/>
<path fill-rule="evenodd" clip-rule="evenodd" d="M29.7852 17.8977C29.7792 17.8944 29.7725 17.8913 29.7661 17.8882L29.7784 17.8577L29.7991 17.8682L29.7852 17.8977Z" fill="black"/>
<path fill-rule="evenodd" clip-rule="evenodd" d="M29.7663 17.8881C29.7597 17.885 29.753 17.8819 29.7463 17.879L29.7573 17.8477L29.7785 17.8576L29.7663 17.8881ZM29.7463 17.879C29.7395 17.8761 29.7326 17.8732 29.7256 17.8705L29.7349 17.8381C29.7426 17.8412 29.7499 17.8442 29.7571 17.8475L29.7463 17.879Z" fill="black"/>
<path fill-rule="evenodd" clip-rule="evenodd" d="M29.7257 17.8707C29.7186 17.8679 29.7114 17.8652 29.7041 17.8628L29.7122 17.8296C29.7203 17.8325 29.7276 17.8352 29.7348 17.8383L29.7257 17.8707Z" fill="black"/>
<path fill-rule="evenodd" clip-rule="evenodd" d="M29.7039 17.8626L29.6821 17.8554L29.689 17.8215C29.6971 17.824 29.7047 17.8267 29.712 17.8294L29.7039 17.8626Z" fill="black"/>
<path fill-rule="evenodd" clip-rule="evenodd" d="M29.6824 17.8557C29.675 17.8534 29.6676 17.8512 29.6602 17.8491L29.6653 17.8145L29.6892 17.8217L29.6824 17.8557Z" fill="black"/>
<path fill-rule="evenodd" clip-rule="evenodd" d="M29.6597 17.8489C29.6519 17.8469 29.6441 17.8449 29.6362 17.8431L29.6406 17.8079L29.6649 17.8143L29.6597 17.8489Z" fill="#16110E"/>
<path fill-rule="evenodd" clip-rule="evenodd" d="M29.6362 17.8431C29.6285 17.8411 29.6207 17.8393 29.6128 17.8377L29.6157 17.8022C29.6242 17.8039 29.6327 17.806 29.6408 17.8078L29.6362 17.8431Z" fill="#1F1B19"/>
<path fill-rule="evenodd" clip-rule="evenodd" d="M29.6127 17.8378C29.6046 17.8362 29.5965 17.8347 29.5884 17.8333L29.59 17.7974L29.6156 17.8023L29.6127 17.8378Z" fill="#272321"/>
<path fill-rule="evenodd" clip-rule="evenodd" d="M29.5886 17.8333C29.5805 17.8321 29.572 17.8306 29.5635 17.8296L29.5643 17.7935C29.5732 17.7947 29.5817 17.7959 29.5902 17.7976L29.5886 17.8333Z" fill="#2E2A28"/>
<path fill-rule="evenodd" clip-rule="evenodd" d="M29.5636 17.8295L29.5385 17.8264L29.5381 17.79L29.5644 17.7934L29.5636 17.8295Z" fill="#332E2D"/>
<path fill-rule="evenodd" clip-rule="evenodd" d="M29.5003 19.1053L29.531 18.7876L29.4905 18.7834L29.4561 19.1373L29.5003 19.1053Z" fill="#AEB0B2"/>
<path fill-rule="evenodd" clip-rule="evenodd" d="M29.5311 18.7875C29.5323 18.7767 29.532 18.7658 29.5303 18.7551L29.4902 18.7576C29.4915 18.7659 29.4919 18.7746 29.4906 18.7833L29.5311 18.7875Z" fill="#AAACAE"/>
<path fill-rule="evenodd" clip-rule="evenodd" d="M29.53 18.7553C29.5286 18.7447 29.5259 18.7343 29.5219 18.7244L29.4839 18.7337C29.487 18.7415 29.489 18.7497 29.4899 18.758L29.53 18.7553Z" fill="#7D7C7C"/>
<path fill-rule="evenodd" clip-rule="evenodd" d="M29.522 18.7244C29.5178 18.7143 29.5126 18.7047 29.5066 18.6956L29.4722 18.7113C29.477 18.7182 29.481 18.7257 29.484 18.7335L29.522 18.7244Z" fill="#4E4948"/>
<path fill-rule="evenodd" clip-rule="evenodd" d="M29.5068 18.6954C29.5005 18.6861 29.4933 18.6775 29.4852 18.6697L29.4556 18.6915C29.4619 18.6973 29.4675 18.7039 29.4722 18.7112L29.5068 18.6954Z" fill="#2C2826"/>
<path fill-rule="evenodd" clip-rule="evenodd" d="M29.4851 18.6697C29.4769 18.6615 29.4679 18.6541 29.4584 18.6475L29.4341 18.6746C29.4418 18.6796 29.449 18.6852 29.4557 18.6915L29.4851 18.6697Z" fill="#171210"/>
<path fill-rule="evenodd" clip-rule="evenodd" d="M29.4585 18.6474C29.4486 18.6406 29.438 18.6346 29.427 18.6296L29.4083 18.6611C29.4176 18.6651 29.4266 18.6694 29.4342 18.6746L29.4585 18.6474ZM29.4268 18.6298C29.4152 18.6246 29.4033 18.6203 29.3911 18.6169L29.3784 18.6516C29.389 18.6543 29.3992 18.6574 29.4081 18.6614L29.4268 18.6298Z" fill="black"/>
<path fill-rule="evenodd" clip-rule="evenodd" d="M29.391 18.6169C29.3782 18.6135 29.3652 18.6111 29.352 18.6099L29.3447 18.6458C29.3566 18.6468 29.3673 18.6489 29.3783 18.6514L29.391 18.6169Z" fill="black"/>
<path fill-rule="evenodd" clip-rule="evenodd" d="M29.3523 18.6098L29.1576 18.5909L29.1504 18.6266L29.345 18.6459L29.3523 18.6098ZM29.1576 18.5909L28.7686 18.5527L28.7978 18.5922L29.1504 18.6266L29.1576 18.5909Z" fill="black"/>
<path fill-rule="evenodd" clip-rule="evenodd" d="M28.7687 18.5527L28.7222 19.029L28.7512 19.0682L28.7979 18.5922L28.7687 18.5527Z" fill="#4C4847"/>
<path fill-rule="evenodd" clip-rule="evenodd" d="M28.0684 17.6782L29.538 17.8264L29.5372 17.7901L27.9663 17.6313L28.0684 17.6782Z" fill="#35312F"/>
<path fill-rule="evenodd" clip-rule="evenodd" d="M28.722 19.0289L28.3333 18.991L28.2896 19.0231L28.7511 19.0682L28.722 19.0289Z" fill="black"/>
<path fill-rule="evenodd" clip-rule="evenodd" d="M28.3333 18.991L28.4269 18.0337L28.3852 18.0474L28.2896 19.0231L28.3333 18.991Z" fill="#A8AAAC"/>
<path fill-rule="evenodd" clip-rule="evenodd" d="M28.4268 18.0337L28.0684 17.6782L27.9663 17.6313L28.3851 18.0474L28.4268 18.0337Z" fill="#484442"/>
<path fill-rule="evenodd" clip-rule="evenodd" d="M28.4267 18.0337L28.0684 17.678L29.538 17.8264C29.8115 17.8546 29.9997 18.015 29.9823 18.1903C29.9653 18.3657 29.7768 18.491 29.5621 18.4699C29.7768 18.491 29.9443 18.5796 29.9273 18.7552L29.8891 19.1432L29.5 19.1053L29.5307 18.7878C29.5396 18.7002 29.4593 18.6205 29.3521 18.6099L29.1574 18.5908L28.7683 18.5527L28.7216 19.0289L28.3329 18.9907L28.4267 18.0337ZM29.3767 18.3582C29.427 18.3632 29.5737 18.3507 29.5868 18.2186C29.5994 18.0922 29.4614 18.0459 29.4081 18.0407L28.8245 17.9836L28.7934 18.3014L29.3767 18.3582Z" fill="#A6A8AA"/>
<path fill-rule="evenodd" clip-rule="evenodd" d="M30.8477 19.2508L31.0135 17.9853L31.0492 17.9534L30.874 19.2908L30.8477 19.2508Z" fill="#939394"/>
<path fill-rule="evenodd" clip-rule="evenodd" d="M30.4594 19.2002L30.8473 19.2508L30.8736 19.2909L30.4136 19.2307L30.4594 19.2002Z" fill="black"/>
<path fill-rule="evenodd" clip-rule="evenodd" d="M31.0133 17.9853L30.238 17.8838L30.1357 17.834L31.049 17.9533L31.0133 17.9853Z" fill="#34302E"/>
<path fill-rule="evenodd" clip-rule="evenodd" d="M30.5837 18.251L30.4594 19.2002L30.4136 19.2307L30.5402 18.263L30.5837 18.251Z" fill="#B5B6B7"/>
<path fill-rule="evenodd" clip-rule="evenodd" d="M30.238 17.8838L30.584 18.2509L30.5404 18.2629L30.1357 17.834L30.238 17.8838Z" fill="#666362"/>
<path fill-rule="evenodd" clip-rule="evenodd" d="M30.2378 17.8838L30.5837 18.2509L30.4594 19.2001L30.8473 19.2507L31.0131 17.9853L30.2378 17.8838Z" fill="#A6A8AA"/>
</g>
<defs>
<clipPath id="clip0_26_72939">
<rect width="40" height="40" fill="white" transform="translate(4 4)"/>
</clipPath>
</defs>
</svg>
