<svg width="48" height="48" viewBox="0 0 48 48" fill="none" xmlns="http://www.w3.org/2000/svg">
<g clip-path="url(#clip0_26_72927)">
<path d="M24.019 38.4342C16.0911 38.4342 9.59603 31.9073 9.59603 23.9794C9.59603 22.1964 9.91442 20.509 10.5194 18.9171L18.9566 35.8871C19.0521 36.11 19.2113 36.301 19.466 36.301C19.7207 36.301 19.8799 36.11 19.9754 35.8871L23.8598 27.1951C23.8916 27.0996 23.9553 27.0041 24.0508 27.0041C24.1463 27.0041 24.1782 27.0996 24.2418 27.1951L28.1262 35.8871C28.2217 36.11 28.3809 36.301 28.6356 36.301C28.8903 36.301 29.0495 36.11 29.145 35.8871L37.5823 18.9171C38.1872 20.509 38.5056 22.1964 38.5056 23.9794C38.4419 31.9073 31.9468 38.4342 24.019 38.4342ZM24.019 20.7C23.9234 20.7 23.8916 20.6045 23.8279 20.509L19.3068 10.3206C20.7714 9.77935 22.3634 9.4928 24.019 9.4928C25.6746 9.4928 27.2665 9.77935 28.7311 10.3206L24.21 20.509C24.1463 20.6363 24.1145 20.7 24.019 20.7ZM19.4024 31.175C19.3068 31.175 19.275 31.0794 19.2113 30.9839L11.8884 16.2108C13.1938 14.2049 14.9449 12.5175 17.0781 11.3394L22.3634 23.0879C22.427 23.279 22.5862 23.3426 22.7454 23.3426H25.2925C25.4835 23.3426 25.6109 23.3108 25.7064 23.0879L30.9916 11.3394C33.093 12.5175 34.876 14.2049 36.1814 16.2108L28.7948 30.9839C28.7629 31.0794 28.6993 31.175 28.6037 31.175C28.5082 31.175 28.4764 31.0794 28.4127 30.9839L25.6427 24.6799C25.5472 24.457 25.4199 24.4252 25.2288 24.4252H22.6817C22.4907 24.4252 22.3634 24.457 22.2678 24.6799L19.5934 30.9839C19.5615 31.0794 19.4979 31.175 19.4024 31.175ZM24.019 39.8988C32.8383 39.8988 39.9383 32.7987 39.9383 23.9794C39.9383 15.1601 32.8383 8.06006 24.019 8.06006C15.1996 8.06006 8.09961 15.1601 8.09961 23.9794C8.09961 32.7987 15.1996 39.8988 24.019 39.8988Z" fill="#001E50"/>
</g>
<defs>
<clipPath id="clip0_26_72927">
<rect width="32" height="32" fill="white" transform="translate(8 8)"/>
</clipPath>
</defs>
</svg>
